<?xml version="1.0" encoding="UTF-8" standalone="no"?>
<!-- Created with Inkscape (http://www.inkscape.org/) -->

<svg
   xmlns:dc="http://purl.org/dc/elements/1.1/"
   xmlns:cc="http://creativecommons.org/ns#"
   xmlns:rdf="http://www.w3.org/1999/02/22-rdf-syntax-ns#"
   xmlns:svg="http://www.w3.org/2000/svg"
   xmlns="http://www.w3.org/2000/svg"
   xmlns:sodipodi="http://sodipodi.sourceforge.net/DTD/sodipodi-0.dtd"
   xmlns:inkscape="http://www.inkscape.org/namespaces/inkscape"
   width="150"
   height="650"
   id="svg2"
   sodipodi:version="0.32"
   inkscape:version="0.48.0 r9654"
   version="1.0"
   sodipodi:docname="Mon:TallLadder.image.svg"
   inkscape:output_extension="org.inkscape.output.svg.inkscape"
   inkscape:export-filename="/Users/xavid/Pictures/MP Navigator EX/2010_06_06/ladder.png"
   inkscape:export-xdpi="90"
   inkscape:export-ydpi="90">
  <defs
     id="defs4">
    <inkscape:perspective
       sodipodi:type="inkscape:persp3d"
       inkscape:vp_x="0 : 526.18109 : 1"
       inkscape:vp_y="0 : 1000 : 0"
       inkscape:vp_z="744.09448 : 526.18109 : 1"
       inkscape:persp3d-origin="372.04724 : 350.78739 : 1"
       id="perspective10" />
    <inkscape:perspective
       id="perspective2450"
       inkscape:persp3d-origin="372.04724 : 350.78739 : 1"
       inkscape:vp_z="744.09448 : 526.18109 : 1"
       inkscape:vp_y="0 : 1000 : 0"
       inkscape:vp_x="0 : 526.18109 : 1"
       sodipodi:type="inkscape:persp3d" />
    <inkscape:perspective
       id="perspective2520"
       inkscape:persp3d-origin="372.04724 : 350.78739 : 1"
       inkscape:vp_z="744.09448 : 526.18109 : 1"
       inkscape:vp_y="0 : 1000 : 0"
       inkscape:vp_x="0 : 526.18109 : 1"
       sodipodi:type="inkscape:persp3d" />
  </defs>
  <sodipodi:namedview
     id="base"
     pagecolor="#ffffff"
     bordercolor="#666666"
     borderopacity="1.0"
     gridtolerance="10000"
     guidetolerance="10"
     objecttolerance="10"
     inkscape:pageopacity="1"
     inkscape:pageshadow="2"
     inkscape:zoom="0.7"
     inkscape:cx="-77.308151"
     inkscape:cy="308.07483"
     inkscape:document-units="px"
     inkscape:current-layer="layer1"
     showgrid="false"
     inkscape:window-width="1222"
     inkscape:window-height="756"
     inkscape:window-x="0"
     inkscape:window-y="0"
     inkscape:window-maximized="0" />
  <metadata
     id="metadata7">
    <rdf:RDF>
      <cc:Work
         rdf:about="">
        <dc:format>image/svg+xml</dc:format>
        <dc:type
           rdf:resource="http://purl.org/dc/dcmitype/StillImage" />
      </cc:Work>
    </rdf:RDF>
  </metadata>
  <g
     inkscape:label="Layer 1"
     inkscape:groupmode="layer"
     id="layer1"
     transform="translate(-524.7209,-129.27422)">
    <rect
       style="fill:#ffffff;fill-opacity:1;stroke:none"
       id="rect3522"
       width="178.57143"
       height="677.14288"
       x="-10"
       y="-12.857142"
       transform="translate(524.7209,129.27422)" />
    <path
       style="fill:#000000"
       d="m 648.95158,157.46852 c -0.68017,1.72615 -0.82513,6.04024 -0.38945,11.58968 -0.25945,8.27614 -0.52429,9.54709 -0.85316,14.90957 -0.19015,5.29268 -0.6213,6.20087 7.90633,5.66764 5.27131,-0.32961 5.05342,-0.68759 5.05039,8.29736 -9.5e-4,2.8353 -0.54318,5.28214 -1.28155,5.78316 -0.70397,0.47767 -3.5227,0.78638 -6.26389,0.68604 l -4.98398,-0.18245 0.10397,29.81898 c 1.29776,19.26529 0.96945,27.91529 0.69582,40.92727 -0.0356,3.98858 -0.14195,18.42492 -0.23627,32.08077 l -0.17149,24.8288 6.07332,-0.34504 c 5.85522,-0.33265 7.07152,-0.37958 7.15527,2.4345 0.0505,1.69553 0.48542,5.38098 0.27253,7.39208 -0.31742,2.99855 -1.10386,3.32221 -7.40946,2.77451 l -5.71983,-0.49683 0.31141,21.68568 c -0.69593,33.82082 -1.62948,67.44893 0.79868,102.43221 0.60142,1.54936 -0.77992,0.79962 0.55306,0.94421 13.38467,1.45184 13.75591,-3.99759 13.16699,7.13889 l 0.1953,6.79611 -14.60805,0.31406 -0.36937,7.6521 c -0.20316,4.20866 0.0132,35.01838 0.4807,68.46605 l 0.85006,60.81396 6.22162,-0.35347 6.22159,-0.35346 0.0947,5.93358 0.0947,5.93358 -5.49998,0.12508 c -3.025,0.0688 -6.05774,0.4822 -6.73942,0.91868 -0.97335,0.62326 -0.99671,13.49722 -0.1088,59.97211 l 1.13062,59.17849 -6.43187,0.10268 -5.1692,0.35521 c -0.13273,-8.57996 -0.41389,-17.45818 -0.34473,-26.17241 l 0.0219,-19.40115 -40.32317,0.84612 -40.32318,0.84614 0.43674,23.72289 0.43675,23.72289 -2.30506,0.6178 c -7.63087,-0.49859 -7.53372,2.81449 -7.73089,-4.21665 0.34418,-0.005 -0.32845,-48.64576 -0.61124,-81.05025 l -0.3076,-35.24958 -5.70216,0.091 -5.70216,0.091 -0.44059,-6.59194 c -0.24233,-3.62556 -0.0328,-6.85185 0.4656,-7.16952 0.49841,-0.31768 3.53774,-0.65957 6.75406,-0.75977 l 5.84785,-0.18218 -0.63645,-44.74555 c 0.63758,-18.63583 -0.48135,-36.36506 0.68216,-55.01789 -0.40913,-5.63169 -0.51071,-15.53248 -0.22573,-22.00175 0.28498,-6.46928 0.36101,-12.20872 0.16894,-12.75432 -0.19207,-0.54561 -3.0472,-0.94894 -6.34474,-0.8963 l -5.99552,0.0957 0.22184,-6.7544 0.22184,-6.7544 5.18644,-0.10357 c 2.85254,-0.057 5.48439,-0.41118 5.84855,-0.78715 0.90566,-0.93504 1.04088,-14.74905 0.57559,-58.80221 -0.21784,-20.62415 -0.10668,-40.7727 0.24701,-44.77456 0.13721,-6.29945 0.39216,-12.87762 0.66608,-19.45311 -0.0442,-2.77036 -0.11654,-2.80179 -5.92998,-2.57749 -3.23687,0.12488 -6.40855,-0.0849 -7.04819,-0.46629 -1.1389,-0.679 -0.91125,-8.58618 0.30598,-10.62786 0.30558,-0.51255 3.11621,-0.97293 6.24584,-1.02308 l 5.69025,-0.0912 -1.01213,-60.24118 c -0.55668,-33.13264 -0.70306,-60.69617 -0.32528,-61.25227 0.68912,-7.97616 -0.57807,-6.02859 -5.99457,-6.19979 l -7.29669,-0.17822 0.17787,-7.20909 0.17786,-7.20908 5.49701,-0.23148 c 3.02335,-0.12732 5.95547,-0.28664 6.51582,-0.35404 0.66316,-0.0798 0.81333,-6.235 0.43018,-17.63204 -0.65895,-19.60144 -1.08447,-18.45888 7.04206,-18.90862 l 4.81408,-0.26643 0.0259,19.25204 0.0259,19.25204 10.33363,-0.16278 c 5.68351,-0.0895 21.13274,-0.30575 34.33163,-0.48049 35.82323,-0.47425 31.47921,0.46009 31.44333,-1.78754 0.30474,-6.08608 0.34939,-12.5056 0.27682,-18.49238 0.53912,-19.47871 -2.8163,-18.58641 6.50578,-18.67304 5.06277,-0.6068 7.26596,-0.0948 5.8374,4.94356 z m -111.04424,39.44034 c 1.71143,4.34404 -2.71373,6.86687 6.26959,5.46975 5.86925,-0.0937 4.14918,1.57972 4.57532,-5.8972 0.25008,-4.38753 -2.46536,-3.20915 -6.05305,-2.55327 -2.79505,0.37206 -4.53058,-1.82632 -4.79185,2.98072 z m 111.09757,-3.5976 c -0.99121,0.39862 -1.55256,1.84352 -1.51955,3.91125 0.0467,2.92348 0.3996,3.32441 3.25432,3.69695 5.51486,0.71969 6.80381,-0.13517 6.73466,-4.4666 -0.0599,-3.75329 -0.17603,-3.88106 -3.47975,-3.82832 -1.87977,0.03 -4.12513,0.33903 -4.98968,0.68672 z m -87.76225,11.81991 c -1.38658,1.43162 -1.55336,55.54223 -0.1753,56.87831 0.33889,0.32856 17.44569,0.42592 38.01513,0.21636 34.4789,-0.35127 37.46033,-0.516 38.18484,-2.10974 0.43223,-0.9508 0.4601,-6.44914 0.0619,-12.21852 -0.39816,-5.76938 -0.73955,-18.23831 -0.75862,-27.70872 l -0.0347,-17.21894 -37.38859,0.81417 c -20.56372,0.44779 -37.62084,1.05398 -37.90472,1.34708 z m -0.0462,69.15964 c -0.27525,0.28417 -0.50281,12.6364 -0.50572,27.44943 -0.003,14.81301 0.36212,28.70624 0.33194,29.78391 -0.0991,3.53975 2.46668,2.6486 13.13576,2.43055 21.25171,-0.92946 40.90068,0.91649 62.86069,-1.07789 0.43425,-0.44834 0.55316,-28.40119 0.12854,-30.21935 -0.5964,-9.90629 0.2667,-19.83565 -0.0169,-29.85019 -0.50098,-0.78239 -75.15219,0.67607 -75.93428,1.48354 z m 87.52705,62.18619 c 0.0877,4.07265 1.13412,4.97107 5.56161,4.77502 3.73491,-0.16538 4.26715,-0.89181 4.50792,-3.87275 0.24434,-3.0252 -0.19264,-2.70296 -3.80926,-3.0205 -2.09793,-0.1842 -4.37806,-0.40157 -5.06695,-0.48305 -0.74223,-0.0878 -1.2284,0.972 -1.19332,2.60128 z m -108.29205,2.72882 c -0.66759,3.71479 0.31889,4.4301 5.48482,3.97711 3.91499,-0.34331 4.6359,-0.65771 4.64732,-3.07089 0.0239,-5.0544 -0.93183,-4.38422 -8.00068,-3.53053 -1.04243,0.12589 -1.81433,0.85968 -2.13146,2.62431 z m 20.58258,6.41794 c -0.23927,0.24703 -0.42965,13.06466 -0.42304,28.48363 l 0.012,28.03449 5.32074,-0.061 c 2.92641,-0.0335 20.39545,-0.19989 38.8201,-0.36967 l 33.49933,-0.30869 -0.20052,-28.89497 -0.20052,-28.89496 -18.49892,0.88515 c -19.49576,0.7173 -38.813,-1.5347 -58.32915,1.12599 z m 31.74011,67.29555 c -17.41279,0.39391 -32.02022,1.08864 -32.46094,1.54386 -0.44073,0.45523 -0.6743,13.40745 -0.51907,28.78273 0.26567,26.31341 0.39228,28.0117 2.15601,28.91971 2.13755,1.10046 76.48017,-1.29477 77.40076,-2.49375 0.11886,-0.1548 -0.14128,-2.9761 -0.57808,-6.26955 -0.81388,-6.13665 -0.82303,-19.73561 -0.0261,-38.72874 0.24771,-5.90303 0.172,-11.42498 -0.16824,-12.27099 -0.50634,-1.25904 -1.84606,-1.41673 -7.38168,-0.86883 -3.7197,0.36816 -21.00991,0.99166 -38.42271,1.38556 z m 56.58214,61.23636 c -1.19349,5.09857 -0.51155,5.32639 5.42697,5.23159 l 5.48561,0.16496 0.49217,-3.74929 0.23962,-4.25436 -5.53774,0.0884 c -5.02479,0.0802 -5.59044,0.31351 -6.10663,2.5187 z m -108.51274,4.30049 c -0.75269,4.03857 0.17759,3.96078 4.90717,3.90799 3.93187,-0.0439 4.57659,0.73764 4.40527,-4.31706 -0.11665,-3.44197 -1.67044,-3.79284 -5.07222,-3.4511 -3.21281,0.32278 -3.65615,0.72637 -4.24022,3.86017 z m 19.75632,6.69289 -2.30876,0.92023 0.50584,28.05576 0.50583,28.05575 8.59943,-0.0201 c 18.94398,-0.0443 57.94962,-1.12016 63.68295,-1.75653 10.07348,0.51849 5.67172,-0.27159 6.39139,-23.76674 0.21189,-10.02324 0.60494,-21.67079 0.87343,-25.88343 0.43692,-6.85513 0.29875,-7.69303 -1.31591,-7.98002 -3.84483,-0.68339 -74.75291,1.50567 -76.9342,2.37508 z m 30.64942,68.04183 c -16.72955,0.58974 -30.7187,1.2652 -31.087,1.50103 -0.3683,0.23582 -0.63404,6.62971 -0.59053,14.20863 0.0435,7.57892 -0.0676,22.38197 -0.24701,32.89567 l -0.32614,19.11582 19.88765,0.38073 c 10.93821,0.20939 28.99754,0.14399 40.13184,-0.14535 l 20.24418,-0.52606 -0.0154,-4.10369 c -0.0688,-18.33636 -1.23682,-64.04859 -1.65319,-64.69885 -0.28696,-0.44816 -3.98795,-0.56404 -8.2244,-0.25751 -4.23645,0.30652 -21.39045,1.03984 -38.12001,1.62958 z m 59.34486,69.39239 c -1.01248,0.40719 -0.28964,0.59544 -0.25422,2.8143 l 0.055,3.44484 5.22303,-0.38568 c 5.07989,-0.37511 5.22859,-0.47307 5.42625,-3.57458 0.17748,-2.78494 0.36332,-3.3644 -2.03059,-3.05507 -4.76915,0.61625 -6.5629,0.36366 -8.41946,0.75619 z m -110.21881,5.91062 c 0.0637,3.98951 0.0748,3.8243 4.00432,3.93659 6.39416,0.18272 5.53844,0.0455 5.44437,-4.83752 l 0.64508,-3.26071 -5.0788,0.0811 -5.0788,0.0811 0.0638,3.99949 z m 55.69874,3.44138 c -24.93883,0.68821 -35.08894,1.29863 -35.92394,2.1604 -0.82402,0.85046 -1.11147,8.85145 -0.98446,27.40208 0.0987,14.4105 0.0364,28.10359 -0.13841,30.42909 -0.2448,3.25708 0.057,4.3346 1.3139,4.69146 0.89742,0.2548 18.95211,0.0392 40.12153,-0.47915 l 38.48986,-0.94242 -0.23398,-22.38299 c -0.23357,-22.34417 -0.74176,-40.75671 -1.3092,-42.49286 -0.25639,-0.78446 1.10026,-0.39315 0.079,-0.37685 -13.62867,0.70401 -28.01489,1.59341 -41.41434,1.99124 z"
       id="path2526"
       sodipodi:nodetypes="cccssscccccccssccccscccccccccccscccccccccccccccccsccccsscccccssccssscccccccccsscccccsccccccscccssssccsssscccccssccccccssssccsssccccccccccccsssssssscccccccccsssccccccccssccssccccccsscccccssccsccccccsssscccscc"
       inkscape:connector-curvature="0" />
  </g>
</svg>
