<?xml version="1.0" encoding="UTF-8" standalone="no"?>
<!-- Created with Inkscape (http://www.inkscape.org/) -->

<svg
   xmlns:dc="http://purl.org/dc/elements/1.1/"
   xmlns:cc="http://creativecommons.org/ns#"
   xmlns:rdf="http://www.w3.org/1999/02/22-rdf-syntax-ns#"
   xmlns:svg="http://www.w3.org/2000/svg"
   xmlns="http://www.w3.org/2000/svg"
   xmlns:sodipodi="http://sodipodi.sourceforge.net/DTD/sodipodi-0.dtd"
   xmlns:inkscape="http://www.inkscape.org/namespaces/inkscape"
   width="169.18729"
   height="219.39841"
   id="svg6094"
   sodipodi:version="0.32"
   inkscape:version="0.48.0 r9654"
   version="1.0"
   sodipodi:docname="Mon:RuralFanBamboo.image.svg"
   inkscape:output_extension="org.inkscape.output.svg.inkscape"
   inkscape:export-filename="/Users/xavid/Documents/Temp/Yenching/bamboo-fan.png"
   inkscape:export-xdpi="90"
   inkscape:export-ydpi="90">
  <defs
     id="defs6096">
    <inkscape:perspective
       sodipodi:type="inkscape:persp3d"
       inkscape:vp_x="0 : 526.18109 : 1"
       inkscape:vp_y="0 : 1000 : 0"
       inkscape:vp_z="744.09448 : 526.18109 : 1"
       inkscape:persp3d-origin="372.04724 : 350.78739 : 1"
       id="perspective6102" />
  </defs>
  <sodipodi:namedview
     id="base"
     pagecolor="#ffffff"
     bordercolor="#666666"
     borderopacity="1.0"
     gridtolerance="10000"
     guidetolerance="10"
     objecttolerance="10"
     inkscape:pageopacity="1"
     inkscape:pageshadow="2"
     inkscape:zoom="1.979899"
     inkscape:cx="61.661266"
     inkscape:cy="97.922486"
     inkscape:document-units="px"
     inkscape:current-layer="layer1"
     showgrid="false"
     inkscape:window-width="920"
     inkscape:window-height="732"
     inkscape:window-x="296"
     inkscape:window-y="12"
     inkscape:window-maximized="0" />
  <metadata
     id="metadata6099">
    <rdf:RDF>
      <cc:Work
         rdf:about="">
        <dc:format>image/svg+xml</dc:format>
        <dc:type
           rdf:resource="http://purl.org/dc/dcmitype/StillImage" />
      </cc:Work>
    </rdf:RDF>
  </metadata>
  <g
     inkscape:label="Layer 1"
     inkscape:groupmode="layer"
     id="layer1"
     transform="translate(38.730303,-43.03125)">
    <rect
       style="fill:#ffffff;fill-opacity:1;stroke:none"
       id="rect3025"
       width="189.90868"
       height="235.36554"
       x="-6.0609155"
       y="-5.3605342"
       transform="translate(-38.730303,43.03125)" />
    <path
       style="fill:#000000"
       d="M 48.375,43.03125 C 41.718406,44.256028 34.540334,45.844808 29.65625,51.875 C 21.422009,55.521018 12.233099,44.990809 2.5,48.03125 C -6.0600639,48.231138 -10.312847,50.750364 -16.03125,54.09375 C -22.686421,58.229079 -26.355918,63.713512 -30.90625,70.75 C -40.589022,88.202544 -38.856285,108.69409 -38.125,127.875 C -36.030117,145.71925 -33.767967,163.70803 -28.59375,180.9375 C -25.796258,189.34518 -23.315471,197.55818 -19.34375,205.6875 C -14.093537,216.99274 -7.2504131,228.28439 4.25,234.03125 C 12.667722,238.30838 22.190175,236.89329 30.71875,233.84375 C 42.590008,230.94482 46.087641,213.67891 45.21875,232.125 C 43.590607,239.81168 47.429319,254.89229 40.09375,258 C 44.45907,265.13124 56.289706,261.76226 63.53125,260.71875 C 72.323365,259.192 60.731308,252.78694 62,245.6875 C 61.715491,241.97189 61.997595,236.70999 61.800712,233.23726 C 61.021999,219.5019 61.814923,229.70904 71.03125,232.65625 C 80.622179,234.32275 92.24187,233.85398 99.90625,228.25 C 108.06596,224.47244 111.06081,215.51005 116.21875,208.78125 C 119.67764,201.16545 122.56716,193.55643 124.21875,184.9375 C 128.03827,170.12489 131.17688,154.98335 130.3125,139.59375 C 130.40628,119.32376 129.74812,98.750389 123.59375,79.28125 C 118.81651,69.405026 114.56534,58.04101 104.65625,52.1875 C 96.008138,48.26165 85.656737,47.052024 76.15625,50.5 C 65.171048,56.865724 62.475846,44.765789 48.375,43.03125 z M 49.28125,45.875 C 57.461891,46.073628 62.029037,53.53175 69.34375,56.03125 C 77.187755,52.092571 85.942715,49.286012 94.46875,51.84375 C 104.34606,52.604804 110.97987,59.94221 115.5625,68.15625 C 120.83815,76.107132 122.59844,85.31982 124.78125,94.375 C 126.09982,107.55069 128.22577,120.60268 127.8125,133.90625 C 128.08383,148.45267 127.43163,163.22026 122.65625,177.09375 C 120.57985,188.65062 117.96978,200.14091 112.46875,210.59375 C 106.68666,223.04264 93.659763,233.26018 79.375,231.15625 C 70.414634,231.95433 60.344686,227.36972 61.875,216.75 C 62.230311,212.53422 62.389514,214.15797 60.669747,211.88082 C 62.485513,207.20457 60.90708,195.84949 60.3125,191.6875 C 58.369892,186.45632 57.453902,183.44521 63.879245,185.0244 C 75.481619,186.47731 68.918974,185.07065 68.5625,193.78125 C 69.611453,202.26377 80.548375,190.12018 83.28125,186.5 C 89.351231,175.52569 92.516605,192.84467 99.9375,194.4375 C 103.806,199.31294 107.32974,198.64413 104.875,192.09375 C 103.23989,182.19723 95.77779,177.43366 108.38087,181.76523 C 116.83864,182.86794 127.46363,183.50886 115.28125,172.21875 C 107.73325,166.61202 97.33246,170.47054 89.15625,172.5625 C 80.793103,173.02242 72.373663,171.58861 65.03125,175.40625 C 56.864998,182.2357 59.231145,173.48173 57.942577,168.29315 C 56.653915,164.78517 57.233419,160.05301 56.004282,154.85273 C 63.220938,149.31799 63.859198,145.49928 65.4375,156.28125 C 66.620005,160.85176 72.511752,170.9816 73.71875,160.96875 C 74.335413,155.63733 74.064242,142.13197 82.125,149.9375 C 87.003067,149.69755 91.0517,153.93499 94.46875,155.1875 C 92.725602,146.14082 85.024552,135.50955 74.59375,137.3125 C 68.276251,132.61692 62.994844,138.96992 56.03125,140.71875 C 52.91905,141.793 49.283878,148.98761 47.816994,151.32677 C 46.35011,153.66592 47.051515,151.14962 44.53125,152.5 C 42.400518,143.99603 34.05971,139.25694 25.71875,139.40625 C 17.590539,137.1455 9.3939149,140.01356 3.5,145.3125 C -1.0187193,148.25186 -6.4343172,160.40167 3.5625,154.5 C 9.2891971,153.99786 17.290702,145.69014 16.78125,157.34375 C 17.785727,162.40817 23.590371,175.72058 26.03125,166.28125 C 29.050506,160.28858 27.109137,148.13844 36.6875,155.21875 C 44.425524,157.49462 41.258366,171.81913 41.672748,176.25 C 33.396676,170.96462 19.837714,177.87567 11.34375,177.3125 C 0.84435499,182.16831 1.7371931,171.44468 -7.53125,179.34375 C -12.374928,181.96725 -25.21963,191.51926 -11.8125,189.6875 C -4.5939487,190.29988 2.501115,182.12113 -2.5625,197.03125 C -5.1938191,208.66916 5.000249,201.89712 7.875,196.71875 C 12.638373,192.4622 13.654004,180.12346 19.8125,189.78125 C 24.397829,192.81426 32.078319,198.131 36.625,197.6875 C 36.780062,195.3914 35.937419,188.26437 35.067473,185.3837 C 37.354253,186.29111 40.876421,188.41441 42.4375,187.44638 C 42.76514,196.71151 43.281249,205.04537 43.760153,214.37373 C 44.60766,224.44677 36.017945,230.35195 27.1875,232.4375 C 21.671603,234.89669 12.995337,234.97291 7.59375,233.25 C -0.92317408,228.90765 -8.0010519,222.02321 -12.46875,213.5 C -17.714692,205.87118 -19.554399,196.73556 -23.25,188.375 C -25.033555,180.14402 -28.369768,172.47926 -30.03125,164.125 C -32.426257,152.40805 -32.909813,140.40977 -35.40625,128.71875 C -36.119624,109.39152 -37.85385,88.332383 -27.40625,71.09375 C -22.505735,63.587759 -15.914669,56.142317 -7.5625,52.65625 C 0.60125197,49.495464 10.536653,50.040854 18.5625,53.90625 C 29.340377,61.400513 34.260863,47.831477 43.96875,46.4375 L 45.53125,46.28125 C 46.8654,45.977818 48.112587,45.846625 49.28125,45.875 z M 83.4375,66.09375 C 68.673756,68.224091 53.518675,67.356153 38.59375,67.90625 C 0.93445634,69.608061 2.9212738,60.381231 3.875,82.75 C 3.0195928,87.251903 4.1884403,90.03739 9.25,89.09375 C 28.683403,89.139518 48.588135,89.403089 67.875,87.3125 C 77.644705,87.412611 87.305728,90.038153 85.53125,76.09375 C 85.069551,72.965292 85.622656,68.522913 83.4375,66.09375 z M 74.9375,68.96875 C 83.115078,68.854612 84.435472,70.755152 81.59375,83.40625 C 71.981535,86.468256 61.479451,83.799505 51.78125,86.15625 C 42.744824,85.024048 33.05446,87.936657 23.8125,87.25 C 8.423851,85.420145 3.9032473,92.23691 6.09375,75.34375 C 6.2833684,67.65669 2.2970404,71.265046 31.3125,70.5 C 43.587692,70.208738 55.877439,69.308957 68.15625,69.25 C 70.808269,69.114465 73.050367,68.995089 74.9375,68.96875 z M 43.46875,106.46875 C 34.870728,106.92543 27.373352,112.97335 23.125,120.625 C 19.024298,125.43988 20.041582,134.32145 27.25,128.15625 C 32.296005,126.00465 40.602276,117.31511 39.875,128.34375 C 39.800537,135.00724 47.727173,144.98169 49.6875,133.5625 C 51.806323,129.11707 49.32423,114.15794 57.15625,122.625 C 61.604749,125.27965 71.023181,134.48093 74.46875,129.59375 C 71.383565,122.39333 70.084922,110.78105 61.03125,109.03125 C 55.920788,106.5338 51.240389,108.77464 43.46875,106.46875 z M 45.65625,108.71875 C 52.44532,115.18449 48.812087,128.26482 45.71875,136.3125 C 40.565076,129.99003 40.825074,116.79869 45.09375,109 L 45.65625,108.71875 z M 39.125,109.125 C 44.015672,117.88444 31.895717,123.55664 25.3125,126.71875 C 21.702598,121.30624 33.200081,110.44486 39.125,109.125 z M 56.65625,110.25 C 64.261287,110.13187 73.537136,124.8753 68.1875,127.25 C 63.07106,123.18385 48.23462,118.31894 53.59375,110.65625 L 55.15625,110.46875 C 55.64345,110.32062 56.149248,110.25788 56.65625,110.25 z M 69.09375,139.0625 C 74.324946,145.25865 72.901711,155.40249 70.34375,162.21875 C 66.619401,156.05421 63.121867,144.58914 69.09375,139.0625 z M 76.1875,139.0625 C 80.698064,139.4234 91.018181,146.21842 88.125,149.71875 C 84.501793,148.44864 69.552736,143.80813 76.1875,139.0625 z M 22.09375,140.3125 C 29.75172,145.44365 25.710334,158.94256 23.589943,166.39023 C 17.710113,162.57477 16.546745,148.07862 20.96875,141.40625 L 21.46875,140.59375 L 22.09375,140.3125 z M 16.65625,141 C 19.975668,148.67582 8.7035869,150.8186 3.75,152.6875 C 0.72368818,147.3589 12.690892,142.00031 16.65625,141 z M 61.125,141.125 C 68.291,146.27481 53.489099,152.56433 49.633407,155.40879 C 47.66983,151.44389 55.492495,141.765 61.125,141.125 z M 29.78125,142.125 C 35.62925,141.79307 45.175167,151.31197 41.125,154.65625 C 35.989887,153.80242 24.361254,148.38491 29.21875,142.1875 C 29.399106,142.15572 29.592605,142.13571 29.78125,142.125 z M 49.825983,156.75254 C 57.395192,152.14591 52.056859,164.59828 55.690328,172.08942 C 57.177223,176.04503 53.493784,174.78688 46.821384,173.31631 C 43.811758,173.0865 44.749079,166.32394 44.025527,161.75041 C 42.291822,155.66164 44.326814,155.2974 49.825983,156.75254 z M 106.09375,171.3125 C 109.87906,172.1114 111.5303,172.14924 114.62587,174.78371 C 125.17131,182.34268 111.781,179.87136 105.8125,179.1875 C 100.56198,178.12378 97.151626,176.06469 96.794233,174.3167 C 96.436839,172.56871 99.13241,171.13182 106.09375,171.3125 z M 75.90625,174.1875 C 78.85027,175.31264 74.057001,180.58076 71.166153,184.08588 C 67.896498,183.92919 67.160609,183.52474 65.71875,183.40625 C 54.375656,183.34074 60.825371,180.51399 64.466069,178.53285 C 68.106767,176.55171 73.862942,174.65858 75.90625,174.1875 z M 91.75,174.28125 C 99.288806,174.63104 103.9454,190.98099 100.75,192.90625 C 96.746328,188.58296 85.455017,180.22579 91.75,174.28125 z M 85.78125,174.5 C 89.384976,180.16524 77.954377,188.66558 73.40625,192.8125 C 67.60116,194.28647 76.261762,177.27319 82.5,175.6875 L 83.6875,175.09375 L 85.78125,174.5 z M 31.75,176.03125 C 32.423903,175.96601 33.54371,176.2627 35.21875,177.03125 C 43.744071,178.20798 51.965327,184.42737 40.796002,184.22843 C 35.449049,184.32041 28.188953,176.37597 31.75,176.03125 z M 54.233979,176.7086 C 59.87536,177.40319 57.634657,179.84497 56.683018,181.51336 C 53.079728,182.1716 47.482506,182.56154 46.158311,179.65752 C 45.432342,176.76345 47.136985,176.03824 49.180257,176.03053 C 51.223529,176.02283 53.605431,176.73263 54.233979,176.7086 z M -1.03125,178.40625 C 11.689967,181.48291 -9.6558254,190.17845 -13.15625,186.59375 C -10.23661,183.45794 -5.2318109,179.56349 -1.03125,178.40625 z M 22.0625,178.96875 C 28.634163,178.58914 35.75204,190.48616 32.375,194.71875 C 27.110805,193.1999 10.972524,182.94855 22.0625,178.96875 z M 11.125,179.25 C 18.303097,182.05187 7.3433971,190.80847 6.53125,194.90625 C 3.4215739,201.11322 -3.4920936,204.37558 0.34375,194.90625 C 1.4115227,188.99855 5.0656673,180.79132 11.125,179.25 z M 51.09375,183.90625 C 51.745244,183.90649 52.594792,183.4449 55.144036,184.15752 C 60.021429,190.69929 58.777776,202.70545 59.09375,210.65625 C 51.098491,212.95492 43.588163,209.13178 45.6875,199.875 C 45.57646,192.67528 41.32134,183.90268 51.09375,183.90625 z M 48.8125,212.21875 C 52.162152,213.23301 65.688619,212.57515 56.0625,215.625 C 54.949436,215.77742 42.142889,213.60379 48.8125,212.21875 z M 47.34375,216.5 C 50.793913,218.59747 60.601309,214.16923 59.8125,220 C 59.474188,229.82761 60.509862,239.82762 58.84375,249.5 C 48.713378,252.33945 46.284138,254.46173 47.53125,243.28125 C 47.555904,234.44719 46.669538,225.49056 46.875,216.75 L 47.34375,216.5 z M 63.28125,255.8125 C 67.573858,261.27606 56.855237,257.92963 63.28125,255.8125 z M 53.40625,258.03125 C 55.520996,261.66733 47.209633,260.981 53.40625,258.03125 z"
       id="path2384"
       sodipodi:nodetypes="ccccccccccccccsccccccccccccccccccccccccccccccccccccccccccccccccccccccccccccccccccccccccccccccccccccccccccccccccccccccccccccccccccccccccccccccccccccccccccccccccccccccccccccsccccccccccccccccccccccccccccc" />
  </g>
</svg>
