<?xml version="1.0" encoding="UTF-8" standalone="no"?>
<!-- Created with Inkscape (http://www.inkscape.org/) -->
<svg
   xmlns:dc="http://purl.org/dc/elements/1.1/"
   xmlns:cc="http://creativecommons.org/ns#"
   xmlns:rdf="http://www.w3.org/1999/02/22-rdf-syntax-ns#"
   xmlns:svg="http://www.w3.org/2000/svg"
   xmlns="http://www.w3.org/2000/svg"
   xmlns:sodipodi="http://sodipodi.sourceforge.net/DTD/sodipodi-0.dtd"
   xmlns:inkscape="http://www.inkscape.org/namespaces/inkscape"
   id="svg2"
   sodipodi:version="0.32"
   inkscape:version="0.46"
   width="239.48399"
   height="153.01402"
   version="1.0"
   sodipodi:docname="n_feathers.svg"
   inkscape:output_extension="org.inkscape.output.svg.inkscape">
  <metadata
     id="metadata7">
    <rdf:RDF>
      <cc:Work
         rdf:about="">
        <dc:format>image/svg+xml</dc:format>
        <dc:type
           rdf:resource="http://purl.org/dc/dcmitype/StillImage" />
      </cc:Work>
    </rdf:RDF>
  </metadata>
  <defs
     id="defs5">
    <inkscape:perspective
       sodipodi:type="inkscape:persp3d"
       inkscape:vp_x="0 : 526.18109 : 1"
       inkscape:vp_y="0 : 1000 : 0"
       inkscape:vp_z="744.09448 : 526.18109 : 1"
       inkscape:persp3d-origin="372.04724 : 350.78739 : 1"
       id="perspective9" />
  </defs>
  <sodipodi:namedview
     inkscape:window-height="756"
     inkscape:window-width="1222"
     inkscape:pageshadow="2"
     inkscape:pageopacity="1"
     guidetolerance="10.0"
     gridtolerance="10.0"
     objecttolerance="10.0"
     borderopacity="1.0"
     bordercolor="#666666"
     pagecolor="#ffffff"
     id="base"
     showgrid="false"
     inkscape:zoom="0.73020528"
     inkscape:cx="256.48148"
     inkscape:cy="142.11967"
     inkscape:window-x="-1"
     inkscape:window-y="0"
     inkscape:current-layer="svg2"
     showguides="true"
     inkscape:guide-bbox="true"
     borderlayer="true" />
  <rect
     style="opacity:1;fill:#ffffff;fill-opacity:1;stroke:#ffffff;stroke-width:0.5;stroke-linecap:square;stroke-miterlimit:4;stroke-dasharray:none;stroke-dashoffset:0;stroke-opacity:1"
     id="rect2401"
     width="1463.9719"
     height="909.33331"
     x="-625.39874"
     y="-57.55928" />
  <path
     style="fill:#000000"
     d="M 71.892867,152.45693 C 70.830467,151.86243 70.159967,150.26373 70.145967,148.29173 C 70.127567,145.69003 69.519667,144.79533 66.895967,143.50803 C 63.112367,141.65173 57.408667,134.58593 56.607567,130.76283 C 56.299767,129.29353 55.620667,127.30303 55.098567,126.33933 C 54.576367,125.37573 53.898767,117.05073 53.592667,107.83933 C 53.286567,98.628026 52.882467,88.616426 52.694767,85.591426 C 52.032167,74.912626 52.063667,29.023526 52.737067,23.958226 C 54.067167,13.954426 59.925867,6.8193262 68.294267,5.0116262 C 72.422667,4.1198262 77.328467,4.3512262 78.468667,5.4914262 C 79.073667,6.0964262 80.332067,6.5914262 81.265067,6.5914262 C 82.691467,6.5914262 85.419967,9.2471262 90.118667,15.208426 C 90.602867,15.822826 91.721467,18.453126 92.604267,21.053526 C 93.972567,25.083726 94.265467,33.258626 94.588467,76.436526 C 94.938967,123.28773 94.834067,127.39183 93.191167,131.09143 C 91.279567,135.39623 84.188667,142.82443 81.632967,143.19953 C 79.525467,143.50883 77.111767,145.59943 77.273967,146.97483 C 77.808167,151.50463 75.107567,154.25603 71.892867,152.45693 z M 75.238367,122.83593 C 75.087367,108.12643 74.815367,93.391426 74.633967,90.091426 C 74.128867,80.903726 74.085367,75.776126 74.443167,67.591426 C 74.623467,63.466426 74.309267,59.315126 73.744867,58.366426 C 73.027167,57.159826 73.059867,56.300326 73.853467,55.506626 C 74.588067,54.772026 74.690867,53.441126 74.145067,51.731726 C 73.316767,49.137726 72.260167,29.102826 72.199567,14.841426 C 72.180767,10.435726 71.754167,7.5914262 71.112167,7.5914262 C 70.130767,7.5914262 70.327567,43.460026 71.718567,118.09143 C 72.227067,145.37763 72.911067,152.18243 74.940967,150.15243 C 75.255567,149.83783 75.389467,137.54543 75.238367,122.83593 z M 70.168667,140.59143 C 70.168667,139.49143 69.692167,138.59143 69.109667,138.59143 C 68.527167,138.59143 68.320667,138.15463 68.650567,137.62073 C 68.980567,137.08693 68.149767,136.37383 66.804467,136.03613 C 65.459067,135.69853 63.337267,134.33533 62.089167,133.00683 C 59.340967,130.08143 57.698067,129.84353 59.164367,132.58333 C 60.532367,135.13953 68.040467,142.59143 69.247867,142.59143 C 69.754367,142.59143 70.168667,141.69143 70.168667,140.59143 z M 84.845867,138.34143 C 87.393767,136.00393 90.333167,132.17123 91.377867,129.82433 C 93.076167,126.00933 93.116567,125.39653 91.759767,124.03963 C 90.402867,122.68273 89.719867,123.06373 85.313167,127.63563 C 78.838467,134.35293 77.937267,132.66793 84.266867,125.67953 C 86.962867,122.70293 89.168667,119.66543 89.168667,118.92953 C 89.168667,118.19353 89.543667,117.59143 90.002067,117.59143 C 91.007267,117.59143 91.022467,117.49133 91.802867,105.72933 C 92.291067,98.371626 92.129067,96.160926 91.046367,95.403226 C 89.980867,94.657626 89.951867,94.324226 90.918667,93.932026 C 92.075567,93.462526 92.750467,90.591426 91.703967,90.591426 C 91.002967,90.591426 77.168667,104.29413 77.168667,104.98853 C 77.168667,105.32013 78.137567,105.59143 79.321667,105.59143 L 81.474667,105.59143 L 79.349867,107.43433 C 77.426367,109.10263 77.224667,110.31093 77.221367,120.18433 C 77.219367,126.18323 77.213567,132.08163 77.208467,133.29193 C 77.203467,134.50213 77.637067,135.76293 78.172267,136.09363 C 79.205267,136.73213 89.168667,127.18043 89.168667,125.55163 C 89.168667,125.02353 89.618667,124.59143 90.168667,124.59143 C 91.666467,124.59143 91.379267,126.03553 89.418667,128.36243 C 88.456167,129.50483 86.548667,131.82363 85.179667,133.51543 C 83.810667,135.20723 82.223167,136.59143 81.651867,136.59143 C 80.107867,136.59143 77.016667,140.53653 77.697567,141.63813 C 78.736267,143.31883 80.112167,142.68423 84.845867,138.34143 z M 81.654767,104.56893 C 80.863567,103.28873 83.734067,99.823526 84.746867,100.83633 C 85.091067,101.18053 84.698767,102.42423 83.875067,103.60023 C 82.844167,105.07213 82.152267,105.37393 81.654767,104.56893 z M 87.168667,98.150426 C 87.168667,96.649326 88.964067,95.053426 89.758767,95.848226 C 90.456267,96.545626 89.075367,99.591426 88.061667,99.591426 C 87.570567,99.591426 87.168667,98.943026 87.168667,98.150426 z M 69.428067,133.70753 C 69.924567,131.80893 67.791467,129.37633 65.097767,128.76943 C 64.311767,128.59233 62.480567,127.31793 61.028367,125.93743 C 59.236067,124.23353 58.160767,123.79523 57.680267,124.57273 C 56.971467,125.71963 66.236967,135.59143 68.022167,135.59143 C 68.524467,135.59143 69.157167,134.74373 69.428067,133.70753 z M 69.289567,127.34143 C 69.355967,126.65393 69.387567,124.96643 69.359767,123.59143 C 69.331967,122.21643 69.230667,116.81643 69.134667,111.59143 C 69.038767,106.36643 68.539667,101.82913 68.025767,101.50843 C 67.449167,101.14883 67.462867,99.947926 68.061467,98.373526 C 69.132967,95.555226 69.014267,95.381326 60.874367,87.841426 C 55.755267,83.099626 55.168667,82.839826 55.168667,85.314526 C 55.168667,86.262226 57.968167,89.862226 61.389767,93.314526 C 64.811367,96.766826 67.140467,99.591426 66.565567,99.591426 C 65.990567,99.591426 63.753567,97.799026 61.594467,95.608226 C 59.435267,93.417526 57.106167,91.617526 56.418667,91.608226 C 53.697867,91.571626 55.441467,94.674526 60.850867,99.495926 C 63.976067,102.28143 66.201667,104.89183 65.796467,105.29693 C 65.391367,105.70203 64.746867,105.57483 64.364367,105.01433 C 63.616367,103.91843 57.660667,99.591426 56.900267,99.591426 C 55.454267,99.591426 55.346167,109.48773 56.733667,114.84223 C 58.336667,121.02833 59.313167,122.46913 64.527467,126.34143 C 67.967667,128.89623 69.115967,129.13733 69.289567,127.34143 z M 84.010167,94.288226 C 84.208567,93.846426 86.125367,91.861726 88.269767,89.877626 C 90.662567,87.663726 92.168667,85.366426 92.168667,83.930826 C 92.168667,82.644126 91.883967,81.591426 91.535967,81.591426 C 90.810967,81.591426 88.360267,84.363726 86.168667,87.663126 C 83.567667,91.578826 78.681667,95.771026 77.775267,94.864626 C 77.441667,94.531026 77.168667,95.767326 77.168667,97.611826 L 77.168667,100.96563 L 80.409067,98.028526 C 82.191367,96.413126 83.811767,94.730026 84.010167,94.288226 z M 92.201767,74.091426 C 92.251567,71.891426 92.410767,66.581826 92.555367,62.292226 C 92.700067,58.002626 92.539367,54.320526 92.198467,54.109826 C 91.477367,53.664226 85.784267,58.993226 82.179667,63.487826 C 80.810667,65.194826 79.165467,66.591426 78.523467,66.591426 C 77.881567,66.591426 77.069967,68.728926 76.719867,71.341426 C 76.010267,76.637526 76.203867,91.574926 77.000867,93.025426 C 77.283167,93.539126 80.798467,90.389126 84.812667,86.025426 C 91.242167,79.036126 92.121867,77.615126 92.201767,74.091426 z M 68.823767,78.671726 C 68.678967,67.541426 68.508167,66.581126 66.244367,64.171726 C 64.910967,62.752526 64.192367,61.591426 64.647367,61.591426 C 65.102367,61.591426 64.436967,60.691426 63.168667,59.591426 C 61.900367,58.491426 60.553767,57.591426 60.176167,57.591426 C 59.798667,57.591426 58.977167,56.466426 58.350667,55.091426 C 57.724167,53.716426 56.557867,52.591426 55.758867,52.591426 C 54.537867,52.591426 54.375667,54.784626 54.742267,66.341426 L 55.178467,80.091426 L 59.423567,83.827726 C 61.758367,85.882626 64.329367,88.245126 65.136867,89.077726 C 68.437767,92.480926 68.983367,90.940726 68.823767,78.671726 z M 85.062667,57.198226 C 89.101767,53.131926 92.221367,49.249526 91.995067,48.570526 C 91.759967,47.865126 89.607867,49.533526 86.973367,52.463826 C 84.437767,55.284026 82.094367,57.591426 81.765967,57.591426 C 80.159267,57.591426 81.658467,55.118126 86.668667,49.503126 C 89.693667,46.112926 92.168667,42.510026 92.168667,41.496626 C 92.168667,39.193826 89.489767,40.004526 88.681267,42.551926 C 87.969567,44.794226 84.360967,48.117126 83.534867,47.290926 C 83.192967,46.949126 85.029167,44.316026 87.615167,41.439726 C 92.253067,36.281226 92.310167,36.134626 91.809667,30.650826 C 90.716067,18.669226 87.937167,13.468726 80.063467,8.6685262 C 73.893267,4.9069262 74.028167,4.4124262 74.696967,28.341426 C 75.031267,40.303926 75.713467,50.508326 76.213067,51.017826 C 76.767467,51.583226 77.912367,51.228426 79.151167,50.107326 C 81.990167,47.538026 82.850567,48.954226 80.164667,51.775326 C 74.909767,57.294826 73.808467,60.924926 78.083067,58.637326 C 80.736367,57.217226 80.790267,58.614826 78.168667,60.859426 C 76.159167,62.580026 75.498967,64.591426 76.943767,64.591426 C 77.369967,64.591426 81.023467,61.264526 85.062667,57.198226 z M 68.137967,60.841426 C 68.080867,59.451426 55.161667,46.265226 54.502467,46.924326 C 54.143567,47.283226 56.247067,50.020926 59.176967,53.008026 C 62.106867,55.995226 64.900967,59.148526 65.386067,60.015326 C 66.286567,61.624526 68.193567,62.197026 68.137967,60.841426 z M 69.168667,55.314626 C 69.168667,53.546326 55.395167,40.031726 54.502567,40.924226 C 54.105067,41.321726 54.654767,42.526526 55.724267,43.601426 C 56.793667,44.676326 59.918667,48.004526 62.668667,50.997426 C 67.834067,56.618826 69.168667,57.505326 69.168667,55.314626 z M 68.714167,46.734826 C 68.211967,45.152426 68.004267,28.855526 68.310867,15.091426 C 68.468067,8.0364262 68.360567,7.7322262 65.918667,8.3231262 C 59.690467,9.8301262 55.098367,18.207926 54.617767,28.940126 L 54.303167,35.966226 L 60.485967,42.245626 C 66.711267,48.568326 69.837467,50.273826 68.714167,46.734826 z M 22.633267,148.20383 C 22.012267,144.06233 21.764267,143.78243 18.214767,143.21483 C 12.982167,142.37813 6.8432665,136.77623 5.2338665,131.36943 C 4.5334665,129.01653 3.5103665,125.96643 2.9603665,124.59143 C 2.4103665,123.21643 1.8100665,115.11643 1.6264665,106.59143 C 1.4428665,98.066426 0.99886652,85.190826 0.63976652,77.978926 C -0.22603348,60.590526 -0.21053348,37.024226 0.67086652,30.411226 C 1.6277665,23.232826 6.8650665,13.591426 9.8075665,13.591426 C 10.464567,13.591426 11.152067,13.237726 11.335367,12.805326 C 12.397267,10.300926 18.826267,7.2557262 23.407567,7.0872262 C 28.491467,6.9002262 31.366667,8.4410262 36.477767,14.091426 C 38.644667,16.486926 42.937967,25.534626 43.575067,29.048326 C 43.825467,30.428926 44.245567,31.906926 44.508767,32.332726 C 45.426767,33.817926 46.385467,63.300626 46.435767,91.591426 C 46.490867,122.60943 46.223767,129.59143 44.981867,129.59143 C 44.534567,129.59143 44.166567,130.15393 44.163867,130.84143 C 44.155967,132.91353 37.388067,139.61903 34.173567,140.73963 C 31.538967,141.65803 31.168667,142.25913 31.168667,145.61783 C 31.168667,149.99703 29.118767,152.59143 25.658567,152.59143 C 23.628467,152.59143 23.197467,151.96643 22.633267,148.20383 z M 28.983467,139.46063 C 28.870567,134.03263 28.494367,129.59143 28.147567,129.59143 C 27.800867,129.59143 27.399967,124.30393 27.256767,117.84143 C 26.941567,103.61153 26.557067,92.827726 25.821667,77.591426 C 25.516367,71.266426 24.974067,56.416426 24.616467,44.591426 C 23.948267,22.493126 23.408867,9.4708262 23.125267,8.5914262 C 23.036567,8.3164262 22.628467,9.4972262 22.218367,11.215526 C 21.103267,15.887826 21.724067,63.024226 23.796567,131.04203 C 24.333267,148.65753 25.149567,152.68213 27.748467,150.52523 C 28.852067,149.60933 29.140767,147.02313 28.983467,139.46063 z M 22.153367,141.34143 C 22.125867,139.09453 20.676567,137.72263 17.774767,137.19643 C 14.856667,136.66733 12.519967,135.00203 8.5066665,130.59143 C 6.6152665,128.51283 6.2265665,128.38643 6.2002665,129.84143 C 6.1593665,132.10573 13.417167,139.35863 17.501967,141.13563 C 21.483267,142.86753 22.172467,142.89803 22.153367,141.34143 z M 39.765167,134.02273 C 42.846567,130.02333 45.404167,122.85503 44.048667,122.01723 C 43.491467,121.67293 42.953067,121.54873 42.852167,121.74133 C 42.751267,121.93393 42.106167,123.09783 41.418667,124.32783 C 40.731167,125.55793 40.168667,127.24543 40.168667,128.07783 C 40.168667,128.91033 39.790967,129.59143 39.329167,129.59143 C 38.867467,129.59143 37.977167,130.71643 37.350667,132.09143 C 36.724167,133.46643 35.526967,134.59143 34.690167,134.59143 C 32.868767,134.59143 32.727967,133.43223 34.352067,131.80813 C 35.943067,130.21703 34.583767,129.00213 32.835667,130.45283 C 32.037767,131.11503 31.454367,133.48623 31.454367,136.06743 L 31.454367,140.53573 L 34.427667,138.81363 C 36.062967,137.86643 38.464867,135.71053 39.765167,134.02273 z M 21.939367,134.77943 C 22.156967,134.12663 21.510067,133.33443 20.501867,133.01893 C 19.493567,132.70353 17.150467,131.78403 15.294867,130.97563 C 10.372767,128.83113 10.355767,129.99003 15.257267,133.54063 C 19.562067,136.65903 21.210967,136.96473 21.939367,134.77943 z M 21.133267,118.78243 C 21.108767,111.40423 20.654967,107.31673 19.668667,105.59143 C 18.882667,104.21643 18.223567,103.48313 18.204167,103.96193 C 18.184667,104.44063 16.256167,103.29943 13.918667,101.42573 C 9.4006665,97.804326 4.5944665,94.591426 3.6950665,94.591426 C 2.9886665,94.591426 3.8105665,111.18713 4.7104665,115.09143 C 5.0907665,116.74143 5.4244665,118.68983 5.4519665,119.42113 C 5.5438665,121.86243 13.812067,129.42023 16.806267,129.79993 C 18.380567,129.99953 20.006167,130.00773 20.418667,129.81813 C 20.831167,129.62853 21.152767,124.66243 21.133267,118.78243 z M 36.406167,125.84143 C 39.763367,122.38603 41.491267,119.25343 42.887167,114.09143 C 43.728167,110.98133 44.448967,95.591426 43.753667,95.591426 C 43.412467,95.591426 41.649867,97.053926 39.836767,98.841426 C 38.023567,100.62893 34.945467,103.29713 32.996567,104.77063 C 29.453567,107.44943 29.452967,107.45123 29.694667,114.77063 C 29.827567,118.79713 29.988567,123.77893 30.052467,125.84143 C 30.125167,128.18763 30.654267,129.59143 31.465767,129.59143 C 32.179167,129.59143 34.402367,127.90393 36.406167,125.84143 z M 37.451267,98.495326 C 43.601567,92.913826 45.731467,89.591426 43.159267,89.591426 C 41.635267,89.591426 30.588567,99.769126 29.320667,102.34143 C 27.336967,106.36583 30.348167,104.94143 37.451267,98.495326 z M 20.468367,101.17103 C 19.611467,99.649026 4.5965665,86.591426 3.7033665,86.591426 C 3.4092665,86.591426 3.1686665,87.436826 3.1686665,88.469926 C 3.1686665,90.298726 13.017567,99.591426 14.955767,99.591426 C 15.488167,99.591426 16.483967,100.26643 17.168667,101.09143 C 18.794467,103.05033 21.564067,103.11713 20.468367,101.17103 z M 33.286767,95.318226 C 35.276767,93.543526 38.539267,90.804126 40.536767,89.230726 C 42.534367,87.657326 44.168667,85.519826 44.168667,84.480726 C 44.168667,83.441626 43.936567,82.591426 43.652867,82.591426 C 42.848067,82.591426 28.168667,97.089126 28.168667,97.883926 C 28.168667,99.275326 29.724067,98.495626 33.286767,95.318226 z M 21.168667,95.684526 C 21.168667,95.185726 18.806167,92.823226 15.918667,90.434526 C 13.031167,88.045826 10.518667,85.753926 10.335367,85.341426 C 10.152067,84.928926 9.5124665,84.591426 8.9140665,84.591426 C 8.3157665,84.591426 7.0478665,83.887126 6.0966665,83.026326 C 5.0974665,82.122026 4.1171665,81.865726 3.7750665,82.419326 C 3.4493665,82.946426 4.5750665,84.438226 6.2767665,85.734526 C 7.9783665,87.030826 10.532567,89.216426 11.952667,90.591426 C 16.560767,95.053226 21.168667,97.599726 21.168667,95.684526 z M 43.992767,65.158026 C 43.832067,57.696426 43.373567,51.591426 42.974067,51.591426 C 42.574467,51.591426 41.667267,52.285326 40.958167,53.133326 C 37.966167,56.711226 33.546967,60.635926 31.918667,61.161426 C 30.956167,61.472026 30.168667,62.595926 30.168667,63.658826 C 30.168667,64.721726 29.718667,65.591426 29.168667,65.591426 C 28.010567,65.591426 27.751567,91.841026 28.898367,92.987826 C 29.299767,93.389226 32.925967,90.344126 36.956567,86.221126 L 44.284967,78.724726 L 43.992767,65.158026 z M 19.859867,86.534326 C 20.352967,83.077926 20.249967,77.246726 19.546867,68.815426 C 19.073267,63.137026 18.530867,61.320426 17.076467,60.542126 C 16.051467,59.993526 14.170067,58.542726 12.895567,57.318126 C 6.5618665,51.232426 0.95186652,47.940826 1.9336665,50.886426 C 2.0794665,51.323726 2.3981665,57.398726 2.6418665,64.386426 L 3.0850665,77.091426 L 7.6106665,81.268926 C 10.099867,83.566526 13.002067,85.721126 14.060167,86.057026 C 15.118267,86.392826 16.250767,87.362826 16.576867,88.212626 C 17.429367,90.434226 19.450867,89.400826 19.859867,86.534326 z M 30.576067,60.341426 C 31.271567,59.653926 33.601867,57.506226 35.754667,55.568726 C 40.873067,50.962026 44.278467,46.578026 43.596067,45.473926 C 42.585167,43.838226 41.125567,44.574826 40.115967,47.230126 C 39.564167,48.681426 38.813767,49.569826 38.448267,49.204326 C 37.394567,48.150726 27.268867,58.688926 27.858467,60.225526 C 28.506067,61.913026 28.966367,61.932726 30.576067,60.341426 z M 19.168667,54.920226 C 19.168667,50.158126 17.175267,46.591426 14.513667,46.591426 C 13.773967,46.591426 13.168667,46.109326 13.168667,45.520026 C 13.168667,44.286726 10.682467,41.591426 9.5448665,41.591426 C 9.1231665,41.591426 7.5206665,40.386726 5.9838665,38.914326 C 4.4469665,37.441926 2.9492665,36.477526 2.6555665,36.771226 C 1.4321665,37.994626 3.7481665,40.834326 10.261067,46.096526 C 14.060267,49.166126 17.168667,52.112026 17.168667,52.643026 C 17.168667,54.236826 12.012967,50.877426 5.9626665,45.341426 C 2.9968665,42.627826 1.1912665,41.878226 1.1449665,43.341426 C 1.1159665,44.257526 17.367067,59.515926 18.418667,59.560026 C 18.831167,59.577326 19.168667,57.489326 19.168667,54.920226 z M 38.688067,45.591426 C 41.846167,42.407026 43.409667,38.938626 41.317767,39.758126 C 39.586467,40.436226 28.274067,50.874526 27.727867,52.297826 C 27.416767,53.108626 27.439767,54.221026 27.779067,54.769926 C 28.359267,55.708826 30.140967,54.209826 38.688067,45.591426 z M 33.992467,42.341426 C 34.181067,41.928926 34.932867,41.591426 35.663167,41.591426 C 36.393367,41.591426 38.193267,40.162526 39.662867,38.416026 C 41.660667,36.041726 42.176367,34.591026 41.706967,32.666026 C 41.361667,31.250026 40.728067,28.516426 40.299067,26.591426 C 39.338167,22.280626 37.321467,18.354126 35.522667,17.291726 C 34.777967,16.851926 34.168667,15.939426 34.168667,15.264026 C 34.168667,13.723826 31.052667,11.006826 28.275567,10.125326 C 26.673667,9.6169262 26.148667,9.8922262 26.085067,11.274026 C 25.925467,14.744226 26.374767,38.113726 26.677667,42.091426 C 26.845067,44.291426 27.024167,46.738126 27.075467,47.528526 C 27.138867,48.505426 28.206367,48.025126 30.409067,46.028526 C 32.191367,44.413126 33.803867,42.753926 33.992467,42.341426 z M 19.320667,29.413826 C 19.500067,19.691126 19.316967,11.406426 18.913867,11.003326 C 18.510767,10.600226 17.309267,11.059226 16.243867,12.023426 C 15.178467,12.987626 12.813167,14.522326 10.987767,15.433926 C 7.1665665,17.342226 3.7139665,23.608126 3.3187665,29.351826 C 3.0776665,32.856326 3.5521665,33.541126 10.865067,40.242926 C 15.157067,44.176226 18.741967,47.326226 18.831567,47.242926 C 18.921167,47.159626 19.141167,39.136526 19.320667,29.413826 z M 118.72087,148.34143 C 118.50907,147.65393 118.05717,145.82433 117.71667,144.27553 C 117.27997,142.28973 116.07627,141.03293 113.63307,140.01213 C 111.72767,139.21603 110.16867,138.15093 110.16867,137.64543 C 110.16867,137.13983 109.34987,136.46633 108.34907,136.14873 C 105.53497,135.25553 102.77197,128.55253 100.49367,117.09143 C 99.657767,112.88683 99.766267,40.021126 100.62457,29.091426 C 101.27817,20.769526 104.42047,10.591426 106.33607,10.591426 C 106.70967,10.591426 108.41877,9.4104262 110.13417,7.9670262 C 111.84967,6.5235262 113.51277,5.6021262 113.82997,5.9194262 C 114.14727,6.2366262 115.02797,5.8750262 115.78717,5.1158262 C 117.31877,3.5842262 124.05627,3.7333262 128.16867,5.3898262 C 131.60677,6.7747262 136.93177,12.220326 138.52167,15.977226 C 141.40367,22.787226 141.85017,25.725326 142.11727,39.635826 C 142.26987,47.586426 142.54557,56.116426 142.72997,58.591426 C 143.68647,71.432426 143.96847,117.62503 143.11447,121.59143 C 142.58167,124.06643 141.89937,127.21643 141.59837,128.59143 C 141.29737,129.96643 140.62757,131.24143 140.10987,131.42473 C 139.59227,131.60813 139.16867,132.32333 139.16867,133.01413 C 139.16867,134.80083 131.98687,141.21653 129.09587,142.01243 C 127.24297,142.52263 127.91107,141.54623 131.91907,137.88603 C 137.50067,132.78893 138.05267,131.57003 135.67367,129.59563 C 134.46407,128.59173 133.65287,128.70433 131.42367,130.18593 C 129.90847,131.19293 127.99367,132.03363 127.16867,132.05413 C 125.97517,132.08383 125.60967,133.87913 125.37977,140.84143 L 125.09087,149.59143 L 122.09837,149.59143 C 120.45257,149.59143 118.93267,149.02893 118.72087,148.34143 z M 122.26047,118.36653 C 122.04257,85.026526 121.75607,70.949626 120.67967,40.711126 C 120.26117,28.951926 119.86247,16.840226 119.79367,13.796326 C 119.72497,10.752526 119.18697,8.1006262 118.59827,7.9032262 C 117.86327,7.6569262 117.60647,12.017526 117.77877,21.817926 C 117.91687,29.668426 118.29647,58.591426 118.62237,86.091426 C 119.29217,142.60463 119.70447,150.38903 121.91037,148.18303 C 122.20817,147.88523 122.36577,134.46783 122.26047,118.36653 z M 116.16867,137.59143 C 116.16867,137.04143 115.71997,136.59143 115.17157,136.59143 C 114.62317,136.59143 112.37317,134.96413 110.17157,132.97513 C 105.17167,128.45803 104.83717,130.47003 109.80857,135.15863 C 113.36887,138.51633 116.16867,139.58733 116.16867,137.59143 z M 117.16867,133.70643 C 117.16867,133.21973 116.15617,132.14663 114.91867,131.32173 C 113.68117,130.49693 111.58737,128.87013 110.26567,127.70673 C 108.94407,126.54333 107.48157,125.59143 107.01567,125.59143 C 106.54987,125.59143 106.28117,125.08523 106.41867,124.46643 C 106.55617,123.84773 106.10617,123.13523 105.41867,122.88313 C 103.08027,122.02573 104.15937,124.12493 108.41867,128.71933 C 113.12957,133.80083 117.16867,136.10293 117.16867,133.70643 z M 134.06057,125.99873 C 136.87007,123.47283 139.16867,120.63783 139.16867,119.69873 C 139.16867,118.75973 139.65137,117.50883 140.24127,116.91893 C 141.68257,115.47753 141.99987,100.37103 140.59867,99.902526 C 140.01007,99.705726 138.47877,100.45523 137.19567,101.56813 C 135.91247,102.68093 134.55037,103.59143 134.16867,103.59143 C 133.78697,103.59143 132.39337,104.53083 131.07167,105.67903 C 129.75007,106.82723 128.02267,108.12933 127.23307,108.57263 C 125.53567,109.52573 124.30187,118.92193 124.96627,125.83643 C 125.56067,132.02213 127.32607,132.05363 134.06057,125.99873 z M 117.16867,119.59143 C 117.16867,114.09143 116.75087,109.59143 116.24017,109.59143 C 115.72937,109.59143 114.66727,108.94713 113.87977,108.15973 C 110.13097,104.41083 102.94187,98.591426 102.05957,98.591426 C 101.49167,98.591426 101.29557,100.18483 101.59797,102.34143 C 101.88717,104.40393 102.22357,108.03283 102.34557,110.40563 C 102.46747,112.77843 102.92757,114.94243 103.36797,115.21463 C 103.80837,115.48683 104.16867,116.60053 104.16867,117.68963 C 104.16867,119.95833 113.50877,129.59143 115.70847,129.59143 C 116.89137,129.59143 117.16867,127.69253 117.16867,119.59143 z M 137.16867,127.59143 C 137.16867,127.04143 136.71867,126.59143 136.16867,126.59143 C 135.61867,126.59143 135.16867,127.04143 135.16867,127.59143 C 135.16867,128.14143 135.61867,128.59143 136.16867,128.59143 C 136.71867,128.59143 137.16867,128.14143 137.16867,127.59143 z M 117.16867,106.70683 C 117.16867,104.36783 102.95627,90.317026 102.05897,91.768926 C 100.83397,93.751026 102.37987,96.465826 106.26767,99.160026 C 108.41327,100.64693 110.16867,102.19973 110.16867,102.61083 C 110.16867,103.02183 111.10207,103.60223 112.24287,103.90063 C 113.38377,104.19893 114.56117,105.37643 114.85957,106.51723 C 115.53707,109.10823 117.16867,109.24223 117.16867,106.70683 z M 129.67817,104.84143 C 134.62317,100.68723 137.50037,98.591426 138.25817,98.591426 C 139.26127,98.591426 142.44177,91.531226 141.75017,90.839626 C 141.42607,90.515426 140.15007,91.151826 138.91477,92.253826 C 137.67947,93.355726 135.99367,94.759926 135.16867,95.374226 C 129.61677,99.508026 125.16867,104.10443 125.16867,105.70783 C 125.16867,108.21583 125.80747,108.09313 129.67817,104.84143 z M 131.06567,96.876726 C 133.59737,94.833526 136.39647,92.358526 137.28597,91.376726 C 138.17547,90.394826 139.36047,89.591426 139.91937,89.591426 C 140.97417,89.591426 142.42507,85.514426 141.64717,84.736526 C 140.28237,83.371726 123.54687,97.776326 124.57137,99.433926 C 125.61207,101.11793 125.99937,100.96543 131.06567,96.876726 z M 117.16867,97.905926 C 117.16867,95.995726 113.38047,91.591426 111.73747,91.591426 C 111.14207,91.591426 109.20937,90.016426 107.44267,88.091426 C 103.99137,84.330826 101.12937,83.461626 101.68067,86.341426 C 101.86497,87.303926 102.05007,88.428926 102.09217,88.841426 C 102.13427,89.253926 102.73117,89.595326 103.41867,89.600126 C 104.10617,89.604926 106.91867,91.835926 109.66867,94.557926 C 114.89587,99.731926 117.16867,100.74653 117.16867,97.905926 z M 138.93477,82.689726 C 141.08927,80.219426 141.18077,79.460726 140.79287,67.282826 C 140.56847,60.238126 140.14867,54.238126 139.86007,53.949526 C 139.57147,53.660926 137.56637,55.149726 135.40437,57.258126 C 133.24227,59.366426 130.20547,61.991426 128.65587,63.091426 C 123.78237,66.551026 123.12147,67.558126 123.85067,70.413726 C 124.22677,71.886526 124.43317,73.991426 124.30927,75.091426 C 123.61077,81.295326 123.73507,90.390026 124.54497,92.330126 C 125.46097,94.524626 125.59007,94.477126 131.07407,89.928426 C 134.15107,87.376226 137.68847,84.118826 138.93477,82.689726 z M 116.94707,78.910826 L 116.48207,66.498626 L 110.57537,61.129826 C 107.32667,58.176926 104.96537,55.463626 105.32807,55.100226 C 105.69067,54.736726 107.88547,56.498626 110.20537,59.015426 C 114.83357,64.036326 115.95337,64.569626 115.78217,61.670826 C 115.67777,59.904326 103.52457,46.591426 102.01627,46.591426 C 101.18947,46.591426 102.15427,50.701326 103.33867,52.224626 C 103.88217,52.923626 103.73077,53.545526 102.94377,53.847526 C 100.97617,54.602526 101.24967,81.788526 103.23137,82.436526 C 104.02187,82.695026 107.10187,85.068526 110.07567,87.711026 C 113.04947,90.353426 115.91677,92.247126 116.44737,91.919226 C 117.02447,91.562526 117.22517,86.336526 116.94707,78.910826 z M 133.41867,56.125226 C 139.54967,50.300026 141.45547,47.589626 139.41867,47.592526 C 139.00617,47.593026 136.35997,49.730526 133.53827,52.342526 C 130.71647,54.954426 127.18167,57.935626 125.68307,58.967426 C 123.57727,60.417326 123.26617,61.038426 124.31357,61.702126 C 126.29577,62.958126 126.10237,63.076626 133.41867,56.125226 z M 128.16867,54.527826 C 137.58047,46.375426 139.09827,44.479726 139.20397,40.745026 C 139.66897,24.311626 137.99427,17.476126 132.06487,11.605726 C 128.25637,7.8351262 123.78607,5.6407262 122.51087,6.9159262 C 121.35017,8.0766262 122.51637,50.272426 123.74307,51.499126 C 124.00587,51.762026 126.86457,49.361126 130.09547,46.163826 C 133.45947,42.835026 136.45057,40.647626 137.09447,41.045626 C 138.22287,41.742926 131.08927,49.197726 125.76217,52.888126 C 123.37367,54.542826 122.16627,57.612826 123.91867,57.575426 C 124.33117,57.566726 126.24367,56.195226 128.16867,54.527826 z M 115.73777,54.479626 C 116.11567,53.868126 115.80477,52.986426 115.04677,52.520226 C 114.28887,52.054026 111.08117,49.083226 107.91867,45.918426 C 104.15317,42.150326 102.16867,40.743826 102.16867,41.843326 C 102.16867,43.424126 112.87137,55.456126 114.35967,55.548526 C 114.73967,55.572126 115.35987,55.091126 115.73777,54.479626 z M 115.45247,28.544326 C 115.36577,16.044126 114.92607,8.0105262 114.31727,7.8076262 C 113.05127,7.3856262 106.04167,14.131126 106.87757,14.967026 C 107.22107,15.310426 107.02947,15.591426 106.45197,15.591426 C 104.80797,15.591426 103.90377,19.204126 102.78217,30.253226 C 102.31257,34.880026 102.58377,35.864626 105.39917,39.753226 C 109.66207,45.641126 113.46877,49.544126 114.63127,49.218926 C 115.21377,49.056026 115.53797,40.892626 115.45247,28.544326 z M 164.62497,141.21993 C 163.09087,139.46703 162.83587,138.48093 163.60247,137.26553 C 164.75237,135.44253 163.49877,133.60973 160.83437,133.21863 C 159.95677,133.08983 157.83517,131.73383 156.11967,130.20533 C 151.38107,125.98323 151.43787,127.84323 156.20537,133.01543 C 160.70837,137.90063 159.92017,139.24303 154.98637,135.09143 C 153.35227,133.71643 152.29057,132.59143 152.62717,132.59143 C 152.96367,132.59143 152.68237,131.57893 152.00197,130.34143 C 151.32157,129.10393 150.60507,127.41643 150.40967,126.59143 C 149.85287,124.23973 149.16357,120.84483 148.63387,117.84413 C 148.03297,114.44093 148.01547,96.901526 148.60977,93.862426 C 148.84957,92.636526 148.71147,91.426926 148.30287,91.174326 C 147.89427,90.921826 147.63357,74.599926 147.72337,54.903326 C 147.86357,24.173426 148.11887,18.565826 149.52207,15.387226 C 151.67767,10.504226 155.67997,6.9057262 159.81887,6.1292262 C 161.66127,5.7836262 163.16867,5.1148262 163.16867,4.6431262 C 163.16867,4.1714262 165.64367,3.8101262 168.66867,3.8402262 C 171.69367,3.8703262 174.16867,4.2766262 174.16867,4.7432262 C 174.16867,5.2097262 175.04707,5.5914262 176.12057,5.5914262 C 178.51617,5.5914262 184.71357,11.803226 187.23497,16.731726 C 189.81437,21.773326 190.07757,24.609826 190.65547,53.591426 C 191.29897,85.860626 191.27637,83.578926 191.17917,106.48753 C 191.10457,124.08523 190.91477,126.13923 189.13277,128.64183 C 188.05257,130.15893 187.16867,131.72913 187.16867,132.13113 C 187.16867,133.35553 182.37657,137.38793 179.95097,138.20463 C 177.74317,138.94793 177.00477,139.11473 174.48607,139.43913 C 173.83567,139.52293 173.01787,140.49143 172.66867,141.59143 C 171.77897,144.39463 167.21897,144.18403 164.62497,141.21993 z M 169.71787,127.24893 C 169.41027,119.46233 168.94987,103.19143 168.69487,91.091426 C 168.43997,78.991426 167.93427,58.066426 167.57117,44.591426 C 167.20807,31.116426 166.85657,17.279126 166.78987,13.841826 C 166.70317,9.3714262 166.29027,7.5921262 165.33957,7.5918262 C 164.25067,7.5915262 164.12417,12.695926 164.63947,35.841426 C 165.35727,68.085326 166.02777,105.61813 166.25167,126.09143 C 166.33597,133.79143 166.85267,140.64903 167.40007,141.33043 C 169.71207,144.20873 170.25707,140.89723 169.71787,127.24893 z M 181.81467,134.68173 C 184.31547,132.82843 189.65517,124.74463 188.88637,123.97573 C 188.59807,123.68753 185.97037,125.73313 183.04687,128.52163 C 180.12337,131.31003 177.01977,133.59143 176.15007,133.59143 C 174.51217,133.59143 172.16867,135.43803 172.16867,136.72853 C 172.16867,137.94763 179.50957,136.38993 181.81467,134.68173 z M 175.66867,131.59143 C 176.66417,130.49143 178.06077,129.59143 178.77217,129.59143 C 181.06047,129.59143 187.16867,122.72833 187.16867,120.15723 C 187.16867,118.61333 185.42987,119.98483 183.38467,123.14183 C 182.12837,125.08083 180.69697,126.41793 180.20367,126.11313 C 179.71047,125.80823 179.02427,126.01613 178.67877,126.57513 C 178.33327,127.13413 177.20937,127.59143 176.18107,127.59143 C 173.69847,127.59143 171.11097,130.27743 171.81817,132.12043 C 172.57827,134.10123 173.51367,133.97273 175.66867,131.59143 z M 163.66867,130.00813 C 163.66867,128.92523 162.97347,128.08463 162.07037,128.07583 C 161.19127,128.06723 158.82877,126.80683 156.82037,125.27493 C 151.90547,121.52613 152.19157,123.37903 157.31947,128.50693 C 161.62677,132.81423 163.66867,133.29703 163.66867,130.00813 z M 164.13017,115.84143 L 164.09167,104.09143 L 160.88017,102.01083 C 159.11387,100.86653 157.77207,99.431426 157.89837,98.821726 C 158.02467,98.212126 157.23717,97.430526 156.14837,97.085026 C 155.05957,96.739426 154.16867,96.037026 154.16867,95.524026 C 154.16867,93.767026 155.77847,94.593626 159.16867,98.091426 C 163.11067,102.15853 164.28687,102.47443 163.82307,99.341426 C 163.62887,98.029226 161.69987,95.880026 159.19487,94.185026 C 156.83247,92.586426 154.69087,90.480026 154.43567,89.504126 C 153.96337,87.698426 151.31157,86.115226 150.35737,87.069426 C 150.06857,87.358226 150.44977,88.748026 151.20427,90.158026 C 152.14277,91.911526 152.24147,92.937926 151.51667,93.406526 C 149.81367,94.507326 150.56447,115.02673 152.40947,117.80673 C 155.52147,122.49583 160.32417,126.55063 163.91867,127.52373 C 164.05617,127.56103 164.15137,122.30393 164.13017,115.84143 z M 179.56747,123.93853 C 180.61177,123.25443 183.20297,120.59303 185.32577,118.02423 L 189.18527,113.35363 L 189.08457,103.47443 C 189.02917,98.040826 188.55777,93.331826 188.03697,93.010026 C 187.51627,92.688226 184.31857,95.162326 180.93097,98.508126 C 177.54347,101.85393 173.92487,104.59143 172.88967,104.59143 C 171.12767,104.59143 171.04047,105.30993 171.52397,115.84143 C 171.80807,122.02893 172.06937,127.19433 172.10457,127.32003 C 172.20827,127.68973 177.50367,125.29033 179.56747,123.93853 z M 174.16867,101.55183 C 174.16867,101.09773 174.95617,100.47493 175.91867,100.16773 C 178.11607,99.466426 189.16867,88.994526 189.16867,87.613826 C 189.16867,85.784826 187.40857,86.527226 183.88727,89.841426 C 178.91307,94.523126 172.79077,99.125226 171.91867,98.838226 C 171.50617,98.702526 171.16867,99.702326 171.16867,101.06003 C 171.16867,102.84353 171.58497,103.36893 172.66867,102.95303 C 173.49367,102.63653 174.16867,102.00593 174.16867,101.55183 z M 174.95387,94.841426 C 180.25167,91.426426 189.16867,83.172826 189.16867,81.684126 C 189.16867,79.095526 187.07107,80.164526 182.38727,85.140426 C 179.56517,88.138526 176.92807,90.591426 176.52697,90.591426 C 175.49667,90.591426 171.16867,94.770826 171.16867,95.765726 C 171.16867,96.977826 171.92697,96.792626 174.95387,94.841426 z M 163.83537,92.954226 C 163.83537,92.053726 163.01547,91.102626 162.01327,90.840526 C 161.01117,90.578526 160.42557,89.984826 160.71197,89.521426 C 160.99837,89.057926 161.79407,88.894226 162.48027,89.157526 C 163.43017,89.522026 163.67957,87.424526 163.52587,80.363826 C 163.41477,75.264026 163.28897,69.144926 163.24627,66.765726 C 163.18597,63.401926 162.59537,61.956626 160.59027,60.265726 C 159.17217,59.069926 156.59687,56.853926 154.86737,55.341426 C 153.13797,53.828926 151.35567,52.591426 150.90667,52.591426 C 150.45767,52.591426 150.15457,57.945726 150.23307,64.489826 L 150.37587,76.388126 L 155.26547,81.596226 C 157.95477,84.460726 159.86257,87.277826 159.50487,87.856526 C 159.12567,88.470026 157.23757,87.175026 154.97557,84.750026 C 150.82597,80.301526 150.16867,79.899626 150.16867,81.811126 C 150.16867,82.966426 162.01517,94.516826 163.25207,94.567526 C 163.57287,94.580726 163.83537,93.854726 163.83537,92.954226 z M 173.16867,90.591426 C 173.16867,90.041426 173.76987,89.591426 174.50467,89.591426 C 175.23937,89.591426 178.77837,86.548426 182.36897,82.829126 L 188.89747,76.066826 L 188.78307,62.412426 C 188.72017,54.902426 188.34717,48.436426 187.95417,48.043526 C 187.56117,47.650526 184.86117,49.632526 181.95417,52.447926 C 179.04717,55.263326 176.10617,57.572326 175.41867,57.579126 C 174.73117,57.585926 173.34417,58.415926 172.33647,59.423626 C 170.47477,61.285426 170.41617,62.601026 171.07137,87.841426 C 171.12487,89.903926 171.61867,91.591426 172.16867,91.591426 C 172.71867,91.591426 173.16867,91.141426 173.16867,90.591426 z M 163.16867,57.162826 C 163.16867,55.524426 161.92407,54.265426 156.23497,50.149626 C 153.99857,48.531626 152.16867,46.844126 152.16867,46.399626 C 152.16867,45.955126 151.71867,45.591426 151.16867,45.591426 C 149.12627,45.591426 150.27557,48.290926 153.74377,51.639626 C 155.70997,53.538126 158.05997,55.878926 158.96597,56.841426 C 160.95677,58.956526 163.16867,59.125626 163.16867,57.162826 z M 175.82387,54.828926 C 178.10917,52.773326 181.82167,49.824726 184.07387,48.276626 C 186.97527,46.282026 188.16867,44.752026 188.16867,43.026626 C 188.16867,39.802926 187.14287,39.955426 183.60577,43.704826 C 181.99037,45.417126 179.09367,47.843726 177.16867,49.097226 C 171.80167,52.592026 169.17597,55.446926 169.80977,57.098626 C 170.62447,59.221526 171.16887,59.016026 175.82387,54.828926 z M 162.98827,50.341426 C 162.80287,49.036526 161.96427,48.086026 160.99167,48.078626 C 159.36527,48.066126 157.60137,46.339826 153.87197,41.110726 C 151.79297,38.195526 150.16867,37.841326 150.16867,40.303126 C 150.16867,42.004226 160.72457,52.591426 162.42057,52.591426 C 162.90857,52.591426 163.16397,51.578926 162.98827,50.341426 z M 179.66867,44.335226 C 181.86867,42.459526 184.45617,40.639026 185.41867,40.289626 C 187.41017,39.566526 187.82067,36.567726 185.91867,36.636826 C 185.23117,36.661826 182.64367,38.690226 180.16867,41.144226 C 177.69367,43.598326 174.43117,46.162726 172.91867,46.842926 C 171.10527,47.658426 170.16867,48.842526 170.16867,50.319526 L 170.16867,52.559326 L 172.91867,50.152426 C 174.43117,48.828626 177.46867,46.210826 179.66867,44.335226 z M 162.66867,27.004526 C 162.66867,16.327326 162.25877,7.7965262 161.72737,7.4141262 C 160.15327,6.2817262 153.56317,11.769826 151.90727,15.592126 C 150.20107,19.530526 149.78937,22.637526 150.01787,29.850926 C 150.15197,34.082826 150.75057,35.263826 155.41867,40.505726 C 158.30617,43.748126 161.11867,46.292326 161.66867,46.159326 C 162.29157,46.008826 162.66867,38.785526 162.66867,27.004526 z M 177.91657,40.591426 C 178.55057,40.591426 179.42917,40.004126 179.86897,39.286326 C 180.30887,38.568526 182.39127,36.688326 184.49657,35.108226 C 188.03467,32.452726 188.27287,31.964826 187.64257,28.663326 C 187.26757,26.698826 186.83677,24.191426 186.68527,23.091426 C 186.21337,19.665826 184.48537,16.169926 182.28347,14.186426 C 181.12037,13.138726 180.16077,11.788726 180.15107,11.186426 C 180.12867,9.8031262 170.32657,5.1002262 169.39897,6.0278262 C 168.60657,6.8202262 168.98437,42.157426 169.81507,44.941526 C 170.30977,46.599826 170.69857,46.470226 173.56547,43.691526 C 175.32457,41.986426 177.28267,40.591426 177.91657,40.591426 z M 215.63727,141.09143 C 215.37957,140.26643 214.94967,138.89533 214.68207,138.04453 C 214.41447,137.19373 213.62697,136.60693 212.93207,136.74063 C 211.06607,137.09943 207.16867,135.60053 207.16867,134.52403 C 207.16867,134.01113 206.57217,133.59143 205.84297,133.59143 C 202.36987,133.59143 197.59987,125.25843 197.27887,118.63003 C 197.15997,116.17633 196.69697,113.70133 196.24997,113.13003 C 195.80287,112.55883 195.59537,106.69143 195.78877,100.09143 C 195.98227,93.491426 196.36407,73.466426 196.63737,55.591426 C 197.17177,20.644626 197.29157,18.934926 199.59257,13.427826 C 201.29387,9.3560262 207.51997,2.2760262 208.51987,3.2760262 C 208.87677,3.6328262 209.16867,3.3997262 209.16867,2.7581262 C 209.16867,2.1164262 210.06867,1.5914262 211.16867,1.5914262 C 212.26867,1.5914262 213.16867,1.1442262 213.16867,0.59772621 C 213.16867,-0.21607379 216.01527,-0.19447379 218.16867,0.63552621 C 218.44367,0.74152621 219.07927,0.75062621 219.58097,0.65572621 C 221.59587,0.27472621 226.88137,3.1030262 230.49767,6.4974262 C 234.00237,9.7871262 237.26437,15.008926 238.98977,20.091426 C 239.36317,21.191426 239.57017,43.466426 239.44967,69.591426 C 239.23737,115.62993 238.51567,127.59143 235.94997,127.59143 C 235.45537,127.59143 235.33647,128.05393 235.68577,128.61913 C 236.61777,130.12713 230.31507,135.61213 226.85507,136.30413 C 224.78487,136.71823 223.55167,137.76593 222.80447,139.74543 C 221.97457,141.94413 221.09057,142.59143 218.91807,142.59143 C 217.29337,142.59143 215.90807,141.95813 215.63727,141.09143 z M 220.60207,138.09463 C 221.34747,134.12143 220.58467,106.40893 218.73027,70.091426 C 218.12947,58.323526 217.36797,29.158726 217.23567,12.841426 C 217.19077,7.3105262 216.78817,4.5914262 216.01417,4.5914262 C 215.14827,4.5914262 215.04037,15.153726 215.58277,46.841426 C 215.98047,70.078926 216.43807,100.11643 216.59957,113.59143 C 216.76097,127.06643 217.22827,138.87893 217.63787,139.84143 C 218.79557,142.56173 219.88447,141.92003 220.60207,138.09463 z M 214.46917,134.25073 C 215.14267,132.49573 213.67377,130.16123 212.39377,130.95233 C 211.84467,131.29173 210.84337,130.90433 210.16867,130.09143 C 209.49407,129.27853 208.54307,128.86003 208.05537,129.16143 C 207.56767,129.46283 207.16867,129.23293 207.16867,128.65043 C 207.16867,128.06803 206.63517,127.59143 205.98317,127.59143 C 205.33107,127.59143 203.75607,126.61303 202.48317,125.41713 C 201.21017,124.22123 200.16867,123.66873 200.16867,124.18933 C 200.16867,126.06743 206.58187,132.86273 209.59097,134.17303 C 213.49597,135.87343 213.84437,135.87893 214.46917,134.25073 z M 226.88447,134.47563 C 227.49817,133.86193 229.05067,132.84313 230.33447,132.21173 C 232.59237,131.10123 236.59787,124.68733 235.63497,123.72433 C 235.37417,123.46363 234.03937,124.30373 232.66867,125.59143 C 230.09487,128.00943 228.06477,127.89373 230.37107,125.46053 C 232.73307,122.96853 237.16867,116.00423 237.16867,114.78773 C 237.16867,114.12973 236.71867,113.59143 236.16867,113.59143 C 234.89077,113.59143 234.85737,109.90193 236.12817,109.11643 C 237.44317,108.30383 237.33507,90.312326 236.01037,89.493626 C 235.29127,89.049126 235.33397,88.151126 236.14647,86.632926 C 238.06357,83.050926 236.31557,82.905826 233.07087,86.377626 C 231.41897,88.145226 229.67467,89.591426 229.19477,89.591426 C 227.94297,89.591426 222.16867,94.595526 222.16867,95.680326 C 222.16867,97.376726 225.67967,96.604126 226.90787,94.637426 C 228.11617,92.702626 232.16867,89.980826 232.16867,91.104126 C 232.16867,91.424826 229.97077,93.803126 227.28447,96.389326 L 222.40017,101.09143 L 222.60317,111.86013 C 222.71477,117.78293 223.23907,123.06183 223.76827,123.59103 C 224.92447,124.74723 229.19887,121.04173 231.81217,116.61783 C 233.38307,113.95843 235.16867,112.62173 235.16867,114.10503 C 235.16867,116.70903 227.41287,125.59143 225.13917,125.59143 C 223.53217,125.59143 222.91877,127.76123 223.76447,130.45403 C 224.10697,131.54463 224.48947,131.57013 225.68057,130.58163 C 226.83847,129.62063 227.16867,129.61643 227.16867,130.56263 C 227.16867,131.23143 226.29987,132.00593 225.23787,132.28363 C 224.08987,132.58383 223.52507,133.35673 223.84487,134.19003 C 224.49407,135.88173 225.39387,135.96633 226.88447,134.47563 z M 214.16867,127.73173 C 214.16867,127.32373 212.13937,126.00403 209.65907,124.79903 C 205.79897,122.92363 202.25917,119.04063 200.80957,115.09143 C 200.60767,114.54143 200.12957,114.38033 199.74697,114.73333 C 199.36447,115.08643 199.69497,116.91523 200.48137,118.79733 C 202.95887,124.72693 214.16867,132.04403 214.16867,127.73173 z M 213.94967,112.34693 L 214.23067,100.76573 L 210.15237,97.928526 C 203.75787,93.480226 199.65197,89.774926 200.34697,89.079826 C 200.69697,88.729826 202.10987,89.423026 203.48667,90.620126 C 204.86357,91.817326 206.25377,92.752326 206.57617,92.697926 C 206.89847,92.643526 208.24847,93.543526 209.57617,94.697926 C 212.68487,97.400926 213.55027,96.934026 213.78177,92.429026 C 213.94617,89.231626 213.44297,88.347426 209.81937,85.466026 C 207.53647,83.650726 205.51867,81.811326 205.33537,81.378426 C 205.15207,80.945626 204.51247,80.591426 203.91407,80.591426 C 203.31577,80.591426 202.00047,79.844226 200.99127,78.930926 C 198.81327,76.959826 197.32917,77.875026 199.14867,80.067226 C 200.01457,81.110726 200.09597,81.985726 199.40667,82.841426 C 198.17637,84.368626 197.97637,103.31053 199.16107,106.09143 C 199.62967,107.19143 200.29397,109.37793 200.63727,110.95033 C 201.33727,114.15643 210.91367,124.84213 212.58887,124.28643 C 213.25677,124.06493 213.77587,119.51043 213.94967,112.34693 z M 207.13097,89.632126 C 205.22667,88.004426 203.15437,86.654426 202.52567,86.632126 C 201.26257,86.587126 199.81427,83.612526 200.64907,82.777726 C 200.93917,82.487626 202.21627,83.227026 203.48707,84.420826 C 204.75787,85.614626 206.08567,86.591426 206.43767,86.591426 C 207.16137,86.591426 212.16867,91.436726 212.16867,92.136926 C 212.16867,93.275126 210.31437,92.353226 207.13097,89.632126 z M 224.98117,88.653926 C 225.23117,87.903926 224.85617,87.528926 224.10617,87.778926 C 223.38437,88.019526 222.59687,88.807026 222.35617,89.528926 C 222.10617,90.278926 222.48117,90.653926 223.23117,90.403926 C 223.95307,90.163326 224.74057,89.375826 224.98117,88.653926 z M 230.47297,85.596026 C 232.23057,83.948626 233.95807,82.598626 234.31167,82.596026 C 234.66537,82.593526 235.21377,81.916426 235.53037,81.091426 C 236.29967,79.086526 234.94337,79.195026 232.40587,81.341426 C 231.26807,82.303926 229.39927,83.874526 228.25287,84.831626 C 226.31767,86.447526 225.44517,88.591426 226.72297,88.591426 C 227.02777,88.591426 228.71527,87.243526 230.47297,85.596026 z M 225.52447,84.137526 C 226.98087,82.787826 229.68137,80.967426 231.52577,80.092226 C 233.37017,79.217026 235.40337,77.508826 236.04407,76.296226 C 237.79387,72.984626 237.90407,47.591426 236.16867,47.591426 C 235.08047,47.591426 234.30277,48.214826 226.33947,55.470126 L 221.01027,60.325526 L 221.26107,71.708426 C 221.48487,81.861926 221.92287,86.591426 222.63927,86.591426 C 222.76987,86.591426 224.06817,85.487126 225.52447,84.137526 z M 213.66867,71.238526 L 213.66867,57.561826 L 210.47297,54.576626 C 208.71527,52.934726 206.78397,51.591426 206.18107,51.591426 C 205.57827,51.591426 204.11907,50.691426 202.93837,49.591426 C 200.15907,47.002226 199.18437,47.065726 199.10177,49.841426 C 199.06497,51.078926 198.90997,56.790426 198.75737,62.533726 L 198.47987,72.975926 L 205.07427,79.261326 C 208.70117,82.718326 212.11867,85.404726 212.66867,85.231026 C 213.27127,85.040726 213.66867,79.479026 213.66867,71.238526 z M 224.95217,53.091426 C 226.43497,51.716426 227.98697,50.591426 228.40087,50.591426 C 229.10697,50.591426 232.71767,47.751326 235.80167,44.770026 C 236.97117,43.639526 237.78967,39.591426 236.84877,39.591426 C 236.67287,39.591426 234.98537,40.987126 233.09877,42.692926 C 231.21227,44.398826 227.75617,47.378026 225.41867,49.313426 C 223.08117,51.248826 221.16867,53.453126 221.16867,54.211926 C 221.16867,56.155726 221.87207,55.947426 224.95217,53.091426 z M 212.71687,49.743226 C 212.35907,48.616026 211.17537,47.410926 210.08637,47.065326 C 208.99727,46.719626 207.10787,45.394926 205.88747,44.121426 C 203.30547,41.427026 199.16867,39.875126 199.16867,41.601026 C 199.16867,42.801226 202.59367,46.249526 208.28817,50.782426 C 211.85777,53.623926 213.80367,53.167326 212.71687,49.743226 z M 234.49627,39.233126 C 237.14727,36.750226 238.20117,35.157126 237.38657,34.864326 C 236.68147,34.610826 235.18627,35.570726 234.06397,36.997426 C 232.94177,38.424126 231.45607,39.591426 230.76247,39.591426 C 229.09067,39.591426 221.16867,46.947626 221.16867,48.499926 C 221.16867,49.932026 228.56107,44.791926 234.49627,39.233126 z M 212.66347,45.599826 C 213.21107,44.713826 210.76857,41.896726 207.01387,39.083626 C 203.62897,36.547526 199.95597,34.470926 199.55837,34.868426 C 198.51797,35.908826 200.58707,38.326026 205.20537,41.465626 C 207.93517,43.321426 210.16867,45.233926 210.16867,45.715626 C 210.16867,46.906426 211.90587,46.825726 212.66347,45.599826 z M 231.66867,36.139726 C 234.41867,33.966226 236.87807,32.031826 237.13407,31.841026 C 238.46677,30.847426 236.87647,20.863626 234.65437,16.273026 C 231.71367,10.198026 229.85997,7.8894262 225.38317,4.7262262 C 219.55407,0.60742621 219.02907,1.7429262 219.55757,17.325026 C 219.81447,24.896526 220.05697,34.142426 220.09667,37.871426 L 220.16867,44.651326 L 223.41867,42.371426 C 225.20617,41.117426 228.91867,38.313126 231.66867,36.139726 z M 212.27957,38.341426 C 212.86997,26.357926 212.90017,2.5914262 212.32497,2.5914262 C 210.92057,2.5914262 202.27427,12.113226 201.28567,14.748526 C 200.73737,16.209926 200.01077,20.123426 199.67087,23.445026 L 199.05297,29.484326 L 204.86087,35.016926 C 208.05517,38.059726 211.00617,40.558826 211.41867,40.570426 C 211.83117,40.582026 212.21857,39.578926 212.27957,38.341426 z M 127.52197,135.82883 C 127.85407,135.29143 129.48547,134.28863 131.14727,133.60033 C 132.80907,132.91203 134.16867,131.95343 134.16867,131.47013 C 134.16867,130.98683 134.61867,130.59143 135.16867,130.59143 C 136.82177,130.59143 136.24397,131.99143 133.88727,133.69673 C 131.11507,135.70253 126.68237,137.18733 127.52197,135.82883 z"
     id="path2384"
     sodipodi:nodetypes="cssssssssssssssssccsssssssssccssssssccssssssssssscccsssssssssccssccssccssssccssssssssssssssssccssssscccccsssssssccsssssscccsccsssssssssssssssssccsssccsssccsscccccssssssssssssssssssccssssssssccssssccssssssssscccccsssccssssssssccsssssssccssccssssccssssccsssssssccssssssccccsssscccssccsssssccssssssssssccsssccsssssssssssccssssssccssssssssssssssssssssssscccccssssssccsssccssssssccssssssssccssssssssccsssccsssssccsssssccssssccssssssccssssssssccccsssssssssccssssccssssssssccssssccssssssccssssssssssssssssssssssssssccsssssssccssssccsssssssccsssccccsssssssssssscccccsssssccssssssccssssccsssssssscccssssccscccssssssccsssssccsssssccssssccsssscccccsssssccsssssssssccsssssssssssssssssssssssccssssssccssssssssccsssssssssssssscccsssssssssccssssccccssssssssssssssccsssssccsssccsssssccssscccsccccssscccsccssssssccssssccssssccssssccsssscccccsscccsccssssc" />
</svg>

