<?xml version="1.0" encoding="UTF-8" standalone="no"?>
<!-- Created with Inkscape (http://www.inkscape.org/) -->
<svg
   xmlns:dc="http://purl.org/dc/elements/1.1/"
   xmlns:cc="http://creativecommons.org/ns#"
   xmlns:rdf="http://www.w3.org/1999/02/22-rdf-syntax-ns#"
   xmlns:svg="http://www.w3.org/2000/svg"
   xmlns="http://www.w3.org/2000/svg"
   xmlns:sodipodi="http://sodipodi.sourceforge.net/DTD/sodipodi-0.dtd"
   xmlns:inkscape="http://www.inkscape.org/namespaces/inkscape"
   id="svg2"
   sodipodi:version="0.32"
   inkscape:version="0.46"
   width="178.74072"
   height="250.84798"
   version="1.0"
   sodipodi:docname="n_hawk.svg"
   inkscape:output_extension="org.inkscape.output.svg.inkscape">
  <metadata
     id="metadata7">
    <rdf:RDF>
      <cc:Work
         rdf:about="">
        <dc:format>image/svg+xml</dc:format>
        <dc:type
           rdf:resource="http://purl.org/dc/dcmitype/StillImage" />
      </cc:Work>
    </rdf:RDF>
  </metadata>
  <defs
     id="defs5">
    <inkscape:perspective
       sodipodi:type="inkscape:persp3d"
       inkscape:vp_x="0 : 526.18109 : 1"
       inkscape:vp_y="0 : 1000 : 0"
       inkscape:vp_z="744.09448 : 526.18109 : 1"
       inkscape:persp3d-origin="372.04724 : 350.78739 : 1"
       id="perspective9" />
  </defs>
  <sodipodi:namedview
     inkscape:window-height="756"
     inkscape:window-width="1222"
     inkscape:pageshadow="2"
     inkscape:pageopacity="1"
     guidetolerance="10.0"
     gridtolerance="10.0"
     objecttolerance="10.0"
     borderopacity="1.0"
     bordercolor="#666666"
     pagecolor="#ffffff"
     id="base"
     showgrid="false"
     inkscape:zoom="0.73020528"
     inkscape:cx="-138.01979"
     inkscape:cy="126.35788"
     inkscape:window-x="-1"
     inkscape:window-y="0"
     inkscape:current-layer="svg2"
     showguides="true"
     inkscape:guide-bbox="true"
     borderlayer="true" />
  <rect
     style="opacity:1;fill:#ffffff;fill-opacity:1;stroke:#ffffff;stroke-width:0.5;stroke-linecap:square;stroke-miterlimit:4;stroke-dasharray:none;stroke-dashoffset:0;stroke-opacity:1"
     id="rect2401"
     width="1463.9719"
     height="909.33331"
     x="-1234.8268"
     y="-49.73225" />
  <path
     style="fill:#000000"
     d="M 43.832983,248.64136 C 43.185383,247.07786 41.712583,245.15056 40.560083,244.35856 C 39.407683,243.56646 37.392483,241.87616 36.081983,240.60226 C 32.981983,237.58896 27.617083,236.65746 25.821783,238.82066 C 25.092383,239.69946 23.683583,240.41846 22.690983,240.41846 C 21.698283,240.41846 19.543083,242.04786 17.901483,244.03936 C 15.779483,246.61386 13.952083,247.76256 11.578683,248.01416 C 8.9123826,248.29676 8.5943826,248.16096 9.9984826,247.33916 C 10.965383,246.77326 12.202883,246.58616 12.748483,246.92336 C 13.302183,247.26556 13.740583,246.44696 13.740583,245.07116 C 13.740583,243.09806 13.341183,242.71016 11.740583,243.12876 C 10.640583,243.41636 9.7405826,243.24946 9.7405826,242.75776 C 9.7405826,241.41876 15.737483,236.41846 17.343383,236.41846 C 18.111883,236.41846 19.665083,235.49396 20.794983,234.36406 C 21.924883,233.23416 24.223283,232.13586 25.902383,231.92326 C 30.011383,231.40326 30.526383,230.65716 27.998683,228.88666 C 26.831983,228.06946 25.734083,226.43826 25.558983,225.26176 C 25.383883,224.08536 24.565583,222.80926 23.740583,222.42606 C 22.915583,222.04286 21.245883,221.21666 20.030083,220.59016 C 17.751683,219.41586 14.740583,219.94826 14.740583,221.52546 C 14.740583,222.01666 15.834983,222.41846 17.172483,222.41846 C 19.792283,222.41846 24.526483,227.81466 22.827783,228.86456 C 22.305783,229.18716 21.582583,228.97186 21.220683,228.38626 C 20.770683,227.65816 20.067583,227.73216 18.997883,228.61996 C 18.137283,229.33416 17.261483,229.78576 17.051583,229.62366 C 16.352483,229.08336 12.216583,232.87596 9.8599826,236.21836 C 8.5200826,238.11886 7.7496826,240.34516 8.0433826,241.46836 C 8.3238826,242.54086 8.0929826,243.41846 7.5303826,243.41846 C 6.9677826,243.41846 6.7224826,244.54346 6.9853826,245.91846 C 7.5205826,248.71816 5.3583826,249.47086 4.3475826,246.83666 C 3.3112826,244.13606 3.7094826,242.01506 5.7405826,239.41846 C 6.8160826,238.04346 7.7060826,236.33306 7.7183826,235.61746 C 7.7305826,234.90196 9.4280826,232.76656 11.490583,230.87226 C 13.553083,228.97796 14.600983,227.42586 13.819283,227.42326 C 13.037583,227.42066 11.676183,228.07176 10.793983,228.87016 C 8.6117826,230.84496 2.0412826,231.48566 0.68838262,229.85566 C -0.94841738,227.88336 0.58158262,221.41846 2.6851826,221.41846 C 3.6322826,221.41846 4.7054826,221.12026 5.0699826,220.75576 C 5.4344826,220.39126 7.1812826,219.93446 8.9517826,219.74066 C 10.722283,219.54676 12.557683,219.00136 13.030383,218.52866 C 13.984583,217.57446 21.506683,219.13756 23.514783,220.70736 C 24.215583,221.25526 25.079483,221.41286 25.434583,221.05776 C 26.100383,220.39196 25.909283,185.72456 25.166483,172.41846 C 24.936183,168.29346 24.591583,158.61846 24.400783,150.91846 L 24.053883,136.91846 L 20.647283,136.30016 C 17.850583,135.79246 17.688183,135.64446 19.740583,135.47356 C 21.115583,135.35916 23.076483,135.10756 24.098183,134.91466 C 26.604083,134.44146 29.255483,135.48226 27.813783,136.37316 C 26.545883,137.15686 26.167183,152.25626 27.140883,163.20856 C 27.497283,167.21816 27.989783,182.96816 28.235383,198.20856 C 28.480883,213.44906 28.694983,226.20786 28.711183,226.56146 C 28.773783,227.93116 32.067883,228.39176 33.471283,227.22696 C 34.751583,226.16446 34.848683,220.86296 34.199283,187.45976 C 33.787183,166.26206 33.517983,146.10596 33.600983,142.66846 C 33.723483,137.60036 33.456083,136.41846 32.187283,136.41846 C 31.326683,136.41846 30.845383,136.05796 31.117683,135.61736 C 31.389983,135.17666 40.304183,134.70626 50.926783,134.57196 C 69.744583,134.33406 117.49078,133.55736 118.99068,133.46476 C 120.23788,133.38776 119.83968,131.84526 117.99068,129.59076 C 117.02818,128.41716 115.43218,126.32326 114.44398,124.93776 C 112.82318,122.66506 111.97618,122.41846 105.79178,122.41846 C 99.073683,122.41846 98.915383,122.35836 97.890483,119.41846 C 96.878183,116.51436 95.751783,115.74066 94.442583,117.04996 C 94.095183,117.39726 94.204283,118.41616 94.684883,119.31416 C 95.243483,120.35806 95.083583,121.59666 94.241383,122.74846 C 93.147583,124.24416 92.594183,124.34396 90.980483,123.33616 C 88.217483,121.61066 86.149383,118.11556 87.604483,117.63056 C 89.126583,117.12316 89.054883,114.68986 87.502483,114.17236 C 85.366083,113.46026 88.234183,108.74846 91.142483,108.19246 C 93.391283,107.76266 93.638083,107.97916 93.143883,109.94816 C 92.706483,111.69076 93.373983,112.79966 96.121183,114.89516 C 98.068783,116.38066 99.935283,118.45606 100.26888,119.50726 C 100.75808,121.04856 101.83008,121.41846 105.80808,121.41846 C 109.33168,121.41846 110.74068,121.02486 110.74068,120.04056 C 110.74068,116.67586 107.21168,110.58216 103.04668,106.75496 C 100.26338,104.19736 98.800383,102.13086 99.253783,101.39726 C 99.765383,100.56946 100.72048,101.05096 102.36628,102.96626 C 103.67218,104.48606 104.74068,106.07926 104.74068,106.50666 C 104.74068,106.93406 105.57688,107.54906 106.59888,107.87346 C 107.62088,108.19786 109.27408,110.27496 110.27258,112.48916 C 112.66068,117.78506 113.68138,118.26706 113.40648,113.96896 C 113.25418,111.58886 112.16518,109.41996 110.00188,107.18796 C 107.71218,104.82566 107.07478,103.49586 107.72658,102.44136 C 108.70278,100.86176 109.76698,101.39216 110.09418,103.62136 C 110.35168,105.37556 117.86038,114.41846 119.05948,114.41846 C 119.55178,114.41846 119.72318,113.81516 119.44018,113.07776 C 119.15728,112.34046 119.30828,111.11816 119.77578,110.36166 C 120.41748,109.32336 120.88498,109.66796 121.68328,111.76746 C 123.06878,115.41176 123.06708,115.41846 120.74068,115.41846 C 118.51308,115.41846 118.10048,117.37826 119.94068,119.21846 C 120.60068,119.87846 120.79508,120.41846 120.37258,120.41846 C 119.95018,120.41846 120.47798,121.65596 121.54548,123.16846 C 122.61308,124.68096 123.35538,127.09976 123.19518,128.54346 C 122.95028,130.74966 123.29958,131.16846 125.38448,131.16846 C 127.46548,131.16846 127.82078,130.74546 127.58978,128.54286 C 127.43828,127.09876 127.66438,125.35106 128.09208,124.65896 C 128.51978,123.96686 128.52538,122.39206 128.10438,121.15956 C 127.68338,119.92696 127.31688,118.61706 127.28988,118.24856 C 127.26278,117.88016 126.26468,116.45616 125.07178,115.08416 C 123.87878,113.71226 123.08828,112.40416 123.31508,112.17746 C 123.54178,111.95066 122.61418,109.45776 121.25368,106.63756 C 118.75698,101.46196 115.62678,98.752857 113.59468,100.00876 C 112.83798,100.47636 112.62668,99.520657 112.92388,96.974757 C 113.33878,93.421457 113.15748,93.156457 108.79928,90.943257 C 106.29208,89.670157 102.53508,86.781157 100.45038,84.523457 C 96.809383,80.580257 94.740683,79.416957 94.740683,81.312957 C 94.740683,82.538257 105.96618,92.405657 107.36828,92.412757 C 107.98838,92.415857 109.07118,93.111857 109.77448,93.959257 C 110.89368,95.307757 110.59978,95.450057 107.41838,95.099457 C 105.41918,94.879157 103.05348,94.093057 102.16118,93.352557 C 101.26898,92.611957 99.868083,91.907657 99.048183,91.787357 C 96.708983,91.444057 96.162983,90.399057 97.769683,89.340457 C 98.999383,88.530157 98.815083,88.006057 96.645583,86.144857 C 95.218183,84.920357 93.769883,83.130957 93.426983,82.168457 C 92.569383,79.761457 90.740683,79.963257 90.740683,82.464957 C 90.740683,83.691857 91.939583,85.193757 93.734383,86.214957 C 95.380883,87.151857 96.730883,88.255957 96.734383,88.668457 C 96.744583,89.879857 95.528783,89.536657 93.588183,87.780457 C 92.176383,86.502857 91.466783,86.400857 90.362983,87.316957 C 89.213883,88.270657 88.938883,88.061457 88.900583,86.205057 C 88.874583,84.947457 88.542583,82.392057 88.162683,80.526457 C 87.626583,77.893457 87.760383,77.312657 88.760883,77.930957 C 89.570583,78.431357 89.804083,78.330057 89.388983,77.658357 C 89.025583,77.070357 89.271383,76.408257 89.935183,76.186957 C 90.872983,75.874357 90.874383,75.619157 89.941383,75.042557 C 89.252483,74.616757 88.740683,74.831557 88.740683,75.546557 C 88.740683,76.231857 87.390683,75.499257 85.740683,73.918457 C 84.090683,72.337657 82.754383,70.340957 82.771083,69.481357 C 82.795983,68.204157 82.992283,68.246357 83.845283,69.712257 C 84.531083,70.890757 85.549783,71.296457 86.814883,70.894957 C 87.874083,70.558757 88.751083,70.651557 88.763883,71.101057 C 88.791883,72.087857 95.295083,79.418457 96.142383,79.418457 C 97.594783,79.418457 96.520183,77.132857 94.081683,75.035357 C 91.474683,72.792857 91.449583,72.656857 92.799983,68.083257 C 93.557483,65.517657 94.557883,63.418457 95.022983,63.418457 C 96.087583,63.418457 95.536183,69.702357 94.398483,70.534457 C 93.399883,71.264857 95.647583,75.168757 97.469183,75.867757 C 98.168483,76.136157 98.740683,75.668257 98.740683,74.828057 C 98.740683,73.987857 99.208983,73.589857 99.781383,73.943657 C 100.35368,74.297357 100.55348,75.432757 100.22538,76.466757 C 99.725483,78.041857 100.10378,78.312057 102.55828,78.132657 C 105.51378,77.916557 105.91388,77.087557 104.30618,74.510957 C 103.62408,73.417757 103.91038,73.229557 105.58848,73.668457 C 107.27798,74.110257 107.88268,73.700757 108.36218,71.790357 C 108.74588,70.261757 110.24158,68.818157 112.35798,67.933857 C 115.82508,66.485257 117.25668,62.418457 114.29968,62.418457 C 113.50718,62.418457 112.53498,61.855957 112.13938,61.168457 C 111.74378,60.480957 111.78828,60.252057 112.23838,60.659757 C 113.89218,62.158057 115.66418,59.288957 115.06598,56.081257 C 114.60478,53.607857 114.74408,53.168457 115.70528,54.065357 C 116.38128,54.696057 117.25818,57.958557 117.65398,61.315357 C 118.34038,67.136957 118.06028,67.942657 115.49068,67.536857 C 115.07818,67.471757 114.74068,67.868457 114.74068,68.418457 C 114.74068,68.968457 114.08148,69.418457 113.27588,69.418457 C 111.73848,69.418457 109.19278,73.203957 110.11208,74.123157 C 110.40538,74.416557 109.98778,75.314257 109.18388,76.118157 C 108.37998,76.921957 107.97798,77.993457 108.29048,78.499057 C 108.60298,79.004757 108.38218,79.418457 107.79968,79.418457 C 104.91678,79.418457 108.49188,84.655857 112.99068,87.022957 C 115.26168,88.217857 115.74068,88.233557 115.74068,87.113157 C 115.74068,86.366957 114.61568,85.154357 113.24068,84.418457 C 110.12458,82.750857 109.94458,80.933957 112.99068,81.895357 C 117.70808,83.384157 120.74068,83.633357 120.74068,82.531957 C 120.74068,80.483857 122.22308,81.400257 124.02188,84.560257 C 125.90188,87.862757 125.65348,89.393857 123.51488,87.685957 C 122.21838,86.650557 118.23228,86.593557 117.22988,87.595957 C 116.92648,87.899357 117.81728,88.893857 119.20948,89.806057 C 120.60168,90.718257 121.74068,92.301757 121.74068,93.324957 C 121.74068,94.515257 122.64118,95.357457 124.24068,95.663257 C 126.20988,96.039657 126.74068,95.730757 126.74068,94.208357 C 126.74068,93.145357 127.47598,91.540357 128.37458,90.641657 C 129.44558,89.570757 129.61788,88.877557 128.87458,88.629757 C 127.26808,88.094257 127.46438,86.418457 129.13368,86.418457 C 131.88288,86.418457 132.58208,91.434257 130.16928,93.847057 C 129.11438,94.901957 129.00128,95.418457 129.82528,95.418457 C 130.50028,95.418457 132.66998,97.167757 134.64668,99.305857 C 139.44568,104.49656 140.04468,105.37086 141.40378,109.16846 C 142.36368,111.85066 142.32008,112.41846 141.15378,112.41846 C 140.37658,112.41846 139.74068,112.06666 139.74068,111.63656 C 139.74068,110.51976 134.95058,110.26986 134.28188,111.35186 C 133.97498,111.84836 134.74018,113.83386 135.98228,115.76416 L 138.24068,119.27366 L 152.00198,119.13976 C 165.53708,119.00806 165.79158,119.04606 167.47738,121.45286 C 169.59868,124.48156 169.86828,129.37996 168.03278,131.54526 C 166.96758,132.80176 164.57718,133.20996 157.53208,133.33836 C 152.51518,133.42976 148.03468,133.73676 147.57558,134.02056 C 146.44928,134.71656 146.51398,138.78676 147.66998,139.96846 C 148.39828,140.71296 149.27648,175.38256 149.71408,220.66846 C 149.73118,222.43446 150.27738,223.41846 151.24068,223.41846 C 152.07118,223.41846 152.74068,222.53086 152.74068,221.42966 C 152.74068,220.03286 153.41038,219.44196 154.99068,219.44446 C 156.22818,219.44636 157.91568,219.37646 158.74068,219.28896 C 159.56568,219.20156 162.04068,219.92746 164.24068,220.90206 C 166.44068,221.87666 169.21878,222.80726 170.41428,222.96996 C 174.60878,223.54076 178.74068,229.23506 178.74068,234.44466 L 178.74068,237.60236 L 173.49068,237.26036 L 168.24068,236.91846 L 167.74068,240.91846 L 167.24068,244.91846 L 162.01048,245.25896 C 157.20238,245.57196 156.68508,245.39046 155.60078,243.01086 C 154.94918,241.58066 152.70288,239.66406 150.58108,238.72796 C 148.46888,237.79606 146.74068,236.70046 146.74068,236.29346 C 146.74068,235.34116 143.19358,234.20116 138.74068,233.72226 C 132.43578,233.04416 69.559883,232.90206 69.150183,233.56496 C 68.930383,233.92056 64.388983,234.26736 59.058183,234.33576 C 53.727383,234.40406 49.113483,234.71226 48.805083,235.02076 C 48.496683,235.32916 49.480983,236.48236 50.992483,237.58336 C 55.602583,240.94156 54.306383,249.66736 49.365483,248.53556 C 48.884183,248.42526 47.707383,249.04356 46.750483,249.90966 C 45.144583,251.36296 44.919883,251.26536 43.832983,248.64136 z M 50.655783,246.41846 C 51.069183,246.41846 51.407383,245.71356 51.407383,244.85186 C 51.407383,243.66706 50.778283,243.44316 48.826083,243.93316 C 45.634083,244.73436 45.361783,244.99636 46.241683,246.42016 C 46.627383,247.04416 47.609283,247.29916 48.423583,246.98666 C 49.237983,246.67416 50.242483,246.41846 50.655783,246.41846 z M 160.26448,242.79946 C 159.37398,241.90896 158.34238,241.48346 157.97198,241.85376 C 157.60168,242.22416 157.96058,242.94586 158.76968,243.45756 C 161.13208,244.95156 162.02398,244.55896 160.26448,242.79946 z M 43.740683,242.16846 C 43.740583,240.42186 36.742183,235.01986 34.004483,234.65326 C 30.923283,234.24056 31.122283,236.22516 34.240583,237.00786 C 35.615583,237.35296 36.740683,238.21276 36.740683,238.91846 C 36.740683,239.62426 37.865683,240.48406 39.240683,240.82916 C 40.615683,241.17426 41.740683,241.89796 41.740683,242.43756 C 41.740683,242.97706 42.190683,243.41846 42.740683,243.41846 C 43.290683,243.41846 43.740683,242.85596 43.740683,242.16846 z M 20.364583,239.72776 C 25.096783,237.11646 26.693583,235.72086 26.725283,234.16846 C 26.757783,232.57716 23.757483,233.51836 22.740583,235.41846 C 22.151883,236.51846 20.822883,237.41846 19.787183,237.41846 C 16.580283,237.41846 14.740583,238.55106 14.740583,240.52546 C 14.740583,242.90646 14.557283,242.93246 20.364583,239.72776 z M 50.740683,241.45786 C 50.740683,240.92956 50.043983,239.91706 49.192583,239.20786 C 45.132083,235.82606 42.740383,233.22646 43.116583,232.60386 C 43.994683,231.15066 41.020983,229.90416 35.873683,229.56796 C 31.792683,229.30136 30.611083,229.52996 30.941783,230.52196 C 31.180883,231.23956 32.710083,232.17216 34.339883,232.59446 C 35.969683,233.01676 38.189183,234.18516 39.271983,235.19086 C 40.354783,236.19656 42.070883,237.33646 43.085583,237.72406 C 44.100383,238.11156 45.165283,239.32626 45.452283,240.42356 C 45.984183,242.45756 50.740683,243.38796 50.740683,241.45786 z M 156.04718,237.34556 C 154.58778,234.86296 153.71238,234.34946 151.49068,234.67236 C 149.70378,234.93206 148.74068,234.61976 148.74068,233.78046 C 148.74068,232.17036 145.58468,230.41846 142.68398,230.41846 C 140.89248,230.41846 140.71248,230.67956 141.69138,231.85906 C 142.34888,232.65136 143.45688,233.08086 144.15358,232.81356 C 144.85028,232.54616 146.01898,233.04896 146.75088,233.93076 C 147.48268,234.81256 149.57978,236.16006 151.41108,236.92526 C 153.24238,237.69036 154.74068,238.78936 154.74068,239.36746 C 154.74068,239.94556 155.44108,240.41846 156.29718,240.41846 C 157.65168,240.41846 157.61928,240.01956 156.04718,237.34556 z M 165.74068,237.22496 C 165.74068,234.95376 158.87218,228.06496 154.16478,225.61486 C 151.47038,224.21256 142.56468,225.44646 141.94408,227.30816 C 141.67808,228.10616 141.93238,228.41806 142.54188,228.04136 C 143.12518,227.68086 143.88518,227.84316 144.23058,228.40216 C 144.57608,228.96116 145.67708,229.41846 146.67728,229.41846 C 147.67748,229.41846 149.05598,230.09346 149.74068,230.91846 C 150.42538,231.74346 151.86338,232.41846 152.93628,232.41846 C 154.00918,232.41846 156.45828,234.16876 158.37868,236.30796 C 162.12418,240.48026 165.74068,240.93066 165.74068,237.22496 z M 174.95628,231.30966 C 174.65038,227.66156 171.92308,224.20706 169.03028,223.80366 C 165.45058,223.30446 163.91588,222.80906 162.59158,221.72536 C 161.27438,220.64746 156.11678,220.70906 155.00988,221.81596 C 154.07198,222.75386 156.87838,225.41846 158.80408,225.41846 C 159.80428,225.41846 160.90528,225.87586 161.25078,226.43476 C 161.59618,226.99376 162.28758,227.19846 162.78708,226.88976 C 163.28668,226.58106 166.21108,227.65326 169.28578,229.27256 C 172.36048,230.89186 174.39568,232.51366 173.80838,232.87666 C 172.31678,233.79846 172.46818,235.68156 173.99068,235.14296 C 174.74108,234.87756 175.12708,233.34556 174.95628,231.30966 z M 167.96288,230.19626 C 166.13968,228.37306 165.54688,228.22506 164.50178,229.33236 C 163.48598,230.40856 163.49468,230.76126 164.54648,231.14536 C 165.26468,231.40776 166.38968,232.21386 167.04648,232.93676 C 167.78508,233.74976 168.60738,233.89746 169.20178,233.32376 C 169.80988,232.73686 169.35498,231.58826 167.96288,230.19626 z M 115.05708,231.49446 L 138.87348,231.41846 L 138.55708,228.66846 L 138.24068,225.91846 L 118.24068,225.78226 C 107.24068,225.70736 85.640683,225.62046 70.240683,225.58926 C 54.840683,225.55806 41.228183,225.51186 39.990683,225.48666 C 36.562783,225.41686 37.295483,226.75386 41.740683,228.67956 C 43.940683,229.63276 45.740683,230.87186 45.740683,231.43316 C 45.740683,232.11046 53.394983,232.30526 68.490683,232.01216 C 81.003183,231.76916 101.95808,231.53626 115.05708,231.49446 z M 9.1576826,224.45406 C 11.678283,223.37356 13.740583,221.97546 13.740583,221.34706 C 13.740583,220.63266 13.084783,220.49266 11.990583,220.97336 C 11.028083,221.39616 8.5530826,221.94156 6.4905826,222.18536 C 3.6324826,222.52316 2.7405826,223.07926 2.7405826,224.52356 C 2.7405826,226.89856 3.4733826,226.89056 9.1576826,224.45406 z M 16.740583,224.41846 C 16.740583,223.86846 16.290583,223.41846 15.740583,223.41846 C 15.190583,223.41846 14.740583,223.86846 14.740583,224.41846 C 14.740583,224.96846 15.190583,225.41846 15.740583,225.41846 C 16.290583,225.41846 16.740583,224.96846 16.740583,224.41846 z M 122.86688,223.13786 C 122.93638,222.46716 122.96598,220.65546 122.93278,219.11176 C 122.89958,217.56816 123.40528,216.14886 124.05658,215.95776 C 124.70778,215.76666 126.14068,215.27966 127.24068,214.87556 C 130.25508,213.76816 132.76428,213.64756 133.34208,214.58246 C 133.62618,215.04226 134.91958,215.41846 136.21608,215.41846 L 138.57348,215.41846 L 138.20888,198.16846 C 138.00828,188.68096 137.70838,173.94346 137.54238,165.41846 L 137.24068,149.91846 L 133.52668,148.23346 C 130.89008,147.03726 129.00448,145.07346 127.02668,141.46376 C 123.49078,135.01026 123.54288,135.02316 102.00408,135.29116 L 91.767483,135.41846 L 90.058683,139.16846 C 87.967383,143.75786 87.425183,152.32586 88.049383,170.91846 C 88.233983,176.41846 87.973383,181.75426 87.470283,182.77586 C 86.170283,185.41516 88.119083,187.17926 90.318383,185.35396 C 91.232683,184.59516 93.727083,183.86546 95.861383,183.73246 C 99.043383,183.53426 100.03688,183.94096 101.38068,185.99176 C 102.93908,188.37016 102.90528,188.61436 100.69328,190.96886 C 99.122283,192.64116 98.038283,193.11606 97.353883,192.43176 C 96.796683,191.87446 95.332283,191.41846 94.099683,191.41846 C 92.867183,191.41846 91.580583,190.96846 91.240683,190.41846 C 90.196883,188.72946 88.740683,189.30826 88.740683,191.41216 C 88.740683,192.62226 90.411183,194.58066 92.990683,196.39456 C 95.328183,198.03826 97.690683,199.75136 98.240683,200.20126 C 98.790683,200.65116 100.02818,201.32006 100.99068,201.68756 C 104.07798,202.86636 102.89668,205.26276 98.057883,207.63666 C 94.975883,209.14866 94.800683,209.11446 92.532383,206.55836 C 89.615683,203.27156 85.678283,195.81416 86.451483,195.04106 C 87.906283,193.58626 83.473683,193.35006 81.874683,194.79716 C 79.088583,197.31856 74.280183,196.89796 72.968083,194.01816 C 71.618483,191.05616 72.943483,188.99066 77.210983,187.40446 C 79.721983,186.47116 80.388683,186.58016 81.522783,188.10946 C 82.810683,189.84616 82.922283,189.84036 84.312383,187.96376 C 85.598483,186.22786 85.563583,185.90356 84.000583,185.06576 C 78.702783,182.22626 78.013583,179.64036 79.297083,167.41846 C 79.835583,162.28976 79.835983,160.43676 79.300483,151.50726 C 79.029483,146.98746 78.447683,144.83396 77.328383,144.20756 C 76.306283,143.63556 75.740683,141.94556 75.740683,139.46316 L 75.740683,135.60726 L 56.490683,135.92836 C 45.903183,136.10496 36.918883,136.28746 36.525583,136.33396 C 36.132283,136.38046 36.047183,152.50596 36.336483,172.16846 C 36.944683,213.50396 37.222383,221.77076 38.047483,223.10586 C 39.001183,224.64906 122.70718,224.68066 122.86688,223.13786 z M 135.55048,222.16846 C 135.76668,221.04506 135.23448,220.37846 134.06398,220.30666 C 133.06118,220.24526 130.77818,220.02566 128.99068,219.81886 C 126.37608,219.51626 125.74068,219.79876 125.74068,221.26396 C 125.74068,223.88276 126.35858,224.20886 131.03098,224.05566 C 134.15178,223.95326 135.29918,223.47416 135.55048,222.16846 z M 146.97668,187.60016 C 146.73958,155.56276 146.54128,151.79076 145.03548,150.66846 C 143.46798,149.50016 143.46888,149.41846 145.04958,149.41846 C 147.70338,149.41846 147.68068,141.75786 145.02078,139.70046 C 142.96738,138.11226 141.79308,138.90286 142.45358,141.42876 C 142.87988,143.05886 142.54038,143.38826 140.65078,143.17776 C 137.19508,142.79286 136.90238,146.07936 140.25618,147.60746 C 142.58798,148.66996 142.71848,148.96156 141.31968,149.98436 C 139.90318,151.02016 139.75398,155.15546 139.98298,187.03436 C 140.25868,225.42356 140.14718,224.63626 145.17198,223.67676 C 147.22348,223.28506 147.23848,222.98526 146.97668,187.60016 z M 131.74068,217.58516 C 131.74068,216.28306 130.55188,215.41706 129.58488,216.01476 C 128.55068,216.65396 129.44248,218.41846 130.79968,218.41846 C 131.31728,218.41846 131.74068,218.04346 131.74068,217.58516 z M 95.240683,203.41846 C 94.245183,202.31846 93.034583,201.41846 92.550483,201.41846 C 92.066383,201.41846 92.151983,202.31846 92.740683,203.41846 C 93.329383,204.51846 94.539983,205.41846 95.430883,205.41846 C 96.860583,205.41846 96.838183,205.18376 95.240683,203.41846 z M 79.197983,194.48756 C 79.937483,193.29096 78.056383,192.10536 76.724383,192.92856 C 75.605983,193.61976 76.340183,195.41846 77.740683,195.41846 C 78.225783,195.41846 78.881583,194.99956 79.197983,194.48756 z M 84.496183,177.94196 C 84.058283,172.71656 83.273583,171.51866 81.968283,174.08286 C 80.878583,176.22356 82.265683,182.41846 83.834583,182.41846 C 84.451783,182.41846 84.719583,180.60676 84.496183,177.94196 z M 85.102283,167.91846 C 85.747283,166.23766 84.922583,163.41846 83.785883,163.41846 C 83.378383,163.41846 83.006683,164.76846 82.959783,166.41846 C 82.869883,169.57946 84.127183,170.45966 85.102283,167.91846 z M 85.257083,153.16846 C 84.800483,145.74446 84.846983,145.91216 83.592283,147.16686 C 82.202883,148.55626 81.872483,153.26046 82.995183,155.66846 C 84.433383,158.75316 85.526183,157.54526 85.257083,153.16846 z M 85.740683,143.91846 C 85.740683,143.09346 85.290683,142.41846 84.740683,142.41846 C 84.190683,142.41846 83.740683,143.09346 83.740683,143.91846 C 83.740683,144.74346 84.190683,145.41846 84.740683,145.41846 C 85.290683,145.41846 85.740683,144.74346 85.740683,143.91846 z M 132.08148,140.79866 C 130.56298,138.80776 129.15768,137.66766 128.95848,138.26496 C 128.46828,139.73576 131.92098,144.34786 133.54158,144.38706 C 134.32888,144.40606 133.75238,142.98936 132.08148,140.79866 z M 83.990683,141.80246 C 86.152983,141.03976 86.328483,136.58126 84.227983,135.77526 C 83.395983,135.45596 82.045983,135.75016 81.227983,136.42906 C 79.377083,137.96516 79.164483,143.85376 80.990683,143.00246 C 81.678183,142.68196 83.028183,142.14196 83.990683,141.80246 z M 136.57468,139.03006 C 137.03738,136.64386 132.92158,128.19146 131.52378,128.65746 C 129.71588,129.26006 128.35698,132.01686 129.12078,133.53256 C 129.83348,134.94696 131.57298,137.88366 133.08258,140.22126 C 134.17228,141.90856 136.14718,141.23486 136.57468,139.03006 z M 143.15188,135.56226 C 143.77228,134.55826 138.73838,124.41846 137.61948,124.41846 C 135.69518,124.41846 135.69688,126.86786 137.62288,129.47306 C 138.78768,131.04846 139.74068,132.95576 139.74068,133.71136 C 139.74068,136.11066 142.04138,137.35896 143.15188,135.56226 z M 164.99068,131.22046 C 167.05258,130.19266 167.43518,123.51296 165.54068,121.61846 C 164.16238,120.24016 143.05008,119.93546 140.95678,121.26376 C 139.52708,122.17086 140.35378,125.41846 142.01438,125.41846 C 142.59718,125.41846 142.78728,125.70516 142.43688,126.05556 C 142.08648,126.40606 142.73338,128.00376 143.87438,129.60626 C 145.91638,132.47396 146.08488,132.51636 154.59488,132.30626 C 159.35008,132.18886 164.02818,131.70026 164.99068,131.22046 z M 116.87128,119.33796 C 116.05938,117.22646 115.85098,117.14126 115.23388,118.66846 C 114.28918,121.00626 115.47268,124.08656 116.80398,122.75516 C 117.44078,122.11846 117.46508,120.88226 116.87128,119.33796 z M 133.24068,120.41846 C 132.90078,119.86846 133.15098,119.41846 133.79668,119.41846 C 134.57608,119.41846 134.42788,118.59006 133.35568,116.95366 C 132.46748,115.59796 131.74068,113.31046 131.74068,111.87036 C 131.74068,108.55586 129.34978,109.09536 128.97008,112.49556 C 128.72108,114.72516 131.95788,121.41846 133.28498,121.41846 C 133.60058,121.41846 133.58058,120.96846 133.24068,120.41846 z M 129.74068,109.00026 C 129.74068,107.40346 128.29588,105.41846 127.13368,105.41846 C 125.69708,105.41846 125.22778,107.57216 126.40738,108.75176 C 127.13558,109.48006 129.74068,109.67426 129.74068,109.00026 z M 136.42108,104.78336 C 134.60118,101.28366 129.98418,97.149957 128.74838,97.913757 C 128.25118,98.221057 125.24908,97.560357 122.07718,96.445457 C 115.39018,94.095157 115.74068,94.157457 115.74068,95.320657 C 115.74068,95.816857 117.08618,96.691857 118.73058,97.265157 C 120.69268,97.949057 121.53238,98.797757 121.17318,99.733857 C 120.63918,101.12526 123.49808,102.99436 124.55048,101.94206 C 124.83838,101.65406 124.54898,101.41846 123.90738,101.41846 C 123.26568,101.41846 122.74068,101.01506 122.74068,100.52206 C 122.74068,99.192157 132.03628,101.80526 132.52538,103.27266 C 132.83308,104.19566 131.93898,104.11036 129.16768,102.95246 C 125.39938,101.37796 125.39488,101.37896 127.22068,103.39636 C 128.22718,104.50856 129.60608,105.41846 130.28488,105.41846 C 130.96368,105.41846 132.58148,106.28656 133.87988,107.34746 C 136.93668,109.84516 138.32488,108.44446 136.42108,104.78336 z M 117.49818,92.168457 C 117.27308,91.480957 115.05118,89.793457 112.56048,88.418457 C 110.06988,87.043457 106.73358,84.680957 105.14658,83.168457 C 102.28168,80.438057 100.72658,79.729757 100.75598,81.168457 C 100.78228,82.457157 102.09838,83.859357 106.49068,87.278357 C 108.82818,89.097857 110.74758,90.211257 110.75598,89.752457 C 110.76438,89.293757 111.10188,89.368457 111.50598,89.918457 C 112.37758,91.104857 115.89088,93.276157 117.07398,93.359657 C 117.53238,93.392057 117.72318,92.855957 117.49818,92.168457 z M 2.4077826,134.35376 C -0.29821738,130.49036 3.2973826,124.15716 8.8244826,123.05166 C 10.443583,122.72786 22.786183,122.42666 36.252683,122.38236 C 55.460783,122.31916 61.329883,121.99246 63.488783,120.86626 C 66.903283,119.08516 68.740683,119.02706 68.740683,120.70036 C 68.740683,122.41876 73.405883,122.73336 74.048683,121.05836 C 74.327483,120.33166 74.147283,119.10296 73.648183,118.32776 C 72.914683,117.18866 72.579983,117.16726 71.902383,118.21576 C 71.232183,119.25306 70.806783,119.20296 69.779983,117.96576 C 68.682183,116.64306 68.841483,116.41846 70.877683,116.41846 C 74.057383,116.41846 76.164083,113.07806 74.704383,110.35076 C 74.001483,109.03726 73.823383,104.03876 74.195883,96.082257 L 74.769283,83.835357 L 70.241683,80.973557 C 67.751583,79.399557 65.937783,77.888057 66.211183,77.614657 C 66.484483,77.341357 65.702983,76.151157 64.474383,74.969957 C 57.464683,68.230057 52.290883,55.869757 52.532183,46.439557 C 52.706683,39.617957 56.577783,31.418457 59.623983,31.418457 C 60.936883,31.418457 62.125183,25.205357 61.305983,22.624157 C 59.722083,17.633657 54.386083,14.572957 53.102283,17.918457 C 52.094083,20.545957 50.739883,19.532957 50.762883,16.168457 C 50.775183,14.380957 51.665183,11.793457 52.740683,10.418457 C 53.816183,9.0434574 54.720383,7.2434574 54.749883,6.4184574 C 54.924983,1.5224574 71.693983,-1.9611426 79.740683,1.2268574 C 86.098883,3.7459574 87.788183,7.0788574 88.838483,19.176357 C 89.351383,25.084557 89.963083,30.767157 90.197783,31.804457 C 90.432583,32.841857 89.943383,35.696957 89.110783,38.149357 C 88.278183,40.601657 87.824383,42.835457 88.102283,43.113457 C 89.070683,44.081857 90.740683,42.285957 90.740683,40.276157 C 90.740683,39.078857 91.251383,38.439057 91.990683,38.710157 C 92.678183,38.962257 93.128183,39.674757 92.990683,40.293457 C 92.853183,40.912257 92.628183,41.980957 92.490683,42.668457 C 92.019983,45.021757 88.792683,45.470457 86.784083,43.461857 C 85.227183,41.904957 85.118983,41.349457 86.198183,40.453757 C 87.684783,39.219957 87.773683,28.844057 86.317583,26.522157 C 85.835883,25.754257 85.535683,21.911257 85.650383,17.982257 C 85.822683,12.082257 85.500483,10.382857 83.799883,8.2208574 C 82.667283,6.7810574 81.740683,4.8864574 81.740683,4.0107574 C 81.740683,2.2371574 80.196783,1.8714574 79.240683,3.4184574 C 78.321883,4.9050574 76.740683,4.6281574 76.740683,2.9806574 C 76.740683,1.3118574 72.974583,1.2261574 70.798683,2.8453574 C 69.713283,3.6531574 69.542483,3.6094574 70.107783,2.6684574 C 70.580283,1.8818574 70.280783,1.4184574 69.299683,1.4184574 C 68.442283,1.4184574 67.740683,2.1200574 67.740683,2.9774574 C 67.740683,3.9581574 67.283483,4.2539574 66.508283,3.7748574 C 63.985383,2.2156574 61.232183,2.7952574 59.266183,5.2996574 C 58.152183,6.7186574 57.353183,8.2259574 57.490683,8.6490574 C 57.628183,9.0722574 57.334683,9.4184574 56.838483,9.4184574 C 56.342283,9.4184574 55.430083,10.870657 54.811383,12.645657 C 53.922483,15.195357 53.943983,15.615257 54.913483,14.645657 C 55.588483,13.970657 56.974083,13.418457 57.992683,13.418457 C 59.151483,13.418457 60.236183,12.295457 60.890483,10.418457 C 61.639983,8.2686574 62.617083,7.3869574 64.338483,7.3073574 C 65.659683,7.2462574 67.704383,7.1462574 68.882183,7.0851574 C 71.744583,6.9366574 72.478683,11.953157 69.804083,13.384557 C 68.813883,13.914457 67.688483,14.032957 67.303283,13.647757 C 66.918083,13.262457 65.283883,12.880957 63.671783,12.799957 C 61.119683,12.671557 60.740683,13.000657 60.740683,15.344357 C 60.740683,16.824857 61.401383,18.909757 62.208883,19.977357 C 63.921983,22.242257 64.146283,26.221557 62.765483,29.853357 C 62.131783,31.520057 62.131783,32.418457 62.765483,32.418457 C 64.285383,32.418457 63.910983,34.139157 62.252683,34.775457 C 61.434283,35.089557 60.812583,35.025157 60.871083,34.632457 C 61.421383,30.940257 57.588983,35.083957 55.342483,40.610057 C 54.016483,43.871957 54.025783,52.326957 55.358783,55.361457 C 55.734983,56.217857 56.162883,57.500457 56.309583,58.211857 C 56.863583,60.897157 62.019083,69.824857 64.627483,72.615757 L 67.341783,75.520057 L 70.234383,73.244757 C 72.506283,71.457657 72.987183,71.333757 72.475383,72.667557 C 72.073883,73.713757 72.432883,74.706457 73.410583,75.253657 C 74.501083,75.863857 74.644483,76.359857 73.869083,76.839057 C 72.205483,77.867257 72.482483,79.100057 74.878783,81.332557 C 76.924183,83.238157 76.985883,83.868357 76.302083,95.871457 C 75.804383,104.60796 75.914283,108.41846 76.663983,108.41846 C 77.256183,108.41846 77.740683,107.96846 77.740683,107.41846 C 77.740683,106.86846 78.239483,106.41846 78.849083,106.41846 C 79.532083,106.41846 79.716683,107.37806 79.330083,108.91846 C 78.643583,111.65356 79.541483,112.11116 81.782983,110.16846 C 82.576183,109.48096 81.950783,110.33526 80.393283,112.06676 C 77.643583,115.12366 77.610483,115.29016 79.253183,117.79726 C 80.630383,119.89906 81.298183,120.19046 82.842883,119.36376 C 84.151883,118.66316 84.740683,118.67706 84.740683,119.40826 C 84.740683,119.99136 83.357683,120.74506 81.667283,121.08316 C 79.106883,121.59526 78.686283,122.06576 79.147383,123.90256 C 79.791983,126.47106 76.009383,130.60186 72.526083,131.13346 L 70.347483,131.46596 L 72.544083,129.12776 C 75.619783,125.85376 75.287383,124.61846 71.330583,124.61846 C 69.454983,124.61846 67.238183,124.23596 66.404283,123.76846 C 65.570383,123.30096 52.457883,123.04496 37.265383,123.19956 L 9.6425826,123.48066 L 9.9415826,129.19956 C 10.211383,134.35966 10.463483,134.92966 12.522183,135.03346 C 17.691883,135.29396 15.614783,136.41846 9.9639826,136.41846 C 4.9237826,136.41846 3.6007826,136.05696 2.4077826,134.35376 z M 7.5252826,130.50606 C 7.7790826,126.87786 7.5605826,126.30576 6.0315826,126.59576 C 4.1695826,126.94906 3.0905826,131.28226 4.1665826,134.08606 C 5.2416826,136.88796 7.2267826,134.77206 7.5252826,130.50606 z M 71.740683,78.540957 C 71.740683,77.262157 68.800283,75.025557 68.073983,75.751757 C 67.347683,76.478057 69.584383,79.418457 70.863083,79.418457 C 71.345783,79.418457 71.740683,79.023557 71.740683,78.540957 z M 81.398683,106.74316 C 80.576783,105.92126 80.534083,101.95836 81.338483,101.15406 C 82.423983,100.06846 84.740683,101.59986 84.740683,103.40306 C 84.740683,105.40556 82.400283,107.74466 81.398683,106.74316 z M 94.061683,100.93076 C 92.929683,100.13786 91.755783,99.736757 91.453083,100.03946 C 91.150383,100.34216 90.379783,99.612657 89.740683,98.418457 C 89.101583,97.224257 88.901683,95.948257 89.296583,95.582857 C 89.691383,95.217457 90.215383,95.480957 90.460883,96.168457 C 90.706483,96.855957 91.338683,97.418457 91.865783,97.418457 C 93.144483,97.418457 97.227783,101.26466 96.607583,101.88496 C 96.339383,102.15306 95.193783,101.72376 94.061683,100.93076 z M 85.740683,100.41846 C 85.740683,99.868457 86.190683,99.418457 86.740683,99.418457 C 87.290683,99.418457 87.740683,99.868457 87.740683,100.41846 C 87.740683,100.96846 87.290683,101.41846 86.740683,101.41846 C 86.190683,101.41846 85.740683,100.96846 85.740683,100.41846 z M 108.28338,99.487557 C 107.54388,98.290957 109.42498,97.105357 110.75698,97.928557 C 111.87538,98.619757 111.14118,100.41846 109.74068,100.41846 C 109.25558,100.41846 108.59978,99.999557 108.28338,99.487557 z M 99.740683,97.536457 C 99.740683,96.986457 100.19068,96.258357 100.74068,95.918457 C 101.29068,95.578557 101.74068,95.750457 101.74068,96.300457 C 101.74068,96.850457 101.29068,97.578557 100.74068,97.918457 C 100.19068,98.258357 99.740683,98.086457 99.740683,97.536457 z M 79.511183,95.210757 C 78.797183,93.271957 79.717183,91.418457 81.393583,91.418457 C 82.350383,91.418457 82.765983,92.192057 82.560283,93.590157 C 82.193683,96.081357 80.218483,97.131257 79.511183,95.210757 z M 94.085783,93.875357 C 93.760083,93.026657 93.730383,92.095457 94.019783,91.806057 C 94.670683,91.155057 98.740683,93.614657 98.740683,94.659057 C 98.740683,96.099257 94.676583,95.415057 94.085783,93.875357 z M 82.490683,84.661057 C 80.420583,84.200657 80.114283,81.418457 82.133683,81.418457 C 82.899883,81.418457 83.810483,82.157857 84.157183,83.061557 C 84.910583,85.024757 84.762883,85.166457 82.490683,84.661057 z M 118.12398,77.733457 C 118.27438,76.185257 117.98818,74.092457 117.48808,73.082857 C 116.16138,70.404957 117.13708,70.054957 120.73798,71.917057 C 124.49848,73.861757 126.74068,73.291657 126.74068,70.390857 C 126.74068,69.241157 127.19068,68.578557 127.74068,68.918457 C 129.71878,70.140957 128.78708,73.368757 126.27398,73.999457 C 124.91738,74.339957 123.90488,74.911057 124.02398,75.268557 C 124.14318,75.625957 123.79068,76.001457 123.24068,76.102857 C 122.69068,76.204357 122.36118,75.693057 122.50838,74.966657 C 122.65558,74.240357 122.10888,73.390057 121.29348,73.077157 C 120.13158,72.631257 119.85738,73.286057 120.02578,76.104357 C 120.14908,78.167857 119.73128,79.881257 119.04558,80.124557 C 118.26468,80.401557 117.94528,79.572957 118.12398,77.733457 z M 126.74068,77.477457 C 126.74068,75.801057 128.51418,75.385957 129.10448,76.924257 C 129.45278,77.831857 129.10138,78.418457 128.20928,78.418457 C 127.40158,78.418457 126.74068,77.995057 126.74068,77.477457 z M 80.740683,74.418457 C 80.740683,73.868457 81.190683,73.418457 81.740683,73.418457 C 82.290683,73.418457 82.740683,73.868457 82.740683,74.418457 C 82.740683,74.968457 82.290683,75.418457 81.740683,75.418457 C 81.190683,75.418457 80.740683,74.968457 80.740683,74.418457 z M 77.283383,70.487557 C 76.600283,69.382357 78.177783,68.188957 79.101183,69.112357 C 80.051983,70.063157 79.874783,71.418457 78.799683,71.418457 C 78.282183,71.418457 77.599783,70.999557 77.283383,70.487557 z M 99.990683,66.859457 C 99.990683,65.219657 100.44078,64.473157 101.24378,64.781257 C 102.55748,65.285357 104.74068,63.640557 104.74068,62.146857 C 104.74068,61.667557 103.72688,61.408157 102.48778,61.570557 C 99.832683,61.918557 93.740683,59.591757 93.740683,58.229757 C 93.740683,57.709457 94.640683,57.569357 95.740683,57.918457 C 97.159983,58.368957 97.740683,58.098157 97.740683,56.985857 C 97.740683,54.683057 99.547683,55.074357 99.921083,57.458057 C 100.09688,58.579857 100.69068,59.463057 101.24068,59.420657 C 102.48928,59.324457 102.07568,52.527057 100.72198,50.895957 C 99.975783,49.996857 100.35768,49.813757 102.23198,50.172057 C 104.27108,50.561857 104.74068,50.255457 104.74068,48.535057 C 104.74068,46.135557 103.74788,45.840157 101.82828,47.668457 C 100.75938,48.686557 100.63368,48.527257 101.15088,46.809657 C 101.93458,44.206957 99.325583,41.451857 98.388883,43.892957 C 97.504983,46.196357 95.944783,45.721657 96.007683,43.168457 C 96.038183,41.930957 95.693583,40.018457 95.241783,38.918457 C 94.454483,37.001357 94.520283,37.006957 96.830583,39.053557 C 98.156083,40.227857 100.19388,41.476857 101.35878,41.829057 C 104.13308,42.667957 106.31448,45.255057 107.12538,48.668457 C 107.67368,50.976157 107.45408,51.418457 105.75978,51.418457 C 103.45918,51.418457 103.29268,52.490757 104.82688,57.425057 C 106.80438,63.785557 106.70128,65.115357 104.14008,66.282357 C 102.82038,66.883657 101.74068,67.835257 101.74068,68.397057 C 101.74068,68.958857 101.34698,69.418457 100.86568,69.418457 C 100.38438,69.418457 99.990683,68.266957 99.990683,66.859457 z M 120.24068,68.418457 C 119.90078,67.868457 120.16038,67.418457 120.81758,67.418457 C 121.65848,67.418457 121.82978,66.085357 121.39578,62.918457 C 120.70298,57.864457 121.61408,57.084857 123.49068,61.125657 C 125.06138,64.507757 125.07678,66.682457 123.54068,68.218457 C 122.07848,69.680757 121.05898,69.742457 120.24068,68.418457 z M 78.240683,66.418457 C 77.900783,65.868457 78.068883,65.418457 78.614283,65.418457 C 79.159683,65.418457 79.905983,64.473157 80.272583,63.317857 C 80.714083,61.926857 81.274883,61.552757 81.932683,62.210457 C 82.590383,62.868157 82.544983,63.915657 81.798183,65.311157 C 80.579583,67.588057 79.224283,68.009957 78.240683,66.418457 z M 63.547783,64.668457 C 60.424583,61.031757 60.651983,60.544557 64.725783,62.144757 C 67.905683,63.393857 68.503683,63.999057 67.615683,65.069157 C 66.138483,66.848957 65.353983,66.771757 63.547783,64.668457 z M 85.740683,62.977457 C 85.740683,62.120057 86.190683,61.418457 86.740683,61.418457 C 87.290683,61.418457 87.740683,61.841957 87.740683,62.359457 C 87.740683,62.876957 87.290683,63.578557 86.740683,63.918457 C 86.190683,64.258357 85.740683,63.834957 85.740683,62.977457 z M 69.128183,59.859857 C 66.866583,56.894757 66.419483,55.311557 66.447883,50.368257 C 66.485783,43.757757 67.411083,42.137457 72.684083,39.447357 C 75.870383,37.821857 76.588083,37.776857 79.250983,39.035557 C 80.895283,39.812757 81.412583,40.215357 80.400483,39.930357 C 79.388283,39.645257 78.057383,39.722757 77.442783,40.102657 C 76.828183,40.482457 75.220183,40.911057 73.869483,41.055057 C 70.721883,41.390657 68.294283,43.812657 69.072583,45.840957 C 69.793383,47.719457 71.740683,47.952757 71.740683,46.160557 C 71.740683,45.468757 73.794183,44.164257 76.303883,43.261757 C 80.788983,41.648957 80.881283,41.658057 81.692183,43.790857 C 82.145983,44.984357 83.692483,46.589957 85.128983,47.358657 C 86.565383,48.127457 87.740683,49.130357 87.740683,49.587457 C 87.740683,50.044557 88.415683,50.418457 89.240683,50.418457 C 90.073983,50.418457 90.740683,49.529557 90.740683,48.418457 C 90.740683,47.318457 91.190683,46.418457 91.740683,46.418457 C 92.290683,46.418457 92.740683,47.543457 92.740683,48.918457 C 92.740683,50.293457 92.290683,51.418457 91.740683,51.418457 C 91.190683,51.418457 90.740683,51.868457 90.740683,52.418457 C 90.740683,52.968457 91.865683,53.418457 93.240683,53.418457 C 94.750683,53.418457 95.740683,52.847857 95.740683,51.977457 C 95.740683,50.476357 97.535983,48.880457 98.330783,49.675257 C 99.363483,50.707857 97.415483,53.310557 94.798583,54.394457 C 93.259383,55.032057 91.495283,56.661657 90.878283,58.015857 C 89.794083,60.395257 89.655383,60.425757 86.748583,58.922557 C 83.021083,56.995057 82.961583,56.488557 86.490683,56.730257 C 88.803583,56.888557 89.290983,56.481357 89.557083,54.168457 C 89.811983,51.953557 89.471383,51.418457 87.807083,51.418457 C 86.670583,51.418457 85.740683,51.819657 85.740683,52.310057 C 85.740683,52.800457 84.615683,53.484057 83.240683,53.829157 C 81.865683,54.174257 80.740683,54.897957 80.740683,55.437557 C 80.740683,55.977057 80.065683,56.418457 79.240683,56.418457 C 77.284283,56.418457 77.302483,58.313057 79.266183,59.066657 C 81.348083,59.865557 79.237983,62.418457 76.495783,62.418457 C 74.856483,62.418457 74.714183,62.155357 75.706483,60.959657 C 76.704783,59.756757 76.454983,59.384857 74.282383,58.839557 C 70.982583,58.011357 69.674483,59.165657 71.992283,60.860457 C 73.911383,62.263757 74.272183,63.418457 72.791583,63.418457 C 72.269583,63.418457 70.620983,61.817057 69.128183,59.859857 z M 74.250783,56.402157 C 74.596183,55.843157 75.317483,55.656957 75.853583,55.988257 C 77.027583,56.713857 79.740683,54.638757 79.740683,53.015257 C 79.740683,51.938357 76.338283,50.120557 70.990683,48.340457 C 69.225683,47.752857 68.740683,47.970957 68.740683,49.352157 C 68.740683,50.320557 69.753183,51.601157 70.990683,52.197957 L 73.240683,53.283157 L 70.990683,53.350757 C 68.489683,53.426057 68.130183,54.407957 69.940683,56.218457 C 71.407583,57.685357 73.405083,57.770557 74.250783,56.402157 z M 84.740683,50.418457 C 84.740683,49.318457 84.120783,48.418457 83.363083,48.418457 C 82.605483,48.418457 81.428983,47.747757 80.748683,46.928057 C 79.505883,45.430657 72.746683,45.200157 72.742683,46.655057 C 72.741583,47.060157 74.260783,48.026757 76.118583,48.803057 C 77.976483,49.579257 79.802983,50.710357 80.177583,51.316457 C 81.379483,53.261157 84.740683,52.599657 84.740683,50.418457 z M 57.411083,55.265957 C 56.691183,52.513357 57.374183,51.340557 59.272683,52.069157 C 61.119983,52.777957 61.163383,54.822757 59.362783,56.317057 C 58.275183,57.219757 57.864083,56.998357 57.411083,55.265957 z M 110.17118,56.602457 C 109.63558,56.226257 109.43488,54.343457 109.72538,52.418457 C 110.28038,48.741357 111.03428,49.117757 112.10608,53.607157 C 112.77098,56.392057 111.86608,57.792857 110.17118,56.602457 z M 57.120683,44.966357 C 56.156283,42.453157 57.580583,41.388357 60.268583,42.613157 C 62.173683,43.481157 62.474883,44.033857 61.610383,45.075457 C 60.142783,46.843757 57.819483,46.787357 57.120683,44.966357 z M 64.792683,39.981157 C 63.959383,38.977057 64.164983,38.540757 65.654983,38.151157 C 66.755383,37.863357 67.830983,38.211257 68.112983,38.946257 C 68.808783,40.759457 66.131283,41.594057 64.792683,39.981157 z M 80.491383,36.689957 C 79.752683,35.243157 79.760783,30.418357 80.501883,30.450257 C 80.908183,30.467757 81.977983,31.043157 82.879083,31.728957 C 84.389183,32.878157 84.375283,33.151457 82.701383,35.218657 C 81.702583,36.452157 80.707983,37.114257 80.491383,36.689957 z M 68.760783,34.942657 C 67.744783,33.718457 67.824783,33.323457 69.195283,32.797557 C 71.533083,31.900357 73.217283,33.778057 71.415783,35.273157 C 70.321583,36.181257 69.727283,36.107257 68.760783,34.942657 z M 75.740683,35.418457 C 75.740683,34.868457 76.190683,34.418457 76.740683,34.418457 C 77.290683,34.418457 77.740683,34.868457 77.740683,35.418457 C 77.740683,35.968457 77.290683,36.418457 76.740683,36.418457 C 76.190683,36.418457 75.740683,35.968457 75.740683,35.418457 z M 64.740683,29.977457 C 64.740683,29.120057 65.190683,28.418457 65.740683,28.418457 C 66.290683,28.418457 66.740683,28.841957 66.740683,29.359457 C 66.740683,29.876957 66.290683,30.578557 65.740683,30.918457 C 65.190683,31.258357 64.740683,30.834957 64.740683,29.977457 z M 82.740683,29.359457 C 82.740683,28.776957 83.190683,28.578557 83.740683,28.918457 C 84.290683,29.258357 84.740683,29.734957 84.740683,29.977457 C 84.740683,30.220057 84.290683,30.418457 83.740683,30.418457 C 83.190683,30.418457 82.740683,29.941957 82.740683,29.359457 z M 71.240683,28.418457 C 70.511483,27.238557 71.457383,25.418457 72.799683,25.418457 C 73.317283,25.418457 73.740683,26.318457 73.740683,27.418457 C 73.740683,29.527557 72.285783,30.109557 71.240683,28.418457 z M 76.664183,23.168457 C 76.622083,23.030957 76.440583,22.243457 76.260783,21.418457 C 76.080983,20.593457 75.634783,19.176457 75.269083,18.269657 C 74.602383,16.615957 76.206183,14.713257 77.053983,16.152157 C 78.267483,18.211757 78.816483,23.418457 77.820183,23.418457 C 77.226483,23.418457 76.706283,23.305957 76.664183,23.168457 z M 74.407383,12.751757 C 73.451683,11.796157 73.585283,10.418457 74.633683,10.418457 C 75.124883,10.418457 75.785683,11.093457 76.102283,11.918457 C 76.687183,13.442757 75.621983,13.966457 74.407383,12.751757 z M 80.740683,10.387057 C 80.740683,9.8543574 81.415683,9.4184574 82.240683,9.4184574 C 83.065683,9.4184574 83.740683,9.5953574 83.740683,9.8114574 C 83.740683,10.027657 83.065683,10.463557 82.240683,10.780057 C 81.415683,11.096657 80.740683,10.919857 80.740683,10.387057 z"
     id="path2384"
     sodipodi:nodetypes="csssssssssssssssssssssssssssssssssssssssssscccssssssssssssssssssssssssssssssssssssssssssssssssssssssssssssssssssssssssssssssssssssssssssssssssssssssssssssssssssssssssssssssssssssssscccsssssssssssscccccccssssssssssccssssccssccssssssccssssccssssssssccsssssssssccssssssssccsssssssssccssssccccccsssssccssssccsssccssssccccccscccssssssssssssssssssssssssscccsssccssssccsssssssssccssccsssccssccssccssccssccsssccssccsssccsssccsssccssssssccssccsssssccssccsssssssssssssccsssssssccsssssssssscccsssssssssssssssssssssssssssssssssssssssssssssssssssscccsssssssssssssssscccsscccssccssccssccssccssssssccsssccssccsssccssccssccssccsssssssssssccssccsssccssccssssssssssssssssssssssssccssssccssssccssccsssccsssssssssssssssssssssssssssssssssssssccsssscccsccsssssccssccssccssccssccsssccssccsssccsssccsssccssccssssccssccsssc" />
</svg>

