<?xml version="1.0" encoding="UTF-8" standalone="no"?>
<!-- Created with Inkscape (http://www.inkscape.org/) -->
<svg
   xmlns:dc="http://purl.org/dc/elements/1.1/"
   xmlns:cc="http://creativecommons.org/ns#"
   xmlns:rdf="http://www.w3.org/1999/02/22-rdf-syntax-ns#"
   xmlns:svg="http://www.w3.org/2000/svg"
   xmlns="http://www.w3.org/2000/svg"
   xmlns:sodipodi="http://sodipodi.sourceforge.net/DTD/sodipodi-0.dtd"
   xmlns:inkscape="http://www.inkscape.org/namespaces/inkscape"
   width="494"
   height="499"
   id="svg2"
   sodipodi:version="0.32"
   inkscape:version="0.46"
   version="1.0"
   sodipodi:docname="rw.svg"
   inkscape:output_extension="org.inkscape.output.svg.inkscape"
   inkscape:export-filename="/Users/xavid/Downloads/bw.png"
   inkscape:export-xdpi="90"
   inkscape:export-ydpi="90">
  <defs
     id="defs4">
    <inkscape:perspective
       sodipodi:type="inkscape:persp3d"
       inkscape:vp_x="0 : 526.18109 : 1"
       inkscape:vp_y="0 : 1000 : 0"
       inkscape:vp_z="744.09448 : 526.18109 : 1"
       inkscape:persp3d-origin="372.04724 : 350.78739 : 1"
       id="perspective10" />
    <inkscape:perspective
       id="perspective2467"
       inkscape:persp3d-origin="372.04724 : 350.78739 : 1"
       inkscape:vp_z="744.09448 : 526.18109 : 1"
       inkscape:vp_y="0 : 1000 : 0"
       inkscape:vp_x="0 : 526.18109 : 1"
       sodipodi:type="inkscape:persp3d" />
  </defs>
  <sodipodi:namedview
     id="base"
     pagecolor="#ffffff"
     bordercolor="#666666"
     borderopacity="1.0"
     gridtolerance="10000"
     guidetolerance="10"
     objecttolerance="10"
     inkscape:pageopacity="0.0"
     inkscape:pageshadow="2"
     inkscape:zoom="0.7"
     inkscape:cx="387.26087"
     inkscape:cy="266.492"
     inkscape:document-units="px"
     inkscape:current-layer="layer1"
     showgrid="false"
     inkscape:window-width="1267"
     inkscape:window-height="713"
     inkscape:window-x="8"
     inkscape:window-y="0" />
  <metadata
     id="metadata7">
    <rdf:RDF>
      <cc:Work
         rdf:about="">
        <dc:format>image/svg+xml</dc:format>
        <dc:type
           rdf:resource="http://purl.org/dc/dcmitype/StillImage" />
      </cc:Work>
    </rdf:RDF>
  </metadata>
  <g
     inkscape:label="Layer 1"
     inkscape:groupmode="layer"
     id="layer1"
     transform="translate(-158.71428,-42.862183)">
    <rect
       style="opacity:1;fill:#d40000;fill-opacity:1;stroke:#d40000;stroke-width:23;stroke-linecap:square;stroke-miterlimit:4;stroke-dasharray:none;stroke-dashoffset:0;stroke-opacity:1"
       id="rect2475"
       width="551.42859"
       height="548.57141"
       x="-10"
       y="-9.5714293"
       transform="translate(158.71428,42.862183)" />
    <path
       style="fill:#ffffff"
       d="M 397.77092,79.286733 C 390.84578,79.726533 381.76994,80.603133 377.6024,81.234833 C 373.43485,81.866633 367.94431,82.578533 365.4012,82.816933 C 360.06435,83.317233 345.98634,86.689233 340.86208,88.694633 C 338.93708,89.447933 333.40719,91.532033 328.57344,93.325833 C 323.73968,95.119633 319.50681,97.037133 319.16706,97.586833 C 318.78039,98.212533 319.4494,98.330033 320.95571,97.901033 C 325.74303,96.537633 351.56973,92.088433 360.36208,91.112433 C 365.31208,90.562933 380.16208,90.171833 393.36208,90.243433 C 414.03084,90.355433 419.3053,90.715533 431.36208,92.837733 C 439.06208,94.193033 447.16208,95.770533 449.36208,96.343433 C 451.56208,96.916233 454.94374,97.787833 456.87689,98.280333 C 465.57609,100.49643 484.09951,109.73273 497.22603,118.39963 C 500.45121,120.52903 503.30456,122.27133 503.56681,122.27133 C 503.82907,122.27133 508.43704,126.65883 513.80674,132.02133 C 533.55361,151.74173 546.5486,173.8599 552.43647,197.77131 C 553.24905,201.07131 554.65625,206.69631 555.56359,210.27131 C 558.40658,221.47302 557.80856,253.86695 554.49287,268.27131 C 554.17636,269.64631 553.19446,273.92131 552.31087,277.77131 C 550.86125,284.08765 548.56568,290.21126 545.56317,295.77131 C 544.96915,296.87131 543.60878,299.57131 542.54012,301.77131 C 539.2953,308.45126 527.36167,323.59048 519.79283,330.62893 C 515.86422,334.28224 512.32296,337.27131 511.92336,337.27131 C 511.52376,337.27131 509.7962,335.52844 508.08434,333.39826 C 504.37342,328.78051 494.49355,321.61089 486.86208,317.99768 C 468.79228,309.44234 444.14771,310.00421 425.66665,319.39287 C 418.96916,322.79529 402.06486,336.74027 401.93301,338.97162 C 401.894,339.63179 401.2718,340.53179 400.55034,340.97162 C 398.30777,342.33879 391.69365,357.38645 389.73182,365.58466 C 387.30021,375.74596 387.36739,385.01113 389.95987,397.03876 C 393.70378,414.40831 400.06916,425.59827 412.13169,436.01547 C 420.21985,443.00041 423.53624,444.78083 437.00771,449.37027 C 445.51565,452.26874 447.40266,452.54743 457.86208,452.4502 C 470.42478,452.33342 474.54466,451.94605 481.06098,450.26894 C 501.82452,444.925 515.68666,437.77032 536.36208,421.72632 C 545.30258,414.78854 566.22629,393.40057 568.60173,388.77131 C 569.44841,387.12131 570.49939,385.53766 570.93724,385.25208 C 571.78873,384.69672 587.86208,358.48225 587.86208,357.6489 C 587.86208,357.37595 589.64913,353.46682 591.83331,348.96196 C 597.266,337.75706 600.74208,328.09479 602.33487,319.77131 C 603.07162,315.92131 604.16777,310.63723 604.77078,308.02891 C 605.37378,305.42059 605.79456,302.94559 605.70585,302.52891 C 605.61714,302.11223 605.80278,301.09631 606.11838,300.27131 C 607.15369,297.56493 608.10061,288.94575 608.48042,278.77131 C 608.89069,267.78103 607.31409,245.57003 606.00198,243.85538 C 605.21602,242.82828 603.52359,236.73774 602.50515,231.27131 C 601.46283,225.67674 590.0248,200.12812 584.37344,190.77131 C 583.04467,188.57131 581.62912,186.09631 581.22777,185.27131 C 580.82641,184.44631 578.92373,181.29631 576.99959,178.27131 C 565.90215,160.82471 565.35775,160.13784 549.61208,143.71703 C 545.34958,139.27183 541.86208,135.32683 541.86208,134.95043 C 541.86208,133.00803 527.5223,122.00213 511.39998,111.57053 C 499.70313,104.00243 472.40481,90.311733 464.86208,88.230933 C 445.23095,82.815133 434.57577,80.407133 427.86208,79.869033 C 423.73708,79.538433 418.11208,79.092233 415.36208,78.877533 C 412.61208,78.662833 404.69606,78.847033 397.77092,79.286733 z M 351.54461,105.91623 C 351.44422,105.99603 349.26315,106.34093 346.6978,106.68273 C 338.16174,107.82013 315.46358,113.92083 306.35294,117.52633 C 295.18568,121.94583 278.57697,130.50323 273.67072,134.36543 C 271.64047,135.96363 269.48885,137.27133 268.88933,137.27133 C 268.28982,137.27133 267.54029,137.94633 267.22371,138.77133 C 266.90712,139.59633 266.10566,140.27133 265.44268,140.27133 C 263.93996,140.27133 248.79951,156.32898 238.18118,169.18432 C 230.25777,178.77699 220.47946,196.73925 207.9207,224.77131 C 200.31813,241.74079 197.40853,251.79844 197.6939,260.1225 C 197.75709,261.96565 197.12856,264.7891 196.29718,266.39681 C 195.4658,268.00453 194.8893,269.8715 195.01608,270.54562 C 195.14286,271.21975 194.66056,276.37479 193.94429,282.00126 C 192.08454,296.61027 192.96552,325.33373 195.74684,340.77131 C 197.89343,352.68586 203.94266,374.47966 206.43314,379.27131 C 207.14781,380.64631 209.55266,385.73388 211.77726,390.57703 C 219.37372,407.11516 237.17716,431.63666 253.33355,447.81442 C 263.93724,458.43212 279.56347,471.90325 280.35637,471.11035 C 280.56623,470.90049 276.67769,466.01336 271.71517,460.25005 C 266.75265,454.48674 259.63618,445.72131 255.9008,440.77131 C 249.28853,432.00895 237.86208,414.86959 237.86208,413.71372 C 237.86208,413.397 236.78984,411.70539 235.47933,409.95459 C 232.55877,406.05283 223.30472,388.10819 219.65595,379.27131 C 218.17982,375.69631 215.42565,366.92131 213.53558,359.77131 C 206.40379,332.79237 206.35104,332.42522 206.49564,310.77131 C 206.62405,291.54365 206.74659,290.38514 209.66889,280.77131 C 212.93399,270.02976 214.46708,265.50445 216.44452,260.77131 C 217.13387,259.12131 218.48881,255.74631 219.4555,253.27131 C 220.42219,250.79631 222.25914,247.20435 223.5376,245.28918 C 224.81606,243.374 225.86208,241.2365 225.86208,240.53918 C 225.86208,239.84185 226.31208,239.27131 226.86208,239.27131 C 227.41208,239.27131 227.86208,238.59631 227.86208,237.77131 C 227.86208,236.94631 228.19958,236.26824 228.61208,236.26448 C 229.02458,236.26072 230.48708,234.58187 231.86208,232.53369 C 234.50846,228.59171 253.61149,209.01025 260.36208,203.31993 C 273.19278,192.50446 294.05849,182.56887 317.86208,175.94025 C 327.32785,173.3043 345.79363,171.97482 354.62051,173.29375 C 369.19711,175.47182 386.86165,180.32025 386.86231,182.14324 C 386.86243,182.48868 385.69057,186.75485 384.25817,191.62361 C 380.64939,203.88998 381.13207,210.68814 386.88435,228.61143 C 390.94447,241.26218 391.81754,243.03529 397.04383,249.24412 C 403.41071,256.80797 413.70747,265.02898 421.47614,268.75106 C 424.28887,270.09868 430.58887,272.42496 435.47614,273.92058 C 451.02022,278.67743 467.92493,276.99457 484.86208,269.00422 C 495.45487,264.00691 496.29617,263.34236 504.84907,253.21627 C 512.04562,244.696 520.94382,228.30263 520.71723,223.98196 C 520.65346,222.7661 521.10657,218.84631 521.72413,215.27131 C 523.2443,206.47124 523.13015,196.81073 521.43465,190.77131 C 519.67102,184.48924 517.84289,179.21383 516.75637,177.27131 C 516.29492,176.44631 515.14108,174.19631 514.19227,172.27131 C 509.19569,162.13389 495.63592,147.64713 482.36208,138.26513 C 470.51087,129.88873 451.36265,120.43453 435.86208,115.30633 C 422.96513,111.03953 408.24629,107.43593 403.86208,107.47183 C 402.48708,107.48303 394.53904,106.96113 386.19976,106.31183 C 374.21409,105.37883 352.53303,105.13133 351.54461,105.91623 z M 289.36208,229.2004 C 284.58609,230.16327 278.94407,232.16591 275.36208,234.1697 C 272.06208,236.01575 267.71548,238.35956 265.70297,239.37816 C 260.35465,242.08513 247.72966,254.91017 244.15131,261.27131 C 235.66549,276.35636 229.35027,304.29183 230.24834,322.77131 C 231.221,342.7855 234.32856,362.50476 237.81266,370.77131 C 238.27628,371.87131 239.63695,375.69631 240.83637,379.27131 C 242.03578,382.84631 243.65724,387.18932 244.4396,388.92244 C 245.22197,390.65556 245.86208,392.57417 245.86208,393.18601 C 245.86208,393.79785 246.28064,395.07984 246.79221,396.03488 C 247.30378,396.98992 250.62624,403.68886 254.17545,410.92143 C 257.72466,418.154 262.12648,426.254 263.95728,428.92143 C 273.35196,442.60932 291.17065,462.14594 301.87285,470.49254 C 303.79193,471.98921 306.68414,474.23921 308.29999,475.49254 C 321.83403,485.99011 347.7599,497.96283 364.36208,501.38234 C 379.66243,504.53372 401.24794,506.49731 412.85586,505.79372 C 447.53527,503.69169 462.9407,500.50348 491.36208,489.54658 C 504.8269,484.35568 522.39907,475.5913 531.72933,469.41283 C 536.83029,466.03499 541.25,463.27131 541.55092,463.27131 C 542.08234,463.27131 544.70235,461.16169 553.7113,453.47984 C 561.94093,446.46251 563.5874,444.74707 570.22792,436.27131 C 573.89065,431.59631 578.11923,426.27862 579.62475,424.45422 C 581.13028,422.62981 583.42077,419.25481 584.71473,416.95422 C 586.00868,414.65362 587.69618,412.06088 588.46473,411.19257 C 589.23327,410.32426 589.86208,409.09469 589.86208,408.46018 C 589.86208,407.82568 591.66208,404.36568 593.86208,400.77131 C 596.06208,397.17694 597.86208,393.6297 597.86208,392.88856 C 597.86208,392.14741 598.76208,390.39686 599.86208,388.99844 C 600.96208,387.60002 601.86208,385.71049 601.86208,384.7995 C 601.86208,383.88851 602.98708,380.68365 604.36208,377.6776 C 605.73708,374.67154 606.86208,371.77047 606.86208,371.23078 C 606.86208,370.69108 607.71882,368.34192 608.76594,366.01041 C 609.81307,363.67891 610.92811,359.64365 611.24382,357.04317 C 611.55952,354.4427 612.23604,351.5177 612.7472,350.54317 C 615.0266,346.19743 619.49593,321.68569 618.2516,320.35464 C 617.52531,319.57774 616.82973,320.96096 615.47678,325.8726 C 613.48037,333.12022 607.81963,349.39961 606.29731,352.27131 C 605.56841,353.64631 604.01175,356.79631 602.83807,359.27131 C 590.65222,384.96831 583.38416,397.96256 573.60595,411.53419 C 567.61768,419.84558 567.95758,419.446 555.60972,432.69038 C 544.79787,444.28722 546.24479,442.9989 532.74859,453.04566 C 521.19123,461.64912 512.1504,466.98713 504.36208,469.80601 C 501.61208,470.80134 498.91208,471.94421 498.36208,472.34573 C 497.16093,473.22261 489.16718,475.56272 486.36208,475.85864 C 485.26208,475.97468 483.46208,476.28617 482.36208,476.55083 C 481.26208,476.81549 474.84474,477.60303 468.10133,478.30091 C 439.58111,481.25251 414.35288,476.49561 387.60247,463.12248 C 379.39049,459.01712 369.78921,452.8285 367.86208,450.39857 C 367.58708,450.05182 366.01208,449.11276 364.36208,448.31176 C 359.49114,445.94716 342.81286,428.40938 336.72576,419.25124 C 331.73072,411.73613 323.23093,395.18107 320.04974,386.77131 C 319.42559,385.12131 318.53607,380.0161 318.07303,375.4264 C 317.12739,366.05309 316.64601,366.75294 325.71945,364.30972 C 337.09533,361.24651 350.48993,353.0789 356.50585,345.53712 C 360.98312,339.92426 366.54853,329.98954 367.36512,326.15245 C 367.76087,324.29282 368.65437,322.09631 369.35067,321.27131 C 370.04697,320.44631 370.87311,317.52131 371.18653,314.77131 C 371.49996,312.02131 372.26702,306.17131 372.89112,301.77131 C 374.01846,293.82332 373.48262,281.48841 371.8754,278.39008 C 371.41356,277.49975 369.54227,273.62131 367.71696,269.77131 C 363.78654,261.48113 358.50352,253.20978 356.37976,252.02126 C 355.54503,251.55413 354.86208,250.54091 354.86208,249.76966 C 354.86208,248.99841 352.94958,247.04337 350.61208,245.42511 C 348.27458,243.80686 345.23708,241.47874 343.86208,240.2515 C 338.41778,235.39228 323.04938,229.76607 312.58606,228.80169 C 299.86585,227.62929 296.90273,227.68016 289.36208,229.2004 z"
       id="path2473"
       sodipodi:nodetypes="cssssssssssssssssssssssssssssssssssssssssssssssssssssssccsssssssssssssssssssssssssssssssssssssssssssssssssssssccssssssssssssssssssssssssssssssssssssssssssssssssssssssssssssssssc" />
  </g>
</svg>

