<?xml version="1.0" encoding="UTF-8" standalone="no"?>
<!-- Created with Inkscape (http://www.inkscape.org/) -->

<svg
   xmlns:dc="http://purl.org/dc/elements/1.1/"
   xmlns:cc="http://creativecommons.org/ns#"
   xmlns:rdf="http://www.w3.org/1999/02/22-rdf-syntax-ns#"
   xmlns:svg="http://www.w3.org/2000/svg"
   xmlns="http://www.w3.org/2000/svg"
   xmlns:sodipodi="http://sodipodi.sourceforge.net/DTD/sodipodi-0.dtd"
   xmlns:inkscape="http://www.inkscape.org/namespaces/inkscape"
   id="A Japanese family coat of arms, &quot;Ageha-Cho&quot; in Japanese. This image was traced from a JPEG made by Misogi and made available in Wikimedia Commons."
   sodipodi:version="0.32"
   inkscape:version="0.48.0 r9654"
   width="300"
   height="300"
   sodipodi:docname="Mon:TairaButterfly.image.svg"
   version="1.0"
   inkscape:output_extension="org.inkscape.output.svg.inkscape"
   sodipodi:modified="true">
  <metadata
     id="metadata7">
    <rdf:RDF>
      <cc:Work
         rdf:about="">
        <dc:format>image/svg+xml</dc:format>
        <dc:type
           rdf:resource="http://purl.org/dc/dcmitype/StillImage" />
      </cc:Work>
    </rdf:RDF>
  </metadata>
  <defs
     id="defs5">
    <inkscape:perspective
       sodipodi:type="inkscape:persp3d"
       inkscape:vp_x="0 : 200 : 1"
       inkscape:vp_y="0 : 1000 : 0"
       inkscape:vp_z="400 : 200 : 1"
       inkscape:persp3d-origin="200 : 133.33333 : 1"
       id="perspective9" />
  </defs>
  <sodipodi:namedview
     inkscape:window-height="932"
     inkscape:window-width="1278"
     inkscape:pageshadow="2"
     inkscape:pageopacity="0.0"
     guidetolerance="10.0"
     gridtolerance="10.0"
     objecttolerance="10.0"
     borderopacity="1.0"
     bordercolor="#666666"
     pagecolor="#ffffff"
     id="base"
     inkscape:zoom="1.9039801"
     inkscape:cx="76.528874"
     inkscape:cy="163.34205"
     inkscape:window-x="0"
     inkscape:window-y="0"
     inkscape:current-layer="A Japanese family coat of arms, &quot;Ageha-Cho&quot; in Japanese. This image was traced from a JPEG made by Misogi and made available in Wikimedia Commons."
     showgrid="false"
     inkscape:window-maximized="0" />
  <rect
     style="fill:#d7251d;fill-opacity:1;stroke:#000000;stroke-width:1;stroke-miterlimit:4;stroke-opacity:1;stroke-dasharray:none"
     id="rect5055"
     width="306.20068"
     height="306.20068"
     x="-3.1512935"
     y="-1.9989548" />
  <path
     id="path1936"
     d="m 122.14847,270.46407 c -4.41902,-1.1632 -4.94911,-6.31367 -1.37157,-13.32625 1.82665,-3.58052 3.32117,-9.49239 3.32117,-13.13748 0,-12.48114 9.96204,-24.29316 20.48844,-24.29316 7.51381,0 11.05917,2.1035 13.50742,8.01409 4.17966,10.09058 -1.86798,22.7774 -10.8577,22.7774 l -7.86395,0.20921 6.42604,-2.62741 c 5.68957,-3.96348 5.62045,-11.74857 2.2847,-15.08433 -3.33576,-3.33575 -13.04162,-2.84666 -14.97974,1.65709 -1.91621,4.45289 -3.18034,7.65061 0.89474,12.56248 2.0609,2.48413 8.75577,2.64254 8.45803,2.70939 -12.95025,2.90664 -17.61619,8.35061 -18.09004,11.69957 -0.29829,2.1083 0.24866,4.62428 1.21544,5.59109 0.96681,0.96678 1.75783,2.34122 1.75783,3.05428 0,1.35914 -0.66946,1.38417 -5.19081,0.19403 z m 54.65831,-12.57839 c -6.21785,-3.8571 -11.9939,-8.10476 -12.83568,-9.43923 -2.67066,-4.23388 2.29047,-12.49384 15.13196,-25.19379 6.73755,-6.66327 10.79156,-11.33562 9.00889,-10.38298 -1.78267,0.95262 -6.82789,5.40047 -11.21161,9.8841 -8.31887,8.50846 -10.66655,9.08916 -10.66655,2.63837 0,-6.66258 21.12084,-21.8743 30.38634,-21.88495 4.70474,-0.005 5.26696,0.48424 5.26696,4.5871 0,5.18059 -9.62924,19.99011 -19.90998,30.62101 -3.64531,3.76948 -6.30869,7.14529 -5.91862,7.50183 0.39008,0.35651 4.95829,3.34696 10.15157,6.64543 6.54511,4.15704 9.15572,6.74416 8.50817,8.43162 -0.51378,1.33892 -0.93416,2.7394 -0.93416,3.11217 0,2.30714 -7.21133,-0.4626 -16.97729,-6.52068 z m -64.74939,-0.38201 c -0.59019,-1.53802 0.0383,-3.80016 1.44721,-5.20909 2.2402,-2.2402 2.49045,-2.21129 2.49045,0.28772 0,1.528 0.81857,2.77818 1.81903,2.77818 1.2568,0 1.19546,0.75138 -0.19842,2.43091 -2.62227,3.15965 -4.26809,3.07445 -5.55827,-0.28772 z m 75.82678,-5.58419 -9.9514,-6.41118 15.21506,-15.73661 c 8.36829,-8.65514 15.21656,-15.93575 15.21837,-16.17912 0.002,-0.24338 -1.91381,0.81362 -4.25692,2.3489 l -4.26024,2.79141 2.6564,-5.13693 c 2.88389,-5.57682 7.03609,-8.4742 12.1443,-8.4742 7.90376,0 5.69434,4.6467 -12.27096,25.80741 -5.61843,6.61775 -10.21532,12.57743 -10.21532,13.24371 0,0.66628 2.91215,3.7041 6.47142,6.75072 3.55928,3.04661 5.99019,6.02052 5.40202,6.6087 -2.14569,2.1457 -6.41,0.66393 -16.15273,-5.61281 z m -105.921807,1.85775 c 0,-0.87078 1.782567,-2.75122 3.961276,-4.17875 2.706166,-1.77316 4.118231,-4.38734 4.456662,-8.25072 l 0.495386,-5.65517 3.64636,3.41466 c 4.661831,4.36561 4.681684,10.48246 0.04455,13.73044 -3.980382,2.78797 -12.604234,3.43082 -12.604234,0.93954 z m 116.606617,-4.97099 -5.28148,-4.93365 5.51524,-5.69873 c 3.0334,-3.13429 10.43358,-9.06197 16.44486,-13.17257 6.01127,-4.11062 10.60015,-7.80331 10.19749,-8.20597 -0.40266,-0.40267 -4.5012,1.97571 -9.10788,5.28528 l -8.37575,6.01738 5.44555,-7.58281 c 2.99505,-4.17054 6.68529,-8.24628 8.2005,-9.0572 3.98993,-2.13534 15.53417,-1.81001 16.948,0.47763 0.76968,1.24535 -4.59685,7.39911 -14.82395,16.99849 -14.90823,13.99318 -15.81839,15.20145 -13.002,17.26086 3.98674,2.91518 2.1777,7.54493 -2.94811,7.54493 -2.16204,0 -6.30765,-2.22015 -9.21247,-4.93364 z m -123.965976,-1.6566 c -0.587518,-0.95063 -0.812879,-1.90062 -0.500799,-2.11109 0.312096,-0.21047 2.572936,-1.63732 5.0241,-3.17075 3.003758,-1.87914 4.456663,-4.16142 4.456663,-7.00067 0,-3.56077 0.376142,-3.90042 2.430906,-2.1951 2.90905,2.41428 3.219736,11.52776 0.486182,14.26131 -2.409969,2.40998 -10.450939,2.55616 -11.897052,0.2163 z m 44.099916,-6.23955 c 1.24829,-9.74754 5.2627,-16.15329 14.10063,-22.50021 7.58239,-5.44527 13.30889,-6.38139 21.52209,-3.51825 9.01537,3.14277 13.72645,17.31973 8.24604,24.81464 -1.73336,2.37051 -1.95565,1.71225 -1.47263,-4.36088 0.48061,-6.04283 -0.15938,-7.9679 -4.12416,-12.40524 -3.74531,-4.19171 -6.01868,-5.28719 -11.25726,-5.42456 -11.89073,-0.31178 -23.35134,11.7325 -23.53071,24.72909 -0.0549,3.97616 -0.83997,6.09319 -2.25965,6.09319 -1.64226,0 -1.94239,-1.8208 -1.22435,-7.42778 z m 18.76513,6.24544 c -4.07482,-1.58042 -5.1007,-9.13971 -1.70163,-12.53878 2.66134,-2.66134 8.58624,-2.44645 10.94608,0.39698 4.8264,5.81546 -2.10001,14.91272 -9.24445,12.1418 z m 6.07728,-7.19078 c 0,-1.337 -1.05088,-2.43092 -2.33527,-2.43092 -2.70746,0 -4.53511,2.31306 -3.0227,3.82548 1.93688,1.93687 5.35797,1.04644 5.35797,-1.39456 z M 100.954,240.64616 C 87.671995,232.67713 75.19694,220.73679 66.096535,207.28276 55.429652,191.51288 39.458126,172.31292 38.379014,173.96253 c -0.540796,0.82672 -2.573487,2.34012 -4.517078,3.36311 -2.830271,1.48969 -4.040199,1.35363 -6.077266,-0.68343 -3.666472,-3.66648 -3.142692,-6.70641 1.70251,-9.88111 7.707092,-5.04988 13.439655,-0.0815 35.45884,30.73202 19.931065,27.89142 26.417161,34.46673 42.0639,42.64251 8.65153,4.52063 11.20607,7.13154 6.95938,7.11297 -1.11417,-0.005 -6.97105,-2.97597 -13.0153,-6.60244 z m -32.624239,1.9801 c -1.089063,-1.76212 0.971893,-4.34045 5.287219,-6.61456 2.986774,-1.57398 3.659649,-3.02585 3.11673,-6.72502 -0.380827,-2.59472 -0.178736,-4.71768 0.449085,-4.71768 2.67604,0 4.962907,5.03281 4.48499,9.87032 -0.434175,4.39471 -1.471168,5.54938 -6.557402,7.30142 -3.322917,1.14467 -6.374191,1.54315 -6.780622,0.88552 z m 37.131359,-5.52942 C 93.588012,230.73215 82.292594,219.60922 71.026852,203.18846 l -8.504592,-12.39619 4.782128,-1.05033 c 2.630177,-0.57769 6.557822,-2.44708 8.728086,-4.15421 l 3.945945,-3.10388 7.879541,14.15501 c 5.041214,9.05616 11.852598,18.14819 18.90922,25.24059 6.06635,6.09707 10.80661,12.19882 10.53394,13.55945 -1.04432,5.21116 -26.934125,-17.80372 -35.471517,-31.5326 -2.716716,-4.36873 -5.530475,-4.93074 -3.237724,-0.64669 3.294024,6.15493 25.116801,28.05279 31.943741,32.05364 3.89403,2.28205 7.08004,4.80914 7.08004,5.61578 0,2.29797 -1.74562,1.7476 -12.15454,-3.83219 z m 119.11443,-4.09592 c 0,-2.84547 12.67132,-13.43422 16.33861,-13.65333 9.26928,-0.55381 12.62509,0.395 13.73196,3.88247 1.39423,4.39279 -2.77497,7.82136 -9.51089,7.82136 -4.0724,0 -4.45789,-0.3526 -2.70052,-2.47008 3.64487,-4.39178 0.81291,-4.002 -6.58601,0.9065 -7.13636,4.73434 -11.27315,6.0235 -11.27315,3.51308 z M 110.24502,222.70356 c -8.36361,-7.70931 -15.696135,-17.4786 -23.425754,-31.21064 -5.078617,-9.02241 -5.185432,-9.52356 -1.843502,-8.64963 5.035703,1.31686 13.909631,-1.47952 19.426666,-6.12181 l 4.7141,-3.96663 0.98142,4.90715 c 1.66204,8.31017 10.75555,29.58029 15.05779,35.22084 3.2832,4.30448 3.69789,5.80996 2.12311,7.70746 -1.07637,1.29696 -2.53491,2.35809 -3.2412,2.35809 -2.01026,0 -12.53859,-15.02935 -17.81076,-25.4251 -2.62692,-5.17984 -4.78546,-8.48206 -4.79674,-7.33826 -0.0337,3.41014 7.28818,16.79534 14.26998,26.08727 5.91311,7.86957 7.25016,13.15852 3.32654,13.15852 -0.81589,0 -4.76763,-3.02728 -8.78165,-6.72726 z m 52.41448,-4.21755 c -3.51754,-4.07081 0.0429,-23.04437 6.99239,-37.26225 6.73978,-13.78889 7.13792,-14.93711 3.79503,-10.94501 -5.77066,6.89138 -10.14107,19.12173 -14.6462,40.98655 -1.3378,6.49275 -3.91223,2.08758 -3.88302,-6.64435 0.041,-12.24736 4.05251,-29.27564 9.77496,-41.49302 4.45145,-9.50377 5.1885,-10.31999 6.71347,-7.43462 2.61254,4.94314 6.31071,7.29272 11.4785,7.29272 2.57793,0 4.43879,0.54696 4.13528,1.21546 -0.30351,0.6685 -2.87238,5.66474 -5.7086,11.10274 -6.88299,13.19713 -11.83631,28.28364 -11.83631,36.05038 0,7.826 -3.26409,11.24138 -6.8155,7.1314 z m 82.17361,-1.82821 c -3.4023,-0.70129 -4.86182,-1.95321 -4.86182,-4.17028 0,-1.98587 -1.41475,-3.5021 -3.79114,-4.0631 -3.74136,-0.88322 -3.70564,-1.00125 2.71941,-8.98639 3.5808,-4.45028 9.82874,-10.27924 13.88429,-12.95324 4.05557,-2.67399 7.38977,-5.43442 7.40937,-6.13427 0.082,-2.92767 -8.0371,3.32347 -19.46937,14.99008 -11.86574,12.109 -19.38951,16.82007 -19.38951,12.14086 0,-1.20926 -1.07726,-2.80152 -2.39392,-3.53836 -5.05772,-2.83044 19.01276,-27.58335 38.04722,-39.12597 3.11966,-1.89177 4.67083,-3.44232 3.44701,-3.44564 -5.83623,-0.0159 -35.32734,25.68955 -43.99157,38.34452 -1.32081,1.92917 -4.77594,3.99356 -7.67808,4.58754 -5.15253,1.05458 -5.23862,0.98003 -3.66067,-3.17026 4.67483,-12.29573 28.60941,-40.10895 39.25138,-45.61213 2.65656,-1.37376 4.41091,-2.91694 3.89856,-3.4293 -3.38862,-3.38862 -30.72295,23.82216 -39.88476,39.7045 -4.90507,8.5031 -6.27436,9.79501 -10.12555,9.55334 -2.4494,-0.1537 -4.4549,-0.50268 -4.45667,-0.77551 -0.002,-0.27283 2.14204,-4.81984 4.76403,-10.10449 6.17203,-12.43979 12.64914,-21.7712 23.83539,-34.33901 6.25083,-7.02283 5.0512,-6.07459 -3.88431,3.07033 -10.16393,10.40212 -14.44874,16.35026 -20.03879,27.81758 -6.50799,13.35039 -8.35632,15.52645 -16.49961,19.4252 -2.42759,1.16227 0.89393,-8.62748 7.56935,-22.30969 5.06247,-10.37623 9.97525,-17.16014 20.27314,-27.99465 7.47532,-7.86485 15.67963,-15.53324 18.2318,-17.04084 2.55215,-1.50759 4.64028,-3.35843 4.64028,-4.11297 0,-2.76353 -15.2958,9.68674 -26.11418,21.2561 -11.75655,12.57266 -24.8781,35.67146 -26.72165,47.04007 -0.59666,3.67938 -2.51476,7.05756 -5.10851,8.9972 l -4.15311,3.10576 1.03663,-7.56309 c 1.46996,-10.72446 9.13601,-29.58894 16.60373,-40.85809 8.56706,-12.92812 25.18971,-30.33223 37.12349,-38.86872 14.22852,-10.17797 18.55692,-15.39667 22.76983,-27.45327 5.00295,-14.317562 8.02583,-18.685802 12.93083,-18.685802 5.8783,0 7.03054,6.62303 2.7022,15.53204 -4.26655,8.781842 -2.07249,10.625672 3.67591,3.089132 5.15913,-6.763982 8.55844,-7.214062 10.03556,-1.328762 0.89191,3.553662 0.18993,5.075192 -3.92529,8.508162 -22.52509,18.7908 -25.81659,23.17787 -21.39071,28.51073 2.74096,3.30265 7.82227,3.02093 15.42515,-0.85526 3.52239,-1.79581 7.32295,-2.91261 8.44569,-2.48176 2.51955,0.96684 2.67247,12.32214 0.2819,20.93176 -1.2446,4.48242 -1.24204,6.77093 0.009,8.02199 2.46051,2.46051 2.17627,9.21136 -0.73524,17.46349 -2.76333,7.83208 -7.51154,13.61549 -13.91377,16.9472 -3.41233,1.77576 -4.08121,3.06525 -3.41036,6.57456 0.91519,4.78759 -3.86053,15.35596 -6.78021,15.00416 -0.9738,-0.11734 -3.95838,-0.66429 -6.63237,-1.21545 z m -117.02176,-3.83818 c -4.37783,-4.78779 -8.07735,-12.24557 -13.0167,-26.24 -3.34507,-9.47744 -4.18098,-15.46037 -4.87456,-34.88919 l -0.83714,-23.45013 5.94335,5.21834 c 5.02625,4.4131 7.21415,5.21833 14.17889,5.21833 8.14582,0 8.22468,0.0486 7.23741,4.45666 -4.38851,19.59421 -4.13103,47.05383 0.59567,63.52586 1.18854,4.14196 1.08465,5.91763 -0.40121,6.85734 -4.91867,3.11074 -10.10886,-12.37629 -12.51648,-37.34797 -0.91389,-9.47889 -1.90538,-19.78679 -2.2033,-22.90645 -0.29794,-3.11966 -0.65325,-0.56722 -0.7896,5.67211 -0.31752,14.53032 3.28261,38.10607 7.48609,49.02329 1.80176,4.67949 3.10848,8.50817 2.90381,8.50817 -0.20466,0 -1.87247,-1.64086 -3.70623,-3.64636 z m 10.77863,-7.29272 c -4.08183,-13.29042 -3.4032,-60.65221 0.93117,-64.98657 0.4676,-0.46759 2.88315,1.58508 5.36794,4.56144 3.93858,4.71778 5.70885,5.51035 13.80787,6.18199 5.10956,0.42373 9.04111,1.22458 8.73679,1.77967 -8.63721,15.75559 -14.08752,35.09126 -14.13666,50.15138 -0.0239,7.33398 -0.4532,8.54585 -2.8642,8.08546 -4.29105,-0.81939 -4.67919,-21.75318 -0.71376,-38.49663 1.68713,-7.12359 2.50336,-12.60336 1.81388,-12.17724 -2.56947,1.58803 -6.36708,23.72651 -6.36708,37.1174 0,11.04064 -0.47903,13.86037 -2.35474,13.86037 -1.3088,0 -3.18379,-2.69942 -4.22121,-6.07727 z M 60.338641,185.95566 c -2.538855,-2.80542 -2.445005,-2.92575 1.796262,-2.30326 3.204081,0.47026 6.244967,-0.74974 10.706699,-4.29548 5.16741,-4.10655 6.793039,-4.65181 9.519073,-3.19288 5.237988,2.80329 14.174682,0.43472 20.126935,-5.33445 4.99241,-4.83884 5.40442,-4.97204 5.40442,-1.74736 0,5.68258 -12.89641,12.34236 -21.929026,11.32425 -5.228297,-0.5893 -7.740234,-0.13516 -9.237219,1.67004 -1.696173,2.04537 -10.876391,6.83919 -13.097138,6.83919 -0.336162,0 -1.816649,-1.33203 -3.290006,-2.96005 z m -1.875038,-5.40485 c -1.782666,-0.91471 -6.024501,-5.96109 -9.426279,-11.21417 -3.401794,-5.25305 -10.876832,-15.91718 -16.611195,-23.69806 -5.734379,-7.78086 -10.426126,-14.60106 -10.426126,-15.156 0,-1.87465 8.220144,-4.77045 13.541641,-4.77045 2.907364,0 6.701733,1.07072 8.431924,2.37937 3.998144,3.02403 5.57671,3.07941 5.57671,0.19559 0,-1.25776 2.243775,-4.17483 4.986162,-6.48241 5.387214,-4.53305 12.638673,-5.42438 20.33244,-2.49922 3.98633,1.5156 4.863159,1.18348 8.228684,-3.11686 4.524582,-5.78135 11.413366,-7.60609 19.116746,-5.06376 l 5.67772,1.87381 0,24.86936 c 0,24.10876 -0.12291,25.01541 -4.01869,29.64529 -5.782948,6.87264 -12.610279,9.34897 -19.741425,7.16035 -5.193568,-1.59396 -6.334003,-1.31553 -12.29327,3.00134 -7.084018,5.13163 -8.419218,5.41873 -13.375042,2.87582 z m 11.644933,-11.36485 c 2.062949,-1.93805 3.704585,-5.03745 3.648075,-6.88757 -0.09367,-3.06777 -0.240141,-3.02019 -1.663855,0.54062 -3.003531,7.51196 -12.493612,10.8523 -17.683533,6.22429 -1.932619,-1.72337 -1.951387,-1.6024 -0.125694,0.8103 2.996707,3.96024 11.259748,3.6012 15.825007,-0.68764 z m -3.947063,-10.6943 c 1.559832,-1.36972 2.813888,-3.65359 2.786775,-5.07528 -0.03813,-1.99997 -0.465178,-1.85146 -1.887242,0.65633 -1.0109,1.78266 -2.629577,3.777 -3.597094,4.43185 -2.749063,1.86068 -9.819939,1.44451 -11.968908,-0.70446 -1.512559,-1.51255 -1.944726,-1.50095 -1.944726,0.0522 0,2.65594 6.471818,5.12199 10.533929,4.0139 1.782664,-0.48627 4.517434,-2.00483 6.077266,-3.37455 z m 33.509915,-1.3963 c 1.847362,-2.34853 3.329632,-5.0833 3.293942,-6.07726 -0.0357,-0.99397 -1.14802,0.18903 -2.47187,2.62886 -2.879137,5.30625 -9.094204,7.22587 -14.871821,4.59342 -3.73303,-1.70089 -3.970075,-1.63306 -2.11296,0.60462 3.438242,4.14283 12.280616,3.18563 16.162709,-1.74964 z m -37.480396,-7.39828 c 1.0696,-1.0696 1.944726,-3.47619 1.944726,-5.348 0,-4.78919 -3.059864,-7.29272 -8.913325,-7.29272 -2.76313,0 -5.899,0.87513 -6.968598,1.94472 -2.499783,2.49979 -2.499783,8.19621 0,10.696 2.512082,2.51208 11.425131,2.51208 13.937197,0 z m 32.736206,-1.29649 c 1.782665,-1.78266 3.238486,-4.51743 3.235148,-6.07726 -0.004,-1.88776 -1.079825,-1.07493 -3.217386,2.4309 -3.143487,5.15568 -8.479277,6.99959 -10.551691,3.64636 -0.550875,-0.89133 -1.777122,-1.6206 -2.724981,-1.6206 -1.086761,0 -0.978116,0.898 0.294075,2.43091 2.835004,3.41597 9.132139,3.02239 12.964835,-0.81031 z m 0.225621,-9.62209 c 3.111042,-2.55305 3.491722,-3.68855 2.037407,-6.07727 -2.468131,-4.05396 -9.825319,-6.50331 -13.179322,-4.38766 -5.586045,3.52359 -6.36494,7.10786 -2.274161,10.46493 2.104257,1.72682 5.12286,3.13968 6.708038,3.13968 1.585178,0 4.603781,-1.41286 6.708038,-3.13968 z m 79.301621,18.31686 c -1.84736,-2.34853 -3.35883,-4.81333 -3.35883,-5.47733 0,-0.664 -4.5075,-1.5333 -10.01667,-1.93181 -9.22969,-0.66761 -10.44191,-1.21645 -15.42874,-6.98537 -5.01684,-5.80363 -5.97438,-6.23098 -13.11222,-5.85215 -4.23508,0.22479 -9.59744,-0.31265 -11.91636,-1.1943 -5.98634,-2.276 -11.73256,-12.09897 -10.33499,-17.6673 1.03884,-4.13909 1.19569,-4.20412 2.81094,-1.16539 5.77386,10.86222 15.25844,15.41372 25.96138,12.45851 5.44496,-1.50342 5.79611,-1.3405 8.26364,3.83398 3.98006,8.34625 9.29752,11.03395 19.70494,9.9598 7.69797,-0.79449 8.91337,-0.51967 9.78018,2.2114 1.18534,3.73462 6.11489,6.62419 13.42932,7.87191 l 5.36631,0.9154 -3.40367,3.64636 c -4.89232,5.24115 -13.36623,4.9433 -17.74523,-0.62371 z m 9.94451,-7.14931 c -2.04215,-0.81967 -4.59461,-3.58248 -5.67212,-6.13958 -1.57702,-3.74251 -2.59124,-4.40224 -5.20032,-3.38268 -11.04069,4.31441 -21.9331,-0.0131 -25.45384,-10.11269 -1.12047,-3.21416 -2.48273,-4.46979 -4.29922,-3.96269 -14.41426,4.02413 -22.16914,1.56196 -28.33751,-8.99714 -3.86801,-6.62134 -4.17561,-8.84493 -5.23259,-37.826362 -0.80191,-21.987842 -1.93169,-33.43127 -3.95148,-40.024375 l -2.82849,-9.232875 4.8147,-1.057494 c 12.76607,-2.803904 33.5157,5.703686 45.71187,18.742372 4.78204,5.112391 8.90621,8.073608 11.24434,8.073608 6.79135,0 19.88626,4.779097 26.78191,9.774287 7.96954,5.773097 15.11682,16.341927 17.98914,26.600877 1.71806,6.13628 2.90484,7.54545 7.68259,9.122252 4.3805,1.44569 6.36196,3.47299 8.8153,9.01913 3.85686,8.71911 2.99796,11.91699 -4.78728,17.82381 -3.30754,2.50953 -10.55328,8.77308 -16.10162,13.91904 -10.22173,9.48037 -13.59811,10.70184 -21.17538,7.66051 z m 13.43663,-9.64848 c 2.5583,-1.09933 1.87539,-1.42203 -3.24121,-1.53152 -7.76015,-0.16606 -9.85971,-1.32664 -11.97109,-6.61725 -1.44763,-3.62747 -1.6083,-3.68513 -1.70132,-0.61058 -0.10344,3.41893 3.49892,7.57511 8.00029,9.23025 3.36605,1.23766 5.15755,1.14302 8.91333,-0.4709 z m 4.72926,-9.08671 c 1.40991,-0.54103 2.56346,-1.57159 2.56346,-2.29012 0,-0.71857 -2.20637,-0.47364 -4.90304,0.54422 -6.15471,2.32316 -10.2846,0.0934 -11.0055,-5.94204 -0.56962,-4.76892 -3.53871,-5.95412 -3.53871,-1.4126 0,7.71373 8.52428,12.30839 16.88379,9.10054 z m 1.50898,-11.88832 c 5.4013,-2.05356 7.00791,-7.5447 3.38029,-11.55319 -5.91026,-6.53077 -18.61824,-1.33271 -16.1045,6.58735 0.889,2.80099 3.31544,4.64571 8.40622,6.39089 0.16482,0.0565 2.10791,-0.58476 4.31799,-1.42505 z m -34.49228,-1.77044 c 1.72407,-0.92269 3.13467,-2.4226 3.13467,-3.33311 0,-0.91051 -1.62082,-0.52022 -3.60181,0.86733 -3.78995,2.65457 -10.5601,3.29378 -13.58412,1.28252 -0.9846,-0.65485 -2.96091,-3.37846 -4.39178,-6.05245 -1.53155,-2.86213 -2.62828,-3.78523 -2.66648,-2.24431 -0.0357,1.43964 1.44659,4.53904 3.29395,6.88757 3.63136,4.61652 11.80985,5.80661 17.81557,2.59245 z m 3.41221,-10.7281 c 1.63002,-1.47514 2.96367,-3.29832 2.96367,-4.05151 0,-0.75317 -1.45855,0.0891 -3.24121,1.87179 -5.92206,5.92205 -12.53047,3.62995 -14.58139,-5.057472 -1.28647,-5.44927 -1.29371,-5.45296 -1.45877,-0.74225 -0.32205,9.190792 9.6116,14.048392 16.3177,7.979442 z m -33.18515,-12.776372 4.54702,-4.11423 -5.67211,3.29787 c -7.5116,4.36738 -10.43413,4.16792 -14.4905,-0.98893 -1.85986,-2.36442 -3.81329,-3.86715 -4.34103,-3.33943 -1.81071,1.81071 7.33957,9.25895 11.37477,9.25895 2.21915,0 6.08098,-1.85141 8.58185,-4.11423 z m 39.37256,0.0838 c 2.98011,-3.59082 0.67411,-10.32842 -3.93054,-11.48412 -5.59094,-1.40323 -9.12186,-0.36099 -11.63781,3.43521 -1.87293,2.82593 -1.82805,3.84449 0.3034,6.88757 2.95583,4.22001 12.14621,4.9192 15.26495,1.16134 z m -38.65143,-12.35175 3.82589,-3.41738 -4.39964,2.60708 c -6.27045,3.71564 -10.56594,3.23821 -15.125,-1.68108 -2.18577,-2.35848 -3.97412,-3.50534 -3.97412,-2.54853 0,2.77462 8.19316,8.45728 12.19354,8.45728 2.00939,0 5.37508,-1.53782 7.47933,-3.41737 z m -0.11908,-9.60448 c 4.45736,-2.385507 4.00525,-9.021461 -0.83049,-12.189969 -7.97863,-5.227794 -17.99417,4.64159 -11.40107,11.234679 3.01802,3.01802 7.69483,3.38328 12.23156,0.95529 z m 89.94615,43.014832 c -1.27457,-6.79404 -7.62772,-14.70611 -12.86382,-16.020282 -3.65994,-0.9186 -3.777,-1.34931 -2.3604,-8.68507 1.53329,-7.93994 0.92658,-16.50231 -2.13136,-30.080036 -1.51487,-6.726238 -1.36485,-8.203127 1.11118,-10.93908 3.739,-4.131569 11.4428,-4.147564 13.64735,-0.02834 0.92268,1.724065 1.67762,6.099696 1.67762,9.723627 0,8.536939 2.37727,8.463834 4.2264,-0.129989 1.70101,-7.905389 5.56012,-11.176742 9.41289,-7.97924 3.55645,2.951607 3.20921,7.43005 -1.45381,18.749696 -4.92884,11.965012 -5.23377,22.538402 -0.84125,29.170892 1.77091,2.673982 3.22466,6.039682 3.23053,7.479312 0.0129,3.16672 -5.60551,10.58 -9.66501,12.75258 -2.51629,1.34668 -3.0936,0.76593 -3.99032,-4.01406 z m -126.71255,-5.65717 c -3.15891,-1.27589 -3.49511,-2.8941 -4.148697,-19.969282 -0.810805,-21.18253 -2.710186,-25.766879 -12.343398,-29.791893 -7.360559,-3.075438 -18.584052,-2.017053 -24.417029,2.302538 -11.103003,8.222299 -14.79709,21.816995 -8.205411,30.196965 2.868891,3.64722 4.582729,4.26255 11.749382,4.21853 7.521318,-0.0462 8.081999,-0.28535 5.41209,-2.30855 -4.474555,-3.39071 -2.822008,-8.17385 2.824029,-8.17385 6.282256,0 8.580435,3.88544 5.992994,10.13209 -6.96808,16.822402 -36.584897,6.744162 -36.544026,-12.4355 0.01799,-8.43541 6.601516,-20.736618 13.945188,-26.056349 15.346164,-11.116715 39.462541,-6.442357 45.982328,8.912514 1.85055,4.358291 5.30265,44.714967 3.80341,44.463887 -0.33736,-0.0565 -2.16025,-0.72749 -4.05086,-1.4911 z"
     style="fill:#000000;fill-opacity:1"
     inkscape:connector-curvature="0" />
</svg>
