<?xml version="1.0" encoding="UTF-8" standalone="no"?>
<!-- Created with Inkscape (http://www.inkscape.org/) -->
<svg
   xmlns:dc="http://purl.org/dc/elements/1.1/"
   xmlns:cc="http://creativecommons.org/ns#"
   xmlns:rdf="http://www.w3.org/1999/02/22-rdf-syntax-ns#"
   xmlns:svg="http://www.w3.org/2000/svg"
   xmlns="http://www.w3.org/2000/svg"
   xmlns:sodipodi="http://sodipodi.sourceforge.net/DTD/sodipodi-0.dtd"
   xmlns:inkscape="http://www.inkscape.org/namespaces/inkscape"
   width="494"
   height="499"
   id="svg2"
   sodipodi:version="0.32"
   inkscape:version="0.46"
   version="1.0"
   sodipodi:docname="cir.svg"
   inkscape:output_extension="org.inkscape.output.svg.inkscape"
   inkscape:export-filename="/Users/xavid/Downloads/rw.png"
   inkscape:export-xdpi="90"
   inkscape:export-ydpi="90">
  <defs
     id="defs4">
    <inkscape:perspective
       sodipodi:type="inkscape:persp3d"
       inkscape:vp_x="0 : 526.18109 : 1"
       inkscape:vp_y="0 : 1000 : 0"
       inkscape:vp_z="744.09448 : 526.18109 : 1"
       inkscape:persp3d-origin="372.04724 : 350.78739 : 1"
       id="perspective10" />
    <inkscape:perspective
       id="perspective2467"
       inkscape:persp3d-origin="372.04724 : 350.78739 : 1"
       inkscape:vp_z="744.09448 : 526.18109 : 1"
       inkscape:vp_y="0 : 1000 : 0"
       inkscape:vp_x="0 : 526.18109 : 1"
       sodipodi:type="inkscape:persp3d" />
    <inkscape:perspective
       id="perspective2582"
       inkscape:persp3d-origin="372.04724 : 350.78739 : 1"
       inkscape:vp_z="744.09448 : 526.18109 : 1"
       inkscape:vp_y="0 : 1000 : 0"
       inkscape:vp_x="0 : 526.18109 : 1"
       sodipodi:type="inkscape:persp3d" />
  </defs>
  <sodipodi:namedview
     id="base"
     pagecolor="#ffffff"
     bordercolor="#666666"
     borderopacity="1.0"
     gridtolerance="10000"
     guidetolerance="10"
     objecttolerance="10"
     inkscape:pageopacity="0.0"
     inkscape:pageshadow="2"
     inkscape:zoom="0.70710678"
     inkscape:cx="282.81646"
     inkscape:cy="243.51218"
     inkscape:document-units="px"
     inkscape:current-layer="layer1"
     showgrid="false"
     inkscape:window-width="1267"
     inkscape:window-height="713"
     inkscape:window-x="43"
     inkscape:window-y="3"
     borderlayer="true" />
  <metadata
     id="metadata7">
    <rdf:RDF>
      <cc:Work
         rdf:about="">
        <dc:format>image/svg+xml</dc:format>
        <dc:type
           rdf:resource="http://purl.org/dc/dcmitype/StillImage" />
      </cc:Work>
    </rdf:RDF>
  </metadata>
  <g
     inkscape:label="Layer 1"
     inkscape:groupmode="layer"
     id="layer1"
     transform="translate(-158.71428,-42.862183)">
    <rect
       style="opacity:1;fill:#ffffff;fill-opacity:1;stroke:#ffffff;stroke-width:23;stroke-linecap:square;stroke-miterlimit:4;stroke-dasharray:none;stroke-dashoffset:0;stroke-opacity:1"
       id="rect2475"
       width="551.42859"
       height="548.57141"
       x="129.99998"
       y="18.076477" />
    <path
       style="fill:#000000"
       d="M 222.67588,398.38984 C 207.48019,374.22051 196.14645,331.49557 195.06857,294.31794 C 195.15069,229.95365 220.80055,169.49859 271.56584,129.32589 C 278.64808,123.72682 284.86206,117.38148 293.05092,112.95241 C 302.60247,105.63987 313.64386,103.17323 324.10281,98.001064 C 386.44924,69.874363 448.80359,79.434713 507.49781,108.8152 C 527.00809,118.24815 550.14369,137.38126 572.70053,162.7378 C 584.87268,179.92413 596.06744,199.05719 603.90832,218.67162 C 605.42526,224.6769 607.992,232.44592 609.61222,235.93614 C 613.41712,244.13254 613.66151,246.15503 615.65774,285.96535 C 617.04593,313.65044 616.53148,323.05318 612.70654,339.90506 C 599.42782,391.15009 569.72431,437.53885 526.3928,468.19417 C 503.22114,488.40623 472.00099,488.68544 445.3085,499.92341 C 357.38439,516.85083 268.68665,473.02638 222.67588,398.38984 z M 394.54172,488.25938 C 388.95737,486.155 378.6771,482.44923 371.69667,480.02433 C 364.71623,477.59945 354.43596,472.80341 348.85161,469.36648 C 312.75712,444.38833 289.49443,409.0844 287.08095,365.26766 C 286.22604,352.04769 291.94604,340.87872 295.57832,328.58552 C 303.37752,301.08446 328.86684,282.04692 359.00497,281.21318 C 371.97027,280.85451 392.2032,287.15416 399.16947,293.71864 C 415.00802,308.64369 419.50204,319.14033 419.5254,341.26383 C 419.54403,358.90217 418.67252,362.92391 412.92173,371.73728 C 402.76325,387.30568 395.80147,392.38314 379.66157,395.9951 L 364.83635,399.31283 L 366.27282,408.16471 C 372.46614,432.12127 391.66393,452.53521 413.57926,463.07261 C 417.06948,464.12803 424.63266,467.10154 430.38632,469.68039 C 444.68311,476.08835 475.34812,477.80427 488.46027,472.93002 C 494.04461,470.85412 502.2123,468.06032 506.61069,466.72158 C 517.71379,460.2928 528.498,452.31841 538.39376,443.57748 C 542.60431,439.81092 546.79881,436.38416 547.71488,435.96247 C 559.88235,422.04511 573.37002,406.83726 581.76768,390.00492 C 590.81851,378.93538 593.53807,364.41595 598.55992,347.54346 C 605.03065,303.86697 612.1429,249.56476 588.97723,209.02621 C 583.30384,199.64106 578.9618,188.63018 572.14723,180.01919 C 564.619,172.94677 564.41344,174.10032 570.67631,188.27438 C 581.60252,213.00237 587.50893,250.29776 584.03386,272.61889 C 578.27612,309.60191 548.94226,350.3453 522.72785,357.77012 C 511.06897,361.07232 497.70749,360.96861 477.31625,357.41762 C 461.96633,354.74455 459.64364,353.4422 447.28285,340.57762 C 418.02712,312.84781 425.42498,267.96465 455.46186,243.94962 C 465.92319,238.14216 475.59368,235.08904 487.81119,234.04406 C 505.10847,232.98141 506.92338,233.3877 517.65117,240.72403 C 530.53344,249.53372 531.99725,249.90421 536.34263,245.45491 C 544.41983,237.18452 549.75913,204.18844 545.68707,187.70769 C 542.10634,173.21555 534.02008,152.58777 530.03242,147.7733 C 527.9886,145.3057 524.72823,140.11457 522.78717,136.23743 C 519.79794,130.26675 508.64768,121.39851 492.26778,111.96419 C 484.77077,107.64614 455.1434,98.33681 437.69348,94.816159 C 400.97862,89.681277 362.18952,92.939362 328.37031,108.71161 C 324.08603,111.32419 317.80364,114.33205 314.40945,115.39572 C 311.01526,116.45941 303.46337,120.59997 297.62747,124.59697 C 290.40384,129.06916 283.46225,133.039 277.25771,138.84466 C 273.2665,142.6839 266.61067,148.85912 262.46701,152.56738 C 244.98559,170.67214 228.59018,183.92006 224.38182,209.3894 C 226.64457,211.61877 226.97133,208.06096 229.76876,204.2069 C 231.79539,201.41472 235.14526,197.11823 237.21289,194.65911 C 247.93578,177.71933 265.83117,165.0024 283.02723,154.70928 C 283.80619,154.70928 290.36846,151.95976 297.61003,148.59925 C 329.9074,133.61132 337.15855,131.94277 360.27414,134.17963 C 397.73792,137.80491 423.85987,150.56661 435.60753,170.98324 C 444.63447,186.67139 447.18997,195.21892 447.28033,210.02576 C 447.84859,229.52701 438.59952,245.77149 423.91457,258.1466 C 405.75737,276.01842 377.39262,270.64597 354.69837,264.88607 C 332.61467,254.8326 319.56916,232.29735 315.34907,209.28358 C 313.79568,199.76067 314.23281,200.13614 302.92519,198.6123 C 219.33547,203.21641 199.22358,268.23617 210.1757,340.00804 C 217.92568,368.00973 219.16492,371.90253 221.19501,374.62281 C 222.3794,376.20986 225.98079,382.49225 229.19814,388.58368 C 243.35402,415.38522 242.1907,413.81038 262.54808,433.73198 C 295.12102,467.59525 339.29365,481.923 384.38836,490.67007 C 402.53508,492.76159 404.96071,492.18566 394.54172,488.25938 z"
       id="path2592"
       sodipodi:nodetypes="ccccccccsscccccscccssssccccsscccccccsssscccssssssccsccccsccsssccccccssccc" />
  </g>
</svg>

