<?xml version="1.0" encoding="UTF-8" standalone="no"?>
<!-- Created with Inkscape (http://www.inkscape.org/) -->
<svg
   xmlns:dc="http://purl.org/dc/elements/1.1/"
   xmlns:cc="http://creativecommons.org/ns#"
   xmlns:rdf="http://www.w3.org/1999/02/22-rdf-syntax-ns#"
   xmlns:svg="http://www.w3.org/2000/svg"
   xmlns="http://www.w3.org/2000/svg"
   xmlns:sodipodi="http://sodipodi.sourceforge.net/DTD/sodipodi-0.dtd"
   xmlns:inkscape="http://www.inkscape.org/namespaces/inkscape"
   id="svg2"
   sodipodi:version="0.32"
   inkscape:version="0.46"
   width="204.21353"
   height="238.32832"
   version="1.0"
   sodipodi:docname="n_knot.svg"
   inkscape:output_extension="org.inkscape.output.svg.inkscape">
  <metadata
     id="metadata7">
    <rdf:RDF>
      <cc:Work
         rdf:about="">
        <dc:format>image/svg+xml</dc:format>
        <dc:type
           rdf:resource="http://purl.org/dc/dcmitype/StillImage" />
      </cc:Work>
    </rdf:RDF>
  </metadata>
  <defs
     id="defs5">
    <inkscape:perspective
       sodipodi:type="inkscape:persp3d"
       inkscape:vp_x="0 : 526.18109 : 1"
       inkscape:vp_y="0 : 1000 : 0"
       inkscape:vp_z="744.09448 : 526.18109 : 1"
       inkscape:persp3d-origin="372.04724 : 350.78739 : 1"
       id="perspective9" />
  </defs>
  <sodipodi:namedview
     inkscape:window-height="756"
     inkscape:window-width="1222"
     inkscape:pageshadow="2"
     inkscape:pageopacity="1"
     guidetolerance="10.0"
     gridtolerance="10.0"
     objecttolerance="10.0"
     borderopacity="1.0"
     bordercolor="#666666"
     pagecolor="#ffffff"
     id="base"
     showgrid="false"
     inkscape:zoom="0.73020528"
     inkscape:cx="257.77399"
     inkscape:cy="159.56696"
     inkscape:window-x="-1"
     inkscape:window-y="0"
     inkscape:current-layer="svg2"
     showguides="true"
     inkscape:guide-bbox="true"
     borderlayer="true" />
  <rect
     style="opacity:1;fill:#ffffff;fill-opacity:1;stroke:#ffffff;stroke-width:0.5;stroke-linecap:square;stroke-miterlimit:4;stroke-dasharray:none;stroke-dashoffset:0;stroke-opacity:1"
     id="rect2401"
     width="1463.9719"
     height="909.33331"
     x="-644.2915"
     y="-621.26898" />
  <path
     style="fill:#000000"
     d="M 54.775906,237.62972 C 53.675906,236.98352 50.786906,236.21342 48.355906,235.91832 C 45.829706,235.61162 43.736006,234.77782 43.469406,233.97242 C 43.125406,232.93262 43.497806,232.76722 44.889506,233.34152 C 46.906706,234.17392 47.257706,234.18182 51.588506,233.49202 C 53.422106,233.20002 54.590506,233.53792 54.945506,234.46292 C 55.555106,236.05152 59.837106,236.40082 60.742506,234.93572 C 61.064106,234.41542 63.095806,234.06022 65.257506,234.14642 C 67.419206,234.23262 69.480706,234.01022 69.838806,233.65222 C 70.196806,233.29412 70.629806,230.93252 70.801006,228.40402 C 70.982306,225.72642 72.406906,221.31912 74.213106,217.84872 C 79.598306,207.50132 78.835306,203.49112 71.565206,203.93162 C 64.919306,204.33432 63.603906,203.95192 59.869206,200.53102 C 56.718606,197.64522 56.418306,197.00842 57.704806,195.94072 C 58.526306,195.25892 59.499906,193.72922 59.868406,192.54142 C 60.236906,191.35362 61.490006,189.03172 62.653206,187.38172 C 63.816406,185.73172 64.669706,184.27392 64.549406,184.14222 C 64.429106,184.01052 64.505806,183.33552 64.719906,182.64222 C 66.820306,175.84022 69.229606,166.72082 69.676306,163.88172 C 69.979206,161.95672 71.369406,156.10672 72.765606,150.88172 C 74.161906,145.65672 75.422506,140.91642 75.567006,140.34782 C 75.711506,139.77922 77.102006,136.71352 78.657006,133.53532 C 80.212006,130.35702 81.296806,127.56922 81.067806,127.34022 C 80.838706,127.11122 77.679306,128.00172 74.046906,129.31932 C 70.414406,130.63682 67.190806,131.46322 66.883306,131.15582 C 66.575806,130.84832 65.684506,131.12772 64.902506,131.77672 C 62.355606,133.89042 42.230906,133.76252 29.579106,131.55222 C 26.140206,130.95142 21.275906,128.73002 21.275906,127.76042 C 21.275906,127.27712 20.574706,126.88172 19.717606,126.88172 C 16.541706,126.88172 7.5073062,118.48232 4.6590062,112.88172 C 3.1206062,109.85672 1.6176062,107.15672 1.3189062,106.88172 C 0.59510623,106.21522 0.30000623,103.67152 0.04270623,95.881719 C -0.14209377,90.283419 0.20080623,88.826819 2.5144062,85.381719 C 6.0904062,80.057019 7.8638062,77.881719 8.6286062,77.881719 C 8.9762062,77.881719 10.425206,76.869219 11.848406,75.631719 C 13.271706,74.394219 14.737606,73.438419 15.106006,73.507619 C 15.474506,73.576919 16.834106,72.801219 18.127406,71.783919 C 19.420706,70.766619 22.120706,69.638819 24.127406,69.277619 C 26.134106,68.916419 28.313306,68.195319 28.970106,67.675219 C 30.688806,66.314019 52.965506,66.379219 54.617506,67.750219 C 55.355806,68.363019 56.245206,68.579119 56.593806,68.230519 C 56.942406,67.881919 57.893806,68.149619 58.708006,68.825319 C 59.522206,69.501019 60.658006,69.763619 61.232106,69.408819 C 61.806206,69.054019 62.275906,69.134119 62.275906,69.586819 C 62.275906,70.039519 64.188406,71.291519 66.525906,72.368919 C 68.863406,73.446419 71.113406,74.490119 71.525906,74.688219 C 72.739906,75.271219 72.375406,72.596119 70.839806,69.652319 C 70.056706,68.151219 69.115506,64.551219 68.748306,61.652319 C 68.381206,58.753519 67.787206,55.931719 67.428306,55.381719 C 66.448706,53.880219 66.447206,34.893919 67.426706,34.288519 C 67.893806,33.999919 68.275906,32.382919 68.275906,30.695419 C 68.275906,27.448619 73.947806,14.881719 75.413206,14.881719 C 75.887706,14.881719 76.275906,14.423819 76.275906,13.864019 C 76.275906,11.490119 85.583806,4.0927192 89.526206,3.3335192 C 90.639206,3.1192192 92.275706,2.3136192 93.162906,1.5435192 C 95.049406,-0.09418076 113.84271,-0.62828076 114.80481,0.92841924 C 115.12881,1.4527192 116.24181,1.8817192 117.27791,1.8817192 C 119.88471,1.8817192 130.93821,12.337119 133.57851,17.300219 C 135.72281,21.331019 137.98611,28.019619 138.85101,32.881719 C 139.50601,36.564119 139.49511,57.718019 138.83771,58.781819 C 138.52751,59.283719 137.86401,62.324019 137.36321,65.538019 C 136.86251,68.752119 136.13551,72.394219 135.74771,73.631719 C 135.21621,75.327919 135.44051,75.881719 136.65931,75.881719 C 137.54841,75.881719 138.27591,75.506819 138.27591,75.048619 C 138.27591,73.776519 150.24921,67.881719 152.83311,67.881719 C 154.08501,67.881719 155.28241,67.362319 155.49401,66.727519 C 155.75471,65.945419 159.73051,65.555319 167.82731,65.517719 C 178.25111,65.469119 180.44591,65.759819 185.02591,67.795019 C 187.91341,69.078119 190.27591,70.522619 190.27591,71.004819 C 190.27591,71.487119 190.95481,71.881719 191.78461,71.881719 C 194.51241,71.881719 199.02121,76.922719 201.76811,83.043719 C 204.17351,88.403519 204.42771,90.005919 204.09671,97.721022 C 203.74721,105.86872 203.27701,107.60372 198.92401,116.80962 C 197.03781,120.79862 188.70711,128.73782 185.63641,129.47282 C 184.06311,129.84942 182.23311,130.58422 181.56971,131.10572 C 180.90631,131.62722 179.94481,131.79512 179.43301,131.47882 C 178.92131,131.16252 177.97151,131.54352 177.32251,132.32552 C 176.67351,133.10752 175.38501,133.73962 174.45921,133.73012 C 171.20811,133.69682 165.20661,134.61772 164.57791,135.24642 C 162.50551,137.31872 139.77221,134.90812 138.04121,132.43252 C 137.63721,131.85452 137.29971,131.70322 137.29121,132.09622 C 137.28281,132.48912 135.21361,131.92662 132.69301,130.84622 C 130.17241,129.76572 127.95391,128.88172 127.76311,128.88172 C 127.57221,128.88172 128.57461,131.69422 129.99071,135.13172 C 131.40681,138.56922 133.15281,143.85672 133.87081,146.88172 C 138.07611,164.60022 141.63641,176.05372 146.14901,186.38172 C 148.60151,191.99472 149.60761,193.33502 151.22671,193.14622 C 152.53311,192.99382 155.04641,194.75872 158.34661,198.14622 C 161.91271,201.80642 164.24901,203.39552 166.11171,203.42772 C 169.31881,203.48302 175.34991,206.03062 176.88151,207.97682 C 179.90051,211.81322 178.95131,218.63082 175.26391,219.59512 C 174.17051,219.88102 173.27591,220.88402 173.27591,221.82402 C 173.27591,224.31022 168.92461,228.06792 166.93141,227.30302 C 166.02091,226.95362 165.26161,227.05342 165.24411,227.52472 C 165.22661,227.99612 164.57591,229.22202 163.79811,230.24902 C 162.70161,231.69682 160.70471,232.21142 154.90731,232.54022 C 148.17651,232.92182 147.22461,232.74302 145.36571,230.74772 C 144.23001,229.52872 143.01731,226.92262 142.67071,224.95652 C 142.32281,222.98292 140.59551,219.81402 138.81431,217.88172 C 134.58001,213.28832 132.89181,208.78212 133.55441,203.84192 C 133.93641,200.99442 133.64361,199.39232 132.53971,198.28842 C 130.39021,196.13882 126.06851,189.67442 125.86811,188.30882 C 125.77721,187.68912 124.99071,186.09542 124.12051,184.76722 C 123.25021,183.43902 122.21741,180.89192 121.82541,179.10702 C 121.43341,177.32202 120.46881,174.57102 119.68191,172.99372 C 118.89511,171.41642 117.98271,168.15852 117.65441,165.75382 C 117.32601,163.34912 116.73591,160.93172 116.34281,160.38172 C 115.94981,159.83172 115.50651,157.35752 115.35771,154.88352 C 115.20891,152.40952 114.82581,149.96252 114.50651,149.44572 C 114.18711,148.92902 113.84031,146.21152 113.73581,143.40692 C 113.45001,135.73412 112.54291,133.90342 108.02431,131.88042 C 100.88731,128.68512 98.000606,131.14812 92.786206,144.88172 C 90.777006,150.17352 90.374006,151.86332 89.685406,157.88172 C 89.170706,162.38012 85.494406,180.04952 84.483906,182.88172 C 84.189506,183.70672 83.909806,184.68172 83.862306,185.04842 C 83.814806,185.41502 83.438406,186.05252 83.025906,186.46502 C 82.613406,186.87752 82.275906,187.80272 82.275906,188.52102 C 82.275906,189.23932 81.109206,192.29122 79.683206,195.30292 C 77.260906,200.41892 77.195206,200.92832 78.683206,203.05282 C 81.014406,206.38102 80.648706,209.86852 77.273906,216.49082 C 75.622706,219.73082 74.035306,224.40672 73.746206,226.88172 C 73.104306,232.37742 71.421406,236.82742 69.904606,237.03972 C 69.283806,237.12662 66.975906,237.27272 64.775906,237.36432 C 62.575906,237.45592 59.875906,237.81752 58.775906,238.16772 C 57.675906,238.51802 55.875906,238.27592 54.775906,237.62972 z M 153.83821,229.78102 C 154.22671,229.15242 155.76231,228.92902 157.41801,229.26012 C 160.35761,229.84802 164.27591,227.28452 164.27591,224.77332 C 164.27591,224.10212 165.22431,223.90292 166.67991,224.26822 C 168.70051,224.77542 169.25521,224.37982 170.15911,221.78692 C 170.75061,220.09032 172.36881,217.80992 173.75521,216.71932 C 176.53021,214.53662 177.01641,211.47932 174.92171,209.38462 C 172.76191,207.22482 166.65471,205.01622 163.73001,205.33732 C 161.49641,205.58252 160.59971,204.90012 158.40981,201.28852 C 156.96121,198.89952 155.01501,196.93072 154.08491,196.91332 C 153.15491,196.89592 152.11581,196.43172 151.77591,195.88172 C 150.65211,194.06342 149.23481,194.83712 147.11821,198.42442 C 145.11811,201.81442 144.84521,201.93962 140.78391,201.33062 C 136.85741,200.74182 136.49291,200.88102 135.91331,203.19032 C 134.87521,207.32672 136.30971,211.58212 139.97931,215.25182 C 142.16751,217.43992 143.81081,220.31592 144.41861,223.02112 C 144.94931,225.38342 146.14691,228.09172 147.07981,229.03952 C 149.01191,231.00262 152.82461,231.42092 153.83821,229.78102 z M 71.731306,202.26042 C 73.109706,201.73152 79.958206,188.95332 79.331806,188.07902 C 79.212606,187.91252 79.764006,186.78572 80.557306,185.57502 C 81.350606,184.36432 82.239106,181.80052 82.531706,179.87772 C 82.824306,177.95492 83.801206,173.90672 84.702606,170.88172 C 85.604006,167.85672 86.544506,163.35672 86.792606,160.88172 C 87.657606,152.25122 89.287606,146.33342 92.714506,139.38172 C 94.612506,135.53172 95.852706,132.09462 95.470606,131.74382 C 94.397706,130.75862 83.887906,129.87782 82.709106,130.67442 C 82.133406,131.06342 81.080006,132.95672 80.368206,134.88172 C 78.568306,139.74952 77.706806,141.98512 76.514406,144.88172 C 75.948406,146.25672 74.997106,149.85672 74.400406,152.88172 C 73.803706,155.90672 72.615606,161.53172 71.760206,165.38172 C 70.904806,169.23172 69.986706,173.50672 69.720106,174.88172 C 69.148206,177.83072 68.605706,179.19172 64.430506,188.15062 C 59.946406,197.77242 60.334706,199.87582 66.962006,201.86512 C 68.509706,202.32972 69.851606,202.74852 69.944106,202.79572 C 70.036706,202.84302 70.840906,202.60212 71.731306,202.26042 z M 141.27591,199.11882 C 141.27591,198.69922 142.28841,197.91172 143.52591,197.36882 C 146.83471,195.91722 146.74921,193.04372 143.16671,185.30372 C 139.92631,178.30282 137.88941,172.05902 136.18731,163.90942 C 135.67361,161.44962 134.36471,157.06212 133.27861,154.15942 C 132.19261,151.25672 131.57781,148.88172 131.91241,148.88172 C 132.24701,148.88172 132.06251,148.31922 131.50231,147.63172 C 130.94211,146.94422 130.26631,144.73042 130.00061,142.71202 C 129.23771,136.91832 126.12391,131.34782 123.77591,131.57672 C 116.66391,132.26992 113.76651,134.05262 115.24111,136.82782 C 115.69531,137.68252 116.37451,141.95052 116.75051,146.31252 C 118.02501,161.09442 121.99851,174.31592 130.13811,190.85812 C 132.23591,195.12162 141.27591,201.82642 141.27591,199.11882 z M 169.29021,131.82322 C 169.57301,131.38512 171.63411,130.81642 173.87051,130.55952 C 177.79741,130.10832 182.35501,128.22292 188.90201,124.34092 C 191.54341,122.77482 199.04031,112.62932 199.95611,109.38172 C 201.25301,104.78232 202.19601,98.542322 202.23241,94.319519 C 202.30921,85.391919 196.42211,76.269719 188.27591,72.693719 C 185.80091,71.607219 182.99451,70.305019 182.03951,69.800019 C 181.08451,69.294919 179.39701,68.881719 178.28951,68.881719 C 177.18201,68.881719 176.27591,68.504919 176.27591,68.044419 C 176.27591,66.962719 160.13321,67.233819 158.33411,68.345819 C 157.58221,68.810419 155.93071,69.304419 154.66401,69.443419 C 151.54951,69.785319 141.90731,74.416019 140.31501,76.334619 C 139.60881,77.185519 138.63611,77.881719 138.15351,77.881719 C 136.96781,77.881719 133.69501,81.230219 132.26011,83.911319 C 131.17761,85.933919 131.66631,92.881719 132.89111,92.881719 C 133.17951,92.881719 135.31121,91.577519 137.62811,89.983419 C 149.37371,81.902219 155.98301,79.612219 167.21921,79.730519 C 176.32991,79.826319 181.53921,82.261519 185.47541,88.264719 C 187.83501,91.863319 188.13491,93.201719 187.85721,98.893122 C 187.61381,103.88152 186.94081,106.28662 184.98011,109.17602 C 183.57241,111.25042 182.27561,113.28692 182.09831,113.70172 C 181.39171,115.35462 172.00661,120.02312 169.23161,120.10202 C 167.60601,120.14822 166.27591,120.52762 166.27591,120.94512 C 166.27591,121.36262 161.10091,121.75132 154.77591,121.80902 C 148.07311,121.87012 143.27591,121.51592 143.27591,120.95992 C 143.27591,120.43532 142.48841,120.03612 141.52591,120.07302 C 140.56341,120.10982 138.14501,119.42452 136.15161,118.54992 L 132.52721,116.95992 L 131.96681,121.67082 C 131.31451,127.15332 132.32881,128.35682 139.02591,130.04672 C 141.36341,130.63652 143.27591,131.49602 143.27591,131.95652 C 143.27591,133.02242 168.59981,132.89262 169.29021,131.82322 z M 63.775906,129.44122 C 67.075906,128.68312 71.238406,127.60352 73.025906,127.04212 C 74.813406,126.48072 76.289606,126.32742 76.306306,126.70152 C 76.323106,127.07562 76.761906,126.65422 77.281406,125.76502 C 78.612006,123.48792 76.074006,115.26212 74.187406,115.73682 C 73.411106,115.93222 72.258806,116.17692 71.626806,116.28072 C 70.994806,116.38442 69.869806,116.93252 69.126806,117.49862 C 67.309306,118.88342 64.339806,119.23872 54.275906,119.27562 C 44.034106,119.31312 38.292606,118.67122 38.973706,117.56482 C 39.250306,117.11552 38.869006,116.83142 38.126306,116.93332 C 34.835006,117.38512 32.494406,116.73392 30.401406,114.78402 C 29.163006,113.63022 27.548506,112.59802 26.813706,112.49012 C 24.417406,112.13842 22.368506,109.77042 19.844806,104.43572 C 17.240706,98.931022 17.339606,96.357219 20.315206,92.192619 C 22.350906,89.343619 32.986406,83.881719 36.498406,83.881719 C 38.026006,83.881719 39.275906,83.405119 39.275906,82.822719 C 39.275906,82.240219 39.645506,81.992119 40.097206,82.271319 C 40.549006,82.550419 45.161506,83.059019 50.347206,83.401419 C 59.306206,83.992919 65.635806,85.334819 67.725906,87.085819 C 68.248406,87.523619 69.416206,87.881719 70.320906,87.881719 C 71.225706,87.881719 72.780406,88.781719 73.775906,89.881719 C 74.771406,90.981719 76.147106,91.881719 76.833106,91.881719 C 78.596006,91.881719 80.453506,86.076419 79.344406,84.033019 C 78.029606,81.610819 72.482406,76.529319 70.899306,76.296919 C 70.148006,76.186719 68.277506,75.273619 66.742706,74.268019 C 65.207906,73.262319 62.798706,72.285019 61.388906,72.096219 C 59.979206,71.907519 58.364606,71.411619 57.800806,70.994319 C 56.301406,69.884419 51.004606,69.426619 40.275906,69.479519 C 30.043406,69.530019 25.419906,70.120919 24.412206,71.506719 C 24.062306,71.987919 22.806506,72.481319 21.621706,72.602919 C 18.087706,72.965919 6.8033062,82.013919 4.4372062,86.381719 C 1.5540062,91.704219 1.4798062,100.89732 4.2759062,106.38172 C 5.3759062,108.53932 6.2759062,110.81812 6.2759062,111.44572 C 6.2759062,112.80332 17.870206,123.88172 19.291006,123.88172 C 19.832706,123.88172 20.279406,124.21922 20.283706,124.63172 C 20.294106,125.62792 25.223506,127.88172 27.392006,127.88172 C 28.336506,127.88172 29.261406,128.33812 29.447406,128.89602 C 29.633306,129.45392 33.383306,130.18342 37.780706,130.51722 C 42.178106,130.85112 45.991606,131.32282 46.255206,131.56552 C 46.967806,132.22182 56.929306,131.01392 63.775906,129.44122 z M 112.87621,131.04402 C 112.59151,130.58332 114.25241,130.14062 116.56721,130.06022 C 126.41021,129.71832 131.77261,123.94672 129.27591,116.38172 C 127.99791,112.50942 127.97521,112.49392 125.51241,113.80872 C 122.71601,115.30152 119.86441,116.21102 118.60131,116.01292 C 117.95531,115.91162 117.14121,116.29062 116.79231,116.85522 C 115.95071,118.21692 104.57871,118.18062 103.73381,116.81352 C 103.37071,116.22602 102.45861,115.98142 101.70681,116.26992 C 100.95501,116.55832 100.07401,116.36402 99.748906,115.83802 C 99.423906,115.31202 98.675606,114.88172 98.086106,114.88172 C 96.312106,114.88172 97.975506,121.88652 100.20961,123.82422 C 101.32611,124.79252 101.94771,125.87662 101.59111,126.23322 C 101.23441,126.58992 101.84781,126.88172 102.95431,126.88172 C 104.06071,126.88172 105.75301,127.75142 106.71491,128.81432 C 107.67681,129.87722 109.05101,130.52152 109.76871,130.24612 C 110.48641,129.97072 111.37071,130.22602 111.73381,130.81352 C 112.09691,131.40102 112.61901,131.88172 112.89401,131.88172 C 113.16901,131.88172 113.16101,131.50472 112.87621,131.04402 z M 98.244106,126.96962 C 98.226606,126.09622 97.566006,124.52792 96.776206,123.48442 C 95.986306,122.44092 95.577106,121.20342 95.867006,120.73442 C 96.156806,120.26542 95.917406,119.88172 95.334906,119.88172 C 94.677806,119.88172 94.275906,116.84562 94.275906,111.88172 C 94.275906,106.91782 94.677806,103.88172 95.334906,103.88172 C 95.917406,103.88172 96.138306,103.46802 95.825806,102.96232 C 95.513206,102.45672 95.965406,101.33512 96.830506,100.47002 C 99.183206,98.117322 97.678706,96.850322 92.753606,97.036622 C 90.335206,97.128122 88.589906,97.580622 88.875206,98.042322 C 89.160506,98.504022 88.087106,98.881722 86.489906,98.881722 C 81.325906,98.881722 78.876706,104.02682 78.956906,114.70632 C 79.003006,120.85522 80.983706,124.18312 86.291106,127.02952 C 90.635606,129.35952 98.291206,129.32112 98.244106,126.96962 z M 158.03351,118.72412 C 158.91041,117.84732 159.57561,117.88552 160.77591,118.88172 C 161.97631,119.87792 162.64151,119.91612 163.51831,119.03932 C 164.15501,118.40262 165.68441,117.88172 166.91691,117.88172 C 168.14941,117.88172 169.42391,117.45142 169.74891,116.92542 C 170.07401,116.39942 170.88811,116.16912 171.55801,116.41352 C 173.11211,116.98072 180.35961,112.86032 181.28801,110.88172 C 181.67511,110.05672 182.73921,107.94792 183.65271,106.19552 C 188.08771,97.687622 184.62731,86.726619 176.42411,83.299119 C 172.67131,81.731119 156.74101,81.320219 155.84601,82.768319 C 155.54461,83.256019 153.76371,83.942819 151.88841,84.294619 C 150.01311,84.646419 147.34971,85.822419 145.96961,86.908019 C 144.58961,87.993519 142.94241,88.881719 142.30921,88.881719 C 141.67601,88.881719 141.40371,89.279519 141.70421,89.765619 C 142.00471,90.251819 140.93881,91.192919 139.33551,91.857019 C 137.73231,92.521119 135.66091,93.903919 134.73241,94.929819 C 133.23751,96.581619 129.38181,108.41382 129.30501,111.58482 C 129.28901,112.24652 130.96341,113.51152 133.02591,114.39602 C 135.08841,115.28042 137.90091,116.55992 139.27591,117.23922 C 140.65091,117.91862 143.67471,118.40622 145.99551,118.32282 C 148.31631,118.23942 149.97721,118.55602 149.68651,119.02642 C 148.88081,120.33002 156.71121,120.04642 158.03351,118.72412 z M 68.046706,115.37602 C 69.845706,114.96202 71.559706,114.23152 71.855806,113.75252 C 72.151806,113.27362 73.177406,112.88172 74.134906,112.88172 C 76.565606,112.88172 78.787906,102.36612 77.228906,98.240722 C 75.954206,94.867619 69.503606,88.928319 67.084906,88.900919 C 66.154906,88.890319 65.111306,88.424419 64.765806,87.865419 C 64.420406,87.306419 63.819506,87.045719 63.430606,87.286119 C 63.041606,87.526519 60.035206,87.080519 56.749706,86.295119 C 47.488506,84.081219 38.867406,84.645919 31.775906,87.930919 C 21.424706,92.725919 18.738806,97.235022 22.269006,103.89122 C 24.589306,108.26622 33.684606,114.67772 38.470006,115.31172 C 39.738306,115.47982 41.450906,115.87542 42.275906,116.19092 C 45.891206,117.57362 60.503906,117.11152 68.046706,115.37602 z M 108.40091,114.88172 C 108.56021,113.60772 108.67411,113.16502 110.00471,108.65032 C 110.60951,106.59812 111.01081,104.28102 110.89631,103.50122 C 110.59331,101.43612 108.24711,98.881722 106.65351,98.881722 C 105.89581,98.881722 105.27591,98.431722 105.27591,97.881722 C 105.27591,97.331722 104.48841,96.884522 103.52591,96.888022 C 101.36561,96.895822 98.474106,101.79052 97.674006,106.79372 C 97.011306,110.93822 98.927506,113.88172 102.28831,113.88172 C 103.31661,113.88172 104.43601,114.33172 104.77591,114.88172 C 105.11581,115.43172 106.04241,115.88172 106.83491,115.88172 C 107.62751,115.88172 108.33221,115.43172 108.40091,114.88172 z M 120.27591,113.68802 C 125.07291,111.69612 125.78781,111.15032 127.55871,108.12762 C 129.86241,104.19552 130.54771,98.911322 129.75801,91.167119 C 129.17981,85.496719 128.85481,84.818119 126.04651,83.417119 C 122.80281,81.799019 117.54201,81.409019 115.65771,82.647019 C 114.97071,83.098319 114.36161,88.395519 114.07851,96.381719 C 113.81651,103.77402 113.09261,110.36122 112.40051,111.65242 C 110.15061,115.84992 113.18241,116.63352 120.27591,113.68802 z M 111.07591,96.681722 C 111.73591,96.021719 112.27591,92.857619 112.27591,89.650319 C 112.27591,84.969619 111.93061,83.712119 110.52591,83.277319 C 109.56341,82.979419 108.01241,82.329719 107.07911,81.833419 C 104.19011,80.297319 91.546406,80.850819 90.114506,82.576219 C 89.423506,83.408819 87.827306,84.482019 86.567506,84.960919 C 83.795906,86.014719 80.284806,91.486219 80.279706,94.759519 C 80.276206,96.992822 80.531206,97.096522 84.476306,96.465619 C 86.786506,96.096219 89.198506,95.360919 89.836206,94.831719 C 91.178006,93.718119 101.19571,93.942819 101.91241,95.102519 C 102.17731,95.531119 103.49241,95.881719 104.83491,95.881719 C 106.17751,95.881719 107.27591,96.331719 107.27591,96.881722 C 107.27591,98.261222 109.61971,98.137922 111.07591,96.681722 z M 85.275906,83.042219 C 85.275906,82.580519 86.445606,81.669819 87.875306,81.018419 C 90.278106,79.923619 90.366906,79.665619 89.049806,77.607919 C 87.902706,75.815619 84.952606,67.013419 84.784706,64.881719 C 84.763006,64.606719 84.344406,63.748419 83.854406,62.974419 C 82.370806,60.630919 82.852106,41.888519 84.539706,36.289219 C 87.575406,26.217119 92.533406,19.323919 97.464206,18.320019 C 101.70051,17.457519 109.74201,17.695819 112.51381,18.765919 C 117.72811,20.779119 125.67301,32.131319 126.75151,39.109819 C 128.60211,51.083819 128.33731,54.964319 124.85601,66.881719 C 123.97231,69.906719 123.04731,73.215119 122.80041,74.233719 C 122.55351,75.252319 121.87891,76.655119 121.30141,77.351019 C 120.55281,78.253019 120.64021,78.939119 121.60561,79.740319 C 122.35051,80.358519 123.25331,80.571019 123.61181,80.212519 C 123.97031,79.854019 125.16921,80.380119 126.27591,81.381719 C 127.38271,82.383319 128.43121,83.018019 128.60591,82.792219 C 132.60391,77.626019 134.11211,72.896519 135.91161,59.881719 C 136.83221,53.223519 136.98171,33.762819 136.13431,30.881719 C 135.73001,29.506719 134.82141,26.384519 134.11531,23.943519 C 133.40931,21.502519 131.79541,18.352519 130.52901,16.943519 C 120.16641,5.4142192 115.40261,2.6376192 105.67181,2.4552192 C 97.638206,2.3046192 92.336106,3.9651192 85.957406,8.6293193 C 75.738206,16.101719 69.567806,28.299819 69.195506,41.765219 C 68.988106,49.268019 70.038006,58.560719 71.376206,61.066019 C 71.871106,61.992319 72.275906,63.501919 72.275906,64.420719 C 72.275906,68.256919 81.519106,83.881719 83.788506,83.881719 C 84.606606,83.881719 85.275906,83.503919 85.275906,83.042219 z M 117.27311,79.473319 C 117.27161,78.872919 118.13951,76.581719 119.20171,74.381719 C 122.59891,67.345919 124.46331,59.622219 125.00111,50.356519 C 125.46021,42.446519 125.23871,40.654819 123.20871,35.856519 C 118.31981,24.301019 112.75561,19.528819 104.17151,19.528819 C 98.782206,19.528819 98.205406,19.776119 93.841406,23.958219 C 89.691606,27.935019 89.006406,29.256119 87.136706,36.884719 C 84.697906,46.835219 85.110406,59.808119 88.145206,68.598719 C 91.244406,77.575919 92.405106,78.514119 100.62651,78.687419 C 104.55071,78.770219 107.88471,79.208119 108.03551,79.660619 C 108.45461,80.917719 117.27641,80.738919 117.27311,79.473319 z M 41.275906,230.88172 C 41.275906,230.33172 40.713406,229.86672 40.025906,229.84842 C 37.426106,229.77922 34.702006,226.33342 34.472106,222.82332 C 34.221706,218.99992 36.754506,215.72342 40.939906,214.45652 C 42.384606,214.01932 43.699106,212.14642 44.894406,208.82232 C 46.781506,203.57442 51.507906,197.88172 53.977906,197.88172 C 56.052306,197.88172 55.060306,200.19472 52.487206,201.35772 C 50.555206,202.23082 46.275906,210.11732 46.275906,212.80452 C 46.275906,213.38322 44.511606,214.97042 42.355206,216.33162 C 36.559106,219.99062 35.600906,226.17222 40.634006,227.43542 C 42.778806,227.97372 44.167306,231.88172 42.213806,231.88172 C 41.698006,231.88172 41.275906,231.43172 41.275906,230.88172 z"
     id="path2384"
     sodipodi:nodetypes="csssssssssssssssssssssssssssssssssssssssssssssssssssssssssssssssssssssssssssssssssssssssssssssssssssssssssssssssssssssssssssccssssssssssssssssccssssssssssssssssccsssssssssssccssssssssssssssssssssssssscccssccssssssssssssssssssssssssssssssssssssssccssssssssssssssssccssssssssssssccssssssssssssssssssssccsssssssssssccsssssssssccssssssccsssssssssssccsssssssssssssssssssssssssccsssssssssccssssssssssc" />
</svg>

