<?xml version="1.0" encoding="UTF-8" standalone="no"?>
<!-- Created with Inkscape (http://www.inkscape.org/) -->

<svg
   xmlns:dc="http://purl.org/dc/elements/1.1/"
   xmlns:cc="http://creativecommons.org/ns#"
   xmlns:rdf="http://www.w3.org/1999/02/22-rdf-syntax-ns#"
   xmlns:svg="http://www.w3.org/2000/svg"
   xmlns="http://www.w3.org/2000/svg"
   xmlns:sodipodi="http://sodipodi.sourceforge.net/DTD/sodipodi-0.dtd"
   xmlns:inkscape="http://www.inkscape.org/namespaces/inkscape"
   id="svg1923"
   sodipodi:version="0.32"
   inkscape:version="0.48.0 r9654"
   width="172"
   height="160"
   version="1.0"
   sodipodi:docname="Mon:MinamotoGentian.image.svg">
  <metadata
     id="metadata1928">
    <rdf:RDF>
      <cc:Work
         rdf:about="">
        <dc:format>image/svg+xml</dc:format>
        <dc:type
           rdf:resource="http://purl.org/dc/dcmitype/StillImage" />
      </cc:Work>
    </rdf:RDF>
  </metadata>
  <defs
     id="defs1926" />
  <sodipodi:namedview
     inkscape:window-height="908"
     inkscape:window-width="1459"
     inkscape:pageshadow="2"
     inkscape:pageopacity="0.0"
     guidetolerance="10.0"
     gridtolerance="10.0"
     objecttolerance="10.0"
     borderopacity="1.0"
     bordercolor="#666666"
     pagecolor="#ffffff"
     id="base"
     width="172px"
     height="160px"
     inkscape:zoom="2.58"
     inkscape:cx="31.395349"
     inkscape:cy="69.366405"
     inkscape:window-x="-4"
     inkscape:window-y="0"
     inkscape:current-layer="g1997"
     showgrid="false"
     borderlayer="true"
     inkscape:window-maximized="0" />
  <g
     id="g1997"
     transform="translate(-43.5273, -3.90245)">
    <rect
       style="fill:#ffffff;fill-opacity:1;stroke:none"
       id="rect4469"
       width="182.17055"
       height="170.93024"
       x="-5.4263568"
       y="-5.8914728"
       transform="translate(43.5273,3.90245)" />
    <path
       style="fill:#ffffff;stroke:#000000;stroke-width:1;stroke-miterlimit:4;stroke-dasharray:none"
       d="m 124.01376,151.15245 c -8.64803,-23.4699 -11.15987,-36.51275 -10.63962,-55.246542 0.33122,-11.92702 0.66472,-14.08701 2.85671,-18.50201 2.36612,-4.76574 7.66412,-9.50145 10.62959,-9.50145 1.11677,0 1.35212,8.09368 1.35212,46.500002 0,25.575 -0.13639,46.5 -0.3031,46.5 -0.1667,0 -1.91977,-4.3875 -3.8957,-9.75 z"
       id="path4507" />
    <path
       style="fill:#ffffff;stroke:#000000;stroke-width:1;stroke-miterlimit:4;stroke-dasharray:none"
       d="m 130.21256,114.40245 c 0,-31.298032 0.33742,-46.500002 1.03212,-46.500002 2.67107,0 7.88213,3.07083 9.81328,5.78288 6.26976,8.80507 6.87169,32.879812 1.35766,54.301122 -2.59163,10.06815 -10.81062,32.916 -11.84078,32.916 -0.19925,0 -0.36228,-20.925 -0.36228,-46.5 z"
       id="path4505" />
    <path
       style="fill:#ffffff;stroke:#000000;stroke-width:1;stroke-miterlimit:4;stroke-dasharray:none"
       d="m 175.68216,131.06965 c -11.22971,-5.96208 -19.90895,-11.85794 -24.4696,-16.62235 l -3.5,-3.65638 -0.068,-11.694232 c -0.0374,-6.43183 -0.39511,-13.26924 -0.79487,-15.19424 l -0.72685,-3.5 2.59864,3 c 10.02695,11.57565 38.39688,52.629102 36.26678,52.480812 -0.15162,-0.0106 -4.33936,-2.17668 -9.30608,-4.81361 z"
       id="path4503" />
    <path
       style="fill:#ffffff;stroke:#000000;stroke-width:1;stroke-miterlimit:4;stroke-dasharray:none"
       d="m 76.792492,130.7417 c 10.240965,-16.35132 35.017298,-50.637122 35.892448,-49.668422 0.16355,0.18105 -0.135,3.25417 -0.66345,6.82917 -0.52845,3.575 -0.72843,10.1433 -0.44441,14.596232 l 0.51642,8.09622 -4.69047,4.55732 c -6.72219,6.53135 -23.362217,16.83968 -31.009359,19.20997 l -2.318886,0.71876 2.717707,-4.33925 z"
       id="path4501" />
    <path
       style="fill:#ffffff;stroke:#000000;stroke-width:1;stroke-miterlimit:4;stroke-dasharray:none"
       d="M 73.879909,129.90245 C 76.917074,111.43813 82.693663,95.304288 90.383921,83.807228 101.18512,67.659268 109.34102,62.867038 120.6694,66.012138 l 3.95685,1.09854 -2.45685,1.29512 c -5.24441,2.76458 -27.165232,31.811632 -47.661021,63.155142 -1.023556,1.56529 -1.117824,1.31652 -0.62847,-1.65849 z"
       id="path4499" />
    <path
       style="fill:#ffffff;stroke:#000000;stroke-width:1;stroke-miterlimit:4;stroke-dasharray:none"
       d="m 174.51376,116.15245 c -6.12672,-9.2125 -15.11338,-21.654452 -19.97035,-27.648772 -4.85697,-5.99432 -9.86081,-12.42405 -11.11964,-14.28828 -1.25884,-1.86424 -3.68409,-4.23806 -5.38944,-5.27515 l -3.10066,-1.88561 4.35332,-1.17223 c 2.39433,-0.64473 5.86622,-0.92672 7.71532,-0.62665 15.42395,2.50296 31.49832,28.39234 37.63942,60.622072 0.73616,3.86354 1.26491,7.02462 1.175,7.02462 -0.0899,0 -5.17625,-7.5375 -11.30297,-16.75 z"
       id="path4497" />
    <path
       style="fill:#ffffff;stroke:#000000;stroke-width:1;stroke-miterlimit:4;stroke-dasharray:none"
       d="m 187.71256,94.296378 c -1.65,-0.22523 -4.90942,-0.65811 -7.24315,-0.96196 -3.7752,-0.49153 -4.54605,-1.06967 -6.98965,-5.24222 -1.51058,-2.57936 -4.89324,-7.49191 -7.51704,-10.91679 l -4.77054,-6.22703 3.26019,0.62111 c 10.90353,2.07728 33.1317,11.16133 44.12338,18.03204 l 4.86318,3.03989 -4.36318,0.59947 c -6.91782,0.95046 -18.08915,1.5024 -21.36319,1.05549 z"
       id="path4495" />
    <path
       style="fill:#ffffff;stroke:#000000;stroke-width:1;stroke-miterlimit:4;stroke-dasharray:none"
       d="m 48.712558,93.057978 c -2.935553,-0.69508 -2.82725,-0.80797 5.041513,-5.25504 14.180762,-8.01432 26.764591,-12.92461 41.958487,-16.37244 l 3,-0.68076 -2.64098,2.82635 c -2.26078,2.41947 -8.778902,11.81648 -12.465711,17.9715 -0.991265,1.65488 -2.712198,1.86704 -16.5,2.03415 -8.46632,0.10262 -16.743309,-0.13308 -18.393309,-0.52376 z"
       id="path4493" />
    <path
       style="fill:#ffffff;stroke:#000000;stroke-width:1;stroke-miterlimit:4;stroke-dasharray:none"
       d="m 210.71256,89.287228 c -7.42418,-5.75971 -35.90849,-17.37695 -46.5,-18.96489 -2.475,-0.37106 -6.02203,-1.59083 -7.88228,-2.71059 -1.86026,-1.11976 -4.99352,-2.58984 -6.9628,-3.26685 l -3.58052,-1.23093 3.9628,-1.10018 c 5.79039,-1.60758 20.73467,-1.35355 27.81846,0.47285 3.37938,0.87131 8.84434,3.00421 12.14434,4.73979 6.25874,3.29166 18.60716,14.90664 21.80654,20.51133 2.04657,3.5852 1.98067,3.71181 -0.80654,1.54947 z"
       id="path4491" />
    <path
       style="fill:#ffffff;stroke:#000000;stroke-width:1;stroke-miterlimit:4;stroke-dasharray:none"
       d="m 49.400422,85.272898 c 4.821794,-6.73967 14.841943,-15.57087 21.199032,-18.68363 7.964255,-3.89971 16.949025,-5.95644 26.113104,-5.97761 7.966012,-0.01841 19.077932,2.22566 15.000002,3.02928 -1.1,0.21677 -4.7,1.67069 -8,3.23095 -3.3,1.56025 -9.391942,3.57126 -13.537649,4.46891 -9.101531,1.97072 -25.773728,8.66735 -35.801886,14.38035 -4.036743,2.29971 -7.552204,4.1813 -7.812135,4.1813 -0.259932,0 1.017858,-2.0833 2.839532,-4.62955 z"
       id="path4489" />
    <path
       style="fill:#000000"
       d="m 125.03837,66.227718 c -0.92081,-0.24349 -3.49734,-2.85745 -5.72562,-5.80879 l -4.05142,-5.366069 2.70081,-0.900272 c 2.41145,-0.803815 3.06224,-0.467677 6.07413,3.137321 l 3.37331,4.03758 -0.70124,-5.612525 c -0.62888,-5.033339 -0.49879,-5.676785 1.26061,-6.235196 2.77062,-0.879361 5.38621,0.353496 4.86073,2.291107 -0.24337,0.897366 -0.72351,3.431575 -1.06699,5.631574 l -0.6245,4 3.56799,-4.18724 c 3.31529,-3.890689 3.77595,-4.114746 6.50436,-3.163618 l 2.93637,1.023624 -4.00716,5.307444 c -4.6536,6.16365 -8.40532,7.61577 -15.10138,5.84506 z"
       id="path4487" />
    <path
       style="fill:#000000"
       d="m 80.212558,59.054268 c 0,-2.395311 3.115913,-4.428305 5.427558,-3.541244 1.861353,0.714268 2.130043,4.383334 0.322442,4.403084 -0.6875,0.0075 -2.2625,0.28499 -3.5,0.61663 -1.805808,0.48393 -2.25,0.19206 -2.25,-1.47847 z"
       id="path4485" />
    <path
       style="fill:#000000"
       d="m 173.96256,60.213128 c -2.16024,-0.56453 -2.3092,-3.882117 -0.21047,-4.687476 2.07927,-0.797889 5.46047,1.442023 5.46047,3.617346 0,1.73181 -1.52696,2.04306 -5.25,1.07013 z"
       id="path4483" />
    <path
       style="fill:#ffffff;stroke:#000000;stroke-width:2;stroke-miterlimit:4;stroke-dasharray:none"
       d="m 188.32049,59.257578 c -2.96564,-0.76277 -7.04773,-2.317388 -9.07131,-3.454706 -3.30304,-1.856408 -4.27868,-1.957038 -9.54159,-0.984137 -3.22429,0.596043 -7.61003,1.083714 -9.74608,1.083714 -3.55402,0 -3.82839,-0.191013 -3.23195,-2.25 0.35847,-1.2375 1.51562,-3.471751 2.57144,-4.965001 l 1.91968,-2.715002 -2.95134,-4.284998 c -4.23108,-6.143017 -4.32929,-8.209972 -0.4082,-8.590794 1.73172,-0.168187 4.76922,0.371351 6.75,1.198974 3.21211,1.342106 3.60142,1.341087 3.60142,-0.0094 0,-0.832805 2.53562,-4.049812 5.63471,-7.148905 l 5.63472,-5.634714 2.3674,2.949931 c 1.30207,1.622463 3.10258,4.862432 4.00114,7.199932 1.09125,2.838752 2.23641,4.25 3.44867,4.25 2.79727,0 11.23662,1.955002 12.9018,2.988744 1.2316,0.764571 0.89891,1.532262 -1.92791,4.448802 -1.87899,1.938629 -4.94614,4.029657 -6.81589,4.646729 l -3.39953,1.121948 2.14461,2.282833 c 1.53486,1.633788 2.05443,3.273687 1.82744,5.767883 l -0.31716,3.48505 -5.39207,-1.38686 z"
       id="path4481" />
    <path
       style="fill:#000000"
       d="m 186.13409,52.152449 c -0.72785,-0.9625 -2.02045,-2.351595 -2.87245,-3.086877 -1.378,-1.189229 -1.28419,-1.520557 0.84934,-3 1.31913,-0.914718 3.79413,-2.191388 5.5,-2.837045 3.04462,-1.152364 3.05364,-1.175319 0.49113,-1.25 -1.43575,-0.04184 -4.26824,1.048922 -6.29441,2.423922 -5.7573,3.90701 -6.76964,3.449113 -6.07981,-2.75 0.32132,-2.8875 0.80721,-6.7125 1.07976,-8.5 0.27254,-1.7875 0.072,-3.25 -0.4457,-3.25 -0.51767,0 -1.25598,3.555745 -1.64068,7.901655 -0.66488,7.511002 -0.82955,7.926522 -3.33068,8.404644 -1.93615,0.370118 -3.50511,-0.264305 -5.93942,-2.401655 -1.81951,-1.597554 -3.84507,-2.904644 -4.50125,-2.904644 -0.65618,0 0.49378,1.390424 2.55545,3.089831 l 3.7485,3.089831 -2.52065,1.982749 c -1.38636,1.090512 -2.52066,2.44009 -2.52066,2.999063 0,0.558972 1.38453,-0.148689 3.07673,-1.57258 4.8239,-4.059051 15.43582,-2.907505 17.2707,1.874121 0.32439,0.845342 1.10902,1.536985 1.74363,1.536985 0.80719,0 0.75626,-0.525746 -0.16953,-1.75 z"
       id="path4479" />
    <path
       style="fill:#ffffff;stroke:#000000;stroke-width:2;stroke-miterlimit:4;stroke-dasharray:none"
       d="m 64.731264,56.652449 c 0.372689,-1.7875 1.308444,-4.246668 2.079455,-5.464817 1.848879,-2.921112 1.839231,-2.946811 -1.348161,-3.5908 -2.667203,-0.538888 -9.25,-6.071498 -9.25,-7.7743 0,-1.08316 9.510264,-3.920083 13.14136,-3.920083 2.37089,0 2.952565,-0.581455 3.966214,-3.964714 0.653321,-2.180592 2.40667,-5.424655 3.896331,-7.209028 l 2.708473,-3.244314 5.643811,5.64381 c 3.104096,3.104096 5.643811,6.321473 5.643811,7.149725 0,1.323916 0.332354,1.332542 2.75,0.07138 1.5125,-0.788995 4.4375,-1.437309 6.500002,-1.440697 4.74621,-0.0078 4.90256,1.784871 0.72957,8.364999 l -3.020432,4.762721 2.020432,2.83743 c 2.62085,3.680644 2.66505,7.028689 0.0928,7.028689 -1.060202,0 -5.264852,-0.464163 -9.343663,-1.031474 -7.198467,-1.001214 -7.603954,-0.942566 -13.82236,1.999212 -3.523486,1.666881 -7.904594,3.031041 -9.735794,3.031471 -3.228742,7.7e-4 -3.308958,-0.09752 -2.651839,-3.249209 z"
       id="path4477" />
    <path
       style="fill:#000000"
       d="m 76.058712,50.902449 c 2.552446,-2.552446 3.76418,-3 8.122377,-3 4.162867,0 5.602024,0.479646 7.682984,2.560606 1.408333,1.408333 2.850375,2.270051 3.204545,1.914929 0.35417,-0.355123 -0.57916,-1.698424 -2.074057,-2.985113 l -2.717998,-2.339435 3.502795,-3.075494 c 1.92653,-1.691521 2.94606,-3.075493 2.2656,-3.075493 -0.68045,0 -2.608609,1.316116 -4.284793,2.924701 -2.290436,2.198066 -3.700237,2.796072 -5.674434,2.406969 -2.249452,-0.443354 -2.716354,-1.170898 -3.25,-5.064272 -0.342745,-2.500598 -0.623173,-6.058733 -0.623173,-7.906969 0,-1.848236 -0.453931,-3.360429 -1.008736,-3.360429 -0.939807,0 -0.59811,7.888821 0.596519,13.771959 0.66039,3.252193 -1.92728,3.834549 -5.556313,1.25045 -3.394852,-2.417348 -9.03147,-4.327751 -9.03147,-3.061011 0,0.451982 1.171871,1.115907 2.604158,1.475388 1.432287,0.359481 3.700746,1.372114 5.041019,2.250294 2.402979,1.574493 2.410551,1.626004 0.544608,3.704806 -4.422816,4.927355 -3.91269,6.177173 0.656369,1.608114 z"
       id="path4475" />
    <path
       style="fill:#ffffff;stroke:#000000;stroke-width:2;stroke-miterlimit:4;stroke-dasharray:none"
       d="m 109.23452,51.046152 c 0.0121,-2.004037 0.91812,-5.618836 2.01342,-8.032887 l 1.99146,-4.389184 -5.05537,-5.345312 c -2.78045,-2.939922 -5.91675,-7.264789 -6.96955,-9.610816 l -1.914182,-4.265504 6.089912,-0.30119 c 3.34945,-0.165654 7.34338,0.135774 8.8754,0.66984 2.60005,0.90638 3.04054,0.632264 6.61623,-4.117187 2.10689,-2.798519 5.07023,-6.001811 6.58519,-7.118426 l 2.75446,-2.030209 3.89393,3.802316 c 2.14166,2.091274 4.72094,5.337994 5.73174,7.214933 1.28654,2.388955 2.2919,3.209773 3.35161,2.736388 2.89936,-1.295181 16.01379,-1.650314 16.01379,-0.433646 0,2.903507 -3.3463,8.563064 -7.92643,13.405878 l -5.01964,5.307532 1.97303,5.192612 c 1.08517,2.855937 1.97304,6.526535 1.97304,8.156886 0,2.791968 -0.18891,2.931876 -3.25,2.406933 -1.7875,-0.306537 -6.41016,-2.069288 -10.27257,-3.917225 l -7.02258,-3.359885 -5.97742,2.918381 c -3.28759,1.605109 -7.88993,3.331277 -10.22743,3.835928 l -4.25,0.917546 0.022,-3.643702 z"
       id="path4473" />
    <path
       style="fill:#000000"
       d="m 118.59151,43.357296 c 0.79042,-2.059788 6.71716,-4.454847 11.02383,-4.454847 4.40313,0 7.94197,1.344746 10.64062,4.0434 1.1678,1.167797 2.34827,1.898267 2.62327,1.623267 0.59849,-0.598494 -2.70753,-4.030525 -5.25682,-5.457177 -1.70714,-0.955365 -1.6554,-1.247657 0.86445,-4.883812 1.47415,-2.127196 4.13471,-4.726785 5.91235,-5.776865 1.77765,-1.05008 2.70119,-2.086201 2.05231,-2.302492 -1.81884,-0.606279 -7.70386,4.344876 -9.8076,8.25127 -1.30458,2.42247 -2.5869,3.502409 -4.15876,3.502409 -2.20306,0 -2.27853,-0.313652 -2.46627,-10.25 l -0.19366,-10.25 -0.55634,10 c -0.50259,9.034088 -0.74951,10.024269 -2.55633,10.251258 -1.39297,0.174998 -2.72973,-0.940719 -4.40426,-3.675994 -2.61964,-4.279045 -7.54132,-8.426739 -9.30258,-7.83965 -0.60901,0.203002 0.31062,1.266846 2.04361,2.364098 2.89886,1.835428 8.16323,7.919337 8.16323,9.434053 0,0.354863 -1.09723,1.145138 -2.4383,1.756167 -2.49109,1.135019 -5.38808,5.210068 -3.70387,5.210068 0.5105,0 1.19501,-0.695319 1.52112,-1.545153 z"
       id="path1999" />
  </g>
</svg>
