<?xml version="1.0" encoding="UTF-8" standalone="no"?>
<!-- Created with Inkscape (http://www.inkscape.org/) -->

<svg
   xmlns:dc="http://purl.org/dc/elements/1.1/"
   xmlns:cc="http://creativecommons.org/ns#"
   xmlns:rdf="http://www.w3.org/1999/02/22-rdf-syntax-ns#"
   xmlns:svg="http://www.w3.org/2000/svg"
   xmlns="http://www.w3.org/2000/svg"
   xmlns:sodipodi="http://sodipodi.sourceforge.net/DTD/sodipodi-0.dtd"
   xmlns:inkscape="http://www.inkscape.org/namespaces/inkscape"
   width="743.01001"
   height="745.04016"
   id="svg4003"
   version="1.1"
   inkscape:version="0.48.0 r9654"
   sodipodi:docname="New document 16">
  <defs
     id="defs4005" />
  <sodipodi:namedview
     id="base"
     pagecolor="#ffffff"
     bordercolor="#666666"
     borderopacity="1.0"
     inkscape:pageopacity="0.0"
     inkscape:pageshadow="2"
     inkscape:zoom="0.7"
     inkscape:cx="103.65286"
     inkscape:cy="423.92853"
     inkscape:document-units="px"
     inkscape:current-layer="layer1"
     showgrid="false"
     fit-margin-top="0"
     fit-margin-left="0"
     fit-margin-right="0"
     fit-margin-bottom="0"
     inkscape:window-width="1295"
     inkscape:window-height="930"
     inkscape:window-x="20"
     inkscape:window-y="20"
     inkscape:window-maximized="0" />
  <metadata
     id="metadata4008">
    <rdf:RDF>
      <cc:Work
         rdf:about="">
        <dc:format>image/svg+xml</dc:format>
        <dc:type
           rdf:resource="http://purl.org/dc/dcmitype/StillImage" />
        <dc:title></dc:title>
      </cc:Work>
    </rdf:RDF>
  </metadata>
  <g
     inkscape:label="Layer 1"
     inkscape:groupmode="layer"
     id="layer1"
     transform="translate(14.367145,-296.96486)">
    <rect
       style="fill:#ffffff;fill-opacity:1;stroke:none"
       id="rect4094"
       width="811.42859"
       height="800"
       x="-34.285713"
       y="-23.531267"
       transform="translate(-14.367145,296.96486)" />
    <path
       style="fill:#000000"
       d="m -14.351875,670.1081 c 0.0138,-337.16615 0.16203,-371.95327 1.58679,-372.5 2.8276395,-1.08507 202.581175,-0.69235 201.907945,0.39695 -0.33992,0.55 0.0835,1 0.94098,1 0.85746,0 1.55902,-0.45 1.55902,-1 0,-0.66418 90.16667,-1 268.5,-1 l 268.50001,0 0,372.5 0,372.49995 -371.50502,0 -371.504995,0 0.0153,-371.8969 z M 234.30703,992.67193 c 3.61138,-0.3372 7.07683,-0.9997 7.70099,-1.4722 0.62416,-0.4724 3.74331,-1.4614 6.93144,-2.1977 3.18813,-0.7363 6.02719,-1.7119 6.30902,-2.1679 0.28183,-0.456 1.32369,-0.8291 2.31525,-0.8291 0.99157,0 5.35251,-1.8584 9.69099,-4.1299 4.33848,-2.2714 9.12564,-4.7794 10.63814,-5.5732 1.5125,-0.7938 2.75,-1.8604 2.75,-2.3701 0,-0.5097 0.86401,-0.9268 1.92002,-0.9268 1.95029,0 14.37463,-9.8451 17.03671,-13.5 0.8012,-1.1 2.6012,-3.1865 4,-4.6367 1.3988,-1.4503 2.99327,-3.2996 3.54327,-4.1098 4.05276,-5.96951 5.30112,-7.59231 7.82186,-10.16751 2.73482,-2.7939 5.17951,-7.25736 4.83962,-8.83597 -0.0888,-0.4125 0.28852,-0.75 0.83852,-0.75 0.55,0 1,-0.69083 1,-1.53518 0,-0.84435 0.62449,-2.53185 1.38776,-3.75 1.14428,-1.82623 1.8785,-4.40558 3.05002,-10.71482 0.0511,-0.275 0.36124,-0.95 0.68927,-1.5 0.91358,-1.53175 2.22209,-6.85521 2.00933,-8.17459 -0.10418,-0.64603 0.27251,-1.46009 0.8371,-1.80902 0.56459,-0.34893 1.02652,-2.10787 1.02652,-3.90874 0,-1.80087 0.31778,-3.59209 0.70617,-3.98048 0.98944,-0.98945 1.25098,-23.90673 0.28676,-25.12717 -0.43453,-0.55 -0.75968,-2.575 -0.72254,-4.5 0.0948,-4.91583 -2.26236,-17.877 -3.37646,-18.56555 -0.5096,-0.31496 -0.67717,-0.97616 -0.37236,-1.46934 1.40753,-2.27744 -7.87481,-24.60699 -10.72435,-25.79844 -0.43847,-0.18334 -0.79722,-0.79358 -0.79722,-1.3561 0,-0.56252 -1.35,-2.72728 -3,-4.81057 -1.65,-2.08329 -3,-4.28555 -3,-4.8939 0,-0.60836 -0.4133,-1.1061 -0.91844,-1.1061 -0.50514,0 -1.84075,-1.4625 -2.96802,-3.25 -3.16085,-5.01214 -21.84226,-22.75 -23.96016,-22.75 -0.63436,0 -1.15338,-0.37421 -1.15338,-0.83159 0,-1.53985 -21.66277,-14.16841 -24.30421,-14.16841 -0.55154,0 -3.29623,-1.06975 -6.0993,-2.37722 -4.42757,-2.0652 -7.69336,-2.86526 -17.09649,-4.18836 -1.1,-0.15477 -4.25,-0.6366 -7,-1.07071 -2.75,-0.43411 -11.3,-0.74344 -19,-0.68738 -11.33168,0.0825 -15.14356,0.49411 -20,2.15966 -11.05222,3.79043 -14.9765,5.31458 -16.11376,6.25842 -0.62123,0.51558 -4.22478,2.00581 -8.00788,3.31162 -3.7831,1.3058 -8.22836,3.09587 -9.87836,3.97792 -1.65,0.88205 -3.34715,1.6065 -3.77144,1.60989 -1.32552,0.0106 -8.90586,5.21845 -17.01427,11.6892 -7.39761,5.9035 -10.33004,9.02435 -17.21429,18.32036 -1.65,2.22804 -3.59464,4.71375 -4.32143,5.52379 -0.72678,0.81005 -1.03364,1.47281 -0.6819,1.47281 0.35173,0 -0.23209,1.2375 -1.29738,2.75 -1.06529,1.5125 -2.27416,3.875 -2.68637,5.25 -0.41222,1.375 -1.32289,3.175 -2.02371,4 -0.70083,0.825 -2.06103,3.975 -3.02266,7 -0.96163,3.025 -2.150245,6.3058 -2.641355,7.29068 -0.49112,0.98487 -0.634,2.20966 -0.31751,2.72175 0.31649,0.51209 -0.15241,2.04193 -1.04201,3.39963 -0.8896,1.3577 -1.69517,4.74541 -1.79014,7.52824 -0.095,2.78284 -0.51082,5.0597 -0.92411,5.0597 -0.41328,0 -0.75142,2.475 -0.75142,5.5 0,3.025 -0.44071,5.5 -0.97936,5.5 -1.41833,0 0.46029,23.60851 2.03252,25.54264 0.46615,0.57346 1.54686,4.17346 2.40157,8 2.12666,9.5211 2.06805,9.31347 2.84966,10.09508 0.382585,0.38259 0.695605,1.59203 0.695605,2.68764 0,3.03787 6.97582,16.59559 11.22361,21.81341 2.07702,2.5513 3.77639,4.9588 3.77639,5.35 0,0.3912 1.575,2.2862 3.5,4.2112 1.925,1.92501 3.504,3.79251 3.50889,4.15001 0.0132,0.9661 9.76219,10.486 15.49111,15.1272 2.75,2.2278 5.91583,4.9444 7.03517,6.0367 1.11934,1.0924 2.58184,1.9861 3.25,1.9861 0.66816,0 1.21483,0.4017 1.21483,0.8926 0,1.1511 16.72399,9.7205 22.82222,11.6942 2.57278,0.8327 5.57778,1.9186 6.67778,2.4132 7.70202,3.4631 20.22256,5.1088 41.24958,5.4219 11.0152,-0.52918 2.40119,0.22798 13.91459,-1.755 z m 295.71809,-0.516 c 0.61476,-0.481 3.2454,-1.1518 5.84588,-1.4906 2.60047,-0.3388 5.52547,-1.027 6.5,-1.5293 0.97452,-0.5023 4.92186,-2.3647 8.77186,-4.1385 3.85,-1.7739 8.93506,-4.5229 11.30013,-6.1089 2.36507,-1.5859 4.56347,-2.8836 4.88533,-2.8836 0.32186,0 1.62781,-1.125 2.90212,-2.5 1.27431,-1.375 2.68191,-2.5 3.12801,-2.5 0.4461,0 2.83009,-2.0998 5.29775,-4.6662 2.46766,-2.5664 6.62416,-6.8428 9.23666,-9.5032 2.6125,-2.6603 4.75001,-5.2013 4.75001,-5.6467 0,-0.4453 1.35,-2.1031 3,-3.68391 1.65,-1.5808 3,-3.4304 3,-4.1103 0,-0.6799 1.0438,-2.5082 2.3197,-4.0629 3.0221,-3.6827 9.3117,-16.24405 10.6824,-21.33478 0.5913,-2.1956 1.4514,-3.99199 1.9114,-3.99199 0.8173,0 2.5137,-5.67803 2.1917,-7.33573 -0.089,-0.45965 0.8101,-2.40923 1.9987,-4.33241 1.6351,-2.6457 2.2746,-5.6061 2.6277,-12.16427 0.2567,-4.76718 0.824,-9.34259 1.2607,-10.16759 1.2839,-2.42527 1.2509,-22 -0.037,-22 -0.6083,0 -0.9947,-1.2375 -0.8586,-2.75 0.6627,-7.36882 -4.2204,-23.83936 -9.3106,-31.40437 -0.9823,-1.4599 -1.786,-3.3724 -1.786,-4.25 0,-0.8776 -0.473,-1.59563 -1.051,-1.59563 -0.9362,0 -4.7224,-7.46408 -3.8169,-7.52458 0.2024,-0.0135 -0.2071,-0.68852 -0.9098,-1.5 -0.7027,-0.81148 -3.1777,-3.9664 -5.5,-7.01094 -7.8227,-10.25568 -18.44848,-19.66664 -29.70601,-26.3098 -12.85553,-7.58616 -16.83769,-9.59399 -23.12986,-11.66218 -3.51254,-1.15455 -7.14451,-2.51061 -8.07104,-3.01347 -1.56201,-0.84776 -9.52392,-2.43469 -17.8154,-3.55089 -9.46837,-1.27462 -20.50154,-1.45663 -30,-0.49488 -5.775,0.58473 -11.74493,1.05624 -13.26651,1.0478 -1.52158,-0.008 -4.10835,0.67855 -5.74838,1.52664 -1.64003,0.84809 -4.4451,1.69115 -6.23349,1.87345 -1.78839,0.18231 -4.51841,0.84613 -6.06672,1.47516 -1.5483,0.62903 -3.02045,1.14369 -3.27144,1.14369 -0.57149,0 -8.73484,5.26891 -9.41346,6.07577 -0.275,0.32697 -3.03722,2.13118 -6.13826,4.00936 -3.10104,1.87818 -8.39609,5.34926 -11.76677,7.71352 -3.37068,2.36426 -6.57097,4.0252 -7.11174,3.69098 -2.01641,-1.2462 -0.93283,-4.46433 2.01677,-5.98963 1.65,-0.85325 3,-1.9898 3,-2.52568 0,-0.53588 0.42744,-0.97432 0.94987,-0.97432 0.52243,0 2.95019,-1.35 5.39502,-3 2.44484,-1.65 4.9049,-3 5.4668,-3 0.5619,0 1.17164,-0.3375 1.35498,-0.75 0.18333,-0.4125 1.68333,-1.50533 3.33333,-2.42851 4.90613,-2.74499 4.33686,-4.84495 -3.0931,-11.41017 -3.67946,-3.25123 -7.52624,-6.69882 -8.54841,-7.66132 -1.02217,-0.9625 -2.15369,-1.75 -2.51448,-1.75 -0.3608,0 -2.37222,-1.75081 -4.46983,-3.89069 -2.09761,-2.13988 -6.74131,-5.9797 -10.31933,-8.53292 l -6.50549,-4.64222 -3.77468,2.05049 c -2.07607,1.12778 -5.79968,3.54877 -8.27468,5.38 -4.75956,3.52155 -5.44843,6.3016 -2.40705,9.71408 0.77388,0.86831 1.44315,2.44331 1.48728,3.5 0.0441,1.05669 1.56418,4.62126 3.37789,7.92126 1.81372,3.3 4.3647,8.025 5.66885,10.5 1.30415,2.475 2.67342,4.72951 3.04282,5.01002 0.3694,0.28051 0.96546,1.68068 1.32457,3.1115 0.92817,3.6981 6.29519,9.87848 8.57844,9.87848 1.05996,0 1.9272,0.15586 1.9272,0.34636 0,1.06927 -3.31585,6.74638 -4.31722,7.39157 -1.40739,0.90679 -3.12269,3.58629 -5.09403,7.95749 -0.7926,1.75748 -2.40695,3.78248 -3.58746,4.5 -2.2382,1.36039 -10.00129,16.20741 -10.00129,19.12761 0,0.92233 -0.45,1.67697 -1,1.67697 -0.55,0 -1.00277,0.7875 -1.00616,1.75 -0.003,0.9625 -0.63363,2.95266 -1.40053,4.42258 -0.76691,1.46993 -1.90193,5.03923 -2.52228,7.9318 -0.62034,2.89257 -1.51177,5.7399 -1.98096,6.32742 -0.46918,0.58751 -1.17129,2.8682 -1.56024,5.0682 -1.00577,5.68894 -1.65255,30.70678 -0.84022,32.5 0.37373,0.825 0.7759,3.75 0.89371,6.5 0.49344,11.51823 4.16096,22.98822 13.2575,41.46225 3.32199,6.74652 6.16594,10.90672 9.90918,14.49522 2.8875,2.76821 5.25,5.57091 5.25,6.22831 0,0.6573 2.1375,2.9831 4.75,5.1683 5.28395,4.4197 26.63667,18.996 29.14514,19.8957 0.88267,0.3166 2.78717,1.3938 4.23221,2.3937 1.44505,0.9999 5.04505,2.4795 8,3.2879 2.95496,0.8085 7.47182,2.1341 10.03746,2.9458 5.30358,1.678 7.63396,2.1365 20.66389,4.0657 5.13079,0.7597 9.63079,1.7015 10,2.093 0.92241,0.9782 28.165,-0.2986 29.55356,-1.385 z M 366.14286,821.40574 c 4.12336,-1.57848 7.71401,-5.03129 10.74961,-10.33696 2.99162,-5.22881 3.12308,-5.92491 2.95238,-15.63285 -0.13577,-7.72121 -0.65632,-11.21312 -2.16836,-14.54562 -1.09434,-2.41189 -1.99959,-5.7928 -2.01167,-7.51314 -0.0121,-1.72033 -0.69696,-4.74337 -1.52196,-6.71788 -0.825,-1.9745 -1.5,-4.86845 -1.5,-6.43099 0,-1.56255 -0.62494,-3.69565 -1.38876,-4.74023 -0.76381,-1.04458 -1.21854,-2.36809 -1.0105,-2.94113 0.90879,-2.50325 -1.67301,-3.67238 -10.00907,-4.53243 -9.56705,-0.98706 -12.67774,-0.26217 -14.37985,3.351 -3.12773,6.63943 -4.21182,9.6977 -4.21182,11.88174 0,1.34197 -0.67013,4.64896 -1.48918,7.34887 -0.81904,2.69991 -1.49404,6.14643 -1.5,7.65893 -0.006,1.5125 -0.4427,2.75 -0.97056,2.75 -0.52786,0 -0.98986,1.2375 -1.02667,2.75 -0.0368,1.5125 -0.3168,6.27541 -0.62221,10.58425 -0.46771,6.59879 -0.20395,8.72773 1.67256,13.5 2.74765,6.98774 5.15673,9.59796 12.05681,13.06353 4.51519,2.26775 6.10208,2.58662 9.87925,1.98513 2.475,-0.39413 5.4,-1.06113 6.5,-1.48222 z M 310.6208,780.80928 c 2.25616,-4.50767 4.49792,-8.67268 4.98169,-9.25559 0.48377,-0.58291 1.20837,-2.36981 1.61021,-3.9709 0.40185,-1.60108 2.64806,-6.77357 4.99158,-11.4944 2.34352,-4.72084 4.56615,-10.21835 4.93917,-12.21669 0.66598,-3.56777 0.57726,-3.69412 -4.91523,-7 -3.34784,-2.01503 -5.84079,-4.28866 -6.20951,-5.66322 -1.2159,-4.53277 -0.31259,-4.34736 13.67416,2.80681 4.1525,2.12399 9.5525,4.55904 12,5.41123 6.00633,2.09132 25.14883,2.09954 34.44999,0.0148 6.2793,-1.40744 15.18471,-4.94085 16.5,-6.54673 0.275,-0.33575 1.95488,-1.35587 3.73307,-2.26692 1.77819,-0.91106 3.88357,-2.88635 4.67861,-4.38954 0.79504,-1.50319 2.71516,-4.12292 4.26693,-5.82164 4.061,-4.44556 9.32139,-11.18513 9.32139,-11.9425 0,-1.07869 4.40351,-4.40007 5.88084,-4.43566 1.02266,-0.0246 1.23357,0.87425 0.8131,3.46532 -0.47192,2.90811 -0.19865,3.68869 1.61916,4.62496 1.20279,0.61951 3.0869,1.93284 4.1869,2.91852 1.95443,1.75131 34.19301,18.19909 41.87212,21.3627 4.83848,1.99334 8.57666,2.02425 12.26357,0.10139 1.57537,-0.82161 3.61513,-1.49661 4.5328,-1.5 3.11658,-0.0115 9.75144,-7.00602 10.34381,-10.90451 0.30099,-1.98091 1.02703,-5.10298 1.61341,-6.93795 0.91973,-2.8781 0.78904,-3.59447 -0.95165,-5.21617 -1.1098,-1.03393 -2.30829,-2.7951 -2.66332,-3.9137 -0.35503,-1.11862 -1.31168,-2.03384 -2.12588,-2.03384 -0.8142,0 -2.58199,-1.18868 -3.92843,-2.64151 -2.29545,-2.47684 -3.74583,-3.4332 -10.7591,-7.09441 -1.54147,-0.80471 -4.91647,-1.65587 -7.5,-1.89147 -2.58353,-0.2356 -11.30105,-0.97832 -19.37226,-1.65049 -8.07122,-0.67216 -15.00872,-1.55962 -15.41667,-1.97212 -1.22569,-1.23935 -5.31498,-0.84967 -8.52989,0.81283 -5.01584,2.59379 -5.62552,1.14428 -5.39153,-12.81835 0.11286,-6.73446 -0.20294,-12.7736 -0.70177,-13.42029 -0.49882,-0.6467 -0.78515,-1.7717 -0.63628,-2.5 0.3422,-1.67406 -2.80718,-7.40577 -9.31303,-16.94928 -3.56006,-5.2223 -14.92902,-16.87491 -16.46413,-16.87491 -0.41928,0 -1.91196,-1.06953 -3.31705,-2.37674 -5.58911,-5.19973 -17.79655,-9.7497 -26.05472,-9.71113 -11.04257,0.0516 -17.99272,1.46987 -26,5.30572 -13.61868,6.52396 -27.7531,17.41771 -31.09274,23.96394 -1.07135,2.10001 -2.38876,3.81821 -2.92758,3.81821 -0.53883,0 -0.97968,0.79416 -0.97968,1.76481 0,0.97064 -0.9,3.44401 -2,5.49637 -1.1,2.05237 -2,4.3182 -2,5.0352 0,0.71699 -0.51965,1.82327 -1.15478,2.4584 -0.63513,0.63513 -1.30219,3.53763 -1.48236,6.45 -0.97222,15.7159 -1.03003,20.88289 -0.23911,21.3717 0.48194,0.29785 0.87625,1.61344 0.87625,2.92352 0,1.31008 0.45734,2.66462 1.01631,3.01008 0.55897,0.34546 0.79085,0.99293 0.51528,1.43881 -0.54873,0.88786 3.80581,9.60498 6.05933,12.12985 0.775,0.86831 1.40908,2.00156 1.40908,2.51833 0,0.51678 1.81508,3.13609 4.03352,5.82071 4.46241,5.40014 4.60203,6.92915 0.67528,7.39518 -1.45033,0.17212 -3.67539,1.54705 -4.94458,3.0554 -1.26919,1.50835 -3.08535,3.04089 -4.03592,3.40566 -0.95056,0.36477 -1.7283,1.12733 -1.7283,1.6946 0,0.56726 -0.53273,1.03138 -1.18384,1.03138 -0.65111,0 -3.35255,2.25 -6.0032,5 -2.65064,2.75 -5.24473,5 -5.76464,5 -0.5199,0 -2.07821,1.0125 -3.4629,2.25 -1.38469,1.2375 -3.88616,3.375 -5.5588,4.75 -4.32388,3.55444 -9.02683,8.19117 -9.0254,8.89831 0.003,1.25597 4.68389,5.85872 9.32068,9.16422 2.65205,1.89061 7.37705,5.34896 10.5,7.68523 3.12296,2.33626 6.4656,4.52624 7.4281,4.86663 0.9625,0.34038 1.75,1.03089 1.75,1.53447 0,1.04222 3.66415,2.69298 6.18792,2.78775 1.13896,0.0428 3.02203,-2.60209 5.79002,-8.13238 z m -65.23912,-43.80423 c 2.05236,-1.1 4.66073,-2 5.79637,-2 1.13565,0 2.49231,-0.37562 3.01481,-0.83472 0.5225,-0.45909 3.10527,-1.62809 5.73949,-2.59779 2.63422,-0.96969 6.00922,-2.78529 7.5,-4.03468 2.67963,-2.24573 16.64566,-9.53281 18.27007,-9.53281 0.4621,0 2.83927,-1.34917 5.28262,-2.99817 4.49296,-3.03226 6.28545,-5.4959 4.70803,-6.4708 -0.47435,-0.29316 -0.6271,-1.433 -0.33945,-2.53298 0.58002,-2.21799 -4.17125,-12.7723 -6.64302,-14.75661 -0.86226,-0.69221 -2.69274,-1.01106 -4.06774,-0.70856 -1.375,0.3025 -3.85,0.64385 -5.5,0.75856 -1.65,0.11471 -3.47657,0.51951 -4.05904,0.89955 -0.58247,0.38005 -4.63247,0.98607 -9,1.34672 -4.36753,0.36065 -9.51596,1.04866 -11.44096,1.52892 -5.7738,1.44047 -17.27844,3.08989 -20.75834,2.97612 -4.26698,-0.1395 -10.25802,5.79409 -12.13837,12.02198 -0.73651,2.4394 -1.5782,5.11027 -1.87041,5.93527 -2.76606,7.80932 4.68144,20.73966 12.82645,22.26928 5.38111,1.01057 9.12506,0.63578 12.67949,-1.26928 z M 128.27379,723.70746 c 0.38632,-0.38633 2.9899,-0.72923 5.78574,-0.76202 4.43596,-0.052 10.16365,-0.87012 17.08333,-2.44005 1.1,-0.24957 4.7,-1.06221 8,-1.80586 3.3,-0.74366 6.9,-1.8469 8,-2.45165 3.55248,-1.95305 11.10441,-5.24246 12.06572,-5.2555 1.65494,-0.0224 11.9357,-5.56407 14.47424,-7.80204 1.35302,-1.19282 6.87455,-6.33498 12.27006,-11.42702 5.39551,-5.09205 10.23301,-9.40827 10.75,-9.5916 0.51699,-0.18334 0.93998,-0.90513 0.93998,-1.60398 0,-0.69885 1.0125,-2.42415 2.25,-3.834 5.65568,-6.44333 6.79626,-8.07802 7.3731,-10.56719 0.33923,-1.46382 1.12531,-3.12049 1.74684,-3.68147 0.62153,-0.56099 1.65937,-1.96423 2.3063,-3.11832 1.81617,-3.23996 6.32376,-16.77385 6.32376,-18.98689 0,-1.08615 0.46196,-2.43678 1.02658,-3.0014 0.56461,-0.56461 1.27514,-3.46711 1.57894,-6.45 0.3038,-2.98288 0.94939,-6.32342 1.43464,-7.42342 2.00017,-4.53412 2.4865,-37.30667 0.58188,-39.21129 -0.34212,-0.34213 -0.62204,-1.87049 -0.62204,-3.39636 0,-1.52587 -0.45,-3.05243 -1,-3.39235 -0.55,-0.33992 -1,-1.65927 -1,-2.9319 0,-1.27262 -0.83934,-4.28357 -1.8652,-6.69098 -2.64409,-6.20494 -3.39765,-8.18341 -3.71654,-9.75782 -0.15381,-0.75938 -0.76084,-1.86188 -1.34896,-2.45 -0.58811,-0.58811 -1.0693,-2.1043 -1.0693,-3.3693 0,-1.265 -0.41425,-2.3 -0.92054,-2.3 -0.5063,0 -1.21706,-1.35 -1.57946,-3 -0.3624,-1.65 -1.07316,-3 -1.57946,-3 -0.50629,0 -0.92054,-0.60526 -0.92054,-1.34501 0,-0.73976 -0.9,-2.1595 -2,-3.15499 -1.1,-0.99549 -2,-2.23065 -2,-2.7448 0,-0.92614 -0.92066,-2.03959 -8.88849,-10.74977 -2.26133,-2.47202 -4.11151,-4.75165 -4.11151,-5.06586 0,-0.31421 -1.6875,-1.5323 -3.75,-2.70687 -2.0625,-1.17458 -5.0011,-3.48143 -6.53021,-5.12635 -1.52912,-1.64491 -3.77912,-3.30651 -5,-3.69244 -1.22089,-0.38592 -3.60985,-1.76009 -5.30881,-3.0537 -1.69895,-1.2936 -4.62395,-2.8436 -6.5,-3.44444 -3.17113,-1.01561 -8.03171,-3.04145 -12.14741,-5.06291 -0.95504,-0.46907 -2.16324,-0.85286 -2.6849,-0.85286 -0.52166,0 -2.21527,-0.51365 -3.76357,-1.14145 -1.54831,-0.6278 -3.4901,-1.2709 -4.3151,-1.42911 -3.74768,-0.71868 -8.71887,-2.20644 -10.52353,-3.14944 -6.9338,-3.62315 -45.52717,-3.05633 -50.976465,0.7487 -0.55,0.38404 -2.92932,0.9927 -5.28737,1.35257 -7.49536,1.1439 -33.12138,11.64326 -35.17419,14.41139 -0.29614,0.39933 -2.33844,1.91752 -4.53844,3.37375 -6.71748,4.44645 -21.42284,19.61777 -29.3031,30.23158 -3.35871,4.52381 -8.13391,14.15039 -10.71552,21.60201 -3.6493105,10.53343 -4.7030705,13.40553 -5.5542005,15.1384 -0.8292,1.68822 -2.51647,18.38483 -2.08289,20.6116 0.13386,0.6875 -0.28552,1.25 -0.93196,1.25 -2.89301,0 3.08736,36.28488 7.6889005,46.65113 0.76932,1.73312 1.39877,3.47685 1.39877,3.87495 0,0.86567 4.72893,12.1345 6.28376,14.97392 0.60235,1.1 1.89535,3.6356 2.87333,5.63467 0.97798,1.99907 3.14272,4.92261 4.81053,6.49675 1.66781,1.57415 3.03238,3.2196 3.03238,3.65655 0,1.53544 20.74622,21.49657 23.10927,22.23476 1.3149,0.41076 2.61573,1.07427 2.89073,1.47447 0.275,0.40021 3.875,2.40189 8,4.44818 4.125,2.0463 9.52169,4.88208 11.99265,6.30173 2.47096,1.41965 5.39596,2.74191 6.5,2.93835 11.29961,2.0105 15.45814,2.93199 16.09202,3.56587 0.41176,0.41177 3.261155,0.7803 6.331995,0.81896 3.07083,0.0387 6.48333,0.46435 7.58333,0.946 2.27597,0.99655 14.06505,0.752 15.13093,-0.31388 z m 489.73608,-4.65508 c 5.4268,-0.48472 10.3543,-1.36867 10.95,-1.96432 0.5956,-0.59566 2.2646,-1.08301 3.7088,-1.08301 3.7732,0 21.3014,-8.92399 29.2699,-14.9019 3.7376,-2.80396 7.0546,-5.0981 7.3709,-5.0981 1.2382,0 13.6971,-12.74835 16.6141,-17 1.698,-2.475 3.3511,-4.725 3.6737,-5 0.9222,-0.78644 3.4571,-6.36724 3.5148,-7.73821 0.029,-0.68101 0.9538,-1.86975 2.0558,-2.64164 1.7618,-1.234 3.889,-5.2459 8.5472,-16.12015 1.4924,-3.4841 1.3751,-3.13258 2.3371,-7 0.4105,-1.65 1.1361,-3.9 1.6125,-5 0.7702,-1.77839 1.5934,-6.66029 2.698,-16 0.1951,-1.65 0.3484,-5.7 0.3407,-9 -0.01,-3.3 0.012,-10.56323 0.044,-16.1405 0.033,-5.63447 -0.3785,-10.41054 -0.9248,-10.74821 -0.5408,-0.33423 -1.2969,-3.30932 -1.6801,-6.61129 -0.3832,-3.30197 -1.1025,-6.25434 -1.5984,-6.56081 -0.4959,-0.30647 -0.9016,-1.2619 -0.9016,-2.12316 0,-0.86127 -1.1753,-4.32221 -2.6117,-7.69098 -1.4364,-3.36878 -3.0744,-7.25005 -3.6402,-8.62505 -2.1614,-5.25356 -4.2326,-9 -4.9755,-9 -0.4249,0 -0.7726,-0.675 -0.7726,-1.5 0,-0.825 -0.4012,-1.5 -0.8916,-1.5 -0.4904,0 -1.1997,-1.2275 -1.5762,-2.72778 -0.3766,-1.50028 -2.5629,-4.80547 -4.8584,-7.34487 -2.2956,-2.5394 -5.6998,-6.4869 -7.5648,-8.77222 -1.8651,-2.28532 -3.9802,-4.15513 -4.7003,-4.15513 -0.7201,0 -1.6692,-0.61403 -2.109,-1.36452 -0.4398,-0.75049 -2.2622,-2.11204 -4.0497,-3.02568 -1.7875,-0.91364 -3.25,-2.05894 -3.25,-2.54511 0,-2.36933 -24.6208,-16.06469 -28.8802,-16.06469 -1.0312,0 -2.3958,-0.62761 -3.0324,-1.39468 -0.6366,-0.76708 -2.6042,-1.6417 -4.3724,-1.9436 -5.5787,-0.95248 -14.1373,-2.87629 -16.215,-3.64481 -6.3694,-2.35596 -10.1363,-2.81583 -20.5,-2.50273 -13.63431,0.41191 -23.09039,1.40482 -24.56821,2.57972 -0.58752,0.46708 -3.43485,1.35679 -6.32742,1.97713 -2.89257,0.62035 -6.46187,1.75537 -7.9318,2.52228 -1.46992,0.7669 -3.15533,1.39714 -3.74537,1.40053 -0.59003,0.003 -3.96503,1.40868 -7.5,3.12287 -3.53496,1.7142 -7.32721,3.52088 -8.42721,4.01485 -1.1,0.49397 -3.14633,1.67895 -4.5474,2.63329 -1.40107,0.95433 -4.2252,2.79896 -6.27584,4.09917 -2.05064,1.30021 -4.18264,3.21271 -4.73778,4.25 -0.55514,1.03729 -1.63196,1.88598 -2.39292,1.88598 -0.76097,0 -2.86915,1.575 -4.68486,3.5 -1.81571,1.925 -3.87727,3.5 -4.58125,3.5 -0.70397,0 -1.27995,0.92905 -1.27995,2.06456 0,1.13551 -1.25061,3.11688 -2.77913,4.40305 -1.52852,1.28616 -3.42341,3.61961 -4.21086,5.18544 -0.78745,1.56582 -3.58684,5.87756 -6.22087,9.58164 -2.63403,3.70407 -4.79484,7.07907 -4.80181,7.5 -0.007,0.42092 -1.3183,3.33958 -2.91408,6.48591 -1.59578,3.14633 -3.2075,7.11414 -3.58159,8.81736 -0.37409,1.70322 -1.30998,4.30395 -2.07975,5.7794 -0.76977,1.47545 -1.40236,3.66858 -1.40575,4.87362 -0.003,1.20504 -0.39705,2.43257 -0.87481,2.72784 -0.79526,0.4915 -1.24714,2.43795 -2.92079,12.58118 -0.84027,5.09252 -0.71115,26.98892 0.17986,30.5 0.41873,1.65 0.8774,4.15948 1.01928,5.57663 0.14188,1.41714 0.5004,2.99214 0.79672,3.5 0.29631,0.50785 0.8632,3.17337 1.25975,5.92337 0.39655,2.75 1.07024,5.45 1.49709,6 0.42685,0.55 1.34657,2.76911 2.04382,4.93135 1.68164,5.21495 6.95563,16.42757 8.043,17.0996 0.47441,0.29321 0.63136,1.13562 0.34878,1.87203 -0.28259,0.73642 0.20588,1.6151 1.0855,1.95264 0.87961,0.33754 2.1586,1.9439 2.84219,3.56969 1.25717,2.98994 17.06646,20.07469 18.57601,20.07469 0.44973,0 2.40954,1.50132 4.35515,3.33626 1.9456,1.83494 4.93355,3.91453 6.63987,4.62132 1.70633,0.70678 3.10242,1.67443 3.10242,2.15032 0,0.47589 1.6875,1.56712 3.75,2.42495 2.0625,0.85783 5.325,2.63484 7.25,3.94891 1.925,1.31406 6.36069,3.36993 9.8571,4.56859 3.4964,1.19866 7.5464,2.79992 9,3.55836 1.45359,0.75843 3.5654,1.38174 4.6929,1.38513 1.1275,0.003 2.4775,0.42916 3,0.94616 0.5225,0.51701 3.2,1.1109 5.95,1.31976 10.14692,0.77065 40.29871,0.64221 49.86701,-0.21243 z M 286.32143,670.08202 c 2.71118,-0.0958 5.41226,-2.6767 4.71177,-4.50215 -0.28858,-0.75202 0.29304,-1.9765 1.29249,-2.72107 0.99944,-0.74456 1.83235,-1.80375 1.85091,-2.35375 0.0186,-0.55 0.40036,-2.94061 0.84845,-5.31247 0.63926,-3.38377 0.47001,-4.69336 -0.78592,-6.08115 -0.88035,-0.97278 -1.3448,-2.02451 -1.03212,-2.33719 0.31268,-0.31268 -4.74884,-3.26583 -11.24782,-6.56255 -6.49898,-3.29672 -15.81327,-8.06687 -20.69843,-10.60034 -4.88515,-2.53346 -9.68969,-4.6063 -10.67675,-4.6063 -1.92128,0 -4.94115,5.02343 -4.94115,8.21938 0,1.05166 -0.5096,2.8643 -1.13245,4.0281 -0.62284,1.1638 -1.76024,4.62171 -2.52755,7.68426 -1.8163,7.24935 -2.43304,9.12187 -4.63352,14.06826 -0.61169,1.375 -1.20599,2.72996 -1.32065,3.01103 -0.11466,0.28106 0.39439,1.3355 1.13123,2.34319 1.57062,2.14795 15.4853,4.55644 27.48294,4.75702 4.125,0.069 8.82098,0.40965 10.43552,0.75707 1.61454,0.34743 4.31454,0.55382 6,0.45866 1.68546,-0.0952 4.04484,-0.20767 5.24305,-0.25 z m 162.82143,-2.1655 c 7.7,-0.58518 14.9,-1.45888 16,-1.94157 2.62117,-1.15018 9.34499,-2.87563 12.5,-3.20772 1.57148,-0.16541 2.4129,-0.82008 2.26548,-1.76266 -0.65811,-4.20786 -2.81477,-10.99952 -3.49284,-10.99952 -0.42495,0 -0.77264,-0.61756 -0.77264,-1.37236 0,-1.81771 -4.6691,-16.24276 -6.61538,-20.43802 -0.84467,-1.82072 -2.11986,-3.53453 -2.83376,-3.80848 -0.7139,-0.27395 -4.21098,0.87823 -7.77127,2.56039 -3.5603,1.68216 -6.9547,3.05847 -7.5431,3.05847 -0.5884,0 -1.21982,0.36598 -1.40316,0.81328 -0.18333,0.44731 -5.54219,3.32639 -11.90858,6.39797 -11.99353,5.78649 -16.92475,9.92727 -16.92475,14.21184 0,2.51114 2.76624,8.69365 4.36481,9.7553 0.6888,0.45744 0.65866,1.47468 -0.0925,3.12337 -0.96337,2.11436 -0.82045,2.58745 1.05685,3.49849 3.67425,1.78309 5.09395,2.10618 7.17087,1.6319 1.1,-0.25119 8.3,-0.93549 16,-1.52068 z M 315.00671,628.7945 c 5.40226,-2.88723 11.63615,-8.73702 11.63615,-10.91922 0,-0.94813 -2.47009,-6.5943 -5.48908,-12.54705 -3.019,-5.95275 -5.494,-11.34818 -5.5,-11.98985 -0.006,-0.64166 -0.34842,-1.31666 -0.76092,-1.5 -0.71531,-0.31791 -5.66342,-10.00035 -10.22236,-20.00303 -3.29202,-7.22299 -13.61379,-13.74526 -19.78664,-12.50308 -7.01212,1.41108 -8.8114,1.99142 -9.74484,3.14315 -0.55211,0.68123 -1.94401,1.537 -3.09311,1.90171 -2.85031,0.90465 -8.40305,8.86162 -8.40305,12.0414 0,1.42258 -0.38831,2.58652 -0.86292,2.58652 -1.04435,0 1.6098,8.47122 3.79505,12.11262 0.86233,1.43694 2.88986,4.81194 4.50562,7.5 2.65811,4.42216 17.01316,19.38738 18.59691,19.38738 0.35924,0 2.99986,2.25 5.86806,5 2.86819,2.75 5.80833,5 6.53364,5 0.72531,0 1.87895,0.675 2.56364,1.5 1.76062,2.12141 5.55124,1.86152 10.36385,-0.71055 z m 92.09978,0.26939 c 0.31992,-0.51764 2.58445,-1.94139 5.03228,-3.1639 4.00147,-1.99843 8.14817,-5.2553 22.39761,-17.59137 2.41643,-2.09196 6.20997,-6.27857 8.43008,-9.30357 2.22012,-3.025 4.29725,-5.725 4.61586,-6 1.00195,-0.86482 5.06054,-11.45958 5.06054,-13.21031 0,-0.91941 -0.45,-1.94977 -1,-2.28969 -0.55,-0.33992 -1,-1.68195 -1,-2.98229 0,-1.30034 -1.125,-3.70125 -2.5,-5.33534 -1.375,-1.6341 -2.5,-3.4098 -2.5,-3.94601 0,-0.53622 -2.66005,-2.12856 -5.91121,-3.53856 -5.57033,-2.41578 -6.20179,-2.48697 -10.94999,-1.23441 -8.92833,2.35524 -14.65059,7.37844 -21.11629,18.53661 -2.39027,4.125 -5.17317,8.57319 -6.18423,9.88486 -1.01105,1.31167 -1.83828,3.0422 -1.83828,3.84563 0,0.80342 -0.92951,2.76615 -2.06558,4.36161 -1.13607,1.59546 -2.28125,4.09018 -2.54484,5.54381 -0.2636,1.45364 -1.18389,4.26773 -2.0451,6.25353 -0.86121,1.98581 -1.77441,5.22386 -2.02934,7.19567 -0.59682,4.61617 2.88911,9.00212 8.6716,10.91051 2.26244,0.74667 4.34252,1.72812 4.62241,2.18098 0.68176,1.10311 2.13705,1.04308 2.85448,-0.11776 z M 366.7086,611.96987 c 1.06384,-0.56935 1.93703,-1.58185 1.94042,-2.25 0.003,-0.66815 0.69472,-2.53523 1.53629,-4.14907 0.84157,-1.61383 1.29387,-3.54991 1.00511,-4.30239 -0.28875,-0.75249 0.25742,-2.56228 1.21372,-4.02178 0.9563,-1.45949 1.63853,-2.78119 1.51608,-2.9371 -0.12246,-0.15592 -0.0695,-0.85071 0.11777,-1.54398 1.73218,-6.414 4.83585,-19.76726 5.05775,-21.7605 0.15307,-1.375 0.60185,-3.26121 0.99729,-4.19159 0.39544,-0.93037 0.56253,-2.50537 0.37131,-3.5 -0.32076,-1.66847 -2.03162,-1.82927 -22.10845,-2.07798 -25.3724,-0.31431 -24.0084,-0.99789 -21.37347,10.71144 0.93543,4.15697 1.90176,8.68313 2.14739,10.05813 0.24564,1.375 0.91783,5.2 1.49378,8.5 0.57594,3.3 1.4585,6.9 1.96125,8 0.50275,1.1 1.20129,3.73778 1.55233,5.86173 0.35103,2.12395 1.71296,4.93645 3.02651,6.25 2.09932,2.09932 3.30914,2.38827 9.99947,2.38827 4.18615,0 8.48161,-0.46583 9.54545,-1.03518 z m 0.17326,-55.91566 c 4.80645,-0.43231 9.30645,-1.25495 10,-1.8281 0.69355,-0.57315 2.95347,-1.35837 5.02205,-1.74494 2.06857,-0.38656 4.00763,-1.10183 4.30901,-1.58948 0.30139,-0.48765 1.77129,-0.88664 3.26645,-0.88664 1.49516,0 3.60611,-0.61859 4.69098,-1.37466 1.08488,-0.75606 3.9124,-1.70024 6.28337,-2.09817 8.22926,-1.38119 28.26081,-12.91264 33.4868,-19.27717 1.01612,-1.2375 2.30037,-2.25 2.85387,-2.25 1.35287,0 9.84847,-8.55821 9.84847,-9.92105 0,-0.59342 0.3375,-1.08063 0.75,-1.08268 0.81861,-0.004 10.25,-11.38043 10.25,-12.36378 0,-0.3328 2.03221,-4.27905 4.51602,-8.76944 2.4838,-4.49039 4.27969,-8.40067 3.99085,-8.68951 -0.28884,-0.28884 0.45739,-1.57105 1.6583,-2.84935 1.2009,-1.27831 1.82492,-2.32419 1.3867,-2.32419 -0.43822,0 -0.35832,-0.5625 0.17755,-1.25 0.53587,-0.6875 1.82477,-3.725 2.86423,-6.75 1.03945,-3.025 2.26523,-5.77265 2.72396,-6.10588 0.45872,-0.33323 1.05943,-2.58323 1.3349,-5 0.27547,-2.41677 0.94697,-5.32177 1.49223,-6.45556 0.89345,-1.85779 0.65438,-15.67227 -0.49215,-28.43856 -0.57208,-6.36991 -2.39496,-14.89799 -4.06127,-19 -1.55452,-3.82681 -2.84586,-7.21713 -3.04714,-8 -0.30059,-1.16917 -4.78255,-9.78754 -6.82535,-13.12448 -5.07559,-8.29104 -6.18819,-9.87552 -6.93444,-9.87552 -0.43141,0 -0.78439,-0.60526 -0.78439,-1.34501 0,-0.73976 -0.9,-2.1595 -2,-3.15499 -1.1,-0.99549 -2,-2.19137 -2,-2.65751 0,-0.46615 -2.8125,-3.73228 -6.25,-7.25807 -3.4375,-3.5258 -7.20944,-7.46216 -8.3821,-8.74748 -5.16615,-5.66249 -8.70267,-8.19492 -18.46557,-13.22276 -5.72128,-2.94643 -12.60685,-6.53998 -15.30127,-7.98567 -2.69442,-1.44568 -5.70536,-2.62851 -6.69098,-2.62851 -0.98563,0 -2.07016,-0.45 -2.41008,-1 -0.33992,-0.55 -1.60398,-1.01975 -2.80902,-1.04389 -1.20504,-0.0241 -3.99098,-0.69706 -6.19098,-1.49538 -7.26136,-2.63494 -21.0311,-3.71138 -32.5,-2.54067 -20.96364,2.1399 -20.90901,2.12986 -27.5,5.05544 -2.75,1.22067 -7.475,3.05513 -10.5,4.07659 -12.16437,4.10759 -19,7.30811 -19,8.89604 0,0.49322 -1.47402,1.38324 -3.2756,1.97781 -1.80158,0.59458 -5.47953,3.10448 -8.17323,5.57755 -2.69369,2.47308 -5.19736,4.49651 -5.56372,4.49651 -0.36635,0 -2.05528,1.4625 -3.75317,3.25 -1.69789,1.7875 -5.59519,5.71437 -8.66068,8.72637 -3.06548,3.01201 -5.58063,5.937 -5.58922,6.5 -0.009,0.563 -1.79604,3.04863 -3.97211,5.52363 -2.17608,2.475 -4.506,5.85 -5.17761,7.5 -0.67161,1.65 -1.55279,3.23217 -1.95818,3.51593 -2.41604,1.6912 -6.77641,12.53611 -7.40669,18.42158 -0.38653,3.60937 -1.03768,6.56249 -1.447,6.56249 -2.2405,0 -2.86528,22.53154 -1.03984,37.5 0.60366,4.95 1.08076,10.05759 1.06022,11.3502 -0.0205,1.29261 0.27362,2.85335 0.65369,3.46833 0.38007,0.61497 0.75384,2.25738 0.83059,3.6498 0.0768,1.39242 0.90651,5.13456 1.84392,8.31587 0.93741,3.18132 1.43578,6.21882 1.10749,6.75 -0.32829,0.53119 -0.11455,0.9658 0.47499,0.9658 0.58953,0 2.64392,3.23019 4.5653,7.17821 1.92138,3.94801 4.1656,7.92094 4.98714,8.82874 0.82154,0.90779 1.49371,2.13201 1.49371,2.72049 0,0.58847 3.05261,4.37804 6.78358,8.42125 3.73097,4.04322 7.50944,8.50196 8.3966,9.90832 0.88716,1.40635 4.2325,4.33135 7.43409,6.5 3.20159,2.16864 7.0375,5.15957 8.52425,6.6465 1.48675,1.48693 4.2013,3.40741 6.03233,4.26773 3.67808,1.72817 9.05043,4.75004 9.82915,5.52876 1.20876,1.20876 12.94789,5.95759 17.5,7.07927 2.75,0.67763 6.33518,1.89907 7.96706,2.71432 1.64204,0.82032 7.00093,1.70013 12,1.97012 4.96812,0.26832 9.70794,0.88459 10.53294,1.36949 0.825,0.48489 2.625,0.6162 4,0.29179 1.375,-0.32441 6.43255,-0.94353 11.239,-1.37583 z"
       id="path4092"
       inkscape:connector-curvature="0"
       sodipodi:nodetypes="cssssscccccccccssscssssccscssscssssssscccssssssssssssssssssssssssscsscsssssssssscccsssscccssccsssscsssccsccscscssscssssssscssssssssssssscsssssscssscssssssssssscsssssssssscsccscccsssscsssssssscsssssssssssssssssssssscsssssssssssssssssscssssssssssssssssssssssssssssscsssscssssssssssssscsssssssssssscsscssssssssscsssssssssssssssssssssssssssssssssssssssssssssscssccsssccccccsccccsssscssscccsssssssssssscsssssssssssscssscsssssssscssssssssssscssccssscsssssssssscssscscssssssssscssscssccsssscsssssssssssssssssssssssssssssssssssscscsscssssssssssssssscsssssscsssssssssssssssssssssssscsssssssssscsscssscscssssssssssssssssss" />
  </g>
</svg>
