<?xml version="1.0" encoding="UTF-8" standalone="no"?>
<!-- Created with Inkscape (http://www.inkscape.org/) -->
<svg
   xmlns:dc="http://purl.org/dc/elements/1.1/"
   xmlns:cc="http://creativecommons.org/ns#"
   xmlns:rdf="http://www.w3.org/1999/02/22-rdf-syntax-ns#"
   xmlns:svg="http://www.w3.org/2000/svg"
   xmlns="http://www.w3.org/2000/svg"
   xmlns:sodipodi="http://sodipodi.sourceforge.net/DTD/sodipodi-0.dtd"
   xmlns:inkscape="http://www.inkscape.org/namespaces/inkscape"
   width="494"
   height="499"
   id="svg2"
   sodipodi:version="0.32"
   inkscape:version="0.46"
   version="1.0"
   sodipodi:docname="bw.svg"
   inkscape:output_extension="org.inkscape.output.svg.inkscape">
  <defs
     id="defs4">
    <inkscape:perspective
       sodipodi:type="inkscape:persp3d"
       inkscape:vp_x="0 : 526.18109 : 1"
       inkscape:vp_y="0 : 1000 : 0"
       inkscape:vp_z="744.09448 : 526.18109 : 1"
       inkscape:persp3d-origin="372.04724 : 350.78739 : 1"
       id="perspective10" />
    <inkscape:perspective
       id="perspective2467"
       inkscape:persp3d-origin="372.04724 : 350.78739 : 1"
       inkscape:vp_z="744.09448 : 526.18109 : 1"
       inkscape:vp_y="0 : 1000 : 0"
       inkscape:vp_x="0 : 526.18109 : 1"
       sodipodi:type="inkscape:persp3d" />
  </defs>
  <sodipodi:namedview
     id="base"
     pagecolor="#ffffff"
     bordercolor="#666666"
     borderopacity="1.0"
     gridtolerance="10000"
     guidetolerance="10"
     objecttolerance="10"
     inkscape:pageopacity="0.0"
     inkscape:pageshadow="2"
     inkscape:zoom="0.7"
     inkscape:cx="387.26087"
     inkscape:cy="266.492"
     inkscape:document-units="px"
     inkscape:current-layer="layer1"
     showgrid="false"
     inkscape:window-width="1267"
     inkscape:window-height="713"
     inkscape:window-x="0"
     inkscape:window-y="0" />
  <metadata
     id="metadata7">
    <rdf:RDF>
      <cc:Work
         rdf:about="">
        <dc:format>image/svg+xml</dc:format>
        <dc:type
           rdf:resource="http://purl.org/dc/dcmitype/StillImage" />
      </cc:Work>
    </rdf:RDF>
  </metadata>
  <g
     inkscape:label="Layer 1"
     inkscape:groupmode="layer"
     id="layer1"
     transform="translate(-158.71428,-42.862183)">
    <rect
       style="opacity:1;fill:#000000;fill-opacity:1;stroke:#000000;stroke-width:23;stroke-linecap:square;stroke-miterlimit:4;stroke-dasharray:none;stroke-dashoffset:0;stroke-opacity:1"
       id="rect2475"
       width="551.42859"
       height="548.57141"
       x="-10"
       y="-9.5714293"
       transform="translate(158.71428,42.862183)" />
    <path
       style="fill:#ffffff"
       d="M 397.77092,505.43763 C 390.84578,504.99783 381.76994,504.12123 377.6024,503.48953 C 373.43485,502.85773 367.94431,502.14583 365.4012,501.90743 C 360.06435,501.40713 345.98634,498.03513 340.86208,496.02973 C 338.93708,495.27643 333.40719,493.19233 328.57344,491.39853 C 323.73968,489.60473 319.50681,487.68723 319.16706,487.13753 C 318.78039,486.51183 319.4494,486.39433 320.95571,486.82333 C 325.74303,488.18673 351.56973,492.63593 360.36208,493.61193 C 365.31208,494.16143 380.16208,494.55253 393.36208,494.48093 C 414.03084,494.36893 419.3053,494.00883 431.36208,491.88663 C 439.06208,490.53133 447.16208,488.95383 449.36208,488.38093 C 451.56208,487.80813 454.94374,486.93653 456.87689,486.44403 C 465.57609,484.22793 484.09951,474.99163 497.22603,466.32473 C 500.45121,464.19533 503.30456,462.45303 503.56681,462.45303 C 503.82907,462.45303 508.43704,458.06553 513.80674,452.70303 C 533.55361,432.98263 546.5486,410.86446 552.43647,386.95305 C 553.24905,383.65305 554.65625,378.02805 555.56359,374.45305 C 558.40658,363.25134 557.80856,330.85741 554.49287,316.45305 C 554.17636,315.07805 553.19446,310.80305 552.31087,306.95305 C 550.86125,300.63671 548.56568,294.5131 545.56317,288.95305 C 544.96915,287.85305 543.60878,285.15305 542.54012,282.95305 C 539.2953,276.2731 527.36167,261.13388 519.79283,254.09543 C 515.86422,250.44212 512.32296,247.45305 511.92336,247.45305 C 511.52376,247.45305 509.7962,249.19592 508.08434,251.3261 C 504.37342,255.94385 494.49355,263.11347 486.86208,266.72668 C 468.79228,275.28202 444.14771,274.72015 425.66665,265.33149 C 418.96916,261.92907 402.06486,247.98409 401.93301,245.75274 C 401.894,245.09257 401.2718,244.19257 400.55034,243.75274 C 398.30777,242.38557 391.69365,227.33791 389.73182,219.1397 C 387.30021,208.9784 387.36739,199.71323 389.95987,187.6856 C 393.70378,170.31605 400.06916,159.12609 412.13169,148.70889 C 420.21985,141.72395 423.53624,139.94353 437.00771,135.35409 C 445.51565,132.45562 447.40266,132.17693 457.86208,132.27416 C 470.42478,132.39094 474.54466,132.77831 481.06098,134.45542 C 501.82452,139.79936 515.68666,146.95404 536.36208,162.99804 C 545.30258,169.93582 566.22629,191.32379 568.60173,195.95305 C 569.44841,197.60305 570.49939,199.1867 570.93724,199.47228 C 571.78873,200.02764 587.86208,226.24211 587.86208,227.07546 C 587.86208,227.34841 589.64913,231.25754 591.83331,235.7624 C 597.266,246.9673 600.74208,256.62957 602.33487,264.95305 C 603.07162,268.80305 604.16777,274.08713 604.77078,276.69545 C 605.37378,279.30377 605.79456,281.77877 605.70585,282.19545 C 605.61714,282.61213 605.80278,283.62805 606.11838,284.45305 C 607.15369,287.15943 608.10061,295.77861 608.48042,305.95305 C 608.89069,316.94333 607.31409,339.15433 606.00198,340.86898 C 605.21602,341.89608 603.52359,347.98662 602.50515,353.45305 C 601.46283,359.04762 590.0248,384.59624 584.37344,393.95305 C 583.04467,396.15305 581.62912,398.62805 581.22777,399.45305 C 580.82641,400.27805 578.92373,403.42805 576.99959,406.45305 C 565.90215,423.89965 565.35775,424.58652 549.61208,441.00733 C 545.34958,445.45253 541.86208,449.39753 541.86208,449.77393 C 541.86208,451.71633 527.5223,462.72223 511.39998,473.15383 C 499.70313,480.72193 472.40481,494.41263 464.86208,496.49343 C 445.23095,501.90923 434.57577,504.31723 427.86208,504.85533 C 423.73708,505.18593 418.11208,505.63213 415.36208,505.84683 C 412.61208,506.06153 404.69606,505.87733 397.77092,505.43763 z M 351.54461,478.80813 C 351.44422,478.72833 349.26315,478.38343 346.6978,478.04163 C 338.16174,476.90423 315.46358,470.80353 306.35294,467.19803 C 295.18568,462.77853 278.57697,454.22113 273.67072,450.35893 C 271.64047,448.76073 269.48885,447.45303 268.88933,447.45303 C 268.28982,447.45303 267.54029,446.77803 267.22371,445.95303 C 266.90712,445.12803 266.10566,444.45303 265.44268,444.45303 C 263.93996,444.45303 248.79951,428.39538 238.18118,415.54004 C 230.25777,405.94737 220.47946,387.98511 207.9207,359.95305 C 200.31813,342.98357 197.40853,332.92592 197.6939,324.60186 C 197.75709,322.75871 197.12856,319.93526 196.29718,318.32755 C 195.4658,316.71983 194.8893,314.85286 195.01608,314.17874 C 195.14286,313.50461 194.66056,308.34957 193.94429,302.7231 C 192.08454,288.11409 192.96552,259.39063 195.74684,243.95305 C 197.89343,232.0385 203.94266,210.2447 206.43314,205.45305 C 207.14781,204.07805 209.55266,198.99048 211.77726,194.14733 C 219.37372,177.6092 237.17716,153.0877 253.33355,136.90994 C 263.93724,126.29224 279.56347,112.82111 280.35637,113.61401 C 280.56623,113.82387 276.67769,118.711 271.71517,124.47431 C 266.75265,130.23762 259.63618,139.00305 255.9008,143.95305 C 249.28853,152.71541 237.86208,169.85477 237.86208,171.01064 C 237.86208,171.32736 236.78984,173.01897 235.47933,174.76977 C 232.55877,178.67153 223.30472,196.61617 219.65595,205.45305 C 218.17982,209.02805 215.42565,217.80305 213.53558,224.95305 C 206.40379,251.93199 206.35104,252.29914 206.49564,273.95305 C 206.62405,293.18071 206.74659,294.33922 209.66889,303.95305 C 212.93399,314.6946 214.46708,319.21991 216.44452,323.95305 C 217.13387,325.60305 218.48881,328.97805 219.4555,331.45305 C 220.42219,333.92805 222.25914,337.52001 223.5376,339.43518 C 224.81606,341.35036 225.86208,343.48786 225.86208,344.18518 C 225.86208,344.88251 226.31208,345.45305 226.86208,345.45305 C 227.41208,345.45305 227.86208,346.12805 227.86208,346.95305 C 227.86208,347.77805 228.19958,348.45612 228.61208,348.45988 C 229.02458,348.46364 230.48708,350.14249 231.86208,352.19067 C 234.50846,356.13265 253.61149,375.71411 260.36208,381.40443 C 273.19278,392.2199 294.05849,402.15549 317.86208,408.78411 C 327.32785,411.42006 345.79363,412.74954 354.62051,411.43061 C 369.19711,409.25254 386.86165,404.40411 386.86231,402.58112 C 386.86243,402.23568 385.69057,397.96951 384.25817,393.10075 C 380.64939,380.83438 381.13207,374.03622 386.88435,356.11293 C 390.94447,343.46218 391.81754,341.68907 397.04383,335.48024 C 403.41071,327.91639 413.70747,319.69538 421.47614,315.9733 C 424.28887,314.62568 430.58887,312.2994 435.47614,310.80378 C 451.02022,306.04693 467.92493,307.72979 484.86208,315.72014 C 495.45487,320.71745 496.29617,321.382 504.84907,331.50809 C 512.04562,340.02836 520.94382,356.42173 520.71723,360.7424 C 520.65346,361.95826 521.10657,365.87805 521.72413,369.45305 C 523.2443,378.25312 523.13015,387.91363 521.43465,393.95305 C 519.67102,400.23512 517.84289,405.51053 516.75637,407.45305 C 516.29492,408.27805 515.14108,410.52805 514.19227,412.45305 C 509.19569,422.59047 495.63592,437.07723 482.36208,446.45923 C 470.51087,454.83563 451.36265,464.28983 435.86208,469.41803 C 422.96513,473.68483 408.24629,477.28843 403.86208,477.25253 C 402.48708,477.24133 394.53904,477.76323 386.19976,478.41253 C 374.21409,479.34553 352.53303,479.59303 351.54461,478.80813 z M 289.36208,355.52396 C 284.58609,354.56109 278.94407,352.55845 275.36208,350.55466 C 272.06208,348.70861 267.71548,346.3648 265.70297,345.3462 C 260.35465,342.63923 247.72966,329.81419 244.15131,323.45305 C 235.66549,308.368 229.35027,280.43253 230.24834,261.95305 C 231.221,241.93886 234.32856,222.2196 237.81266,213.95305 C 238.27628,212.85305 239.63695,209.02805 240.83637,205.45305 C 242.03578,201.87805 243.65724,197.53504 244.4396,195.80192 C 245.22197,194.0688 245.86208,192.15019 245.86208,191.53835 C 245.86208,190.92651 246.28064,189.64452 246.79221,188.68948 C 247.30378,187.73444 250.62624,181.0355 254.17545,173.80293 C 257.72466,166.57036 262.12648,158.47036 263.95728,155.80293 C 273.35196,142.11504 291.17065,122.57842 301.87285,114.23182 C 303.79193,112.73515 306.68414,110.48515 308.29999,109.23182 C 321.83403,98.734253 347.7599,86.761533 364.36208,83.342023 C 379.66243,80.190643 401.24794,78.227053 412.85586,78.930643 C 447.53527,81.032673 462.9407,84.220883 491.36208,95.177783 C 504.8269,100.36868 522.39907,109.13306 531.72933,115.31153 C 536.83029,118.68937 541.25,121.45305 541.55092,121.45305 C 542.08234,121.45305 544.70235,123.56267 553.7113,131.24452 C 561.94093,138.26185 563.5874,139.97729 570.22792,148.45305 C 573.89065,153.12805 578.11923,158.44574 579.62475,160.27014 C 581.13028,162.09455 583.42077,165.46955 584.71473,167.77014 C 586.00868,170.07074 587.69618,172.66348 588.46473,173.53179 C 589.23327,174.4001 589.86208,175.62967 589.86208,176.26418 C 589.86208,176.89868 591.66208,180.35868 593.86208,183.95305 C 596.06208,187.54742 597.86208,191.09466 597.86208,191.8358 C 597.86208,192.57695 598.76208,194.3275 599.86208,195.72592 C 600.96208,197.12434 601.86208,199.01387 601.86208,199.92486 C 601.86208,200.83585 602.98708,204.04071 604.36208,207.04676 C 605.73708,210.05282 606.86208,212.95389 606.86208,213.49358 C 606.86208,214.03328 607.71882,216.38244 608.76594,218.71395 C 609.81307,221.04545 610.92811,225.08071 611.24382,227.68119 C 611.55952,230.28166 612.23604,233.20666 612.7472,234.18119 C 615.0266,238.52693 619.49593,263.03867 618.2516,264.36972 C 617.52531,265.14662 616.82973,263.7634 615.47678,258.85176 C 613.48037,251.60414 607.81963,235.32475 606.29731,232.45305 C 605.56841,231.07805 604.01175,227.92805 602.83807,225.45305 C 590.65222,199.75605 583.38416,186.7618 573.60595,173.19017 C 567.61768,164.87878 567.95758,165.27836 555.60972,152.03398 C 544.79787,140.43714 546.24479,141.72546 532.74859,131.6787 C 521.19123,123.07524 512.1504,117.73723 504.36208,114.91835 C 501.61208,113.92302 498.91208,112.78015 498.36208,112.37863 C 497.16093,111.50175 489.16718,109.16164 486.36208,108.86572 C 485.26208,108.74968 483.46208,108.43819 482.36208,108.17353 C 481.26208,107.90887 474.84474,107.12133 468.10133,106.42345 C 439.58111,103.47185 414.35288,108.22875 387.60247,121.60188 C 379.39049,125.70724 369.78921,131.89586 367.86208,134.32579 C 367.58708,134.67254 366.01208,135.6116 364.36208,136.4126 C 359.49114,138.7772 342.81286,156.31498 336.72576,165.47312 C 331.73072,172.98823 323.23093,189.54329 320.04974,197.95305 C 319.42559,199.60305 318.53607,204.70826 318.07303,209.29796 C 317.12739,218.67127 316.64601,217.97142 325.71945,220.41464 C 337.09533,223.47785 350.48993,231.64546 356.50585,239.18724 C 360.98312,244.8001 366.54853,254.73482 367.36512,258.57191 C 367.76087,260.43154 368.65437,262.62805 369.35067,263.45305 C 370.04697,264.27805 370.87311,267.20305 371.18653,269.95305 C 371.49996,272.70305 372.26702,278.55305 372.89112,282.95305 C 374.01846,290.90104 373.48262,303.23595 371.8754,306.33428 C 371.41356,307.22461 369.54227,311.10305 367.71696,314.95305 C 363.78654,323.24323 358.50352,331.51458 356.37976,332.7031 C 355.54503,333.17023 354.86208,334.18345 354.86208,334.9547 C 354.86208,335.72595 352.94958,337.68099 350.61208,339.29925 C 348.27458,340.9175 345.23708,343.24562 343.86208,344.47286 C 338.41778,349.33208 323.04938,354.95829 312.58606,355.92267 C 299.86585,357.09507 296.90273,357.0442 289.36208,355.52396 z"
       id="path2473"
       sodipodi:nodetypes="cssssssssssssssssssssssssssssssssssssssssssssssssssssssccsssssssssssssssssssssssssssssssssssssssssssssssssssssccssssssssssssssssssssssssssssssssssssssssssssssssssssssssssssssssc" />
  </g>
</svg>

