<?xml version="1.0" encoding="UTF-8" standalone="no"?>
<!-- Created with Inkscape (http://www.inkscape.org/) -->
<svg
   xmlns:dc="http://purl.org/dc/elements/1.1/"
   xmlns:cc="http://creativecommons.org/ns#"
   xmlns:rdf="http://www.w3.org/1999/02/22-rdf-syntax-ns#"
   xmlns:svg="http://www.w3.org/2000/svg"
   xmlns="http://www.w3.org/2000/svg"
   xmlns:sodipodi="http://sodipodi.sourceforge.net/DTD/sodipodi-0.dtd"
   xmlns:inkscape="http://www.inkscape.org/namespaces/inkscape"
   id="svg2"
   sodipodi:version="0.32"
   inkscape:version="0.46"
   width="250"
   height="250"
   version="1.0"
   sodipodi:docname="n_bamboo_and_leaves.svg"
   inkscape:output_extension="org.inkscape.output.svg.inkscape"
   inkscape:export-filename="/Users/xavid/Documents/Yenching/n_bamboo_and_leaves.png"
   inkscape:export-xdpi="90"
   inkscape:export-ydpi="90">
  <metadata
     id="metadata7">
    <rdf:RDF>
      <cc:Work
         rdf:about="">
        <dc:format>image/svg+xml</dc:format>
        <dc:type
           rdf:resource="http://purl.org/dc/dcmitype/StillImage" />
      </cc:Work>
    </rdf:RDF>
  </metadata>
  <defs
     id="defs5">
    <inkscape:perspective
       sodipodi:type="inkscape:persp3d"
       inkscape:vp_x="0 : 526.18109 : 1"
       inkscape:vp_y="0 : 1000 : 0"
       inkscape:vp_z="744.09448 : 526.18109 : 1"
       inkscape:persp3d-origin="372.04724 : 350.78739 : 1"
       id="perspective9" />
  </defs>
  <sodipodi:namedview
     inkscape:window-height="756"
     inkscape:window-width="1222"
     inkscape:pageshadow="2"
     inkscape:pageopacity="1"
     guidetolerance="10.0"
     gridtolerance="10.0"
     objecttolerance="10.0"
     borderopacity="1.0"
     bordercolor="#666666"
     pagecolor="#ffffff"
     id="base"
     showgrid="false"
     inkscape:zoom="0.36510264"
     inkscape:cx="255.65425"
     inkscape:cy="-245.54542"
     inkscape:window-x="40"
     inkscape:window-y="40"
     inkscape:current-layer="svg2"
     showguides="true"
     inkscape:guide-bbox="true"
     borderlayer="true" />
  <rect
     style="opacity:1;fill:#ffffff;fill-opacity:1;stroke:#ffffff;stroke-width:0.5;stroke-linecap:square;stroke-miterlimit:4;stroke-dasharray:none;stroke-dashoffset:0;stroke-opacity:1"
     id="rect2401"
     width="1463.9719"
     height="909.33331"
     x="-606.98596"
     y="-329.66666" />
  <path
     style="fill:#000000"
     d="M 163.9375,30.597843 C 163.47157,30.595517 162.93686,30.670768 162.34375,30.785343 C 158.98235,31.533357 155.5058,30.933612 152.0625,30.941593 L 144.59375,31.004093 L 145.09375,75.472843 C 145.36915,99.938143 145.96555,120.41314 146.40625,120.97284 C 146.84685,121.53254 147.03191,122.90409 146.8125,124.00409 C 146.5931,125.10409 146.37399,128.25409 146.3125,131.00409 C 146.166,137.55829 147.45315,205.97599 147.84375,212.19159 L 148.15625,217.00409 L 152.8125,217.09784 C 155.378,217.14814 157.79396,217.48564 158.15625,217.84784 C 159.01565,218.70734 160.9381,218.69098 161.8125,217.81659 C 162.1923,217.43679 163.97559,217.09928 165.75,217.06659 C 167.9121,217.02669 168.9822,216.50939 169,215.50409 C 169.0145,214.67909 169.35904,213.45954 169.78125,212.78534 C 170.20345,212.11114 170.55315,203.00079 170.53125,192.56659 L 170.46875,173.59784 L 174.21875,175.16034 C 177.5892,177.44021 180.95122,177.93331 184.78125,178.69159 C 189.03325,180.02749 194.11336,180.20524 198.96875,179.22284 C 201.16875,178.77774 204.09376,178.19314 205.46875,177.91034 C 209.48612,177.6346 212.82955,175.49685 216.75,174.72284 C 221.8362,172.98437 226.60779,171.41964 231.5,168.97284 L 233.53125,167.12909 L 230.875,164.81659 C 227.48136,162.29403 222.95943,162.26556 218.90625,161.00409 C 214.66015,159.61799 208.9618,158.40334 206.25,158.28534 C 202.02211,157.2112 198.70405,157.45953 194.46875,158.09784 C 192.53925,158.19154 189.16876,158.58054 186.96875,158.97284 C 184.76875,159.36514 182.29376,159.78453 181.46875,159.91034 C 179.76185,160.17054 176.99634,161.18338 173.71875,162.75409 C 172.48215,163.34669 171.24795,163.5959 170.96875,163.31659 C 170.00205,162.34989 169.33316,128.50409 170.28125,128.50409 C 172.38609,129.98132 174.15445,130.81097 176.75,131.28534 C 177.4134,131.80774 178.64376,132.25844 179.46875,132.28534 C 180.29375,132.31214 182.31876,132.71059 183.96875,133.19159 C 187.26765,134.15349 191.13206,134.09544 199.46875,132.97284 C 207.68865,132.14497 216.48236,130.68494 223.46875,126.00409 C 224.76525,124.62399 226.58596,123.50409 227.53125,123.50409 C 229.09785,123.50409 230.46876,121.61734 230.46875,119.47284 C 230.46875,118.77684 228.44946,117.78074 225.46875,116.97284 C 225.19375,116.89834 224.29376,116.58744 223.46875,116.28534 C 219.19605,114.72024 213.70025,113.49268 212.65625,113.50409 C 200.7702,111.95173 185.54298,110.40344 174.4375,116.53534 C 168.9415,120.44884 168.79095,120.05384 168.78125,102.03534 C 168.77315,86.993643 168.9162,85.658642 170.4375,86.472843 C 176.8552,89.907443 197.91059,91.924545 202.375,89.535343 C 210.92889,87.979988 218.54676,83.298096 226.75,80.504093 C 227.5712,80.504093 228.48546,79.868842 228.78125,79.097843 C 229.15915,78.113243 228.24195,77.487193 225.65625,77.004093 C 222.06048,75.55687 218.27401,75.023428 214.59375,73.879093 C 212.60115,73.032493 208.04376,72.167645 204.46875,71.972843 C 200.89375,71.778143 197.96876,71.549692 197.96875,71.441593 C 188.82591,69.803031 179.62508,71.323187 171.21875,75.004093 C 169.70625,75.775393 168.4228,76.078494 168.375,75.691593 C 168.3272,75.304693 168.11846,65.581993 167.90625,54.066593 C 167.54339,34.372618 167.19898,30.614126 163.9375,30.597843 z M 135.96875,30.972843 C 135.83084,30.972352 135.69214,31.030443 135.53125,31.097843 C 134.67795,31.455243 133.51875,31.695193 132.96875,31.629093 C 128.21725,31.057893 113.184,31.121643 112.8125,31.722843 C 112.5527,32.143143 112.6427,32.957243 113,33.535343 C 113.7584,34.762543 114.0369,48.753485 115,134.00409 C 115.3915,168.65409 115.8448,199.47909 116,202.50409 C 116.1552,205.52909 116.322,210.14159 116.375,212.75409 C 116.4659,217.24199 116.62055,217.48969 119.21875,217.50409 C 120.73125,217.51249 122.64375,217.97099 123.46875,218.50409 C 125.63905,219.90669 126.25435,219.74204 127.46875,217.47284 C 128.06575,216.35744 129.0133,215.72729 129.5625,216.06659 C 130.2093,216.46639 130.178,217.17439 129.4375,218.06659 C 128.487,219.21189 129.1524,219.37134 133.5,219.09784 C 138.1886,218.80304 138.84795,218.4691 139.90625,215.87909 C 141.18295,212.75439 141.2037,214.32539 140,117.50409 C 139.5931,84.779093 139.28375,55.754093 139.34375,53.004093 C 139.40375,50.254093 138.93925,44.052243 138.28125,39.222843 C 137.41281,32.848206 136.93415,30.976284 135.96875,30.972843 z M 162.21875,31.972843 C 164.74685,32.808343 164.6765,32.500093 165,48.504093 C 165.1279,54.829093 165.3947,64.054093 165.5625,69.004093 C 165.8323,76.959593 165.65385,77.970644 164.15625,77.847843 C 161.90785,77.663543 162.02276,78.790493 164.46875,81.004093 C 166.22525,82.593693 166.46876,84.064543 166.46875,93.222843 C 166.46875,101.11774 166.16506,103.56479 165.21875,103.25409 C 164.53125,103.02839 163.82515,101.45239 163.65625,99.754093 C 163.48745,98.055793 162.78355,96.456397 162.09375,96.191593 C 161.14595,95.827993 160.921,97.31259 161.1875,102.25409 C 161.3814,105.85069 161.96515,109.56309 162.46875,110.50409 C 163.16275,111.80089 162.684,112.88044 160.5,114.97284 C 158.9148,116.49154 157.85955,118.35579 158.15625,119.12909 C 158.57515,120.22069 159.12986,120.06699 160.59375,118.37909 C 161.63055,117.18359 162.46876,115.78364 162.46875,115.28534 C 162.46875,114.78704 162.94375,114.67234 163.53125,115.03534 C 164.11875,115.39844 164.36621,116.3377 164.0625,117.12909 C 163.6936,118.09029 164.0918,118.47914 165.25,118.28534 C 166.7731,118.03044 166.9994,119.03789 167.125,126.50409 C 167.6312,156.58859 167.46711,167.59514 166.5625,169.28534 C 165.8716,170.57634 165.9085,171.5376 166.625,172.25409 C 167.8028,173.43189 168.24049,205.66044 167.125,209.09784 C 166.5307,210.92934 165.57441,211.20538 159.625,211.37909 C 154.3394,211.53339 152.4978,211.2191 151.4375,209.94159 C 149.3776,207.45949 149.07545,175.64469 151.09375,173.37909 C 152.54425,171.75089 157.46876,171.07269 157.46875,172.50409 C 157.46875,173.50859 163.1178,174.3198 164.4375,173.50409 C 165.0472,173.12729 164.24905,171.49819 162.46875,169.50409 C 160.81525,167.65209 159.46876,165.78874 159.46875,165.34784 C 159.46875,163.82104 152.1419,156.99274 150.8125,157.28534 C 149.3182,157.61414 148.89964,152.95909 150.34375,152.06659 C 151.66545,151.24969 152.4873,145.87779 151.8125,142.50409 C 151.0919,138.90119 149.52095,138.46294 149.90625,141.97284 C 150.05555,143.33244 149.82721,144.22109 149.375,143.94159 C 148.9228,143.66219 148.5885,141.54054 148.625,139.22284 C 148.6615,136.90514 148.5482,134.55409 148.375,134.00409 C 148.2019,133.45409 148.34125,131.54159 148.71875,129.75409 C 149.33305,126.84459 149.7721,126.50409 152.875,126.50409 C 154.7813,126.50409 156.62886,126.95409 156.96875,127.50409 C 157.94975,129.09139 162.46876,128.70614 162.46875,127.03534 C 162.46875,126.06154 161.87916,125.77079 160.71875,126.19159 C 159.59455,126.59929 159.86276,126.04964 161.46875,124.66034 L 163.96875,122.50409 L 160.46875,122.56659 C 158.54375,122.60719 154.94376,122.04649 152.46875,121.31659 L 147.96875,120.00409 L 148.0625,102.50409 C 148.1848,80.837893 148.0068,82.224243 150.5625,83.035343 C 152.3487,83.602343 152.5669,83.384041 152,81.597843 C 151.5168,80.075643 151.76935,79.504093 152.90625,79.504093 C 153.76835,79.504093 154.46876,79.886942 154.46875,80.347843 C 154.46875,80.808743 156.13435,81.240492 158.15625,81.316593 C 160.97415,81.422493 161.55785,81.186844 160.65625,80.285343 C 160.00935,79.638443 159.46876,78.331644 159.46875,77.410343 C 159.46875,75.624843 154.91985,74.988993 153.90625,76.629093 C 153.24715,77.695593 148.51025,77.803193 148.40625,76.754093 C 148.36535,76.341593 148.13695,74.991593 147.90625,73.754093 C 147.43895,71.247093 148.12411,71.030493 152,72.504093 C 154.6353,73.505993 154.6278,73.486093 154,69.754093 C 153.6522,67.686493 153.32049,62.946044 153.25,59.222843 C 153.1607,54.503643 152.682,52.080644 151.625,51.222843 C 150.3657,50.200843 150.19725,50.267544 150.71875,51.660343 C 151.37295,53.407943 149.2734,55.964893 148.125,54.816593 C 146.8583,53.549893 147.39226,34.675193 148.71875,33.816593 C 149.40625,33.371693 151.9462,33.004093 154.375,33.004093 L 162.21875,31.972843 z M 86.09375,31.660343 C 84.943792,31.851616 84.480565,38.947306 84.46875,55.285343 C 84.45465,75.005643 84.33945,76.557443 82.71875,76.285343 C 81.75625,76.123643 80.703998,75.638894 80.375,75.191593 C 79.8002,74.409993 78.85385,74.199241 69.96875,72.972843 C 62.73035,71.973843 51.443649,72.578742 44.28125,74.347843 C 40.43496,74.391978 37.124747,75.97241 33.40625,76.785343 C 31.50715,76.997243 28.39375,78.048744 26.46875,79.097843 C 24.54375,80.146843 22.1095,81.214892 21.0625,81.504093 C 18.497,82.212593 17.82815,86.504093 20.28125,86.504093 C 23.914634,87.661544 27.173662,89.806446 31.0625,91.066593 C 32.00127,91.629547 33.86875,92.063941 34.96875,92.535343 C 39.88385,94.641743 68.407894,95.003213 71.625,93.722843 C 76.439892,92.769601 78.813882,89.708508 82.46875,88.222843 C 84.36265,87.727543 84.481101,88.203845 84.5625,97.347843 C 84.6098,102.65884 84.779601,110.26659 84.9375,114.25409 C 85.0955,118.24159 84.871951,121.50409 84.46875,121.50409 C 84.06565,121.50409 82.930901,120.42054 81.9375,119.09784 C 80.9442,117.77514 79.522049,116.90729 78.78125,117.19159 C 69.8453,115.57176 60.580269,116.08974 51.46875,117.25409 C 48.06905,117.51199 43.96875,118.2047 43.96875,118.50409 C 43.96875,118.58539 42.302351,118.85084 40.28125,119.09784 C 38.26005,119.34484 35.335051,120.1936 33.78125,121.00409 C 32.22735,121.81449 30.23205,122.5007 29.34375,122.50409 C 25.129928,124.51204 20.297979,126.17858 16.46875,128.94159 C 16.46875,130.11959 17.55065,130.50409 20.90625,130.50409 C 32.04709,133.85011 42.610704,136.59115 54.21875,136.59784 C 70.95265,136.42924 73.55875,136.19154 76.15625,134.72284 C 77.35445,134.04524 79.943602,133.29064 81.9375,133.03534 L 85.5625,132.56659 L 85.40625,149.47284 L 85.21875,166.34784 L 82.90625,165.47284 C 81.63725,164.99034 79.780449,164.12679 78.78125,163.56659 C 74.53115,161.18359 67.5714,159.64414 63.375,160.16034 C 60.948,160.45894 57.61875,160.77084 55.96875,160.84784 C 54.31875,160.92484 52.751552,161.28765 52.46875,161.66034 C 52.18595,162.03294 50.16095,162.58304 47.96875,162.84784 C 45.77655,163.11254 43.135901,163.63275 42.125,164.03534 C 41.1141,164.43784 39.539101,164.85169 38.625,164.94159 C 35.9216,165.20779 28.09405,167.48013 26.21875,168.53534 C 25.26375,169.07274 23.91375,169.49179 23.21875,169.50409 C 22.52375,169.51629 20.8545,170.4007 19.5,171.44159 L 17.03125,173.31659 L 21,174.03534 C 23.1795,174.42974 25.80595,174.91244 26.84375,175.09784 C 27.88155,175.28324 29.45655,176.06695 30.34375,176.84784 C 31.23095,177.62864 33.54375,178.60438 35.46875,179.00409 C 37.39375,179.40379 39.41875,180.07408 39.96875,180.50409 C 41.21325,181.47689 49.74545,182.42594 58.96875,182.59784 C 67.387753,182.60143 75.180039,182.63313 81.625,177.16034 C 82.7621,176.12324 84.047552,175.67663 84.53125,176.16034 C 85.00575,176.63484 85.463353,184.30149 85.53125,193.19159 C 85.62325,205.24509 86.000652,209.80065 87.03125,211.16034 C 89.14385,213.94754 88.8265,215.75084 86.375,214.97284 C 84.4911,214.37494 84.413751,214.53288 85.46875,216.50409 C 86.34325,218.13819 87.235503,218.50949 89,218.06659 C 90.2961,217.74129 91.563147,217.86259 91.84375,218.31659 C 92.61905,219.57119 101.6741,219.57409 104.1875,218.31659 C 105.8871,217.46629 106.77165,217.52129 108.03125,218.56659 C 109.44045,219.73609 109.86455,219.66218 111.03125,218.06659 C 111.77915,217.04389 112.18765,215.83429 111.90625,215.37909 C 111.39945,214.55899 111.09075,202.65429 109.90625,133.00409 C 108.79385,67.590789 107.8939,36.692243 107,33.910343 C 106.7693,33.192243 103.31325,32.864393 97.03125,33.004093 C 91.63985,33.123893 87.149198,32.798893 86.8125,32.254093 C 86.550875,31.830796 86.306705,31.624922 86.09375,31.660343 z M 124.40625,33.629093 C 128.88036,33.6612 133.8109,34.217038 134.59375,35.160343 C 135.27425,35.980243 135.87045,41.173142 136.03125,47.785343 C 136.50005,67.063143 136.6666,76.939193 136.5625,78.754093 C 136.4415,80.863593 136.0997,80.853593 130.875,78.691593 C 128.6232,77.759893 126.9269,76.517892 127.125,75.941593 C 127.3231,75.365393 126.172,73.639841 124.5625,72.097843 L 121.65625,69.285343 L 119.9375,71.910343 C 119,73.341143 117.9099,74.504093 117.5,74.504093 C 116.8246,74.504093 116.4097,64.134493 116.25,43.379093 C 116.2177,39.191293 116.47485,35.288393 116.84375,34.691593 C 117.22812,34.069618 119.61688,33.739831 122.53125,33.660343 C 123.13841,33.643783 123.76709,33.624506 124.40625,33.629093 z M 90.03125,34.879093 C 94.717986,34.726271 103.8979,35.592418 104.5,36.566593 C 105.1619,37.637593 105.10365,41.642593 104.40625,43.504093 C 104.30325,43.779093 104.34345,44.454093 104.46875,45.004093 C 104.88445,46.830093 105.43085,55.855193 105.90625,68.254093 C 106.16455,74.991593 106.3021,80.437592 106.1875,80.379093 C 106.0728,80.320593 104.73125,79.789293 103.21875,79.191593 C 101.70625,78.593893 100.46875,77.760394 100.46875,77.316593 C 100.46875,76.872693 99.369152,76.504093 98.03125,76.504093 C 95.00015,76.504093 94.379899,74.627344 94.875,67.222843 C 95.2764,61.220643 94.475453,59.964793 92.71875,63.754093 C 91.85805,65.610693 91.727947,65.054742 91.84375,60.597843 C 91.92085,57.627043 91.51875,55.039243 90.96875,54.847843 C 90.37125,54.639843 89.841949,57.771395 89.65625,62.629093 C 89.39475,69.472293 89.568402,70.668992 90.8125,70.191593 C 91.6253,69.879693 92.529803,70.236342 92.8125,70.972843 C 93.8445,73.662243 90.581353,74.460342 88.21875,72.097843 C 87.10795,70.986943 86.854202,67.086442 87,53.347843 C 87.1013,43.806743 87.231602,35.737943 87.3125,35.410343 C 87.388125,35.104118 88.469005,34.930034 90.03125,34.879093 z M 122.4375,51.691593 C 121.84165,51.681817 121.46875,52.39268 121.46875,53.535343 C 121.46875,55.063343 121.00655,55.527293 119.96875,55.129093 C 118.73775,54.656693 118.51645,55.729443 118.59375,61.285343 C 118.64505,64.977943 118.8757,68.341593 119.125,68.754093 C 119.8652,69.978893 121.0661,69.627991 122.875,67.629093 C 124.2025,66.162293 124.51375,64.231793 124.28125,58.941593 C 124.09155,54.625993 123.51345,52.016694 122.71875,51.754093 C 122.6256,51.723306 122.52262,51.69299 122.4375,51.691593 z M 151.03125,67.504093 C 151.27385,67.504093 151.46876,67.954093 151.46875,68.504093 C 151.46875,69.054093 150.98875,69.504093 150.40625,69.504093 C 149.82375,69.504093 149.62886,69.054093 149.96875,68.504093 C 150.30865,67.954093 150.78875,67.504093 151.03125,67.504093 z M 186.15625,72.410343 C 188.84899,72.377838 192.15539,72.880287 194.9375,73.129093 C 200.4604,73.263693 205.86876,73.542992 206.96875,73.754093 C 211.18645,74.563793 214.46876,75.755844 214.46875,76.472843 C 214.46875,77.549943 206.82875,77.030144 205.28125,75.847843 C 204.55865,75.295743 199.06246,74.929043 192.96875,75.035343 C 185.79575,75.160643 181.69785,74.823645 181.21875,74.097843 C 180.76535,73.410843 180.47825,73.700095 180.46875,74.816593 C 180.46015,75.841693 180.01105,76.315392 179.40625,75.941593 C 178.81855,75.578393 178.08375,76.253644 177.78125,77.410343 C 177.13245,79.891143 176.47145,79.968443 174.59375,77.847843 C 173.40965,76.510643 173.40965,76.164343 174.59375,75.410343 C 175.35725,74.924243 176.50894,74.704993 177.15625,74.941593 C 177.80355,75.178093 178.83836,74.763693 179.46875,74.004093 C 180.09915,73.244493 181.34376,72.887042 182.21875,73.222843 C 183.14474,72.63455 184.5406,72.429846 186.15625,72.410343 z M 120.9375,72.597843 C 121.32807,72.609705 122.14555,73.307093 123.40625,74.660343 C 125.55375,76.965343 125.18595,79.344193 122.96875,77.504093 C 122.05445,76.745293 121.4483,76.716293 121,77.441593 C 120.0711,78.944593 116.19965,78.776493 116.71875,77.254093 C 116.95325,76.566593 118.16905,76.135894 119.40625,76.316593 C 121.28215,76.590593 121.5502,76.299994 121,74.566593 C 120.5786,73.238893 120.54693,72.585981 120.9375,72.597843 z M 58.65625,74.035343 C 60.16321,74.040962 61.723996,74.118782 63.1875,74.285343 C 70.103955,75.221181 82.056349,73.733861 84.46875,82.754093 C 84.47615,84.397193 83.928601,85.504093 83.125,85.504093 C 82.3853,85.504093 80.983699,86.385844 80,87.472843 C 73.282483,92.956116 64.212572,91.914225 56.03125,91.910343 C 45.87025,91.856943 37.214913,91.327595 34.625,90.597843 C 33.02774,90.147787 30.081619,88.882161 27.8125,87.941593 C 27.542242,87.115605 29.38702,86.801932 34.3125,86.879093 C 46.855718,88.809538 59.606975,88.315042 72.40625,87.066593 C 74.84915,86.680693 77.66165,85.942643 78.65625,85.410343 C 80.71755,84.307243 81.09645,81.576645 79.21875,81.347843 C 78.53125,81.264043 77.456649,81.128593 76.84375,81.066593 C 76.23075,81.004593 75.081449,80.418191 74.28125,79.754093 C 72.63135,78.384793 50.380251,77.855944 44.09375,79.035343 C 40.68685,79.674443 40.3036,79.547994 40.625,77.879093 C 40.912,76.389193 42.013351,75.944641 45.96875,75.722843 C 48.71145,75.568943 51.64375,75.158095 52.46875,74.816593 C 53.817688,74.258218 56.14465,74.025978 58.65625,74.035343 z M 89.34375,75.066593 C 91.229965,75.084606 92.612226,76.957805 91.875,78.879093 C 91.2024,80.631693 90.77955,80.738694 88.46875,79.691593 C 86.32545,78.720393 86.388898,75.759994 88.5625,75.191593 C 88.704569,75.154437 88.830264,75.114625 88.96875,75.097843 C 89.09858,75.08211 89.218002,75.065392 89.34375,75.066593 z M 171.53125,76.660343 C 172.05848,76.597958 172.20199,77.058093 171.875,77.910343 C 171.5408,78.781243 170.81825,79.504093 170.28125,79.504093 C 168.96685,79.504093 169.78645,77.221043 171.28125,76.722843 C 171.3726,76.692393 171.45593,76.669255 171.53125,76.660343 z M 201.875,76.847843 C 202.25764,76.816118 202.68947,77.040419 202.9375,77.441593 C 203.2681,77.976593 204.15445,78.167494 204.90625,77.879093 C 205.65805,77.590593 206.54189,77.808842 206.875,78.347843 C 207.2578,78.967143 202.5499,79.369392 194.0625,79.441593 C 186.6763,79.504293 180.4016,79.170445 180.125,78.722843 C 179.6533,77.959743 183.10576,77.229593 186.46875,77.379093 C 191.98975,77.624693 200.85335,77.391842 201.53125,76.972843 C 201.64285,76.903868 201.74745,76.858418 201.875,76.847843 z M 37.46875,77.504093 C 38.01875,77.504093 38.46875,77.954093 38.46875,78.504093 C 38.46875,79.054093 38.01875,79.504093 37.46875,79.504093 C 36.91875,79.504093 36.46875,79.054093 36.46875,78.504093 C 36.46875,77.954093 36.91875,77.504093 37.46875,77.504093 z M 210.53125,78.504093 C 211.11375,78.504093 211.30866,78.954093 210.96875,79.504093 C 210.62885,80.054093 210.14875,80.504093 209.90625,80.504093 C 209.66375,80.504093 209.46876,80.054093 209.46875,79.504093 C 209.46875,78.954093 209.94885,78.504093 210.53125,78.504093 z M 149.46875,79.504093 C 150.01875,79.504093 150.46876,79.954093 150.46875,80.504093 C 150.46875,81.054093 150.01876,81.504093 149.46875,81.504093 C 148.91875,81.504093 148.46876,81.054093 148.46875,80.504093 C 148.46875,79.954093 148.91876,79.504093 149.46875,79.504093 z M 101.09375,79.660343 C 101.64806,79.572474 102.83054,80.374357 103.9375,81.660343 C 106.0132,84.071943 106.24515,85.389241 106.34375,95.160343 C 106.42695,103.41464 106.209,105.56235 105.375,104.16034 C 104.7733,103.14884 104.46595,101.23285 104.71875,99.910343 C 104.98115,98.537443 104.5688,96.996091 103.75,96.316593 C 102.5201,95.295893 102.36065,96.369293 102.59375,103.81659 C 102.83165,111.41529 103.07935,112.50409 104.65625,112.50409 C 105.75465,112.50409 106.52605,113.28509 106.59375,114.50409 C 106.65485,115.60409 106.7513,117.40409 106.8125,118.50409 C 106.8736,119.60409 106.5848,120.50409 106.1875,120.50409 C 105.7903,120.50409 104.7819,120.50409 103.9375,120.50409 C 102.7296,120.50409 102.623,120.08849 103.4375,118.56659 C 106.1431,113.51109 102.53545,112.91479 99.28125,117.87909 C 97.83155,120.09069 96.286252,121.25409 94.78125,121.25409 C 93.51795,121.25409 92.46875,120.79949 92.46875,120.25409 C 92.46875,119.70869 91.539853,119.52009 90.40625,119.81659 C 89.27255,120.11299 88.1688,119.80514 87.9375,119.16034 C 87.7062,118.51554 87.369404,110.52704 87.1875,101.41034 L 86.84375,84.847843 L 91.40625,84.566593 C 93.91565,84.408693 97.681152,84.276044 99.78125,84.285343 C 103.47685,84.301743 103.5483,84.259345 101.875,82.410343 C 100.9241,81.359643 100.49615,80.163193 100.90625,79.754093 C 100.9575,79.702956 101.01456,79.672896 101.09375,79.660343 z M 97.09375,79.847843 C 99.77795,79.684643 100.2668,80.961291 97.875,81.879093 C 97.0051,82.212993 95.42045,82.504093 94.34375,82.504093 C 91.47055,82.504093 94.026449,80.034342 97.09375,79.847843 z M 51.1875,80.629093 C 52.440913,80.60604 53.85205,80.624693 55.46875,80.629093 C 66.23125,80.658493 67.583751,80.795344 66.53125,81.847843 C 65.39675,82.982443 42.52465,83.387042 41.84375,82.285343 C 41.57345,81.848043 41.71125,81.449294 42.15625,81.379093 C 45.01165,80.928643 47.427262,80.698253 51.1875,80.629093 z M 34.3125,80.972843 C 35.957672,80.84487 37.46875,81.698869 37.46875,83.097843 C 37.46875,83.864043 37.13125,84.558994 36.71875,84.629093 C 30.17515,85.741493 24.36425,84.381594 29.21875,82.879093 C 30.18125,82.581193 31.746701,81.942594 32.6875,81.441593 C 33.2175,81.159393 33.764109,81.015501 34.3125,80.972843 z M 193.34375,81.035343 C 204.61695,81.065643 206.96876,81.324245 206.96875,82.535343 C 206.96875,83.340243 206.06876,84.077841 204.96875,84.160343 C 203.86875,84.242743 201.39376,84.482593 199.46875,84.691593 C 197.54375,84.900693 195.06876,84.971644 193.96875,84.847843 C 192.86875,84.724043 189.4291,84.343092 186.3125,84.004093 C 183.1959,83.664993 180.43771,82.845193 180.1875,82.191593 C 179.8496,81.308493 183.22195,81.008145 193.34375,81.035343 z M 129.4375,81.629093 C 129.80267,81.613443 130.2376,81.886694 130.90625,82.441593 C 131.78645,83.172093 132.80175,83.483692 133.15625,83.129093 C 133.51085,82.774593 134.6178,83.248941 135.625,84.160343 C 136.9887,85.394543 137.48015,87.243544 137.46875,91.410343 C 137.45355,96.974943 135.8659,101.35019 134.8125,98.754093 C 134.5335,98.066593 133.8792,97.504093 133.375,97.504093 C 131.9386,97.504093 132.3095,104.88914 133.9375,108.78534 C 135.3684,112.21004 135.3356,112.32424 133,112.91034 C 131.6793,113.24184 129.89975,114.19809 129.03125,115.06659 C 127.00535,117.09249 128.05565,119.05814 130.21875,117.28534 C 131.60645,116.14794 131.7331,116.31439 131.1875,118.50409 L 130.5625,121.00409 L 133.03125,118.19159 C 134.37955,116.64729 135.91975,115.66479 136.46875,116.00409 C 138.07145,116.99469 137.62125,120.65364 135.71875,122.09784 C 133.20035,124.00954 130.7925,123.79549 129.1875,121.50409 C 128.4195,120.40759 127.46985,119.81559 127.09375,120.19159 C 126.71765,120.56769 124.3996,121.04779 121.9375,121.25409 L 117.46875,121.62909 L 117.40625,107.81659 C 117.36415,100.21809 117.18535,92.076542 117.03125,89.722843 C 116.72005,84.968843 117.64985,83.945693 121.78125,84.379093 C 123.32175,84.540693 125.23395,84.103294 126.03125,83.441593 C 126.82855,82.779893 127.46035,82.649191 127.46875,83.129093 C 127.47725,83.608893 127.90665,83.356292 128.40625,82.566593 C 128.7858,81.966793 129.07233,81.644743 129.4375,81.629093 z M 170.65625,82.472843 C 170.84358,82.466517 171.23335,82.599317 171.8125,82.816593 C 172.82,83.194593 173.8325,83.504093 174.0625,83.504093 C 174.2925,83.504093 174.46876,83.887991 174.46875,84.379093 C 174.46875,84.870293 173.6957,85.578693 172.75,85.941593 C 171.8043,86.304493 171.3591,86.269992 171.75,85.879093 C 172.141,85.488093 171.90155,84.501442 171.21875,83.660343 C 170.56462,82.854468 170.34403,82.483386 170.65625,82.472843 z M 176.09375,83.754093 C 176.55531,83.659893 177.20497,83.864268 177.75,84.316593 C 178.4767,84.919693 180.7581,85.590192 182.8125,85.816593 C 184.8668,86.042993 186.82951,86.521092 187.1875,86.879093 C 187.5456,87.237093 187.30704,88.071941 186.65625,88.722843 C 185.92995,89.449043 185.46876,89.485641 185.46875,88.847843 C 185.46875,88.276243 184.0699,87.903195 182.375,88.004093 C 179.2184,88.191893 174.3815,85.252493 175.6875,83.941593 C 175.7873,83.841418 175.9399,83.785493 176.09375,83.754093 z M 58.46875,84.504093 C 59.01875,84.504093 59.46875,84.954093 59.46875,85.504093 C 59.46875,86.054093 59.01875,86.504093 58.46875,86.504093 C 57.91875,86.504093 57.46875,86.054093 57.46875,85.504093 C 57.46875,84.954093 57.91875,84.504093 58.46875,84.504093 z M 205.28125,86.004093 C 206.56997,85.969246 207.14631,86.20203 206.84375,86.691593 C 206.52755,87.203293 205.7024,87.398592 205,87.129093 C 204.2977,86.859593 203.21075,87.168245 202.59375,87.785343 C 201.76455,88.614443 201.46876,88.578492 201.46875,87.691593 C 201.46875,87.031593 201.80626,86.449294 202.21875,86.379093 C 203.48494,86.163618 204.50802,86.025001 205.28125,86.004093 z M 189.375,86.441593 C 189.58355,86.419978 189.80838,86.499968 190.0625,86.754093 C 190.3948,87.086393 190.4816,87.934295 190.25,88.629093 C 189.9113,89.645193 189.6925,89.648492 189.0625,88.629093 C 188.43692,87.616968 188.74935,86.506439 189.375,86.441593 z M 192.4375,86.566593 C 192.74662,86.57887 193.03337,86.822281 193.1875,87.254093 C 193.4342,87.945093 194.1328,88.198092 194.75,87.816593 C 196.4396,86.772393 200.46876,86.503992 200.46875,87.441593 C 200.46875,88.547193 193.73965,89.287844 192.21875,88.347843 C 191.55455,87.937343 191.4031,87.258991 191.875,86.816593 C 192.05196,86.650693 192.25203,86.559227 192.4375,86.566593 z M 105.90625,107.28534 C 105.98385,107.24348 106.06119,107.38926 106.15625,107.75409 C 106.40985,108.72709 106.3989,110.0771 106.125,110.75409 C 105.851,111.43119 105.63585,110.65409 105.65625,109.00409 C 105.669,107.97284 105.77691,107.35511 105.90625,107.28534 z M 193.375,113.19159 C 193.6662,113.18175 193.87668,113.22452 193.96875,113.31659 C 194.33705,113.68489 196.71154,114.03834 199.28125,114.09784 C 203.07555,114.18574 210.86706,115.17329 214.71875,116.06659 C 215.13125,116.16219 215.91876,116.31039 216.46875,116.37909 C 217.01875,116.44789 217.46876,116.83279 217.46875,117.25409 C 217.46875,117.67539 209.17615,118.02414 199.03125,118.03534 C 183.86715,118.05214 180.78709,117.8391 181.6875,116.75409 C 182.2899,116.02829 183.2701,115.60859 183.875,115.81659 C 184.48,116.02469 186.838,115.38394 189.125,114.41034 C 190.84033,113.68022 192.5014,113.22113 193.375,113.19159 z M 220.4375,117.03534 C 220.59568,117.03372 220.78081,117.05697 220.96875,117.12909 C 221.79375,117.44569 222.46876,118.33164 222.46875,119.09784 C 222.46875,120.56804 221.2462,120.9379 220.125,119.81659 C 219.00089,118.69248 219.33022,117.04673 220.4375,117.03534 z M 178.75,117.62909 C 178.89836,117.6517 179.02763,117.71921 179.125,117.81659 C 179.3346,118.02609 178.88305,118.75525 178.09375,119.41034 C 177.23815,120.12044 176.4103,120.22305 176.0625,119.66034 C 175.6416,118.97927 177.14478,117.84965 178.25,117.66034 C 178.4342,117.62879 178.60164,117.60649 178.75,117.62909 z M 77.4375,118.47284 L 81.4375,122.47284 C 83.9357,124.97104 85.20955,127.01954 84.84375,127.97284 C 83.97205,130.24424 81.211299,129.9173 81.9375,127.62909 C 82.5749,125.62089 80.713752,123.56189 77.78125,123.00409 C 76.79145,122.81589 75.96875,122.5779 75.96875,122.50409 C 75.96875,122.37909 70.54515,121.65775 65.96875,121.16034 C 64.86875,121.04084 63.610649,121.40684 63.15625,121.97284 C 62.60185,122.66344 62.140301,122.6177 61.8125,121.81659 C 61.5438,121.15999 60.808252,120.79534 60.15625,121.03534 C 59.50435,121.27534 56.04375,121.69644 52.46875,121.97284 C 43.31415,122.68074 40.23455,123.11159 38.28125,123.94159 C 37.34505,124.33939 36.123151,124.3938 35.59375,124.06659 C 35.06445,123.73939 34.473649,123.95825 34.28125,124.53534 C 34.08885,125.11244 32.40685,125.76669 30.53125,126.00409 C 27.94595,126.33129 27.40265,126.16394 28.28125,125.28534 C 28.91875,124.64794 30.24765,124.03494 31.21875,123.91034 C 32.18985,123.78564 35.89375,122.70649 39.46875,121.50409 C 44.74065,119.73079 48.954749,119.21599 61.71875,118.87909 L 77.4375,118.47284 z M 173.65625,118.53534 C 174.18519,118.43856 174.54995,118.79169 174.25,119.69159 C 174.0323,120.34469 173.30976,121.03619 172.65625,121.25409 C 171.92555,121.49769 171.6888,121.04049 172.0625,120.06659 C 172.4113,119.15774 173.12731,118.63213 173.65625,118.53534 z M 100.53125,119.50409 C 101.11375,119.50409 101.30865,119.95409 100.96875,120.50409 C 100.62885,121.05409 100.14875,121.50409 99.90625,121.50409 C 99.66375,121.50409 99.46875,121.05409 99.46875,120.50409 C 99.46875,119.95409 99.948852,119.50409 100.53125,119.50409 z M 210.46875,119.50409 C 211.01875,119.50409 211.46876,119.95409 211.46875,120.50409 C 211.46875,121.05409 211.01876,121.50409 210.46875,121.50409 C 209.91875,121.50409 209.46876,121.05409 209.46875,120.50409 C 209.46875,119.95409 209.91876,119.50409 210.46875,119.50409 z M 212.65625,119.69159 C 212.69521,119.67628 212.72971,119.68506 212.78125,119.69159 C 212.9874,119.71773 213.29745,119.92659 213.65625,120.28534 C 214.30705,120.93624 214.5967,121.68874 214.3125,121.97284 C 213.6451,122.64024 212.46876,121.46389 212.46875,120.12909 C 212.46875,119.89412 212.53937,119.73754 212.65625,119.69159 z M 202.46875,120.06659 C 203.76225,120.06659 204.994,120.51734 205.1875,121.09784 C 205.3833,121.68504 204.16856,122.16034 202.46875,122.16034 C 200.76895,122.16034 199.55429,121.68504 199.75,121.09784 C 199.9435,120.51734 201.17526,120.06659 202.46875,120.06659 z M 193.25,120.34784 C 197.67236,120.27578 199.38675,120.89859 198.125,122.16034 C 196.9641,123.32114 179.39295,123.23199 179.78125,122.06659 C 179.97475,121.48589 181.2333,120.9497 182.5625,120.87909 C 183.8918,120.80859 187.7732,120.59214 191.1875,120.41034 C 191.92769,120.37092 192.61823,120.35814 193.25,120.34784 z M 207.53125,120.50409 C 208.11375,120.50409 208.30866,120.95409 207.96875,121.50409 C 207.62885,122.05409 207.14875,122.50409 206.90625,122.50409 C 206.66375,122.50409 206.46876,122.05409 206.46875,121.50409 C 206.46875,120.95409 206.94885,120.50409 207.53125,120.50409 z M 218.53125,121.75409 C 219.35444,121.63283 219.73294,122.25572 219,123.44159 C 218.6375,124.02819 217.59791,124.50409 216.6875,124.50409 C 215.161,124.50409 215.15985,124.37559 216.71875,122.81659 C 217.37185,122.16349 218.03734,121.82685 218.53125,121.75409 z M 89.5,122.03534 C 90.232125,122.06893 90.943252,122.45889 91.1875,123.19159 C 91.4195,123.88769 90.742949,124.31415 89.53125,124.22284 C 88.38925,124.13684 87.591253,123.60534 87.78125,123.03534 C 88.0181,122.32469 88.767875,122.00176 89.5,122.03534 z M 103.15625,122.66034 C 103.59851,122.57351 104.17505,122.80407 104.65625,123.28534 C 106.16715,124.79624 105.33635,125.65829 103.46875,124.50409 C 102.67565,124.01389 102.3442,123.28479 102.75,122.87909 C 102.85142,122.77764 103.00883,122.68929 103.15625,122.66034 z M 122.59375,122.72284 C 124.52686,122.72016 126.59651,123.18058 127.59375,123.87909 C 128.86045,124.76629 131.1262,125.12774 133.5625,124.84784 L 137.46875,124.41034 L 137.5625,137.19159 C 137.614,144.22909 137.7815,153.87729 137.9375,158.62909 C 138.0934,163.38079 137.88615,167.82869 137.46875,168.50409 C 137.05145,169.17939 135.3432,169.90505 133.6875,170.09784 C 131.1865,170.38904 130.5171,169.98083 129.625,167.72284 C 129.0343,166.22804 128.4063,164.35848 128.25,163.56659 C 128.0938,162.77459 126.8832,160.8535 125.5625,159.31659 C 123.4004,156.80049 123.05285,156.67764 121.96875,158.16034 C 121.24855,159.14534 120.09125,159.5744 119.09375,159.19159 C 117.60875,158.62169 117.4442,156.59234 117.6875,140.78534 L 117.96875,123.03534 L 121.78125,122.75409 C 122.04735,122.73373 122.31759,122.72323 122.59375,122.72284 z M 93.78125,122.91034 C 94.111738,122.91199 94.527952,123.12294 95.0625,123.56659 C 95.8385,124.21069 96.46875,125.1464 96.46875,125.62909 C 96.46875,126.73689 95.368047,126.72165 93.59375,125.59784 C 92.83575,125.11774 92.5431,124.20479 92.9375,123.56659 C 93.2092,123.12694 93.450762,122.90869 93.78125,122.91034 z M 155.34375,123.50409 C 155.89375,123.50409 156.62886,123.95409 156.96875,124.50409 C 157.30865,125.05409 157.14375,125.50409 156.59375,125.50409 C 156.04375,125.50409 155.30866,125.05409 154.96875,124.50409 C 154.62885,123.95409 154.79375,123.50409 155.34375,123.50409 z M 57.4375,123.69159 C 63.102214,123.71633 69.135344,124.18171 68.84375,124.94159 C 68.28075,126.40879 43.46875,126.89779 43.46875,125.44159 C 43.46875,124.83769 44.2984,124.63115 45.375,124.97284 C 46.4287,125.30724 47.56935,125.14294 47.90625,124.59784 C 48.227025,124.07881 51.341409,123.79079 55.0625,123.72284 C 55.837727,123.70869 56.628255,123.68806 57.4375,123.69159 z M 207,123.87909 C 211.18782,123.87186 214.46875,124.03182 214.46875,124.41034 C 214.46875,124.91854 212.55626,125.6511 210.21875,126.06659 C 203.83505,127.20119 202.15805,127.28505 200.09375,126.53534 C 199.05815,126.15924 196.2339,126.16785 193.8125,126.53534 C 189.6149,127.17234 187.29495,126.3475 189.46875,125.00409 C 190.53131,124.34734 200.0203,123.89116 207,123.87909 z M 184.96875,124.50409 C 186.42335,124.50409 187.46876,125.07909 187.46875,125.87909 C 187.46875,126.67909 186.42336,127.25409 184.96875,127.25409 C 183.51425,127.25409 182.46876,126.67909 182.46875,125.87909 C 182.46875,125.07909 183.51426,124.50409 184.96875,124.50409 z M 122.6875,124.69159 C 122.38017,124.72291 122.78881,125.21016 123.875,126.41034 C 124.8641,127.50334 126.6324,128.58029 127.8125,128.81659 C 128.9925,129.05289 130.56475,129.19719 131.28125,129.12909 C 133.22135,128.94479 132.6945,127.01309 130.6875,126.94159 C 129.7356,126.90769 128.29375,126.61114 127.46875,126.28534 C 126.64375,125.95954 125.10045,125.38674 124.03125,125.03534 C 123.32677,124.80378 122.8719,124.6728 122.6875,124.69159 z M 41.53125,125.50409 C 42.11375,125.50409 42.30865,125.95409 41.96875,126.50409 C 41.62885,127.05409 41.14875,127.50409 40.90625,127.50409 C 40.66375,127.50409 40.46875,127.05409 40.46875,126.50409 C 40.46875,125.95409 40.94885,125.50409 41.53125,125.50409 z M 180.53125,125.50409 C 181.11375,125.50409 181.30866,125.95409 180.96875,126.50409 C 180.62885,127.05409 180.14875,127.50409 179.90625,127.50409 C 179.66375,127.50409 179.46876,127.05409 179.46875,126.50409 C 179.46875,125.95409 179.94885,125.50409 180.53125,125.50409 z M 90.46875,125.62909 C 90.838162,125.62218 91.285649,125.91124 92,126.50409 C 94.3347,128.44169 100.3063,128.54155 102.1875,126.66034 C 103.5911,125.25674 103.88405,125.29699 105.46875,127.25409 C 107.02125,129.17129 107.21045,131.74709 107.09375,149.69159 L 106.96875,169.94159 L 104.46875,170.06659 C 100.84655,170.22069 98.126248,168.61419 95.71875,164.94159 C 94.55485,163.16609 92.216651,161.12509 90.53125,160.37909 C 88.38515,159.42909 87.46875,158.31279 87.46875,156.69159 C 87.46875,155.41839 87.895848,154.62619 88.40625,154.94159 C 88.91665,155.25709 89.61715,154.61209 89.96875,153.50409 C 91.01685,150.20179 92.372253,151.23769 91.78125,154.87909 C 91.46085,156.85379 91.693749,158.53989 92.34375,158.94159 C 92.95435,159.31899 93.48925,159.26159 93.53125,158.81659 C 93.57335,158.37169 93.794799,157.10409 94,156.00409 C 94.4396,153.64689 94.712297,149.52089 94.5625,147.75409 C 94.3858,145.66999 92.46875,146.35709 92.46875,148.50409 C 92.46875,149.60409 92.01875,150.50409 91.46875,150.50409 C 90.91875,150.50409 90.46875,148.92909 90.46875,147.00409 C 90.46875,144.64969 90.0163,143.50409 89.0625,143.50409 C 88.0039,143.50409 87.5604,141.71029 87.3125,136.44159 C 87.1299,132.56019 87.282447,128.62269 87.65625,127.69159 C 88.03015,126.76049 88.359151,126.45409 88.40625,127.00409 C 88.45325,127.55409 88.906647,127.35629 89.40625,126.56659 C 89.79445,125.95309 90.099338,125.63601 90.46875,125.62909 z M 78.46875,126.09784 C 79.135718,126.14858 79.302187,127.00553 78.34375,128.16034 C 77.21855,129.51614 75.46875,129.9952 75.46875,128.94159 C 75.46875,128.62729 76.084249,127.73235 76.84375,126.97284 C 77.484475,126.33212 78.068569,126.0674 78.46875,126.09784 z M 50.96875,127.78534 C 51.164438,127.79965 51.411062,127.94029 51.71875,128.16034 C 52.78105,128.92004 57.87225,129.16585 59.46875,128.53534 C 61.14875,127.87184 74.46875,127.89839 74.46875,128.56659 C 74.46875,130.27909 72.128499,130.55609 57,130.56659 C 47.9692,130.57279 41.614,130.94944 41.9375,131.47284 C 42.2447,131.96984 43.7491,132.26769 45.25,132.12909 C 48.6993,131.81039 53.643549,133.40484 52.90625,134.59784 C 52.19385,135.75054 46.770201,135.77419 46.0625,134.62909 C 45.7682,134.15289 44.39855,133.99269 43.03125,134.25409 C 41.51115,134.54459 39.894199,134.05464 38.875,133.03534 C 37.9582,132.11864 36.5538,131.63319 35.75,131.94159 C 34.9463,132.25009 33.7628,132.18504 33.125,131.78534 C 32.4871,131.38554 31.3402,131.04994 30.5625,131.03534 C 28.0538,130.98844 28.35715,128.93374 30.90625,128.72284 C 32.26235,128.61054 33.7504,128.44334 34.1875,128.34784 C 34.6246,128.25224 35.827901,128.55049 36.875,129.00409 C 37.922,129.45779 40.94045,129.39134 43.59375,128.84784 C 46.84275,128.18224 48.749001,128.19059 49.4375,128.87909 C 50.1338,129.57539 50.46875,129.46739 50.46875,128.56659 C 50.46875,128.02403 50.642603,127.7615 50.96875,127.78534 z M 208.84375,127.84784 C 208.91915,127.82914 209.0041,127.83277 209.09375,127.84784 C 209.21328,127.86794 209.33125,127.91912 209.46875,128.00409 C 210.01875,128.34399 210.46876,128.8241 210.46875,129.06659 C 210.46875,129.30919 210.01876,129.50409 209.46875,129.50409 C 208.91875,129.50409 208.46876,129.02409 208.46875,128.44159 C 208.46875,128.11394 208.61754,127.90396 208.84375,127.84784 z M 193.46875,128.94159 C 201.16875,128.90269 207.46876,129.24019 207.46875,129.69159 C 207.46875,130.14299 206.45626,130.55889 205.21875,130.62909 C 201.35335,130.84839 199.04491,131.25939 197.0625,132.06659 C 195.6634,132.63619 195.34444,132.50694 195.90625,131.59784 C 196.50845,130.62344 196.24146,130.60784 194.65625,131.59784 C 192.99805,132.63344 192.29674,132.62139 190.84375,131.44159 C 189.74165,130.54659 189.37694,130.47719 189.84375,131.25409 C 190.35015,132.09699 189.89706,132.50409 188.46875,132.50409 C 187.30385,132.50409 186.5569,132.16659 186.8125,131.75409 C 187.0681,131.34159 185.67806,131.00409 183.71875,131.00409 C 181.75945,131.00409 180.0013,130.55409 179.8125,130.00409 C 179.5951,129.37089 184.60345,128.98639 193.46875,128.94159 z M 63.03125,132.50409 C 63.27385,132.50409 63.46875,132.95409 63.46875,133.50409 C 63.46875,134.05409 62.988752,134.50409 62.40625,134.50409 C 61.82375,134.50409 61.62885,134.05409 61.96875,133.50409 C 62.30865,132.95409 62.788752,132.50409 63.03125,132.50409 z M 58.65625,132.97284 C 59.7394,132.99841 60.46875,133.20259 60.46875,133.56659 C 60.46875,134.07909 60.067501,134.50409 59.5625,134.50409 C 59.0575,134.50409 57.970551,134.75409 57.15625,135.06659 C 56.34185,135.37909 55.363101,135.15409 55,134.56659 C 54.6369,133.97909 54.486252,133.47949 54.65625,133.44159 C 56.13265,133.11239 57.5731,132.94727 58.65625,132.97284 z M 121.53125,139.69159 C 121.44011,139.67705 121.35555,139.68765 121.25,139.72284 C 120.5778,139.94684 120.0639,141.11979 120.125,142.31659 C 120.1861,143.51329 120.28265,145.40409 120.34375,146.50409 C 120.57255,150.62229 122.46875,148.30854 122.46875,143.91034 C 122.46875,141.13948 122.16925,139.79335 121.53125,139.69159 z M 124.75,143.94159 C 124.68586,143.9348 124.60231,143.9623 124.53125,144.03534 C 123.51585,145.07904 122.5073,154.19899 123.3125,155.00409 C 124.84,156.53159 125.46875,154.82464 125.46875,149.28534 C 125.46875,145.94862 125.19895,143.9891 124.75,143.94159 z M 154.28125,150.78534 C 153.66184,150.79154 152.86969,151.76961 152.625,153.44159 C 152.3977,154.99449 152.7175,155.58744 153.625,155.28534 C 154.3588,155.04104 155.03034,153.84209 155.09375,152.62909 C 155.15959,151.36983 154.76302,150.78052 154.28125,150.78534 z M 195.46875,159.37909 C 195.66363,159.37807 195.8322,159.37737 195.96875,159.41034 C 196.51505,159.54224 200.56505,159.8948 204.96875,160.19159 C 209.37255,160.48849 213.41876,161.05779 213.96875,161.44159 C 214.51875,161.82539 216.22826,162.21969 217.78125,162.31659 C 219.33425,162.41359 221.53365,163.12403 222.65625,163.91034 C 223.77885,164.69664 225.2638,165.13759 225.9375,164.87909 C 226.6113,164.62049 227.73199,165.0916 228.4375,165.94159 C 229.1429,166.79159 229.32354,167.54674 228.84375,167.59784 C 226.16515,167.88254 218.89785,167.22584 218.46875,166.66034 C 218.00665,166.05124 216.34426,165.71819 210.96875,165.19159 C 209.86875,165.08379 208.63126,164.55409 208.21875,164.00409 C 207.74265,163.36929 207.15175,163.48244 206.59375,164.34784 C 205.85165,165.49864 205.61635,165.49864 205.15625,164.34784 C 204.70515,163.21934 204.4613,163.23939 203.625,164.44159 C 202.12,166.60529 203.16625,167.48879 207.28125,167.50409 C 212.08755,167.52189 215.59625,168.48134 214.90625,169.59784 C 214.28165,170.60844 210.37306,170.61464 205.96875,169.59784 C 197.12768,168.50885 191.12263,168.38612 183.34375,169.19159 C 179.37345,169.15089 177.86776,168.8353 178.90625,168.25409 C 179.76665,167.77259 180.92315,167.6669 181.46875,168.00409 C 182.01445,168.34129 182.46876,168.12369 182.46875,167.50409 C 182.46875,166.84929 183.2612,166.61935 184.375,166.97284 C 185.4287,167.30724 186.56391,167.16374 186.875,166.66034 C 187.4969,165.65404 195.64561,165.87269 197.375,166.94159 C 197.9713,167.31009 199.38995,166.95974 200.53125,166.16034 C 201.77235,165.29104 202.1832,164.45029 201.5625,164.06659 C 200.3096,163.29229 186.388,163.50078 185,164.31659 C 183.954,164.93139 183.10754,165.12814 177.21875,166.09784 C 175.16075,166.43674 173.67605,167.00658 173.90625,167.37909 C 174.13645,167.75159 173.46585,168.06658 172.40625,168.06659 C 169.47625,168.06659 170.09626,165.62498 173.21875,164.87909 C 174.73125,164.51779 176.41876,163.88184 176.96875,163.47284 C 177.51875,163.06384 179.54376,162.47444 181.46875,162.16034 C 188.92395,160.94394 192.02476,160.3168 193.46875,159.75409 C 194.0875,159.51297 194.88412,159.38214 195.46875,159.37909 z M 120.65625,161.16034 C 122.034,161.15502 123.43594,161.72884 122.9375,162.53534 C 122.6653,162.97584 122.96735,163.48279 123.59375,163.69159 C 124.26435,163.91519 124.4545,164.95638 124.0625,166.19159 C 122.7062,170.46479 117.75,169.53159 117.75,165.00409 C 117.75,163.90409 118.16095,162.47863 118.65625,161.84784 C 119.02735,161.37526 119.8296,161.16353 120.65625,161.16034 z M 150.5625,161.25409 C 150.6154,161.22684 150.66719,161.2369 150.71875,161.25409 C 151.13125,161.39159 151.4055,161.61659 151.3125,161.75409 C 151.2196,161.89159 151.64846,162.97774 152.28125,164.16034 C 153.21675,165.90814 153.146,166.42254 151.875,166.91034 C 149.4375,167.84564 149.32305,167.70919 149.65625,164.25409 C 149.80701,162.69003 150.19222,161.44481 150.5625,161.25409 z M 65.84375,162.06659 C 67.759437,161.9949 69.3091,162.17489 69.96875,162.59784 C 70.51875,162.95044 72.54375,163.54634 74.46875,163.91034 C 76.39375,164.27444 78.785851,165.18679 79.78125,165.94159 C 80.92495,166.80899 81.201051,167.55895 80.53125,167.97284 C 79.94835,168.33314 79.46875,168.26159 79.46875,167.81659 C 79.46875,167.37169 78.45625,166.91969 77.21875,166.81659 C 74.52225,166.59209 60.59145,166.38163 58.46875,166.53534 C 57.64375,166.59514 55.39375,166.53273 53.46875,166.41034 C 51.54375,166.28784 48.95625,166.51584 47.71875,166.91034 C 46.03735,167.44624 45.46875,167.2379 45.46875,166.06659 C 45.46875,164.30379 45.32685,164.3614 51.46875,164.06659 C 53.94375,163.94779 57.54375,163.44055 59.46875,162.97284 C 61.64635,162.44374 63.928063,162.13828 65.84375,162.06659 z M 88.59375,162.91034 C 89.769606,162.68431 91.46875,164.92142 91.46875,167.03534 C 91.46875,168.29714 92.03125,169.53974 92.71875,169.78534 C 93.40625,170.03084 93.709198,170.5155 93.375,170.87909 C 93.0409,171.24269 92.195704,170.87364 91.5,170.03534 C 90.8043,169.19704 89.601348,168.50409 88.84375,168.50409 C 87.44895,168.50409 86.896302,164.38904 88.125,163.16034 C 88.265062,163.02028 88.425771,162.94263 88.59375,162.91034 z M 43.53125,165.53534 C 44.228159,165.45541 44.350937,165.96034 43.5625,166.91034 C 41.9568,168.84504 43.564601,169.25024 49.625,168.47284 C 52.2908,168.13084 54.46875,168.13935 54.46875,168.47284 C 54.46875,168.80634 55.36875,169.06658 56.46875,169.06659 C 57.56875,169.06659 58.46875,168.74255 58.46875,168.34784 C 58.46875,167.22804 63.412298,168.04129 64.75,169.37909 C 65.6814,170.31049 64.62175,170.5469 59.96875,170.50409 C 56.67565,170.47389 51.760901,170.61584 49.0625,170.78534 C 45.1996,171.02794 43.765401,170.65743 42.3125,169.09784 C 40.9027,167.58464 40.76265,166.92368 41.71875,166.31659 C 42.475575,165.83606 43.113105,165.5833 43.53125,165.53534 z M 38.46875,166.50409 C 39.01875,166.50409 39.46875,166.95409 39.46875,167.50409 C 39.46875,168.05409 39.01875,168.50409 38.46875,168.50409 C 37.91875,168.50409 37.46875,168.05409 37.46875,167.50409 C 37.46875,166.95409 37.91875,166.50409 38.46875,166.50409 z M 69.71875,167.62909 C 69.878425,167.63827 70.016825,167.70841 70.125,167.81659 C 70.4522,168.14379 70.011649,169.11745 69.15625,169.97284 C 68.30085,170.82824 67.335251,171.12099 67.03125,170.62909 C 66.45865,169.70264 68.601022,167.56486 69.71875,167.62909 z M 221.46875,168.50409 C 222.01875,168.50409 222.46876,169.17909 222.46875,170.00409 C 222.46875,170.82909 222.01876,171.50409 221.46875,171.50409 C 220.91875,171.50409 220.46876,170.82909 220.46875,170.00409 C 220.46875,169.17909 220.91876,168.50409 221.46875,168.50409 z M 152.84375,168.84784 C 152.91915,168.82913 153.0041,168.83277 153.09375,168.84784 C 153.21328,168.86794 153.33125,168.91912 153.46875,169.00409 C 154.01875,169.34399 154.46876,169.82409 154.46875,170.06659 C 154.46875,170.30919 154.01876,170.50409 153.46875,170.50409 C 152.91875,170.50409 152.46876,170.02408 152.46875,169.44159 C 152.46875,169.11394 152.61754,168.90396 152.84375,168.84784 z M 76.65625,169.16034 C 76.847425,169.16593 77.04445,169.22081 77.25,169.34784 C 78.2233,169.94934 78.112799,170.50669 76.75,171.69159 C 74.9047,173.29599 69.46875,174.97309 69.46875,173.94159 C 69.46875,173.61689 70.09345,172.75439 70.84375,172.00409 C 71.83985,171.00799 72.505598,170.91583 73.3125,171.72284 C 74.1195,172.52984 74.612598,172.27715 75.1875,170.72284 C 75.5709,169.68649 76.082725,169.14356 76.65625,169.16034 z M 125.59375,170.25409 C 127.36382,170.27329 129.25151,170.45609 130.96875,170.78534 C 132.61875,171.10174 134.30625,171.40369 134.71875,171.44159 C 135.13125,171.47949 135.46875,171.89789 135.46875,172.37909 C 135.46875,173.35349 130.498,173.5906 129,172.69159 C 126.195,171.00819 118.9145,171.7717 120.0625,173.62909 C 120.4011,174.17699 121.20505,174.43669 121.84375,174.19159 C 122.48255,173.94649 125.22565,174.08239 127.96875,174.50409 C 130.71185,174.92569 133.7203,174.88774 134.625,174.41034 C 135.6811,173.85294 136.57255,173.96508 137.15625,174.75409 C 138.63475,176.75229 138.86005,208.315 137.40625,210.06659 C 136.47145,211.19309 134.11165,211.52569 127.46875,211.37909 L 118.75,211.16034 L 118.5,196.59784 C 118.3624,188.57464 118.1569,179.83649 118.0625,177.19159 C 117.9615,174.36249 118.41965,171.95923 119.15625,171.34784 C 120.02925,170.62334 122.64364,170.2221 125.59375,170.25409 z M 88.46875,170.50409 C 89.01875,170.50409 89.46875,170.95409 89.46875,171.50409 C 89.46875,172.05409 89.01875,172.50409 88.46875,172.50409 C 87.91875,172.50409 87.46875,172.05409 87.46875,171.50409 C 87.46875,170.95409 87.91875,170.50409 88.46875,170.50409 z M 182.40625,170.72284 C 184.07975,170.67524 185.683,171.0536 186,171.56659 C 186.7125,172.71949 182.45145,172.76758 180.65625,171.62909 C 179.78585,171.07709 180.38455,170.78035 182.40625,170.72284 z M 82.40625,171.03534 C 82.4927,171.03713 82.566237,171.06151 82.625,171.09784 C 84.1411,172.03484 83.53165,173.11518 80.71875,174.56659 C 79.20625,175.34709 77.374951,176.79159 76.65625,177.75409 C 71.661829,181.96465 63.047334,180.21169 56.9375,180.09784 C 44.3786,179.81964 40.46875,179.20454 40.46875,177.47284 C 40.46875,176.60434 47.1049,176.93504 50.375,177.97284 C 51.4276,178.30694 52.550948,178.19663 52.84375,177.72284 C 53.13665,177.24904 57.736748,176.74619 63.09375,176.62909 C 68.45065,176.51199 73.427602,175.95789 74.125,175.37909 C 74.8224,174.80029 75.787052,174.57369 76.28125,174.87909 C 76.77535,175.18449 78.20885,174.34519 79.46875,173.00409 C 80.571162,171.83063 81.801101,171.02279 82.40625,171.03534 z M 105.46875,171.50409 C 106.01875,171.50409 106.46875,172.17909 106.46875,173.00409 C 106.46875,173.82909 106.01875,174.50409 105.46875,174.50409 C 104.91875,174.50409 104.46875,173.82909 104.46875,173.00409 C 104.46875,172.17909 104.91875,171.50409 105.46875,171.50409 z M 213.90625,171.59784 C 214.31641,171.633 214.46875,172.00409 214.28125,172.56659 C 214.04065,173.28849 213.25316,174.07599 212.53125,174.31659 C 211.78125,174.56659 211.40626,174.19159 211.65625,173.44159 C 211.89695,172.71969 212.68436,171.93219 213.40625,171.69159 C 213.59375,171.62909 213.76953,171.58612 213.90625,171.59784 z M 62.8125,172.03534 C 67.39312,172.06079 68.46875,172.52659 68.46875,173.72284 C 68.46875,174.27284 67.807299,174.47013 67,174.16034 C 66.1926,173.85054 65.2961,173.96248 65,174.44159 C 64.7039,174.92069 62.327752,175.3171 59.71875,175.31659 C 57.10975,175.31609 51.50345,175.36294 47.28125,175.41034 C 40.85505,175.48234 39.53905,175.78919 39.15625,177.25409 C 38.62895,179.27179 38.453351,178.99324 37.96875,175.34784 C 37.62955,172.79644 37.8276,172.70358 42.8125,172.56659 C 45.6564,172.48839 52.01875,172.31115 56.96875,172.16034 C 59.362075,172.08742 61.285627,172.02686 62.8125,172.03534 z M 92.84375,172.78534 C 93.051963,172.7749 93.50935,172.99724 94.28125,173.41034 C 95.41145,174.01524 97.465052,174.50409 98.84375,174.50409 C 100.22245,174.50409 101.6462,174.96293 102,175.53534 C 102.3537,176.10774 103.5092,176.30714 104.5625,175.97284 C 107.5037,175.03934 108.27935,178.52989 108.65625,194.31659 L 108.96875,208.41034 L 106.46875,209.62909 C 101.43115,212.08609 90.752953,211.39089 88.96875,208.50409 C 88.58815,207.88819 88.173748,199.98919 88.03125,190.94159 C 87.75685,173.52499 87.676797,173.80528 92.3125,174.44159 C 93.1073,174.55069 93.361901,174.15954 92.9375,173.47284 C 92.66665,173.03459 92.635537,172.79578 92.84375,172.78534 z M 206.65625,173.03534 C 208.89746,172.96546 210.46875,173.14364 210.46875,173.50409 C 210.46875,174.56799 208.5571,175.81634 206.5,176.09784 C 205.6653,176.21214 203.84376,176.60844 202.46875,176.97284 C 198.70095,177.97154 186.40965,178.20084 185.84375,177.28534 C 185.57115,176.84414 184.53135,176.50409 183.53125,176.50409 C 182.53105,176.50409 181.25649,175.94159 180.6875,175.25409 C 179.8739,174.27109 181.607,173.97089 188.8125,173.87909 C 193.8517,173.81499 200.78126,173.50289 204.21875,173.19159 C 205.07813,173.11377 205.90918,173.05863 206.65625,173.03534 z M 34.84375,175.84784 C 34.919153,175.82913 35.004101,175.83277 35.09375,175.84784 C 35.213281,175.86794 35.33125,175.91912 35.46875,176.00409 C 36.01875,176.34399 36.46875,176.82409 36.46875,177.06659 C 36.46875,177.30919 36.01875,177.50409 35.46875,177.50409 C 34.91875,177.50409 34.46875,177.02408 34.46875,176.44159 C 34.46875,176.11394 34.617541,175.90396 34.84375,175.84784 z M 105.59375,211.94159 C 106.06565,211.87123 106.23155,212.07891 105.96875,212.50409 C 105.63275,213.04779 104.92375,213.50409 104.40625,213.50409 C 102.96785,213.50409 103.29875,212.79379 105.03125,212.12909 C 105.25373,212.04372 105.43645,211.96504 105.59375,211.94159 z M 133.375,212.59784 C 133.65039,212.54438 133.88912,212.58072 134.0625,212.75409 C 134.3142,213.00579 133.8383,213.77703 133,214.47284 C 132.0496,215.26154 131.46875,215.35469 131.46875,214.69159 C 131.46875,213.78514 132.54884,212.75821 133.375,212.59784 z M 108.53125,214.50409 C 109.04885,214.50409 109.46875,214.95409 109.46875,215.50409 C 109.46875,216.05409 108.76375,216.50409 107.90625,216.50409 C 107.04875,216.50409 106.62885,216.05409 106.96875,215.50409 C 107.30865,214.95409 108.01375,214.50409 108.53125,214.50409 z"
     id="path2384"
     sodipodi:nodetypes="cccccssscccsssssccccsccccccccssssccssccssssccssccsccsccssccsssssssssssssssssccssssssssssssssssssssssssssssssssssssssssccccccssssssssssssssssscccssssccssccsccssssccsssccccscccccssssssssscccssssccsssssssssssssssccssssscccssssccssssssssssssssssssccsssssssccssscccsssssssssssscccssssssccccsccscccssssssssccssssccsssccsssssssccsssccsssccsssccssssssssssssssssscccsssccssccssssccssssccssssssccsssssssssscccsssscccsssssccssssssccsssssssccsssccsssssccsssccsssssccsssccsssssssssccsssccsssscccsssssssssssssssscccsssccsssccsssccssssccsssccssssccsssccsssccsssccsssccscccsssssssscccccssssccsssccsssssccsssssccsssccssssssccsssccsssccssscccssssssssssssssssssccsssccsssssssssssssssssssccsssssccsssssssssssccsssccsssssccssssccsssccsssccssssssssssssssssccssssssssssssssssccsssssccsssssccssssssssssssccssssssccssssssssssccsssccsssccsssccsssssccssssssccsssssssssscccssccsssccssccssccsssssssccsssccssssccsssssssssccsssscccssssccssssssssccsssssccsssccsssccsssc" />
</svg>

