<?xml version="1.0" encoding="UTF-8" standalone="no"?>
<!-- Created with Inkscape (http://www.inkscape.org/) -->
<svg
   xmlns:dc="http://purl.org/dc/elements/1.1/"
   xmlns:cc="http://creativecommons.org/ns#"
   xmlns:rdf="http://www.w3.org/1999/02/22-rdf-syntax-ns#"
   xmlns:svg="http://www.w3.org/2000/svg"
   xmlns="http://www.w3.org/2000/svg"
   xmlns:sodipodi="http://sodipodi.sourceforge.net/DTD/sodipodi-0.dtd"
   xmlns:inkscape="http://www.inkscape.org/namespaces/inkscape"
   width="160"
   height="160"
   id="svg2"
   sodipodi:version="0.32"
   inkscape:version="0.46"
   version="1.0"
   sodipodi:docname="2.5.svg"
   inkscape:output_extension="org.inkscape.output.svg.inkscape">
  <defs
     id="defs4">
    <inkscape:perspective
       sodipodi:type="inkscape:persp3d"
       inkscape:vp_x="0 : 526.18109 : 1"
       inkscape:vp_y="0 : 1000 : 0"
       inkscape:vp_z="744.09448 : 526.18109 : 1"
       inkscape:persp3d-origin="372.04724 : 350.78739 : 1"
       id="perspective10" />
    <inkscape:perspective
       id="perspective2487"
       inkscape:persp3d-origin="372.04724 : 350.78739 : 1"
       inkscape:vp_z="744.09448 : 526.18109 : 1"
       inkscape:vp_y="0 : 1000 : 0"
       inkscape:vp_x="0 : 526.18109 : 1"
       sodipodi:type="inkscape:persp3d" />
  </defs>
  <sodipodi:namedview
     id="base"
     pagecolor="#ffffff"
     bordercolor="#666666"
     borderopacity="1.0"
     gridtolerance="10000"
     guidetolerance="10"
     objecttolerance="10"
     inkscape:pageopacity="0.0"
     inkscape:pageshadow="2"
     inkscape:zoom="1.4"
     inkscape:cx="43.767731"
     inkscape:cy="16.673387"
     inkscape:document-units="px"
     inkscape:current-layer="layer1"
     showgrid="false"
     borderlayer="true"
     inkscape:window-width="1220"
     inkscape:window-height="756"
     inkscape:window-x="0"
     inkscape:window-y="0" />
  <metadata
     id="metadata7">
    <rdf:RDF>
      <cc:Work
         rdf:about="">
        <dc:format>image/svg+xml</dc:format>
        <dc:type
           rdf:resource="http://purl.org/dc/dcmitype/StillImage" />
      </cc:Work>
    </rdf:RDF>
  </metadata>
  <g
     inkscape:label="Layer 1"
     inkscape:groupmode="layer"
     id="layer1"
     transform="translate(-221.83266,-514.375)">
    <rect
       style="opacity:1;fill:#ffffff;fill-opacity:1;stroke:#ffffff;stroke-width:0.5;stroke-linecap:square;stroke-miterlimit:4;stroke-dasharray:none;stroke-dashoffset:0;stroke-opacity:1"
       id="rect2505"
       width="206.42857"
       height="187.14285"
       x="198.61838"
       y="500.80359" />
    <path
       style="fill:#000000"
       d="M 278.51008,535.41437 C 274.83038,535.41437 270.35223,539.00049 269.44758,542.69562 C 269.01578,544.45941 268.92687,557.16439 269.22883,570.91437 C 269.53078,584.66437 269.08703,606.59144 269.19758,605.44562 C 269.20235,605.39618 269.22343,605.31101 269.22883,605.25812 C 269.05681,608.96716 269.39371,614.89038 270.10383,616.75812 C 270.61871,618.11237 270.7591,619.47789 270.41633,619.82062 C 269.443,620.79395 269.33216,624.75543 270.22883,626.41437 C 270.67475,627.23937 272.28579,627.91439 273.82258,627.91437 C 275.83999,627.91437 276.70911,628.47038 276.94758,629.91437 C 277.12923,631.01437 277.56289,632.58939 277.91633,633.41437 C 278.31149,634.33671 278.69818,633.56652 278.91633,631.41437 C 279.32458,627.38681 281.5618,625.24374 284.57258,625.97687 C 286.14023,626.3586 286.98264,625.78257 287.94758,623.69562 C 289.09056,621.22369 289.01945,620.75699 287.26008,619.57062 C 285.58926,618.44394 285.45306,617.82162 286.35383,615.57062 C 287.00123,613.95273 287.60705,599.06228 287.91633,577.66437 L 288.44758,542.41437 L 284.72883,538.91437 C 282.51214,536.82376 280.02073,535.41439 278.51008,535.41437 z M 318.47883,537.41437 C 316.05508,537.96672 313.66653,538.5614 311.38508,539.75812 C 309.86519,541.27801 309.65621,544.10783 309.54133,563.69562 C 309.46968,575.91476 309.7587,588.83939 310.16633,592.41437 L 309.94758,601.13312 L 310.32258,610.28937 C 310.58773,617.12152 310.35102,619.41472 309.41633,619.41437 C 307.89047,619.41376 307.77515,623.82315 309.22883,626.53937 C 309.9681,627.9207 310.87542,628.3226 312.26008,627.88312 C 315.03627,627.00199 317.16633,629.08892 317.16633,632.72687 C 317.16633,636.56775 318.89313,635.14163 319.35383,630.91437 C 319.65381,628.16186 319.95465,627.94116 323.32258,628.03937 C 326.25907,628.125 327.12013,627.72492 327.57258,626.03937 C 328.44555,622.78722 328.27396,619.62669 327.19758,619.25812 C 326.57423,619.04466 326.61893,616.5253 327.32258,612.28937 C 327.88101,605.47195 327.58844,598.79781 328.10383,591.91437 C 327.89459,578.99139 327.93082,567.29101 328.10383,554.35187 C 328.15151,545.83901 327.2483,540.26149 326.22883,539.72687 C 323.77759,538.53606 321.09932,537.68548 318.47883,537.41437 z M 280.97883,538.41437 C 283.05534,538.41437 285.32879,541.19977 285.01008,543.35187 C 284.82035,544.63302 283.65383,546.34676 282.41633,547.16437 C 280.18236,548.64035 280.16633,548.62483 280.16633,543.53937 C 280.16633,540.72229 280.53395,538.41439 280.97883,538.41437 z M 274.94758,538.72687 C 276.12069,538.77077 276.76125,540.42313 276.97883,543.75812 C 277.31104,548.85018 277.00663,549.0709 272.91633,546.85187 C 269.63632,545.07243 269.43341,543.14731 272.22883,540.35187 C 273.34118,539.23952 274.24371,538.70053 274.94758,538.72687 z M 321.79133,539.07062 C 322.73744,539.15325 324.12219,540.22969 325.94758,542.44562 C 326.85939,545.41719 327.61632,545.50774 325.16633,547.41437 C 320.76354,550.84071 319.86951,550.10993 320.35383,543.41437 C 320.08683,540.50444 320.57491,538.96438 321.79133,539.07062 z M 315.66633,539.19562 C 316.10671,539.17213 316.55045,539.37257 317.16633,539.91437 C 318.28469,540.60556 318.54035,548.6966 317.47883,549.75812 C 316.46889,550.76807 311.16633,545.3357 311.16633,543.28937 C 311.16633,542.3196 311.95841,541.07546 312.91633,540.53937 C 314.22972,539.88564 314.93236,539.23477 315.66633,539.19562 z M 271.16633,562.35187 L 274.16633,564.57062 C 276.90113,566.59254 277.16633,567.30374 277.16633,572.60187 C 277.16633,575.79844 276.82883,578.38511 276.41633,578.35187 C 276.00383,578.31862 274.65383,577.29421 273.41633,576.07062 C 271.60228,574.27694 271.16633,572.73354 271.16633,568.10187 L 271.16633,562.35187 z M 286.82258,562.44562 L 286.91633,565.66437 C 286.9585,567.44785 286.56962,570.32819 286.04133,572.07062 C 285.51304,573.81307 283.94683,575.98266 282.57258,576.88312 L 280.07258,578.53937 L 280.35383,572.41437 C 280.62764,566.83035 280.93793,566.16528 283.76008,564.38312 L 286.82258,562.44562 z M 311.66633,562.53937 L 315.01008,565.28937 C 318.29738,567.97903 318.34882,568.15578 317.51008,573.16437 L 316.66633,578.25812 L 313.85383,575.85187 C 311.33226,573.67261 311.08362,572.87586 311.35383,567.97687 L 311.66633,562.53937 z M 324.19758,565.32062 C 326.29143,565.34718 326.74565,565.95537 326.85383,572.00812 C 325.78247,573.8615 322.91987,578.35638 321.41633,578.38312 C 320.56785,578.39822 320.16633,576.67476 320.16633,573.00812 C 320.16633,568.00264 320.40478,567.47779 323.41633,565.57062 C 323.69767,565.39245 323.96309,565.31765 324.19758,565.32062 z M 326.57258,591.41437 C 326.82961,596.90813 327.23445,601.65575 324.19758,604.38312 C 322.90808,605.5015 321.47594,606.41439 321.01008,606.41437 C 320.54424,606.41437 320.16633,603.81452 320.16633,600.63312 C 320.16633,595.30885 320.39931,594.71225 323.07258,593.13312 C 324.66994,592.18953 326.24493,591.41439 326.57258,591.41437 z M 285.22883,591.50812 C 286.36697,591.50143 286.54848,593.22739 286.32258,597.16437 C 286.06691,601.62029 285.50381,603.29452 283.82258,604.63312 C 281.64875,606.36395 280.2482,606.85104 280.07258,605.91437 C 280.02102,605.63937 279.90852,603.10758 279.82258,600.28937 C 279.69107,595.97663 280.03408,594.86824 282.04133,593.28937 C 283.51125,592.13313 284.54595,591.51213 285.22883,591.50812 z M 273.29133,592.66437 C 273.62702,592.60805 273.98168,592.74533 274.35383,593.10187 C 276.75356,595.40096 277.16633,596.57965 277.16633,601.10187 C 277.16633,604.02397 276.79226,606.41439 276.32258,606.41437 C 271.92434,603.87635 268.6442,596.67272 273.29133,592.66437 z M 313.54133,592.97687 C 313.9192,592.94994 314.35963,593.13759 314.85383,593.60187 C 316.65298,595.29208 317.16633,596.85062 317.16633,600.60187 C 317.16633,606.04834 315.94338,606.72087 312.26008,603.28937 L 311.60383,602.10187 C 311.79191,598.3811 311.69705,593.10832 313.54133,592.97687 z M 303.69758,642.16437 C 292.11263,642.96207 280.46301,642.89772 268.91633,644.57062 C 266.31021,645.13859 263.0477,646.51528 261.66633,647.60187 L 259.16633,649.57062 L 259.16633,645.97687 C 259.16633,643.74671 258.53754,642.40969 257.82258,642.38312 C 257.3936,642.36718 256.93225,642.83314 256.54133,643.85187 C 256.23807,644.64214 255.40284,645.07201 254.66633,644.78937 C 252.63292,644.00908 248.72382,646.37809 249.97883,647.63312 C 251.69281,649.3471 250.11388,651.41439 247.10383,651.41437 C 245.54513,651.41437 243.96023,651.94343 243.57258,652.57062 C 243.0544,653.40906 245.21966,653.53052 251.76008,653.07062 C 256.65276,652.72657 266.51633,652.17233 273.66633,651.82062 L 287.76008,651.41437 L 307.22883,651.53937 C 317.92423,651.60093 330.94133,651.92831 336.16633,652.28937 C 350.55305,653.28359 360.16633,653.57121 360.16633,653.00812 C 360.16633,652.73012 359.66944,651.4431 359.07258,650.13312 C 356.48014,644.44334 348.03876,642.66129 322.16633,642.32062 C 316.06621,642.24029 311.27885,642.17089 307.51008,642.16437 C 306.09679,642.16193 304.83534,642.15341 303.69758,642.16437 z M 317.85383,643.44562 C 320.70887,643.42834 323.30385,643.80399 323.60383,644.28937 C 323.90379,644.77473 323.20501,646.3497 322.07258,647.78937 C 320.35544,649.97237 319.22651,650.41439 315.16633,650.41437 C 309.44132,650.41437 308.38776,649.33348 310.85383,645.94562 C 312.36608,643.86811 313.50104,643.47199 317.85383,643.44562 z M 294.16633,643.63312 C 294.16633,644.29444 292.73673,646.31946 290.97883,648.13312 C 289.25338,650.50951 288.05875,650.19038 285.35383,650.16437 C 281.96215,650.16439 275.16633,650.10394 275.16633,649.72687 C 275.16633,648.0037 279.78524,644.41036 282.10383,644.32062 C 286.10048,644.15887 290.3531,643.8551 294.16633,643.63312 z M 346.85383,645.53937 C 347.42731,645.5497 348.07998,645.63254 348.85383,645.75812 C 352.79824,646.39821 357.41255,649.20512 357.32258,650.91437 C 357.24884,652.3156 355.70177,652.33018 347.32258,651.03937 L 339.97883,649.91437 L 342.54133,647.53937 C 344.1132,646.06776 345.1334,645.50838 346.85383,645.53937 z"
       id="path2495"
       sodipodi:nodetypes="cssscsssssssssssccccccscccssssssssccccccsssccssscccsccccssccccsssccccsccccccccccccccssscccsssccsssssccsscccssccccccccssssssscccsssssccssssccccscccsscccc" />
  </g>
</svg>

