<?xml version="1.0" encoding="UTF-8" standalone="no"?>
<!-- Created with Inkscape (http://www.inkscape.org/) -->
<svg
   xmlns:dc="http://purl.org/dc/elements/1.1/"
   xmlns:cc="http://creativecommons.org/ns#"
   xmlns:rdf="http://www.w3.org/1999/02/22-rdf-syntax-ns#"
   xmlns:svg="http://www.w3.org/2000/svg"
   xmlns="http://www.w3.org/2000/svg"
   xmlns:sodipodi="http://sodipodi.sourceforge.net/DTD/sodipodi-0.dtd"
   xmlns:inkscape="http://www.inkscape.org/namespaces/inkscape"
   id="svg2541"
   sodipodi:version="0.32"
   inkscape:version="0.46"
   width="405.40994"
   height="427.15067"
   version="1.0"
   sodipodi:docname="fan.svg"
   inkscape:output_extension="org.inkscape.output.svg.inkscape">
  <metadata
     id="metadata2546">
    <rdf:RDF>
      <cc:Work
         rdf:about="">
        <dc:format>image/svg+xml</dc:format>
        <dc:type
           rdf:resource="http://purl.org/dc/dcmitype/StillImage" />
      </cc:Work>
    </rdf:RDF>
  </metadata>
  <defs
     id="defs2544">
    <inkscape:perspective
       sodipodi:type="inkscape:persp3d"
       inkscape:vp_x="0 : 526.18109 : 1"
       inkscape:vp_y="0 : 1000 : 0"
       inkscape:vp_z="744.09448 : 526.18109 : 1"
       inkscape:persp3d-origin="372.04724 : 350.78739 : 1"
       id="perspective2548" />
  </defs>
  <sodipodi:namedview
     inkscape:window-height="756"
     inkscape:window-width="1222"
     inkscape:pageshadow="2"
     inkscape:pageopacity="1"
     guidetolerance="10.0"
     gridtolerance="10.0"
     objecttolerance="10.0"
     borderopacity="1.0"
     bordercolor="#666666"
     pagecolor="#ffffff"
     id="base"
     showgrid="false"
     inkscape:zoom="1.0802603"
     inkscape:cx="226.68414"
     inkscape:cy="228.75883"
     inkscape:window-x="0"
     inkscape:window-y="0"
     inkscape:current-layer="svg2541" />
  <path
     style="fill:#000000"
     d="M 153.65994,426.99741 C 146.08224,426.76187 144.40994,426.42876 144.40994,425.15489 C 144.40994,424.29964 145.96262,418.57902 147.86034,412.44241 C 149.75806,406.3058 152.12481,398.13494 153.11977,394.28494 L 154.9288,387.28494 L 201.6863,387.02504 L 248.4438,386.76514 L 249.39951,389.02504 C 249.92515,390.26799 252.13755,398.25994 254.31595,406.78494 C 256.49436,415.30994 258.57836,423.06865 258.94707,424.02651 C 259.35555,425.08771 259.08858,425.96267 258.26369,426.26617 C 256.7456,426.82473 168.05141,427.44476 153.65994,426.99741 z M 96.90994,394.31186 C 72.233605,388.90742 52.402292,367.72743 43.046168,336.78494 C 40.41052,328.06835 37.214638,309.48036 35.361919,292.09156 C 34.10797,280.32255 34.102737,247.69214 35.354598,246.44028 C 35.843036,245.95184 42.242804,244.94517 49.576304,244.20324 C 56.909804,243.4613 64.82244,242.55442 67.15994,242.18793 C 69.49744,241.82145 71.448047,241.91835 71.494623,242.40327 C 71.541199,242.88819 71.699825,253.40994 71.847126,265.78494 C 71.994427,278.15994 72.382004,289.40994 72.708408,290.78494 C 73.034813,292.15994 73.790959,297.10994 74.388733,301.78494 C 78.11625,330.93667 84.35388,347.78494 91.41902,347.78494 C 94.90068,347.78494 95.18493,347.36942 96.47413,340.39551 C 99.08434,326.2756 109.36529,317.02686 123.58559,316.00606 C 129.47269,315.58345 131.01425,315.87922 136.63596,318.50993 C 146.85559,323.29228 152.84746,332.80208 154.07038,346.18045 C 156.13804,368.79982 140.39899,389.39027 117.24577,394.35586 C 109.4612,396.02539 104.68663,396.01506 96.90994,394.31186 z M 286.5484,394.14595 C 271.18203,391.12298 260.72522,383.31995 254.47576,370.21287 C 248.24958,357.15461 248.23588,343.89703 254.4354,331.15389 C 258.03458,323.75576 264.93439,318.46992 273.30417,316.69881 C 283.26364,314.59131 290.60638,316.68477 298.91886,324.0017 C 304.40597,328.83165 306.08292,331.87192 307.71923,339.95658 C 309.20439,347.29441 311.10437,349.02659 315.16857,346.74799 C 320.92405,343.52118 326.7899,326.36928 329.4449,305.00364 C 331.3801,289.43042 332.85961,266.38488 332.69984,254.30334 C 332.60674,247.26355 332.95135,242.06836 333.53535,241.70743 C 334.08202,241.36957 338.43995,241.66394 343.21962,242.36158 C 347.9993,243.05923 356.06237,244.1787 361.13756,244.84929 C 369.05456,245.89536 370.46519,246.36797 371.06933,248.17674 C 372.13946,251.38066 371.66048,281.16099 370.38403,290.78494 C 367.11715,315.41587 363.45065,333.97936 359.96076,343.55797 C 355.56736,355.61641 341.93119,373.65623 329.91598,383.30536 C 322.03665,389.63306 315.82855,392.36065 305.02895,394.23971 C 294.81457,396.01694 296.09193,396.02342 286.5484,394.14595 z M 156.88033,381.73703 C 156.02397,380.35141 157.33634,372.94846 158.57393,372.18359 C 159.11841,371.84708 178.70177,371.55755 202.09251,371.54018 C 237.30914,371.51403 244.77237,371.74727 245.50082,372.89677 C 246.79129,374.93314 247.76242,380.76576 246.94685,381.58157 C 245.77435,382.75441 157.60317,382.9066 156.88033,381.73703 z M 185.65994,368.03409 L 159.40994,367.75173 L 159.40994,364.2026 C 162.35551,353.79955 152.93233,356.90932 201.92498,356.94081 C 240.24235,356.96528 241.50961,356.08691 242.44213,357.82933 C 243.83518,360.43227 244.64919,366.77254 243.15994,367.24043 C 240.95162,367.93425 212.66966,368.32461 185.65994,368.03409 z M 161.71404,347.53494 C 162.01351,344.09744 162.7827,332.50994 163.42336,321.78494 C 164.06401,311.05994 164.78287,301.26759 165.02082,300.02417 C 165.36972,298.20095 167.31248,300.52347 175.05867,312.02417 C 188.77591,332.39001 198.7977,344.71002 201.69512,344.76897 C 205.76585,344.85178 225.71756,318.98643 235.53183,300.90315 L 237.90994,296.52136 L 238.57233,301.40315 C 238.93665,304.08814 239.27945,309.65994 239.33411,313.78494 C 239.38876,317.90994 240.10443,328.23261 240.92447,336.72422 C 242.11481,349.05018 242.16285,352.32389 241.1627,352.9589 C 240.47368,353.39638 222.19335,353.76121 200.53975,353.76963 L 161.16956,353.78494 L 161.71404,347.53494 z M 196.24279,333.53494 C 188.94629,324.84883 186.14065,320.87726 177.69902,307.28494 C 166.40328,289.09706 162.43154,279.92357 157.9994,261.78494 C 150.78648,232.26588 150.7234,193.5922 157.86189,177.47925 C 162.58987,166.8073 174.267,156.98365 186.56605,153.33122 C 192.95686,151.43335 200.39976,151.27435 200.43486,153.03494 C 200.44857,153.72244 200.43766,194.18914 200.41062,242.96094 C 200.36195,330.76358 200.51046,335.08442 203.47511,332.11977 C 203.98134,331.61354 204.41014,293.0424 204.4682,242.79127 C 204.52588,192.86361 204.96022,153.62524 205.46566,152.68082 C 206.27968,151.15982 207.00269,151.13023 213.42998,152.3549 C 223.77747,154.32652 231.86152,158.71257 238.69503,166.06259 C 248.63913,176.75829 250.85649,183.9863 251.95455,209.28494 C 252.55601,223.14227 250.9465,242.28603 248.33934,252.28494 C 247.7657,254.48494 246.85758,258.08494 246.32129,260.28494 C 240.6766,283.44096 229.21785,306.04292 211.59316,328.78494 C 202.14989,340.97005 202.41858,340.88691 196.24279,333.53494 z M 84.90891,300.56991 C 82.24147,293.20031 82.82815,256.76575 85.83938,242.78494 C 90.7882,219.8081 101.73914,198.39367 116.93172,181.98428 C 122.54272,175.92388 135.01493,165.78494 136.85901,165.78494 C 137.18388,165.78494 139.12824,164.73019 141.17981,163.44105 C 146.86428,159.86913 167.71518,153.75684 169.18877,155.23044 C 169.45661,155.49828 166.95303,158.42328 163.62527,161.73044 C 155.41201,169.89288 151.0692,179.66327 148.89291,194.87511 C 148.47198,197.81731 146.99495,199.68709 140.70903,205.23506 C 121.36683,222.30652 110.70821,235.4286 100.05522,255.28494 C 94.88506,264.92171 85.82777,291.82544 86.85365,294.49883 C 87.91895,297.27499 90.3547,295.70113 91.44066,291.53494 C 97.98066,266.44479 110.25909,242.51435 124.30921,227.47476 C 137.35416,213.51113 144.38088,206.78494 145.92349,206.78494 C 147.42528,206.78494 148.01349,212.31426 147.57238,222.28494 C 147.47505,224.48494 148.01874,230.33494 148.78057,235.28494 L 150.16573,244.28494 L 146.03783,249.2696 C 143.76749,252.01116 141.01362,255.38616 139.91811,256.7696 C 137.43228,259.90879 123.32086,274.06446 117.74423,279.01303 C 112.53528,283.63532 92.46747,298.18671 88.40372,300.28816 C 86.01454,301.52365 85.27568,301.58322 84.90891,300.56991 z M 302.80064,291.50305 C 278.15293,273.65291 268.64191,264.76271 258.46604,250.06238 L 254.15865,243.83982 L 255.2843,236.27153 C 255.9034,232.10897 256.40994,223.54663 256.40994,217.24409 C 256.40994,210.94156 256.78111,205.78494 257.23476,205.78494 C 257.68842,205.78494 264.14853,211.97244 271.59056,219.53494 C 293.85287,242.15761 305.94565,263.72357 312.80454,293.03494 C 313.17981,294.63864 314.12342,295.78494 315.06828,295.78494 C 317.44346,295.78494 316.34364,288.74282 311.87081,275.31149 C 307.16114,261.16898 303.02109,252.86153 293.91684,239.28494 C 287.18596,229.2476 278.18203,219.48897 258.23458,200.61186 C 256.13033,198.62052 255.40994,196.9996 255.40994,194.25621 C 255.40994,188.64458 252.61203,178.91096 249.23807,172.78494 C 247.57203,169.75994 243.44164,164.42292 240.05942,160.9249 L 233.90994,154.56485 L 238.90994,155.22656 C 250.89126,156.8122 264.03024,162.93369 279.0629,173.93394 C 285.23927,178.45354 296.57851,192.16584 304.16132,204.28494 C 311.86539,216.59783 319.52136,242.27937 321.36523,261.99458 C 322.64277,275.65435 320.44948,300.65461 317.90633,301.42092 C 317.35831,301.58605 310.56076,297.123 302.80064,291.50305 z M 0.018349674,246.91588 C -0.39321033,246.19948 6.2025517,232.91745 11.32899,224.13941 C 18.351151,212.1153 41.810101,185.9067 55.969565,174.26645 C 67.160759,165.06637 87.62268,153.07553 101.03691,147.85664 C 117.84592,141.317 133.92414,138.78544 146.42285,140.7105 C 153.81774,141.84947 172.90613,147.88113 174.65713,149.63213 C 175.19469,150.16969 173.60704,150.80247 170.73512,151.1953 C 159.20586,152.77228 148.53013,155.24487 143.6235,157.47458 C 136.876,160.54084 122.51521,169.7916 117.5773,174.2527 C 114.79204,176.76902 111.64159,178.26357 105.84004,179.82076 C 101.47849,180.99145 95.00067,183.09032 91.44489,184.48493 C 81.31448,188.45816 59.128493,199.2119 53.245555,203.00049 C 50.310967,204.89035 46.55994,207.26914 44.90994,208.2867 C 40.190598,211.19712 15.382009,230.84316 10.667617,235.40336 C 8.3258947,237.66849 6.4099397,240.03099 6.4099397,240.65336 C 6.4099397,243.30668 11.114687,241.51561 15.505644,237.19068 C 18.071065,234.66383 22.450776,230.95133 25.238335,228.94068 C 28.025894,226.93002 33.59237,222.56478 37.608282,219.24015 C 48.237914,210.44024 66.451056,199.6 82.90994,192.27714 C 92.39268,188.0581 107.42607,183.00203 107.95299,183.85459 C 108.21699,184.28177 105.91252,188.1443 102.83193,192.438 C 96.43374,201.35575 89.79511,214.57022 85.75172,226.4369 L 82.97406,234.58885 L 75.942,236.15396 C 65.207427,238.54311 58.840769,239.59669 47.90994,240.7928 C 26.474813,243.13835 12.863453,244.93025 6.7544267,246.21081 C 3.2489387,246.94562 0.21770467,247.2629 0.018349674,246.91588 z M 396.40994,245.73336 C 394.48494,245.26759 386.60994,244.18 378.90994,243.3165 C 371.20994,242.453 360.85994,241.10328 355.90994,240.31713 C 350.95994,239.53098 341.87796,238.13384 335.72776,237.21238 C 329.57756,236.29091 323.56533,235.03028 322.36726,234.41096 C 320.81916,233.61071 319.2055,230.41038 316.78972,223.34916 C 312.81176,211.72172 306.05377,198.67162 299.75416,190.45239 C 293.19432,181.89363 293.20847,181.59959 300.07869,183.71227 C 303.28588,184.69852 307.93494,186.43321 310.40994,187.56713 C 312.88494,188.70105 316.48494,190.28472 318.40994,191.08641 C 346.47794,202.77555 367.14016,216.11137 388.61322,236.39703 C 394.10438,241.58456 397.44218,243.15988 397.38063,240.53494 C 397.33035,238.39105 392.01145,233.27581 377.74074,221.64707 C 360.405,207.52073 341.8057,195.9836 328.35087,191.01057 C 325.29339,189.88049 318.08707,186.94637 312.33684,184.4903 C 306.5866,182.03422 299.36216,179.50162 296.28253,178.86229 C 291.03553,177.77302 288.05308,176.11808 282.62701,171.28494 C 281.39206,170.18494 275.32552,166.2352 269.1458,162.50773 C 257.69567,155.60128 247.78202,151.83066 240.80213,151.72731 C 235.27673,151.6455 228.72036,150.35361 229.93948,149.5869 C 233.89194,147.10116 247.79112,142.60502 255.12073,141.4412 C 267.86312,139.41792 283.97258,140.79086 297.40994,145.04532 C 306.49833,147.92283 323.38622,156.87724 338.01457,166.57498 C 341.92212,169.16546 347.09712,172.58676 349.51457,174.17786 C 355.17194,177.9014 374.21231,197.18356 381.7472,206.81978 C 390.51103,218.02768 405.40994,242.54359 405.40994,245.75642 C 405.40994,246.95324 401.40925,246.94299 396.40994,245.73336 z M 35.039096,184.03494 C 33.469029,178.60078 32.190036,145.97914 32.755294,125.78494 C 33.928115,83.885237 37.348958,70.530416 51.666359,51.956998 C 53.925247,49.026628 58.093437,44.647007 60.929003,42.224507 C 66.097387,37.809019 84.14052,28.673728 87.90403,28.566975 C 89.00728,28.535681 92.0816,27.911032 94.73585,27.178866 C 105.04392,24.335426 125.63189,31.123182 135.81061,40.721018 C 153.45114,57.354825 160.26972,80.361107 153.22411,99.475204 C 150.97935,105.56505 142.60233,114.62053 136.15771,117.92384 C 130.30664,120.92291 118.93354,121.63852 113.01904,119.37976 C 104.40179,116.0888 96.20578,104.97404 94.82304,94.703854 C 94.46735,92.061994 94.86788,87.545494 95.81902,83.472891 C 97.80925,74.951077 97.81412,75.071624 95.42754,73.794363 C 93.87086,72.961254 92.4111,73.257403 88.63006,75.173399 C 77.51184,80.807429 72.305952,89.952824 69.961151,107.96985 C 68.69586,117.69211 67.83255,142.77858 68.504946,150.28494 C 69.244266,158.53841 68.805903,159.36747 60.65994,165.12192 C 56.39744,168.13302 49.239408,174.01401 44.753202,178.19079 C 40.266996,182.36757 36.35982,185.78494 36.07059,185.78494 C 35.781359,185.78494 35.317187,184.99744 35.039096,184.03494 z M 364.36815,181.20779 C 360.70288,177.44474 342.51309,163.62093 337.63391,160.8904 C 336.63666,160.33231 336.32519,155.20935 336.28629,138.72475 C 336.19622,100.55975 333.208,87.397604 322.84889,79.537398 C 317.41049,75.410885 312.17653,73.276799 309.76448,74.202387 C 308.54123,74.671793 308.33642,75.724045 308.82221,79.04355 C 310.38647,89.732514 310.57103,96.770234 309.38341,100.44363 C 307.46352,106.38203 301.85843,113.33462 296.11944,116.89634 C 291.64662,119.67226 289.76576,120.19236 282.8188,120.57426 C 276.17989,120.93923 273.89738,120.6518 270.10177,118.97282 C 263.45123,116.03097 258.1197,110.64649 253.73686,102.44536 C 249.98461,95.424194 249.91111,95.080754 249.95719,84.784944 C 250.0112,72.715439 252.45065,64.368866 258.9141,54.138897 C 268.026,39.717119 280.85767,31.062105 298.40994,27.498788 C 313.89745,24.354642 334.86875,32.26101 349.32911,46.695777 C 358.85486,56.204663 359.94395,57.622663 363.95499,65.738667 C 369.32031,76.594954 371.29589,84.897133 372.77053,102.78494 C 375.01624,130.02623 373.14762,185.78494 369.98898,185.78494 C 369.34954,185.78494 366.82016,183.72522 364.36815,181.20779 z M 209.07818,148.36864 C 203.95714,147.40962 200.04253,147.3422 193.4453,148.09939 C 185.08808,149.05858 184.32304,148.97985 178.27706,146.53831 C 174.77514,145.12413 170.51749,143.45052 168.8156,142.81917 L 165.72126,141.67125 L 166.16808,128.9781 C 166.52211,118.92078 166.9465,116.02412 168.21177,115.02893 C 170.58696,113.16073 235.96823,113.54778 237.53808,115.43933 C 238.21338,116.25302 238.38594,118.45931 237.98395,121.13998 C 237.62326,123.54524 237.80684,128.50969 238.39191,132.17208 C 239.5092,139.16604 238.68586,142.78494 235.97738,142.78494 C 235.22817,142.78494 231.82178,144.1709 228.40761,145.86484 C 220.82444,149.62725 217.85373,150.01205 209.07818,148.36864 z M 166.81547,109.39934 C 166.52303,108.63727 166.42465,106.04977 166.59685,103.64934 L 166.90994,99.284944 L 182.90994,98.784944 C 191.70994,98.509944 207.79744,98.415514 218.65994,98.575094 L 238.40994,98.865244 L 238.40994,103.2433 C 238.40994,111.39689 241.34232,110.78494 202.27157,110.78494 C 173.43174,110.78494 167.25454,110.54354 166.81547,109.39934 z M 167.75258,94.977534 C 165.9244,94.717024 165.54294,93.901354 165.25258,89.631774 C 165.06413,86.860684 165.17056,84.432483 165.48909,84.235765 C 166.1291,83.840509 184.48767,83.665178 217.65994,83.737515 L 239.40994,83.784944 L 239.40994,89.284944 C 239.40994,94.565494 239.30021,94.793634 236.65994,95.002674 C 232.35001,95.343924 170.16459,95.321234 167.75258,94.977534 z M 165.62119,79.891222 C 164.37101,79.086329 163.63252,76.359905 162.99472,70.194584 C 161.41454,54.919741 152.63263,19.468975 147.41161,7.2888456 C 144.43647,0.34811261 144.66577,-0.57467439 149.15994,0.25290461 C 155.38367,1.3989716 179.24404,9.7329826 184.23845,12.505218 C 186.80777,13.931365 191.63216,16.744937 194.95931,18.757601 C 203.62209,23.997895 203.67653,24.004829 209.0688,20.554911 C 226.26484,9.5530566 260.42772,-2.7718034 260.40369,2.0349436 C 260.40026,2.7224436 257.9215,10.617052 254.89534,19.578518 C 249.04864,36.892546 245.61671,50.218794 242.39091,68.133329 C 241.29779,74.204015 239.85418,79.510388 239.18289,79.925269 C 237.74572,80.813489 167.00283,80.780746 165.62119,79.891222 z"
     id="path2552"
     sodipodi:nodetypes="csscccccsssccsssssssssssssssccssssssssssssssssccssssccccsssccsssscccsssccccsssssssssssssssccsssssssssssssscccssscccccsssssssssscccssssccsssssssssssssssssssscccssccsssssssssssssssssssssssssccssssssssssssssssssccsssssssssssssssssccsscccssssssccccccccsccsscccsccssssssssssc" />
</svg>

