<?xml version="1.0" encoding="UTF-8" standalone="no"?>
<!-- Created with Inkscape (http://www.inkscape.org/) -->
<svg
   xmlns:dc="http://purl.org/dc/elements/1.1/"
   xmlns:cc="http://creativecommons.org/ns#"
   xmlns:rdf="http://www.w3.org/1999/02/22-rdf-syntax-ns#"
   xmlns:svg="http://www.w3.org/2000/svg"
   xmlns="http://www.w3.org/2000/svg"
   xmlns:sodipodi="http://sodipodi.sourceforge.net/DTD/sodipodi-0.dtd"
   xmlns:inkscape="http://www.inkscape.org/namespaces/inkscape"
   width="500"
   height="500"
   id="svg2"
   sodipodi:version="0.32"
   inkscape:version="0.46"
   version="1.0"
   sodipodi:docname="full.svg"
   inkscape:output_extension="org.inkscape.output.svg.inkscape">
  <defs
     id="defs4">
    <inkscape:perspective
       sodipodi:type="inkscape:persp3d"
       inkscape:vp_x="0 : 526.18109 : 1"
       inkscape:vp_y="0 : 1000 : 0"
       inkscape:vp_z="744.09448 : 526.18109 : 1"
       inkscape:persp3d-origin="372.04724 : 350.78739 : 1"
       id="perspective10" />
    <inkscape:perspective
       id="perspective2507"
       inkscape:persp3d-origin="372.04724 : 350.78739 : 1"
       inkscape:vp_z="744.09448 : 526.18109 : 1"
       inkscape:vp_y="0 : 1000 : 0"
       inkscape:vp_x="0 : 526.18109 : 1"
       sodipodi:type="inkscape:persp3d" />
  </defs>
  <sodipodi:namedview
     id="base"
     pagecolor="#ffffff"
     bordercolor="#666666"
     borderopacity="1.0"
     gridtolerance="10000"
     guidetolerance="10"
     objecttolerance="10"
     inkscape:pageopacity="0.0"
     inkscape:pageshadow="2"
     inkscape:zoom="0.7"
     inkscape:cx="178.76386"
     inkscape:cy="220.23519"
     inkscape:document-units="px"
     inkscape:current-layer="layer1"
     showgrid="false"
     borderlayer="true"
     inkscape:window-width="1222"
     inkscape:window-height="756"
     inkscape:window-x="0"
     inkscape:window-y="0" />
  <metadata
     id="metadata7">
    <rdf:RDF>
      <cc:Work
         rdf:about="">
        <dc:format>image/svg+xml</dc:format>
        <dc:type
           rdf:resource="http://purl.org/dc/dcmitype/StillImage" />
      </cc:Work>
    </rdf:RDF>
  </metadata>
  <g
     inkscape:label="Layer 1"
     inkscape:groupmode="layer"
     id="layer1"
     transform="translate(-90.253339,-53.817544)">
    <rect
       style="opacity:1;fill:#000000;fill-opacity:1;stroke:#000000;stroke-width:23;stroke-linecap:square;stroke-miterlimit:4;stroke-dasharray:none;stroke-dashoffset:0;stroke-opacity:1"
       id="rect2535"
       width="530"
       height="540"
       x="-15.714286"
       y="-24.285715"
       transform="translate(90.253339,53.817544)" />
    <path
       style="fill:#ffffff"
       d="M 323.34799,540.78806 C 311.91716,540.08851 299.69737,538.21088 286.8079,535.17352 C 258.52269,528.85357 230.81541,515.88193 206.65613,499.78423 C 204.27588,497.86142 202.03724,496.29023 201.6814,496.29271 C 201.32555,496.29519 200.16118,495.5158 199.09392,494.56073 C 198.02664,493.60566 196.55549,492.37138 195.82469,491.81789 C 190.51244,487.79454 188.58407,486.03479 182.17987,479.36623 L 174.96563,471.85419 L 191.65878,454.94828 L 208.35194,438.04238 L 211.38988,440.87241 C 213.06075,442.42893 216.17956,445.17059 218.32057,446.965 C 220.46157,448.75939 223.77099,451.55319 225.67483,453.17342 C 227.57867,454.79365 232.10147,458.04489 235.72551,460.3984 C 239.34955,462.7519 243.62127,465.53033 245.21824,466.57266 C 246.81519,467.615 248.62345,468.79081 249.23658,469.18556 C 252.5184,471.29857 260.82351,474.52649 261.59649,473.98945 C 262.08876,473.64745 263.95553,470.20732 265.74487,466.34474 C 267.5342,462.48215 270.56169,455.93586 272.47262,451.79741 C 275.90834,444.35676 281.65674,432.52796 282.1354,431.91375 C 282.27148,431.73915 284.27842,432.09256 286.59529,432.69911 C 290.43359,433.70397 290.76416,434.04061 290.31672,436.48895 C 289.82025,439.20566 285.0568,452.91493 279.78767,466.79173 C 278.20774,470.95261 276.65152,475.72431 276.3294,477.3955 C 275.74681,480.41806 275.78505,480.44754 283.60273,483.00332 C 299.32331,488.14274 312.19668,490.55727 331.25717,491.94142 L 339.01129,492.50452 L 339.18173,516.91861 L 339.35218,541.33269 L 333.6011,541.19813 C 330.438,541.12412 325.8241,540.93958 323.34799,540.78806 z M 341.17819,516.40466 L 341.01124,492.49056 L 348.75662,491.80241 C 353.01658,491.42393 361.14104,490.43917 366.81095,489.61405 C 372.48088,488.78894 377.42672,488.17515 377.8017,488.25007 C 379.81548,488.65242 401.14497,481.85073 402.86211,480.25863 C 403.96236,479.2385 404.03783,478.41839 403.19281,476.66494 C 402.59062,475.41538 401.38473,472.37295 400.51305,469.90397 C 398.9876,465.5832 389.53223,440.33085 388.0932,436.73442 C 387.55152,435.38066 388.2012,434.63938 390.95918,433.46433 C 397.31836,430.75499 395.61941,428.53191 408.68871,456.66341 C 412.08049,463.96417 414.86461,470.24489 414.87566,470.62056 C 414.8867,470.99623 415.28594,471.90996 415.76284,472.65108 C 416.45148,473.72122 418.55329,473.05621 425.97521,469.41986 C 431.11512,466.90158 437.0198,463.66371 439.09673,462.22458 C 441.17365,460.78546 443.12572,459.60623 443.43463,459.60407 C 443.95861,459.60042 450.36638,454.77508 453.73026,451.85102 C 472.11091,435.87355 470.46789,436.97306 472.91388,439.01339 C 474.14606,440.04122 475.38125,441.17424 475.65875,441.5312 C 475.93624,441.88817 482.69666,448.78769 490.68189,456.86348 L 505.20049,471.54674 L 498.32932,477.95478 C 485.90636,489.54039 456.96566,510.51085 453.36496,510.53599 C 452.78289,510.54005 452.159,510.88192 451.97854,511.29569 C 451.50313,512.3858 430.82376,522.69365 429.08789,522.70577 C 428.28294,522.71139 427.19936,523.0771 426.67993,523.51846 C 426.1605,523.95982 423.93954,524.90509 421.74447,525.61907 C 419.5494,526.33304 416.85636,527.33901 415.75993,527.85455 C 411.43204,529.88954 383.23939,537.00196 373.40736,538.53921 C 367.67911,539.43484 358.12173,540.20163 352.16874,540.24319 L 341.34515,540.31875 L 341.17819,516.40466 z M 338.92108,489.94455 C 338.68429,489.71966 332.63708,489.05856 325.48283,488.47544 C 311.2534,487.31565 295.71719,484.56205 289.43735,482.08681 C 279.14566,478.03028 278.69138,477.75254 279.43219,475.96997 C 279.82661,475.02089 282.08867,468.38069 284.45899,461.21396 C 286.82932,454.04724 289.36854,447.05434 290.10171,445.67419 C 290.83488,444.29404 291.75362,441.58756 292.14335,439.65979 C 293.16848,434.58915 293.34571,434.48246 297.42358,436.48122 C 307.81817,441.57612 332.63629,444.18228 352.41081,442.25546 C 359.41872,441.57261 368.74607,440.08679 373.13827,438.95363 C 385.3549,435.80182 386.61533,435.62074 386.62507,437.01602 C 386.62984,437.69958 389.14343,444.88334 392.21083,452.97991 C 399.70793,472.76895 401.08762,476.84772 400.69367,478.05765 C 400.29566,479.28009 387.5269,483.98916 383.95462,484.23096 C 382.58024,484.32399 380.91581,484.81101 380.25589,485.31323 C 379.59598,485.81544 378.63182,485.96824 378.11333,485.65277 C 377.59484,485.33731 374.98875,485.50839 372.32204,486.03297 C 369.65532,486.55754 361.85211,487.52955 354.98158,488.19298 C 348.11104,488.85642 341.78362,489.61393 340.92066,489.87634 C 340.05768,490.13875 339.15787,490.16944 338.92108,489.94455 z M 256.34647,469.18382 C 254.69058,468.3463 251.52955,466.7778 249.32196,465.69826 C 244.7661,463.4704 229.46169,453.67247 225.81018,450.64595 C 214.82143,441.53805 208.12881,435.36896 202.96838,429.59094 C 192.92855,418.34958 188.06863,411.66344 180.70177,398.95715 C 179.01151,396.04182 173.25215,384.34331 173.24848,383.81792 C 173.24538,383.37304 213.81681,363.20475 214.72765,363.19839 C 214.99162,363.19655 215.91426,364.87765 216.77798,366.93417 C 221.49473,378.16478 224.67235,383.14577 234.40301,394.5618 C 243.53649,405.27721 258.26618,418.13801 264.99838,421.27526 C 266.67895,422.05842 269.62923,423.7514 271.55452,425.03744 C 273.47981,426.32348 275.85487,427.67562 276.83243,428.04217 C 279.75554,429.13827 279.89542,431.38305 277.35731,436.46491 C 274.6181,441.94941 270.61887,450.59503 265.26887,462.59797 C 263.24002,467.14974 261.07992,470.83627 260.46862,470.79025 C 259.85733,470.74424 258.00235,470.02134 256.34647,469.18382 z M 416.41981,467.26691 C 416.06144,465.8801 413.79785,460.60827 411.38961,455.55174 C 398.18304,427.8221 398.94587,429.84741 401.10474,428.24513 C 411.45929,423.35073 420.5538,416.30662 429.4974,409.17581 C 440.38789,399.78791 450.31827,388.04251 456.78503,376.90068 C 459.70448,371.87067 462.94816,366.68406 463.99321,365.37489 L 465.89332,362.99456 L 472.27349,366.08317 C 475.78259,367.7819 484.86475,372.07078 492.45609,375.614 L 506.25851,382.05623 L 502.21658,389.72394 C 498.29935,397.1551 494.49232,403.4711 492.42496,405.96854 C 491.87187,406.63671 491.42202,407.56753 491.4253,408.03701 C 491.42857,408.50651 490.65004,409.79303 489.69521,410.89595 C 488.74039,411.99887 487.51404,413.60001 486.96999,414.45403 C 482.29743,421.78877 479.78234,424.88223 472.78707,431.89848 C 463.63308,441.0799 464.01484,440.74393 452.70523,449.57232 C 440.02254,459.47255 422.54188,469.75018 418.33585,469.77954 C 417.64041,469.7844 416.77819,468.65371 416.41981,467.26691 z M 489.49014,452.18798 L 472.67072,435.2106 L 479.33829,427.4042 C 486.01977,419.58152 492.45945,410.78348 495.34654,405.53332 C 496.19456,403.99123 497.20911,402.48502 497.60112,402.18621 C 499.3684,400.83904 508.29356,382.70822 507.80426,381.45926 C 507.31298,380.20527 498.29212,375.71207 474.87484,365.05745 C 470.59866,363.11183 467.09653,361.02884 467.09234,360.42858 C 467.08582,359.49514 469.71314,353.59055 470.58841,352.57157 C 470.85527,352.26089 476.14355,354.36228 487.82491,359.42079 C 490.16354,360.4335 492.57635,361.25861 493.18671,361.25435 C 493.79707,361.25009 495.71907,361.90192 497.45782,362.70286 C 499.19658,363.5038 503.66899,365.23423 507.39651,366.54825 C 513.87553,368.83225 514.21634,368.85662 515.13969,367.102 C 516.62433,364.28075 520.98615,349.67475 522.57115,342.21697 C 523.35178,338.54391 524.20308,334.63717 524.46292,333.53533 C 524.72275,332.43349 525.13533,326.80547 525.37976,321.02862 C 525.62418,315.25177 526.04293,309.05392 526.31031,307.25562 L 526.79644,303.98598 L 550.42476,304.08719 L 574.05308,304.18841 L 573.9773,312.18913 C 573.83401,327.3169 572.7284,343.20049 571.73064,344.46522 C 571.0288,350.35639 569.85349,356.11297 568.59914,361.97901 C 567.87783,367.74524 565.55465,374.37008 557.82572,392.70085 C 555.15361,399.03833 553.05538,403.24522 543.25927,421.90625 C 536.18959,433.77511 528.3081,445.49921 518.75718,455.48136 C 516.02521,458.07279 513.78001,460.51261 513.76785,460.90316 C 513.74717,461.56784 507.12964,469.15964 506.56753,469.16356 C 506.42565,469.16455 498.74082,461.52554 489.49014,452.18798 z M 166.01733,463.28128 C 158.04778,455.27133 154.71915,451.30178 154.70864,449.79511 C 154.70476,449.24021 154.36305,448.63856 153.94928,448.45811 C 153.53551,448.27766 150.51327,444.09866 147.23319,439.17144 C 143.9531,434.24422 140.88636,430.06552 140.41819,429.88546 C 139.95003,429.70538 139.56395,429.12369 139.56025,428.59282 C 139.55654,428.06193 137.73463,424.93025 135.51157,421.63353 C 133.2885,418.3368 131.46816,415.42966 131.46637,415.17321 C 131.46458,414.91676 129.4345,410.57516 126.95509,405.52518 C 124.47568,400.47522 121.68178,393.64871 120.74642,390.35516 C 118.97216,384.10768 117.56162,379.76545 116.20879,376.3865 C 115.76961,375.28954 114.34682,369.89934 113.04705,364.40828 C 111.74728,358.91722 110.3713,353.97671 109.98933,353.42936 C 109.60735,352.88201 108.97047,348.34599 108.57405,343.3493 C 108.17763,338.35263 107.40333,332.73587 106.85338,330.86761 C 105.49291,326.24595 105.43279,308.25518 106.775,307.41265 C 107.97031,306.66233 151.52555,306.12489 152.26225,306.85138 C 152.52422,307.10971 152.96244,310.87656 153.23608,315.22215 C 154.69783,338.43601 161.64506,369.29889 165.32224,368.91461 C 166.93905,368.74564 204.80571,354.50267 207.40267,353.08669 C 208.42614,352.52864 209.60872,352.44411 210.03062,352.89883 C 210.96337,353.90414 213.43157,361.25096 212.94379,361.57017 C 212.50876,361.85489 202.13514,366.8083 196.14971,369.58936 C 183.97119,375.24797 170.98882,382.12478 170.58589,383.13061 C 169.63869,385.49512 181.23212,405.85998 190.41094,417.955 C 192.86663,421.19091 197.15415,426.17704 199.93874,429.0353 C 202.72333,431.89357 205.41044,434.95082 205.91009,435.82922 C 206.62771,437.09077 203.51204,440.70204 191.07953,453.01881 C 182.42307,461.5947 174.85251,469.02997 174.25609,469.54161 C 173.53612,470.15925 170.76728,468.05531 166.01733,463.28128 z M 333.64589,440.18301 C 329.51754,439.71847 323.80861,439.1203 320.95937,438.85374 L 315.77892,438.36911 L 316.31886,434.67807 C 316.61583,432.648 317.20861,430.53013 317.63615,429.97169 C 318.06369,429.41325 318.68534,426.03382 319.01759,422.46186 C 319.34984,418.8899 320.01374,415.06462 320.49291,413.96125 C 320.97208,412.85788 323.55934,400.23951 326.24235,385.92043 C 328.92537,371.60135 331.53559,358.0828 332.04285,355.8792 C 332.55012,353.67561 333.23759,348.9457 333.57057,345.36828 C 333.90355,341.79087 334.53818,338.63005 334.98088,338.34424 C 335.42356,338.05843 335.97947,336.0295 336.21622,333.8355 C 337.17753,324.92699 337.76714,323.67524 340.80227,324.09907 C 343.49739,324.47543 343.6741,324.86683 345.8029,335.17541 C 347.01663,341.05281 348.23032,347.63893 348.49999,349.81122 C 349.34235,356.59687 350.03081,360.66262 350.77538,363.24861 C 351.80904,366.83864 352.03313,367.98731 353.14231,375.38176 C 353.69034,379.03518 354.84471,385.55228 355.7076,389.8642 C 364.49848,433.79288 364.90435,436.30418 363.44032,437.71007 C 362.35183,438.75534 344.62873,441.61048 341.98252,441.16686 C 341.52571,441.09028 337.77423,440.64755 333.64589,440.18301 z M 259.3357,415.13823 C 258.46111,414.18182 256.46724,412.5082 254.90491,411.41908 C 247.83664,406.49172 228.25722,384.87794 228.23699,381.98028 C 228.23346,381.47441 230.35872,379.71317 232.95978,378.06642 C 235.56085,376.41967 238.95715,374.04331 240.50712,372.78562 C 242.05709,371.52794 245.24427,369.3605 247.58976,367.96909 C 255.84726,363.07049 276.28011,348.77739 276.83089,347.51445 C 277.01135,347.10068 277.61041,346.75899 278.16215,346.75514 C 279.31696,346.74708 288.28254,340.55949 288.77475,339.43087 C 288.9552,339.0171 289.56754,338.67532 290.13551,338.67135 C 290.70347,338.66739 293.44981,336.96067 296.23848,334.87865 C 299.02715,332.79663 306.47651,327.62449 312.79262,323.38501 C 323.32271,316.31702 324.42267,315.80314 326.03711,317.19738 C 327.00547,318.03367 327.80049,319.10781 327.80381,319.58435 C 327.80949,320.39707 323.016,328.34944 321.85724,329.44967 C 321.42128,329.86362 302.72182,358.02964 293.17347,372.65457 C 291.81298,374.73839 286.2463,383.11077 280.80306,391.25985 C 275.35981,399.40894 270.42215,406.91612 269.83047,407.94247 C 269.23879,408.96883 268.08108,410.6039 267.25778,411.57595 C 266.43447,412.54801 265.48708,414.13277 265.15247,415.09763 C 264.81787,416.06248 263.72999,416.8576 262.735,416.86455 C 261.73999,416.87149 260.21031,416.09465 259.3357,415.13823 z M 416.62146,414.54274 C 408.57973,402.37935 400.35015,389.64359 391.62751,377.70233 C 389.63941,373.95727 387.41851,371.60472 385.14204,367.83277 C 384.30679,366.36675 380.57918,360.76764 376.85847,355.39029 C 373.13777,350.01296 367.80684,342.2542 365.01197,338.14861 C 362.2171,334.04302 359.31975,330.01315 358.5734,329.19334 C 356.52224,326.94027 352.81181,320.64325 352.80314,319.40053 C 352.79893,318.79732 353.72939,317.79555 354.87084,317.17437 C 356.50363,316.2858 357.32076,316.37922 358.70273,317.61245 C 359.66882,318.47456 360.72545,319.17807 361.05078,319.1758 C 361.37611,319.17353 365.34807,321.73336 369.87734,324.86432 C 374.40662,327.99527 379.62958,331.44639 381.48391,332.53348 C 383.33826,333.62056 385.67982,335.17925 386.68741,335.99723 C 390.78085,339.32042 397.87038,343.91935 398.88885,343.91224 C 399.48642,343.90807 399.9785,344.24215 399.98237,344.65463 C 399.98623,345.06711 402.13532,346.71893 404.75812,348.32534 C 407.3809,349.93174 411.7882,352.86595 414.55208,354.8458 C 417.31597,356.82565 421.39981,359.51793 423.62726,360.82864 C 425.85473,362.13934 429.17513,364.1013 431.00593,365.18854 C 432.83673,366.27579 437.97793,369.72748 442.43082,372.85897 C 446.88371,375.99046 450.90755,378.54993 451.3727,378.54668 C 451.83785,378.54344 452.22471,379.44076 452.23238,380.54073 C 452.24006,381.6407 451.79636,382.54382 451.24637,382.54766 C 450.69638,382.5515 450.251,383.2138 450.25662,384.01943 C 450.26225,384.82506 449.37023,385.97214 448.27437,386.56851 C 447.17851,387.16487 446.28542,388.15846 446.28974,388.77647 C 446.30016,390.26988 427.95425,408.35095 422.26613,412.45328 C 418.88103,414.89464 417.49761,415.40673 416.62146,414.54274 z M 510.86869,364.05087 C 509.9023,363.49701 509.11373,363.34629 509.11631,363.71595 C 509.11889,364.08562 508.55553,363.9644 507.8644,363.44657 C 507.17327,362.92875 504.35235,361.73336 501.5957,360.79016 C 496.13597,358.92209 494.43989,358.26641 488.91003,355.88603 C 486.8958,355.019 484.80931,354.31266 484.27339,354.31641 C 483.73746,354.32015 480.74036,353.21295 477.61315,351.85598 L 471.92733,349.38876 L 472.55101,345.64117 C 472.89403,343.58 474.01841,338.51261 475.04962,334.38031 C 478.76683,319.48461 479.26489,287.82899 475.97801,275.3724 C 473.95458,267.70395 472.33857,257.26083 473.00569,256.16437 C 473.26504,255.73812 474.12091,255.38487 474.90765,255.37938 C 476.36807,255.36919 488.42351,250.88567 491.55277,249.18893 C 492.50423,248.67302 493.85127,248.24419 494.54619,248.23595 C 495.24111,248.22771 497.01245,247.58273 498.48249,246.80268 C 499.95253,246.02263 502.6458,245.04907 504.46753,244.63924 C 506.28927,244.22939 508.66307,243.27038 509.74265,242.50811 C 514.12131,239.41638 516.58295,241.77017 517.95566,250.36126 C 518.32588,252.67834 518.97601,255.24673 519.40039,256.06878 C 521.55922,260.25066 523.64797,281.64916 523.83883,301.5389 C 524.03761,322.25529 522.47993,334.61296 517.15216,354.58688 C 514.13511,365.89792 514.12305,365.91606 510.86869,364.05087 z M 164.13556,360.3588 C 163.36919,357.44507 162.41143,354.38841 162.0072,353.56621 C 160.84844,351.2093 157.03771,333.71569 156.24318,327.10581 C 155.04354,317.12562 154.73097,292.3313 155.76083,288.84379 C 156.29214,287.0446 157.09645,282.31387 157.54819,278.33106 C 159.05433,265.0521 162.39332,250.65292 165.78514,242.80973 C 165.83939,242.68428 170.59235,244.1266 176.34726,246.01489 C 182.10217,247.90319 191.91619,251.0871 198.15619,253.09022 C 210.88994,257.17795 210.45856,256.54322 207.09937,266.24929 C 202.13688,280.58795 202.11796,280.74278 202.35481,305.08683 C 202.49758,319.7621 202.99067,329.19968 203.68666,330.57816 C 204.29448,331.78203 205.77055,336.27621 206.96681,340.56523 C 209.27978,348.85806 208.8329,351.23925 204.95857,351.2663 C 203.95841,351.27328 202.89558,351.68086 202.59674,352.17203 C 202.29789,352.6632 200.81378,353.37579 199.29869,353.75555 C 197.78361,354.13532 190.70952,356.69029 183.5785,359.43326 C 164.61471,366.72774 165.79594,366.67151 164.13556,360.3588 z M 205.27399,319.53245 C 204.11707,306.96567 204.07079,301.01156 205.03633,288.95202 L 205.8224,279.13407 L 209.92528,279.81535 C 217.18818,281.02135 217.99156,281.15998 220.53635,281.64634 C 221.91322,281.90949 224.49818,282.33324 226.2807,282.588 C 228.06322,282.84278 233.28549,283.94997 237.88575,285.04844 C 242.486,286.14691 248.46305,287.41309 251.16808,287.8622 C 253.87311,288.31129 259.37588,289.3808 263.39648,290.23888 C 267.41707,291.09695 272.14833,291.97818 273.91041,292.19718 C 285.45205,293.63163 317.90102,299.88572 319.80155,301.04206 C 320.28355,301.33532 320.68503,302.59406 320.69372,303.83925 C 320.71086,306.29408 320.63163,306.31371 272.27631,315.83865 C 263.48818,317.56971 255.17493,319.28079 253.80241,319.64104 C 252.42989,320.00129 250.40772,320.41321 249.30869,320.55641 C 246.60232,320.90906 209.7708,328.24429 207.76752,328.8296 C 206.42209,329.2227 206.0323,327.76937 205.27399,319.53245 z M 471.35726,326.74114 C 470.25563,326.51081 460.11728,324.63507 448.82761,322.57285 C 437.53794,320.51063 426.94905,318.55728 425.29674,318.23209 C 423.64443,317.90689 421.51388,317.64178 420.5622,317.64297 C 419.61051,317.64415 418.56392,317.21827 418.23643,316.69657 C 417.90895,316.17486 417.24009,315.99969 416.75006,316.30729 C 416.26004,316.61489 413.10097,316.17237 409.72989,315.3239 C 406.35883,314.47544 402.17391,313.60377 400.43009,313.38686 C 398.68625,313.16995 392.97847,312.14549 387.74611,311.11029 C 382.51376,310.07508 374.06484,308.46874 368.97074,307.54066 C 360.7968,306.05145 359.70701,305.60727 359.69411,303.75963 C 367.86316,299.14629 375.45246,299.59052 386.13761,295.57435 C 387.78605,295.34491 407.49078,291.3889 429.92593,286.7832 C 452.36107,282.1775 471.52454,278.40356 472.51142,278.39667 C 473.49831,278.38978 474.58772,279.10385 474.93233,279.98349 C 475.77587,282.13665 476.04467,320.02457 475.24553,324.1287 C 474.897,325.91867 474.33022,327.33296 473.98603,327.27157 C 473.64184,327.21017 472.4589,326.97147 471.35726,326.74114 z M 336.1341,320.65357 C 334.93494,320.42881 333.41152,319.60072 332.74873,318.81334 C 332.08593,318.02596 331.02077,317.3854 330.38172,317.38986 C 328.55119,317.40264 321.70843,305.2192 322.26948,302.94615 C 322.40548,302.39518 322.7968,300.20181 323.13907,298.07199 C 324.06726,292.29631 330.14328,287.08953 337.56755,285.70768 C 338.9408,285.45207 340.73798,285.04172 341.56128,284.79576 C 342.38458,284.54981 345.49997,285.55826 348.48436,287.03676 C 355.31175,290.41912 358.13389,295.13852 358.19065,303.26841 C 358.27446,315.27386 348.50709,322.97258 336.1341,320.65357 z M 526.18503,301.03209 C 525.84458,300.48973 525.60247,297.22884 525.64701,293.78567 C 525.76115,284.96353 524.97808,276.33253 522.81262,262.54512 C 522.46746,260.34748 521.26351,255.40576 520.13718,251.56353 C 519.01085,247.7213 517.8515,243.58053 517.56083,242.36183 C 516.38575,237.43494 516.56155,237.41209 495.78854,245.19172 C 493.04564,246.21895 486.70028,248.71007 481.68773,250.72754 C 476.67518,252.745 472.08568,254.39906 471.48882,254.40323 C 470.26576,254.41177 467.31639,249.28098 467.3013,247.1185 C 467.29587,246.34132 470.09513,244.43575 473.52188,242.8839 C 479.05802,240.37679 483.54838,238.25182 503.92219,228.49766 C 507.60638,226.73382 509.1508,225.41503 509.14121,224.04112 C 509.1218,221.26132 502.65842,209.00916 496.86695,200.7737 C 484.91035,183.77142 486.07696,185.26123 475.69077,173.73098 C 474.6367,172.56079 473.77149,171.20642 473.7681,170.72127 C 473.75811,169.28967 506.49595,137.15598 507.97497,137.14565 C 508.71876,137.14046 510.78234,138.81359 512.56071,140.86373 C 514.33907,142.91386 517.67429,146.642 519.97231,149.14849 C 524.56451,154.15725 535.98268,170.58896 540.31332,178.4209 C 541.82811,181.16039 543.4946,183.9197 544.01663,184.5527 C 547.28672,188.51785 562.20036,220.80098 563.74519,227.2585 C 564.13927,228.90579 564.89155,230.79262 565.41691,231.45147 C 565.94228,232.11032 566.99964,235.25301 567.76659,238.43524 C 568.53355,241.61746 570.07156,248.03984 571.18439,252.70718 C 573.65608,263.07367 575.5324,279.84454 575.61971,292.35087 L 575.68482,301.67696 L 551.24444,301.84759 C 536.18713,301.95271 526.56639,301.63963 526.18503,301.03209 z M 105.04049,302.46267 C 104.71815,301.6399 104.75679,300.17709 105.12635,299.21199 C 105.49591,298.24689 105.96131,294.30604 106.16056,290.45456 C 106.35982,286.60307 106.80035,282.32489 107.13951,280.94749 C 107.47868,279.57009 108.05835,274.39092 108.42768,269.43822 C 109.0747,260.76169 112.26342,243.6247 114.38989,237.39581 C 116.45726,231.34004 118.33435,226.29134 119.7019,223.10838 C 120.47223,221.31546 121.81478,218.15601 122.68534,216.08738 C 125.03516,210.50375 133.89199,192.81957 137.63778,186.23227 C 144.86966,173.51439 150.31624,165.12798 156.23197,157.60176 C 162.2315,149.96891 173.156,138.48314 174.42475,138.47429 C 174.90772,138.47091 182.54839,145.95526 191.40401,155.10615 L 207.50513,171.74415 L 199.6697,180.79908 C 192.10355,189.5428 185.65729,198.5494 180.9669,206.93028 C 175.44172,216.80279 170.97959,225.66904 171.35159,226.03588 C 172.35124,227.02167 184.17571,232.88083 192.07229,236.30325 C 209.06193,243.66662 212.39314,245.33615 212.95449,246.769 C 213.26718,247.56716 212.8046,249.76187 211.92652,251.64612 L 210.33002,255.07204 L 193.55015,249.38037 C 184.32122,246.24994 174.09556,242.76168 170.82644,241.62868 C 167.55732,240.49568 164.78754,239.67615 164.67137,239.8075 C 164.5552,239.93886 163.26943,243.42972 161.81409,247.56498 C 159.0574,255.398 157.11068,264.7288 155.50816,277.79 C 154.98943,282.01786 154.09515,286.73933 153.52087,288.28214 C 152.94659,289.82494 152.55874,293.34663 152.65897,296.10809 C 152.75921,298.86954 152.80678,301.69168 152.7647,302.37949 C 152.70579,303.34209 147.26989,303.66788 129.15736,303.79433 C 109.16355,303.93392 105.53846,303.73375 105.04049,302.46267 z M 318.08458,288.2155 C 316.42619,287.01917 314.4707,285.47204 313.73905,284.77744 C 313.0074,284.08283 312.05977,283.51695 311.63323,283.51993 C 311.20668,283.52291 309.92533,282.74433 308.78578,281.78977 C 306.30376,279.71064 305.32789,279.05048 294.97393,272.44613 C 290.55414,269.62694 286.71086,267.02217 286.43331,266.65776 C 286.02427,266.1207 273.2349,257.56669 266.51285,253.33419 C 264.45456,252.03821 263.27468,251.18411 260.67234,249.10632 C 259.48992,248.16225 256.64966,246.27788 254.36065,244.91882 C 252.07163,243.55977 248.96876,241.43734 247.46537,240.20231 C 245.96197,238.96727 243.4906,237.41214 241.97341,236.74645 C 240.45623,236.08076 239.21297,235.25968 239.21061,234.92182 C 239.20825,234.58396 236.68376,232.6579 233.60064,230.64169 C 228.16947,227.08998 228.04389,226.90745 229.56652,224.77813 C 230.43086,223.56938 231.90034,221.45005 232.83201,220.06852 C 234.3516,217.81516 236.86032,214.99479 246.87577,204.28009 C 250.34541,200.56821 262.46541,190.86093 263.64047,190.85272 C 264.55339,190.84635 272.99066,203.29907 273.00021,204.66692 C 273.00369,205.16565 273.68333,205.82802 274.51052,206.13884 C 275.33771,206.44965 276.0177,207.16086 276.02159,207.71931 C 276.02549,208.27775 281.9486,217.58825 289.18404,228.40931 C 296.41949,239.23036 304.07222,250.77192 306.19011,254.05721 C 308.308,257.34251 313.47544,265.18162 317.6733,271.47747 C 327.64607,286.43438 328.01836,287.16952 326.53708,288.97993 C 324.85505,291.0357 321.58393,290.73987 318.08458,288.2155 z M 354.35278,288.47181 C 352.9194,286.87035 353.74738,285.29654 364.80928,268.59621 C 371.41652,258.62117 377.60816,249.35272 378.56849,247.99965 C 379.52883,246.64657 388.36466,233.22052 398.20367,218.16397 C 408.04268,203.10741 416.43622,190.78601 416.85597,190.78308 C 417.27572,190.78015 419.69281,192.33832 422.22729,194.24567 C 424.76176,196.15302 427.14708,197.71141 427.52802,197.70875 C 428.78068,197.7 446.72248,216.18815 449.95934,220.82312 L 453.12671,225.35861 L 445.922,230.27048 C 441.9594,232.97201 432.89532,239.22094 425.77961,244.15699 C 408.8909,255.87242 408.85924,255.89407 401.89306,260.49032 C 398.60811,262.65772 395.697,264.6576 395.42392,264.93451 C 394.1976,266.17808 385.57479,272.00344 384.95394,272.00778 C 384.57326,272.01044 382.93269,273.14692 381.30823,274.53329 C 373.24263,279.91291 365.43074,285.70467 356.72066,290.20532 C 356.27448,290.20844 355.20892,289.42836 354.35278,288.47181 z M 336.63833,278.41554 C 335.18759,271.78738 331.3125,250.98701 330.81587,247.16218 C 330.58204,245.36139 330.14236,242.76472 329.8388,241.39181 C 329.53524,240.01889 328.56123,234.62556 327.67435,229.40662 C 326.78746,224.18769 325.3804,216.99734 324.54753,213.42806 C 323.71467,209.85879 322.83935,205.5898 322.60237,203.94141 C 321.51625,196.38639 319.56565,186.86962 318.91819,185.9667 C 318.52576,185.41942 318.09438,183.18088 317.95957,180.99216 C 317.82475,178.80343 317.29833,175.21921 316.78972,173.02724 C 316.28112,170.83527 315.95568,168.94985 316.06653,168.83745 C 316.17738,168.72503 321.73592,168.09151 328.41883,167.42961 C 337.30402,166.5496 343.21394,166.50329 350.40897,167.25731 C 355.82064,167.82443 361.14294,168.3698 362.23629,168.46922 C 363.32965,168.56863 364.36091,169.33474 364.52799,170.17167 C 364.69507,171.00859 363.06764,181.1452 360.9115,192.69746 C 358.75537,204.24973 355.8799,220.00949 354.52159,227.71916 C 351.93559,239.35178 349.8554,251.07007 347.42828,262.76953 C 346.83672,265.52373 345.70039,270.99615 344.90314,274.93047 C 343.54486,281.63332 343.27044,282.11197 340.54537,282.53138 C 337.80137,282.95371 337.58075,282.72129 336.63833,278.41554 z M 465.89504,242.19198 C 465.56805,241.50675 464.26701,239.30768 463.00386,237.30517 C 461.7407,235.30265 459.27842,231.26974 457.5321,228.34315 C 454.0923,222.57846 451.40988,219.24088 446.32234,214.39547 C 444.52283,212.68161 443.04783,210.89588 443.04455,210.42718 C 443.02808,208.06741 419.25667,187.76625 416.53227,187.78527 C 416.13075,187.78807 414.80201,186.85814 413.57953,185.71875 C 412.35704,184.57936 409.5787,182.74657 407.40545,181.64587 C 400.55317,178.17538 400.31616,177.6168 403.15358,171.62525 C 405.90797,165.809 411.73327,153.01887 416.44262,142.44755 C 418.12313,138.67525 419.84193,135.74141 420.26218,135.92791 C 435.05778,142.49394 455.88616,157.03492 469.26392,170.13766 C 479.12062,179.79172 479.0819,179.74667 487.01512,190.79328 C 490.55236,195.71871 494.9592,201.72544 496.8081,204.14158 C 499.9594,208.25968 507.12301,221.44156 507.13489,223.14408 C 507.13785,223.56816 504.78579,225.07067 501.90808,226.48297 C 480.98814,236.74995 467.17004,243.43311 466.85747,243.43529 C 466.65512,243.4367 466.22202,242.87721 465.89504,242.19198 z M 208.24779,240.35563 C 205.21189,238.80461 196.5208,234.73978 188.93426,231.32268 C 181.34772,227.90559 175.13707,224.61192 175.13282,224.00342 C 175.1117,220.97816 191.01721,193.40503 195.27278,189.08962 C 196.15579,188.1942 196.87604,187.14644 196.87335,186.76128 C 196.86713,185.86962 204.11881,178.10507 214.01343,168.40896 C 220.76408,161.79374 226.94714,156.63369 233.28504,152.32587 C 241.49916,146.74281 248.61547,142.50753 254.30992,139.81285 C 258.0032,138.06515 261.36404,136.4322 261.77845,136.18406 C 262.83319,135.55253 280.79185,173.29989 280.79503,176.15506 C 280.79618,177.1859 278.49541,178.7931 270.84961,183.10246 C 268.93211,184.18321 267.21601,185.4643 267.03606,185.94933 C 266.85611,186.43436 266.15005,186.83511 265.46703,186.83987 C 264.31438,186.84792 257.26289,192.12622 250.59416,197.97275 C 249.03137,199.34287 246.05601,201.95085 243.98227,203.76828 C 241.90853,205.58569 237.43866,210.64441 234.04923,215.00987 C 228.31548,222.39472 225.86851,226.15968 219.06251,238.06869 C 217.61192,240.60689 215.82715,242.79432 215.09634,242.92964 C 214.36554,243.06497 211.28369,241.90665 208.24779,240.35563 z M 392.08335,174.40702 L 388.86498,173.00618 L 392.65632,162.21539 C 395.93601,152.88083 399.94306,141.73486 403.68531,131.53723 C 405.15072,127.544 403.7973,126.56155 391.93301,123.00617 C 386.42135,121.35449 379.88224,119.35665 377.40166,118.56652 C 372.5406,117.01814 364.45179,115.96313 354.88061,115.62913 C 351.57972,115.51394 347.41435,115.11697 345.62422,114.74696 L 342.36945,114.07423 L 342.20269,90.188316 L 342.03593,66.302396 L 345.7864,66.355736 C 347.84915,66.385066 353.3646,66.788736 358.04296,67.252776 C 387.34082,68.817413 415.85542,78.241272 442.64992,89.762586 C 465.43718,101.17435 487.52489,115.36009 504.51684,134.62235 C 504.52567,135.88782 472.56655,168.39361 471.30486,168.40242 C 470.81799,168.40582 469.70215,167.72991 468.8252,166.9004 C 460.00765,158.55989 455.91862,155.0589 452.33827,152.78449 C 450.02018,151.31192 445.73041,148.39853 442.80545,146.31029 C 437.54839,142.55709 418.57657,132.34845 417.99466,132.95974 C 417.82916,133.13359 416.49743,135.98425 415.03526,139.29454 C 413.57308,142.60483 411.06432,148.1497 409.46023,151.61648 C 407.85615,155.08326 404.828,161.85456 402.73101,166.66383 C 398.6048,176.12695 397.64254,176.82673 392.08335,174.40702 z M 278.37804,164.49919 C 275.41565,158.33223 271.45181,149.92219 269.56951,145.81023 C 267.68721,141.69827 265.32833,137.14765 264.32754,135.69773 L 262.50792,133.06151 L 254.28181,137.2679 C 249.75744,139.58141 244.64393,142.49666 242.91846,143.74624 C 241.19298,144.99582 239.48924,146.02024 239.13238,146.02273 C 237.98019,146.03077 224.34154,156.60925 217.2348,163.00704 C 213.43633,166.42658 209.97858,169.22682 209.5509,169.22981 C 209.12323,169.2328 201.2054,161.78894 191.95572,152.68791 L 175.13813,136.1406 L 182.03404,129.70833 C 187.9021,124.23482 193.63076,119.51891 203.84985,111.74927 C 204.94406,110.91733 207.24681,109.10545 208.96706,107.72286 C 214.18088,103.53247 235.39317,91.071786 239.4177,89.835326 C 248.15245,85.273352 257.47835,81.964198 266.61767,78.273706 C 270.96466,76.271086 292.81371,70.772056 305.55021,68.475056 C 312.11079,67.291876 321.28051,66.457886 328.31247,66.404836 L 340.0883,66.315996 L 340.15395,86.566026 C 340.19007,97.703546 339.97923,108.45262 339.68545,110.45285 C 339.19215,113.81148 338.83497,114.14386 335.01524,114.79882 C 332.74041,115.18888 328.63034,115.68204 325.88176,115.89474 C 312.46426,116.93306 307.39221,117.60015 304.76888,118.67157 C 303.19579,119.31405 300.33619,120.19967 298.41421,120.63961 C 286.29476,123.41376 276.45822,127.01913 276.46983,128.68283 C 276.47649,129.63734 279.11855,137.2906 280.45755,140.23409 C 282.44611,144.60548 291.78947,170.2283 291.78276,171.29184 C 291.77651,172.28445 286.05753,175.69585 284.38013,175.70757 C 284.04137,175.70993 281.34044,170.66616 278.37804,164.49919 z M 294.65002,170.95314 C 294.37373,169.08937 294.09785,168.06048 293.49453,166.64372 C 293.14424,165.82114 290.48143,158.63956 287.57716,150.68464 C 284.6729,142.72972 281.66263,134.80753 280.88767,133.07978 C 280.11272,131.35203 279.47588,129.53935 279.47248,129.05162 C 279.4645,127.90872 306.77298,120.77828 315.90695,119.53831 C 319.7534,119.01614 327.1733,118.26053 332.39563,117.85918 C 346.17908,116.79987 375.71945,119.51554 379.0187,122.14527 C 379.62267,122.62668 380.33678,122.79753 380.60561,122.52493 C 381.09476,122.0289 399.31924,127.0799 401.22584,128.23992 C 401.84603,128.61727 400.59765,133.41664 397.99798,140.64932 C 395.66642,147.13606 392.36817,156.57556 390.66851,161.62599 L 387.57822,170.80856 L 383.92036,170.52706 C 381.90855,170.37224 379.58592,170.01927 378.75897,169.74268 C 357.70242,162.69983 322.52313,163.34 296.51742,171.23925 C 295.55693,171.531 294.7166,171.40225 294.65002,170.95314 z"
       id="path2513"
       sodipodi:nodetypes="cccssscccccsssssssssssssscccccccccsssssssssssssssscccsssssssccccssssssssssssssssssccssssssssssssssccsccsccccccsssssssccccsssssssssssssscccccccsccssccsssssssssssssssssssssssssssscccccssssssssssssssssccssssssssssssssssssssccccssssssssssssssssssssssssccssssscccsssssssssssssccssssssssssssssscccccssssssssssssccsssssssssccsssssccssssssssccssssssssssssssssssssssscccccsssssssssscccsssscccssssssssccsssssssssssssssssssssssccsssssscccssssccccssssssssssssssccssccssssssssssssssssccsssssssssssssssssccccssssccccccccssssssssccscccsssscccssccscccsssssssssccsssssssssscccssc" />
  </g>
</svg>

