<?xml version="1.0" encoding="UTF-8" standalone="no"?>
<!-- Created with Inkscape (http://www.inkscape.org/) -->

<svg
   xmlns:dc="http://purl.org/dc/elements/1.1/"
   xmlns:cc="http://creativecommons.org/ns#"
   xmlns:rdf="http://www.w3.org/1999/02/22-rdf-syntax-ns#"
   xmlns:svg="http://www.w3.org/2000/svg"
   xmlns="http://www.w3.org/2000/svg"
   xmlns:sodipodi="http://sodipodi.sourceforge.net/DTD/sodipodi-0.dtd"
   xmlns:inkscape="http://www.inkscape.org/namespaces/inkscape"
   id="svg2"
   sodipodi:version="0.32"
   inkscape:version="0.48.0 r9654"
   width="250"
   height="250"
   version="1.0"
   sodipodi:docname="Mon:CypressFan.image.svg"
   inkscape:output_extension="org.inkscape.output.svg.inkscape">
  <metadata
     id="metadata7">
    <rdf:RDF>
      <cc:Work
         rdf:about="">
        <dc:format>image/svg+xml</dc:format>
        <dc:type
           rdf:resource="http://purl.org/dc/dcmitype/StillImage" />
      </cc:Work>
    </rdf:RDF>
  </metadata>
  <defs
     id="defs5">
    <inkscape:perspective
       sodipodi:type="inkscape:persp3d"
       inkscape:vp_x="0 : 526.18109 : 1"
       inkscape:vp_y="0 : 1000 : 0"
       inkscape:vp_z="744.09448 : 526.18109 : 1"
       inkscape:persp3d-origin="372.04724 : 350.78739 : 1"
       id="perspective9" />
  </defs>
  <sodipodi:namedview
     inkscape:window-height="756"
     inkscape:window-width="1222"
     inkscape:pageshadow="2"
     inkscape:pageopacity="1"
     guidetolerance="10.0"
     gridtolerance="10.0"
     objecttolerance="10.0"
     borderopacity="1.0"
     bordercolor="#666666"
     pagecolor="#ffffff"
     id="base"
     showgrid="false"
     inkscape:zoom="1.4604106"
     inkscape:cx="10.280913"
     inkscape:cy="81.10763"
     inkscape:window-x="0"
     inkscape:window-y="0"
     inkscape:current-layer="svg2"
     inkscape:window-maximized="0" />
  <rect
     style="fill:#ffffff;fill-opacity:1;stroke:none"
     id="rect3361"
     width="262.93976"
     height="265.67871"
     x="-3.4236946"
     y="-1.2991894" />
  <path
     style="fill:#000000"
     d="m 129.35585,46.821747 c -6.1528,-0.044 -12.86869,0.2284 -16.74999,0.8126 -2.2,0.3311 -6.25,0.7703 -9,1 -2.75,0.2294 -7.250004,0.7293 -10.000004,1.0937 -2.75,0.3644 -5.6966,0.765 -6.5313,0.875 -0.8346,0.1099 -1.9596,0.4567 -2.5,0.7813 -0.5403,0.3245 -2.0939,0.5689 -3.4687,0.5624 -2.2511,-0.0101 -4.6132,0.8628 -14.5,5.312601 -1.6501,0.7426 -3.4957,1.3746 -4.0938,1.4062 -0.5981,0.0316 -1.8897,0.8585 -2.875,1.8438 -2.6248,1.2479 -4.5297,2.8806 -7.3438,4 -0.9278,0.8355 -2.3473,1.6628 -3.1562,1.8437 -0.809,0.1808 -2.834,1.5998 -4.5,3.125 -1.615,2.4898 -5.8103,2.4765 -6.9688,4.8125 -3.9502,4.4289 -26.375,20.3093 -17.1874,28.312502 3.5605,2.0834 7.8552,6.4152 7.2812,7.3437 -1.1476,1.8569 -1.7523,7.6579 -1.0938,10.6563 2.5803,12.2341 17.2139,12.5481 22.0938,22.875 0.1558,1.2222 0.575,6.7717 0.9375,12.3437 l 0.6563,10.125 -4.0938,4.4688 c -3.0361,3.2938 -3.994,5.0594 -3.6562,6.8125 1.8112,3.2472 10.1665,9.3004 12.2187,3.9375 0.5092,-1.947 0.6028,-1.9728 2.4375,-0.3125 2.5536,2.311 8.8836,2.5847 10.8438,0.4687 1.7788,-1.9196 2.5304,-7.6625 1.125,-8.5312 -0.538,-0.3324 -1.2624,-2.3517 -1.625,-4.5 -0.3629,-2.1481 -1.4137,-4.5959 -2.3438,-5.4375 -1.3671,-1.2372 -1.6687,-3.2941 -1.5938,-10.6563 0.1068,-4.7614 -1.468,-6.7727 3.3438,-7.4687 1.0563,-0.0778 2.631,-0.7477 3.5,-1.4687 1.3487,-1.1193 2.1737,-0.7774 5.5938,2.3124 3.3464,1.3852 4.8124,4.8663 7.5937,6.6563 1.5044,0.572 4.4572,2.5981 6.5625,4.5 2.1053,1.902 4.2408,3.4688 4.75,3.4687 0.5091,0 1.5414,0.5626 2.2812,1.25 12.035704,14.0191 22.176594,7.7361 9.562604,21.125 -6.6949,6.5339 -7.172104,8.9685 -2.9376,15.0938 2.2062,3.1911 3.3636,3.9829 5.875,4 1.7222,0.0117 3.462,0.3689 3.875,0.7812 1.117,1.1148 6.43759,0.9087 6.43759,-0.25 0,-0.55 0.6748,-0.9997 1.5,-1 0.0526,0 0.1048,0.007 0.1562,0 1.9873,1.8296 3.5849,2.7329 5.6562,0.5626 0.3128,-0.8151 1.3596,-1.1882 2.4376,-0.9063 1.0346,0.2705 2.4714,-0.2305 3.1874,-1.0937 0.7164,-0.8633 2.0421,-1.6129 2.9376,-1.6563 0.8907,-0.0432 2.8038,-0.9921 2.75,-1.4375 0.004,-0.005 -0.004,-0.0263 0,-0.0312 0.1823,-0.2369 0.3872,-0.5731 0.6874,-1.0313 3.6461,-5.5614 3.6957,-7.0065 0.3438,-10.1875 -1.7453,-1.6563 -4.2389,-3.3283 -5.5312,-3.7188 l -2.3438,-0.6874 3.3125,-3.4063 c 3.9744,-3.9402 8.7096,-6.6744 12.9063,-10.3437 4.9979,-3.3439 9.0619,-7.3819 13.75,-11.1563 3.8149,-3.0612 7.506,-6.2796 11.625,-8.6875 1.8812,-0.8571 2.8844,-0.7127 4.75,0.5938 1.5959,1.1178 4.4032,1.6353 8.625,1.625 1.3312,-0.003 2.3306,0.0284 3.1562,0.0624 -0.575,1.5106 -0.6205,6.5875 -1.5,13 -0.1508,1.1 -0.5571,3.8002 -0.875,6 -1.7433,12.0609 -1.7774,15.0611 -0.1562,16.4063 1.9497,1.6181 9.7704,1.6281 12.8124,0 1.6423,-0.8789 2.31,-0.9141 2.5938,-0.0625 0.2097,0.6289 0.807,1.1563 1.3438,1.1562 1.7908,-2.3749 5.3921,-4.0691 6.875,-7.8437 -1e-4,-1.2095 -0.3945,-2.9513 -0.875,-3.9063 -0.4809,-0.955 -1.7994,-3.5499 -2.9063,-5.75 -2.0188,-4.0127 -2.0957,-5.8249 -0.7187,-18.25 0.2896,-2.6124 0.5731,-5.5185 0.5937,-6.4687 0.0205,-0.9502 1.1723,-2.6251 2.5625,-3.7187 1.8923,-1.4832 3.2592,-3.1799 5.25,-3.0626 0.5039,0 1.5196,-1.3495 2.25,-3 0.7304,-1.65 1.617,-2.9997 1.9688,-3 0.3516,0 0.9724,-1.0123 1.375,-2.25 0.4026,-1.2374 0.7967,-2.4748 0.9062,-2.75 1.4179,-3.5616 2.5581,-9.4147 2.5625,-13.1562 0.005,-4.2441 0.3797,-4.9827 4.125,-8.0938 4.696,-3.9007 4.7079,-5.131002 -0.125,-11.406202 -5.805,-6.9004 -12.5534,-14.3405 -20.4687,-18.9062 -2.9714,-2.4584 -6.5259,-3.9562 -9.5626,-6.4063 -1.9041,-1.6277 -3.8455,-2.9777 -4.3437,-3 -0.4981,-0.0224 -2.4369,-1.1944 -4.3125,-2.625 -6.8192,-3.7871 -14.2288,-7.1707 -21.8125,-9.4063 -2.3445,-0.192801 -4.2641,-1.354501 -6.625,-1.687401 -10.3049,-2.5535 -20.8771,-4.4956 -31.5937,-4.6876 z m 1.9687,2.5938 c 0.1512,-0.0153 0.3008,-0.0128 0.4687,0 0.3841,0.0292 0.8322,0.1324 1.3126,0.2812 0.8249,0.2558 4.6167,0.6898 8.4374,0.9688 3.821,0.279 7.8712,0.836 9,1.2188 1.129,0.3824 2.7374,0.7173 3.5626,0.75 1.6801,0.0662 2.1792,3.866801 0.9374,7.031201 -1.5543,3.9616 -2.2408,6.0388 -2.5312,7.5 -0.9882,2.9544 -3.0302,0.6578 -5.2188,0.0312 -2.2294,0 -3.8411,4.3269 -4.75,12.6563 -0.5405,4.9533 -0.3439,6.7224 1.0938,9.1563 1.7504,2.9632 1.7412,3.1236 -0.875,9.1562 -2.5846,7.368302 -5.487,14.527602 -7.75,22.031202 -1.6676,4.6751 -3.083,9.1751 -3.125,10 -0.042,0.8251 -0.4179,1.9502 -0.8438,2.5 -0.4257,0.55 -1.1032,2.8002 -1.5,5 -1.0402,5.7679 -1.2442,6.6525 -2.3437,10.2813 -0.5447,1.7977 -1.0112,3.5977 -1.0625,4 -0.0513,0.4023 -0.5696,2.4065 -1.125,4.4687 -1.1172,4.1491 -2.6848,5.2581 -2.0312,1.4376 0.2779,-1.6249 1.237,-13.345 1.5937,-19.5626 0.2012,-3.5084 0.6332,-10.4834 0.9687,-15.5 0.3358,-5.0167 0.8015,-12.2749 1.0313,-16.125 0.2299,-3.8499 0.7432,-11.499702 1.125,-17.000002 0.3819,-5.5 0.7399,-16.4445 0.8125,-24.3124 0.1124,-12.1699 0.5451,-15.739201 2.8125,-15.968801 z m -14.37499,0.6562 c 3.92969,-0.017 7.35689,0.1412 7.93749,0.5 0.7493,0.4631 1.2188,3.498001 1.2188,8.125001 l 0,7.3438 -3,-0.375 c -1.6501,-0.2088 -3.042,-0.0738 -3.0938,0.3125 -1.1543,8.612 0.2196,18.629 3,21.7187 1.4602,1.623 1.7631,3.4151 1.5312,9.5 -0.5616,14.744302 -1.4668,30.563302 -1.9687,35.000002 -0.6944,6.1393 -1.5919,18.8628 -2,28.3438 -0.4683,10.8806 -1.4047,11.1637 -2.99999,0.9062 -0.9216,-5.9257 -1.2596,-7.9582 -2.4687,-14.25 -0.5815,-3.025 -1.2813,-7.0748 -1.5313,-9 -0.25,-1.925 -0.7636,-5.7497 -1.1563,-8.5 -0.3925,-2.75 -0.7732,-5.8999 -0.8437,-7 -0.0704,-1.0999 -0.4177,-3.7999 -0.7813,-6 -0.3636,-2.1999 -0.9168,-6.4745 -1.2187,-9.5 -0.3019,-3.025 -0.7201,-6.1749 -0.9375,-7 -0.2174,-0.824902 -0.7079,-4.199802 -1.0938,-7.500002 -0.9337,-7.9841 -1.0609,-8.7479 -1.75,-10.5 -0.3245,-0.8249 -0.8574,-3.7497 -1.1562,-6.5 -0.5341,-4.9143 -1.2427,-8.9999 -1.5625,-9 -0.0893,0 -0.3456,-1.3495 -0.5625,-3 -0.8291,-6.3082 -1.0522,-7.4898 -1.7188,-8.1562 -1.375004,-1.375 -0.6615,-4.355401 1.0626,-4.437501 0.9624,-0.0458 2.875,-0.2334 4.25,-0.4375 2.5077,-0.3722 6.914,-0.5765 10.8437,-0.5938 z m -22.968704,1.625 c 2.0012,0.0107 2.6766,0.8832 4.1874,5.500001 2.355604,7.1979 2.330804,8.731 -0.0937,9.5 -1.4157,0.4494 -2.8866,1.5566 -3.2813,2.375 -0.0089,-6e-4 -0.0225,0 -0.0312,0 -0.4336,0.006 -0.6111,1.0004 -0.1875,3.2813 0.3426,1.8453 0.7393,4.0188 0.875,4.8437 0.1356,0.8251 0.8311,3.1878 1.5313,5.25 0.8811,2.5959 2.7621,5.1028 3.718704,5.5313 0.2695,0.3447 0.7918,0.8239 1.5625,1.4687 1.7543,1.4679 2.9126,3.6353 3.3125,6.25 0.3364,2.2001 0.7582,4.900502 0.9375,6.000002 0.5797,3.5579 1.9208,15.9147 2.0625,19.0313 0.0757,1.6664 0.4216,3.5122 0.7813,4.0937 0.3594,0.5817 0.8905,3.9419 1.1874,7.4688 0.297,3.5271 0.7517,7.5313 1,8.9062 0.2485,1.375 0.6487,3.8501 0.9063,5.5 0.8863,5.6765 1.7214,10.014 2.2187,11.6563 0.2742,0.9052 0.6662,2.9303 0.875,4.5 0.209,1.5698 0.6812,3.6313 1.0626,4.5937 0.9039,2.2836 0.2074,2.2174 -1.9688,-0.1874 -1.4712,-3.6625 -3.2634,-7.0812 -4.6875,-10.75 -0.6345,-1.5484 -1.2853,-3.4282 -1.4375,-4.1876 -0.1524,-0.7593 -0.7555,-1.8807 -1.3438,-2.4687 -0.588,-0.5881 -1.0624,-1.8302 -1.0624,-2.7813 0,-0.9506 -0.5626,-2.3358 -1.25,-3.0624 -0.6876,-0.7268 -1.433,-2.2171 -1.625,-3.3126 -0.1922,-1.0954 -0.921,-3.1201 -1.625,-4.5 -0.7041,-1.3794 -1.5955,-4.0748 -2.000004,-6 -0.4048,-1.925 -1.244,-4.1007 -1.8438,-4.8437 -0.5999,-0.7429 -1.1502,-1.9135 -1.25,-2.5937 -0.0999,-0.6802 -2.5007,-6.7216 -5.3125,-13.4063 -2.8117,-6.6847 -5.0937,-12.826802 -5.0937,-13.656302 0,-0.8294 -0.4502,-1.4997 -1,-1.5 -0.5501,0 -1,-0.8569 -1,-1.9062 0,-1.0492 -1.0815,-4.0866 -2.4063,-6.75 -1.3249,-2.6633 -3.6191,-7.5437 -5.0937,-10.8438 -1.4746,-3.2999 -3.5433,-7.8263 -4.5938,-10.0624 -1.0505,-2.2363 -1.9062,-4.453 -1.9062,-4.9063 0,-1.4082 3.3902,-3.4666 5.75,-3.5 1.2374,-0.0175 2.25,-0.5292 2.25,-1.125 0,-0.5958 0.5623,-0.8744 1.25,-0.625 0.6875,0.2494 2.5996,-0.0851 4.25,-0.75 1.65,-0.664801 3.5753,-1.019401 4.2812,-0.781301 0.706,0.238401 1.831,0.0652 2.5,-0.4062 0.6691,-0.4715 2.2823,-0.8507 3.5938,-0.8438 z m 66.656194,2.718801 c 0.3753,0.004 0.8277,0.0884 1.375,0.2188 1.426,0.3396 3.2686,0.7467 4.0938,0.9062 1.9416,0.3752 5.0214,1.5375 7.2812,2.75 l 7.9375,3.5938 -3.0313,6.5312 c -3.0534,6.5968 -5.2373,9.163 -5.9687,6.9688 -0.6422,-1.9267 -3.997,-1.3556 -5.625,0.9687 -1.0581,3.122 -2.9846,5.658 -4.1563,8.8437 -0.0745,0.2751 -0.4905,1.3209 -0.9374,2.3438 -0.7842,1.7941 -0.8996,4.1976 -0.4688,9.7812 0.1219,1.5798 -1.0349,4.467602 -2.9062,7.187602 -1.7189,2.4982 -3.125,4.7025 -3.125,4.9062 0,0.2037 -3.1504,6.1633 -7,13.2188 -4.3451,9.0545 -9.2627,17.7206 -14,26.5624 -4.5514,9.0696 -6.8258,12.3573 -7.125,10.3126 -0.1421,-0.9701 -0.2464,-0.5819 2.8124,-11.8126 1.349,-4.95 2.446,-9.767 2.4376,-10.7187 -0.009,-0.9517 0.4227,-1.9941 0.9374,-2.3125 0.5151,-0.3183 0.9376,-1.6336 0.9376,-2.9062 -1e-4,-1.2726 0.8769,-4.3445 1.9687,-6.8126 1.0917,-2.468 2.1434,-5.3354 2.3437,-6.375 0.2007,-1.0393 0.6401,-2.5499 0.9688,-3.375 0.3288,-0.8249 1.7807,-5.0995 3.2188,-9.5 1.4379,-4.4 3.1359,-9.068902 3.7812,-10.375002 0.6453,-1.3056 1.2105,-2.8806 1.25,-3.5 0.0395,-0.6192 0.3518,-1.7999 0.6875,-2.625 3.1267,-10.8866 6.7555,-21.493 10.0313,-32.3437 0.6741,-1.7962 1.1553,-2.448 2.2812,-2.4375 z m -95.093794,6.7812 c 1.4398,0 2.6649,0.9638 3.5,2.75 0.7072,1.5125 1.6705,3.5451 2.1563,4.5 0.4932,3.2427 4.6984,5.7267 0.9063,7.4688 -2.2049,0.5766 -2.5249,2.2522 -1,5.2812 0.55,1.0926 1.45,2.9077 2,4 0.55,1.0926 1,2.8218 1,3.8438 -1e-4,3.058 4.3602,7.3847 7.0624,7 1.7256,-0.2456 2.4703,0.1994 2.75,1.6562 0.2112,1.1 1.9165,5.281802 3.7813,9.281302 1.8648,3.9995 3.4063,7.6629 3.4063,8.1563 -1e-4,0.4933 0.7382,2.3867 1.6562,4.2187 3.0223,6.0313 3.3438,6.8159 3.3438,8.2187 -1e-4,0.7641 1.1007,3.9066 2.4687,7 1.623404,2.7137 1.584404,5.6505 2.843704,8.375 0.7968,1.5126 2.2747,4.7755 3.2813,7.25 1.7316,2.9612 2.8889,5.7371 3.875,8.9376 0.8392,1.6225 1.5313,3.4225 1.5313,4 -1e-4,1.8776 -1.6639,1.1337 -2.75,-1.25 -0.5829,-1.2793 -4.0159,-5.8919 -7.625004,-10.25 -3.6094,-4.3582 -8.0352,-9.8485 -9.8438,-12.1876 -5.1636,-6.8229 -9.7738,-13.8196 -15.0625,-20.625 -1.2347,-1.5839 -2.8576,-4.059 -3.625,-5.5 -0.7673,-1.441 -2.3423,-3.8138 -3.5,-5.25 -1.1576,-1.436 -2.7688,-3.6199 -3.5937,-4.875 -0.825,-1.2549 -2.5212,-3.472202 -3.75,-4.906202 -1.2291,-1.434 -2.739,-3.1923 -3.3438,-3.9062 -0.6048,-0.714 -1.6283,-2.3038 -2.2812,-3.5626 -1.1903,-2.2943 -6.3787,-9.0091 -10.125,-13.0624 -4.2244,-4.3804 -0.6527,-4.4324 2.6562,-7.0626 5.778,-3.6687 11.7388,-7.2101 18.2812,-9.5 z m 119.249994,1.4063 c 0.321,-0.0344 0.6666,0.3278 1.25,1.0313 0.7136,0.8597 1.8592,1.5625 2.5313,1.5624 0.6721,0 2.5269,1.1217 4.125,2.5 3.6409,2.6904 7.4281,5.139 11.3437,7.4376 2.3186,1.7818 2.3778,2.049 1,4.6874 -1.4626,2.8011 -8.4112,10.3753 -9.5312,10.375 -0.3257,0 -1.7588,-0.9007 -3.1562,-2 l -2.5313,-2 -4.625,4.625 c -2.5394,2.5393 -4.6366,4.9028 -4.6563,5.25 -0.0194,0.3474 -0.5911,1.6327 -1.2812,2.875 -0.69,1.242402 -1.1501,3.942702 -1.0312,6.000002 0.1954,3.3853 -0.4513,4.4235 -6.7188,10.9376 -3.8093,3.9591 -12.7562,13.4848 -19.9062,21.1562 -11.6798,12.5312 -15.5,16.132 -15.5,14.5938 -1e-4,-0.277 0.7055,-1.6131 1.5937,-2.9688 1.1343,-1.7917 0.9476,-3.127 2,-4.9688 2.5659,-6.9344 6.8562,-13.2964 10.3437,-19.9062 8.2361,-15.8148 9.3542,-17.8958 10.0626,-18.5938 0.2792,-0.2749 1.8212,-2.9745 3.4374,-6.000002 1.6164,-3.025 3.7582,-6.3712 4.75,-7.4374 0.992,-1.0664 1.8125,-2.4779 1.8126,-3.125 -1e-4,-0.6472 0.9227,-2.3635 2.0624,-3.8126 1.9212,-3.9965 4.486,-7.4513 6.4376,-11.5937 0.8544,-1.9058 2.0284,-3.7445 2.5937,-4.0937 0.5652,-0.3495 1.1277,-1.2612 1.25,-2.0313 0.1222,-0.7699 0.68,-2.2216 1.25,-3.2187 0.4662,-0.8157 0.7729,-1.2469 1.0937,-1.2813 z m -60.6874,5.0937 c 1.1831,0 1.5014,1.4792 1.5624,7 0.0428,3.85 -0.1046,7.5626 -0.3437,8.25 -0.6933,1.9939 -2.1556,1.4607 -2.7813,-1.0312 -0.3164,-1.2605 -0.4184,-4.973 -0.25,-8.25 0.231,-4.4936 0.6811,-5.9687 1.8126,-5.9688 z m -24.968794,1.5938 c 0.1128,-0.0151 0.2324,-0.01 0.3438,0 0.888204,0.0797 1.697204,1.0688 2.125004,4.6562 0.3121,2.6184 1.0504,6.2829 1.5312,8.1563 1.34,12.1091 -4.381904,0.5951 -5.281204,-6.3437 -0.3363,-1.9257 -0.2756,-4.1609 -0.9688,-5.7188 0.6495,0 1.4604,-0.6446 2.25,-0.75 z m 48.718794,0.4375 c 0.8038,-0.1184 1.8541,0.3174 2.625,0.2813 -0.231,0.6976 -0.375,1.669 -0.375,2.7187 -1e-4,1.8533 -0.432,4.3928 -0.9376,5.6563 -1.8175,4.5446 -2.3737,6.3278 -2.4687,7.7187 -4.8132,5.8052 -0.4074,-14.1568 0.4687,-16.0313 0.194,-0.1978 0.4195,-0.3042 0.6876,-0.3437 z m -74.468794,7.5937 c 0.137,-0.002 0.3123,0.0266 0.5,0.0626 0.9385,0.1799 2.168,1.7089 2.7188,3.4062 0.5506,1.6972 1.6096,3.8593 2.375,4.7812 0.5834,2.6595 2.4549,4.9639 2.6562,7.5626 -0.3614,0.5846 -0.999,1.0625 -1.4062,1.0624 -1.2039,1e-4 -3.125,-2.2931 -3.125,-3.7187 -1e-4,-0.7259 -1.1178,-4.0502 -2.4688,-7.375 -1.8913,-4.6546 -2.2091,-5.7699 -1.25,-5.7813 z m 96.812494,0.0626 c 0.3394,-0.006 0.6597,0.1923 1.0313,0.5624 0.9913,0.9883 0.8221,2.0031 -0.8438,5 -1.1495,2.068 -3.0985,5.5502 -4.3125,7.75 -2.7939,5.0629 -2.8196,5.104 -3.5313,3.25 -0.3264,-0.8505 0.3304,-3.4872 1.4688,-5.8437 1.1385,-2.3564 2.0815,-4.7596 2.0938,-5.3437 0.0122,-0.5842 0.9107,-2.1874 1.9687,-3.5626 0.9573,-1.2439 1.5594,-1.8032 2.125,-1.8124 z m -130.562494,0.0624 c 1.3538,0 2.4688,0.3191 2.4688,0.7188 -1e-4,0.3997 1.3451,2.1434 3,3.875 1.6548,1.7316 2.7295,3.1563 2.375,3.1562 -0.3548,0 0.5408,1.1971 2,2.6563 2.4986,2.4987 2.5431,2.7603 0.9687,4.5 -0.9193,1.0158 -2.2602,1.844 -3,1.8437 -1.9636,0 -1.654,2.359 0.7187,5.375 2.1161,4.436202 5.4858,7.298202 9.75,10.187602 3.2814,1.9166 3.3531,1.9021 4.75,0 0.7785,-1.0598 2.4079,-0.5474 2.5938,-0.3126 0.1864,0.2351 0.7993,1.0507 2.4062,3.25 1.6071,2.1996 3.2911,4.4494 3.7188,5 0.4277,0.5505 2.7533,3.7001 5.1875,7 2.4341,3.3001 5.3435,7.1944 6.4687,8.6563 1.8814,2.7128 3.3345,5.6934 5.3126,8.25 0.6875,0.6884 2.5996,2.9638 4.25,5.0625 3.6087,4.7123 7.0052,9.2853 11.125004,13.5938 3.7722,3.8833 7.0042,7.4833 7.1874,8 0.6943,1.9565 -1.7242,0.8101 -5.4062,-2.5626 -2.1016,-1.925 -4.1358,-3.4997 -4.5312,-3.5 -0.3955,0 -2.677504,-1.7835 -5.062604,-3.9687 -2.3845,-2.1852 -4.6565,-3.9853 -5.0624,-4 -0.8352,-0.0302 -3.1342,-1.8571 -9.125,-7.25 -2.2749,-2.0477 -4.517,-3.7353 -4.9688,-3.75 -0.4518,-0.0147 -1.4346,-0.5937 -2.1875,-1.2813 -0.7528,-0.6874 -2.9633,-2.3745 -4.9063,-3.75 -2.3204,-1.6423 -3.5132,-3.3161 -3.5312,-4.875 -0.0205,-1.7668 -0.3502,-2.125 -1.2812,-1.375 -1.4086,1.135 -5.75,-0.1139 -5.75,-1.6562 0,-0.5306 -0.7875,-1.2381 -1.75,-1.5625 -0.9626,-0.3245 -3.9155,-2.6 -6.5626,-5.0625 -2.6469,-2.4626 -5.2207,-4.4687 -5.7187,-4.4688 -0.498,0 -4.6326,-3.3827 -9.1875,-7.5 -4.5549,-4.117 -8.6732,-7.4917 -9.125,-7.5 -1.1311,-0.02 -3.1038,-2.1137 -4.5312,-4.781202 -1.7332,-3.2382 -0.638,-5.13 9.1562,-15.7188 4.0835,-4.4146 6.5136,-6.2497 8.25,-6.25 z m 170.281194,1.25 8.75,7.6563 c 4.8035,4.7671 8.8685,9.7716 9.5,11.6563 1.0031,2.993802 0.8555,3.506502 -1.5312,5.718702 -2.2361,2.0724 -2.9239,2.2615 -4.5938,1.2187 -1.08,-0.6745 -1.9375,-1.4823 -1.9374,-1.7812 0,-0.2989 -1.4628,-0.5185 -3.25,-0.5 -2.0534,0.0214 -3.1579,0.4916 -3,1.2812 0.2996,1.4984 -1.3929,1.6564 -2.2813,0.2188 -0.3454,-0.559 -1.0576,-0.7375 -1.5937,-0.4062 -0.5361,0.3313 -1.6365,0.0708 -2.4376,-0.5938 -1.1383,-0.9447 -1.7679,-0.9448 -2.9062,0 -0.8009,0.6647 -1.975,0.8823 -2.5938,0.5 -2.0459,-1.2646 -6.9375,4.5623 -6.9374,8.25 -1e-4,1.8414 -0.7246,4.4236 -1.5938,5.75 -0.8692,1.3265 -1.5039,4.1272 -1.4062,6.2188 0.2929,6.2871 0.0778,7.3575 -1.75,8.0312 -1.7836,0.6573 -7.7035,4.7702 -10.0938,7.0312 -0.7268,0.6876 -1.6268,1.241 -2,1.25 -0.3732,0.009 -3.3564,2.4701 -6.6562,5.4688 -4.723,4.1805 -9.7609,7.3188 -14.5,11.5 -4.36,3.1976 -8.3294,6.4121 -12.5313,9.8438 -2.1943,2.0931 -5.5439,4.8506 -7.4687,6.1562 -1.9251,1.3057 -5.5769,4.2849 -8.0938,6.5938 -2.5169,2.3087 -5.5464,4.4929 -6.75,4.875 -1.2036,0.3819 -1.9404,1.1145 -1.625,1.625 0.3155,0.5104 0.1143,0.9375 -0.4375,0.9374 -0.5519,1e-4 -2.71939,1.5777 -4.81249,3.5 -3.5084,3.0343 -7.2576,7.1927 -11.5312,3.75 -1.3999,-1.571 -1.4194,-2.1332 -0.0626,-5.5 0.8312,-2.0624 1.8919,-3.7497 2.3438,-3.75 0.4519,0 2.9169,-2.0247 5.5,-4.5 4.0124,-2.6474 6.72509,-6.1621 10.09379,-9.4374 1.8277,-1.3839 1.825,-2.5224 3.4687,-4.0313 7.8217,-8.4751 19.6971,-18.0504 26.8125,-26.8437 0.5681,-1.0616 3.9705,-4.8767 7.5625,-8.4688 3.592,-3.592 6.5313,-6.8488 6.5313,-7.25 0,-0.4011 3.2624,-4.0123 7.25,-8 3.9874,-3.9879 10.9861,-11.1084 15.5624,-15.8125 4.5766,-4.704102 8.6167,-8.673502 9,-8.843702 0.3836,-0.1703 1.6991,-1.5955 2.9063,-3.1563 1.2072,-1.5609 3.8224,-4.6408 5.8125,-6.8437 l 3.2812,-3.3126 z m -19.6562,11.6563 c 0.6055,0.0211 1.1241,0.458 1.7812,1.25 0.9573,1.1534 0.0328,2.5931 -4.8437,7.5 -3.3081,3.328702 -6.2555,5.664702 -6.5313,5.218702 -1.0332,-1.6718 1.0538,-6.079602 4.7188,-10.031202 2.5971,-2.8002 3.8658,-3.9727 4.875,-3.9375 z m -137.343794,2.3437 2.0938,2.4063 c 1.1475,1.3217 2.0811,2.6717 2.0938,3 0.0127,0.3284 1.5904,2.317802 3.5,4.437502 1.9092,2.1199 3.2421,4.2575 2.9374,4.75 -1.2477,2.0189 -5.2366,0.723 -8.75,-2.875 -2.0366,-2.0857 -3.6875,-4.319 -3.6874,-4.937502 -1.0467,-1.9564 -1.869,-2.0187 -0.1876,-4.3125 l 2,-2.4688 z M 199.41825,106.57175 c 0.2704,0.007 0.3187,0.3951 0.0626,1.0626 -0.6648,1.7324 -1.375,2.0633 -1.375,0.625 -1e-4,-0.5176 0.425,-1.2265 0.9687,-1.5626 0.1417,-0.0875 0.2539,-0.1271 0.3437,-0.125 z m 22.2813,0.625 c 0.2161,0 0.4063,0.6751 0.4063,1.5 0,0.8251 -0.4361,1.5003 -0.9688,1.5 -0.5328,0 -0.7229,-0.6749 -0.4062,-1.5 0.3165,-0.8249 0.7525,-1.4997 0.9687,-1.5 z m -5.8437,0.3126 c 1.233,-0.0346 2.3081,0.4055 2.6562,1.3124 0.4027,1.0494 -0.1184,1.7473 -1.5625,2.125 -2.0324,0.5315 -2.0672,0.6379 -0.375,1.875 1.6428,1.2014 1.6853,1.8321 0.5,7.5938 -0.7111,3.4565 -1.6687,7.0688 -2.1563,8.0312 -0.4873,0.9626 -1.3792,1.7503 -1.9687,1.75 -0.627,0 -0.7629,-0.7261 -0.3437,-1.75 0.394,-0.9624 0.7923,-2.4249 0.9062,-3.25 0.1139,-0.8249 0.5023,-2.6245 0.8438,-4 1.9476,-7.8427 1.9376,-8.0838 -0.4688,-7.875 -3.8614,0.3356 -5.9461,-0.0874 -5.3438,-1.0624 0.3167,-0.5125 -0.8051,-0.2204 -2.5,0.625 -2.5082,1.2511 -3.023,2.0379 -2.7812,4.3437 0.2793,2.6626 -3.2351,7.9688 -5.2812,7.9687 -1.4122,1e-4 -0.5487,-4.4967 1.25,-6.5312 1.2386,-1.4011 1.4962,-2.468 0.8437,-3.5 -1.3448,-2.1269 -1.2283,-2.6061 1.2813,-5.2812 2.5515,-2.7199 5.4801,-3.0774 7.875,-1 1.3384,1.1607 1.8768,1.1585 3,0.0937 0.9969,-0.9449 2.3919,-1.4342 3.625,-1.4687 z m -185.374994,2.625 c 0.3412,-0.0164 0.6251,0.2252 0.6874,0.8124 0.0441,0.4126 0.2638,2.8764 0.4688,5.4688 0.205,2.5922 1.1298,5.8579 2.0625,7.2812 1.2479,1.9048 1.3836,2.8975 0.5625,3.7188 -0.8212,0.8211 -1.2901,0.5984 -1.8125,-0.8125 -0.3904,-1.0544 -0.9862,-2.1311 -1.3125,-2.4063 -1.3762,-1.1597 -2.7179,-5.6821 -2.375,-8 0.2035,-1.375 0.3848,-3.2874 0.4062,-4.25 0.0236,-1.043 0.7435,-1.7852 1.3126,-1.8124 z m 190.937394,2.4374 c 0.2704,0.007 0.3187,0.3951 0.0626,1.0626 -0.6648,1.7324 -1.375,2.0633 -1.375,0.625 -1e-4,-0.5176 0.425,-1.2265 0.9687,-1.5626 0.1417,-0.0875 0.2539,-0.1271 0.3437,-0.125 z m -186.312394,2.625 c 1.1521,0 1.2064,0.2122 1.4687,5.25 0.2293,4.4037 -0.1597,4.7127 -1.5,1.1876 -1.26,-3.314 -1.2414,-6.4375 0.0313,-6.4376 z m 172.062394,0.0626 c 0.3399,-0.0487 0.7702,-0.0207 1.2813,0.0937 1.3093,0.2932 1.3115,0.6008 0.0937,2.25 -1.2886,1.7454 -1.4342,1.7433 -2.0312,0.1875 -0.5875,-1.5308 -0.3634,-2.3853 0.6562,-2.5312 z m 13.3126,1.3124 c 0.3644,0.0123 0.625,0.4193 0.625,1.0626 -1e-4,1.7565 -0.6116,2.0121 -1.4688,0.625 -0.3164,-0.512 -0.1216,-1.2171 0.4375,-1.5626 0.1398,-0.0863 0.2846,-0.1289 0.4063,-0.125 z m -8.2188,1.6563 c 0.5289,-0.0968 0.8936,0.2563 0.5938,1.1563 -0.2178,0.653 -0.909,1.3757 -1.5626,1.5937 -0.7307,0.2436 -0.9674,-0.2137 -0.5937,-1.1875 0.3488,-0.9088 1.0336,-1.4657 1.5625,-1.5625 z m -172.562494,1.3437 c 0.1195,-0.005 0.2685,0.0401 0.4063,0.125 0.55,0.34 1,1.0449 1,1.5626 0,0.5176 -0.4502,0.9375 -1,0.9374 -0.5501,0 -1,-0.7051 -1,-1.5624 0,-0.6432 0.2351,-1.0467 0.5937,-1.0626 z m 155.468694,0.625 c 0.5825,0 0.7774,0.4501 0.4376,1 -0.34,0.55 -0.8199,1.0003 -1.0626,1 -0.2425,0 -0.4375,-0.4498 -0.4374,-1 -1e-4,-0.55 0.4803,-0.9997 1.0624,-1 z m 24.75,0.0313 c 0.4601,-0.019 0.7548,0.767 0.5938,2.2187 -0.1372,1.2376 -0.2977,2.5877 -0.3438,3 -0.0457,0.4126 -0.5126,0.7503 -1.0624,0.75 -1.1243,0 -1.3189,-2.0278 -0.4063,-4.4062 0.3951,-1.0295 0.8609,-1.5477 1.2187,-1.5625 z m -176.156194,1.9687 c 1.865,0.035 3.0923,1.6374 2.9688,3.9063 -0.1341,2.4588 -2.2949,4.2117 -2.3126,1.875 -0.0051,-0.7028 -0.3514,-2.2936 -0.75,-3.5313 -0.3984,-1.2374 -0.3557,-2.2584 0.0938,-2.25 z m 167.343794,1 c 0.55,0 1,0.4501 1,1 0,0.55 -0.4502,1.0003 -1,1 -0.5501,0 -1,-0.4498 -1,-1 0,-0.55 0.45,-0.9997 1,-1 z m -171.343794,0.0313 c 0.04,-0.0155 0.0717,-0.005 0.125,0 0.7458,0.0716 2.1631,2.0212 2.1875,3.2187 0.0084,0.4126 -0.3838,0.7503 -0.875,0.75 -1.1091,0 -2.3503,-3.0873 -1.5625,-3.875 0.0367,-0.0367 0.085,-0.0782 0.125,-0.0937 z m 164.374994,0.0313 c 0.1885,-0.004 0.3812,0.0798 0.5625,0.25 0.4913,0.4614 0.099,1.2674 -0.875,1.8124 -1.0418,0.5831 -1.7187,2.1728 -1.7187,3.9376 0,2.6115 0.3446,2.9375 3,2.9374 1.6499,0 2.8901,-0.3374 2.7812,-0.75 -0.3606,-1.3646 1.3318,-5.2497 2.2812,-5.25 0.513,1e-4 0.9376,0.2602 0.9376,0.5626 -1e-4,0.5969 -3.0032,6.6503 -3.6563,7.375 -0.7962,0.8832 -6.3844,0.8325 -6.9375,-0.0626 -0.3117,-0.5043 -0.9636,-0.6556 -1.4688,-0.3437 -0.5047,0.312 -1.8273,-0.2781 -2.9374,-1.3125 -2.0168,-1.8788 -2.0255,-1.8947 0.9687,-4.5625 1.6483,-1.4687 3.6537,-2.656 4.4375,-2.6563 0.7839,0 1.6294,-0.5622 1.875,-1.25 0.1534,-0.4296 0.4358,-0.6819 0.75,-0.6874 z m -154.468794,2.9374 c 0.2426,0 0.4376,0.4501 0.4376,1 -1e-4,0.55 -0.48,1.0003 -1.0626,1 -0.5824,0 -0.7774,-0.4498 -0.4374,-1 0.3398,-0.55 0.8202,-0.9997 1.0624,-1 z m -13.4062,1.2813 c 0.8973,-0.0439 1.8534,0.3391 2.6875,1.0937 0.9853,0.8918 2.3246,1.6251 2.9687,1.625 0.6443,0 1.1876,0.3715 1.1876,0.8126 0,0.441 1.9122,0.6972 4.25,0.5937 2.3374,-0.1034 4.5875,0.3439 5,0.9687 0.5397,0.8178 0.9858,0.7418 1.625,-0.25 0.4884,-0.7579 1.3885,-1.0653 2,-0.6874 2.1117,1.3051 1.0963,2.5262 -1.8126,2.1874 -3.6081,-0.42 -5.3373,0.5435 -4.5624,2.5626 0.7706,2.0081 5.2049,4.0674 6,2.7812 0.327,-0.5293 0.0875,-0.9687 -0.5626,-0.9688 -0.8447,0 -0.7988,-0.4742 0.1563,-1.625 0.8255,-0.9946 1.4608,-1.1799 1.6875,-0.5 0.2379,0.7137 0.8769,0.5918 1.8438,-0.375 2.1506,-2.1506 3.125,-1.8508 3.125,1 -1e-4,1.375 -0.3937,2.5003 -0.875,2.5 -0.4812,0 -0.8979,-0.5622 -0.9063,-1.25 -0.0105,-0.8578 -0.307,-0.8091 -0.9375,0.1876 -1.5041,2.3774 -0.1485,3.1752 4.5312,2.625 5.2876,-0.4273 1.443,3.3153 -2,2.625 -1.7587,0.2512 -2.0942,1.083 -2.25,5.3124 -0.3502,9.5186 -1.1096,19.2774 -1.8124,23.4376 -1.0408,6.1597 -3.0739,4.6346 -2.7188,-2.0313 0.1586,-2.9771 0.4682,-10.2254 0.6875,-16.125 l 0.4063,-10.75 -3.1876,-2.25 c -1.7511,-1.247 -3.7121,-2.145 -4.3437,-2 -0.6316,0.145 -1.6085,-1.089 -2.1875,-2.75 -0.579,-1.6609 -1.5463,-3.0312 -2.125,-3.0313 -2.1265,0 -2.5723,-0.1826 -4.0625,-1.5312 -0.8363,-0.7568 -2.6363,-1.7886 -4,-2.3125 -2.1856,-0.8396 -2.263,-1.0516 -0.6875,-1.6875 0.2774,-0.1119 0.5759,-0.1729 0.875,-0.1875 z m 181.062494,1.8125 c 0.551,-0.1272 -1.8108,3.5851 -3.2187,5.5625 -1.1619,1.8089 -3.0001,2.7509 -5.5313,3.875 -2.0348,0.2606 -4.0786,0.7202 -4.5313,1 -0.4527,0.2798 -1.0864,0.0369 -1.4374,-0.5313 -0.351,-0.5678 -1.0152,-0.8115 -1.4688,-0.5312 -1.1475,0.7092 -8.0312,-2.261 -8.0312,-3.4688 -1e-4,-0.3974 -0.25,-1.8443 -0.5938,-2.5937 l 0.6562,-0.4687 3.2188,2.2812 c 5.5673,3.971 12.9956,2.8234 18.2188,-2.8125 1.3497,-1.4564 2.2901,-2.2136 2.7187,-2.3125 z m -25.625,3.8438 c -0.1751,1.1099 -0.1793,2.8872 0.0313,3.9374 0.3164,1.583 0.0143,3.9031 -0.6563,5.1563 -1.3198,1.8371 -6.6472,0.0909 -9.1563,-0.0313 -2.1836,0 -0.2478,-2.2058 5.2188,-5.9374 l 4.5625,-3.125 z m 6.6563,6.2187 c 0.4257,-0.031 0.75,0.1633 0.75,0.6563 -1e-4,0.5369 -0.7228,1.2595 -1.5938,1.5937 -0.9739,0.3737 -1.431,0.137 -1.1875,-0.5937 0.3114,-0.9343 1.3216,-1.6047 2.0313,-1.6563 z m 1.5937,2.3125 c 0.5771,0.0788 1.2507,0.6501 2.4375,1.75 1.886,1.7479 2.3623,3.0263 2.0312,5.2812 -1.3753,9.3743 -0.9353,17.0731 1.2188,21.5 3.6381,7.4769 3.7842,8.6034 1.3125,10.9063 -2.6327,2.4527 -2.9051,2.5103 -5.3125,0.75 -1.2604,-0.9216 -1.5504,-1.7919 -0.9375,-2.75 0.4931,-0.7709 0.9843,-7.0311 1.0937,-13.9063 0.1097,-6.875 0.3915,-13.968 0.625,-15.75 0.2335,-1.7819 -0.1876,-4.0319 -0.9062,-5 -1.2444,-1.6762 -1.3716,-1.6666 -3.0625,0 -1.543,0.9539 -2.2967,3.9104 -2.1875,1.1563 -0.0934,-0.5989 0.6758,-1.8687 1.7188,-2.8125 0.9003,-0.8148 1.3916,-1.2038 1.9687,-1.125 z m -150.343694,0.625 c 0.1321,-0.0117 0.3418,0.01 0.5937,0.0938 1.7234,0.5743 2.9677,5.045 3.375,12.0624 0.1836,3.1626 -0.0636,5.7503 -0.5625,5.75 -0.4988,0 -0.9697,-1.6874 -1.0312,-3.75 -0.1874,-6.2885 -0.8099,-10.2411 -1.9688,-12.4062 -0.6461,-1.2073 -0.8029,-1.7149 -0.4062,-1.75 z m 129.468694,1.0938 c 0.3919,-0.0171 0.7923,0.1448 1.2187,0.4687 0.7109,0.5394 2.4375,1.0284 3.8126,1.0937 3.9919,-0.2425 6.7869,-0.5901 9.5,0.0938 2.1812,1.7596 0.8287,3.204 -1.1876,2.2188 -1.204,-0.5884 -2.4336,-0.68 -2.7187,-0.2188 -0.4386,0.7098 -3.9345,0.7844 -5.5937,0.125 -0.2751,-0.1093 -0.9502,-0.2584 -1.5,-0.3438 -3.4146,-0.5296 -5.6337,-1.8976 -4.6563,-2.875 0.3494,-0.3494 0.7331,-0.5454 1.125,-0.5624 z m 18.3125,4.1562 c 1.9571,-0.0307 2.3089,8.8691 2.2812,10.4062 -0.3328,6.4626 -0.5882,13.2614 -0.5624,15.0938 0.0286,2.0547 -0.3294,3.0826 -0.9688,2.6875 -0.5702,-0.3525 -1.0312,-1.3443 -1.0312,-2.1875 -1e-4,-0.8433 -0.9078,-2.6736 -2,-4.0625 -1.0925,-1.3889 -1.729,-2.9466 -1.4063,-3.4687 0.3226,-0.5221 0.7789,-3.9492 1,-7.625 0.221,-3.6759 0.6991,-7.8124 1.0625,-9.1876 0.638,-1.1572 1.1734,-1.6491 1.625,-1.6562 z m -6.3438,2.2188 c 1.8794,0.2016 2.5626,3.3099 2.5626,4.8437 -2e-4,1.7187 -1.9021,-0.3311 -2.5626,-4.8437 z m 0.6563,5.5312 c 0.2161,0 0.75,2.2064 0.75,3.0312 0,0.8252 -0.7798,2.8753 -1.3125,2.875 -0.5328,0 -0.3421,-0.6183 -0.4062,-1.5 -0.1971,-2.7079 0.7525,-4.4059 0.9687,-4.4062 z m -0.3125,7.2812 c 0.3978,-0.0117 0.7188,0.797 0.7188,2 0,1.375 -0.394,2.7338 -0.875,3.0313 -0.4814,0.2974 -0.875,-0.5626 -0.875,-1.9375 0,-1.375 0.3937,-2.7651 0.875,-3.0625 0.0601,-0.0372 0.0994,-0.0296 0.1562,-0.0313 z m -128.124994,1.5626 c 0.6183,0.0688 1.1642,0.9529 1.3438,2.8124 0.0927,0.9622 0.9209,3.5087 1.8437,5.6563 1.5009,3.4928 1.5264,4.1441 0.1875,6.1875 -1.5188,2.318 -4.7497,2.8129 -6.5625,1 -1.2815,-1.2815 -1.2553,-5.2988 0.0313,-6.0938 0.55,-0.3398 1,-2.3647 1,-4.5 -1e-4,-2.9015 0.9512,-4.8008 1.875,-5.0312 0.0897,-0.0224 0.1929,-0.0411 0.2812,-0.0312 z m -11.4375,1.5624 0.0937,3.5 c 0.0584,1.9251 0.1884,5.8627 0.2813,8.75 1.1097,5.4896 -0.8567,3.5191 -5.0937,1.2813 -2.5689,-2.3246 -2.5305,-3.2502 0.0937,-5.625 1.1527,-1.0431 2.6493,-3.2517 3.3437,-4.9063 l 1.2813,-3 z m 140.406294,5.875 c 2.1203,-0.3147 4.3224,3.2547 5.8437,10 0.7128,3.1604 0.5965,3.4607 -0.9063,2.6563 -1.0148,-0.5431 -2.258,-0.517 -3.125,0.0313 -2.0158,1.2753 -2.4245,1.1802 -4.3124,-0.9063 -1.9191,-2.1205 -1.7099,-6.924 0.4374,-10.1563 0.6664,-1.0029 1.3558,-1.5198 2.0626,-1.625 z m -72.7188,3.375 c -1.27379,0.05 -1.68069,1.0117 -1.87499,3.0938 -0.6507,2.0504 1.59399,4.4536 4.34379,4.6562 1.6363,0.1206 1.815,-0.7718 1.25,-6.25 -0.0709,-0.6874 -1.0251,-1.2497 -2.125,-1.25 -0.6381,-0.1764 -1.1692,-0.2664 -1.5938,-0.25 z m 0.4062,2.25 c 0.5849,0 1.3563,0.476 1.7188,1.0626 1.0763,1.7415 -0.16,2.1214 -1.5312,0.4687 -0.7888,-0.9504 -0.8506,-1.5312 -0.1876,-1.5313 z m 12.8126,6 c 0.8854,0.005 7.375,5.7784 7.375,6.5626 0,0.2471 -0.5626,0.4145 -1.25,0.375 -1.3988,-0.0809 -7.4592,-6.9447 -6.125,-6.9376 z m -8.5626,2.0626 c 0.125,-0.01 0.4376,0.0522 0.9376,0.1874 1.0834,0.2929 1.5661,2.1343 1.7812,6.5938 0.2707,5.6106 0.0413,6.3874 -2.4062,8.6562 -1.927,-0.086 -1.591,-0.1304 -1.25,-1.75 0.0701,-1.2374 0.3066,-3.3745 0.5312,-4.75 0.2247,-1.375 0.3886,-3.5123 0.375,-4.75 -0.0137,-1.2375 0.5374,-2.2729 1.2188,-2.2812 0.8257,-0.0102 0.7499,-0.3554 -0.25,-1.0625 -0.8334,-0.5894 -1.1458,-0.8277 -0.9376,-0.8437 z m 7.6563,1.9374 c 0.151,-0.008 0.3279,1e-4 0.5313,0 5.1637,2.6231 6.865,14.9526 0.75,5.2813 -2.0793,-4.7002 -2.3382,-5.2251 -1.2813,-5.2813 z m -3.375,1.25 c 0.1299,-0.0549 0.4883,0.1905 1.125,0.7188 0.8376,0.6952 1.5313,1.4486 1.5313,1.6562 -1e-4,1.1203 -1.8996,0.1205 -2.4376,-1.2812 -0.2633,-0.6863 -0.3486,-1.0388 -0.2187,-1.0938 z m -7.4687,0.25 c 1.6513,-0.1337 0.4197,8.3799 -1.6563,10.75 -3.54169,4.044 -4.81169,0.5181 -1.99999,-5.5937 1.15529,-2.5113 2.73699,-4.801 3.49999,-5.0937 0.0594,-0.0228 0.1029,-0.0582 0.1563,-0.0626 z m 9.0312,3.5 c 1.0734,0 2.0938,2.4912 2.0938,5.0938 -1e-4,1.8765 -1.5267,2.6433 -2.2813,1.1562 -0.7993,-1.5749 -0.6538,-6.2497 0.1875,-6.25 z m -17.34379,3 c 0.7389,0 1.0448,0.7799 0.75,1.9063 -0.4899,1.8735 -3.6811,3.4125 -4.7812,2.3125 -0.7818,-0.7819 2.5076,-4.2185 4.0312,-4.2188 z"
     id="path2384"
     sodipodi:nodetypes="cssssssssccscccscccccccsssssccsccssccsssssccsssssssccccccsscsssssccssssscsssssscccscccccssssssccssccssssssssssssccscccsssssssssssssssssssssccssssssscsssssssssssccsssssssssssssssssssssssccsscccsccssssccsssssssssssccccsccsssssssssccccsssccssssssccccssccsscccsssssscccssssccsssccssssccssccccccssccccssccsssccsssssssccssssssccsssssccccssssssssssssssssssscccssssssssssssssssscccsssssccssccccsssssscccsssscccssssccccsssccsssccsssssssssssssssssssccssssssssccsssccssccsssccsssccsssccssssccsssccssssccsssccsssccssssccssssssssssssssccsssccssssssssssssssssssccssscccssssssccccsssscccsccscccccsssccsssssssssccsccsssssccsccssssscccsssssscccsccsssccssssccssssssscccccscccssssscccsscccssccssccssccssssccccccsssccsssccssccssc"
     inkscape:export-xdpi="90"
     inkscape:export-ydpi="90"
     inkscape:connector-curvature="0" />
</svg>
