<?xml version="1.0" encoding="UTF-8" standalone="no"?>
<!-- Created with Inkscape (http://www.inkscape.org/) -->

<svg
   xmlns:dc="http://purl.org/dc/elements/1.1/"
   xmlns:cc="http://creativecommons.org/ns#"
   xmlns:rdf="http://www.w3.org/1999/02/22-rdf-syntax-ns#"
   xmlns:svg="http://www.w3.org/2000/svg"
   xmlns="http://www.w3.org/2000/svg"
   xmlns:sodipodi="http://sodipodi.sourceforge.net/DTD/sodipodi-0.dtd"
   xmlns:inkscape="http://www.inkscape.org/namespaces/inkscape"
   width="731"
   height="713"
   id="svg2"
   version="1.1"
   inkscape:version="0.48.0 r9654"
   sodipodi:docname="AshikagaPaulownia.image.svg">
  <defs
     id="defs4" />
  <sodipodi:namedview
     id="base"
     pagecolor="#ffffff"
     bordercolor="#666666"
     borderopacity="1.0"
     inkscape:pageopacity="0.0"
     inkscape:pageshadow="2"
     inkscape:zoom="0.49497475"
     inkscape:cx="-82.62152"
     inkscape:cy="523.87092"
     inkscape:document-units="px"
     inkscape:current-layer="layer1"
     showgrid="false"
     fit-margin-top="0"
     fit-margin-left="0"
     fit-margin-right="0"
     fit-margin-bottom="0"
     inkscape:window-width="1623"
     inkscape:window-height="1006"
     inkscape:window-x="0"
     inkscape:window-y="0"
     inkscape:window-maximized="1" />
  <metadata
     id="metadata7">
    <rdf:RDF>
      <cc:Work
         rdf:about="">
        <dc:format>image/svg+xml</dc:format>
        <dc:type
           rdf:resource="http://purl.org/dc/dcmitype/StillImage" />
        <dc:title />
      </cc:Work>
    </rdf:RDF>
  </metadata>
  <g
     inkscape:label="Layer 1"
     inkscape:groupmode="layer"
     id="layer1"
     transform="translate(-37.357157,-141.57645)">
    <rect
       style="fill:#ffffff;fill-opacity:1;stroke:none"
       id="rect3975"
       width="814.28571"
       height="774.28571"
       x="-8.3571301"
       y="106.00502" />
    <path
       style="fill:#000000"
       d="m 37.357157,498.07645 0,-356.5 365.500003,0 365.5,0 0,356.5 0,356.5 -365.5,0 -365.500003,0 0,-356.5 z M 398.85716,821.03519 c 2.2,-0.36769 5.125,-1.26103 6.5,-1.98519 1.375,-0.72417 3.175,-1.57146 4,-1.88287 1.6802,-0.63422 13.6766,-8.82046 16,-10.91828 1.61,-1.45372 5.6651,-3.66494 10.5,-5.72561 3.9224,-1.67177 4.9042,-1.92177 11.8768,-3.02432 3.2323,-0.5111 7.8605,-1.60275 10.285,-2.42587 2.4244,-0.82313 5.2924,-1.4966 6.3731,-1.4966 1.0808,0 1.9651,-0.41425 1.9651,-0.92054 0,-0.5063 1.4625,-1.23907 3.25,-1.62838 3.9275,-0.85538 12.1699,-5.04714 13.8098,-7.02312 0.6518,-0.78538 1.7208,-1.42796 2.3755,-1.42796 1.2765,0 6.5647,-5.11728 6.5647,-6.35247 0,-0.40866 1.0716,-1.73613 2.3813,-2.94992 3.3901,-3.14191 8.3217,-11.84887 10.1776,-17.96907 0.872,-2.8757 1.9957,-5.99825 2.497,-6.93901 0.5014,-0.94075 0.6458,-2.40325 0.3209,-3.25 -0.3831,-0.99841 -0.017,-1.53953 1.0409,-1.53953 0.8975,0 2.0576,-1.11999 2.5781,-2.48887 0.5204,-1.36888 2.8115,-3.73138 5.0912,-5.25 8.187,-5.4537 13.6591,-12.08107 19.3511,-23.4366 2.4867,-4.96093 4.5887,-10.74117 4.9092,-13.5 1.1559,-9.94778 1.4673,-22.32105 0.5756,-22.87214 -0.5076,-0.31373 -0.9229,-2.45934 -0.9229,-4.76801 0,-2.30867 -0.4747,-5.76961 -1.0548,-7.69098 -1.4412,-4.77278 -1.6539,-5.56078 -3.507,-12.9934 -0.8914,-3.575 -1.8914,-7.175 -2.2223,-8 -0.3309,-0.825 -0.6481,-1.95 -0.705,-2.5 -0.057,-0.55 -0.7416,-2.125 -1.5217,-3.5 -0.7801,-1.375 -1.4852,-2.725 -1.567,-3 -0.7807,-2.6265 -3.0056,-7 -3.5611,-7 -0.3852,0 -1.446,-2.24471 -2.3572,-4.98824 -0.9113,-2.74353 -2.0914,-5.2568 -2.6225,-5.58505 -0.5311,-0.32825 -1.6706,-2.35854 -2.5321,-4.51176 -0.8616,-2.15322 -1.9676,-3.91495 -2.4579,-3.91495 -0.4903,0 -0.8914,-0.51615 -0.8914,-1.14701 0,-0.63085 -1.575,-3.06909 -3.5,-5.41829 -1.925,-2.34921 -3.5,-4.69503 -3.5,-5.21292 0,-0.5179 -1.125,-1.78647 -2.5,-2.81906 -1.375,-1.03258 -2.5,-2.36142 -2.5,-2.95298 0,-0.59156 -1.35,-2.36894 -3,-3.94974 -1.65,-1.5808 -3.0008,-3.35249 -3.0017,-3.93709 -9e-4,-0.5846 -1.8009,-2.75587 -4,-4.82503 -2.1991,-2.06917 -3.9983,-3.98296 -3.9983,-4.25287 0,-1.28498 -26.9306,-25.48501 -28.3605,-25.48501 -0.3492,0 -2.8272,-1.575 -5.5066,-3.5 -2.6795,-1.925 -5.2256,-3.5 -5.658,-3.5 -0.4324,0 -2.2611,-1.125 -4.0638,-2.5 -1.8027,-1.375 -3.6584,-2.5 -4.1236,-2.5 -0.4653,0 -1.4947,-0.9 -2.2875,-2 -0.7929,-1.1 -2.0172,-2 -2.7208,-2 -0.7036,0 -1.2792,-0.38166 -1.2792,-0.84813 0,-0.46646 -1.8711,-1.69186 -4.1579,-2.72309 -2.2869,-1.03123 -5.933,-3.16081 -8.1025,-4.73239 -4.5961,-3.32938 -11.4493,-5.97521 -12.2251,-4.71981 -0.2956,0.47825 -1.7698,1.15135 -3.276,1.49577 -4.8308,1.10465 -6.7257,3.58759 -8.0002,10.48259 -0.6562,3.55021 -0.8658,6.70021 -0.4657,7 0.4,0.29978 1.2256,1.44506 1.8346,2.54506 0.6089,1.1 1.9589,2.15046 3,2.33436 1.041,0.1839 2.3428,0.8589 2.8928,1.5 0.55,0.6411 2.35,1.83498 4,2.65305 4.8358,2.39762 13.8015,8.63738 16.4243,11.4307 1.3334,1.42004 2.8046,2.58189 3.2694,2.58189 2.1072,0 12.1096,8.76416 26.5424,23.2566 8.6305,8.66613 16.1195,16.54113 16.6424,17.5 0.5228,0.95887 1.2413,1.9684 1.5967,2.2434 0.3554,0.275 2.594,3.5375 4.9747,7.25 2.3807,3.7125 4.7018,6.75 5.1579,6.75 0.4562,0 0.5704,0.675 0.2538,1.5 -0.3166,0.825 -0.1458,1.5 0.3795,1.5 0.5253,0 1.7668,1.8 2.7589,4 0.992,2.2 2.1551,4 2.5845,4 0.4294,0 1.084,0.95556 1.4547,2.12347 0.3707,1.16791 1.6249,3.73523 2.7872,5.70514 1.1622,1.96992 2.226,4.32088 2.3639,5.22437 0.1379,0.90349 1.6136,4.52368 3.2794,8.04486 1.6658,3.52119 3.0318,7.30216 3.0357,8.40216 0,1.1 0.6659,3.26333 1.4712,4.80741 0.8054,1.54407 1.9697,6.71907 2.5874,11.5 0.6177,4.78092 1.383,9.36759 1.7008,10.19259 0.3177,0.825 0.7214,2.85 0.897,4.5 0.1757,1.65 0.7736,7.14476 1.3288,12.21059 0.5552,5.06582 1.0094,10.35332 1.0094,11.75 0,2.78357 -2.0448,3.39526 -3.8955,1.16529 -0.9935,-1.19707 -3.7265,-16.3895 -4.52,-25.12588 -0.1499,-1.65 -0.5347,-3.675 -0.8552,-4.5 -0.6938,-1.78577 -2.7651,-16.55951 -2.762,-19.70044 0,-1.21024 -0.441,-2.4743 -0.9826,-2.80902 -0.5416,-0.33471 -0.987,-1.81952 -0.9898,-3.29956 0,-1.48004 -1.1138,-4.49098 -2.4688,-6.69098 -1.355,-2.2 -2.4777,-4.6994 -2.4949,-5.55422 -0.017,-0.85482 -1.4471,-3.77982 -3.1775,-6.5 -4.3022,-6.76271 -7.2447,-11.78364 -11.3962,-19.44578 -5.719,-10.55519 -13.7967,-20.23318 -31.4575,-37.68962 -10.7805,-10.65573 -11.0445,-10.89383 -16.5,-14.88446 -2.2,-1.60926 -5.1204,-3.93842 -6.4898,-5.17592 -1.3694,-1.2375 -2.8619,-2.25 -3.3167,-2.25 -0.4548,0 -2.2594,-1.06888 -4.0102,-2.37528 -2.7634,-2.06196 -10.2247,-5.9998 -11.6833,-6.16605 -0.275,-0.0313 -1.5341,-0.40954 -2.798,-0.84045 -3.7669,-1.28426 -4.8909,0.65704 -5.1069,8.82069 -0.1743,6.58544 0.038,7.56186 1.854,8.53387 1.128,0.60367 2.0509,1.68589 2.0509,2.40493 0,0.71904 1.6476,2.16571 3.6614,3.21482 4.0962,2.13404 5.7575,3.50191 18.1048,14.90747 12.5824,11.62271 16.2338,15.42106 16.2338,16.88712 0,0.7166 0.9,2.11739 2,3.11288 1.1,0.99549 2,2.36348 2,3.03998 0,0.6765 1.125,1.96713 2.5,2.86806 1.375,0.90094 2.5,2.14862 2.5,2.77264 0,0.96916 7.3582,11.35358 9.0835,12.81932 0.9167,0.77881 7.9165,11.96417 7.9165,12.65028 0,0.33629 2.0732,5.39005 4.6072,11.23058 2.534,5.84053 4.9776,11.51914 5.4303,12.61914 1.2471,3.03009 2.7162,8.53758 3.4678,13 0.3705,2.2 1.1156,4.53491 1.6557,5.1887 2.3483,2.84228 5.6285,33.70523 3.7085,34.89193 -0.3468,0.21432 -0.9495,4.21968 -1.3395,8.90079 -0.3899,4.68112 -1.1187,8.76436 -1.6195,9.07387 -0.5008,0.30951 -0.9105,2.11119 -0.9105,4.00373 0,1.89254 -0.3494,3.44098 -0.7765,3.44098 -0.4271,0 -0.8359,1.9125 -0.9085,4.25 -0.2954,9.5112 -0.5814,10.75 -2.4817,10.75 -1.5563,0 -1.8449,-0.86873 -1.9098,-5.75 -0.042,-3.1625 -0.2416,-6.63468 -0.4432,-7.71596 -0.2017,-1.08128 0.1135,-2.54462 0.7005,-3.25187 0.5869,-0.70725 1.1405,-5.89789 1.2301,-11.53476 0.09,-5.63687 0.4508,-10.71472 0.8028,-11.28412 0.8815,-1.4263 1.0224,-18.90413 0.1993,-24.71329 -0.3702,-2.6125 -1.0734,-4.75 -1.5626,-4.75 -0.4893,0 -0.678,-1.16671 -0.4194,-2.59269 0.2586,-1.42598 0.083,-3.33848 -0.3909,-4.25 -0.4736,-0.91152 -1.3688,-4.72884 -1.9893,-8.48293 -0.6206,-3.7541 -1.5495,-7.5791 -2.0643,-8.5 -0.9081,-1.62444 -4.1864,-9.16554 -4.423,-10.17438 -0.065,-0.275 -1.7927,-3.95234 -3.8404,-8.17187 -2.0477,-4.21953 -3.7231,-8.10888 -3.7231,-8.64301 0,-0.53413 -0.675,-1.23016 -1.5,-1.54675 -0.825,-0.31658 -1.5,-1.24136 -1.5,-2.05507 0,-0.81371 -2.1909,-4.11206 -4.8686,-7.32968 -2.6777,-3.21761 -5.1726,-6.80808 -5.5442,-7.97881 -0.3716,-1.17074 -3.9182,-5.53764 -7.8814,-9.70422 -3.9632,-4.16658 -9.1819,-9.82448 -11.5971,-12.5731 -2.4153,-2.74862 -4.9869,-4.99749 -5.7149,-4.99749 -0.7279,0 -1.8051,-0.9 -2.3938,-2 -0.5887,-1.1 -1.5363,-2 -2.1058,-2 -0.5695,0 -3.1411,-1.69056 -5.7148,-3.75681 -11.3714,-9.1294 -12.1794,-8.84065 -12.1794,4.35252 0,12.57764 0.5792,13.93905 10,23.50327 7.8815,8.00149 13.8119,15.04135 17.1983,20.4157 1.3913,2.20807 3.2659,4.62567 4.1657,5.37244 0.8998,0.74678 1.636,2.1374 1.636,3.09029 0,0.95289 1.2375,2.81029 2.75,4.12756 2.6175,2.27966 8.25,12.331 8.25,14.7224 0,0.62015 1.3437,3.61114 2.9859,6.64664 2.7409,5.06606 4.2969,10.62225 7.1486,25.52599 0.5789,3.025 1.2949,6.175 1.5912,7 0.592,1.64817 1.1165,4.75102 1.6534,9.78135 0.1926,1.80474 0.6361,3.56724 0.9856,3.91667 0.3494,0.34942 0.6422,3.82281 0.6506,7.71865 0.01,3.89583 0.3863,7.66813 0.8396,8.38289 1.1329,1.78587 -0.7393,12.44964 -2.4201,13.78524 -0.8692,0.69066 -1.0175,1.43248 -0.4083,2.04174 0.6093,0.60926 0.6062,2.03176 -0.01,3.9152 -0.531,1.62704 -1.6994,5.65826 -2.5964,8.95826 -0.897,3.3 -1.8803,6.675 -2.185,7.5 -0.3048,0.825 -0.4535,1.92505 -0.3305,2.44456 0.123,0.51951 -0.2148,1.86951 -0.7506,3 -0.5358,1.13049 -1.2258,2.84294 -1.5335,3.80544 -0.7466,2.33626 -3.3347,2.23068 -4.0957,-0.16708 -0.3347,-1.0544 0.085,-4.90732 0.9326,-8.56206 0.8476,-3.65473 1.5411,-7.94048 1.5411,-9.5239 0,-1.58341 0.3567,-3.09937 0.7926,-3.36881 0.436,-0.26943 0.769,-2.99599 0.74,-6.05902 -0.029,-3.06302 0.1828,-5.56913 0.4707,-5.56913 1.0296,0 3.146,-10.64247 3.6789,-18.5 0.694,-10.23237 -1.1717,-28.93298 -3.1713,-31.7879 -0.831,-1.18641 -1.5109,-2.84994 -1.5109,-3.69673 0,-2.72811 -4.9842,-17.34036 -6.4776,-18.99056 -0.7953,-0.87884 -2.3415,-3.62221 -3.4359,-6.09639 -1.0945,-2.47418 -2.3492,-4.85773 -2.7882,-5.29679 -0.4391,-0.43907 -0.8143,-1.0983 -0.8338,-1.46496 -0.064,-1.21248 -2.7243,-5.62174 -5.1501,-8.53739 -1.3137,-1.5789 -3.0446,-4.44106 -3.8465,-6.36036 -1.3845,-3.31348 -19.0551,-21.74786 -26.4107,-27.5522 -4.3486,-3.43192 -5.4034,-3.40221 -10.0567,0.28328 -2.0833,1.65 -4.2697,3 -4.8587,3 -0.589,0 -1.4945,0.7875 -2.0122,1.75 -0.5177,0.9625 -3.796,4.71669 -7.2852,8.34264 -7.1869,7.46863 -10.9605,11.90736 -10.1232,11.90736 0.3132,0 -1.6334,2.43579 -4.3257,5.41286 -7.463,8.25247 -12.4852,15.37631 -16.276,23.08714 -1.8928,3.85 -3.5556,7.57295 -3.6952,8.27322 -0.1395,0.70027 -1.211,2.89586 -2.3812,4.87908 -1.1701,1.98323 -2.7552,6.36028 -3.5225,9.72678 -0.7673,3.36651 -1.9157,8.14592 -2.5521,10.62092 -0.79,3.07231 -0.942,9.41761 -0.4792,20 0.9792,22.38954 1.1418,24.15366 2.2916,24.86427 0.5713,0.3531 1.0263,1.76559 1.011,3.13887 -0.043,3.83424 2.4427,20.39758 3.1916,21.27024 1.0888,1.26867 -0.1073,6.72662 -1.4741,6.72662 -2.4973,0 -4.1755,-3.81485 -5.0587,-11.5 -0.7839,-6.81992 -2.5739,-16.84622 -3.618,-20.2649 -1.582,-5.17993 -0.6383,-40.51094 1.1415,-42.7351 0.8849,-1.10588 1.9423,-7.09143 2.2082,-12.5 0.095,-1.925 0.481,-3.95 0.8586,-4.5 0.3775,-0.55 0.9638,-2.82245 1.3028,-5.04989 0.6871,-4.51486 6.299,-16.45011 7.7347,-16.45011 0.5071,0 0.922,-0.6451 0.922,-1.43355 0,-1.38435 3.5786,-7.80803 8.9254,-16.0212 1.416,-2.17511 4.2621,-5.48997 6.3246,-7.36636 2.0625,-1.87639 3.75,-3.97593 3.75,-4.66565 0,-1.59312 13.9316,-16.08162 16.1917,-16.8389 0.9305,-0.31177 2.491,-1.82854 3.4678,-3.3706 0.9768,-1.54206 3.5053,-4.57148 5.6189,-6.73205 2.1136,-2.16057 4.0969,-5.19807 4.4072,-6.75 0.3104,-1.55193 0.8555,-2.82169 1.2114,-2.82169 0.3558,0 0.6925,-2.7 0.7481,-6 0.056,-3.3 -0.2605,-6 -0.7025,-6 -0.4419,0 -0.9473,-1.0125 -1.1231,-2.25 -0.2763,-1.94574 -0.8686,-2.22694 -4.38,-2.07948 -3.0153,0.12662 -6.329,1.5948 -12.8735,5.70386 -4.8472,3.04334 -9.458,6.4541 -10.2463,7.57948 -0.7882,1.12538 -1.9701,2.05864 -2.6264,2.07392 -1.3328,0.031 -17.3507,16.15284 -19.6933,19.82102 -0.825,1.29184 -3.2053,4.65949 -5.2896,7.48368 -2.0843,2.82418 -4.0456,6.15472 -4.3584,7.4012 -0.3129,1.24648 -0.8903,2.26632 -1.2832,2.26632 -0.3929,0 -1.711,1.9125 -2.9292,4.25 -1.2182,2.3375 -2.6175,4.925 -3.1094,5.75 -2.5932,4.34865 -7.0302,14.93278 -7.0302,16.77001 0,1.16158 -0.4574,2.39461 -1.0163,2.74007 -0.559,0.34546 -0.7864,1.00019 -0.5053,1.45494 0.281,0.45475 -0.1589,2.11116 -0.9776,3.6809 -0.8187,1.56974 -1.4913,3.55158 -1.4947,4.40408 0,0.8525 -0.4037,1.9775 -0.8895,2.5 -0.8274,0.88972 -2.2224,7.26395 -4.1471,18.95 -1.1981,7.27432 -1.1248,26.67347 0.1379,36.5 0.6008,4.675 1.1837,9.625 1.2954,11 0.1118,1.375 0.4786,3.175 0.8152,4 0.3367,0.825 0.8609,3.5949 1.1649,6.15533 0.4397,3.70264 0.2229,4.78196 -1.0596,5.27411 -2.5712,0.98667 -5.577,-2.41093 -4.942,-5.58615 0.2973,-1.48646 0.1307,-2.84681 -0.3702,-3.02298 -0.9711,-0.34151 -1.513,-4.90244 -2.6222,-22.07031 -0.3819,-5.9125 -1.0354,-10.75 -1.452,-10.75 -0.8227,0 -0.4894,-9.57512 0.6952,-19.97074 0.4092,-3.59109 0.6265,-7.34359 0.483,-8.33889 -0.1436,-0.99529 0.1631,-2.34529 0.6815,-3 0.5184,-0.6547 1.2303,-2.79061 1.5819,-4.74645 0.3517,-1.95585 1.5353,-5.31349 2.6304,-7.46144 1.0951,-2.14795 1.9911,-4.49132 1.9911,-5.20749 0,-0.71617 0.4236,-2.08352 0.9413,-3.03856 3.2428,-5.98174 10.0587,-20.84371 10.0587,-21.93274 0,-0.71703 0.4414,-1.30369 0.9809,-1.30369 0.5396,0 1.2633,-1.125 1.6084,-2.5 0.3451,-1.375 1.0287,-2.5 1.5191,-2.5 0.4904,0 0.8916,-0.4539 0.8916,-1.00866 0,-0.55476 1.35,-2.87228 3,-5.15004 1.65,-2.27776 3,-4.94172 3,-5.91991 0,-0.97819 0.5877,-2.37318 1.3059,-3.09996 1.3454,-1.36129 2.5332,-3.87589 2.3168,-4.90464 -0.2172,-1.03243 14.6834,-15.06785 20.8773,-19.66506 3.3,-2.44933 6.225,-4.77516 6.5,-5.16852 0.275,-0.39337 2.525,-2.09553 5,-3.78259 5.3922,-3.67556 18.144,-16.07635 18.4125,-17.9057 0.1048,-0.71371 1.4048,-2.42305 2.889,-3.79854 1.605,-1.4875 2.6985,-3.5599 2.6985,-5.11437 0,-1.43742 0.4877,-3.52474 1.0837,-4.63848 0.7953,-1.48597 0.7539,-2.82124 -0.1553,-5.01641 -1.1208,-2.7059 -1.5593,-2.93135 -4.5938,-2.36208 -5.2463,0.98422 -15.1461,6.03761 -19.5198,9.96403 -2.1878,1.96401 -4.2362,3.57093 -4.5519,3.57093 -0.3158,0 -1.9666,1.05556 -3.6685,2.34569 -1.7019,1.29013 -4.7779,3.13952 -6.8356,4.10976 -2.0576,0.97024 -3.5387,2.09172 -3.2912,2.49218 0.5292,0.85626 -14.0077,15.05237 -15.4137,15.05237 -0.5268,0 -2.4215,2.12734 -4.2104,4.72742 -3.737,5.4315 -3.8176,5.53494 -11.2654,14.44876 -3.0679,3.6719 -5.5781,6.92622 -5.5781,7.23181 0,0.3056 -1.5469,2.14846 -3.4375,4.09527 -3.1151,3.20776 -4.5043,5.34812 -7.9435,12.23894 -0.6154,1.23321 -1.4121,2.24571 -1.7702,2.25 -1.002,0.012 -4.8488,6.91992 -4.8488,8.70725 0,0.87183 -1.5375,5.2336 -3.4167,9.69284 -3.1272,7.4208 -5.5239,14.48529 -8.5181,25.10771 -0.6201,2.2 -1.5653,8.05 -2.1005,13 -2.6126,24.16589 -2.6884,24.5 -5.5553,24.5 -2.5749,0 -2.503,0.98221 -0.9524,-13 0.2134,-1.925 0.6851,-7.325 1.048,-12 0.363,-4.675 0.9285,-9.175 1.2568,-10 0.3282,-0.825 0.6827,-2.175 0.7878,-3 0.3181,-2.49687 5.3794,-17.32668 6.8259,-20 0.744,-1.375 1.6567,-3.85 2.0283,-5.5 0.6431,-2.85574 7.4634,-17.44626 8.6477,-18.5 0.3091,-0.275 1.1817,-2.075 1.939,-4 0.7574,-1.925 2.4611,-4.61565 3.7861,-5.97922 1.325,-1.36356 3.1046,-3.83856 3.9546,-5.5 0.8501,-1.66143 3.2833,-5.10823 5.4072,-7.65956 2.1239,-2.55133 3.8616,-4.85348 3.8616,-5.11588 0,-0.76225 8.8894,-10.35496 16.5,-17.80535 3.85,-3.76898 8.3503,-8.22233 10.0007,-9.89634 1.6504,-1.67401 3.5325,-3.04365 4.1826,-3.04365 0.65,0 1.4676,-0.9 1.8167,-2 0.3491,-1.1 1.0749,-2 1.6128,-2 0.538,0 2.0682,-1.09009 3.4005,-2.42241 1.3323,-1.33233 3.3459,-2.71551 4.4746,-3.07374 1.1286,-0.35823 4.072,-2.19314 6.5407,-4.07759 2.4688,-1.88444 4.8448,-3.42626 5.2801,-3.42626 0.4353,0 3.5837,-2.25 6.9964,-5 3.4127,-2.75 6.5402,-5.00485 6.9499,-5.01078 0.4098,-0.006 2.6472,-1.82997 4.9721,-4.05342 2.9127,-2.78559 4.6962,-5.62218 5.7356,-9.12236 1.8166,-6.11695 1.2181,-9.1822 -2.0867,-10.68797 -3.0174,-1.37482 -14.3423,-1.43047 -20.1133,-0.0988 -6.4124,1.47963 -22.9186,9.66472 -30.4974,15.123 -3.7041,2.6677 -7.0791,4.85166 -7.5,4.85325 -0.4209,0.002 -1.6307,1.2946 -2.6884,2.87337 -1.0576,1.57878 -2.9461,3.49131 -4.1966,4.25007 -1.2505,0.75877 -6.7314,5.76575 -12.1796,11.12663 -5.4483,5.36084 -10.3999,9.74701 -11.0037,9.74701 -0.6037,0 -1.5312,0.77466 -2.061,1.72146 -0.8935,1.5965 -4.2317,5.36997 -14.7877,16.7156 -2.2835,2.45425 -5.6585,6.62242 -7.5,9.26261 -1.8416,2.64018 -3.6037,5.02533 -3.9159,5.30033 -1.0422,0.91806 -7.9324,12.52746 -7.9324,13.36535 0,0.45425 -0.9679,2.18517 -2.1509,3.84649 -2.1432,3.00988 -9.0607,16.38704 -9.457,18.28816 -0.1147,0.55 -0.9309,2.6875 -1.8137,4.75 -0.8829,2.0625 -1.3191,3.75 -0.9694,3.75 0.3497,0 0.1653,0.56695 -0.4097,1.2599 -0.5751,0.69294 -1.3634,4.06794 -1.7517,7.5 -0.3883,3.43205 -1.0594,6.2401 -1.4915,6.2401 -1.994,0 -2.7884,28.40806 -1.0202,36.48463 2.7293,12.46608 12.1913,26.71225 19.6169,29.53545 1.3741,0.52245 2.794,1.74416 3.1553,2.71491 0.3612,0.97076 1.5064,2.93084 2.5447,4.35575 1.0383,1.4249 2.0275,4.46417 2.1983,6.75392 0.1708,2.28976 0.8415,4.80304 1.4906,5.58508 0.649,0.78203 1.0644,2.01777 0.9231,2.74607 -0.4002,2.0625 0.9724,5.93678 5.8842,16.60877 0.8314,1.80651 2.353,3.73485 3.3813,4.28518 1.0283,0.55033 1.8697,1.47894 1.8697,2.06357 0,1.94666 12.4449,13.62848 16.1623,15.17137 2.0143,0.836 4.5402,2.3978 5.613,3.47066 1.0729,1.07286 3.6964,2.27816 5.8301,2.67843 2.1336,0.40028 4.3249,1.00312 4.8694,1.33965 1.0525,0.6505 2.8941,0.91978 8.5252,1.24651 4.5151,0.26199 16.0431,2.96148 17.4298,4.08152 0.5886,0.47538 3.0253,2.44253 5.4148,4.37143 2.3895,1.92891 4.9444,3.5071 5.6774,3.5071 0.7331,0 2.1701,1.06439 3.1934,2.36532 1.0233,1.30093 2.8712,2.68608 4.1064,3.07812 1.2352,0.39205 3.0181,1.51063 3.962,2.48575 4.5027,4.65164 18.0407,6.64801 30.7162,4.52955 z m -11.0889,-18.6026 c -0.6423,-1.03929 -0.6309,-40.76861 0.023,-81.35614 0.1418,-8.8 0.3602,-27.25 0.4853,-41 0.2171,-23.86287 0.1412,-25.01347 -1.668,-25.2962 -1.92,-0.30003 -5.205,4.17726 -9.7557,13.2962 -1.0978,2.2 -2.2225,4.225 -2.4992,4.5 -1.4086,1.39977 -6.9969,11.30338 -6.9969,12.39978 0,0.69679 -0.3305,1.59737 -0.7344,2.00129 -1.0132,1.01319 -3.1233,11.32743 -3.2014,15.64893 -0.035,1.9525 -0.5762,4.06195 -1.2019,4.68768 -1.509,1.50897 -2.3627,40.26232 -0.887,40.26232 0.5636,0 1.0247,1.54844 1.0247,3.44098 0,1.89254 0.4214,3.7014 0.9364,4.01969 0.515,0.31829 0.9678,1.35735 1.0064,2.30902 0.1859,4.59434 1.8692,13.77079 3.7574,20.4832 2.0609,7.32668 0.8393,11.0575 -3.4587,10.56272 -2.2821,-0.26272 -2.794,-0.86027 -3.0549,-3.56561 -0.1723,-1.7875 -0.7207,-3.25 -1.2186,-3.25 -0.4979,0 -0.6462,-0.675 -0.3296,-1.5 0.3165,-0.825 0.2334,-2.2875 -0.1848,-3.25 -0.4182,-0.9625 -0.8295,-2.2 -0.9141,-2.75 -0.085,-0.55 -0.5212,-1.80691 -0.9702,-2.79313 -0.449,-0.98622 -0.5979,-2.01164 -0.3308,-2.27871 0.2671,-0.26707 -0.1792,-3.06016 -0.9918,-6.20687 -0.8125,-3.14671 -1.4447,-6.94414 -1.4048,-8.43873 0.04,-1.49459 -0.3583,-2.98365 -0.8847,-3.30902 -0.5265,-0.32537 -0.9572,-1.66346 -0.9572,-2.97354 0,-1.31008 -0.4078,-2.63397 -0.9061,-2.94198 -0.4984,-0.30801 -0.6709,-1.45956 -0.3834,-2.55902 0.2875,-1.09945 0.099,-1.999 -0.4186,-1.999 -0.9619,0 -0.8589,-11.10678 0.2134,-23 0.6144,-6.81543 3.1216,-17.7926 4.4537,-19.5 0.4291,-0.55 1.1005,-2.77412 1.492,-4.94249 1.1023,-6.10537 8.3734,-20.18269 18.624,-36.05751 6.8417,-10.5957 8.8634,-14.18127 9.3275,-16.54276 0.1574,-0.80148 1.2898,-3.70724 2.5163,-6.45724 1.2265,-2.75 2.0522,-6.2188 1.8349,-7.70844 -0.5157,-3.53506 3.0242,-8.19775 5.5019,-7.24696 1.053,0.40408 1.7939,1.81595 1.8694,3.56239 0.3672,8.49818 0.644,10.63781 1.7088,13.20811 0.6414,1.5483 1.1662,3.43425 1.1662,4.19098 0,0.75674 0.4573,1.65854 1.0163,2.004 0.559,0.34546 0.7362,1.08132 0.3939,1.63523 -0.3424,0.55391 0.7753,2.74643 2.4837,4.87226 1.7083,2.12584 3.1061,4.23505 3.1061,4.68714 0,0.45209 1.5663,3.14782 3.4807,5.9905 4.1004,6.08874 11.0822,20.9319 10.6587,22.66005 -0.1153,0.47039 0.2751,1.43928 0.8675,2.15308 1.3035,1.57065 2.9525,6.73165 3.6717,11.49166 0.2909,1.925 1.193,5.3 2.0046,7.5 1.5627,4.2354 1.9672,6.38824 3.0064,16 1.0359,9.58159 0.5827,21.56216 -0.8707,23.01479 -0.3746,0.37441 -0.439,1.31175 -0.143,2.08298 0.2959,0.77122 0.04,1.40223 -0.5689,1.40223 -0.6089,0 -1.1268,1.4625 -1.1509,3.25 -0.024,1.7875 -0.6924,5.05 -1.485,7.25 -0.7925,2.2 -1.4478,4.98594 -1.4561,6.19098 -0.01,1.20504 -0.4372,2.45194 -0.9533,2.77088 -0.5161,0.31894 -1.5038,3.9455 -2.195,8.05902 -0.6912,4.11351 -1.6493,7.47912 -2.1291,7.47912 -0.4798,0 -0.5983,0.86371 -0.2632,1.91935 0.7172,2.2598 -2.2418,3.60664 -5.5895,2.54414 -1.9177,-0.60868 -2.0519,-1.15132 -1.4383,-5.81739 0.3722,-2.83036 1.0638,-5.53843 1.5369,-6.01796 0.4731,-0.47952 0.62,-1.49775 0.3265,-2.26273 -0.2936,-0.76498 -0.074,-1.94765 0.4886,-2.62814 0.5623,-0.6805 1.3469,-3.03727 1.7435,-5.23727 0.3966,-2.2 1.1298,-4.79133 1.6292,-5.75851 1.808,-3.50096 3.0627,-15.5394 3.0999,-29.74149 0.044,-16.99048 -0.4923,-22.60087 -2.7267,-28.5 -0.4166,-1.1 -1.6575,-4.475 -2.7576,-7.5 -1.1,-3.025 -2.6116,-6.85 -3.359,-8.5 -0.7474,-1.65 -1.6614,-4.35 -2.0313,-6 -0.3698,-1.65 -1.0163,-3.45 -1.4367,-4 -0.4204,-0.55 -1.2833,-2.94085 -1.9176,-5.31299 -2.4154,-9.033 -6.6873,-13.97064 -9.5822,-11.07569 -1.6979,1.69791 -2.0624,15.23108 -2.8479,105.74604 -0.3598,41.45139 -0.3172,41.0867 -4.8032,41.12733 -0.93,0.008 -2.0091,-0.49942 -2.3979,-1.12855 z M 666.35716,694.115 c 3.575,-1.00884 7.625,-2.52111 9,-3.36058 9.2056,-5.62025 13.3348,-8.7297 16.5261,-12.44487 4.3575,-5.07277 14.1938,-23.30514 14.9797,-27.76605 1.0786,-6.12248 4.8038,-11.40699 14.7131,-20.87167 8.8476,-8.45063 16.9816,-18.09538 15.261,-18.09538 -0.3388,0 0.2457,-1.2375 1.299,-2.75 2.5305,-3.63361 4.2211,-8.77617 4.2211,-12.84021 0,-1.81046 0.3929,-3.53457 0.8731,-3.83134 1.233,-0.76206 1.3382,-13.02898 0.1817,-21.19519 -0.979,-6.91291 -7.3436,-21.65307 -10.9008,-25.24578 -1.7734,-1.79103 -4.7481,-6.08522 -7.0226,-10.13748 -2.1501,-3.83058 -3.4578,-11.57548 -3.6303,-21.5 -0.1497,-8.61673 -1.4494,-14.64094 -4.8938,-22.68162 -0.8673,-2.02489 -2.0338,-3.96395 -2.5922,-4.30902 -0.5583,-0.34506 -1.0151,-1.41804 -1.0151,-2.38438 0,-0.96634 -1.4625,-3.09371 -3.25,-4.7275 -1.7875,-1.63378 -4.7508,-4.67166 -6.5851,-6.75084 -2.9394,-3.33184 -10.8765,-9.07363 -15.1649,-10.97044 -0.825,-0.36491 -2.175,-1.0705 -3,-1.56797 -0.825,-0.49748 -3.525,-1.67921 -6,-2.62608 -8.3829,-3.20706 -9.4959,-3.66509 -12.3311,-5.07465 -1.557,-0.77413 -4.032,-1.42736 -5.5,-1.45163 -3.7114,-0.0614 -11.5968,-2.23619 -13.3334,-3.6774 -0.7939,-0.65891 -3.4442,-1.42878 -5.8895,-1.7108 -5.6025,-0.64617 -17.9617,-3.00167 -19.946,-3.80146 -2.3792,-0.95893 -13.6637,-1.85524 -24,-1.90627 -5.225,-0.0258 -10.0518,-0.501 -10.7261,-1.05602 -0.6874,-0.56573 -3.3236,-0.75043 -6,-0.42038 -2.6257,0.32381 -11.8086,0.76077 -20.4065,0.97104 -8.598,0.21026 -16.1789,0.71991 -16.8466,1.13255 -0.6677,0.41264 -2.633,0.84746 -4.3674,0.96628 -1.7344,0.11881 -4.7284,0.70132 -6.6534,1.29446 -1.925,0.59314 -5.9638,1.37145 -8.975,1.72957 -3.0113,0.35813 -5.9363,1.02392 -6.5,1.47954 -0.5638,0.45563 -3.05,1.05208 -5.525,1.32546 -2.475,0.27339 -6.3,1.02612 -8.5,1.67275 -2.2,0.64663 -6.025,1.41869 -8.5,1.7157 -2.475,0.297 -5.2104,1.16756 -6.0788,1.93456 -0.8683,0.767 -2.4433,1.40523 -3.5,1.41829 -1.0566,0.0131 -4.6212,1.13597 -7.9212,2.49536 -3.3,1.3594 -6.6874,2.47372 -7.5275,2.47627 -0.8401,0.003 -2.4151,0.6156 -3.5,1.36234 -1.0849,0.74674 -3.7725,1.91055 -5.9725,2.58625 -2.2,0.67569 -5.418,1.86472 -7.1511,2.64228 -1.7332,0.77757 -3.5611,1.41376 -4.0622,1.41376 -0.5011,0 -2.7738,0.9 -5.0506,2 -2.2767,1.1 -4.6112,2 -5.1878,2 -0.5766,0 -1.0483,0.45 -1.0483,1 0,0.55 -0.6118,1 -1.3596,1 -0.7477,0 -4.0884,1.40739 -7.4237,3.12753 -5.906,3.04599 -6.0815,3.25369 -6.7295,7.96572 -0.5878,4.27317 -0.3289,5.33851 2.2165,9.12247 l 2.8819,4.28428 7.9572,-0.09 c 10.0703,-0.11391 27.5885,-5.45699 35.2111,-10.73945 2.1195,-1.4688 4.1282,-2.67054 4.4638,-2.67054 0.3357,0 5.2615,-2.17347 10.9463,-4.82992 5.6848,-2.65646 11.911,-5.40187 13.836,-6.10092 1.925,-0.69905 4.4,-1.6678 5.5,-2.15279 1.1,-0.48498 5.0261,-1.34639 8.7248,-1.91424 3.6986,-0.56785 7.8988,-1.47885 9.3339,-2.02444 1.435,-0.5456 3.0411,-0.72504 3.569,-0.39875 0.5279,0.32628 1.6347,0.0332 2.4594,-0.6512 1.0186,-0.84542 5.8139,-1.27383 14.9551,-1.33609 7.4007,-0.0504 13.4562,-0.42915 13.4568,-0.84165 5e-4,-0.41251 2.251,-0.75001 5.001,-0.75001 2.75,0 5,0.38086 5,0.84634 0,0.46549 6.3386,1.11744 14.0858,1.44878 7.7472,0.33133 14.6097,1.01506 15.25,1.51939 0.6403,0.50434 4.3142,1.21556 8.1642,1.58049 6.3149,0.59859 13.5474,2.33643 19,4.56539 1.1,0.44966 4.925,1.56318 8.5,2.47448 5.4089,1.37877 22.8571,9.30266 30.5,13.85117 14.4873,8.62183 21.5551,14.73694 53.6773,46.44151 8.4649,8.3548 8.6396,8.62219 7.135,10.9185 -1.4596,2.22769 -5.3123,3.32247 -5.3123,1.50954 0,-0.46443 -2.1375,-3.36931 -4.75,-6.4553 -2.6125,-3.08599 -5.875,-7.06949 -7.25,-8.85222 -4.8298,-6.26198 -12.5687,-14.19034 -19.5,-19.97742 -3.85,-3.21443 -7.8963,-6.63783 -8.9918,-7.60754 -4.0314,-3.5685 -8.9508,-6.4488 -20.8398,-12.20166 -17.8504,-8.63744 -30.7906,-13.35185 -44.1684,-16.09146 -6.0705,-1.24316 -11.1408,-2.62997 -12.3519,-3.37842 -1.2437,-0.76867 -16.472,-2.81806 -19.9732,-2.68795 -1.2788,0.0475 -3.0788,-0.31132 -4,-0.79742 -2.5278,-1.33389 -41.6657,-1.50029 -49.1749,-0.20907 -6.3599,1.09358 -18.5289,4.8307 -24.5,7.52398 -1.65,0.74423 -6.825,2.82442 -11.5,4.62265 -4.675,1.79822 -11.875,5.06626 -16,7.2623 -12.2151,6.50301 -16.7248,8.69394 -17.8952,8.69394 -2.2913,0 -0.9858,2.80667 1.8523,3.98223 1.6264,0.67368 3.3139,1.23594 3.75,1.24947 0.4361,0.0135 2.8179,0.59765 5.2929,1.29806 8.3674,2.36793 11.7755,2.53377 19.6571,0.95647 7.2761,-1.45613 16.474,-4.39087 20.5793,-6.56614 0.9551,-0.50605 2.616,-0.92009 3.691,-0.92009 1.075,0 2.2327,-0.45 2.5726,-1 0.3399,-0.55 1.8665,-1 3.3923,-1 1.5259,0 3.1117,-0.3375 3.524,-0.75 1.3348,-1.33545 11.1826,-2.10643 34.424,-2.69507 14.5334,-0.36809 20.0901,-0.0983 39.6597,1.92544 9.7708,1.01043 17.3581,2.56906 21.6495,4.44735 2.3928,1.0473 5.934,2.14804 7.8695,2.44608 3.3915,0.52225 10.2952,3.8951 20.586,10.05738 4.077,2.44133 18.8529,13.57387 26.9856,20.33164 1.1499,0.95545 4.2999,3.29412 7,5.19704 2.7002,1.90293 5.0579,3.81107 5.2395,4.24031 0.1815,0.42925 3.3949,2.8367 7.1407,5.3499 4.9725,3.33614 6.6872,5.0416 6.3532,6.31878 -0.2969,1.1353 0.361,2.12224 1.8743,2.81172 2.3065,1.05092 10.6269,15.78733 9.9989,17.70938 -0.1665,0.50972 0.091,1.19301 0.5733,1.51841 0.4819,0.3254 2.9786,4.82297 5.5483,9.99459 4.9539,9.96995 4.9762,12.09705 0.1268,12.09705 -2.4692,0 -5.1852,-3.21484 -7.3923,-8.75 -0.7128,-1.7875 -1.6556,-3.25 -2.0952,-3.25 -0.4396,0 -1.0875,-1.31241 -1.4398,-2.91646 -0.3523,-1.60405 -1.288,-3.16493 -2.0794,-3.46862 -0.7914,-0.30368 -1.4389,-1.46627 -1.4389,-2.58354 0,-1.11726 -0.406,-2.03138 -0.9022,-2.03138 -0.4962,0 -1.4148,-1.2375 -2.0414,-2.75 -0.6266,-1.5125 -2.4143,-5.09379 -3.9726,-7.95843 -1.7175,-3.15724 -2.404,-5.35151 -1.7433,-5.57175 1.0994,-0.36645 -5.1394,-6.63604 -6.6576,-6.69051 -0.4494,-0.0161 -7.3465,-5.76681 -15.3269,-12.77931 -7.9803,-7.0125 -15.3719,-13.23986 -16.4256,-13.83857 -1.0537,-0.59872 -2.7066,-1.96942 -3.6731,-3.04601 -2.6251,-2.92405 -16.8561,-9.91677 -24.2573,-11.91939 -3.575,-0.96731 -6.95,-2.07972 -7.5,-2.472 -0.55,-0.39229 -2.8,-1.03719 -5,-1.43313 -2.2,-0.39593 -4.4536,-1.09428 -5.0079,-1.55189 -2.2062,-1.82125 -10.4297,-4.13123 -18.4921,-5.19445 -7.1412,-0.94172 -24.9887,-1.34045 -43.8431,-0.97949 -4.6337,0.0887 -14.3525,1.85551 -17.6569,3.20987 -1.1,0.45086 -5.15,1.04762 -9,1.32613 -6.7642,0.48934 -22.908,4.88197 -23.9119,6.50628 -1.1394,1.84364 0.8227,5.06152 3.7571,6.16169 1.7351,0.65054 4.0548,1.55238 5.1548,2.00408 3.8781,1.59251 7.1415,1.86862 21.5,1.81905 7.975,-0.0275 17.5771,0.0189 21.3381,0.10321 3.8463,0.0862 7.4338,-0.34115 8.1998,-0.97681 1.7726,-1.47113 13.7319,-0.71508 22.9621,1.45162 3.85,0.90375 10.0058,2.19726 13.6796,2.87446 3.6738,0.67719 7.0113,1.56293 7.4167,1.96831 0.4053,0.40537 1.4495,0.75231 2.3204,0.77097 0.8708,0.0187 3.3833,0.90339 5.5833,1.96607 2.2,1.06268 4.3693,1.94741 4.8206,1.96607 1.8146,0.075 21.6794,10.25954 21.6794,11.11481 0,0.50552 0.6131,0.91912 1.3625,0.91912 0.7494,0 2.9795,1.2375 4.9558,2.75 1.9764,1.5125 8.0876,6.125 13.5806,10.25 5.4929,4.125 10.2694,8.29175 10.6145,9.25944 0.345,0.96769 2.3957,3.1805 4.557,4.91736 2.1613,1.73686 3.9296,3.83237 3.9296,4.65668 0,0.82431 0.6975,2.21149 1.5501,3.08263 1.549,1.58274 12.8723,18.85191 21.748,33.16782 4.8212,7.77644 5.7687,11.29271 3.2983,12.24068 -3.9145,1.50217 -5.5213,-0.57732 -15.0334,-19.45694 -5.2442,-10.40855 -10.6662,-20.14473 -12.049,-21.63594 -1.3827,-1.49121 -2.514,-3.06461 -2.514,-3.49644 0,-0.7918 -9.5047,-10.10621 -15.0363,-14.73529 -1.6431,-1.375 -4.2351,-3.625 -5.7601,-5 -5.1334,-4.62857 -7.9212,-6.28615 -25.2036,-14.98575 -14.5921,-7.34538 -20.5295,-10.01425 -22.2785,-10.01425 -0.7635,0 -1.702,-0.31386 -2.0856,-0.69746 -0.7952,-0.79516 -10.8135,-3.67316 -21.1359,-6.07176 -9.6286,-2.23738 -39.55,-2.39741 -44.25,-0.23667 -4.9165,2.26025 -4.1155,4.39983 3,8.013 8.17,4.14867 10.2258,5.31299 12.0413,6.8197 0.8275,0.6868 2.338,1.43995 3.3567,1.67366 1.0186,0.23372 4.4738,1.06562 7.6782,1.84868 3.2045,0.78305 6.6768,1.20131 7.7163,0.92947 1.0396,-0.27185 4.2678,0.024 7.1738,0.65745 5.1497,1.12252 7.508,1.69152 16.7837,4.04956 8.3332,2.11846 27.3821,12.20417 33,17.47238 1.925,1.80517 4.3242,3.71653 5.3316,4.24747 2.0959,1.10464 16.6061,14.99401 18.1468,17.37027 0.5619,0.86666 3.6091,5.43566 6.7716,10.15333 3.1625,4.71767 5.75,9.29609 5.75,10.17425 0,0.87817 0.4012,1.59667 0.8916,1.59667 0.4904,0 1.2004,1.2375 1.5779,2.75 0.3775,1.5125 1.3568,3.49415 2.1762,4.40367 1.4058,1.56035 2.3051,4.48909 6.0446,19.68551 1.4435,5.8662 1.4341,6.46311 -0.1263,8 -1.5723,1.5486 -1.7835,1.52966 -3.1251,-0.28031 -0.7914,-1.06762 -1.4389,-3.67747 -1.4389,-5.79966 0,-2.12219 -0.6571,-5.12913 -1.4601,-6.68209 -0.8031,-1.55295 -1.2599,-3.0238 -1.0152,-3.26855 0.2448,-0.24475 -0.4482,-2.19695 -1.5398,-4.33823 -1.0917,-2.14127 -1.9849,-4.44317 -1.9849,-5.11534 0,-1.42547 -4.0996,-8.41608 -11.9287,-20.34091 -5.2386,-7.97912 -30.9986,-35.29901 -32.8252,-34.81297 -0.4104,0.10919 -2.7198,-0.78012 -5.1321,-1.97626 -2.4123,-1.19613 -4.7437,-1.95371 -5.1809,-1.68351 -0.4372,0.2702 -1.0776,0.0339 -1.423,-0.52504 -0.3455,-0.55897 -1.6141,-1.01408 -2.8191,-1.01136 -1.2051,0.003 -4.216,-0.63024 -6.691,-1.40657 -2.475,-0.77633 -7.2,-2.15712 -10.5,-3.06843 -3.3,-0.9113 -7.3203,-2.07052 -8.9341,-2.57604 -1.6137,-0.50552 -3.1094,-0.74377 -3.3237,-0.52945 -1.1831,1.18305 4.2304,7.64383 17.2048,20.53349 8.0041,7.95187 14.553,14.87706 14.553,15.3893 0,0.51225 5.5829,6.60617 12.4065,13.54205 14.5288,14.76793 16.7567,17.41528 18.6075,22.1107 0.7587,1.925 2.9908,6.2 4.9601,9.5 1.9693,3.3 4.1211,7.2375 4.7818,8.75 0.6606,1.5125 1.6609,2.75 2.2226,2.75 0.5618,0 1.0215,0.97707 1.0215,2.17126 0,1.19419 0.6384,2.88169 1.4186,3.75 1.1603,1.2913 10.5814,18.93783 10.5814,19.81993 0,0.14234 -0.9,0.25881 -2,0.25881 -1.1,0 -2,-0.46822 -2,-1.04049 0,-0.57227 -0.8441,-2.25977 -1.8758,-3.75 -1.0317,-1.49023 -4.0471,-6.08451 -6.701,-10.20951 -2.6538,-4.125 -5.0722,-7.72626 -5.3742,-8.0028 -0.3019,-0.27654 -1.6354,-2.52654 -2.9632,-5 -1.3278,-2.47346 -4.1403,-6.84049 -6.25,-9.7045 -2.1097,-2.86402 -3.8358,-5.67652 -3.8358,-6.25 0,-0.57349 -0.4143,-1.0427 -0.9206,-1.0427 -0.5063,0 -1.2169,-1.34944 -1.5791,-2.99876 -0.3623,-1.64931 -1.4127,-3.56181 -2.3344,-4.25 -0.9216,-0.68818 -2.5735,-2.9774 -3.6708,-5.08714 -1.0973,-2.10975 -2.8951,-4.30818 -3.9951,-4.8854 -1.1,-0.57723 -7.729,-6.83857 -14.7311,-13.9141 -7.0021,-7.07553 -13.011,-12.8646 -13.3531,-12.8646 -0.6031,0 -10.3287,-9.75488 -21.2698,-21.33387 -5.4573,-5.77548 -6.8953,-6.5168 -8.8499,-4.56223 -1.1864,1.18641 0.5029,7.9223 3.2744,13.05587 0.7898,1.46288 1.1836,3.31731 0.8753,4.12096 -0.3102,0.80819 0.1353,1.72828 0.9967,2.05884 0.8566,0.32871 1.5575,1.5324 1.5575,2.67485 0,2.98898 12.9311,29.01722 15.6832,31.56778 1.2742,1.18093 2.3168,2.48078 2.3168,2.88857 0,0.9033 6.1831,8.89633 7.2425,9.36256 0.4166,0.18334 0.7575,0.91847 0.7575,1.63364 0,0.71517 1.9125,2.97736 4.25,5.02709 5.5983,4.90908 13.7279,12.216 21.75,19.54891 3.575,3.26787 8.4629,7.70642 10.8621,9.86344 4.4503,4.00122 4.8563,6.77317 0.8037,5.48821 -2.1494,-0.68152 -9.7109,-5.94133 -12.7497,-8.86879 -0.8711,-0.83921 -1.9537,-1.52583 -2.4056,-1.52583 -0.452,0 -2.2967,-1.125 -4.0994,-2.5 -1.8027,-1.375 -3.492,-2.5 -3.7541,-2.5 -0.6993,0 -14.9101,-14.71645 -19.6129,-20.31082 -2.2243,-2.64595 -4.0441,-5.46143 -4.0441,-6.25661 0,-0.79519 -1.1157,-2.41587 -2.4793,-3.60151 -1.3636,-1.18564 -3.2305,-4.12274 -4.1487,-6.52688 -0.9181,-2.40415 -2.1649,-4.6936 -2.7707,-5.08768 -0.6057,-0.39407 -2.9013,-4.20019 -5.1013,-8.45803 -2.2,-4.25783 -4.3018,-7.74533 -4.6706,-7.75 -0.3688,-0.005 -0.9628,-1.33918 -1.32,-2.96561 -0.3572,-1.62643 -1.5495,-4.81985 -2.6494,-7.0965 -1.1,-2.27664 -1.751,-4.78796 -1.4468,-5.58071 0.3042,-0.79275 -0.1118,-1.69648 -0.9243,-2.00829 -0.8126,-0.31181 -1.2163,-0.98949 -0.8971,-1.50595 0.3192,-0.51646 0.1249,-1.48779 -0.4317,-2.15851 -0.5567,-0.67072 -1.5693,-3.46351 -2.2503,-6.2062 -0.681,-2.74268 -1.9003,-6.01324 -2.7095,-7.26791 -0.8092,-1.25466 -1.1971,-2.55531 -0.8621,-2.89031 1.3114,-1.31146 -2.8932,-6.27279 -6.7598,-7.97639 -2.2431,-0.98829 -4.3034,-2.08633 -4.5784,-2.44009 -0.275,-0.35376 -3.0785,-1.8571 -6.23,-3.34077 -3.1516,-1.48366 -5.9906,-3.11915 -6.3091,-3.6344 -0.7197,-1.16457 -2.5293,-1.17961 -4.3346,-0.036 -1.1404,0.72237 -1.0006,2.02507 0.823,7.66997 1.2083,3.73989 2.8389,7.71656 3.6238,8.83703 0.7848,1.12047 1.4269,2.81216 1.4269,3.75932 0,0.94715 1.5642,5.15446 3.476,9.34959 1.9117,4.19513 3.3894,7.93256 3.2837,8.3054 -0.1057,0.37285 1.068,3.1529 2.6083,6.1779 1.5403,3.025 2.7608,5.61339 2.7121,5.75197 -0.049,0.13859 0.853,2.25495 2.0037,4.70303 1.1508,2.44808 1.8011,4.92219 1.4452,5.49803 -0.3559,0.57583 -0.1705,1.04697 0.412,1.04697 0.5824,0 1.059,0.61284 1.059,1.36186 0,2.89001 8.2768,17.32554 12.0424,21.00322 2.1767,2.1258 3.9576,4.32913 3.9576,4.8963 0,0.56716 1.9125,3.17186 4.25,5.78821 11.0458,12.3635 15.2761,17.26619 15.5758,18.05138 0.1791,0.46951 2.8791,3.56669 6,6.88263 9.6725,10.27725 12.6779,13.85142 12.5742,14.95374 -0.2539,2.69764 -0.5105,3.06201 -2.15,3.05232 -0.9625,-0.006 -2.65,-1.17842 -3.75,-2.60609 -1.1,-1.42767 -3.6875,-4.41963 -5.75,-6.6488 -2.0625,-2.22917 -3.75,-4.4326 -3.75,-4.89651 0,-0.46391 -1.8,-2.46966 -4,-4.45722 -2.2,-1.98757 -4,-4.07844 -4,-4.64638 0,-0.56794 -1.5662,-2.55367 -3.4804,-4.41273 -1.9142,-1.85905 -3.9276,-4.21577 -4.4742,-5.23715 -1.1428,-2.13534 -3.7736,-5.37678 -9.7954,-12.06901 -2.3375,-2.59775 -4.25,-5.07197 -4.25,-5.49827 0,-0.42631 -1.5976,-2.62964 -3.5502,-4.8963 -4.9348,-5.72846 -4.7597,-5.45843 -7.8638,-12.12818 -5.0724,-10.89882 -6.3892,-13.9343 -8.6728,-19.99302 -1.2438,-3.3 -2.8241,-6.83916 -3.5119,-7.8648 -0.6877,-1.02564 -1.0287,-2.44263 -0.7577,-3.14885 0.271,-0.70623 0.012,-1.58112 -0.5754,-1.94422 -0.5875,-0.36309 -1.0723,-1.64611 -1.0774,-2.85115 0,-1.20504 -1.1159,-4.44098 -2.4687,-7.19098 -1.3528,-2.75 -2.4736,-5.71836 -2.4908,-6.59636 -0.031,-1.57434 -2.2676,-6.98098 -4.0971,-9.90364 -0.5165,-0.825 -1.3382,-2.4 -1.8261,-3.5 -0.4879,-1.1 -2.7368,-4.09405 -4.9976,-6.65345 -2.2608,-2.5594 -4.1276,-5.0344 -4.1485,-5.5 -0.066,-1.48017 -10.3326,-8.04941 -13.7538,-8.80082 -5.3759,-1.18074 -6.2261,0.32087 -5.5456,9.79493 0.3223,4.48764 1.1628,9.50934 1.8679,11.15934 0.705,1.65 1.5667,4.27365 1.9149,5.83032 0.3481,1.55668 1.9209,5.60668 3.4949,9 1.574,3.39333 3.1865,7.29468 3.5832,8.66968 0.3967,1.375 1.2219,3.12349 1.8338,3.88554 0.6119,0.76204 1.1672,1.88704 1.2339,2.5 0.2503,2.29765 1.8587,6.2605 4.9095,12.09622 9.6016,18.36587 13.8727,26.05379 14.6402,26.35157 0.4725,0.18334 0.8591,0.74194 0.8591,1.24135 0,0.49941 1.575,2.97138 3.5,5.49326 1.925,2.52189 3.5,5.01978 3.5,5.55086 0,0.53109 0.4563,1.50912 1.0141,2.17341 2.0392,2.42874 5.9859,8.82128 5.9859,9.6955 0,0.49438 1.0125,1.60806 2.25,2.47484 1.2375,0.86678 2.2526,1.9048 2.2558,2.30671 0.013,1.65287 4.5885,7.94621 7.9232,10.89853 1.964,1.73885 3.571,3.60804 3.571,4.15376 0,0.54572 2.2678,2.89095 5.0396,5.21163 5.347,4.47679 8.4574,9.22912 7.5641,11.55708 -1.1603,3.02385 -4.1737,1.2837 -7.9638,-4.59901 -2.123,-3.29523 -4.149,-5.99129 -4.5021,-5.99129 -0.3532,0 -2.8165,-2.025 -5.4741,-4.5 -5.1158,-4.76434 -7.0968,-5.62436 -6.3342,-2.75 0.2553,0.9625 1.028,4.675 1.717,8.25 0.6891,3.575 1.6586,7.02392 2.1545,7.66426 0.4958,0.64035 0.7796,2.21535 0.6306,3.5 -0.3726,3.21166 1.9551,12.93484 3.6304,15.16479 1.0414,1.38628 1.8175,1.59172 3.206,0.84869 1.0076,-0.53919 4.082,-1.31533 6.832,-1.72475 6.2859,-0.93585 14.7493,-3.81019 18.2887,-6.21119 1.4912,-1.01162 3.8363,-2.40188 5.2113,-3.08946 1.375,-0.68758 3.7486,-1.933 5.2746,-2.7676 2.5761,-1.40888 3.0411,-1.35565 6.5,0.74406 2.049,1.24383 4.089,2.8554 4.5334,3.58125 0.4444,0.72586 3.3694,2.67341 6.5,4.32789 3.1306,1.65448 7.267,3.95365 9.192,5.10926 1.925,1.15561 5.75,2.80321 8.5,3.66134 2.75,0.85813 5.225,1.63379 5.5,1.7237 0.275,0.0899 2.4225,0.51604 4.7721,0.94696 2.3497,0.43093 4.4655,1.09627 4.7018,1.47854 0.8859,1.43349 20.0507,0.40814 26.5261,-1.41919 z m -508,-7.13512 c 9.0623,-1.89285 13.4267,-3.87607 22.9166,-10.41355 3.9839,-2.74443 7.6574,-4.98988 8.1634,-4.98988 0.506,0 0.92,-0.45 0.92,-1 0,-0.55 0.6199,-1 1.3775,-1 0.7577,0 1.9735,-0.718 2.7018,-1.59555 1.7446,-2.10214 7.7005,-1.1911 12.7224,1.94606 3.3377,2.08507 11.4378,6.30601 19.817,10.32657 4.6937,2.25219 7.3966,1.40403 9.6975,-3.04312 2.0622,-3.9856 4.8674,-13.79276 4.8295,-16.88396 -0.012,-0.9625 0.3518,-1.75 0.808,-1.75 0.7833,0 2.1158,-3.70323 2.5188,-7 0.1008,-0.825 0.5062,-3.1875 0.9007,-5.25 0.4463,-2.33263 0.3355,-3.75 -0.2931,-3.75 -1.1943,0 -7.4844,5.31202 -11.0595,9.33981 -5.6005,6.3097 -13.4535,13.66019 -14.5941,13.66019 -1.8558,0 -2.617,-3.06278 -1.1938,-4.80315 0.697,-0.85232 3.4048,-3.55686 6.0173,-6.0101 2.6125,-2.45324 4.75,-4.8683 4.75,-5.36681 0,-1.04031 11.895,-12.81994 12.9455,-12.81994 1.1126,0 8.9374,-9.05588 9.5834,-11.09097 0.3235,-1.01939 2.3619,-3.37162 4.5297,-5.22717 2.1677,-1.85554 3.9414,-3.86753 3.9414,-4.47108 0,-0.60356 0.7875,-1.68539 1.75,-2.40408 0.9625,-0.71868 2.8387,-3.5567 4.1694,-6.3067 1.3308,-2.75 2.714,-5.225 3.0739,-5.5 1.7044,-1.30222 12.0676,-22.7415 14.0178,-29 0.7712,-2.475 1.9843,-4.85986 2.6956,-5.29969 0.7113,-0.43983 1.2933,-1.28461 1.2933,-1.87729 0,-0.59267 1.388,-4.05781 3.0845,-7.70031 1.6965,-3.64249 4.3364,-9.32271 5.8665,-12.62271 1.53,-3.3 3.109,-7.575 3.5089,-9.5 0.3998,-1.925 1.8099,-5.83463 3.1335,-8.68807 2.331,-5.02514 3.1892,-10.3491 1.6566,-10.27631 -2.9009,0.13778 -12.5226,3.05632 -16.25,4.92912 -8.1998,4.11987 -10.5338,7.45423 -15.0747,21.53526 -1.2415,3.85 -2.5806,7.45 -2.9758,8 -0.3952,0.55 -1.0396,2.575 -1.4321,4.5 -0.7354,3.6074 -4.081,11.35216 -6.0478,14 -0.6129,0.825 -1.7441,3.49688 -2.5139,5.9375 -0.7698,2.44063 -2.348,5.83511 -3.5073,7.54331 -1.1592,1.70819 -3.3633,5.78631 -4.898,9.0625 -1.5347,3.27618 -4.3114,8.09523 -6.1704,10.709 -1.859,2.61378 -3.38,4.98017 -3.38,5.25866 0,0.27849 -1.2375,1.89523 -2.75,3.59275 -1.5125,1.69752 -2.7535,3.38113 -2.7578,3.74134 0,0.36022 -3.7893,4.25494 -8.4111,8.65494 -4.6218,4.4 -9.5683,9.35 -10.9922,11 -4.4028,5.10192 -20.3645,20.5 -21.2503,20.5 -2.8607,0 3.9846,-10.77856 9.4035,-14.8067 0.9668,-0.71869 1.7579,-1.68619 1.7579,-2.15 0,-0.46382 1.4625,-2.37207 3.25,-4.24056 1.7875,-1.86849 5.275,-5.73073 7.75,-8.58275 2.475,-2.85201 6.4125,-7.25038 8.75,-9.77415 2.3375,-2.52377 4.25,-4.90751 4.25,-5.29721 0,-0.3897 1.5758,-2.19486 3.5017,-4.01148 1.926,-1.81662 3.7666,-4.35808 4.0903,-5.64769 0.3237,-1.28961 1.1104,-2.5559 1.7482,-2.81397 0.6379,-0.25808 3.1848,-4.45314 5.6598,-9.32236 2.475,-4.86922 4.725,-9.07847 5,-9.35389 1.4995,-1.50176 4,-7.49064 4,-9.58028 0,-1.33043 0.417,-2.41896 0.9267,-2.41896 1.024,0 4.0733,-5.61462 4.0733,-7.5 0,-0.656 0.6963,-2.58861 1.5475,-4.2947 0.8511,-1.70608 1.7269,-4.03384 1.9462,-5.17279 0.2194,-1.13895 1.548,-5.40028 2.9526,-9.46963 3.0368,-8.79847 3.0149,-8.56288 0.7949,-8.56288 -2.2667,0 -19.2535,8.64867 -21.3115,10.85053 -2.1929,2.34617 -6.5867,10.15184 -7.4019,13.14947 -0.9175,3.37418 -4.8456,11.41901 -5.7778,11.83333 -0.4125,0.18334 -0.75,1.09577 -0.75,2.02764 0,1.70928 -4.6969,11.35139 -11.6186,23.85136 -3.726,6.72899 -14.109,20.68517 -19.8814,26.72341 -1.65,1.72599 -4.125,4.51712 -5.5,6.2025 -1.375,1.68539 -3.0008,3.24376 -3.6128,3.46305 -1.9967,0.71544 -7.5718,5.30848 -11.7117,9.64871 -2.2296,2.3375 -4.5595,4.25 -5.1776,4.25 -0.618,0 -2.4454,1.38098 -4.0608,3.06884 -1.6154,1.68786 -5.2939,4.88819 -8.1745,7.11184 -5.3558,4.13452 -8.2626,4.49243 -8.2626,1.01737 0,-2.08374 2.1122,-4.25833 13,-13.38385 4.125,-3.45734 7.8598,-6.8549 8.2997,-7.55013 0.4398,-0.69524 1.4523,-1.26407 2.25,-1.26407 0.7976,0 1.4687,-0.3375 1.4913,-0.75 0.023,-0.4125 2.7503,-2.775 6.0616,-5.25 3.3114,-2.475 7.3456,-5.85 8.965,-7.5 7.7386,-7.88472 10.9324,-11.40144 10.9324,-12.03762 0,-0.38194 1.575,-2.84001 3.5,-5.46238 1.925,-2.62237 3.5115,-5.15766 3.5256,-5.63398 0.014,-0.47631 1.5891,-3.32017 3.5,-6.31968 1.9109,-2.99952 3.4744,-6.06939 3.4744,-6.82193 0,-0.75255 1.2286,-3.46481 2.7303,-6.02724 1.5017,-2.56243 2.8794,-5.79256 3.0615,-7.17807 0.1821,-1.3855 0.7971,-2.68368 1.3668,-2.88483 1.5251,-0.53853 6.8397,-12.23775 6.8406,-15.05858 l 8e-4,-2.42432 -2.3145,2.17432 c -1.2729,1.19587 -2.7623,2.17431 -3.3097,2.17431 -0.5475,0 -3.2764,1.9125 -6.0643,4.25 -4.6737,3.91854 -7.2975,5.70572 -14.3142,9.75 -1.4313,0.825 -3.509,2.4 -4.617,3.5 -5.2448,5.2068 -12.5654,11.5 -13.3774,11.5 -1.1966,0 -14.9078,16.15653 -17.6776,20.83035 -1.1961,2.01831 -2.6606,4.21523 -3.2544,4.88206 -0.5937,0.66682 -1.6173,2.46682 -2.2745,4 -0.6572,1.53317 -3.9635,6.61823 -7.3472,11.30013 -3.3837,4.6819 -6.9093,9.8569 -7.8345,11.5 -3.549,6.30271 -8.2594,13.65386 -9.1671,14.30628 -0.5212,0.37465 -1.4996,1.58118 -2.1742,2.68118 -6.5509,10.68158 -7.934,12.44432 -9.7734,12.45633 -3.3653,0.022 -4.8622,-1.41089 -3.0474,-2.91705 0.8511,-0.70629 1.5474,-1.83655 1.5474,-2.51169 0,-0.67513 1.239,-2.98253 2.7534,-5.12755 1.5143,-2.14502 3.5512,-5.47504 4.5264,-7.40004 0.9752,-1.925 3.5655,-6.425 5.7562,-10 2.1907,-3.575 4.2936,-7.175 4.6731,-8 0.3795,-0.825 1.0661,-1.95 1.5257,-2.5 1.8105,-2.16646 7.278,-11.20151 8.9259,-14.75 0.9578,-2.0625 2.161,-3.75 2.6738,-3.75 0.5127,0 1.1966,-0.7875 1.5198,-1.75 0.8932,-2.66021 2.973,-5.64452 4.6457,-6.66621 0.825,-0.50391 4.9073,-4.21641 9.0718,-8.25 4.1645,-4.03358 7.8603,-7.33379 8.2129,-7.33379 0.3526,0 2.8289,-2.2817 5.503,-5.07044 2.674,-2.78874 5.9532,-5.60923 7.2871,-6.26775 1.3338,-0.65853 2.8694,-2.20183 3.4123,-3.42956 0.5429,-1.22774 1.344,-2.23225 1.7801,-2.23225 2.1134,0 25.701,-22.25396 25.724,-24.26956 0.012,-1.01135 -3.058,-0.41478 -11.537,2.24227 -3.8248,1.19856 -7.6292,2.35422 -8.4542,2.56813 -0.825,0.21392 -4.425,1.14776 -8,2.07521 -3.575,0.92744 -7.918,2.29324 -9.6511,3.03511 -1.7332,0.74186 -3.6518,1.34884 -4.2636,1.34884 -0.6119,0 -1.8938,0.4038 -2.8489,0.89734 -0.955,0.49354 -3.6489,1.68689 -5.9864,2.65188 -2.3375,0.96499 -4.25,2.13619 -4.25,2.60265 0,0.46647 -0.5162,0.84813 -1.147,0.84813 -0.6309,0 -2.9934,1.49559 -5.25,3.32354 -2.2567,1.82795 -4.8905,3.61382 -5.853,3.96861 -0.9625,0.3548 -1.75,1.36309 -1.75,2.24067 0,0.87757 -3.4875,5.54935 -7.75,10.38173 -7.341,8.32248 -11.9783,15.59022 -17.9202,28.08545 -1.4385,3.025 -3.4511,7.23003 -4.4726,9.3445 -1.0215,2.11448 -1.8572,4.29647 -1.8572,4.84887 0,0.55241 -0.7126,2.64738 -1.5834,4.6555 -0.8709,2.00812 -2.2136,5.11363 -2.9839,6.90113 -1.4542,3.37483 -3.4699,4.15283 -5.1818,2 -1.04,-1.30776 -0.9996,-1.75512 0.7446,-8.25 0.5908,-2.2 1.2148,-4.95093 1.3868,-6.11319 0.1719,-1.16225 1.0563,-3.17488 1.9651,-4.4725 0.9089,-1.29763 1.6526,-2.93229 1.6526,-3.63259 0,-4.22176 12.284,-26.14412 16.5142,-29.47156 1.2601,-0.99117 3.4287,-3.71644 4.8192,-6.05615 3.179,-5.34927 10.1648,-11.98356 14.4166,-13.69129 1.7875,-0.71795 3.25,-1.64949 3.25,-2.0701 0,-0.4206 1.6875,-1.55589 3.75,-2.52286 2.0625,-0.96696 4.1098,-2.36824 4.5497,-3.11394 0.4398,-0.7457 1.3152,-1.35582 1.9453,-1.35582 0.63,0 2.2952,-1.04274 3.7003,-2.3172 2.5213,-2.28693 4.7727,-3.32277 16.5547,-7.61662 3.3,-1.20267 7.35,-2.80375 9,-3.55798 2.7231,-1.24474 12.7278,-2.84564 24.5,-3.92036 9.9397,-0.90742 16.4782,-2.90344 28.75,-8.77657 5.6375,-2.69804 10.25,-5.31849 10.25,-5.82322 0,-1.87131 -4.0645,-2.98805 -10.8753,-2.98805 -3.8537,0 -7.2848,-0.45 -7.6247,-1 -0.7746,-1.25325 -28.9688,-1.35082 -31.3158,-0.10837 -0.9263,0.49039 -3.7183,1.16401 -6.2044,1.49691 -2.4861,0.33291 -6.7611,1.22233 -9.5,1.97648 -13.9354,3.83711 -16.3586,4.58421 -20.9798,6.46833 -2.75,1.1212 -7.475,3.40221 -10.5,5.06892 -3.025,1.6667 -6.85,3.71959 -8.5,4.56196 -6.0752,3.10157 -14.7393,9.32001 -24.084,17.28577 -4.0326,3.4375 -7.5527,6.25 -7.8225,6.25 -1.2582,0 -5.7755,5.13742 -10.1119,11.5 -2.6239,3.85 -5.0658,7.225 -5.4264,7.5 -1.2143,0.92618 -6.518,10.47241 -12.055203,21.69844 -4.3675,8.85459 -5.9381,11.16619 -7.6276,11.22611 -3.7881,0.13434 -4.8497,-2.4122 -2.5622,-6.14631 1.1045,-1.80303 4.2343,-7.32824 6.9551,-12.27824 2.7208,-4.95 7.488203,-13.42791 10.594303,-18.8398 3.1061,-5.41189 5.4153,-10.21533 5.1317,-10.67432 -0.2837,-0.45898 0.1291,-0.98107 0.9172,-1.1602 0.7882,-0.17912 5.0533,-3.81318 9.4781,-8.07568 4.4248,-4.2625 8.3051,-7.75 8.623,-7.75 0.3179,0 3.2279,-2.20528 6.4667,-4.90062 3.2388,-2.69535 9.8566,-6.77226 14.7062,-9.05982 4.8496,-2.28756 9.5656,-4.56148 10.4799,-5.05317 0.9144,-0.49169 5.4144,-2.27956 10,-3.97305 4.5857,-1.69349 9.6116,-3.73928 11.1686,-4.5462 1.5571,-0.80693 3.6046,-1.46714 4.55,-1.46714 0.9455,0 2.2481,-0.52916 2.8949,-1.17592 0.6468,-0.64675 5.7993,-1.96799 11.45,-2.93608 5.6507,-0.9681 12.2991,-2.27738 14.7741,-2.90953 4.714,-1.20401 28.3732,-0.8244 33,0.52948 1.375,0.40235 3.85,0.90636 5.5,1.12004 1.65,0.21367 6.8541,1.05544 11.5646,1.87059 9.4579,1.63669 7.1991,2.073 29.173,-5.63512 7.4464,-2.61208 8.5272,-4.30979 3.3608,-5.27901 -1.8708,-0.35098 -5.4946,-1.75106 -8.0529,-3.11129 -2.5582,-1.36024 -5.3304,-2.47316 -6.1604,-2.47316 -0.8299,0 -3.8436,-1.06793 -6.697,-2.37318 -2.8535,-1.30524 -5.9159,-2.61822 -6.8055,-2.91773 -0.9263,-0.31188 -1.5673,-1.54112 -1.5,-2.87683 0.1718,-3.41312 4.9184,-3.57723 10.9352,-0.37808 2.6334,1.4002 5.6642,2.54582 6.7351,2.54582 1.0709,0 1.9471,0.45 1.9471,1 0,0.55 0.4592,1 1.0204,1 0.5612,0 4.827,1.8 9.4796,4 7.7774,3.67759 9.1361,4 16.8572,4 6.0952,0 8.7261,-0.39544 9.5948,-1.4422 0.6583,-0.7932 2.5805,-1.5807 4.2716,-1.75 4.7741,-0.47793 5.5661,-2.84606 2.1482,-6.4237 -3.7664,-3.94245 -6.1579,-5.38793 -23.2855,-14.0742 -7.9275,-4.02045 -15.6634,-7.3099 -17.1909,-7.3099 -1.5276,0 -3.0555,-0.45 -3.3954,-1 -0.3399,-0.55 -1.7226,-1 -3.0726,-1 -1.35,0 -3.2359,-0.45126 -4.191,-1.00279 -1.6288,-0.94067 -5.6082,-1.92466 -22.7364,-5.62213 -12.1355,-2.61968 -49.9098,-3.29864 -52.2689,-0.93949 -0.3105,0.31043 -2.8894,0.56441 -5.7311,0.56441 -2.8417,0 -5.4819,0.31526 -5.8673,0.70058 -0.3853,0.38532 -3.047,0.81909 -5.915,0.96393 -2.8679,0.14484 -6.1151,0.69872 -7.2161,1.23085 -1.1009,0.53213 -4.1286,1.24936 -6.7283,1.59385 -2.5997,0.34449 -4.9887,1.05035 -5.309,1.56857 -0.3203,0.51822 -1.7118,0.94222 -3.0921,0.94222 -1.3804,0 -8.8461,2.9392 -16.5905,6.53156 -13.2372,6.14029 -26.6937,14.93925 -34.9881,22.87809 -1.4885,1.42469 -3.0274,2.59035 -3.4199,2.59035 -0.3925,0 -3.8996,2.93066 -7.7937,6.51257 -3.894,3.58192 -9.330003,8.51184 -12.080003,10.95538 -15.7202,13.96838 -16.4409,14.37963 -18.4895,10.55172 -0.9044,-1.68988 -0.4352,-2.53321 3.1991,-5.75 2.3423,-2.07332 7.4835,-6.69467 11.4248,-10.26967 10.2905,-9.33424 15.818403,-14.14903 28.398103,-24.73493 4.9062,-4.12861 7.975,-6.33145 10.0784,-7.23456 1.314,-0.56415 3.0641,-1.44909 3.8891,-1.96652 5.4074,-3.39149 18.8619,-9.25862 23.259,-10.14259 2.8825,-0.5795 5.916,-1.31789 6.741,-1.64087 0.825,-0.32297 1.95,-0.65644 2.5,-0.74103 0.55,-0.0846 1.675,-0.42294 2.5,-0.75188 6.3849,-2.54581 24.077,-7.10625 26.8964,-6.93302 1.3181,0.081 3.0743,-0.41568 3.9028,-1.10368 1.1414,-0.94784 9.4043,-1.23546 34.1036,-1.18712 40.9488,0.0801 40.2094,-0.008 60.5972,7.24614 12.1402,4.31975 15.677,5.78831 26,10.79583 3.85,1.86757 7.5225,3.39528 8.1611,3.39491 0.6386,-3.8e-4 2.2734,1.32118 3.6328,2.93678 1.3594,1.6156 4.9697,4.53537 8.0227,6.48838 3.053,1.95301 5.8105,3.97084 6.1277,4.48408 0.8539,1.38156 12.2564,2.21328 18.4491,1.34569 3.8468,-0.53893 5.7108,-1.32914 6.5,-2.75561 0.6086,-1.1 1.3984,-2.225 1.7551,-2.5 1.2296,-0.94803 2.1517,-12 1.0012,-12 -0.5944,0 -2.5144,-1.40143 -4.2666,-3.11428 -1.7522,-1.71285 -4.8053,-3.78267 -6.7845,-4.59958 -1.9792,-0.81692 -4.2736,-2.04139 -5.0986,-2.72103 -0.825,-0.67965 -3.075,-1.8384 -5,-2.57501 -1.925,-0.73661 -4.6291,-2.1142 -6.0092,-3.0613 -1.38,-0.94711 -4.3651,-2.22177 -6.6335,-2.83258 -2.2684,-0.61082 -4.6579,-1.75342 -5.3099,-2.53912 -0.6521,-0.7857 -2.6022,-1.73969 -4.3337,-2.11998 -1.7314,-0.38029 -3.8378,-1.07893 -4.6809,-1.55253 -5.1863,-2.91355 -21.4229,-7.88459 -25.7529,-7.88459 -1.4423,0 -3.3469,-0.65564 -4.2324,-1.45699 -0.8855,-0.80134 -4.9709,-1.96842 -9.0787,-2.59352 -4.1079,-0.62509 -7.8963,-1.54445 -8.4188,-2.04301 -0.5225,-0.49857 -2.1943,-0.90648 -3.7151,-0.90648 -1.5207,0 -4.6932,-0.64392 -7.05,-1.43093 -3.9219,-1.30972 -9.7608,-2.00086 -27.7849,-3.2889 -3.575,-0.25548 -6.9559,-0.83968 -7.5132,-1.29824 -2.9736,-2.44696 -40.2192,-1.89514 -53.4868,0.79243 -6.3205,1.28031 -13.3263,3.41077 -14.45,4.39422 -0.5225,0.45728 -2.5475,0.83419 -4.5,0.83758 -1.9525,0.003 -4.839,0.67839 -6.4143,1.5 -1.5754,0.82161 -4.3613,1.49384 -6.191,1.49384 -1.8297,0 -3.5682,0.39074 -3.8633,0.8683 -0.2952,0.47757 -3.2198,1.17186 -6.4992,1.54288 -3.8302,0.43334 -8.3344,1.91091 -12.595,4.1317 -3.6479,1.90142 -7.3873,3.47598 -8.3099,3.49904 -0.9225,0.0231 -3.1104,0.81055 -4.8619,1.75 -4.4471,2.38527 -19.315403,15.43804 -19.315403,16.95686 0,0.68817 -0.45,1.25122 -1,1.25122 -0.55,0 -1,0.60526 -1,1.34501 0,0.73976 -0.9,2.1595 -2,3.15499 -1.1,0.99549 -2,2.55023 -2,3.45499 0,0.90475 -0.5256,2.17055 -1.1679,2.81289 -2.2058,2.2058 -3.8725,8.74371 -4.3929,17.23212 -0.7916,12.91033 -3.2185,22.67904 -6.5877,26.51634 -1.5683,1.78623 -2.8515,3.64254 -2.8515,4.12513 0,0.48259 -0.9,1.4395 -2,2.12646 -1.1,0.68696 -2,1.72523 -2,2.30727 0,0.58203 -1.125,2.53319 -2.5,4.33591 -1.375,1.80272 -2.5,3.86677 -2.5,4.58679 0,0.72001 -1.1581,3.757 -2.5734,6.74886 -1.4154,2.99186 -2.3441,5.66906 -2.0639,5.94932 0.2803,0.28026 0.055,1.7008 -0.4999,3.15674 -1.3967,3.66235 -1.3607,19.39877 0.061,26.64718 2.0892,10.65228 9.9152,23.73871 15.7996,26.41983 1.4821,0.67528 2.2584,1.68514 1.9378,2.52066 -0.2942,0.76669 0.04,1.61475 0.7435,1.88457 0.7031,0.26982 2.8428,2.89457 4.7548,5.83276 3.3223,5.10554 5.1556,10.14624 8.4727,23.29586 2.6974,10.69281 6.1261,16.49849 14.8831,25.20105 7.512603,7.46593 10.828803,9.66744 20.984703,13.9313 3.1023,1.30248 18.3826,2.95914 24.5,2.65625 3.025,-0.14978 8.875,-0.97727 13,-1.83885 z M 75.332357,584.01135 c -1.263,-3.32208 -1.2345,-5.15662 0.093,-5.97703 0.5875,-0.3631 0.8625,-1.196 0.6112,-1.85091 -0.2513,-0.65491 0.168,-2.0454 0.9318,-3.08998 0.7638,-1.04458 1.3888,-2.71323 1.3888,-3.70811 0,-0.99488 0.6957,-2.59637 1.5461,-3.55887 0.8503,-0.9625 3.5093,-4.45721 5.9089,-7.76602 2.3995,-3.30882 6.5883,-8.25882 9.3085,-11 2.7201,-2.74119 5.123603,-5.44292 5.341103,-6.00384 0.3693,-0.95247 9.8504,-9.08224 20.6887,-17.73986 2.5887,-2.06784 5.185,-4.14447 5.7697,-4.61473 0.5846,-0.47025 2.1596,-1.43938 3.5,-2.15362 1.3403,-0.71424 2.887,-1.86466 3.437,-2.55649 2.0234,-2.54515 33.4566,-19.41544 36.1754,-19.41544 0.3474,0 2.9622,-1.10254 5.8106,-2.45008 2.8485,-1.34754 6.3757,-2.66707 7.8383,-2.93228 1.4625,-0.26521 4.1253,-0.93218 5.9174,-1.48216 1.7921,-0.54998 5.0583,-1.5135 7.2583,-2.14116 2.7263,-0.77783 13.7804,-1.03822 34.7155,-0.81776 27.1904,0.28632 30.9086,0.51673 32.3985,2.0077 1.4525,1.45351 1.5084,2.10604 0.4079,4.76272 -1.7973,4.33913 -5.6084,4.94529 -16.6729,2.65185 -1.183,-0.24522 -10.183,-0.75367 -20,-1.12989 -9.817,-0.37622 -19.3345,-0.78048 -21.1501,-0.89835 -1.8156,-0.11788 -3.5296,0.15551 -3.809,0.60754 -0.2794,0.45203 -1.7687,0.82187 -3.3097,0.82187 -3.4628,0 -22.9728,6.3594 -29.0802,9.47887 -2.475,1.26415 -9.225,4.81313 -15,7.88662 -5.775,3.07349 -11.524,6.04184 -12.7756,6.59633 -1.2516,0.55449 -2.5373,1.68992 -2.857,2.52317 -0.3198,0.83326 -1.0363,1.51501 -1.5924,1.51501 -3.8469,0 -41.814803,35.45773 -44.276503,41.34922 -0.8224,1.96826 -2.2929,4.00557 -3.2679,4.52736 -0.975,0.5218 -2.5869,3.21295 -3.5821,5.98035 -0.9951,2.76739 -2.4481,5.5618 -3.2289,6.20979 -0.7808,0.64799 -1.4196,1.72832 -1.4196,2.40074 0,1.51304 -3.2333,4.53254 -4.8535,4.53254 -0.6578,0 -1.6349,-1.15429 -2.1713,-2.5651 z M 496.35716,565.30858 c 0,-0.69732 -1.125,-2.92345 -2.5,-4.94694 -1.375,-2.0235 -2.5,-4.15296 -2.5,-4.73214 0,-0.57918 -0.4982,-1.05305 -1.107,-1.05305 -0.6088,0 -0.8535,-0.66059 -0.5437,-1.46797 0.3098,-0.80739 0.1849,-1.70186 -0.2776,-1.98771 -0.4625,-0.28585 -1.1617,-2.66276 -1.5537,-5.28202 -0.392,-2.61927 -1.0064,-5.2123 -1.3654,-5.7623 -0.5289,-0.81038 -2.3706,-8.42878 -4.4724,-18.5 -1.2483,-5.98129 -1.9571,-6.87925 -7.0185,-8.89208 -5.4203,-2.15555 -19.4774,-5.33984 -20.5759,-4.66095 -1.1049,0.68285 -0.3988,7.81932 1.3409,13.55303 0.9179,3.025 2.1296,7.3 2.6927,9.5 0.663,2.59019 2.4055,5.23359 4.9439,7.5 2.1561,1.925 7.2753,6.7625 11.376,10.75 4.1008,3.9875 7.8339,7.25 8.2959,7.25 0.462,0 3.0561,2.25 5.7648,5 4.8392,4.91314 7.5,6.23717 7.5,3.73213 z m -188,-11.73213 c 2.6276,-2.2 5.2552,-4 5.8391,-4 0.5838,0 1.4214,-0.61403 1.8612,-1.36452 0.4398,-0.75049 2.2622,-2.11204 4.0497,-3.02568 1.7875,-0.91364 3.25,-2.0996 3.25,-2.63548 0,-0.53588 0.5079,-0.97432 1.1288,-0.97432 2.2096,0 9.2013,-7.33711 12.0135,-12.60712 2.0074,-3.76165 2.8577,-6.78898 2.8577,-10.17398 0,-2.6504 0.4881,-5.307 1.0846,-5.90356 0.5966,-0.59657 0.9341,-2.14907 0.75,-3.45 -0.4212,-2.97757 -2.1325,-2.92122 -14.8346,0.4885 -7.5457,2.02554 -10.0657,3.18043 -12.25,5.61393 -1.5125,1.68508 -2.75,3.93013 -2.75,4.98899 0,1.05886 -0.4807,2.22228 -1.0682,2.58537 -0.5875,0.3631 -0.8355,1.26658 -0.5511,2.00774 0.2845,0.74116 -0.1993,2.78381 -1.075,4.53922 -0.8758,1.75541 -1.6721,3.91599 -1.7697,4.80128 -0.098,0.8853 -0.4405,2.28463 -0.762,3.10963 -1.4042,3.60362 -3.635,11.84162 -4.2649,15.75 -0.8749,5.42879 0.2535,5.47225 6.4909,0.25 z m 141.2098,-29.98335 c -0.1596,-2.42471 -0.641,-4.88288 -1.0699,-5.46261 -0.4288,-0.57972 -1.4038,-3.03019 -2.1665,-5.44549 -1.1405,-3.6111 -2.1054,-4.71782 -5.4302,-6.22804 -2.2237,-1.01012 -6.0682,-1.84396 -8.5432,-1.85297 -4.8908,-0.0178 -11.6163,1.54259 -12.4478,2.88802 -1.0213,1.65247 2.6054,7.01825 6.2449,9.23937 2.0366,1.24294 3.8529,2.61655 4.0362,3.05248 0.1834,0.43592 0.7742,0.79259 1.313,0.79259 1.5022,0 13.7916,6.09055 14.4549,7.1637 0.3219,0.52087 1.3308,0.7928 2.242,0.60428 1.2963,-0.26819 1.5936,-1.30196 1.3666,-4.75133 z m -95.7098,-1.51538 c 1.65,-1.19989 4.575,-2.8027 6.5,-3.56178 1.925,-0.75909 5.3,-2.32979 7.5,-3.49045 3.4753,-1.83351 4,-2.55878 4,-5.52967 0,-3.01238 -0.4166,-3.56234 -3.5,-4.62059 -4.0855,-1.40215 -11.7911,-0.83073 -16.7526,1.2423 -2.7159,1.13478 -3.3667,1.89495 -2.9585,3.45586 0.2878,1.10059 0.1156,2.25307 -0.3828,2.56108 -0.4984,0.30801 -0.9061,1.36432 -0.9061,2.34736 0,0.98304 -0.7166,3.22369 -1.5923,4.97922 -3.1394,6.29298 1.1359,7.67541 8.0923,2.61667 z m 52.4414,-7.7741 c 8.5514,-4.28424 10.3898,-7.49706 9.8951,-17.29277 -0.3001,-5.94393 -0.8571,-7.8566 -3.3248,-11.41754 -6.8134,-9.83169 -18.2256,-12.29108 -27.0007,-5.81877 -9.3748,6.91468 -12.3234,12.02187 -10.2777,17.80191 0.292,0.825 1.121,3.45814 1.8423,5.85142 1.7666,5.86149 5.6093,9.73544 10.9943,11.08359 2.4365,0.61 5.1051,1.5227 5.9301,2.02823 2.6009,1.59375 5.3094,1.08658 11.9414,-2.23607 z m -3.9005,-49.01679 c 2.4975,-1.22489 5.7856,-3.34832 7.3068,-4.71873 1.5212,-1.37041 3.8857,-3.50415 5.2545,-4.74165 1.3688,-1.2375 2.8631,-2.25 3.3208,-2.25 0.4577,0 1.4431,-0.7362 2.1899,-1.63601 1.3357,-1.60952 7.112,-5.58523 11.7514,-8.08836 2.684,-1.44811 12.1357,-1.74384 12.1357,-0.37971 0,0.49275 3.7125,1.19427 8.25,1.55893 4.5375,0.36465 10.6341,1.37988 13.548,2.25607 3.998,1.20216 5.5807,1.31039 6.45,0.44107 0.6336,-0.63359 2.5655,-1.15199 4.2931,-1.15199 6.7825,0 18.6613,-5.5895 26.3366,-12.3925 7.2177,-6.39738 9.1223,-8.46167 9.1223,-9.88709 0,-0.86765 0.7071,-2.2847 1.5714,-3.14898 0.8643,-0.86429 1.2592,-1.57143 0.8776,-1.57143 -0.3817,0 -0.1386,-0.66916 0.5402,-1.48701 0.8055,-0.97051 0.9579,-2.44673 0.4389,-4.25 -0.4374,-1.51965 -0.9179,-3.43799 -1.0679,-4.26299 -0.6133,-3.37426 -2.9036,-9 -3.6639,-9 -0.4479,0 -0.5177,-0.47994 -0.1552,-1.06653 0.3625,-0.5866 -0.1734,-1.69729 -1.191,-2.4682 -1.0176,-0.77092 -1.3331,-1.41597 -0.7011,-1.43347 1.6969,-0.047 5.4003,-7.72227 5.5417,-11.48524 0.153,-4.0704 -1.8764,-7.02833 -7.2736,-10.60144 -3.9559,-2.61893 -4.797,-2.77349 -14.2265,-2.61431 -7.4567,0.12588 -10.1332,-0.16375 -10.4566,-1.13155 -0.9351,-2.7991 -8.0851,-6.19926 -13.036,-6.19926 -5.3078,0 -13.2851,2.32783 -17.198,5.01852 -1.375,0.9455 -3.4564,2.01563 -4.6252,2.37806 -1.8933,0.58707 -9.693,7.33292 -9.9474,8.60342 -0.2234,1.1155 -1.696,4.72955 -3.5081,8.60953 -1.0556,2.26024 -1.9193,4.85385 -1.9193,5.76357 0,0.90972 -0.5363,2.51278 -1.1918,3.56235 -0.8919,1.4282 -0.9154,2.80851 -0.094,5.48643 0.6905,2.24973 0.7351,3.57812 0.1202,3.57812 -0.5379,0 -0.8788,1.0125 -0.7577,2.25 0.1211,1.2375 -0.044,2.925 -0.3661,3.75 -0.3225,0.825 -0.7448,6.16186 -0.9385,11.85968 -0.3035,8.93216 -0.6221,10.54497 -2.3123,11.70435 -1.0781,0.73957 -2.8602,2.23905 -3.9602,3.33219 -3.0975,3.07811 -7.6552,5.09236 -11.5,5.08231 -6.6243,-0.0173 -6.3461,1.53747 -6.1833,-34.5638 l 0.1477,-32.76262 2.5647,-3.87542 c 1.4105,-2.13148 3.2334,-4.13206 4.0508,-4.44572 0.8174,-0.31366 3.1588,-2.07549 5.2031,-3.91516 7.9402,-7.14526 11.9979,-10.41581 12.9229,-10.41581 0.5299,0 2.1663,-1.35 3.6365,-3 1.9806,-2.22286 3.5553,-3 6.0788,-3 2.8431,0 3.9157,-0.69338 6.4923,-4.197 3.5126,-4.77643 3.8455,-6.62505 1.3365,-7.42075 -0.9625,-0.30523 -3.4233,-1.30361 -5.4684,-2.21861 -3.2397,-1.44943 -3.8026,-2.21776 -4.3716,-5.96726 -0.5491,-3.61815 -0.9824,-4.25526 -2.7204,-4 -1.8032,0.26483 -2.0892,1.07009 -2.2389,6.30362 -0.2497,8.73263 -1.2701,12.2838 -3.9456,13.73158 -1.2893,0.69763 -5.0853,3.40592 -8.4358,6.01842 -3.3504,2.6125 -6.4241,4.75277 -6.8305,4.75616 -0.4063,0.003 -2.0232,0.676 -3.5929,1.49469 -1.5697,0.8187 -3.169,1.29389 -3.554,1.05598 -0.3849,-0.23791 -0.6009,-6.42302 -0.48,-13.74469 0.1209,-7.32168 0.2576,-22.14837 0.3039,-32.9482 l 0.084,-19.63606 3.5,-1.66086 c 1.925,-0.91347 3.5,-2.03515 3.5,-2.49262 0,-0.45747 1.4625,-1.42126 3.25,-2.14175 1.7875,-0.7205 4.6425,-2.35009 6.3444,-3.62132 1.7019,-1.27123 3.4087,-2.31133 3.7929,-2.31133 1.0043,0 10.8341,-7.55658 12.6127,-9.69583 0.825,-0.9923 2.0662,-2.92917 2.7582,-4.30417 0.6919,-1.375 2.0687,-3.85 3.0594,-5.5 4.5698,-7.61104 4.7949,-20.36337 0.4566,-25.87854 -7.3649,-9.36293 -10.1864,-11.1801 -20.7761,-13.3803 -3.3902,-0.70439 -4.2118,-1.47722 -6.668,-6.27227 -4.6831,-9.14244 -9.3198,-11.55621 -17.5177,-9.11921 -2.7986,0.83195 -15.1787,11.26312 -15.2548,12.85332 -0.051,1.07067 -5.8331,3.27684 -8.6261,3.29142 -2.7143,0.0142 -11.4315,3.2014 -11.4315,4.17965 0,0.60312 -1.125,2.1392 -2.5,3.41351 -2.0229,1.87482 -2.5,3.26885 -2.5,7.30565 0,2.74381 -0.45,5.26685 -1,5.60677 -1.1606,0.71731 -1.3594,7.80726 -0.25,8.91667 0.4125,0.4125 0.7837,1.05 0.8248,1.41666 0.6683,5.95779 2.0227,11.26632 3.4986,13.71274 1.7123,2.83833 13.459,14.45393 14.6169,14.45393 0.2866,0 1.7704,1.0125 3.2974,2.25 1.527,1.2375 4.2508,3.375 6.0528,4.75 1.8021,1.375 4.8111,3.85316 6.6867,5.50701 l 3.4102,3.00702 -0.1601,16.99298 c -0.4254,45.13127 -0.087,42.66485 -6.0236,43.85226 -2.229,0.4458 -4.5396,-0.20593 -8.9776,-2.53226 -3.2868,-1.72291 -5.9761,-3.73882 -5.9761,-4.47979 0,-0.74097 -0.4072,-1.34722 -0.905,-1.34722 -0.4977,0 -2.1136,-2.06243 -3.5909,-4.58318 -2.2821,-3.89416 -2.6036,-5.35996 -2.1385,-9.75 0.9049,-8.54071 0.8022,-28.79279 -0.1757,-34.66682 -2.4577,-14.76287 -14.8853,-27.91635 -27.2188,-28.80847 -4.9596,-0.35875 -6.4637,0.0453 -13.5256,3.63317 -6.8195,3.46473 -9.0157,4.08338 -15.4979,4.3655 -6.7795,0.29507 -7.9763,0.66452 -11.6956,3.61021 -2.2787,1.80482 -4.4661,4.27556 -4.8608,5.49054 -1.0533,3.24219 -0.8084,9.06088 0.4828,11.47356 0.6779,1.26677 1.1282,7.60162 1.1316,15.91975 0.01,14.44759 1.0238,20.72928 3.514,21.68486 0.8142,0.31246 1.4804,1.23433 1.4804,2.0486 0,3.63166 12.5611,10.35802 20.9877,11.23878 l 6.0123,0.62841 0,-3.57735 c 0,-1.96755 -0.4021,-4.63502 -0.8936,-5.92772 -0.6279,-1.65162 -0.4657,-2.93446 0.5457,-4.3151 1.8142,-2.47638 10.3907,-2.52822 15.1032,-0.0913 3.7915,1.96064 4.2447,1.99788 4.2447,0.34879 0,-1.49727 -2.3819,-3.62709 -6.3757,-5.70102 -1.5663,-0.81332 -3.2363,-2.50082 -3.7113,-3.75 -0.4749,-1.24916 -1.2758,-2.27121 -1.7798,-2.27121 -1.2049,0 -2.2902,-4.42731 -1.555,-6.34322 0.8585,-2.23719 2.7326,-2.61907 7.2393,-1.47515 2.4501,0.62191 5.2741,2.37102 7.1418,4.42351 4.622,5.07927 5.2964,4.68313 5.286,-3.10514 0,-1.65 -0.3489,-3.83292 -0.7704,-4.85092 -0.9227,-2.22878 0.8688,-3.61185 4.707,-3.63377 1.8295,-0.0104 3.3392,0.90779 4.75,2.88906 2.1235,2.98209 2.789,8.53205 1.1451,9.54808 -0.5077,0.31377 -1.2219,1.9308 -1.587,3.59341 -0.3652,1.66261 -1.9748,3.99207 -3.577,5.17659 -1.6021,1.18452 -2.913,2.72838 -2.913,3.43081 0,2.1273 -5.8482,8.09184 -8.6149,8.78623 -3.7398,0.93862 -7.3851,3.55016 -7.3851,5.29074 0,1.23507 0.9721,1.37877 5.5,0.81304 14.008,-1.75018 21.436,1.76442 37.9956,17.97774 7.0942,6.9459 9.5053,9.98183 9.9815,12.56851 0.7493,4.0702 -0.6712,62.42171 -1.5498,63.66048 -0.097,0.1375 -0.2335,0.78092 -0.3023,1.42981 -0.2203,2.07998 -9.7932,2.17147 -12.4835,0.11931 -9.0048,-6.86913 -11.8319,-10.79169 -12.8281,-17.79912 -0.2345,-1.65 -0.5558,-10.24184 -0.7139,-19.09298 -0.158,-8.85114 -0.6039,-16.60518 -0.9908,-17.23119 -0.3869,-0.62601 -1.5565,-3.61756 -2.5991,-6.64789 -1.067,-3.10146 -3.4503,-7.11054 -5.4526,-9.17221 -1.9563,-2.01439 -3.557,-3.97264 -3.557,-4.35166 0,-0.37902 -1.6875,-1.54749 -3.75,-2.5966 -2.0625,-1.04911 -4.2,-2.42032 -4.75,-3.04713 -1.3624,-1.55265 -7.1505,-3.21579 -12,-3.44802 -5.2897,-0.25331 -9.1572,0.85766 -13.926,4.00038 -4.0816,2.68986 -10.0694,3.24975 -17.2266,1.61081 -4.0132,-0.91899 -11.616,3.255 -13.2204,7.25808 -1.221,3.04662 -1.8984,14.1751 -0.9568,15.71841 1.0978,1.79917 0.3621,10.15446 -1.0431,11.84724 -0.7551,0.90962 -1.6023,3.68894 -1.8826,6.17627 -0.2804,2.48732 -0.9001,4.76363 -1.3771,5.05847 -1.2032,0.74361 -1.0929,8.16061 0.1326,8.91802 0.55,0.33992 1,1.40015 1,2.35607 0,2.08067 6.3,8.32803 10.5,10.41234 4.2246,2.09645 19.0726,6.40368 24.8487,7.20831 5.7385,0.79937 19.6513,-0.3293 19.6513,-1.59421 0,-0.48538 -1.9904,-0.88251 -4.4231,-0.88251 -3.6057,0 -4.9916,-0.56856 -7.5,-3.07692 -5.7628,-5.76287 -3.2245,-9.74073 7.2976,-11.43612 3.5526,-0.57243 3.7188,-0.73504 2,-1.95768 -1.031,-0.73336 -2.9506,-3.33022 -4.2659,-5.77078 -1.8773,-3.48348 -2.2416,-5.23562 -1.6948,-8.15051 0.3831,-2.04221 1.3375,-3.95906 2.1209,-4.25967 0.7834,-0.30062 3.5711,0.47848 6.1948,1.73133 5.673,2.70885 17.6292,14.54315 16.821,16.64945 -0.3028,0.78896 -0.5505,2.09195 -0.5505,2.89553 0,1.90783 -8.6362,11.12513 -11.1803,11.93261 -2.8043,0.89003 -1.6443,1.5717 3.3551,1.97175 2.3789,0.19035 7.596,0.60312 11.5936,0.91725 8.1135,0.63755 6.4402,-0.43288 23.674,15.14486 8.8555,8.00446 11.6342,10.11529 13.5576,10.29868 0.275,0.0262 2.5435,-0.95451 5.041,-2.1794 z m 49.2083,-25.26112 c -4.2908,-1.38695 -5.0455,-2.28365 -5.4279,-6.44926 -0.2487,-2.70949 -0.8131,-3.57002 -2.4987,-3.81003 -8.33,-1.18611 -1.6512,-13.30383 10.3704,-18.81553 2.8561,-1.30949 5.4702,-2.82944 5.809,-3.37767 1.7374,-2.81125 10.498,0.55879 10.498,4.03841 0,1.28805 -2.9172,5.84353 -5.25,8.19832 -0.9625,0.97157 -1.75,2.23495 -1.75,2.80751 0,0.57255 -1.9125,1.93141 -4.25,3.01968 l -4.25,1.97867 5.241,-0.47149 c 4.3392,-0.39038 6.1027,-0.009 10.25,2.21537 4.0186,2.15562 5.009,3.19575 5.009,5.26068 0,5.25541 -1.8812,6.28847 -11.6109,6.37606 -4.889,0.044 -10.3519,-0.39281 -12.1399,-0.97072 z m -19.2444,-19.94351 c -0.7557,-0.91054 -0.9752,-2.57076 -0.5619,-4.25 0.3731,-1.51566 0.9067,-4.10575 1.1858,-5.75575 1.3418,-7.93091 4.5531,-13.45421 8.9731,-15.43308 3.8154,-1.70824 4.2096,-1.71777 6.2853,-0.15206 1.6464,1.24187 2.3608,3.08671 2.7843,7.19033 l 0.5697,5.51987 -6.7726,7.18747 c -6.936,7.36096 -9.9406,8.73341 -12.4637,5.69322 z m -75.8163,-1.54471 c -1.2037,-1.12142 -2.1885,-2.66428 -2.1885,-3.42857 0,-0.76429 -0.5797,-1.98426 -1.2881,-2.71104 -2.083,-2.13685 -3.9564,-11.82195 -2.6023,-13.45346 0.6244,-0.75238 0.8001,-1.36797 0.3904,-1.36797 -0.4097,0 -0.1847,-0.675 0.5,-1.5 2.276,-2.74247 6.5211,-1.82288 9.6393,2.0881 2.5311,3.17466 2.8666,4.41335 2.9118,10.75 0.075,10.55315 -2.6045,14.05572 -7.3626,9.62294 z m 50.2097,-134.85996 c -2.6787,-1.63343 -3.7434,-1.74464 -7.8049,-0.81522 -5.6508,1.29308 -10.3701,-0.0651 -15.3781,-4.42571 -1.8066,-1.57308 -3.6471,-2.86015 -4.09,-2.86015 -1.3633,0 -3.3922,-7.58331 -2.6525,-9.91414 0.6946,-2.18848 4.1257,-4.09375 7.3424,-4.07719 0.9267,0.005 3.3423,1.57977 5.3681,3.5 2.0258,1.92023 3.8891,3.49133 4.1406,3.49133 0.2516,0 0.719,-1.6875 1.0388,-3.75 1.05,-6.77126 1.3646,-8.31205 1.7535,-8.58541 2.88,-2.02482 6.0846,-3.66459 7.1616,-3.66459 2.1751,0 6.9242,5.61297 6.9035,8.15924 -0.03,3.7343 -1.8403,10.89987 -3.0616,12.12119 -1.492,1.49199 -1.4176,2.71957 0.1648,2.71957 0.7064,0 2.1319,-1.4625 3.1677,-3.25 4.1606,-7.17972 9.476,-10.48226 13.5483,-8.41769 5.4986,2.78763 5.1463,6.90238 -1.1695,13.66026 -3.5182,3.76454 -10.262,8.01786 -12.6901,8.00369 -0.3525,-0.002 -2.0366,-0.85489 -3.7426,-1.89518 z m 233.6027,148.09962 c 2.0984,-4.3311 9.4372,-8.92819 15.5062,-9.71318 4.3612,-0.56411 5.7179,-0.25627 10.724,2.43333 3.1521,1.69353 6.7238,3.07915 7.9371,3.07915 2.1852,0 2.1818,-0.0258 -0.3688,-2.75 -3.5201,-3.75977 -4.3784,-6.86534 -2.0644,-7.47044 4.15,-1.08527 14.294,1.00519 17.78,3.66409 1.9167,1.46197 3.485,3.05309 3.485,3.53581 0,1.26051 -2.7138,3.79493 -4.7584,4.44386 -0.9606,0.30488 -2.3007,1.44168 -2.978,2.52621 -1.101,1.7629 -0.8578,2.14923 2.2948,3.64522 4.4867,2.12906 20.3123,1.51209 24.9416,-0.97237 1.65,-0.88553 3.3675,-1.61283 3.8167,-1.61622 0.4492,-0.003 2.2721,-1.11619 4.0508,-2.4729 3.7866,-2.88815 7.3094,-12.74211 6.185,-17.30068 -0.3707,-1.50292 -0.7944,-3.63258 -0.9417,-4.73258 -0.1472,-1.1 -0.5698,-2.7875 -0.9392,-3.75 -1.6198,-4.22066 -1.6252,-5.14377 -0.041,-6.89462 0.9235,-1.02046 1.3309,-1.85538 0.9054,-1.85538 -0.4255,0 0.3618,-1.48873 1.7497,-3.30828 4.2949,-5.63098 3.9908,-9.30838 -1.2087,-14.61287 -4.3697,-4.45799 -5.7719,-4.95558 -15.0006,-5.32307 -5.9632,-0.23746 -6.5489,-0.47065 -8.1769,-3.25578 -0.9645,-1.65 -1.7865,-3.71219 -1.8267,-4.58264 -0.087,-1.87616 -7.3015,-7.91736 -9.4555,-7.91736 -0.8248,0 -1.7777,-0.45 -2.1176,-1 -1.4211,-2.29935 -14.3892,-0.84311 -17.7765,1.99621 -0.6729,0.56405 -2.4564,1.94965 -3.9632,3.0791 -3.1992,2.39803 -9.4403,14.43768 -10.8469,20.92469 -0.5366,2.475 -1.1821,6.975 -1.4344,10 -0.2523,3.025 -0.6899,6.48492 -0.9725,7.68871 -0.2826,1.2038 -0.062,2.46786 0.4898,2.80902 1.8179,1.12353 1.1053,6.43814 -1.1079,8.26206 -1.1614,0.95711 -2.6239,2.19604 -3.25,2.75318 -5.1303,4.56496 -9.9777,5.30587 -11.0299,1.68588 -0.4998,-1.71954 -0.9942,-15.85645 -0.619,-17.69885 0.112,-0.55 0.1462,-4.35712 0.076,-8.46027 -0.1284,-7.49617 -0.9704,-9.31405 -4.0654,-8.77687 -1.4649,0.25426 -1.6753,1.47287 -3.3746,19.54358 -0.2227,2.36854 -0.6795,4.58104 -1.0152,4.91667 -0.3356,0.33562 -0.6102,2.73012 -0.6102,5.32111 0,6.2618 -1.7425,7.78038 -6.3946,5.57281 -1.8742,-0.88936 -4.0574,-1.61703 -4.8516,-1.61703 -2.7317,0 -4.8529,-3.52831 -4.4297,-7.36827 0.4199,-3.81079 -1.9234,-8.40296 -2.9826,-5.84478 -0.293,0.70782 -1.6198,2.57879 -2.9484,4.1577 -3.1345,3.72517 -10.6261,5.02046 -15.2393,2.63487 -1.68,-0.86874 -3.8768,-1.57952 -4.8819,-1.57952 -4.4109,0 -7.8088,-9.7291 -4.2219,-12.08857 1.5439,-1.0156 7.8896,-0.29745 9.2843,1.05071 2.1442,2.07272 5.658,-1.04245 6.1611,-5.46214 0.2324,-2.04187 2.3437,-6.12158 3.7885,-7.32065 1.147,-0.95195 2.0769,-0.97207 4.0194,-0.087 2.6288,1.19776 3.6598,3.48139 3.683,8.15766 0.01,2.02672 0.5116,2.75 1.9067,2.75 1.0412,0 2.1662,-0.7118 2.5,-1.58179 0.9877,-2.57382 0.6925,-7.41822 -0.452,-7.41822 -0.5825,0 -0.8061,-0.40935 -0.4968,-0.90966 0.6073,-0.98269 -1.9688,-7.59526 -6.0736,-15.59034 -1.4119,-2.75 -2.7485,-5.96779 -2.9704,-7.15064 -0.7375,-3.93259 -5.1108,-10.4862 -8.0249,-12.02575 -6.371,-3.36583 -26.487,-0.8836 -28.1054,3.4681 -0.3495,0.93956 -1.9071,3.30692 -3.4613,5.26081 -2.5256,3.17493 -3.639,3.69698 -10.4753,4.91167 -6.7533,1.19993 -8.0932,1.81656 -11.4388,5.26399 -3.5543,3.66237 -3.7878,4.28294 -3.7604,9.9942 0.019,4.04604 0.6728,7.29043 1.9475,9.66869 2.5118,4.68655 2.4302,8.55418 -0.2329,11.03524 -1.5448,1.43924 -1.8654,2.36637 -1.1372,3.28895 0.5577,0.70661 0.8338,3.49548 0.6136,6.19749 -0.3091,3.79034 0.173,6.07504 2.1098,10 2.1898,4.4378 3.3117,5.47024 8.7877,8.08725 5.7944,2.7692 7.1036,2.99699 17.0165,2.96093 7.025,-0.0256 11.1578,-0.45786 11.95,-1.25 0.666,-0.66601 2.457,-1.21093 3.98,-1.21093 1.523,0 6.2705,-1.16093 10.55,-2.57985 5.9737,-1.98065 9.0583,-2.46305 13.2809,-2.07695 6.5449,0.59846 14.7178,4.51084 17.5,8.37734 1.1,1.5287 3.2497,4.06376 4.7771,5.63346 2.5618,2.6328 2.9493,2.74125 5,1.39926 1.2226,-0.8001 2.8983,-2.84875 3.7238,-4.55256 z m -59.215,-9.89299 c -1.4927,-0.23849 -3.9042,-1.84806 -5.3589,-3.57681 l -2.6448,-3.14319 3.7096,-3.39957 c 3.6626,-3.35661 3.7936,-3.39081 10.3589,-2.70642 3.6571,0.38123 7.0768,1.1038 7.5993,1.60571 0.5225,0.50192 2.1834,0.91257 3.691,0.91257 3.692,0 4.4897,1.68017 2.2297,4.69637 -2.8361,3.78513 -12.9241,6.6755 -19.5848,5.61134 z m 89.5887,-8.09662 c -1.975,-0.29506 -8.3669,-7.08491 -8.3808,-8.90245 0,-0.44475 -0.6206,-1.98628 -1.3717,-3.42562 -1.7919,-3.43423 -0.5085,-11.99662 2.2049,-14.71005 1.0836,-1.0836 3.6354,-2.57234 5.6707,-3.3083 3.426,-1.23886 3.8278,-1.1809 5.4168,0.78144 1.6735,2.06668 1.8011,4.86392 0.4835,10.60389 -0.7412,3.22947 0.4228,3.44862 8.4617,1.59303 4.3515,-1.00446 5.3643,-0.92629 7.6832,0.5931 1.8304,1.19932 2.3471,2.07381 1.6421,2.77882 -0.5658,0.56582 -0.8042,1.61376 -0.5299,2.32876 0.7032,1.83239 -1.2809,5.165 -4.2225,7.09238 -3.096,2.02858 -14.1887,5.00367 -17.058,4.575 z m -503.2701,16.50327 c 0.8824,-0.67212 1.9253,-2.23281 2.3174,-3.4682 0.3921,-1.23539 1.122,-2.24616 1.622,-2.24616 0.5,0 3.4611,-2.43269 6.5802,-5.40598 l 5.6711,-5.40599 8.1989,0.15599 c 5.1609,0.0982 8.7953,0.65105 9.8086,1.49207 0.8853,0.73485 2.0794,1.04579 2.6535,0.69098 1.9538,-1.20752 1.0515,-4.14527 -1.9562,-6.36895 -1.65,-1.2199 -3,-3.07238 -3,-4.11663 0,-1.04425 -0.5683,-2.49328 -1.263,-3.22006 -0.6946,-0.72679 -2.055,-2.55893 -3.023,-4.07143 -1.2627,-1.97287 -2.5874,-2.75 -4.6874,-2.75 -2.5329,0 -3.2307,0.6612 -5.1786,4.90729 -2.4922,5.43242 -8.6927,10.30958 -12.2522,9.63721 -1.1527,-0.21773 -2.445,-0.42932 -2.8719,-0.47019 -0.4268,-0.0409 -0.6699,-2.88956 -0.5402,-6.33041 0.1297,-3.44086 -0.1102,-6.81586 -0.533,-7.5 -0.4228,-0.68415 -0.4319,-1.7889 -0.02,-2.455 0.8205,-1.32754 0.7208,-4.8937 -0.4132,-14.7889 -0.6589,-5.74877 -0.8387,-6.15328 -1.5564,-3.5 -0.6933,2.56321 -1.8531,9.15797 -2.9986,17.0505 -0.1637,1.12777 -0.6434,2.60998 -1.066,3.2938 -0.4226,0.68382 -0.3052,1.80149 0.261,2.48372 1.0078,1.21425 0.2121,7.13267 -1.2843,9.55403 -1.2966,2.0978 -7.0639,1.11632 -14.0156,-2.38513 -7.9797,-4.01924 -8.6905,-4.11674 -12.7366,-1.74692 -2.6275,1.53897 -2.9217,2.16231 -2.4397,5.16908 0.6404,3.99474 1.9955,5.09836 6.119,4.98325 5.6013,-0.15636 12.9946,2.33839 13.8967,4.68923 0.2973,0.77464 1.1512,1.40844 1.8976,1.40844 1.9394,0 5.2579,3.8785 7.0588,8.25 1.6107,3.90997 3.0459,4.52493 5.7513,2.46436 z m -57.9653,-6.64338 c 1.894,-1.54764 2.1137,-2.18029 1.1108,-3.2 -0.6875,-0.69904 -1.25,-2.90937 -1.25,-4.91184 0,-2.90091 0.8129,-4.4702 4,-7.72148 3.7664,-3.84228 5.1907,-7.23766 3.036,-7.23766 -0.5301,0 -2.0909,-1.65853 -3.4684,-3.68562 -1.9423,-2.85839 -2.2473,-3.99543 -1.3588,-5.06594 1.9859,-2.39291 6.1553,-3.91849 10.0605,-3.68114 4.2783,0.26002 5.7307,-1.3966 5.7307,-6.53674 0,-4.00286 2.6585,-8.03056 5.3005,-8.03056 2.5276,0 6.6995,3.73636 6.6995,6 0,2.17518 4.5449,6.39929 5.9506,5.53055 1.4514,-0.89707 0.1941,-10.52874 -1.6101,-12.33287 -0.7373,-0.73729 -1.3405,-2.22716 -1.3405,-3.31081 0,-1.08365 -1.35,-4.85774 -3,-8.38687 -1.65,-3.52913 -3,-6.8965 -3,-7.48305 0,-0.58655 -1.1838,-1.51652 -2.6306,-2.06661 -1.4469,-0.55008 -3.8788,-1.88894 -5.4044,-2.97525 -3.5751,-2.54566 -7.8259,-2.49788 -15.1434,0.17023 -4.2279,1.54156 -6.7496,3.2386 -8.9606,6.0301 -3.7103,4.68464 -7.561003,6.82458 -12.280603,6.82458 -4.4574,0 -10.9987,3.37428 -13.5865,7.00849 -2.3128,3.24809 -2.6569,10.17967 -0.6946,13.99151 1.2837,2.49349 1.2891,3.57988 0.081,16.15436 -0.873,9.08904 0.108,13.29899 4.0806,17.51066 5.8009,6.14998 12.1566,9.22697 19.177903,9.2846 4.6344,0.038 6.7179,-0.42244 8.5,-1.87864 z m 132.1596,-1.50507 c 3.1893,-0.86125 5.9744,-1.56591 6.1892,-1.56591 1.2583,0 10.2883,-8.77029 11.7201,-11.38298 2.1419,-3.90879 2.2456,-8.83903 0.2662,-12.66668 -0.8391,-1.62269 -1.234,-2.95034 -0.8776,-2.95034 0.3565,0 0.1833,-0.5625 -0.3848,-1.25 -2.3135,-2.79957 -2.4458,-8.37126 -0.2987,-12.57979 2.4967,-4.89405 2.7018,-11.63018 0.489,-16.06575 -2.2422,-4.49453 -8.2154,-8.06438 -12.7834,-7.63983 -1.993,0.18522 -3.874,-0.0685 -4.1802,-0.56393 -0.3062,-0.49539 -1.4208,-0.9007 -2.477,-0.9007 -1.0563,0 -3.74,-1.97403 -5.964,-4.38673 -8.664,-9.39941 -20.3437,-10.91132 -29.2451,-3.78575 -9.7995,7.84445 -15.2451,16.56522 -16.3296,26.15092 -0.7483,6.61434 0.2179,7.53649 4.8623,4.64053 3.318,-2.06896 7.4817,-2.80516 8.3075,-1.4689 1.0325,1.67057 1.2013,7.85922 0.2307,8.45906 -1.1561,0.7145 -1.0321,6.39087 0.1396,6.39087 0.5296,0 3.2463,-0.9 6.037,-2 6.0235,-2.37425 11.2765,-2.57667 12.9992,-0.5009 1.9952,2.40408 -0.5678,7.46462 -4.1428,8.17961 -1.7467,0.34935 -2.8564,1.2076 -2.8564,2.20916 0,0.90083 -1.0125,2.08208 -2.25,2.625 -4.2138,1.84869 -2.7091,3.93775 3.3018,4.58422 6.1116,0.6573 10.5249,2.99384 11.5085,6.09303 0.8233,2.59381 -0.4274,3.76747 -6.1049,5.72918 -2.5424,0.87844 -4.6274,2.04346 -4.6335,2.58893 -0.01,0.54547 1.9441,1.74748 4.3336,2.67112 5.1027,1.97241 13.4209,1.74197 22.1433,-0.61344 z m 397.756,-52.07902 c 0.7004,-5.03359 2.405,-8.18068 4.8517,-8.95723 4.5445,-1.44237 1.7631,-6.52966 -3.57,-6.52966 -1.2202,0 -2.4723,-0.41076 -2.7826,-0.9128 -0.4858,-0.78602 -2.7274,-0.84766 -8.3492,-0.2296 -2.1695,0.2385 -0.3191,7.57115 4.5268,17.93948 2.1015,4.49619 4.6009,3.88102 5.3233,-1.31019 z m -470.6095,-1.73689 c 0.3698,-1.7875 0.7905,-4.375 0.9349,-5.75 0.3242,-3.08742 2.6456,-8 3.7803,-8 0.4617,0 0.8395,-0.5335 0.8395,-1.18555 0,-0.65205 0.9471,-2.19374 2.1048,-3.42597 2.4744,-2.63398 1.783,-4.38848 -1.7296,-4.38848 -1.3787,0 -3.3707,-0.46241 -4.4267,-1.02758 -1.4576,-0.78003 -2.9033,-0.52595 -6.0017,1.05473 -3.8132,1.94535 -4.0363,2.29245 -3.391,5.27758 0.3798,1.7574 1.8274,5.44527 3.2168,8.19527 1.5272,3.02258 2.47,6.48307 2.384,8.75 -0.1747,4.6061 1.3695,4.94346 2.2887,0.5 z m 312.0047,-17.88024 c 0.5225,-0.47837 2.0093,-0.86976 3.304,-0.86976 2.9051,0 12.9348,-5.38911 16.0365,-8.61662 1.2597,-1.31086 2.7222,-2.38338 3.25,-2.38338 0.5277,0 0.9595,-0.4539 0.9595,-1.00866 0,-0.55476 1.35,-2.87228 3,-5.15004 3.4555,-4.7702 4.0315,-10.92357 1.3773,-14.71304 -1.9323,-2.75873 -3.1018,-14.53611 -1.6248,-16.36237 1.2115,-1.49789 0.8965,-8.18681 -0.5585,-11.86254 -1.403,-3.54413 -6.3498,-5.62495 -14.694,-6.18086 -6.8747,-0.45801 -13.6401,-2.52206 -14.8887,-4.54242 -0.3481,-0.5632 -3.5227,-2.43184 -7.0548,-4.15254 -4.8061,-2.34137 -6.8792,-2.88662 -8.2392,-2.16704 -0.9995,0.52882 -4.4048,2.20013 -7.5673,3.71402 -3.1625,1.51389 -5.75,3.30733 -5.75,3.98542 0,0.67809 -1.575,2.61575 -3.5,4.30593 -1.925,1.69017 -3.5,3.76789 -3.5,4.61716 0,0.84926 -0.4122,2.32551 -0.9159,3.28055 -0.5038,0.95504 -1.6409,3.40481 -2.5268,5.44395 -0.886,2.03914 -2.0561,3.98273 -2.6004,4.3191 -0.5442,0.33637 -0.7778,0.95418 -0.519,1.37291 0.2588,0.41873 -0.1361,3.06109 -0.8776,5.87191 -1.2474,4.72862 -1.2054,5.23975 0.5617,6.83895 1.8139,1.64157 1.9827,1.63198 3.3621,-0.19101 0.7987,-1.05566 1.4666,-2.62203 1.4841,-3.48082 0.045,-2.21981 3.7701,-5.93856 5.9483,-5.93856 3.2772,0 4.3983,2.59203 3.8302,8.8561 -0.2902,3.20121 -1.1225,6.7727 -1.8494,7.93666 -1.8509,2.96386 -0.3397,3.95118 2.3566,1.53962 4.478,-4.00501 9.4816,-6.33238 13.6141,-6.33238 3.9631,0 4.132,0.128 4.132,3.13197 0,4.89115 -3.2489,9.11166 -8.6943,11.29433 -8.9543,3.58918 -8.0452,5.5737 2.5533,5.5737 4.6874,0 8.2143,0.47336 8.941,1.2 0.66,0.66 1.2,3.51 1.2,6.33333 0,2.82334 0.2652,5.39852 0.5893,5.72264 0.7876,0.78757 7.6609,-0.28772 8.8607,-1.38621 z m 134.1227,-9.13446 c -0.649,-5.19364 -0.6161,-5.28044 2.4327,-6.43125 4.1023,-1.54843 8.0837,-0.11601 10.3524,3.72449 2.2457,3.80172 3.6422,3.78557 3.6422,-0.0421 0,-3.02139 1.6282,-6.84596 3.5,-8.22112 1.769,-1.29964 7.2154,-0.81314 8.522,0.76123 0.6968,0.83959 1.364,3.20209 1.4826,5.25 0.3918,6.76605 0.4871,7.22346 1.5049,7.22346 0.5552,0 2.2427,-1.76549 3.75,-3.9233 4.0188,-5.75337 10.4513,-8.13853 11.6619,-4.32422 0.3059,0.96386 1.5205,2.35465 2.699,3.09064 2.9637,1.8509 4.7327,-0.17843 9.2761,-10.64156 4.8884,-11.25757 4.5898,-17.26535 -1.007,-20.26067 -1.3142,-0.70337 -2.3895,-1.58447 -2.3895,-1.958 0,-0.71815 -4.4465,-2.70438 -12.1588,-5.43135 -3.524,-1.24604 -5.0463,-2.46405 -6.25,-5.00054 -0.8752,-1.8443 -1.5912,-3.7649 -1.5912,-4.268 0,-0.5031 -1.8192,-1.93718 -4.0427,-3.18684 -5.8791,-3.30423 -12.725,-2.26361 -17.2157,2.61687 -7.0357,7.64654 -12.485,11.44088 -18.2416,12.7015 -1.7672,0.38699 -4.3879,2.32078 -6.3773,4.70562 l -3.3774,4.04865 0.453,10.18466 c 0.3371,7.57923 0.9266,10.94724 2.3043,13.1656 2.3311,3.75334 9.6144,11.48093 10.8208,11.48093 0.5111,0 0.6199,-2.2979 0.2493,-5.2647 z m -426.9238,1.0147 c 5.3041,-5.66826 15.1146,-20.13442 15.7674,-23.25 0.3457,-1.65 0.7851,-5.58475 0.9765,-8.7439 0.2943,-4.86052 -0.011,-6.16777 -1.983,-8.5 -6.4278,-7.60078 -9.0282,-9.2561 -14.5407,-9.2561 -4.5614,0 -6.5664,-1.56518 -7.331,-5.7229 -0.8372,-4.5524 -4.7474,-8.94453 -8.7447,-9.82247 -2.8263,-0.62076 -8.7934,1.06387 -8.7934,2.48255 0,0.382 -1.9125,1.75817 -4.25,3.05817 -2.3375,1.3 -4.925,3.11213 -5.75,4.02696 -1.5935,1.76696 -9.0767,6.78714 -12.6254,8.46987 -9.6254,4.56415 -14.0163,16.40807 -10.3835,28.00782 0.5167,1.65 1.2157,4.34507 1.5532,5.98905 1.2157,5.92049 16.4557,18.43334 16.4557,13.51095 0,-0.55 -0.366,-1 -0.8134,-1 -0.4473,0 -1.4313,-1.575 -2.1866,-3.5 -0.7553,-1.925 -1.7597,-3.5 -2.232,-3.5 -1.3047,0 0.2756,-7.25993 2.0136,-9.25 0.8406,-0.9625 2.2583,-1.75 3.1505,-1.75 2.1454,0 8.0679,5.46427 8.0679,7.44363 0,0.856 0.675,1.55637 1.5,1.55637 0.825,0 1.5,-0.55604 1.5,-1.23565 0,-0.6796 1.2043,-3.61594 2.6762,-6.52518 1.8433,-3.64313 3.4478,-5.48317 5.1548,-5.91161 2.7757,-0.69665 5.6217,0.67923 5.7604,2.78484 0.4599,6.97708 4.5304,9.35757 8.9683,5.24468 1.8216,-1.68818 3.2424,-2.19385 4.956,-1.76378 4.2814,1.07457 4.9898,2.94816 2.9034,7.67968 -1.0252,2.32486 -2.123,4.45202 -2.4397,4.72702 -1.0038,0.8717 -4.9794,6.7834 -4.9794,7.40437 0,1.62257 2.939,0.24156 5.6489,-2.65437 z"
       id="path3087"
       inkscape:connector-curvature="0" />
  </g>
</svg>
