<?xml version="1.0" encoding="UTF-8" standalone="no"?>
<!-- Created with Inkscape (http://www.inkscape.org/) -->
<svg
   xmlns:dc="http://purl.org/dc/elements/1.1/"
   xmlns:cc="http://creativecommons.org/ns#"
   xmlns:rdf="http://www.w3.org/1999/02/22-rdf-syntax-ns#"
   xmlns:svg="http://www.w3.org/2000/svg"
   xmlns="http://www.w3.org/2000/svg"
   xmlns:sodipodi="http://sodipodi.sourceforge.net/DTD/sodipodi-0.dtd"
   xmlns:inkscape="http://www.inkscape.org/namespaces/inkscape"
   id="svg2"
   sodipodi:version="0.32"
   inkscape:version="0.46"
   width="230"
   height="235.94441"
   version="1.0"
   sodipodi:docname="n_boxy_flower.svg"
   inkscape:output_extension="org.inkscape.output.svg.inkscape">
  <metadata
     id="metadata7">
    <rdf:RDF>
      <cc:Work
         rdf:about="">
        <dc:format>image/svg+xml</dc:format>
        <dc:type
           rdf:resource="http://purl.org/dc/dcmitype/StillImage" />
      </cc:Work>
    </rdf:RDF>
  </metadata>
  <defs
     id="defs5">
    <inkscape:perspective
       sodipodi:type="inkscape:persp3d"
       inkscape:vp_x="0 : 526.18109 : 1"
       inkscape:vp_y="0 : 1000 : 0"
       inkscape:vp_z="744.09448 : 526.18109 : 1"
       inkscape:persp3d-origin="372.04724 : 350.78739 : 1"
       id="perspective9" />
  </defs>
  <sodipodi:namedview
     inkscape:window-height="756"
     inkscape:window-width="1222"
     inkscape:pageshadow="2"
     inkscape:pageopacity="1"
     guidetolerance="10.0"
     gridtolerance="10.0"
     objecttolerance="10.0"
     borderopacity="1.0"
     bordercolor="#666666"
     pagecolor="#ffffff"
     id="base"
     showgrid="false"
     inkscape:zoom="0.73020528"
     inkscape:cx="367.33223"
     inkscape:cy="159.56696"
     inkscape:window-x="-1"
     inkscape:window-y="0"
     inkscape:current-layer="svg2"
     showguides="true"
     inkscape:guide-bbox="true"
     borderlayer="true" />
  <rect
     style="opacity:1;fill:#ffffff;fill-opacity:1;stroke:#ffffff;stroke-width:0.5;stroke-linecap:square;stroke-miterlimit:4;stroke-dasharray:none;stroke-dashoffset:0;stroke-opacity:1"
     id="rect2401"
     width="1463.9719"
     height="909.33331"
     x="-329.56741"
     y="-618.1507" />
  <path
     style="fill:#000000"
     d="M 118.2997,234.646 C 117.8599,233.9013 116.5207,232.7782 115.3238,232.1503 C 112.8779,230.8671 107,222.6464 107,220.5089 C 107,218.3884 105.2794,217.7801 102.8935,219.057 C 101.7122,219.6892 100.4654,219.8225 100.1229,219.3532 C 99.7803,218.884 98.15,218.4328 96.5,218.3507 C 94.85,218.2686 93.0783,218.1561 92.5629,218.1007 C 92.0475,218.0453 92.835,216.7379 94.3129,215.1953 C 95.7908,213.6527 97,211.8466 97,211.1817 C 97,210.5168 97.3975,209.1915 97.8834,208.2364 C 98.9559,206.1281 100.5775,202.2094 101.4986,199.5 C 102.0951,197.7456 102.4478,196.1968 103.2929,191.6213 C 103.4068,191.0046 103.7728,190.275 104.1061,190 C 104.4395,189.725 104.9886,186.575 105.3263,183 C 105.6641,179.425 105.6164,177.1931 105.2202,178.0403 C 104.8241,178.8875 103.3392,181.1375 101.9204,183.0403 C 98.8458,187.164 93.3281,200.2731 92.888,204.5 C 92.513,208.1016 91.2729,210 89.2953,210 C 87.4997,210 79.2304,201.5549 76.4807,196.9129 C 75.37,195.038 73.795,193.501 72.9807,193.4974 C 71.3437,193.49 67.129,191.2934 65.4877,189.5921 C 63.0135,187.0274 60,182.0678 60,180.5604 C 60,178.9642 57.524,174.5051 55.513,172.4798 C 54.9559,171.9188 53.4244,171.5228 52.1098,171.6 C 49.4125,171.7584 47.3649,170.3571 41.3701,164.25 C 39.0755,161.9125 36.6878,160 36.0639,160 C 35.4401,160 33.708,159.2331 32.2148,158.2958 C 29.1325,156.3608 21.7117,150 22.5366,150 C 22.8348,150 22.4986,149.3722 21.7895,148.605 C 21.0803,147.8377 20.201,147.3905 19.8354,147.6112 C 19.4699,147.8319 18.9806,147.4472 18.7481,146.7562 C 18.4092,145.7493 18.0216,145.7505 16.7953,146.7623 C 14.2966,148.824 12.68,145.6966 12.3606,138.1835 C 12.1239,132.6136 11.6953,131.196 9.7883,129.6754 C 5.767,126.469 0,120.8545 0,120.1459 C 0,119.49 7.9441,112.8887 11.0243,110.985 C 11.8838,110.4538 12.5247,108.4917 12.5591,106.2865 C 12.6742,98.9141 14.0428,94 15.9809,94 C 16.9737,94 18.0279,94.6301 18.3234,95.4003 C 19.1641,97.5911 29.507,104.0474 34.6607,105.5984 C 39.7592,107.1328 47,107.4772 47,106.1852 C 47,105.7371 45.5375,104.6167 43.75,103.6954 C 41.9625,102.7742 38.2288,100.7479 35.4529,99.1926 C 32.677,97.6373 29.8645,96.5452 29.2029,96.7657 C 28.5413,96.9862 28,96.7077 28,96.1467 C 28,95.5857 26.5412,94.9857 24.7582,94.8134 C 20.561,94.4077 20.1931,92.3061 23.4551,87.3688 C 26.97,82.0485 29.0258,79.7985 32.2947,77.6943 C 33.8317,76.7049 35.4739,74.9064 35.944,73.6977 C 37.4287,69.8804 46.8527,62.6362 49.7198,63.1084 C 52.8632,63.626 53.7842,62.5964 55.408,56.75 C 56.8165,51.6789 58.075,49.602 62.0799,45.7392 C 66.5427,41.4348 67.6987,39.3348 67.9257,35.1204 C 67.9666,34.3617 70.5602,31.2413 73.6893,28.1863 L 79.3785,22.6318 L 80.7099,28.0659 C 82.544,35.5516 82.3766,35.1005 84.7663,39 C 86.7839,42.2923 92.9567,51.1825 95.7692,54.8466 C 99.6233,59.8677 91.7116,32.3934 87.6102,26.5135 C 86.4645,24.8709 84.7335,22.7334 83.7635,21.7635 C 80.6029,18.6029 81.2157,18.1837 91.5,16.4711 C 92.05,16.3796 93.0079,16.2361 93.6287,16.1523 C 94.2495,16.0685 95.3311,14.5375 96.0323,12.75 C 97.6098,8.7288 105.842,1.1657342e-14 108.0569,1.1657342e-14 C 110.7934,1.1657342e-14 114.7143,4.2192 117.0942,9.7248 C 118.9535,14.0259 119.7194,14.8675 121.4264,14.4852 C 127.0632,13.2229 129.3331,13.2412 132.5254,14.575 C 134.4364,15.3735 136,16.2522 136,16.5275 C 136,16.8029 133.975,19.5144 131.5,22.553 C 129.025,25.5917 127,28.8703 127,29.8389 C 127,30.8075 126.607,32.0275 126.1266,32.55 C 125.2019,33.5558 122,48.6632 122,52.0203 C 122,54.4694 123.5503,54.6143 124.4576,52.25 C 124.8269,51.2875 124.9876,50.4802 124.8146,50.456 C 124.6416,50.4318 125.2163,49.3068 126.0918,47.956 C 127.4982,45.7862 128.4827,43.0423 129.6643,38 C 129.8576,37.175 130.3501,34.0375 130.7586,31.0278 C 131.3858,26.4082 131.813,25.5744 133.5008,25.6766 C 136.6726,25.8688 140,27.1482 140,28.1756 C 140,28.694 140.4279,28.8536 140.9509,28.5303 C 141.474,28.2071 143.564,30.541 145.5956,33.7168 C 149.3719,39.6202 150.645,40.9073 154.9696,43.1941 C 158.2463,44.9267 160.1162,46.8339 162.8067,51.1873 C 165.0213,54.7705 167.4396,56.4644 168.9809,55.5118 C 169.4211,55.2398 170.5159,56.1383 171.4137,57.5086 C 172.6881,59.4536 173.8951,60 176.9173,60 C 179.8542,60 181.4778,60.6947 183.6443,62.8783 C 187.3074,66.5703 189.2346,69 188.5,69 C 188.1817,69 188.499,69.6186 189.2053,70.3747 C 189.9116,71.1308 190.9506,71.5725 191.5141,71.3562 C 193.4522,70.6125 201.7334,80.2954 202.3987,84.0831 C 202.955,87.2502 202.7307,87.8017 200.467,88.8331 C 199.0584,89.4749 197.1131,90 196.1441,90 C 195.1751,90 193.5088,90.6607 192.4412,91.4682 C 191.3735,92.2757 189.5141,92.9507 188.309,92.9682 C 187.104,92.9857 185.8116,93.4959 185.437,94.102 C 185.0624,94.7082 183.3483,95.8642 181.6279,96.671 C 175.4401,99.5731 173,101.127 173,102.1659 C 173,103.8151 180.1902,102.1261 182.5645,99.919003 C 183.6999,98.8636 185.5224,98 186.6145,98 C 187.7065,98 189.0474,97.5526 189.5942,97.0058 C 190.141,96.459 191.806,95.9109 193.2942,95.7877 C 194.7824,95.6646 196,95.2119 196,94.7819 C 196,94.3519 196.5088,94 197.1306,94 C 197.7524,94 200.4885,92.3998 203.2107,90.4441 C 209.7964,85.7127 211.2208,86.7299 210.8852,95.9244 L 210.6453,102.5 L 214.5726,103.1026 C 216.7327,103.434 219.6504,104.1772 221.0564,104.7542 C 224.5509,106.1882 230,110.8902 230,112.4714 C 230,114.1215 218.4587,121.6424 214.5,122.572 C 210.0746,123.6113 210.0771,123.6058 211.6144,128.7137 C 213.1035,133.6618 213.1818,140 211.7538,140 C 211.2932,140 210.0276,139.172 208.9413,138.1599 C 207.0033,136.3544 203.9695,134.7033 199,132.7495 C 197.625,132.209 195.6942,131.3539 194.7093,130.8495 C 193.7245,130.345 192.5181,130.1798 192.0284,130.4824 C 191.5388,130.785 190.8556,130.5753 190.5101,130.0163 C 190.1646,129.4573 188.1085,129 185.941,129 C 183.7735,129 182,128.6506 182,128.2236 C 182,127.7965 180.2,127.6188 178,127.8286 C 175.8,128.0384 174,128.5517 174,128.9692 C 174,129.7889 182.6691,133.3546 183.3675,132.8222 C 183.5999,132.645 184.7845,133.4 186,134.5 C 187.2155,135.6 188.5003,136.4072 188.855,136.2937 C 190.0965,135.8966 194,137.2245 194,138.044 C 194,138.4989 196.7,138.784 200,138.6774 C 203.3,138.5709 206,138.8664 206,139.3341 C 206,139.8019 205.1,141.3287 204,142.7271 C 202.9,144.1256 201.997,145.7715 201.9932,146.3849 C 201.9894,146.9982 200.3889,148.588 198.4365,149.9177 C 196.4841,151.2475 194.2658,153.8215 193.5069,155.6378 C 190.6002,162.5946 182.8361,168.9361 176.7569,169.3188 C 174.9643,169.4317 173.6803,172.4455 172.5491,179.196 C 172.0924,181.9208 170.7195,183.9572 167.3241,186.946 C 164.791,189.1757 162.0802,191 161.3002,191 C 160.5202,191 160.1242,191.3919 160.4203,191.8709 C 161.0172,192.8368 159.3229,194.979 151.8158,202.75 C 149.0263,205.6375 146.097,208 145.3063,208 C 142.3228,208 139.9999,205.9101 139.9876,203.2148 C 139.9808,201.7217 138.8312,196.45 137.4329,191.5 C 136.0347,186.55 134.7177,181.7211 134.5064,180.7691 C 134.039,178.6632 130.7918,174.0749 129.7382,174.0314 C 129.042,174.0027 129.1669,175.8978 130.4282,184.5 C 130.6702,186.15 131.3739,189.075 131.9921,191 C 132.6102,192.925 133.3416,195.6113 133.6174,196.9694 C 134.3245,200.4522 137.9405,206.9639 141.131,210.5 C 144.4995,214.2332 143.3539,215.64 137.012,215.558 C 133.2818,215.5097 132.4726,215.836 132.1961,217.5 C 131.4939,221.7244 127.4939,230.6207 125.1145,233.25 C 122.4239,236.2232 119.5758,236.8066 118.2997,234.646 z M 124.8236,229.5651 C 127.7454,225.2852 129.939,218.1317 129.321,214.8989 C 128.9415,212.9136 129.2563,212.4286 130.9244,212.4286 C 132.066,212.4286 133,212.7821 133,213.2143 C 133,214.1518 137.3918,214.2749 138.3038,213.3629 C 138.6542,213.0125 138.0542,211.4805 136.9705,209.9585 C 135.8867,208.4365 135,206.7533 135,206.2181 C 135,205.6828 134.3394,204.6966 133.532,204.0265 C 132.7246,203.3564 132.1234,202.5138 132.196,202.1541 C 132.406,201.1143 130.7996,195.5995 129.9666,194.5 C 129.5498,193.95 128.881,191.25 128.4803,188.5 C 128.0796,185.75 127.6201,182.6 127.4592,181.5 C 127.2983,180.4 127.1292,178.2625 127.0834,176.75 C 127.0237,174.7803 126.4798,174 125.1667,174 C 122.4682,174 122.3535,174.3747 123.1124,180.7076 C 124.3659,191.1686 125.0293,194.4587 126.5314,197.6662 C 128.3807,201.6148 127.4577,204.3807 122.4358,209.9394 C 119.06,213.676 116.4414,214.6194 117.5637,211.6947 C 117.8256,211.0121 116.7935,209.9169 115.27,209.2611 C 109.608,206.8236 106.3589,204.4201 106.7662,202.9704 C 106.9934,202.1617 107.7622,200.15 108.4746,198.5 C 109.187,196.85 110.2309,193.925 110.7945,192 C 111.3581,190.075 112.3099,186.8931 112.9096,184.929 C 114.4759,179.7995 114.2861,175.047 112.4873,174.3567 C 109.8933,173.3613 108.4487,175.6741 108.2193,181.1898 C 108.0977,184.1104 107.2685,188.75 106.3766,191.5 C 101.5758,206.3017 100.7268,208.7617 99.4225,211.6511 C 97.2739,216.4109 97.559,216.7959 102.9708,216.4435 L 107.9416,216.1197 L 110.582,222.0033 C 112.0342,225.2392 114.3525,228.6998 115.7339,229.6934 C 117.1152,230.687 118.7503,232.0061 119.3674,232.6247 C 120.9256,234.1865 122.1295,233.5114 124.8236,229.5651 z M 122.5164,206.25 C 125.3419,203.0398 125.5162,201.4797 123.57,196.8217 C 122.1056,193.317 121.2278,188.5528 120.322,179.1951 C 119.9114,174.9522 119.4774,173.954 118.1543,174.2088 C 116.9261,174.4453 116.4761,175.683 116.4071,179.0137 C 116.356,181.4812 115.8317,184.6662 115.2421,186.0915 C 114.6525,187.5168 113.9551,190.047 113.6923,191.7142 C 113.4296,193.3815 112.4188,196.4225 111.4462,198.4721 L 109.6778,202.1987 L 113.0889,205.5463 C 117.2751,209.6546 119.3815,209.8118 122.5164,206.25 z M 91.4082,200.75 C 93.6156,192.8033 99.7381,181.2768 104.4658,176.167 L 108.1278,172.2091 L 117.8139,172.1027 C 145.4862,171.7985 169.498,170.8316 170.5237,169.9803 C 171.2383,169.3873 171.5421,166.8212 171.3192,163.2605 C 171.1208,160.0922 170.7137,137.025 170.4145,112 C 170.1152,86.975 169.4664,64.9672 168.9727,63.0938 C 168.479,61.2205 168.3103,59.307 168.5979,58.8417 C 169.2502,57.7862 120.7133,58.2126 119.9291,59.2693 C 119.4393,59.9292 100.024,60.526 66.8174,60.9018 C 58.7459,60.9931 58.0817,61.1583 57.3803,63.25 C 56.5312,65.7822 56.8571,112.9597 57.7335,114.3778 C 58.3899,115.4399 58.7958,126.7776 59.0147,150.1672 C 59.176,167.4007 60.3404,175.7219 62.3762,174.1896 C 62.9943,173.7244 66.875,173.4183 71,173.5093 C 75.4613,173.6078 78.8039,173.2342 79.25,172.5874 C 79.769,171.835 80.2696,171.9179 80.875,172.8568 C 81.3809,173.6411 82.0005,173.8082 82.3438,173.2529 C 83.1378,171.9681 105.6633,172.1834 105,173.4694 C 104.725,174.0026 101.575,174.4698 98,174.5076 C 71.2346,174.7904 71,174.8151 71,177.347 C 71,182.1815 77.3127,185.7381 80.0466,182.4438 C 81.6224,180.5451 82.9442,181.4975 82.2766,184.0505 C 81.621,186.5575 84.8251,194 86.5601,194 C 87.251,194 89.7747,190.0985 92.1681,185.33 C 94.5616,180.5615 97.078,176.474 97.76,176.2467 C 99.5768,175.6411 99.2733,177.8064 97.1154,180.8456 C 96.0789,182.3055 94.0835,186.2 92.6813,189.5 C 90.2693,195.1765 89.9554,195.4908 86.8612,195.3303 C 83.2803,195.1445 81.1924,193.0464 80.3129,188.75 C 79.8344,186.412 79.2502,186 76.414,186 C 72.233,186 69.0003,182.7569 68.9993,178.5614 C 68.9987,176.0364 68.5787,175.4759 66.6021,175.3622 C 60.51,175.0119 62.4024,184.9605 69.1686,188.8546 C 71.2188,190.0346 73.7893,191 74.8808,191 C 76.0615,191 77.1532,191.9113 77.5761,193.25 C 77.9671,194.4875 79.1224,196.088 80.1435,196.8067 C 81.1646,197.5254 82,198.629 82,199.2591 C 82,200.4664 87.9355,207 89.0322,207 C 89.3842,207 90.4534,204.1875 91.4082,200.75 z M 65.8778,160.3106 C 65.6881,148.1974 65.1976,115.7903 64.8318,91.2079 L 64.5,68.9158 L 82.5,68.4614 C 119.2494,67.5335 140.6596,66.9159 146.2893,66.6212 C 149.4734,66.4545 152.2669,66.6227 152.497,66.9951 C 152.9966,67.8034 156.1166,67.664 157.5654,66.7686 C 158.1319,66.4185 159.249,66.5358 160.0478,67.0293 C 161.2059,67.7449 161.52,70.9755 161.5986,82.9786 C 161.6528,91.2571 161.9281,98.2614 162.2103,98.5436 C 162.4926,98.8259 162.4967,101.4065 162.2196,104.2784 C 161.9425,107.1503 161.7484,112.2 161.7883,115.5 C 161.9549,129.2976 161.8165,149.8772 161.5226,155 C 161.3491,158.025 161.1605,161.5055 161.1036,162.7345 C 161.0025,164.9145 160.7137,164.969 149.25,164.9684 C 136.3687,164.9677 102.1035,165.9362 97.7882,166.4229 C 96.2966,166.5911 94.8684,166.2273 94.6143,165.6144 C 94.3107,164.8821 93.869,164.8429 93.3262,165.5 C 92.8718,166.05 89.8,166.5307 86.5,166.5682 C 83.2,166.6057 77.2375,166.9705 73.25,167.3788 L 66,168.1211 L 65.8778,160.3106 z M 106.7911,163.5177 C 106.9512,163.3711 106.0003,161.9571 104.678,160.3756 C 103.3556,158.794 101.9568,156.4875 101.5695,155.25 C 101.1821,154.0125 100.2321,153 99.4583,153 C 96.6211,153 94.7282,147.1258 95.458,140.5858 C 96.006,135.6748 95.8922,134.7413 94.8686,135.75 C 94.1709,136.4375 92.79,137 91.8,137 C 90.81,137 90,137.45 90,138 C 90,138.55 87.7056,139 84.9012,139 C 80.4882,139 79.4128,138.5828 76.9051,135.8983 C 75.3115,134.1924 74.2165,132.4587 74.4718,132.0457 C 75.2949,130.7138 72.5823,128.1294 69.6066,127.4103 L 66.7131,126.7112 L 67.3868,133.6056 C 67.7574,137.3975 68.0745,145.1628 68.0916,150.8618 C 68.1088,156.5608 68.6027,161.9922 69.1893,162.9314 C 70.1479,164.4664 72.0896,164.5959 88.3779,164.2117 C 98.3451,163.9766 106.631,163.6643 106.7911,163.5177 z M 145.4951,162.5484 C 152.2694,162.1726 156.9759,161.4527 157.7554,160.6732 C 159.1811,159.2475 160.4776,122.4132 159.1314,121.5812 C 158.7094,121.3204 157.2531,122.0954 155.8952,123.3035 C 154.5372,124.5116 152.7721,125.6486 151.9726,125.8302 C 150.1158,126.2519 148.8928,128.1496 149.4669,129.718 C 149.7121,130.3879 149.475,131.2065 148.94,131.5371 C 148.4051,131.8677 148.1891,132.497 148.4601,132.9355 C 148.7311,133.3739 148.0835,134.5194 147.0211,135.481 C 145.0943,137.2247 143.9863,137.2218 135.3624,135.4504 L 132.2247,134.806 L 132.3624,141.3293 C 132.5129,148.4645 130.2123,153.2127 126.3214,153.7971 C 124.5,154.0706 121,159.9786 121,162.7798 C 121,163.5166 123.2597,163.7654 127.75,163.523 C 131.4625,163.3225 139.4478,162.8839 145.4951,162.5484 z M 118.2651,160.197 C 119.236,159.3531 120.3896,157.2761 120.8287,155.5813 C 121.2679,153.8866 122.2736,152.5046 123.0636,152.5103 C 123.8536,152.516 125.7375,151.2826 127.25,149.7694 C 132.295,144.7222 130.6815,135.0963 123.5474,127.6803 C 120.5285,124.5421 119.6109,124.0781 118.4043,125.0794 C 116.8543,126.3658 117.1207,133.6063 118.8305,136.6615 C 120.2901,139.2698 118.9696,142.6167 114.9948,146.3833 C 110.7725,150.3843 110,150.7116 110,148.5 C 110,147.675 109.6404,147 109.2009,147 C 107.3984,147 106.0073,140.459 107.0652,136.9575 C 109.7761,127.9842 110.5495,123.6283 109.3441,124.1226 C 107.1213,125.0341 100.177,133.8144 99.1594,137 C 96.6305,144.9167 97.6769,151 101.5674,151 C 102.9053,151 104.0686,151.5625 104.1523,152.25 C 104.723,156.9334 106.0826,159.5348 108.8085,161.1589 C 111.7913,162.936 115.5546,162.5532 118.2651,160.197 z M 115.0005,143.2723 C 116.525,141.3342 116.9552,139.8144 116.4868,138.0223 C 116.1241,136.635 115.5287,133.025 115.1637,130 C 114.7934,126.9308 114.0678,124.721 113.522,125 C 112.984,125.275 112.4452,125.95 112.3245,126.5 C 112.2038,127.05 111.8388,128.85 111.5133,130.5 C 111.1878,132.15 110.6292,134.4 110.2718,135.5 C 109.0586,139.2351 109.0373,140.4962 110.1407,143.25 C 111.5195,146.691 112.3085,146.6946 115.0005,143.2723 z M 87,137 C 87,136.45 88.3993,136 90.1096,136 C 92.5724,136 94.5647,134.6936 99.688,129.719 C 105.9593,123.6297 106.1177,123.3524 104.8794,120.6347 C 103.773,118.2064 103.194,117.9118 100.5511,118.4324 C 98.873,118.7629 96.825,119.099 96,119.1793 C 95.175,119.2595 94.05,119.8917 93.5,120.5842 C 92.95,121.2768 90.8595,122.511 88.8544,123.327 C 85.2615,124.7893 85.1652,124.7651 82.1861,121.6553 L 79.1633,118.5 L 82.9454,114.2749 L 86.7275,110.0498 L 90.9423,112.0862 C 93.2604,113.2062 96.1342,113.9964 97.3285,113.8421 C 98.5229,113.6879 100.0115,113.8804 100.6367,114.2698 C 101.2619,114.6593 102.3812,114.2456 103.1241,113.3505 C 104.3072,111.9249 103.8014,111.1198 99.047,106.8615 C 96.0617,104.1877 92.8314,102 91.8686,102 C 90.9058,102 89.8425,101.5542 89.5058,101.0093 C 89.169,100.4644 87.1704,100.0861 85.0644,100.1686 C 80.728,100.3385 77.5967,103.4807 77.3615,107.8984 C 77.2853,109.3293 77.1728,111.0928 77.1115,111.8174 C 77.0438,112.6174 76.2903,112.9095 75.193,112.5612 C 73.999,112.1823 72.43,112.9855 70.5683,114.9288 C 68.2901,117.3067 67.8851,118.4089 68.4532,120.6849 C 69.4119,124.526 71.8416,127 74.655,127 C 76.578,127 77,127.5239 77,129.9111 C 77,131.9342 77.9386,133.612 80.0768,135.4111 C 83.1545,138.0009 87,138.8834 87,137 z M 145.2589,132.6152 C 145.6762,132.0018 146.2763,130.375 146.5924,129 C 147.6516,124.3923 148.0099,123.7898 149.379,124.3152 C 150.1281,124.6026 152.3961,123.4736 154.4189,121.8063 C 157.8816,118.952 158.0793,118.4786 157.7984,113.7132 C 157.5378,109.2918 157.1206,108.4299 154.5,106.8989 C 152.85,105.9349 150.4875,105.1133 149.25,105.0731 C 147.5967,105.0194 147,104.396 147,102.7225 C 147,101.4699 146.2651,99.3957 145.3668,98.1133 C 144.0225,96.194 143.1235,95.8805 140.285,96.3412 C 134.2298,97.3238 128.153,100.9601 124.8276,105.5906 C 123.0859,108.0158 121.2385,110 120.7221,110 C 119.1733,110 120.9726,104.6859 123.4308,102 C 128.8883,96.0371 130.3708,88.691 127.3861,82.4011 C 126.0191,79.5204 125.2541,79 122.3861,79 C 119.5511,79 118.9946,78.6338 118.9668,76.75 C 118.9041,72.5151 115.9521,70.3256 110.2268,70.2676 C 107.3602,70.2386 105.263,70.6165 105.5664,71.1074 C 105.8698,71.5983 105.7248,72 105.2443,72 C 104.7637,72 103.6194,73.575 102.7014,75.5 C 101.7834,77.425 100.3501,79 99.5162,79 C 98.6823,79 98,79.45 98,80 C 98,80.55 97.3354,81 96.5231,81 C 94.2601,81 91.6659,85.7319 91.8111,89.5949 C 91.957,93.4756 96.2396,100.3454 102.2464,106.3342 C 105.578,109.6558 106.3199,109.9945 107.7961,108.8672 C 108.7332,108.1515 109.6444,107.4817 109.8209,107.3788 C 110.5542,106.951 105.8357,93 104.9577,93 C 102.9603,93 104.1133,89.974 106.75,88.2962 C 108.2625,87.3337 109.7889,86.138 110.1419,85.6391 C 110.5011,85.1314 112.5814,85.5616 114.8661,86.616 C 117.8057,87.9726 118.9557,89.1133 118.9742,90.691 C 118.9884,91.896 118.5892,93.1359 118.087,93.4462 C 117.2479,93.9648 115.5007,101.6298 116.0835,102.2356 C 116.2235,102.381 115.7925,103.5192 115.1259,104.7648 C 114.0925,106.6957 114.1782,107.1271 115.7069,107.6903 C 116.6931,108.0537 118.491,109.397 119.7023,110.6755 C 120.9135,111.954 122.5853,113 123.4173,113 C 125.2105,113 133.5714,110.3602 136.7051,108.8047 C 138.6203,107.854 139.3961,108.1961 142.6072,111.4072 L 146.3042,115.1042 L 142.4021,119.1181 C 138.2677,123.371 137.0187,123.5619 130.5,120.9379 C 125.2518,118.8253 123,118.8945 123,121.1685 C 123,123.2822 130.8222,131.9464 133.1621,132.4245 C 133.898,132.5749 135.175,132.9552 136,133.2697 C 139.5682,134.63 140.6119,134.7916 142.5,134.2763 C 143.6,133.9761 144.8415,133.2286 145.2589,132.6152 z M 120.1084,120.8589 C 122.6358,116.8699 117.9459,110 112.6953,110 C 106.8098,110 104.0182,117.9391 108.6244,121.5772 C 110.9012,123.3755 118.828,122.8797 120.1084,120.8589 z M 91.254,119.7706 C 96.2996,117.3862 96.899,115.7254 92.9217,115.1492 C 91.5898,114.9562 90.1753,114.2812 89.7785,113.6492 C 88.4234,111.4909 85.5202,114.4658 85.1897,118.3513 C 85.019,120.3581 85.244,122.0039 85.6897,122.0086 C 86.1354,122.0133 88.6393,121.0062 91.254,119.7706 z M 140.281,112.8366 C 138.7379,111.2934 137.7314,110.9515 136.8046,111.6554 C 136.0871,112.2003 134.3817,112.7058 133.0148,112.7786 C 131.648,112.8515 130.3845,113.3466 130.2071,113.8789 C 130.0296,114.4111 128.8397,114.6572 127.5628,114.4256 C 126.2629,114.1899 124.694,114.6638 123.9981,115.5023 C 122.9624,116.7503 123.0992,117 124.8186,117 C 125.9534,117 127.1748,117.4738 127.5326,118.0528 C 127.8905,118.6318 128.7046,118.9289 129.3417,118.713 C 129.9788,118.4971 131.85,118.896 133.5,119.5995 C 136.2897,120.7888 136.7087,120.6727 139.4765,117.9435 L 142.453,115.0085 L 140.281,112.8366 z M 72.2305,110.8273 C 73.7322,110.0973 74.8815,109.05 74.7844,108.5 C 74.1632,104.9804 79.1856,97.7503 81.6065,98.6792 C 82.3729,98.9733 83,98.6893 83,98.048 C 83,97.3886 83.5272,97.2078 84.2133,97.6318 C 85.5618,98.4652 92,99.2965 92,98.6372 C 92,98.4069 91.1567,96.3347 90.1259,94.0323 C 87.3547,87.8428 88.7705,83.5158 95.0425,79.0052 C 100.1741,75.3149 102.7227,71.5647 100.8751,70.4228 C 99.0534,69.2969 67.5759,71.0698 66.7782,72.3432 C 66.3797,72.9794 66.3035,75.3 66.609,77.5 C 66.9145,79.7 67.1284,88.6353 67.0842,97.3562 C 67.0219,109.6676 67.283,113.0942 68.252,112.6835 C 68.9384,112.3925 70.7287,111.5572 72.2305,110.8273 z M 159.1244,88.7103 C 158.9566,78.7038 158.5936,70.1513 158.3176,69.7048 C 157.4975,68.3779 120.6999,69.4004 120.2458,70.7627 C 119.5886,72.7342 121.6049,75.2594 125.6397,77.5182 C 127.7629,78.7068 129.275,79.9073 129,80.186 C 128.725,80.4646 129.1533,81.4797 129.9517,82.4418 C 131.8996,84.7888 132.1233,90.8271 130.3951,94.4123 C 128.6055,98.1252 129.2443,98.7252 132.627,96.5088 C 134.1062,95.5396 137.4444,94.608 140.0452,94.4386 C 143.8693,94.1896 145.1593,94.5487 146.7872,96.3153 C 147.8945,97.5169 148.9638,99.3993 149.1636,100.4984 C 149.3675,101.6203 151.1324,103.2529 153.187,104.2203 C 155.2002,105.1682 157.1517,106.4364 157.5238,107.0384 C 159.0939,109.5789 159.4131,105.9239 159.1244,88.7103 z M 114.3954,96.4044 C 114.558,95.2519 115.0064,93.7987 115.3918,93.1751 C 116.2895,91.7226 114.5359,88.4196 112.44,87.6153 C 111.4371,87.2305 110.1505,87.8276 109.0474,89.1898 C 107.3449,91.2923 107.3449,91.575 109.0473,95.9421 C 110.0245,98.4489 111.144,101.4 111.5352,102.5 C 112.1699,104.2845 112.3463,104.1768 113.1731,101.5 C 113.6828,99.850003 114.2328,97.557 114.3954,96.4044 z M 150.5654,200.2767 C 153.1632,197.679 155.9047,194.079 156.6578,192.2767 C 157.5112,190.2342 158.7297,189 159.8929,189 C 162.3584,189 169.7785,181.731 170.5823,178.5281 C 171.3042,175.6518 170.5571,173 169.0248,173 C 168.4539,173 166.9773,174.1867 165.7434,175.637 C 161.3614,180.788 157.6545,183.8046 156.3311,183.2968 C 155.497,182.9767 154.4547,184.0609 153.5771,186.1612 C 151.5183,191.0887 148.4592,193.626 146.5188,192.0156 C 145.6835,191.3223 145,189.8657 145,188.7787 C 145,185.8394 141.8788,179.7493 139.3288,177.7132 C 138.098,176.7305 137.3311,175.3008 137.6245,174.5362 C 138.0087,173.5351 137.576,173.2981 136.079,173.6896 C 133.5824,174.3425 133.5729,174.4184 135.6002,177.5126 C 136.4804,178.8558 137.5664,181.4275 138.0136,183.2274 C 138.4608,185.0273 139.5407,189.1095 140.4134,192.2988 C 141.286,195.4881 142,199.1106 142,200.3488 C 142,202.5331 143.6554,205 145.1211,205 C 145.5177,205 147.9676,202.8745 150.5654,200.2767 z M 151.3545,183.9776 C 151.8026,181.7372 152.5133,180.9911 154.225,180.964 C 157.5346,180.9117 162.449,176.6124 161.6322,174.4839 C 161.2055,173.3718 160.2801,172.955 158.9879,173.2929 C 157.8946,173.5788 157,173.3498 157,172.7839 C 157,172.1313 156.5429,172.0953 155.75,172.6855 C 155.0625,173.1972 153.375,173.4678 152,173.2867 C 147.9065,172.7477 142.3647,173.302 141.3107,174.356 C 141.0288,174.6379 141.9335,176.3607 143.3212,178.1843 C 144.7089,180.0079 146.1666,182.85 146.5604,184.5 C 146.9543,186.15 147.4794,187.8594 147.7273,188.2986 C 148.5192,189.7014 150.7385,187.0577 151.3545,183.9776 z M 56.3984,157.7057 C 56.0899,150.9949 55.6717,145.3384 55.469,145.1357 C 55.0297,144.6963 44.0417,149.0116 42.25,150.3271 C 40.3558,151.7179 40.7073,152.3822 44.1423,153.9027 C 45.8739,154.6692 47.7381,156.4952 48.2949,157.9702 C 48.8506,159.4424 50.5865,161.214 52.1526,161.9072 C 55.3101,163.3049 55.7722,164.4897 53.5,165.3616 C 52.675,165.6782 52,165.5014 52,164.9686 C 52,164.4359 51.5089,164 50.9085,164 C 50.3082,164 48.0046,161.975 45.7895,159.5 C 43.5743,157.025 41.282,155 40.6954,155 C 39.3504,155 35,150.9659 35,149.7187 C 35,149.2057 35.6991,149.0543 36.5535,149.3821 C 37.4203,149.7148 39.058,149.0923 40.2583,147.9741 C 41.4415,146.8717 42.8774,146.1258 43.4492,146.3164 C 44.021,146.507 46.9663,145.658 49.9944,144.4297 C 53.985,142.811 55.5906,141.5991 55.8291,140.0255 C 56.5816,135.0612 55.4429,134.923 47.3762,138.9999 C 43.1282,141.1468 39.2808,142.6735 38.8263,142.3927 C 38.3719,142.1118 38,142.3585 38,142.941 C 38,143.5234 37.2125,144.0068 36.25,144.0151 C 33.8601,144.0356 27.1755,146.4245 25.8784,147.7216 C 25.1353,148.4647 25.5163,149.5838 27.1605,151.4872 C 29.6398,154.3571 36.8236,158.5097 37.7342,157.5992 C 38.0314,157.302 40.7404,159.5645 43.7543,162.6269 C 48.9211,167.8769 54.5705,171.3835 56.2197,170.3642 C 56.6264,170.1129 56.7068,164.4165 56.3984,157.7057 z M 180.3685,166 C 182.3292,166 188.6811,158.8433 190.3658,154.7359 C 191.215,152.6657 192.7175,150.6668 193.7049,150.2939 C 196.5285,149.2275 201.0006,144.3397 200.9944,142.3269 C 200.9899,140.8844 200.1356,140.4676 196.9338,140.3462 C 191.3462,140.1343 181.2675,136.0806 176.813,132.2535 C 174.7282,130.4623 173,131.3966 173,134.3149 C 173,135.9721 174.2016,137.0629 177.8918,138.7559 C 180.5823,139.9901 183.4807,141 184.3328,141 C 185.1848,141 186.1714,141.4683 186.5252,142.0407 C 186.8789,142.613 188.0305,142.8077 189.0842,142.4733 C 191.973,141.5564 191.3971,143.4366 187.5345,147.5321 C 185.6284,149.5532 184.1604,151.4977 184.2722,151.8534 C 184.3841,152.209 183.8786,153.9273 183.1489,155.6717 C 182.1419,158.0792 180.9402,159.0506 178.1611,159.7035 C 174.9444,160.4591 174.4607,160.9718 174.1758,163.9269 C 173.8062,167.762 175.6127,169.5302 177.7336,167.4092 C 178.5087,166.6342 179.6944,166 180.3685,166 z M 177.7111,158.1997 C 178.3773,157.7764 179.8166,155.4208 180.9096,152.965 C 182.0026,150.5093 183.8624,147.9072 185.0426,147.1827 C 187.0854,145.9286 187.1055,145.774 185.4605,143.9563 C 184.5102,142.9063 183.3561,142.2799 182.8957,142.5644 C 182.4354,142.849 180.7179,142.3883 179.0791,141.5409 C 173.5934,138.7041 173.2783,139.116 173.5634,148.75 C 173.7058,153.5625 173.8623,157.8375 173.9112,158.25 C 174.0257,159.2169 176.1548,159.1888 177.7111,158.1997 z M 27.0066,143.9163 C 28.928,143.3203 31.7498,142.6526 33.2774,142.4327 C 38.9833,141.6109 56.1991,132.4151 55.6169,130.5 C 55.2425,129.2682 48.5172,129.4465 45.6236,130.765 C 44.4556,131.2971 40.8,132.7321 37.5,133.9537 C 29.5614,136.8927 27,138.1649 27,139.169 C 27,139.626 26.3948,140 25.655,140 C 23.9461,140 20.7751,143.4417 21.6645,144.3312 C 22.5486,145.2152 22.91,145.1871 27.0066,143.9163 z M 18.1551,142.75 C 19.3255,142.0625 21.4283,140.4706 22.8281,139.2124 C 26.2624,136.1256 38.7976,130.0137 43.0574,129.3491 C 44.9508,129.0537 47.0428,128.3656 47.7062,127.8199 C 48.3696,127.2743 49.3444,127.0948 49.8723,127.4211 C 50.4002,127.7473 51.9558,127.5871 53.3291,127.065 C 55.6758,126.1728 55.8084,125.7362 55.5326,119.8078 C 55.1001,110.5109 54.8739,110.2273 47.8121,110.1279 C 44.4814,110.081 41.2072,109.5869 40.5362,109.03 C 39.8651,108.473 39.0892,108.2441 38.812,108.5213 C 37.6471,109.6862 27.1307,105.2926 22.6127,101.7534 C 19.9247,99.6477 17.2247,98.0914 16.6127,98.2949 C 15.0974,98.7989 14.2251,103.906 15.0977,107.1643 C 15.6471,109.2157 15.3005,110.3085 13.5912,111.9143 C 12.3702,113.0615 10.9747,114 10.4903,114 C 9.1453,114 4,119.2135 4,120.5764 C 4,121.2376 5.6556,123.0659 7.6792,124.6393 C 14.7107,130.1066 15.2437,130.8874 14.5327,134.6775 C 13.9227,137.9292 14.6132,144 15.593,144 C 15.8318,144 16.9847,143.4375 18.1551,142.75 z M 23.8816,131.25 C 23.8165,130.8375 23.797,130.2208 23.8384,129.8795 C 23.8798,129.5383 22.3581,127.4418 20.4568,125.2206 C 16.4412,120.5292 16.196,118.9943 19.1391,116.9708 C 20.3156,116.1618 22.5573,114.4545 24.1206,113.1767 C 26.9551,110.8598 29.7697,110.8634 32.6812,113.1878 C 33.3309,113.7064 36.0309,114.3314 38.6812,114.5766 C 41.3316,114.8219 45.0264,115.303 46.8921,115.6456 C 49.404,116.107 50.0904,115.9552 49.5374,115.0605 C 48.9949,114.1827 49.3537,114.2039 50.8499,115.1383 C 51.9824,115.8456 52.7174,116.6159 52.4832,116.8502 C 51.4135,117.9198 37.7058,116.9794 33.4865,115.5469 C 29.136,114.0699 28.4961,114.0776 24.9321,115.6501 C 22.8133,116.5849 20.8419,117.9696 20.5512,118.7272 C 20.0276,120.0917 22.5057,124.8261 24.4769,126.2272 C 25.7295,127.1174 29.2323,126.1368 30.2347,124.6152 C 30.6388,124.0018 30.9763,123.8215 30.9847,124.2145 C 30.9931,124.6074 33.1355,124.0136 35.7454,122.8948 C 38.3554,121.776 41.5162,121.0567 42.7693,121.2962 C 44.0225,121.5358 45.2304,121.4362 45.4537,121.075 C 45.6769,120.7138 47.503,120.3076 49.5116,120.1723 C 54.7345,119.8205 52.9678,121.7237 47.2267,122.6336 C 44.627,123.0456 42.05,123.4348 41.5,123.4985 C 40.2254,123.6461 37.0021,124.878 34.7636,126.073 C 33.8086,126.5828 32.4586,127.0005 31.7636,127.0012 C 31.0686,127.0019 29.1925,128.1269 27.5945,129.5012 C 24.4489,132.2065 24.0614,132.389 23.8816,131.25 z M 209.8758,131.75 C 209.3745,129.4125 208.4466,126.4882 207.814,125.2515 C 206.3866,122.4615 206.7821,122.0611 212.1574,120.8533 C 214.5296,120.3203 217.3119,119.1228 218.3402,118.1921 C 219.3686,117.2614 220.4282,116.6672 220.6949,116.8716 C 220.9616,117.076 222.5282,116.2463 224.1762,115.0279 L 227.1726,112.8126 L 224.912,110.4063 C 223.6687,109.0828 222.0227,108 221.2543,108 C 220.4859,108 219.1822,107.325 218.3572,106.5 C 217.421,105.5638 214.9643,105 211.8216,105 C 207.4299,105 206.8742,104.7762 207.4754,103.25 C 208.8455,99.7717 209.2771,91.2893 208.1203,90.5743 C 207.4981,90.1898 205.0326,91.4782 202.6415,93.4376 C 200.2504,95.3969 197.5794,97 196.7061,97 C 195.8327,97 194.8641,97.4108 194.5538,97.913 C 194.2435,98.4151 192.2178,99.1253 190.0524,99.4912 C 187.8869,99.857003 185.5842,100.7962 184.9351,101.5782 C 184.2861,102.3602 182.9368,103 181.9366,103 C 180.9364,103 179.8326,103.4619 179.4836,104.0265 C 179.1347,104.5911 178.3206,104.9878 177.6746,104.908 C 173.9659,104.4502 173,105.0891 173,108 C 173,110.6476 173.3426,111 175.9167,111 C 177.5209,111 178.9834,110.5719 179.1667,110.0487 C 179.35,109.5255 181.2031,108.925 183.2846,108.7142 C 185.3661,108.5033 187.5936,107.8064 188.2346,107.1654 C 188.8756,106.5244 190.0295,106 190.7989,106 C 191.5683,106 193.7311,105.2724 195.6052,104.3831 L 199.0126,102.7662 L 202.9141,106.9087 C 205.0599,109.1871 206.7301,111.6333 206.6257,112.3445 C 206.5213,113.0558 204.5646,115.5279 202.2774,117.8381 C 198.3809,121.7737 197.8472,122.0038 193.8094,121.4893 C 185.033,120.371 176.6946,119.9622 174.8169,120.5581 C 173.5488,120.9606 172.9895,121.9018 173.1917,123.2932 C 173.4635,125.1636 174.2691,125.4549 180,125.7555 C 183.575,125.943 187.175,126.3687 188,126.7015 C 188.825,127.0344 189.95,127.3759 190.5,127.4605 C 192.0976,127.7062 199.3814,130.6401 202.5,132.294 C 208.5243,135.489 209.5557,135.9882 210.1437,135.9938 C 210.4978,135.9972 210.3772,134.0875 209.8758,131.75 z M 200.9067,116.4535 C 204.2714,112.6214 204.1379,111.2447 200.0425,107.5384 C 197.9865,105.6778 197.7697,105.6692 194.6936,107.3258 C 190.4252,109.6245 181.2891,112.1817 177.2396,112.2113 C 174.6309,112.2303 173.8573,112.7206 173.3695,114.6641 C 173.0342,116.0001 172.9441,117.2774 173.1694,117.5027 C 173.3946,117.728 177.7317,117.9879 182.8073,118.0804 C 187.8829,118.1729 192.2792,118.6427 192.5769,119.1243 C 193.8356,121.161 197.9245,119.85 200.9067,116.4535 z M 54.5969,105.5016 C 54.7436,104.1257 54.5349,103 54.1333,103 C 53.7316,103 51.5297,101.2 49.2401,99 C 46.9506,96.8 44.5669,95 43.943,95 C 43.3192,95 41.4047,93.9875 39.6886,92.75 C 37.9725,91.5125 35.462,90.0306 34.1096,89.4568 C 31.6593,88.4173 31.6692,88.398 36.9234,83.9676 C 39.8233,81.5223 42.8589,78.2398 43.669,76.6732 C 44.5522,74.9654 46.9156,73.0402 49.571,71.8656 C 54.3572,69.7484 55.5699,66.6438 51.9777,65.7044 C 47.8656,64.6291 41.9153,69.3158 37.7965,76.874 C 36.6813,78.9206 35.3288,80 33.8799,80 C 32.6626,80 31.8947,80.2281 32.1735,80.5068 C 32.4522,80.7855 30.9522,82.8854 28.8401,85.1732 C 26.7281,87.461 25,89.7708 25,90.3061 C 25,91.843 28.2822,93.9333 30.75,93.9682 C 31.9875,93.9857 33,94.4142 33,94.9205 C 33,95.4268 34.3145,96.1298 35.921,96.4826 C 37.5276,96.8355 39.988,98.1863 41.3888,99.4845 C 42.7895,100.7826 44.7708,102.1099 45.7917,102.4339 C 46.8126,102.7579 48.9318,104.3631 50.5011,106.0011 C 53.641,109.2785 54.2015,109.2102 54.5969,105.5016 z M 54.5288,95.616 C 55.2897,89.5261 54.3614,74.9614 53.1341,73.7341 C 51.5199,72.1198 47.4538,74.7948 46.0384,78.4023 C 45.2017,80.5347 43.252,82.8338 41.3076,83.981 C 39.4884,85.0544 38,86.3771 38,86.9205 C 38,87.7971 41.4005,90.5778 49.4661,96.2967 C 50.8598,97.2849 52,98.7474 52,99.5467 C 52,100.346 52.4176,101 52.9281,101 C 53.4385,101 54.1588,98.5772 54.5288,95.616 z M 183.5,93.1457 C 186.8,91.5644 191.419,89.6856 193.7643,88.9705 C 199.9059,87.0981 200.7998,85.6406 198.4654,81.3058 C 196.3926,77.4569 191.2102,73 188.8075,73 C 187.9805,73 186.5406,71.3076 185.6079,69.2392 C 182.2771,61.8528 172,58.1684 172,64.3608 C 172,66.1864 172.8185,66.9286 175.8244,67.8292 C 178.4711,68.6222 180.3972,70.1337 182.079,72.7375 C 183.4155,74.8069 185.4466,76.6342 186.5924,76.7983 C 187.8368,76.9765 189.3623,78.5364 190.3807,80.6721 C 192.1901,84.4665 192.0009,85.2681 189.2297,85.5501 C 186.0986,85.8686 184.6035,86.4775 182.6005,88.25 C 181.5128,89.2125 180.0328,90 179.3115,90 C 178.5902,90 178,90.3778 178,90.8395 C 178,91.3012 176.875,92.1916 175.5,92.818 C 173.7511,93.6149 173,94.7513 173,96.6005 C 173,99.1527 173.0777,99.1883 175.25,97.6324 C 176.4875,96.746 180.2,94.727 183.5,93.1457 z M 178,88.5 C 179.2918,87.125 181.0854,86 181.9858,86 C 183.7988,86 188,82.4744 188,80.9529 C 188,80.4199 186.2,79.2636 184,78.3833 C 181.8,77.5031 179.9656,76.4942 179.9235,76.1414 C 179.3806,71.5902 177.2403,69 174.0224,69 C 171.9891,69 171.9087,69.4213 172.0651,79.25 C 172.1548,84.8875 172.4284,89.8375 172.6731,90.25 C 173.5255,91.6868 175.6672,90.9832 178,88.5 z M 70.3371,53.0256 L 76.9164,46.0511 L 81.4582,50.724 C 83.9562,53.294 86,55.9825 86,56.6984 C 86,57.5503 87.3821,58 90,58 C 95.9259,58 95.6061,56.9859 85.9929,45.2922 C 85.4468,44.6279 85,43.6852 85,43.1972 C 85,42.7092 84.1158,41.5098 83.0352,40.5318 C 81.9545,39.5538 80.3669,36.3341 79.5072,33.3768 C 78.6475,30.4196 77.5811,28 77.1374,28 C 76.6937,28 75.0843,29.3988 73.561,31.1084 C 70.9396,34.0505 70.1623,36.3736 69.6664,42.7484 C 69.526,44.5526 68.8811,45.5043 67.7933,45.5126 C 63.9568,45.5418 57.3708,54.4421 58.5159,58.05 C 59.7408,61.9095 63.4395,60.3374 70.3371,53.0256 z M 82.8591,57.4377 C 83.5777,56.7923 78.828,51 77.5802,51 C 76.1615,51 70,56.5456 70,57.8225 C 70,58.5541 82.0165,58.1945 82.8591,57.4377 z M 105.1985,56.25 C 105.7676,53.364 102.5477,36.7536 100.7102,33.0964 C 98.4916,28.6809 98.5533,27.2766 101,26.5 C 102.1,26.1509 103,25.5426 103,25.1482 C 103,24.7539 104.3393,23.6401 105.9762,22.6732 C 108.8737,20.9616 109.0653,20.9778 113.2262,23.2864 C 118.4374,26.1778 118.8284,28.0008 116.0367,36.3899 C 114.4813,41.0639 114.0026,44.6675 114.2137,50.1141 C 114.473,56.8021 114.703,57.5289 116.6485,57.8062 C 118.5513,58.0775 118.8697,57.506 119.4341,52.8062 C 121.4687,35.8634 123.2875,29.6641 128.2231,22.8507 C 130.9153,19.1343 131.7862,16.1352 130.25,15.8711 C 127.3113,15.3658 123.787,15.5357 123.3748,16.2026 C 123.1038,16.6412 121.7587,17 120.3857,17 C 118.3298,17 117.4423,16.0234 115.3551,11.4643 C 112.3191,4.8329 108.8773,2.048 106.293,4.1317 C 103.096,6.7094 99.0587,11.4997 99.0293,12.75 C 99.0132,13.4375 98.6487,14 98.2193,14 C 97.7898,14 96.9345,15.3351 96.3186,16.967 C 95.3112,19.6359 94.8423,19.8883 91.6505,19.4796 C 87.2281,18.9134 86.3362,20.2165 88.7228,23.7568 C 91.4649,27.8244 94.2207,34.1288 95.823,40 C 96.3484,41.925 97.5395,45.75 98.4701,48.5 C 99.4006,51.25 100.4029,54.5125 100.6975,55.75 C 101.3348,58.4269 104.6956,58.8003 105.1985,56.25 z M 112.0573,46.9203 C 112.3798,40.8893 113.202,35.4469 114.0092,34 C 116.0308,30.3761 116.0937,28.761 114.2905,26.7685 C 112.0119,24.2506 105.5388,24.3927 103.7121,27.0006 C 102.4922,28.7423 102.5627,29.7453 104.2571,34.7506 C 105.3275,37.9128 106.3876,42.075 106.6128,44 C 106.8381,45.925 107.5044,49.8876 108.0937,52.8058 C 109.7962,61.2378 111.4206,58.8257 112.0573,46.9203 z M 131.0786,55.75 C 133.7703,52.9416 136,47.8592 136,44.5321 C 136,40.2439 139.2177,41.5184 147.0424,48.906 C 153.0453,54.5735 154.9057,55.784 157.4163,55.656 C 161.5723,55.4441 161.9681,52.6199 158.3684,48.8626 C 155.4673,45.8345 150.6593,43 148.4239,43 C 147.7261,43 146.6316,41.4136 145.9916,39.4746 C 144.4699,34.8637 140.3219,30 137.9111,30 C 136.86,30 136,29.5125 136,28.9167 C 136,28.3208 135.4468,28.0177 134.7706,28.2431 C 134.0944,28.4685 133.0193,31.7685 132.3814,35.5765 C 130.7778,45.1498 130.2954,46.9003 128.5104,49.6245 C 127.6543,50.931 127.2051,52 127.5122,52 C 127.8192,52 127.5837,52.9093 126.989,54.0207 C 124.834,58.0473 127.7108,59.2638 131.0786,55.75 z M 148.748,55.5854 C 148.9209,55.4124 148.3049,53.9508 147.3789,52.3374 C 145.8891,49.7415 142.0097,47 139.8263,47 C 138.9588,47 136.6424,51.2412 135.5118,54.8999 L 134.7701,57.2997 L 141.6018,56.5998 C 145.3592,56.2149 148.575,55.7584 148.748,55.5854 z"
     id="path2384"
     sodipodi:nodetypes="csssssssssssssssssssssssssssssssssssssssssssssssssssscccssssssssssssssssssssssssssssssssssssssssssssssssscccssssssssssssssssssssssssssssssssssssssssssccsssssssssssssssssssssssssscccssccssssssccccccccsssssssssssssssssssssssssssssssssssscccccsssssssssssssssccccsssssssssscccsssccsssssssscccsssccsssssssssssssssccsssssssccssssssscccccsssssssssssssssccsssssssssssssssssssssssssssssssssssssscccsssssccssccssssccsssssssssccccssssssssssssccssssssssssssccssssssccsssssssssssssssssccssssssssssccsssssssssssssssssssssssssccssssssssssssssssccsssssssccsssssssccssssssssssssssssssccsssssssssssssssssssssssssccsssscccssssssssssssssssssscccssssssssssccsssssssccssssssssssssssssssssccsssssssccssssssssssssssssccsssssssccccsssssssssssccssccsssssssssssssssssssssssccssssssccsssssssssssssccsscccc" />
</svg>

