<?xml version="1.0" encoding="UTF-8" standalone="no"?>
<!-- Created with Inkscape (http://www.inkscape.org/) -->
<svg
   xmlns:dc="http://purl.org/dc/elements/1.1/"
   xmlns:cc="http://creativecommons.org/ns#"
   xmlns:rdf="http://www.w3.org/1999/02/22-rdf-syntax-ns#"
   xmlns:svg="http://www.w3.org/2000/svg"
   xmlns="http://www.w3.org/2000/svg"
   xmlns:sodipodi="http://sodipodi.sourceforge.net/DTD/sodipodi-0.dtd"
   xmlns:inkscape="http://www.inkscape.org/namespaces/inkscape"
   id="svg2"
   sodipodi:version="0.32"
   inkscape:version="0.46"
   width="183.11229"
   height="236.33212"
   version="1.0"
   sodipodi:docname="n_melon_flower.svg"
   inkscape:output_extension="org.inkscape.output.svg.inkscape">
  <metadata
     id="metadata7">
    <rdf:RDF>
      <cc:Work
         rdf:about="">
        <dc:format>image/svg+xml</dc:format>
        <dc:type
           rdf:resource="http://purl.org/dc/dcmitype/StillImage" />
      </cc:Work>
    </rdf:RDF>
  </metadata>
  <defs
     id="defs5">
    <inkscape:perspective
       sodipodi:type="inkscape:persp3d"
       inkscape:vp_x="0 : 526.18109 : 1"
       inkscape:vp_y="0 : 1000 : 0"
       inkscape:vp_z="744.09448 : 526.18109 : 1"
       inkscape:persp3d-origin="372.04724 : 350.78739 : 1"
       id="perspective9" />
  </defs>
  <sodipodi:namedview
     inkscape:window-height="756"
     inkscape:window-width="1222"
     inkscape:pageshadow="2"
     inkscape:pageopacity="1"
     guidetolerance="10.0"
     gridtolerance="10.0"
     objecttolerance="10.0"
     borderopacity="1.0"
     bordercolor="#666666"
     pagecolor="#ffffff"
     id="base"
     showgrid="false"
     inkscape:zoom="0.73020528"
     inkscape:cx="181.37259"
     inkscape:cy="181.137"
     inkscape:window-x="-1"
     inkscape:window-y="0"
     inkscape:current-layer="svg2"
     showguides="true"
     inkscape:guide-bbox="true"
     borderlayer="true" />
  <rect
     style="opacity:1;fill:#ffffff;fill-opacity:1;stroke:#ffffff;stroke-width:0.5;stroke-linecap:square;stroke-miterlimit:4;stroke-dasharray:none;stroke-dashoffset:0;stroke-opacity:1"
     id="rect2401"
     width="1463.9719"
     height="909.33331"
     x="-61.626507"
     y="-628.1507" />
  <path
     style="fill:#000000"
     d="M 40.785813,235.5334 C 40.700513,234.965 40.588013,228.541 40.535813,221.2578 L 40.440913,208.0155 L 52.940913,208.1497 C 59.815913,208.2235 69.851113,208.22 75.241313,208.1419 L 85.041713,208 L 84.880413,195.4861 C 84.720813,183.1068 85.407313,180.0088 88.313413,179.9944 C 90.910413,179.9816 96.953013,177.8286 96.490813,177.0808 C 95.024713,174.7085 81.588013,179.7753 81.121413,182.8764 C 80.865313,184.5785 80.071213,185.0176 77.121413,185.0889 C 69.462813,185.2738 63.402513,184.7951 62.348913,183.9222 C 61.748313,183.4245 61.036013,183.2383 60.766013,183.5083 C 59.627413,184.6469 37.274313,176.4756 31.940913,172.9711 C 31.115913,172.429 29.337013,171.4262 27.987713,170.7427 C 24.133113,168.7902 11.929913,156.8695 9.8244132,153 C 8.7770132,151.075 7.5446132,148.825 7.0859132,148 C 4.7661132,143.8283 3.7545132,141.6226 3.4796132,140.1367 C 2.0516132,132.4196 1.5925132,129.3918 1.7532132,128.75 C 1.8564132,128.3375 1.5447132,128 1.0605132,128 C 0.57621312,128 0.10461312,123.2776 0.012413119,117.5057 C -0.17888688,105.5338 1.8483132,95.529003 5.5819132,90.017903 C 6.8794132,88.1027 7.9539132,86.0777 7.9698132,85.5179 C 8.0039132,84.3122 16.736813,75.0401 19.510713,73.2643 C 24.349013,70.167 29.731313,67.8187 32.940913,67.4046 C 34.865913,67.1562 37.956213,66.4612 39.808213,65.8602 C 41.660213,65.2592 44.954813,64.792 47.129513,64.822 C 50.698313,64.8713 50.954713,64.7122 49.762213,63.1883 C 49.035513,62.2597 47.645913,60.9067 46.674213,60.1816 C 45.702513,59.4564 45.142813,58.4824 45.430413,58.017 C 45.718113,57.5516 45.613113,57.0199 45.197213,56.8354 C 44.781213,56.6509 42.705513,54.5332 40.584413,52.1292 L 36.727913,47.7585 L 41.298113,43.3792 C 43.811613,40.9707 46.273913,39 46.769713,39 C 47.265513,39 48.744413,38.1655 50.056113,37.1456 C 54.836313,33.4287 66.012213,32.1714 72.418713,34.6298 C 73.859513,35.1827 73.998313,34.6426 73.501213,30.4166 C 72.564913,22.4548 73.646613,19.4814 79.808713,13.0794 C 82.906413,9.861 86.790913,6.6121 88.440913,5.8595 C 90.090913,5.1069 91.885113,3.4806 92.428113,2.2456 C 92.971013,1.0105 93.916513,-1.4210855e-14 94.529213,-1.4210855e-14 C 95.141813,-1.4210855e-14 99.872613,4.2711 105.04201,9.4913 C 115.16191,19.7106 117.49011,24.2691 115.76881,30.4934 C 114.51621,35.0226 114.51251,35.0195 121.00871,34.8727 C 124.38041,34.7965 127.57951,35.2386 128.20871,35.8678 C 128.83141,36.4905 129.96741,37 130.73321,37 C 132.34801,37 135.61831,39.4353 141.94091,45.3461 C 144.41591,47.6599 147.73331,50.1189 149.31291,50.8106 L 152.18481,52.0682 L 146.81291,56.028 C 143.85831,58.2059 139.97841,60.935 138.19091,62.0927 C 136.40341,63.2504 134.94091,64.6031 134.94091,65.0988 C 134.94091,65.5944 137.52841,66.031 140.69091,66.0689 C 150.68171,66.1886 152.27631,66.5703 160.44091,70.7965 C 162.09091,71.6506 163.66591,72.6123 163.94091,72.9336 C 164.21591,73.2549 166.11911,74.6388 168.17031,76.0089 C 170.22151,77.379 172.40741,79.7226 173.02791,81.2168 C 173.64841,82.7111 174.76021,84.435 175.49851,85.0478 C 177.49981,86.7087 180.70231,93.848403 181.92711,99.379803 C 183.70771,107.4217 183.45651,120.2066 181.34491,129 C 179.65461,136.0391 176.46421,145.4381 174.21841,149.9945 C 171.40571,155.7012 157.45941,171.0491 152.94421,173.4068 C 150.68661,174.5857 145.90591,177.0136 138.94091,180.5185 C 137.56591,181.2104 133.51591,182.1019 129.94091,182.4997 C 126.36591,182.8974 122.87841,183.6778 122.19091,184.2338 C 121.33281,184.9279 120.94091,184.893 120.94091,184.1224 C 120.94091,183.4187 118.72821,183 115.00831,183 C 109.93971,183 108.98261,182.7066 108.43631,180.9855 C 108.08471,179.8775 107.36231,179.2396 106.83101,179.5679 C 105.97731,180.0956 106.61941,206.8391 107.51031,207.8578 C 107.68241,208.0546 116.15381,208.2396 126.33551,208.2689 C 139.41561,208.3065 145.27551,207.9672 146.30531,207.1125 C 147.22631,206.3482 147.98741,206.2662 148.37291,206.8899 C 148.70841,207.4328 148.93611,213.9797 148.87881,221.4385 L 148.77471,235 L 143.60781,235.0843 C 140.76601,235.1306 122.91591,235.3494 103.94091,235.5705 C 84.965913,235.7916 63.028413,236.1062 55.190913,236.2697 C 45.928313,236.4628 40.886613,236.2052 40.785813,235.5334 z M 132.75971,233.3722 C 139.94571,232.9579 144.55481,232.2432 145.38321,231.4149 C 146.29771,230.5004 146.65111,227.1766 146.56451,220.305 L 146.44091,210.5 L 126.79611,210.2292 C 111.42751,210.0174 106.89831,209.6536 105.98911,208.558 C 105.32271,207.7551 104.61621,202.1104 104.33321,195.3288 C 103.64041,178.7257 103.80381,179.1922 98.828413,179.6141 C 96.551113,179.8071 94.089513,180.4617 93.358213,181.0686 C 92.626913,181.6756 91.609813,181.9134 91.098013,181.5971 C 90.586313,181.2808 89.554113,181.7616 88.804213,182.6656 C 87.814213,183.8591 87.437413,187.7537 87.428113,196.8897 L 87.415213,209.4703 L 83.671313,210.0788 C 81.612213,210.4135 71.605513,210.5866 61.434213,210.4635 L 42.940913,210.2397 L 42.878713,216.3698 C 42.844513,219.7414 42.591713,224.4655 42.317013,226.8678 C 42.042213,229.2701 42.041913,231.8207 42.316313,232.5357 C 42.713113,233.5698 50.860313,233.8551 82.128013,233.9303 C 103.75011,233.9823 126.53441,233.7312 132.75971,233.3722 z M 78.674013,181.2311 C 80.418613,179.014 78.688713,177.3021 73.883413,176.4903 C 71.715013,176.1239 69.940913,175.4138 69.940913,174.9121 C 69.940913,174.4104 69.039313,174 67.937313,174 C 65.600513,174 60.892513,171.5927 55.940713,167.8661 C 54.015813,166.4174 51.451413,164.9319 50.242113,164.5649 C 49.032713,164.1979 47.764913,163.0207 47.424713,161.9488 C 47.084513,160.877 46.365013,160 45.825813,160 C 45.286613,160 43.689413,158.7625 42.276613,157.25 C 30.321713,144.452 24.820413,131.9307 25.471213,119 C 26.434513,99.862803 28.219413,94.765103 36.919813,86.3021 C 40.483213,82.8359 44.169113,80 45.110813,80 C 46.052413,80 47.108413,79.5381 47.457313,78.9735 C 47.806313,78.4089 48.620313,78.0299 49.266313,78.1312 C 49.912413,78.2325 51.340913,77.9829 52.440913,77.5764 C 53.540913,77.1699 55.340913,76.5109 56.440913,76.112 C 57.540913,75.7131 60.578413,75.4944 63.190913,75.6259 C 65.803413,75.7574 67.940913,75.53 67.940913,75.1206 C 67.940913,74.0444 61.603513,69.478 60.565813,69.8064 C 60.084413,69.9588 58.959413,69.4218 58.065813,68.6131 C 56.415613,67.1198 45.567013,66.495 43.497413,67.7741 C 42.935713,68.1213 41.793213,68.468 40.958513,68.5445 C 26.499713,69.8706 15.598813,76.6213 9.2051132,88.2088 C 7.9754132,90.437403 6.5656132,92.764703 6.0722132,93.380403 C 2.8758132,97.369303 0.92951312,118.2454 2.9844132,126.5 C 3.5320132,128.7 4.2102132,132.1617 4.4914132,134.1926 C 4.7725132,136.2235 5.9063132,139.9282 7.0109132,142.4253 C 8.1155132,144.9223 8.9921132,147.207 8.9590132,147.5024 C 8.8930132,148.0916 9.3067132,148.622 14.417013,154.5 C 16.329613,156.7 17.905013,158.8984 17.917713,159.3853 C 18.010213,162.9147 40.244913,176.4784 47.505813,177.4348 C 49.120113,177.6474 51.790913,178.5338 53.440913,179.4045 C 55.090913,180.2753 57.426913,180.9905 58.631913,180.9938 C 59.837013,180.9972 61.105513,181.4573 61.451013,182.0163 C 61.796513,182.5753 62.385513,182.8642 62.760013,182.6584 C 63.134513,182.4526 65.690913,182.6047 68.440913,182.9963 C 74.329513,183.835 76.985513,183.3768 78.674013,181.2311 z M 121.89361,180.4909 C 123.10751,180.7247 125.07721,181.1893 126.27081,181.5235 C 127.77021,181.9432 128.02901,181.8449 127.10811,181.2053 C 126.18041,180.561 127.34681,180.0712 130.94541,179.5938 C 133.78891,179.2166 136.86371,178.4962 137.77821,177.9929 C 138.69271,177.4897 142.11491,175.8618 145.38311,174.3754 C 152.08111,171.3292 154.82181,169.2169 163.56171,160.3647 C 170.65081,153.1846 173.04631,148.6534 177.23581,134.5 C 178.93721,128.7519 181.30991,116.4476 181.28531,113.5 C 181.19221,102.3515 177.66801,91.094203 172.58181,85.6985 C 171.12931,84.1576 169.94091,82.5424 169.94091,82.1092 C 169.94091,81.173 163.30301,75 162.29631,75 C 161.91251,75 160.88801,74.3994 160.01971,73.6654 C 159.15141,72.9314 155.34581,71.3406 151.56281,70.1303 C 146.23001,68.4241 143.30931,68.0602 138.56281,68.5105 C 131.01651,69.2265 122.08941,71.9146 119.50241,74.25 C 117.59071,75.9757 117.59341,76 119.69331,76 C 120.86461,76 122.10841,76.4619 122.45731,77.0265 C 122.80621,77.5911 123.62031,77.9574 124.26631,77.8405 C 127.41341,77.2711 134.02911,79.4352 137.05691,82.0246 C 139.58761,84.1889 139.99961,84.929 138.69091,84.9594 C 136.12691,85.0189 136.54561,86.7585 139.94091,90.153803 C 141.59091,91.803803 142.94091,93.490803 142.94091,93.902603 C 142.94091,94.314403 144.06591,95.708303 145.44091,97.000003 C 146.81591,98.291703 147.94091,98.920303 147.94091,98.396803 C 147.94091,97.422503 145.08271,92.899403 143.89861,92.000003 C 142.77051,91.143203 140.75451,86.853 141.24801,86.3595 C 141.50611,86.1015 143.29201,87.8275 145.21671,90.195203 C 148.28071,93.964403 152.10621,102.103 154.52571,110 C 155.53981,113.3098 155.77861,126.0975 154.86191,128 C 154.46431,128.825 153.87841,130.85 153.55981,132.5 C 152.30031,139.0234 150.30611,144.9417 148.78301,146.6765 C 147.90251,147.6794 146.49011,149.868 145.64441,151.5401 C 144.79861,153.2121 142.22321,156.3621 139.92131,158.5401 C 137.61941,160.718 134.67751,163.5125 133.38391,164.75 C 132.09031,165.9875 130.56141,167 129.98641,167 C 129.41141,167 128.93791,167.3375 128.93411,167.75 C 128.93031,168.1625 127.27951,169.6225 125.26561,170.9944 C 122.70881,172.736 121.47871,173.1133 121.18911,172.2444 C 120.96091,171.56 120.31361,171 119.75061,171 C 119.18761,171 118.96971,171.6327 119.26651,172.406 C 119.89611,174.0469 116.98291,177 114.73461,177 C 112.48471,177 110.27461,179.8363 112.07831,180.4089 C 115.86181,181.6101 116.56261,181.6674 118.06371,180.8978 C 118.95621,180.4402 120.67971,180.2571 121.89361,180.4909 z M 83.940913,177 C 83.940913,176.45 83.067513,176 81.999913,176 C 80.932413,176 79.780813,175.55 79.440913,175 C 78.631713,173.6907 76.940913,173.7125 76.940913,175.0322 C 76.940913,176.0764 80.393013,177.8201 82.690913,177.9366 C 83.378413,177.9715 83.940913,177.55 83.940913,177 z M 106.95411,175.2148 C 106.96131,174.8217 109.88611,173.15 113.45351,171.5 C 117.02091,169.85 119.94001,168.1625 119.94031,167.75 C 119.94071,167.3375 120.54941,167 121.29301,167 C 122.53791,167 132.56111,156.9598 142.58171,145.6754 C 149.67071,137.6923 151.41531,125.5239 147.91171,108.5 C 147.23251,105.2 146.34901,102.275 145.94841,102 C 145.54781,101.725 144.48021,100.0559 143.57601,98.291003 C 141.71811,94.664503 137.36381,90.000003 135.83651,90.000003 C 135.27901,90.000003 135.11971,89.5197 135.48251,88.9327 C 135.84571,88.345 135.19821,87.6185 134.04151,87.3161 C 132.88621,87.0139 131.94091,86.3692 131.94091,85.8834 C 131.94091,85.3975 131.32101,85 130.56341,85 C 129.80571,85 128.65481,84.3602 128.00581,83.5782 C 126.45551,81.7102 115.10871,79.6147 112.32611,80.6824 C 110.23441,81.4851 110.61701,82.7634 114.31641,87.3317 C 122.04861,96.880003 124.05441,102.9319 124.64671,118.5 C 125.12821,131.1522 125.05491,131.7542 121.90861,141 C 118.34411,151.4747 113.51811,162.2571 111.04151,165.2795 C 107.95731,169.0434 103.42941,172.9908 102.19091,172.9954 C 100.41961,173.0019 100.63821,174.6699 102.50431,175.3859 C 103.36421,175.7159 103.75991,176.4839 103.38361,177.0927 C 102.89681,177.8804 103.31101,177.8723 104.82021,177.0646 C 105.98661,176.4404 106.94681,175.608 106.95411,175.2148 z M 88.610213,171.25 C 88.322113,168.6375 87.579513,163.8 86.959813,160.5 C 85.750413,154.0588 85.512913,124.4172 86.611413,117 C 86.977913,114.525 87.354413,111.825 87.448113,111 C 87.541713,110.175 88.229813,107.5286 88.977113,105.1191 C 90.287613,100.8941 90.248913,100.6718 87.888413,98.869503 C 86.542313,97.841703 84.897413,96.550503 84.233113,96.000403 C 83.568813,95.450203 82.644613,95.000003 82.179313,95.000003 C 81.714013,95.000003 79.811413,93.429903 77.951413,91.510803 C 74.739113,88.1965 74.491013,88.1117 73.005213,89.819603 C 71.010413,92.112403 67.940913,97.829603 67.940913,99.252303 C 67.940913,99.851903 67.280013,101.0729 66.472113,101.9655 C 64.618013,104.0143 63.442113,124.4994 64.805513,131 C 66.772513,140.3787 71.659713,151.4636 75.353413,154.9243 C 76.776513,156.2577 77.953413,157.8327 77.968713,158.4243 C 77.984013,159.0159 79.334013,161.2677 80.968713,163.4281 C 82.603413,165.5886 83.940913,167.896 83.940913,168.5557 C 83.940913,169.2154 84.647213,170.3413 85.510513,171.0577 C 86.373713,171.7741 86.865813,173.1792 86.604113,174.1801 C 86.299813,175.3438 86.670113,176 87.631113,176 C 88.830813,176 89.028313,175.042 88.610213,171.25 z M 81.733813,170.6798 C 80.500013,168.9309 77.111013,165.025 74.202813,162 C 71.294513,158.975 67.981913,154.59 66.841513,152.2555 C 65.701013,149.9211 64.369613,147.765 63.882913,147.4641 C 60.968313,145.6628 57.381213,131.8431 57.792413,124 C 58.365813,113.0647 59.255013,106.2677 60.343413,104.5 C 61.020613,103.4 62.609413,99.912503 63.874013,96.750003 C 65.138613,93.587503 66.522213,91.000003 66.948713,91.000003 C 67.375213,91.000003 68.006513,89.875003 68.351613,88.5 C 68.696713,87.125 69.420513,86 69.960013,86 C 71.537213,86 71.087913,82.3669 69.330313,80.9082 C 68.444513,80.1731 66.698113,79.4347 65.449313,79.2675 C 62.676613,78.8962 53.292813,81.2646 48.470713,83.5529 C 44.284213,85.5395 35.386213,94.966103 33.521713,99.389903 C 31.491113,104.2077 32.292813,122.9496 34.868613,130.8803 C 36.008413,134.3894 36.940913,137.8769 36.940913,138.6303 C 36.940913,139.3836 37.304313,140 37.748513,140 C 38.192613,140 39.309913,141.6875 40.231413,143.75 C 42.429713,148.6707 51.684713,158.176 56.504213,160.463 C 60.351413,162.2886 61.636713,163.1709 64.738913,166.1156 C 65.675013,167.0041 68.240913,168.5237 70.440913,169.4923 C 72.640913,170.4609 76.203013,172.0769 78.356713,173.0833 C 83.417713,175.4483 84.536313,174.6522 81.733813,170.6798 z M 98.115313,171.3193 C 99.394413,170.12 100.90371,168.545 101.46921,167.8193 C 102.78621,166.1296 108.37191,156.6597 108.44071,156 C 108.46941,155.725 109.24541,154.375 110.16511,153 C 112.14821,150.0351 115.84991,141.8265 116.61031,138.7075 C 117.90311,133.4048 118.14101,111.4718 116.96281,106.2073 C 116.28661,103.1856 115.61131,99.601703 115.46221,98.243003 C 115.31301,96.884303 114.74541,95.486303 114.20071,95.136303 C 113.65611,94.786303 112.89451,93.487503 112.50831,92.250003 C 112.12211,91.012503 111.19901,90.000003 110.45691,90.000003 C 109.71481,90.000003 108.93831,89.4923 108.73151,88.8717 C 108.52461,88.2511 106.62421,89.3761 104.50831,91.371703 C 102.39241,93.367303 100.24761,95.000003 99.742013,95.000003 C 99.236513,95.000003 99.101013,95.450003 99.440913,96.000003 C 99.780813,96.550003 99.651313,97.000003 99.153013,97.000003 C 98.654613,97.000003 97.320313,97.803703 96.187813,98.785903 C 94.466113,100.2791 94.136613,101.7132 94.177413,107.5359 C 94.261813,119.5931 92.935213,158.3003 92.276513,163 C 91.386913,169.3472 91.146113,173.3834 91.608113,174.206 C 92.196013,175.2529 95.468413,173.8012 98.115313,171.3193 z M 69.940913,172.1139 C 69.940913,171.6266 68.453613,170.5221 66.635713,169.6594 C 64.817813,168.7968 61.605913,166.7205 59.498213,165.0455 C 57.390413,163.3705 55.165313,161.9971 54.553413,161.9935 C 53.941613,161.99 50.832713,159.515 47.644813,156.4935 C 41.455313,150.6272 37.601613,148.882 42.503813,154.1655 C 47.358713,159.3978 52.015813,163.3613 56.344613,165.9448 C 58.597613,167.2894 61.035613,168.9769 61.762413,169.6948 C 62.489113,170.4126 63.925113,171 64.953313,171 C 65.981613,171 67.101013,171.45 67.440913,172 C 68.205913,173.2378 69.940913,173.3168 69.940913,172.1139 z M 109.04961,163.2123 C 109.81481,161.7359 111.04501,159.8025 111.78321,158.9157 C 113.88621,156.3898 116.90591,149.0964 116.06411,148.5761 C 115.43061,148.1846 111.12371,154.8399 106.40641,163.5 C 105.80721,164.6 104.47081,166.85 103.43671,168.5 L 101.55651,171.5 L 104.60741,168.6983 C 106.28541,167.1573 108.28441,164.6886 109.04961,163.2123 z M 138.29621,156.8592 C 142.00901,152.9317 144.82331,149.1358 144.55001,148.4238 C 144.27681,147.7118 144.59051,146.9367 145.24711,146.7015 C 145.90371,146.4663 146.15731,145.9661 145.81061,145.5899 C 145.46391,145.2138 143.58601,147.0647 141.63741,149.703 C 139.68891,152.3414 136.26001,156.2788 134.01781,158.4529 C 130.08301,162.2681 129.06071,164 130.74321,164 C 131.18451,164 134.58331,160.7866 138.29621,156.8592 z M 73.796813,156.3108 C 71.951013,153.6649 70.166213,151.275 69.830513,151 C 68.789413,150.1473 66.055913,144.3917 65.501513,141.8847 C 65.211413,140.5731 64.273013,137.025 63.416213,134 C 62.339713,130.1993 61.952813,125.3332 62.163913,118.25 C 62.476213,107.7748 61.565813,104.6218 60.431513,112.25 C 59.245013,120.2302 59.274913,126.4968 60.530713,133 C 61.924113,140.2163 65.111813,148.067 67.429313,149.9903 C 68.260713,150.6803 68.940913,151.8146 68.940913,152.511 C 68.940913,153.8882 76.120413,162.1539 76.760613,161.5137 C 76.976213,161.2981 75.642513,158.9568 73.796813,156.3108 z M 90.082413,160.75 C 90.160213,160.0625 90.308013,155.9 90.410913,151.5 C 91.055813,123.9192 91.481713,113.7838 92.009313,113.4578 C 93.051613,112.8135 91.749513,106.8971 90.646313,107.2649 C 90.066113,107.4583 89.516213,108.9403 89.424313,110.5583 C 89.332413,112.1762 88.958213,115.75 88.592613,118.5 C 87.947213,123.3554 87.628713,138.4459 87.838213,154.25 C 87.896913,158.6815 88.369113,162 88.940913,162 C 89.490913,162 90.004613,161.4375 90.082413,160.75 z M 39.940913,147.6224 C 39.940913,146.8648 39.265913,145.6847 38.440913,145 C 37.615913,144.3153 36.940913,143.0581 36.940913,142.2063 C 36.940913,141.3544 36.222013,139.863 35.343213,138.892 C 32.304913,135.5347 30.056813,123.9011 30.255713,112.5637 C 30.372813,105.8856 30.073013,102.1211 29.440913,102.3309 C 27.029413,103.1313 26.706813,125.0497 29.011613,131.5 C 29.797713,133.7 31.692813,137.75 33.222913,140.5 C 34.753013,143.25 36.268013,146.2875 36.589513,147.25 C 37.280413,149.3179 39.940913,149.6135 39.940913,147.6224 z M 120.49431,139 C 123.22721,131.2785 123.29351,109.7097 120.60581,102.7436 C 119.59641,100.1276 118.37611,98.231003 117.89401,98.529003 C 117.39561,98.837003 117.39131,100.0544 117.88411,101.3505 C 121.13131,109.8913 120.50311,137.3439 116.90671,144.0639 C 115.52821,146.6397 115.71371,147.6839 117.24431,145.9643 C 117.96121,145.1589 119.42371,142.025 120.49431,139 z M 153.94091,122 C 153.94091,121.45 153.49091,121 152.94091,121 C 152.39091,121 151.94091,121.45 151.94091,122 C 151.94091,122.55 152.39091,123 152.94091,123 C 153.49091,123 153.94091,122.55 153.94091,122 z M 153.44091,119 C 153.78081,118.45 153.58241,118 152.99991,118 C 152.41751,118 151.94091,118.45 151.94091,119 C 151.94091,119.55 152.13941,120 152.38191,120 C 152.62441,120 153.10101,119.55 153.44091,119 z M 152.57981,112.0491 C 152.43221,107.8486 149.94091,103.7192 149.94091,107.675 C 149.94091,111.069 151.13381,116 151.95481,116 C 152.37491,116 152.65611,114.2221 152.57981,112.0491 z M 32.726413,96.750003 C 34.093713,95.180403 34.091313,95.000003 32.702913,95.000003 C 31.053313,95.000003 29.890313,97.094403 30.019913,99.831803 C 30.084713,101.2007 30.197813,101.2309 30.650413,100 C 30.953713,99.175003 31.887913,97.712503 32.726413,96.750003 z M 94.740613,96.575903 C 96.225813,95.792603 99.953813,92.530103 103.02521,89.3259 C 108.63661,83.4716 110.65581,79.1927 111.18481,72.0343 L 111.44091,68.5687 L 118.19091,68.6478 C 121.90341,68.6913 124.94091,68.3384 124.94091,67.8635 C 124.94091,67.3886 125.77091,67 126.78541,67 C 127.79981,67 129.93731,65.8755 131.53541,64.5012 C 133.13341,63.1269 134.73121,62.0019 135.08601,62.0012 C 136.63111,61.9983 145.06781,53.0143 144.45561,52.0238 C 142.86301,49.4469 133.42731,41.3537 130.08161,39.695 C 125.83301,37.5886 117.06991,37.278 114.10641,39.1288 C 112.12151,40.3683 112.14471,40.4457 115.02971,42.2002 C 116.65751,43.1901 118.43791,44 118.98631,44 C 119.53471,44 122.54581,46.4819 125.67761,49.5153 L 131.37191,55.0306 L 128.27301,58.1295 C 124.56611,61.8363 116.21491,64.9223 109.76851,64.9674 C 105.32231,64.9984 105.03991,65.1701 103.93671,68.5129 C 102.62381,72.4911 94.406313,81 91.877413,81 C 88.784813,81 81.042013,73.9011 80.970513,71 C 80.922813,69.0666 77.200813,62.9416 76.203113,63.1547 C 72.109313,64.0292 54.874313,52.5349 56.451913,49.9822 C 57.466513,48.3407 68.918013,40.8695 69.707713,41.3339 C 71.029513,42.1114 74.940913,40.0973 74.940913,38.6392 C 74.940913,37.0502 72.260213,35.6847 70.850713,36.5558 C 70.350313,36.865 69.940913,36.7128 69.940913,36.2176 C 69.940913,35.0522 60.052013,34.691 58.570713,35.8023 C 57.949313,36.2684 55.636013,37.1644 53.430113,37.7934 C 50.979513,38.4921 47.705513,40.6831 45.014213,43.4254 L 40.609213,47.9138 L 43.260513,51.7069 C 47.702213,58.0616 52.734213,63 54.767513,63 C 55.828213,63 57.256213,63.675 57.940913,64.5 C 58.625613,65.325 59.975613,66 60.940913,66 C 61.906213,66 63.199413,66.6065 63.814513,67.3477 C 64.429713,68.0889 66.278813,68.7337 67.923613,68.7804 C 72.833413,68.92 73.395713,69.8173 71.434113,74.3825 C 70.954413,75.4989 71.096513,77.0194 71.783113,78.1189 C 72.419913,79.1386 72.940913,80.7605 72.940913,81.7232 C 72.940913,84.0334 87.699513,98.000003 90.140713,98.000003 C 91.185413,98.000003 93.255413,97.359103 94.740613,96.575903 z M 37.940913,90.188603 C 37.940913,89.7423 38.886213,88.3625 40.041513,87.1224 C 41.196813,85.8824 41.970613,84.6963 41.761013,84.4867 C 41.018513,83.7443 34.930713,89.1745 35.490413,90.080003 C 36.192913,91.216703 37.940913,91.294103 37.940913,90.188603 z M 71.940913,89 C 71.940913,88.45 71.490913,88 70.940913,88 C 70.390913,88 69.940913,88.45 69.940913,89 C 69.940913,89.55 70.390913,90.000003 70.940913,90.000003 C 71.490913,90.000003 71.940913,89.55 71.940913,89 z M 135.92561,85.25 C 135.89041,83.5246 134.07991,81.7961 133.00421,82.4609 C 132.12501,83.0043 132.12751,83.5199 133.01481,84.589 C 134.26931,86.1006 135.95081,86.4825 135.92561,85.25 z M 47.670113,81.3958 C 47.337813,81.0635 46.475313,81.028 45.753413,81.3169 C 44.955713,81.6361 45.192713,81.8731 46.357613,81.9211 C 47.411813,81.9645 48.002413,81.7281 47.670113,81.3958 z M 55.940913,79.559 C 55.940913,78.5035 54.021813,78.0601 53.451013,78.9837 C 53.105513,79.5427 53.524513,80 54.381913,80 C 55.239413,80 55.940913,79.8016 55.940913,79.559 z M 95.715713,76.3681 C 96.468213,75.6156 97.395413,75 97.776313,75 C 98.428713,75 102.07421,67.5918 103.32031,63.7334 C 103.80591,62.2301 104.70321,62.0533 109.33991,62.5474 C 113.85631,63.0287 115.74881,62.6891 120.39671,60.5631 C 123.48101,59.1523 126.27551,57.2917 126.60671,56.4285 C 127.30171,54.6173 120.40221,47 118.06671,47 C 117.25911,47 115.84011,46.3137 114.91321,45.4749 C 113.98641,44.6362 111.54571,43.8866 109.48961,43.8093 C 107.03361,43.717 105.58711,43.1253 105.27301,42.0844 C 105.01011,41.213 104.37781,39.7186 103.86791,38.7636 C 103.35811,37.8085 102.94091,36.5051 102.94091,35.8671 C 102.94091,33.3034 95.803313,24 93.836513,24 C 91.623513,24 84.953213,30.6877 84.945713,32.914 C 84.943113,33.6917 84.179313,36.0542 83.248513,38.164 C 81.806213,41.433 81.094013,42 78.430013,42 C 74.439513,42 64.940913,44.7965 64.940913,45.9714 C 64.940913,46.463 64.082513,47.1377 63.033313,47.4707 C 61.984113,47.8037 60.873213,48.734 60.564713,49.5381 C 59.874813,51.336 60.808413,54 62.128413,54 C 62.663913,54 65.559513,55.6312 68.563213,57.6249 C 71.566813,59.6187 74.301713,60.9726 74.640613,60.6336 C 74.979613,60.2947 75.921813,60.5692 76.734513,61.2436 C 77.547113,61.918 78.915813,62.4766 79.776013,62.4849 C 80.772613,62.4945 81.721013,64.0165 82.390413,66.6808 C 83.829413,72.4077 89.629913,79.2335 92.329513,78.3767 C 93.439513,78.0244 94.963313,77.1205 95.715713,76.3681 z M 115.52001,73.5638 C 117.13881,71.945 115.91861,70.6876 113.59431,71.5795 C 112.75441,71.9018 112.31191,72.8033 112.61111,73.5828 C 113.29301,75.36 113.72671,75.3571 115.52001,73.5638 z M 109.54121,39.2347 C 111.85951,37.6867 112.74331,34.2412 112.50621,27.675 L 112.26041,20.8656 L 104.35321,12.9118 C 97.548513,6.0669 96.056813,5.0193 93.654413,5.3979 C 90.849813,5.8399 84.138613,11.2168 80.475413,15.9567 C 79.394413,17.3555 78.124313,18.7717 77.653113,19.1037 C 75.768813,20.4314 75.101813,27.2166 76.423713,31.6092 C 77.150513,34.0241 77.474213,36 77.143113,36 C 76.811913,36 77.105213,36.5625 77.794913,37.25 C 78.798713,38.2506 79.432713,38.0012 80.972713,36 C 82.030813,34.625 82.906513,32.5621 82.918713,31.4157 C 82.950213,28.4615 92.696513,19.3556 94.208613,20.8676 C 94.831413,21.4904 95.988813,22 96.780713,22 C 97.572513,22 98.827913,22.7875 99.570413,23.75 C 101.28411,25.9716 106.94091,37.6778 106.94091,39.0027 C 106.94091,40.1732 107.99491,40.2672 109.54121,39.2347 z"
     id="path2384"
     sodipodi:nodetypes="cccccccsssssssssssssssssssssssscccsssssssssssssscccssssssssssssssssssssssscccssccscccssssssccccccsssccsssssssssssssssssssssssssssssssssssccsssssssssssssssssssssssssssssssssssssssssssccssssccssssssssssssssssssssssccsssssssssssssssssssccsssssssssssssssssssssccssssssssssssssssssccsssssssssccssscccccssssssccsssssssssccsssssssccssssssssccsssssccsssccsssccssccsssccscccssssssssscccsssssssssssscccsssssssssccsssccsssccssccssccssccsssssssssssssssssssssssssccsscccccssssssssssssc" />
</svg>

