<?xml version="1.0" encoding="UTF-8" standalone="no"?>
<!-- Created with Inkscape (http://www.inkscape.org/) -->
<svg
   xmlns:dc="http://purl.org/dc/elements/1.1/"
   xmlns:cc="http://creativecommons.org/ns#"
   xmlns:rdf="http://www.w3.org/1999/02/22-rdf-syntax-ns#"
   xmlns:svg="http://www.w3.org/2000/svg"
   xmlns="http://www.w3.org/2000/svg"
   xmlns:sodipodi="http://sodipodi.sourceforge.net/DTD/sodipodi-0.dtd"
   xmlns:inkscape="http://www.inkscape.org/namespaces/inkscape"
   width="500"
   height="500"
   id="svg2"
   sodipodi:version="0.32"
   inkscape:version="0.46"
   version="1.0"
   sodipodi:docname="partial.svg"
   inkscape:output_extension="org.inkscape.output.svg.inkscape"
   inkscape:export-filename="/Users/xavid/Downloads/partial.png"
   inkscape:export-xdpi="90"
   inkscape:export-ydpi="90">
  <defs
     id="defs4">
    <inkscape:perspective
       sodipodi:type="inkscape:persp3d"
       inkscape:vp_x="0 : 526.18109 : 1"
       inkscape:vp_y="0 : 1000 : 0"
       inkscape:vp_z="744.09448 : 526.18109 : 1"
       inkscape:persp3d-origin="372.04724 : 350.78739 : 1"
       id="perspective10" />
    <inkscape:perspective
       id="perspective2507"
       inkscape:persp3d-origin="372.04724 : 350.78739 : 1"
       inkscape:vp_z="744.09448 : 526.18109 : 1"
       inkscape:vp_y="0 : 1000 : 0"
       inkscape:vp_x="0 : 526.18109 : 1"
       sodipodi:type="inkscape:persp3d" />
    <inkscape:perspective
       id="perspective2621"
       inkscape:persp3d-origin="372.04724 : 350.78739 : 1"
       inkscape:vp_z="744.09448 : 526.18109 : 1"
       inkscape:vp_y="0 : 1000 : 0"
       inkscape:vp_x="0 : 526.18109 : 1"
       sodipodi:type="inkscape:persp3d" />
  </defs>
  <sodipodi:namedview
     id="base"
     pagecolor="#ffffff"
     bordercolor="#666666"
     borderopacity="1.0"
     gridtolerance="10000"
     guidetolerance="10"
     objecttolerance="10"
     inkscape:pageopacity="0.0"
     inkscape:pageshadow="2"
     inkscape:zoom="0.80362219"
     inkscape:cx="424.77313"
     inkscape:cy="211.58281"
     inkscape:document-units="px"
     inkscape:current-layer="layer1"
     showgrid="false"
     borderlayer="true"
     inkscape:window-width="1222"
     inkscape:window-height="756"
     inkscape:window-x="16"
     inkscape:window-y="0"
     showguides="true"
     inkscape:guide-bbox="true" />
  <metadata
     id="metadata7">
    <rdf:RDF>
      <cc:Work
         rdf:about="">
        <dc:format>image/svg+xml</dc:format>
        <dc:type
           rdf:resource="http://purl.org/dc/dcmitype/StillImage" />
      </cc:Work>
    </rdf:RDF>
  </metadata>
  <g
     inkscape:label="Layer 1"
     inkscape:groupmode="layer"
     id="layer1"
     transform="translate(-90.253339,-53.817544)">
    <rect
       style="opacity:1;fill:#fdf16e;fill-opacity:1;stroke:#ffff00;stroke-width:0.50000000000000000;stroke-linecap:square;stroke-miterlimit:4;stroke-dasharray:none;stroke-dashoffset:0;stroke-opacity:1"
       id="rect3484"
       width="566.18646"
       height="561.20898"
       x="-23.64295"
       y="-18.900555"
       transform="translate(90.253339,53.817544)" />
    <path
       style="opacity:1;fill:#002eb1;fill-opacity:1;stroke:none;stroke-width:18;stroke-linecap:butt;stroke-miterlimit:4;stroke-dasharray:none;stroke-dashoffset:0;stroke-opacity:1"
       d="M 490.47484,95.113566 C 470.95668,95.490871 451.88128,100.16032 433.12689,105.22933 C 261.41262,153.91895 151.704,338.43534 202.51812,512.3694 L 202.59417,512.52152 L 208.07038,509.85948 L 384.98198,425.28264 C 399.51676,418.38797 392.11516,422.03292 399.43306,418.36134 L 400.57394,407.63712 C 409.0559,368.93627 417.40912,351.60105 453.35839,323.13634 L 453.66263,323.36453 L 482.94508,139.22739 C 482.99524,139.22035 483.04697,139.23437 483.0972,139.22739 L 483.02113,138.77104 L 489.48608,101.12218 L 490.47484,95.113566 z M 470.24335,141.35701 L 463.39809,181.13551 C 457.15622,182.63754 451.01246,184.37348 444.99197,186.30747 L 445.22015,167.67319 L 445.06804,163.10969 C 441.6389,163.33083 438.04566,164.28029 434.57199,165.39143 L 433.12689,151.01642 C 437.06379,149.71851 441.04163,148.50733 445.06804,147.36563 C 453.94584,144.84827 462.07044,142.91022 470.24335,141.35701 z M 411.29815,159.23073 L 415.40531,172.38881 L 407.26706,175.73537 L 410.91787,199.99796 C 404.82001,202.99307 398.90073,206.28887 393.12023,209.73343 L 387.41585,192.69637 L 385.66651,187.5244 C 381.56094,189.11618 377.81839,191.28705 374.10565,193.60907 L 367.79281,181.97216 C 381.45188,173.25869 395.97675,165.67087 411.29815,159.23073 z M 437.84251,172.08458 L 436.77769,269.81949 L 436.70163,277.88166 C 440.35771,275.95253 443.92046,274.39047 447.73009,272.78576 L 445.98073,282.82545 C 393.6178,311.10767 361.49968,363.62268 360.26304,423.60937 L 348.70217,429.16162 C 348.53876,422.58396 348.30149,421.25669 348.85429,414.86266 C 341.65908,417.19665 348.85882,414.82356 341.47663,417.22048 L 278.27218,440.79855 L 271.04665,443.46059 L 255.15046,449.39313 C 255.0334,448.20121 254.87083,447.00882 254.77017,445.81839 L 254.38989,439.80979 C 254.056,434.3958 253.85788,428.98068 253.85747,423.60937 L 270.51424,419.88251 L 277.8919,418.20924 C 302.05804,413.18679 325.9376,406.72746 350.14728,401.93276 L 353.18961,384.74357 L 281.69481,381.77729 L 274.39322,381.47307 L 257.43221,380.71249 C 257.70753,379.05143 257.96217,377.42128 258.26886,375.7687 L 259.79002,368.46711 C 260.51176,365.11136 261.29793,361.74269 262.14783,358.42741 L 278.95671,360.63309 L 286.33436,361.62185 L 356.99253,370.74886 C 359.37528,361.41726 359.94729,359.93298 364.90259,350.51734 L 298.12341,328.00408 L 291.2021,325.64627 L 275.07773,320.32219 C 275.76144,318.72102 276.41665,317.11692 277.13132,315.53051 L 280.32577,308.83739 L 280.2497,308.83739 C 282.58768,304.01248 285.15693,299.28401 287.77948,294.61449 L 302.6869,302.60061 L 309.0758,306.02324 C 329.99746,316.91951 350.45223,328.73687 371.4436,339.48889 L 375.32259,333.32816 L 385.13409,319.86585 L 326.64527,279.02254 L 320.71272,274.83933 L 306.87011,265.10387 C 311.69201,258.68019 316.83957,252.51711 322.23388,246.54565 L 334.40321,258.1065 L 339.72729,263.12635 L 386.42709,307.46834 L 391.523,312.48819 C 396.4597,306.50061 396.2714,306.73176 403.69232,300.77522 C 400.02734,294.37756 403.69598,300.66676 400.04153,294.31026 L 367.94493,236.20172 L 364.44625,229.73677 L 356.23195,214.98145 C 361.14925,211.16122 366.23801,207.50931 371.4436,204.02906 L 377.60432,200.07403 C 378.87829,199.27277 380.11749,198.42072 381.40723,197.64016 L 386.73133,213.68846 L 389.08913,220.83795 L 410.68969,285.79173 L 413.42779,292.71303 C 416.14532,290.58268 416.11176,290.81709 418.98005,288.83406 C 420.61834,287.814 422.22434,286.64263 423.84777,285.56354 L 430.61696,281.38034 C 429.87587,276.75169 430.55605,281.4168 429.47609,273.69845 L 415.55742,180.14675 C 422.6667,177.15862 430.37278,174.47065 437.84251,172.08458 z M 350.67969,193.83724 L 356.99253,205.32204 C 355.2432,206.61579 353.45923,207.86783 351.7445,209.20102 L 346.87678,213.07998 L 350.52758,219.62101 L 358.6658,234.45238 C 351.90083,240.22708 345.43468,246.28032 339.347,252.70636 L 327.25373,241.14551 L 321.92965,236.12565 L 316.98586,241.52579 C 316.15516,242.44451 315.29376,243.33433 314.47594,244.26389 L 304.74047,236.50595 C 318.36445,220.77425 333.74165,206.44924 350.67969,193.83724 z M 294.39655,249.13162 L 304.05596,256.96564 C 300.51405,261.51616 299.23977,262.16668 295.99377,266.92927 L 316.45345,280.77188 C 312.9013,285.80482 309.589,291.00643 306.41375,296.28778 L 291.43027,288.2256 L 285.04138,284.80297 C 281.87248,289.90174 281.4043,290.91219 278.57642,296.21171 L 266.48316,292.71303 C 274.45861,277.39851 283.81986,262.8247 294.39655,249.13162 z M 258.42097,309.67404 L 270.13394,313.32484 C 267.27706,319.71522 267.9303,318.44104 265.57045,325.03781 L 288.38794,332.41547 C 285.61874,339.33497 283.08662,346.3832 280.93423,353.55967 L 264.04929,351.35398 L 256.67163,350.44128 L 255.75893,350.28916 L 255.30259,354.85266 L 243.0572,353.63574 C 247.00076,338.55192 252.15795,323.85804 258.42097,309.67404 z M 238.34158,375.00811 L 250.96726,375.46446 C 250.66823,377.10835 250.39944,378.75631 250.13062,380.40825 L 249.0658,387.70984 L 256.36739,388.01408 L 273.17629,388.6986 C 272.01699,396.49669 271.16328,404.38373 270.74242,412.35274 L 247.08828,417.82893 C 246.86031,423.43449 246.57914,424.10597 246.708,429.77009 L 233.70202,432.28002 C 233.3346,412.89826 234.93587,393.70838 238.34158,375.00811 z M 247.77281,448.10013 C 247.89207,449.411 248.01442,450.74265 248.15311,452.05518 L 248.87714,459.94659 L 255.9871,456.92291 L 271.73118,451.06642 C 272.19972,455.72682 272.74819,460.3778 273.48051,465.06114 L 258.42097,472.28668 L 251.65179,475.55719 L 238.87398,481.64185 C 236.9983,471.89434 235.63174,462.14869 234.76683,452.43546 L 247.77281,448.10013 z"
       id="path3520"
       sodipodi:nodetypes="ccccccccccccccccccccccscccccccccccccccccccccccccccccccccccccccccccccccccccccccccccccccccccccccccccccccccccccccccccccccccccccccccccccccccccccccccccccccccccccc" />
  </g>
</svg>

