<?xml version="1.0" encoding="UTF-8" standalone="no"?>
<!-- Created with Inkscape (http://www.inkscape.org/) -->

<svg
   xmlns:dc="http://purl.org/dc/elements/1.1/"
   xmlns:cc="http://creativecommons.org/ns#"
   xmlns:rdf="http://www.w3.org/1999/02/22-rdf-syntax-ns#"
   xmlns:svg="http://www.w3.org/2000/svg"
   xmlns="http://www.w3.org/2000/svg"
   xmlns:sodipodi="http://sodipodi.sourceforge.net/DTD/sodipodi-0.dtd"
   xmlns:inkscape="http://www.inkscape.org/namespaces/inkscape"
   width="250"
   height="250"
   id="svg6264"
   sodipodi:version="0.32"
   inkscape:version="0.48.0 r9654"
   sodipodi:docname="Mon:PeacePaulownia.image.svg"
   inkscape:output_extension="org.inkscape.output.svg.inkscape"
   version="1.0">
  <defs
     id="defs6266">
    <inkscape:perspective
       sodipodi:type="inkscape:persp3d"
       inkscape:vp_x="0 : 526.18109 : 1"
       inkscape:vp_y="0 : 1000 : 0"
       inkscape:vp_z="744.09448 : 526.18109 : 1"
       inkscape:persp3d-origin="372.04724 : 350.78739 : 1"
       id="perspective6272" />
  </defs>
  <sodipodi:namedview
     id="base"
     pagecolor="#ffffff"
     bordercolor="#666666"
     borderopacity="1.0"
     gridtolerance="10000"
     guidetolerance="10"
     objecttolerance="10"
     inkscape:pageopacity="1"
     inkscape:pageshadow="2"
     inkscape:zoom="1.4142136"
     inkscape:cx="52.608635"
     inkscape:cy="148.01254"
     inkscape:document-units="px"
     inkscape:current-layer="layer1"
     showgrid="false"
     inkscape:window-width="967"
     inkscape:window-height="714"
     inkscape:window-x="20"
     inkscape:window-y="20"
     inkscape:window-maximized="0" />
  <metadata
     id="metadata6269">
    <rdf:RDF>
      <cc:Work
         rdf:about="">
        <dc:format>image/svg+xml</dc:format>
        <dc:type
           rdf:resource="http://purl.org/dc/dcmitype/StillImage" />
      </cc:Work>
    </rdf:RDF>
  </metadata>
  <g
     inkscape:label="Layer 1"
     inkscape:groupmode="layer"
     id="layer1"
     transform="translate(-46.611326,-11.179499)">
    <rect
       style="fill:#ffffff;fill-opacity:1;stroke:none"
       id="rect3277"
       width="274.35742"
       height="278.60007"
       x="-13.435029"
       y="-12.336616"
       transform="translate(46.611326,11.179499)" />
    <path
       style="fill:#000000"
       d="m 170.95108,35.309182 c -2.09504,0.02941 -2.99999,0.524624 -3,1.59375 0,0.7938 -0.93946,2.097749 -2.09375,2.90625 -3.20571,2.2454 -5.19446,6.609704 -3.78125,8.3125 0.63419,0.7642 0.80371,1.725801 0.375,2.125 -5.45398,-1.028848 -13.81809,-4.042685 -10.90625,5.125 1.70709,2.8898 1.70775,3.11975 -0.15625,6.78125 -1.0643,2.0909 -3.40001,5.498402 -5.1875,7.5625 -3.807,4.3962 -3.9629,5.565352 -1.1875,9.09375 1.13581,1.4439 1.83594,3.03825 1.53125,3.53125 -0.75669,1.2244 2.12001,3.46705 4.6875,3.65625 2.45071,0.1805 5.67715,-1.3334 8.21875,-3.875 0.9896,-0.9896 2.57715,-1.6245 3.53125,-1.375 3.0089,0.7868 5.07424,-2.91415 5.46875,-9.90625 0.2009,-3.5618 0.7543,-7.0298 1.25,-7.6875 1.8793,-2.4933 1.46805,-9.090999 -0.71875,-11.4375 -1.15341,-1.2375 -2.534,-2.249999 -3.0625,-2.25 -0.5286,0 -0.96874,-1.574999 -0.96875,-3.5 0,-2.8221 0.40269,-3.499999 2,-3.5 1.279,0 2.18866,-0.885799 2.59375,-2.5 0.34511,-1.375 1.34205,-2.499999 2.21875,-2.5 1.52859,0 8.18751,5.719747 8.1875,7.03125 0,0.3488 -0.46581,3.0351 -2.5625,5.375 0,0 -3.71248,2.020705 -4.3125,3.625 -1.28097,3.424972 -0.5625,12.3125 -0.5625,12.3125 0.2204,14.0146 0.18593,13.6169 1.40625,11.6875 0.51159,-0.8091 1.27559,-1.13065 1.6875,-0.71875 -0.35694,1.8474 -1.47306,2.95076 -1.125,4 0.34806,1.04923 0.54752,1.95113 1.09375,2.53125 0.54622,0.58012 2.6687,1.09121 2.90625,1.53125 0.23755,0.44004 0.20296,0.90225 -0.375,1.53125 -2.7127,1.4518 -6.06894,-2.10155 -4.15625,-4.40625 0.16077,-0.4076 -0.58373,-1.56053 -0.96875,-1.46875 -1.09228,0.26039 -2.51887,1.28135 -3.65625,1.34375 -1.57341,0.0863 -3.4375,0.5026 -4.125,0.9375 -0.68751,0.4348 -1.63261,0.5543 -2.125,0.25 -1.4664,-0.9063 -2.0999,2.2028 -0.6875,3.375 1.83509,1.523 0.7525,6.0625 -1.4375,6.0625 -0.96851,0 -2.28349,-0.6495 -2.9375,-1.4375 -1.30511,-1.5726 -4.8546,-1.7411 -6.75,-0.3125 -2.65396,1.60342 -1.38244,4.03498 -0.9375,8.03125 0.42981,5.550498 1.15396,6.718738 4.21875,6.718748 1.82361,0 2.8863,-0.9024 4.125,-3.5 0.918,-1.925 1.99055,-3.499998 2.40625,-3.499998 1.74119,0 1.81135,2.081448 0.15625,5.468748 -1.65049,3.3777 -2.05153,3.5855 -5.90625,3.3125 -2.54409,-0.1802 -3.96446,0.1099 -3.71875,0.75 0.2412,0.628 -1.48348,1.03845 -4.375,1.03125 -4.53489,-0.0112 -4.78125,0.13135 -4.78125,2.71875 0,1.4985 0.39256,2.60624 0.84375,2.46875 0.4512,-0.1375 1.24254,0.53749 1.78125,1.5 0.5386,0.9625 1.68775,1.74999 2.53125,1.75 0.84359,0 1.30569,0.56249 1.0625,1.25 -3.16401,2.65478 -6.90684,-0.49845 -10.03125,-0.59375 -3.85143,-2.1973 -13.27852,0.23214 -9.5,-6.4375 0.6868,-0.6869 1.07369,-3.53854 0.9375,-6.90625 -0.22601,-5.585798 -1.5077,-8.812098 -3.125,-7.812498 -0.4369,0.27 -1.78675,0.15605 -2.96875,-0.28125 l -2.125,-0.8125 2.25,-2.875 c 2.97638,-3.45707 1.86818,-7.43493 0.21875,-11.1875 -1.18709,-2.4511 -2.01035,-2.9855 -4.15625,-2.75 -3.26389,0.3583 -6.21875,-2.08645 -6.21875,-5.15625 0,-3.2722 -1.0217,-5.437499 -2.5625,-5.4375 -0.7379,0 -2.54755,-1.124999 -4.03125,-2.5 -3.57841,-3.3163 -7.35236,-3.201302 -10.718748,0.3125 -1.4779,1.5426 -2.687497,3.342598 -2.6875,4 0,0.6574 -0.499204,1.187501 -1.125,1.1875 -0.7907,0 -0.94929,1.677501 -0.5,5.5 0.6924,5.8912 0.594603,5.9988 -5,5.5625 -2.06499,-0.161 -3.604437,1.8328 -3.84375,4.9375 -0.06359,0.825 -0.488203,3.2217 -0.9375,5.3125 -0.67609,3.1463 -0.517261,4.04595 1.03125,5.21875 1.029,0.7792 2.720104,1.42 3.75,1.4375 1.51581,0.0258 1.655293,0.30255 0.6875,1.468748 -0.6576,0.7923 -1.820223,1.22234 -2.5625,0.9375 -1.179768,-0.45271 -3.916097,1.32005 -4.03352,3.32249 -0.244212,4.1646 1.873905,4.50191 -0.96648,5.77126 -3.653621,1.63278 -2.696639,6.7721 -0.71875,8.75 l 2.09375,2.09375 -3.90625,3.96875 c -5.2987,5.4056 -7.96875,11.21264 -7.96875,17.40625 0,3.2155 -0.866539,7.0268 -2.40625,10.4375 -2.81709,6.2404 -3.209699,8.8306 -2.1875,14.5 0.74701,4.1437 4.614091,9.25936 9.5625,12.65625 1.7929,1.2308 2.49681,2.6867 2.625,5.4375 0.09651,2.07 0.214449,4.49 0.28125,5.375 0.20081,2.6583 7.947463,10.67831 11.40625,11.8125 5.674367,2.17939 15.092758,1.58893 19.343748,-3.53125 5.27779,-10.45009 4.33278,-2.46787 12.375,-1.9375 0.82499,-0.0827 2.4893,-0.19745 3.6875,-0.28125 1.19819,-0.0837 2.9067,-0.9068 3.8125,-1.8125 1.5291,-1.5291 1.80295,-1.5112 3.53125,0.25 1.3661,1.392 1.92524,3.63604 2.09375,8.40625 0.1268,3.589 0.85645,7.50769 1.65625,8.75 0.76972,2.79991 1.87426,4.26359 4.125,6.625 3.51881,3.5854 5.35619,4.63095 10.1875,5.65625 3.2485,0.6894 5.90626,1.5482 5.90625,1.9375 0,1.9126 5.04021,6.11134 9.5,7.90625 9.82251,4.30542 17.08133,0.0645 23.09375,-8.03125 0.8809,-1.7035 2.26556,-2.84376 3.46875,-2.84375 2.9609,0 9.0415,-3.3659 12.375,-6.875 2.6051,-2.7423 2.9597,-3.92015 3.375,-11.09375 0.31851,-5.5015 0.8311,-8.03126 1.6875,-8.03125 0.68701,0 1.8153,-0.67501 2.5,-1.5 0.68469,-0.825 2.28244,-1.50001 3.53125,-1.5 1.2488,0 2.52715,0.67499 2.84375,1.5 1.66666,2.10277 4.95776,3.21677 7.625,3.34375 3.04214,0.24538 4.13166,-1.37587 6.40625,-2.78125 2.1645,-1.1584 2.70821,-1.00344 5.6875,1.84375 3.00175,2.85526 7.27608,3.68284 11.3125,4.09375 3.7352,0 4.85525,-0.5687 8.90625,-4.5625 4.29451,-4.2338 6.67281,-9.08725 6.6875,-13.65625 0.003,-1.0551 1.0737,-2.02471 2.75,-2.4375 1.51249,-0.3725 3.87501,-1.3816 5.25,-2.25 5.2885,-3.3399 5.53066,-3.89864 5.40625,-14.03125 -0.1001,-8.1607 -0.46648,-10.14871 -2.5,-13.5625 -1.90219,-3.1936 -2.40624,-5.41121 -2.40625,-11 0,-7.9498 -0.22769,-8.88959 -3,-12.375 -4.00873,-6.54849 -9.09424,-6.69004 -13,-10.125 -1.8783,-1.5589 -1.94066,-3.3963 -0.0937,-2.6875 0.76471,0.2934 2.38134,-0.40174 3.59375,-1.53125 1.7281,-1.61 2.05949,-2.70845 1.5625,-5.15625 -0.34869,-1.7175 -0.74861,-4.925 -0.875,-7.125 -0.31641,-5.503798 -1.31671,-6.811598 -4.75,-6.124998 -1.85519,0.3711 -3.40104,0.0363 -4.40625,-0.96875 -0.99979,-0.9999 -1.53124,-1.11945 -1.53125,-0.34375 0,0.9025 -0.36609,0.8786 -1.5,-0.0625 -0.825,-0.6847 -1.49999,-0.80565 -1.5,-0.28125 0,0.5244 -1.125,1.54535 -2.5,2.28125 -1.375,0.7359 -2.49999,2.09135 -2.5,3.031248 0,0.9399 -0.6676,3.35154 -1.5,5.34375 -0.58021,1.38864 -1.82744,3.50107 -2.40625,4.6875 -0.58503,-0.88857 -0.72997,-2.65031 -0.625,-5.46875 0.1628,-4.3718 0.77796,-6.243498 2.90625,-8.812498 2.63971,-3.1863 2.84886,-3.252 9.65625,-2.9375 l 6.96875,0.34375 0,-3.15625 c 0,-1.7355 0.44851,-4.00085 1,-5.03125 0.674,-1.2594 0.685,-2.0767 0,-2.5 -0.56039,-0.3464 -0.83435,-0.95445 -0.59375,-1.34375 0.2406,-0.3894 -0.87075,-1.4579 -2.46875,-2.375 -2.5399,-1.4577 -3.07433,-1.48815 -4.34375,-0.21875 -1.9349,1.9349 -3.02164,0.2441 -3.21875,-5 -0.0834,-2.219 -0.8311,-4.436304 -1.6875,-5.0625 -0.83561,-0.611 -1.65894,-2.438497 -1.84375,-4.0625 -0.2757,-2.422612 -0.50556,-2.837174 -3.0625,-2.75 -0.36528,0.01245 -0.78306,0.0339 -1.25,0.0625 -2.77959,0.1702 -4.8409,1.076798 -6.8125,3 -1.55399,1.5158 -3.91016,3.781401 -5.21875,5.0625 -1.3085,1.2812 -2.13307,2.964953 -1.84375,3.71875 0.58709,1.5301 -3.86651,3.73025 -9.8125,4.84375 -3.5993,0.6739 -3.67481,0.75915 -3.0625,4.40625 0.9763,5.8153 0.81719,13.2202 -0.3125,14 -0.5643,0.3896 -1.99779,1.98125 -3.1875,3.531248 -1.79939,2.3444 -1.98431,3.2269 -1.0625,5.25 0.60939,1.3375 1.4758,2.43749 1.9375,2.4375 0.4618,0 0.84376,0.83675 0.84375,1.84375 0,2.0036 3.3452,4.0187 6.5,3.9375 2.24759,-0.0579 6.50001,-3.50674 6.5,-5.28125 0,-1.8699 3.3137,-1.40131 5.75,0.8125 2.41459,2.194 2.97154,5.12811 1.15625,6.25 -0.61439,0.3797 -3.6519,0.82425 -6.75,0.96875 -7.175,0.3348 -13.84234,1.2182 -18.09375,2.4375 -3.81635,0.2928 -7.02524,1.89691 -10.8125,2.59375 -2.06251,0.3143 -4.425,0.60715 -5.25,0.65625 -1.80907,0.52525 -3.03201,1.71141 -4.90625,2.25 -3.14081,1.2029 -8.08627,4.28912 -10.90625,1.71875 -1.9167,-1.9167 -3.7119,-2.04776 -9.6875,-0.71875 -2.6971,0.5998 -2.80939,0.52389 -1.25,-0.75 0.95391,-0.7794 1.40391,-1.77295 1,-2.21875 -0.404,-0.4457 0.0375,-0.5329 1,-0.1875 0.9625,0.3454 1.75001,0.2239 1.75,-0.25 0,-1.6682 2.98016,-1.95591 6.21875,-0.625 3.54661,1.4574 7.69945,0.58345 7.90625,-1.65625 0.18609,-2.0141 0.18221,-2.13245 -0.5,-5.03125 -0.64321,-2.7334 -0.62739,-2.7292 3.625,-2.0625 2.347,0.368 6.27104,0.70941 8.71875,0.75 3.9791,0.0661 4.6938,-0.30575 6.75,-3.34375 2.65429,-3.9217 2.00865,-5.35745 -3.34375,-7.59375 -3.1,-1.2953 -7.17741,-1.2431 -13.75,0.125 -1.78821,0.3722 -2.63188,0.21175 -2.25,-0.40625 0.33781,-0.5465 -0.0875,-1.57585 -0.9375,-2.28125 -2.1032,-1.745498 -7.62045,-2.254948 -8.53125,-0.781248 -0.5674,0.918098 -1.10401,0.909148 -2.3125,-0.0937 -2.40609,-1.9969 -1.96504,-2.77215 2.65625,-4.46875 6.78659,-2.4916 7.2867,-2.43535 6.9375,0.65625 -0.2808,2.4866 -0.02,2.75 2.84375,2.75 4.92039,0 8.96876,-3.4138 8.96875,-7.5625 0,-2.2483 0.47251,-3.4375 1.375,-3.4375 2.30491,0 3.35629,-2.22505 4.0625,-8.71875 0.6148,-5.6526 0.4653,-6.376448 -1.625,-8.28125 -1.262,-1.1501 -3.00381,-2.762997 -3.875,-3.5625 -1.19589,-1.097515 -3.25785,-2.70398 -4.34375,-2.75 1.31914,-0.883619 2.719,-1.37523 3.6875,-2.40625 2.7077,-2.8823 2.74949,-3.036302 1.25,-6.625 -3.13113,-2.708697 0.14946,-3.343268 -1.875,-5.5 -1.15339,-1.2744 -2.58379,-1.661752 -4.75,-1.34375 -2.87,0.4212 -3.0146,0.301951 -2,-1.59375 0.9437,-1.7633 0.49154,-2.694803 -3.15625,-6.5625 -2.3341,-2.4748 -5.14999,-4.581299 -6.25,-4.6875 -0.97452,-0.09405 -1.80165,-0.134805 -2.5,-0.125 z m 17,18.21875 c 0,1.0002 0.45001,2.097601 1,2.4375 1.5429,0.9536 1.20271,2.241853 -1.1875,4.46875 -2.5064,2.335 -2.30259,2.313197 -6.4375,0.5 -2.77039,-1.2148 -3.06686,-1.763 -2.65625,-4.6875 0.2547,-1.8141 0.48836,-3.770303 0.53125,-4.375 0.0431,-0.6069 1.3734,-0.963352 2.9375,-0.78125 4.20467,-0.716836 6.27632,-1.442153 5.8125,2.4375 z m -29.875,-2.6875 c 4.92906,0.304372 10.17491,2.507716 5.25,9.3125 -0.73629,-0.353034 -3.04626,0.674454 -4.625,0.71875 -2.65831,0.0746 -3.24999,-0.291797 -3.25,-2 0,-1.1486 -0.5776,-2.828947 -1.3125,-3.71875 -0.7348,-0.8898 -1.09756,-2.019453 -0.78125,-2.53125 -1.26201,-3.256478 2.41281,-1.929243 4.71875,-1.78125 z m 17.96875,2.625 c 0.47509,0 0.72594,1.359152 0.53125,3.03125 -0.3855,3.3109 -1.14,4.571553 -1.9375,3.28125 -0.7437,-1.2034 0.39454,-6.312499 1.40625,-6.3125 z m -8.21875,1.90625 c 0.21159,-0.03748 0.44565,0.07065 0.71875,0.34375 0.3236,0.3236 0.39474,1.400752 0.15625,2.40625 -0.4144,1.747 -0.47505,1.7759 -1.21875,0.0625 -0.58823,-1.35525 -0.29103,-2.700067 0.34375,-2.8125 z m -4.0625,6.625 c 0.82442,0.32593 2.2686,0.111113 2.8125,0.5625 0.75019,0.6226 1.1368,1.482746 0.875,1.90625 -0.2617,0.4235 -0.7278,2.4983 -1.0625,4.625 -0.72141,4.5851 -1.42425,5.659949 -1.46875,2.28125 -0.0175,-1.3292 -0.6925,-3.276148 -1.5,-4.34375 -0.80749,-1.0676 -2.38879,-3.350899 -1.46875,-4.09375 0.57897,-0.467468 1.58226,-0.639388 1.8125,-0.9375 z m 14.75,0.40625 c 0.76667,-0.0042 1.72565,0.215218 2.875,0.65625 2.1852,0.8385 1.97918,2.406251 -0.3125,2.40625 -1.1725,0 -2.52999,1.324201 -3.5625,3.5 -1.56919,3.307 -4.38984,5.114502 -3.21875,2.0625 0.30161,-0.7859 0.85025,-3.035898 1.21875,-5 0.46593,-2.483456 1.31332,-3.615681 3,-3.625 z m -22.96875,0.375 c 0.45206,-0.03437 0.90104,0.01576 1.34375,0.15625 3.08949,0.9806 5.7401,5.511851 6.3125,10.78125 0.45629,4.2005 0.29614,4.75 -1.40625,4.75 -1.0588,0 -2.9139,1.08585 -4.125,2.40625 -3.2314,3.5231 -7.136,4.1203 -8.4375,1.3125 -3.53659,-7.6293 -3.3471,-9.278302 1.375,-13 1.2469,-0.9827 2.025,-2.377047 1.75,-3.09375 -0.58898,-1.534894 1.22857,-3.163571 3.1875,-3.3125 z m 84.59375,1.6875 c 1.18149,0 1.9361,1.097601 2.375,3.4375 0.4499,2.398 1.0749,3.253898 2.0625,2.875 0.9514,-0.3651 1.20269,-0.04815 0.8125,0.96875 -0.3187,0.8306 -0.0875,1.8244 0.5,2.1875 1.73579,1.0728 1.27345,2.302 -2.40625,6.375 -1.91529,2.12 -4.10415,5.012 -4.84375,6.4375 l -1.34375,2.59375 -2.40625,-2.8125 c -3.3733,-3.9085 -5.93749,-8.5299 -5.9375,-10.75 0,-2.8578 2.85615,-6.312499 5.21875,-6.3125 1.16049,0 1.85275,-0.272253 1.53125,-0.59375 -0.94381,-0.9439 2.547,-4.406249 4.4375,-4.40625 z m -138.375,1.34375 c 0.68096,-0.04353 1.41481,0.458751 2.65625,1.625 1.31819,1.2384 2.82645,1.975848 3.34375,1.65625 1.62761,-1.006 4.0777,2.764598 3.75,5.75 -0.1721,1.5675 -1.48286,3.8394 -2.90625,5.0625 -2.2287,1.915 -2.62759,3.16725 -2.875,8.90625 -0.15809,3.6655 -0.61875,6.65545 -1.03125,6.65625 -0.8277,10e-4 -0.9176,-0.6497 -0.9375,-6.5 -0.0119,-3.4896 -0.6335,-4.58135 -4.874998,-8.53125 -3.9496,-3.6781 -4.750511,-4.961402 -4.25,-6.875 0.3388,-1.2956 1.452049,-2.577947 2.46875,-2.84375 1.0167,-0.2659 1.843753,-1.056497 1.84375,-1.75 0,-0.6935 0.690139,-1.833149 1.531248,-2.53125 0.47531,-0.394463 0.87268,-0.598882 1.28125,-0.625 z m 83.5625,0 c 2.00055,0.141964 3.84874,3.844862 6.3125,5.0625 2.5427,0.807 3.31551,3.110848 2.125,6.46875 -0.46449,1.3101 -0.57226,3.29245 -0.21875,4.40625 0.45549,1.435 -0.018,2.54555 -1.65625,3.78125 -2.8336,2.1374 -6.40671,1.1409 -9.5625,-2.6875 -1.53114,-1.16121 -4.0979,-0.58473 -4.6875,-0.90625 -0.5896,-0.32152 -0.74749,-1.17047 -0.6875,-1.875 0.06,-0.70453 1.60695,-2.82276 1.375,-4.75 -0.71529,-4.473 1.04199,-7.134203 6.125,-9.3125 0.29395,-0.142056 0.58921,-0.207781 0.875,-0.1875 z m 39.75,12.9375 c 1.05044,0.10397 1.69893,1.74743 2.21875,5.21875 0.55151,3.6832 0.3729,4.1386 -2.4375,5.75 -4.9201,2.821 -8.71595,2.0134 -7.34375,-1.5625 0.31421,-0.819 0.0875,-1.79325 -0.5,-2.15625 -0.58749,-0.3631 -1.06249,-1.77225 -1.0625,-3.15625 0,-2.1749 0.39011,-2.47945 2.875,-2.21875 1.58121,0.1658 3.6454,-0.33265 4.5625,-1.09375 0.66941,-0.55556 1.21003,-0.82851 1.6875,-0.78125 z m 28.59375,1.71875 c 2.3099,0 2.72001,0.7971 2.375,4.5 -0.1024,1.1 -0.2646,3.125 -0.375,4.5 -0.16121,2.0075 -0.76259,2.49355 -3,2.53125 -1.53249,0.0258 -2.9947,-0.15095 -3.25,-0.40625 -0.2553,-0.2552 -1.4636,-0.5349 -2.6875,-0.625 -3.43221,-0.2529 -4.2356,-5.72645 -1.25,-8.53125 1.68171,-1.58 2.39019,-1.76745 2.75,-0.78125 0.38681,1.0601 0.7509,1.0641 1.8125,0.0625 0.72881,-0.6875 2.35999,-1.25 3.625,-1.25 z m -137.78125,0.59375 c 0.59928,0.006 1.28634,0.10349 2.0625,0.25 3.57559,0.675 3.96325,1.23715 4.65625,6.90625 0.3298,2.6986 0.0687,3.25 -1.5625,3.25 -1.08049,0 -2.21886,-0.40085 -2.53125,-0.90625 -0.7625,-1.2338 -5.67906,1.26425 -7.53125,3.84375 -3.03111,4.2212 -4.20329,1.61465 -1.25,-2.78125 0.98081,-1.4599 1.92986,-4.00625 2.09375,-5.65625 0.31628,-3.18472 1.29111,-4.66929 3.5,-4.875 0.18408,-0.0171 0.36274,-0.0333 0.5625,-0.0312 z m -20.999998,1.5625 c 0.417,-0.0496 0.728648,0.2484 1.125,0.875 0.82139,1.2986 1.386003,5.17025 1.0625,7.21875 -0.06511,0.4125 0.557408,0.75 1.375,0.75 2.073708,0 4.343748,5.96545 4.343748,11.406248 0,2.5079 0.29176,5.9028 0.65625,7.5625 0.3646,1.6597 0.46275,3.03124 0.21875,3.03125 -0.5218,0 -3.718745,-8.13744 -3.718748,-9.46875 0,-0.5015 -1.209601,-2.17615 -2.6875,-3.71875 -2.53561,-2.646598 -2.0614,-4.186498 0.5,-1.624998 0.8983,0.8983 1.490436,0.9159 2.343748,0.0625 0.85339,-0.8533 0.2779,-1.4685 -2.249998,-2.5 -3.03341,-1.2378 -3.585563,-1.2005 -5.34375,0.4375 -1.2272,1.1433 -2.711404,1.59905 -4,1.21875 -3.18639,-0.9404 -6.130297,-5.40625 -3.5625,-5.40625 0.55,0 1.000003,-1.54005 1,-3.40625 0,-3.363 2.033248,-5.312 4.15625,-4 0.535,0.3307 1.869844,-0.22415 2.96875,-1.21875 0.85735,-0.7759 1.3955,-1.1691 1.8125,-1.21875 z m 14.281248,0.25 c 0.44801,-0.11153 0.75261,0.41062 0.71875,1.28125 -0.0386,0.995 -0.46481,2.7125 -0.9375,3.8125 -0.72441,1.6859 -0.84695,1.5023 -0.90625,-1.1875 -0.0386,-1.755 0.35625,-3.4726 0.90625,-3.8125 0.0687,-0.0425 0.15475,-0.0778 0.21875,-0.0937 z m 59.34375,1.125 c 0.62706,-0.0592 1.28806,0.16303 1.90625,0.78125 2.197,2.197 1.89704,3.60545 -1.03125,4.71875 -3.4438,1.3093 -3.43749,1.30905 -3.4375,-1.40625 0,-2.36163 1.18296,-3.96348 2.5625,-4.09375 z m -69.218748,0.8125 c 0.03869,-0.008 0.0777,-0.008 0.125,0 0.227051,0.039 0.562501,0.26723 1.031248,0.65625 0.82499,0.6847 1.5,2.3173 1.5,3.625 0,1.3076 -0.3838,2.375 -0.875,2.375 -1.102098,0 -2.124995,-2.49655 -2.124998,-5.21875 0,-0.92996 0.07295,-1.38233 0.34375,-1.4375 z m 132.468748,1.65625 c 1.0417,0 3.18751,2.1485 3.1875,3.1875 0,1.4734 -1.48819,0.8329 -2.75,-1.1875 -0.68701,-1.1 -0.8822,-2 -0.4375,-2 z m -49.15625,0.5625 c 0.22331,-0.0187 0.42157,-0.009 0.625,0 1.2658,0.0561 2.19324,0.64762 3.40625,1.71875 2.31749,2.0465 2.0915,4.3189 -0.625,6.4375 -2.8662,2.2354 -4.00016,1.53465 -3.03125,-1.84375 l 0.90625,-3.09375 -4.59375,0.6875 c -4.42209,0.6631 -8.8551,2.23635 -14.5,5.15625 -3.122,1.6148 -3.52262,1.6771 -4.25,0.5 -0.67781,-1.0966 1.84992,-3.36885 2.75,-2.46875 0.35851,0.3586 1.49535,-0.0937 2.53125,-1.03125 1.03591,-0.9375 3.16999,-1.9255 4.75,-2.1875 1.57989,-0.262 3.77501,-0.8861 4.875,-1.375 3.47065,-1.54271 5.59309,-2.36935 7.15625,-2.5 z m 58.34375,0.4375 c 0.55,0 1.00001,0.45 1,1 0,0.55 -0.44999,1 -1,1 -0.55,0 -0.99999,-0.45 -1,-1 0,-0.55 0.45001,-1 1,-1 z m -14.0625,3.09375 c 0.96526,0.006 2.11485,0.63139 2.75,1.5 1.02421,1.4008 1.60284,1.52205 2.53125,0.59375 2.08489,-2.085 2.53126,-1.32165 2.53125,4.15625 0,3.513998 -0.57904,6.114098 -1.71875,7.624998 -1.9204,2.546 -2.0851,2.3996 -4.0625,-3.875 -0.76229,-2.418998 -2.10971,-4.579698 -3,-4.812498 -2.22671,-0.5823 -1.77571,-4.70325 0.5625,-5.15625 0.12729,-0.0247 0.26836,-0.0321 0.40625,-0.0312 z m -73,1.15625 c 0.4955,0.0151 1.18774,0.45833 2.0625,1.25 2.28249,2.0656 2.51666,4.2659 0.84375,7.937498 -2.09959,4.608 -3.61005,3.1792 -3.96875,-3.749998 -0.18162,-3.50869 0.0303,-5.20624 0.875,-5.40625 0.0634,-0.015 0.11671,-0.0334 0.1875,-0.0312 z m 63.90625,3.0625 c 0.27816,-0.0228 0.56292,0.0451 0.90625,0.1875 0.96551,0.4006 2.3222,0.75505 3,0.78125 2.0061,0.0774 4.98005,3.97645 5.71875,7.468748 0.58459,2.7639 0.4218,3.24999 -1.1875,3.25 -1.04079,0 -3.20044,1.34999 -4.78125,3 -1.5808,1.65 -3.12791,2.97715 -3.4375,2.96875 -1.81551,-0.0494 -3.2792,-2.0278 -2.8125,-3.8125 0.39809,-1.5223 0.003,-2.11665 -1.53125,-2.34375 -2.3119,-0.3421 -3.29839,-4.8125 -1.0625,-4.8125 0.72569,0 2.01436,-1.639998 2.84375,-3.624998 0.8847,-2.11748 1.50927,-2.99406 2.34375,-3.0625 z m -101.0625,0.875 c 0.18471,-0.007 0.39256,0.0146 0.59375,0.0312 4.08767,0.99316 3.00691,2.96656 6.53125,3.65625 3.38179,0.6142 3.42285,0.673048 3.59375,6.406248 0.21269,7.1346 -1.00921,8.50759 -6.125,6.9375 -2.2363,-0.6863 -4.4523,-0.7522 -5.9375,-0.1875 -1.4565,0.5537 -2.5713,0.53 -2.9375,-0.0625 -0.32689,-0.529 -0.1955,-0.96876 0.3125,-0.96875 0.50811,0 0.7971,-2.76696 0.625,-6.15625 -0.34424,-6.777558 0.57307,-9.557428 3.34375,-9.656248 z m 132.53125,1.96875 c 0.97737,0.008 1.94534,0.44309 2.71875,1.375 0.8732,1.051998 1.59285,1.195648 2.46875,0.46875 0.6823,-0.5663 1.99404,-0.75625 2.90625,-0.40625 1.2685,0.4868 1.55986,1.562848 1.21875,4.531248 -0.2452,2.1344 -0.0949,3.87499 0.34375,3.875 1.8199,0 1.8261,4.2364 0,6.0625 -2.2196,2.2196 -4.0034,1.769 -8.875,-2.1875 -3.24631,-2.6365 -3.55266,-2.6933 -6.34375,-1.25 -1.94264,1.0046 -3.23798,1.3731 -4.0625,0.96875 2.00952,-1.33586 5.31251,-6.17494 5.3125,-8.5625 0,-2.900628 2.16229,-4.892258 4.3125,-4.874998 z m -139.96875,0.84375 c 1.1247,0 1.43925,1.30209 1.40625,5.499998 -0.0649,8.2517 -2.1059,7.2777 -2.625,-1.25 -0.1944,-3.194298 0.11116,-4.249998 1.21875,-4.249998 z m -15.906248,1.718748 c 0.323182,0.0249 0.628588,0.21109 0.96875,0.5625 3.0329,3.1329 5.255908,7.55794 5.5,10.96875 0.245608,3.4325 0.04601,3.74999 -2.3125,3.75 -1.41709,0 -2.867748,-0.0468 -3.21875,-0.0937 -0.351,-0.047 -0.933039,0.3741 -1.28125,0.9375 -0.34819,0.5634 -1.959553,1.2661 -3.59375,1.5625 -1.6342,0.2963 -3.125109,1.0003 -3.3125,1.5625 -0.5618,1.6853 -1.928998,1.18116 -4.0625,-1.53125 -2.27481,-2.892 -1.914752,-4.9959 0.96875,-5.75 1.734,-0.4534 1.815352,-0.81205 0.71875,-3.21875 -1.0979,-2.4098 -0.983949,-2.89955 1.03125,-4.53125 1.2446,-1.0078 2.835936,-1.61055 3.53125,-1.34375 0.69529,0.2668 2.071298,-0.43595 3.0625,-1.53125 0.875062,-0.96688 1.461363,-1.38521 2,-1.34375 z m 73.281248,0.28125 c 2.3304,0 3.63284,3.24205 1.96875,4.90625 -1.32401,1.3239 -5.68749,1.44395 -5.6875,0.15625 0,-0.5107 0.66995,-1.5762 1.46875,-2.375 0.7988,-0.7988 1.15302,-1.7221 0.8125,-2.0625 -0.34039,-0.3405 0.31002,-0.625 1.4375,-0.625 z m 10.15625,1.09375 c 0.11895,-0.0107 0.21205,-0.008 0.3125,0 0.60273,0.0485 0.8087,0.41705 0.59375,1.0625 -0.2464,0.74 -1.23844,1.4975 -2.21875,1.6875 -1.14,0.221 -1.63034,-0.1394 -1.34375,-1 0.24641,-0.74 1.26972,-1.4975 2.25,-1.6875 0.1425,-0.0276 0.2873,-0.0518 0.40625,-0.0625 z m 13.96875,2.6875 c 0.67495,-0.0141 1.34854,-0.007 2.03125,0 1.30581,0.0143 3.26224,0.91839 4.34375,2 1.6793,1.6792 1.77888,2.25241 0.6875,4 -1.06691,1.7084 -2.03524,1.97945 -5.84375,1.59375 -2.5094,-0.2541 -5.34999,-0.4918 -6.3125,-0.5 -0.96251,-0.008 -1.74999,-0.4217 -1.75,-0.9375 0,-1.2887 -6.72744,-1.20676 -7.53125,0.0937 -0.44301,0.7168 -1.09791,0.70676 -2.0625,-0.0937 -1.01441,-0.8419 -1.40624,-0.8695 -1.40625,-0.0625 0,0.618 -1.58625,1.12499 -3.53125,1.125 -1.94271,0 -5.08272,0.66765 -7,1.46875 -1.91741,0.8011 -3.70634,1.4629 -3.96875,1.5 -3.4811,0.4924 -6.6318,1.45925 -7.0625,2.15625 -0.8601,1.3916 -1.92539,1.0369 -4.25,-1.4375 -2.85921,-3.0436 -2.74725,-3.68751 0.65625,-3.6875 1.5583,0 3.18104,-0.33751 3.59375,-0.75 0.41259,-0.4125 2.38974,-0.82505 4.40625,-0.90625 6.2498,-0.2518 14.1945,-1.60111 14.75,-2.5 0.2914,-0.4715 2.72116,-0.84376 5.40625,-0.84375 2.6851,0 5.12257,-0.38485 5.40625,-0.84375 0.42097,-0.68127 4.71283,-1.27641 9.4375,-1.375 z m -84.78125,2.21875 c 0.51709,0 0.9998,0.33749 1.0625,0.75 0.0628,0.4125 0.2582,1.98749 0.4375,3.5 0.1794,1.5125 -0.10791,2.74999 -0.625,2.75 -0.517,0 -0.96854,-0.33751 -1.03125,-0.75 -0.66539,-4.3767 -0.63085,-6.25001 0.15625,-6.25 z m 130.03125,2.0625 c 0.48686,-0.11804 0.90625,0.6505 0.90625,2.375 0,3.3772 1.2031,3.79025 5.5625,1.96875 3.5664,-1.4901 3.85148,-1.46099 5.8125,0.5 2.3907,2.3907 1.23558,4.29225 -1.875,3.09375 -1.10761,-0.4268 -4.03261,-0.6797 -6.5,-0.5625 -5.12961,0.2436 -5.7949,-0.33015 -5.1875,-4.46875 0.26244,-1.78815 0.79439,-2.78821 1.28125,-2.90625 z m -60.84375,4.15625 c 0.18324,-0.0262 0.34293,0.0304 0.4375,0.125 0.37831,0.3782 -0.29434,1.56205 -1.46875,2.65625 -3.5664,3.3225 -4.54134,2.34755 -1.21875,-1.21875 0.82064,-0.88088 1.70029,-1.48383 2.25,-1.5625 z m -5.71875,0.25 c 0.86572,0.0537 0.49405,1.3497 -1.15625,3 -0.89589,0.8959 -2.23225,1.4076 -2.96875,1.125 -0.73651,-0.2826 -1.61241,-0.0885 -1.9375,0.4375 -0.7021,1.136 -1.54615,1.1854 -3.09375,0.1875 -1.55789,-1.0046 0.33661,-2.5991 3.625,-3.0625 1.37499,-0.1937 3.2875,-0.76815 4.25,-1.28125 0.56167,-0.29942 0.99268,-0.42415 1.28125,-0.40625 z m 8.5,1.4375 1,2.625 c 0.5499,1.4464 0.74891,3.0587 0.4375,3.5625 -0.86339,1.397 -3.07861,1.08771 -4.5,-0.625 -1.0578,-1.2746 -0.88655,-1.8923 0.90625,-3.5625 l 2.15625,-2 z m 73.78125,1.09375 c 0.58481,0 1.3875,0.476 1.75,1.0625 1.0763,1.7415 -0.15976,2.12134 -1.53125,0.46875 -0.7888,-0.9504 -0.88185,-1.53126 -0.21875,-1.53125 z m -144.03125,0.6875 c 0.37654,-0.003 0.6157,0.022 0.6875,0.0937 0.2871,0.2872 2.66145,0.58525 5.28125,0.65625 2.61979,0.0709 5.2,0.36345 5.75,0.65625 0.55,0.2928 3.025,0.49161 5.5,0.4375 7.51949,1.9972 16.487,2.13552 23.5625,5.53125 3.52611,1.67583 7.33839,3.45007 11.125,4.8125 1.7287,1.0053 1.70701,1.0703 -0.1875,1.1875 -8.15051,0.504 -9.76976,0.74724 -10.34375,1.59375 -0.8575,1.2646 -10.45409,1.23804 -11.3125,-0.0312 -0.5318,-0.7866 -8.11355,-1.4355 -19.34375,-1.6875 -6.73949,-0.1512 -17.03149,1.17894 -18.999998,2.46875 -1.33259,0.8732 -3.022287,1.59374 -3.75,1.59375 -0.72759,0 -2.87706,1.34105 -4.78125,2.96875 -4.7605,4.069 -1.642159,3.98461 4.96875,-0.125 5.407188,-3.3613 8.214798,-3.79005 26.062498,-3.90625 9.13,-0.0595 13.01296,0.33726 14.84375,1.46875 1.99654,1.16418 -3.15495,4.00429 -5.34375,5.03125 -1.92501,0.8043 -3.14523,2.02716 -3.5,2.40625 -1.125,1.2021 -3.09375,2.30804 -4.40625,1.21875 -0.64279,-0.5335 -3.17499,-0.7043 -5.625,-0.375 -2.45,0.3292 -5.8834,0.66155 -7.625,0.71875 -3.41352,-0.072 -5.15303,2.30143 -8.5625,3.59375 -4.573611,2.8572 -10.440412,5.19118 -13.343748,9.875 0.4961,0.8028 1.86766,0.27165 4.40625,-1.71875 2.0215,-1.5849 5.456253,-3.64355 7.656248,-4.59375 2.2,-0.9501 4.80674,-2.14026 5.78125,-2.65625 0.97449,-0.5159 3.64345,-1.8516 6.09375,-2.1875 3.5465,-0.5703 4.82316,-1.02687 8.375,-0.4375 2.0809,0.0792 1.4658,1.2851 -3.4375,6.625 -2.58149,2.8113 -6.744,6.08415 -9.25,7.28125 -7.81559,3.56808 -13.430946,9.5902 -18.312498,16.5625 -2.1372,4.3877 -0.712443,3.1856 6.96875,-5.0625 2.924566,-3.70724 7.229288,-7.75606 10.281248,-8.6875 1.9642,0 0.97721,1.87015 -0.75,5.15625 -0.96479,1.8358 -1.97411,3.56825 -2.25,3.84375 -0.27581,0.2754 -1.12421,1.84999 -1.875,3.5 -0.7508,1.65 -1.74336,3.78034 -2.218748,4.71875 -0.47551,0.9385 -1.114607,3.63849 -1.4375,6 -0.5495,4.0191 -0.499148,4.16074 0.96875,2.34375 0.862588,-1.0676 1.562498,-2.55384 1.562498,-3.28125 0,-0.7273 0.41546,-2.1074 0.90625,-3.0625 0.9973,-1.9404 3.37929,-7.44586 3.5625,-8.21875 0.4224,-1.7816 5.99155,-11.63535 6.90625,-12.21875 0.6203,-0.3956 1.40124,0.001 1.71875,0.90625 0.6913,1.9708 -0.71805,11.75031 -2.21875,15.5 -1.62549,4.0615 -0.45599,5.8351 1.4375,2.1875 2.04769,-3.9444 2.65596,-7.03285 3.21875,-16.28125 0.49621,-8.1536 1.28521,-9.09376 2.5,-10.59375 2.40505,-2.57211 4.09885,-5.70282 6.84375,-6.75 2.53631,-0.6633 3.0128,1.83655 2.5,13.09375 -0.336,7.3756 -0.8961,9.68575 -3.875,15.78125 -3.60251,7.3715 -4.13969,9.37499 -2.5625,9.375 0.50451,0 1.67981,-2.02501 2.625,-4.5 0.94521,-2.475 2.0155,-4.50001 2.375,-4.5 0.3595,0 0.74371,2.81249 0.875,6.25 0.13121,3.4375 0.44041,7.8713 0.6875,9.875 0.43161,3.4991 0.32684,3.6708 -3.09375,4.3125 -4.70601,0.8829 -9.1202,-0.15146 -11.75,-2.78125 -2.0388,-2.0388 -2.15201,-2.0568 -2.5,-0.25 -4.18489,10.39534 -13.17814,14.2161 -24.593748,7.75 -6.1186,-6.2979 -6.648948,-7.46274 -6.34375,-13.78125 0.1937,-4.0085 -0.08855,-5.98625 -0.78125,-5.71875 -0.58211,0.2249 -2.116761,-0.5066 -3.40625,-1.625 -3.049054,-1.79145 -4.515679,-3.57406 -6.15625,-6.78125 -3.092397,-5.87241 -3.738198,-13.74599 1.75,-19.78125 2.4639,-2.4639 2.571959,-2.91165 1.46875,-6.59375 -0.64819,-2.1635 -0.894099,-4.36966 -0.5625,-4.90625 0.3317,-0.5366 0.773211,-1.91635 1,-3.09375 0.22671,-1.1774 1.095402,-2.91324 1.9375,-3.84375 0.8421,-0.9305 1.53125,-2.1957 1.53125,-2.8125 0,-0.6169 0.78749,-1.59565 1.75,-2.15625 0.9625,-0.5606 1.337009,-1.01455 0.8125,-1.03125 -1.2999,-0.0414 9.646209,-6.9678 11.0625,-7 0.6201,-0.0141 1.695298,-0.71224 2.375,-1.53125 0.6797,-0.8189 1.540353,-1.2887 1.90625,-1.0625 0.366,0.2261 3.44146,-0.165 6.843748,-0.875 2.55173,-0.5325 4.90162,-0.86557 6.03125,-0.875 z m 47.03125,1.75 c 0.7676,0.0196 1.52832,0.46588 2.5625,1.4375 1.52671,1.4342 2.60665,1.75734 3.65625,1.09375 2.60991,-1.6502 3.13037,-1.0406 1.28125,1.5 -2.09359,2.8766 -2.12369,2.8702 -9.3125,0.5625 -4.3858,-1.4079 -5.09479,-1.90306 -3.5,-2.46875 1.1,-0.3901 2.8541,-1.16775 3.875,-1.71875 0.53333,-0.28785 0.97694,-0.41798 1.4375,-0.40625 z m 86.625,0.90625 c 7.19407,0.0163 8.72751,0.50834 12.21875,2.21875 2.6623,1.3043 5.34159,2.38905 5.9375,2.40625 0.59581,0.0172 2.77864,1.71874 4.84375,3.78125 6.11319,6.1053 8.20566,13.49069 5.03125,17.6875 -2.03509,2.6907 -1.84279,4.22959 0.625,4.875 4.97013,3.16943 5.75609,12.00658 6.3125,17.5625 0.0984,7.1102 -0.1425,8.21414 -2.3125,10.53125 -2.62419,2.8022 -7.74182,3.53946 -9.875,1.40625 -1.30871,-1.3087 -1.29559,-1.34771 -1.75,5.1875 -0.37881,5.448 -2.55949,10.8895 -5.375,13.4375 -4.79662,4.13034 -9.79971,3.72517 -15.09375,1.96875 -4.13951,-2.2688 -6.13075,-4.15425 -6.40625,-6.03125 -0.37859,-2.5799 -2.61909,-2.94376 -3.25,-0.53125 -0.2961,1.1323 -1.66314,2.7911 -3.03125,3.6875 -2.10529,1.3794 -2.98335,1.4312 -5.65625,0.375 -5.61061,-2.2171 -6.65624,-3.7265 -6.65625,-9.625 0,-7.0393 -1.6204,-13.2714 -5.25,-20.1875 -2.6614,-5.0712 -7.4837,-12.83456 -8.75,-14.09375 -1.7504,-1.7407 -3.03491,-5.71465 -3.5625,-10.96875 -0.5366,-5.3436 -0.40386,-6.03126 1.15625,-6.03125 11.48581,3.75472 15.79847,5.09177 13.46875,13.5 -0.0555,2.75 0.5946,7.69999 1.4375,11 0.84279,3.3 1.7551,6.82515 2,7.84375 0.2449,1.0187 0.84465,2.3687 1.34375,3 0.4991,0.6314 1.46061,2.84374 2.125,4.90625 0.66431,2.0625 1.5876,3.74999 2.0625,3.75 1.9713,0 1.81659,-2.0179 -0.5,-6.375 -1.3511,-2.5411 -0.62255,-2.12501 -1.96875,-4.625 -2.37657,-5.04052 -2.9683,-10.52785 -3.28125,-16.25 -0.241,-4.9974 -0.0282,-8.75001 0.5,-8.75 0.5088,0 2.1414,1.12499 3.625,2.5 5.7782,3.66421 6.99952,6.69835 7.5,14.03125 0.1266,4.3368 0.45283,8.22614 0.71875,8.65625 0.26579,0.4301 0.71443,2.7212 0.96875,5.0625 0.5604,5.1605 3.2356,12.74999 4.5,12.75 1.2245,0 1.15599,-0.44949 -0.5625,-4.5625 -0.80681,-1.931 -1.68604,-7.82571 -1.96875,-13.0625 -0.2826,-5.2368 -0.77565,-9.9229 -1.09375,-10.4375 -0.318,-0.5146 -0.13005,-0.93751 0.40625,-0.9375 0.5362,0 2.3826,1.79999 4.125,4 2.36312,2.27348 2.61038,4.97781 3.96875,7.75 1.0579,2.0625 3.3381,7.34999 5.0625,11.75 1.7243,4.4 3.511,8.40375 4,8.90625 1.3741,1.4122 -0.0788,-6.59279 -1.65625,-9.125 -0.7589,-1.2182 -1.37499,-2.71995 -1.375,-3.34375 0,-2.0411 -5.4612,-14.07165 -8.3125,-18.28125 -6.92357,-11.43842 15.57326,1.54142 18.53125,5.8125 3.3707,4.5821 4.78126,5.53215 4.78125,3.21875 -4.43806,-8.41734 -15.56497,-15.75494 -25.5,-16.21875 -3.3639,0.0279 -4.69366,-0.62675 -8.34375,-4.15625 -2.38731,-2.3082 -4.86232,-4.4252 -5.5,-4.6875 -0.80331,-0.3305 -0.69514,-0.80875 0.34375,-1.59375 2.5091,-1.8958 21.95591,0.16039 26.5,2.8125 0.55,0.3209 1.55506,0.68045 2.21875,0.78125 0.6637,0.1008 2.64793,0.90405 4.40625,1.78125 3.5306,1.7613 4.87501,1.98011 4.875,0.8125 0,-0.7122 -6.58724,-4.66921 -7.90625,-4.75 -0.31799,-0.0195 -1.55355,-0.57014 -2.71875,-1.21875 -9.44957,-3.15027 -19.23514,-3.80052 -29.1875,-2.84375 -4.2513,0.6263 -5.6449,0.4704 -7.0625,-0.8125 -0.9735,-0.881 -2.21538,-1.59376 -2.75,-1.59375 -1.6141,0 -6.33537,-2.44445 -6.34375,-3.28125 -0.0143,-1.4314 3.62971,-2.1219 17.75,-3.3125 11.92005,-0.14517 23.84607,0.34101 35.5,3.59375 5.05729,2.4435 4.83465,2.46919 3.78125,-0.25 -0.47941,-1.2375 -1.4018,-2.12555 -2.0625,-1.96875 -14.15456,-4.29357 -29.90929,-4.76149 -44.5,-2.75 -3.49256,0.26203 -6.64457,0.39563 -10,1.625 -8.5611,1.7715 -10.47405,1.9339 -12.03125,1.0625 -0.96319,-0.539 -3.78866,-1.0459 -6.28125,-1.125 -2.7113,-0.0861 -4.71055,-0.66281 -4.96875,-1.4375 -0.2375,-0.7122 0.19159,-1.18941 0.9375,-1.0625 0.7458,0.1268 3.52941,-0.7482 6.1875,-1.9375 2.6581,-1.1894 5.64683,-2.15626 6.65625,-2.15625 4.09455,-0.0938 7.39414,-2.5507 11.25,-2.84375 8.93819,-1.52907 17.61811,-2.4657 26.78125,-2.6875 1.8589,-0.0315 3.50394,-0.0773 4.96875,-0.0937 1.2817,-0.0144 2.40978,-0.0336 3.4375,-0.0312 z m -71,8.09375 c 1.92546,0.01 3.73809,2.43398 3.0625,4.5625 -0.67501,2.1269 -4.87018,2.8281 -6,1 -0.9185,-1.4863 0.35679,-4.72775 2.125,-5.40625 0.2727,-0.10465 0.53743,-0.15761 0.8125,-0.15625 z m -10.90625,4.84375 c 2.55321,-0.054 4.46875,0.19251 4.46875,0.8125 -2.97754,1.40366 -5.68353,3.26716 -8.40625,5.40625 -2.08667,2.29904 -4.97905,2.51609 -7.09375,4.5 -2.59329,2.8655 -2.98399,2.54325 -3.1875,-2.53125 -0.14989,-3.7369 0.23905,-4.77505 2.15625,-6.03125 1.80219,-1.18081 7.80714,-2.06627 12.0625,-2.15625 z m 32.40625,2.46875 c 4.32699,0.4439 4.26864,0.36315 4.71875,4.96875 0.20329,2.0803 0.5917,4.79374 0.875,6.03125 0.71519,3.124 -0.3946,2.78635 -5.0625,-1.53125 -2.215,-2.0487 -5.51385,-4.93404 -7.34375,-6.40625 -1.88301,-1.515 -3.0174,-3.14625 -2.625,-3.78125 3.2006,-0.97813 6.21987,0.29591 9.4375,0.71875 z m -15.125,-0.84375 c 0.50965,-0.0115 0.71925,0.3475 0.8125,1.09375 0.0688,0.55 0.1813,1.38609 0.25,1.875 0.0688,0.4889 0.76165,0.82639 1.53125,0.75 1.30719,-0.1297 8.0641,4.98849 13.375,10.125 1.27961,1.2375 2.65981,2.24999 3.0625,2.25 0.8145,0 4.15626,3.69815 4.15625,4.59375 0,0.3137 1.575,2.49455 3.5,4.84375 1.925,2.3492 3.50001,4.80125 3.5,5.46875 0,0.6676 1.1053,2.65545 2.4375,4.40625 1.33209,1.7508 2.69872,4.53749 3.0625,6.1875 0.3637,1.65 0.9321,3.67499 1.25,4.5 0.3178,0.825 0.6892,3.6379 0.8125,6.25 0.19451,4.1206 -0.18574,5.1795 -2.90625,8 -1.72459,1.7879 -4.05624,3.24999 -5.15625,3.25 -1.18571,0 -1.86409,0.58004 -1.6875,1.40625 1.0832,5.0682 0.38022,13.88525 -1.3125,16.46875 -2.90949,4.4405 -9.18285,7.9472 -13.09375,7.3125 -2.53881,-0.412 -3.16091,-0.22714 -2.75,0.84375 0.3001,0.7819 -1.3638,3.40829 -3.8125,6 -3.46449,3.6668 -5.16075,4.67292 -8.34375,5 -7.1356,0.7334 -13.19875,-2.3164 -17.84375,-9 -1.72541,-2.4826 -2.09666,-3.05586 -3.78125,-1.53125 -5.48157,2.54153 -12.26872,-4.81115 -14.71875,-9.03125 -3.90676,-6.25876 -2.94737,-13.02317 -0.9375,-17.34375 0.2114,-1.3226 -0.4337,-2.00765 -2.125,-2.28125 -4.28351,-0.6929 -5.9762,-4.96646 -6.125,-15.34375 -0.11881,-8.2783 0.64085,-10.65351 6.21875,-19 3.11549,-4.6621 13.18598,-15.04009 17.9375,-18.5 2.6663,-1.9416 6.87141,-4.5265 7.625,-4.6875 0.4183,-0.0893 1.36695,-0.7732 2.09375,-1.5 1.529,-1.529 2.16275,-1.5829 3.96875,-0.4375 2.33673,4.09094 4.63082,13.11897 -2.28125,12.4375 -3.94531,0.6402 -4.30854,0.88415 -13.34375,9.71875 -7.09061,6.9331 -13.60566,18.1075 -12.96875,22.25 0.25419,1.653 1.24384,0.33574 3.96875,-5.28125 2.0011,-4.125 4.5158,-8.3936 5.5625,-9.5 1.04669,-1.1064 2.29931,-2.7478 2.8125,-3.625 1.7984,-3.0744 12.32769,-10.7658 15.125,-11.0625 2.67969,-0.2842 2.82549,-0.0987 3.125,4.09375 0.4092,5.7264 -0.46641,9.09374 -2.375,9.09375 -0.8381,0 -3.79854,2.13749 -6.59375,4.75 -5.83709,5.4556 -10.78572,15.07939 -13,25.25 -1.6826,7.7288 -1.7411,10.19715 -0.1875,10.71875 0.7406,0.2487 1.32181,-1.50505 1.625,-4.90625 1.07861,-12.0985 4.7325,-20.05841 13.0625,-28.5625 3.36709,-3.4375 6.4466,-6.25001 6.875,-6.25 0.4284,0 0.78126,4.60205 0.78125,10.21875 l 0,10.1875 -3.90625,4.0625 c -3.8155,3.9328 -8.69941,14.0791 -8.625,17.9375 0.0645,3.3414 2.53126,3.06736 2.53125,-0.28125 0.31419,-6.03556 3.82646,-10.28346 6.75092,-15.10447 0.9797,-1.721 2.63502,-2.97833 3.03033,-2.58303 0.39539,0.3953 0.73261,7.86804 0.75,16.59375 0.0174,8.7257 0.34184,16.18561 0.71875,16.5625 1.1599,1.16 2.04754,-7.23055 2.15625,-20.46875 0.0607,-7.3912 0.50876,-12.79845 1.09375,-13.03125 2.2919,-0.9123 6.13359,8.89604 7,17.90625 0.18509,1.925 0.35594,3.83749 0.40625,4.25 0.0504,0.4125 0.54376,0.74999 1.09375,0.75 1.27689,0 1.24319,-6.18641 -0.0625,-12 -1.16127,-11.88905 -5.79753,-11.23649 -8.9375,-16.1875 -0.4916,-0.173 -1.0225,-4.1467 -1.1875,-8.8125 -0.25031,-7.0781 -0.0322,-8.52585 1.28125,-8.78125 2.9973,-0.583 13.90626,13.0039 13.90625,17.3125 1.83008,4.48299 2.53875,9.00459 2.84375,13.96875 0.2284,5.2228 0.79685,9.49999 1.28125,9.5 0.4844,0 0.91375,-0.67501 0.96875,-1.5 0.3493,-5.2389 0.1013,-12.57331 -0.5625,-16 -1.73351,-8.9478 -9.6352,-21.66409 -15.25,-24.5625 -4.48411,-2.3148 -4.87291,-3.08791 -4.9375,-10.0625 l -0.0312,-6.65625 4.84375,2.03125 c 6.8072,3.24996 13.0425,8.03047 17.09375,14.5 -0.25099,0.3397 0.76635,3.45785 1.71875,5.28125 0.44239,0.8471 1.13324,4.7865 1.53125,8.75 0.4504,4.4848 1.08444,6.98575 1.71875,6.59375 1.2827,-0.7927 0.39256,-13.38745 -1.15625,-16.28125 -0.61459,-1.1485 -0.87619,-2.09376 -0.5625,-2.09375 0.31369,0 0.0807,-0.95025 -0.53125,-2.09375 -2.56419,-4.7913 -9.34644,-11.87894 -13.21875,-13.84375 -5.91535,-3.89126 -16.22587,-7.31779 -9.5,-16 1.24314,-0.77635 2.05285,-1.14477 2.5625,-1.15625 z m -35.53125,2.4375 c 1.09928,-0.0119 1.71875,1.54547 1.71875,4.5 0,2.0576 0.43236,4.18236 0.96875,4.71875 0.63381,0.6338 -0.15419,2.25259 -2.25,4.625 -1.77389,2.0081 -3.89376,4.65184 -4.71875,5.84375 -3.41321,4.9311 -5.98819,8.32315 -6,7.90625 -0.007,-0.2444 -0.14396,-5.22946 -0.28125,-11.09375 l -0.25,-10.65625 3.78125,-1.6875 c 2.0701,-0.9133 4.4301,-2.3051 5.25,-3.125 0.67247,-0.67247 1.28158,-1.02585 1.78125,-1.03125 z"
       id="path2384"
       sodipodi:nodetypes="csssccsssssssssssssssscscscsssccsssssssccssssssssssscccssccccssssssssssssssssscccsssssscccssssccssccsssssscccccsssssssccsssssssssssscsscccssssssssssssssssssssssssscccccssssssssssssssssssssssssscsccssssccsssssccccssscccssccsssccssssssccsssssccsssssssccssssscccsssccsssssssssssscccssscssccccsssssssccssssssssccssssssssccsssssssssssssssssccssssccsssccsssssccssccssscccssssssccsssccsssssssccssssccssssssssssccccssssssccsssssssscsccssccsssssssssssssccssssccsssssccssssssssssssssssssssccssssccssssssccsssccsssssscccsscccssccssscccsssssssssccssscccsssccsccccssssssssssssssccsssssssssccsscccsssssssssssccssssssccssssccsssccssssssssccssssssccsccsssssssccssssccccssssssssccsssccscccssssscccsccssscccccssccsssscccssssssssssssssssssssscccssssssccsssssssssssssscccsccssssssssccssccssssccccssssssccccssssscccsc"
       inkscape:connector-curvature="0" />
  </g>
</svg>
