<?xml version="1.0" encoding="UTF-8" standalone="no"?>
<!-- Created with Inkscape (http://www.inkscape.org/) -->

<svg
   xmlns:dc="http://purl.org/dc/elements/1.1/"
   xmlns:cc="http://creativecommons.org/ns#"
   xmlns:rdf="http://www.w3.org/1999/02/22-rdf-syntax-ns#"
   xmlns:svg="http://www.w3.org/2000/svg"
   xmlns="http://www.w3.org/2000/svg"
   xmlns:sodipodi="http://sodipodi.sourceforge.net/DTD/sodipodi-0.dtd"
   xmlns:inkscape="http://www.inkscape.org/namespaces/inkscape"
   width="500"
   height="500"
   id="svg2"
   sodipodi:version="0.32"
   inkscape:version="0.48.0 r9654"
   version="1.0"
   sodipodi:docname="ShadowedNineStars.image.svg"
   inkscape:output_extension="org.inkscape.output.svg.inkscape">
  <defs
     id="defs4">
    <inkscape:perspective
       sodipodi:type="inkscape:persp3d"
       inkscape:vp_x="0 : 526.18109 : 1"
       inkscape:vp_y="0 : 1000 : 0"
       inkscape:vp_z="744.09448 : 526.18109 : 1"
       inkscape:persp3d-origin="372.04724 : 350.78739 : 1"
       id="perspective10" />
    <inkscape:perspective
       id="perspective2447"
       inkscape:persp3d-origin="372.04724 : 350.78739 : 1"
       inkscape:vp_z="744.09448 : 526.18109 : 1"
       inkscape:vp_y="0 : 1000 : 0"
       inkscape:vp_x="0 : 526.18109 : 1"
       sodipodi:type="inkscape:persp3d" />
  </defs>
  <sodipodi:namedview
     id="base"
     pagecolor="#ffffff"
     bordercolor="#666666"
     borderopacity="1.0"
     gridtolerance="10000"
     guidetolerance="10"
     objecttolerance="10"
     inkscape:pageopacity="1"
     inkscape:pageshadow="2"
     inkscape:zoom="0.98994949"
     inkscape:cx="125.71126"
     inkscape:cy="236.2274"
     inkscape:document-units="px"
     inkscape:current-layer="layer1"
     showgrid="false"
     inkscape:window-width="1185"
     inkscape:window-height="743"
     inkscape:window-x="0"
     inkscape:window-y="0"
     inkscape:window-maximized="0" />
  <metadata
     id="metadata7">
    <rdf:RDF>
      <cc:Work
         rdf:about="">
        <dc:format>image/svg+xml</dc:format>
        <dc:type
           rdf:resource="http://purl.org/dc/dcmitype/StillImage" />
      </cc:Work>
    </rdf:RDF>
  </metadata>
  <g
     inkscape:label="Layer 1"
     inkscape:groupmode="layer"
     id="layer1"
     transform="translate(-198.52539,-136.88177)">
    <rect
       style="fill:#ffffff;fill-opacity:1;stroke:none"
       id="rect3476"
       width="512.14734"
       height="513.15747"
       x="-6.0609155"
       y="-4.0661216"
       transform="translate(198.52539,136.88177)" />
    <g
       id="g3465"
       transform="translate(15.166348,-15.630533)">
      <path
         transform="translate(72.42285,65.741136)"
         d="m 296.98485,215.45081 c 0,32.07878 -26.00499,58.08377 -58.08377,58.08377 -32.07878,0 -58.08377,-26.00499 -58.08377,-58.08377 0,-32.07879 26.00499,-58.08378 58.08377,-58.08378 32.07878,0 58.08377,26.00499 58.08377,58.08378 z"
         sodipodi:ry="58.083771"
         sodipodi:rx="58.083771"
         sodipodi:cy="215.45081"
         sodipodi:cx="238.90108"
         id="path2457"
         style="fill:none;stroke:#000000;stroke-width:10;stroke-linecap:round;stroke-miterlimit:10.43299961;stroke-opacity:1;stroke-dasharray:none;stroke-dashoffset:0"
         sodipodi:type="arc" />
      <path
         transform="translate(194.56523,15.775785)"
         d="m 296.98485,215.45081 c 0,32.07878 -26.00499,58.08377 -58.08377,58.08377 -32.07878,0 -58.08377,-26.00499 -58.08377,-58.08377 0,-32.07879 26.00499,-58.08378 58.08377,-58.08378 32.07878,0 58.08377,26.00499 58.08377,58.08378 z"
         sodipodi:ry="58.083771"
         sodipodi:rx="58.083771"
         sodipodi:cy="215.45081"
         sodipodi:cx="238.90108"
         id="path3229"
         style="fill:none;stroke:#000000;stroke-width:10;stroke-linecap:round;stroke-miterlimit:10.43299961;stroke-opacity:1;stroke-dasharray:none;stroke-dashoffset:0"
         sodipodi:type="arc" />
      <path
         transform="translate(315.42237,65.632928)"
         d="m 296.98485,215.45081 c 0,32.07878 -26.00499,58.08377 -58.08377,58.08377 -32.07878,0 -58.08377,-26.00499 -58.08377,-58.08377 0,-32.07879 26.00499,-58.08378 58.08377,-58.08378 32.07878,0 58.08377,26.00499 58.08377,58.08378 z"
         sodipodi:ry="58.083771"
         sodipodi:rx="58.083771"
         sodipodi:cy="215.45081"
         sodipodi:cx="238.90108"
         id="path3231"
         style="fill:none;stroke:#000000;stroke-width:10;stroke-linecap:round;stroke-miterlimit:10.43299961;stroke-opacity:1;stroke-dasharray:none;stroke-dashoffset:0"
         sodipodi:type="arc" />
      <path
         transform="translate(366.20785,187.34721)"
         d="m 296.98485,215.45081 c 0,32.07878 -26.00499,58.08377 -58.08377,58.08377 -32.07878,0 -58.08377,-26.00499 -58.08377,-58.08377 0,-32.07879 26.00499,-58.08378 58.08377,-58.08378 32.07878,0 58.08377,26.00499 58.08377,58.08378 z"
         sodipodi:ry="58.083771"
         sodipodi:rx="58.083771"
         sodipodi:cy="215.45081"
         sodipodi:cx="238.90108"
         id="path3233"
         style="fill:none;stroke:#000000;stroke-width:10;stroke-linecap:round;stroke-miterlimit:10.43299961;stroke-opacity:1;stroke-dasharray:none;stroke-dashoffset:0"
         sodipodi:type="arc" />
      <path
         transform="translate(315.42237,308.91863)"
         d="m 296.98485,215.45081 c 0,32.07878 -26.00499,58.08377 -58.08377,58.08377 -32.07878,0 -58.08377,-26.00499 -58.08377,-58.08377 0,-32.07879 26.00499,-58.08378 58.08377,-58.08378 32.07878,0 58.08377,26.00499 58.08377,58.08378 z"
         sodipodi:ry="58.083771"
         sodipodi:rx="58.083771"
         sodipodi:cy="215.45081"
         sodipodi:cx="238.90108"
         id="path3235"
         style="fill:none;stroke:#000000;stroke-width:10;stroke-linecap:round;stroke-miterlimit:10.43299961;stroke-opacity:1;stroke-dasharray:none;stroke-dashoffset:0"
         sodipodi:type="arc" />
      <path
         transform="translate(194.56523,358.34721)"
         d="m 296.98485,215.45081 c 0,32.07878 -26.00499,58.08377 -58.08377,58.08377 -32.07878,0 -58.08377,-26.00499 -58.08377,-58.08377 0,-32.07879 26.00499,-58.08378 58.08377,-58.08378 32.07878,0 58.08377,26.00499 58.08377,58.08378 z"
         sodipodi:ry="58.083771"
         sodipodi:rx="58.083771"
         sodipodi:cy="215.45081"
         sodipodi:cx="238.90108"
         id="path3237"
         style="fill:none;stroke:#000000;stroke-width:10;stroke-linecap:round;stroke-miterlimit:10.43299961;stroke-opacity:1;stroke-dasharray:none;stroke-dashoffset:0"
         sodipodi:type="arc" />
      <path
         transform="translate(72.993794,307.77578)"
         d="m 296.98485,215.45081 c 0,32.07878 -26.00499,58.08377 -58.08377,58.08377 -32.07878,0 -58.08377,-26.00499 -58.08377,-58.08377 0,-32.07879 26.00499,-58.08378 58.08377,-58.08378 32.07878,0 58.08377,26.00499 58.08377,58.08378 z"
         sodipodi:ry="58.083771"
         sodipodi:rx="58.083771"
         sodipodi:cy="215.45081"
         sodipodi:cx="238.90108"
         id="path3239"
         style="fill:none;stroke:#000000;stroke-width:10;stroke-linecap:round;stroke-miterlimit:10.43299961;stroke-opacity:1;stroke-dasharray:none;stroke-dashoffset:0"
         sodipodi:type="arc" />
      <path
         transform="translate(22.70808,187.34721)"
         d="m 296.98485,215.45081 c 0,32.07878 -26.00499,58.08377 -58.08377,58.08377 -32.07878,0 -58.08377,-26.00499 -58.08377,-58.08377 0,-32.07879 26.00499,-58.08378 58.08377,-58.08378 32.07878,0 58.08377,26.00499 58.08377,58.08378 z"
         sodipodi:ry="58.083771"
         sodipodi:rx="58.083771"
         sodipodi:cy="215.45081"
         sodipodi:cx="238.90108"
         id="path3241"
         style="fill:none;stroke:#000000;stroke-width:10;stroke-linecap:round;stroke-miterlimit:10.43299961;stroke-opacity:1;stroke-dasharray:none;stroke-dashoffset:0"
         sodipodi:type="arc" />
      <path
         transform="translate(60.609157,57.578695)"
         d="m 467.14286,345.21933 c 0,52.07256 -42.21315,94.28571 -94.28571,94.28571 -52.07256,0 -94.28572,-42.21315 -94.28572,-94.28571 0,-52.07256 42.21316,-94.28571 94.28572,-94.28571 52.07256,0 94.28571,42.21315 94.28571,94.28571 z"
         sodipodi:ry="94.285713"
         sodipodi:rx="94.285713"
         sodipodi:cy="345.21933"
         sodipodi:cx="372.85715"
         id="path3253"
         style="fill:none;stroke:#000000;stroke-width:10;stroke-linecap:round;stroke-miterlimit:10.43299961;stroke-opacity:1;stroke-dasharray:none;stroke-dashoffset:0"
         sodipodi:type="arc" />
    </g>
  </g>
</svg>
