<?xml version="1.0" encoding="UTF-8" standalone="no"?>
<!-- Created with Inkscape (http://www.inkscape.org/) -->

<svg
   xmlns:dc="http://purl.org/dc/elements/1.1/"
   xmlns:cc="http://creativecommons.org/ns#"
   xmlns:rdf="http://www.w3.org/1999/02/22-rdf-syntax-ns#"
   xmlns:svg="http://www.w3.org/2000/svg"
   xmlns="http://www.w3.org/2000/svg"
   xmlns:sodipodi="http://sodipodi.sourceforge.net/DTD/sodipodi-0.dtd"
   xmlns:inkscape="http://www.inkscape.org/namespaces/inkscape"
   width="375"
   height="375"
   id="svg2"
   sodipodi:version="0.32"
   inkscape:version="0.48.0 r9654"
   sodipodi:docname="Mon:ThreeFans.image.svg"
   inkscape:output_extension="org.inkscape.output.svg.inkscape"
   version="1.0">
  <defs
     id="defs4">
    <inkscape:perspective
       sodipodi:type="inkscape:persp3d"
       inkscape:vp_x="0 : 526.18109 : 1"
       inkscape:vp_y="0 : 1000 : 0"
       inkscape:vp_z="744.09448 : 526.18109 : 1"
       inkscape:persp3d-origin="372.04724 : 350.78739 : 1"
       id="perspective10" />
    <inkscape:perspective
       id="perspective2447"
       inkscape:persp3d-origin="372.04724 : 350.78739 : 1"
       inkscape:vp_z="744.09448 : 526.18109 : 1"
       inkscape:vp_y="0 : 1000 : 0"
       inkscape:vp_x="0 : 526.18109 : 1"
       sodipodi:type="inkscape:persp3d" />
  </defs>
  <sodipodi:namedview
     id="base"
     pagecolor="#ffffff"
     bordercolor="#666666"
     borderopacity="1.0"
     gridtolerance="10000"
     guidetolerance="10"
     objecttolerance="10"
     inkscape:pageopacity="1"
     inkscape:pageshadow="2"
     inkscape:zoom="1"
     inkscape:cx="111.24957"
     inkscape:cy="179.61301"
     inkscape:document-units="px"
     inkscape:current-layer="layer1"
     showgrid="false"
     inkscape:window-width="1222"
     inkscape:window-height="756"
     inkscape:window-x="0"
     inkscape:window-y="0"
     inkscape:window-maximized="0" />
  <metadata
     id="metadata7">
    <rdf:RDF>
      <cc:Work
         rdf:about="">
        <dc:format>image/svg+xml</dc:format>
        <dc:type
           rdf:resource="http://purl.org/dc/dcmitype/StillImage" />
      </cc:Work>
    </rdf:RDF>
  </metadata>
  <g
     inkscape:label="Layer 1"
     inkscape:groupmode="layer"
     id="layer1"
     transform="translate(-160.93543,-32.716067)">
    <rect
       style="fill:#ffffff;fill-opacity:1;stroke:none"
       id="rect3405"
       width="394"
       height="395"
       x="-5"
       y="-6.9999895"
       transform="translate(160.93543,32.716067)" />
    <path
       style="fill:#000000"
       d="m 342.48307,53.374007 c -0.85194,0.01306 -2.19329,0.203511 -4.21875,0.53125 -3.15312,0.5102 -8.19651,1.07886 -11.21875,1.25 -3.02222,0.17114 -8.41196,1.097723 -11.96875,2.0625 -3.55678,0.96479 -9.76872,2.230753 -13.8125,2.8125 -4.04379,0.58176 -7.82487,1.55165 -8.40625,2.15625 -6.60192,2.40772 -11.0932,2.615382 -18.28125,7.4375 -2.58981,1.18346 -5.3729,2.617148 -6.1875,3.15625 -0.8146,0.53909 -3.02787,1.706567 -4.90625,2.59375 -1.87838,0.88718 -4.84115,2.733097 -6.59375,4.125 -1.7526,1.3919 -4.34821,2.99788 -5.75,3.5625 -3.71097,1.95709 -6.56453,5.65105 -9.90625,8.1875 -2.14487,2.22714 -4.28765,4.0666 -4.75,4.09375 -1.40439,0.0825 -16.71826,15.758643 -22.59375,23.125003 -1.40104,1.75656 -3.88442,4.66988 -5.5,6.46875 -2.40675,2.86963 -4.29795,6.21235 -6.3125,9.125 -0.32936,1.6535 -1.11375,3.35293 -1.75,3.78125 -1.26105,0.84892 -4.55966,6.95626 -4.53125,8.40625 0.01,0.49477 -1.70492,4.76166 -3.8125,9.5 -2.1076,4.73833 -3.79657,9.28068 -3.78125,10.0625 0.0153,0.78182 -0.40901,1.69015 -0.9375,2.03125 -0.99126,0.6398 -2.40926,5.51863 -3.3125,11.46875 -0.28374,1.86916 -0.8867,4.13538 -1.34375,5.03125 -0.45707,0.89588 -1.09534,3.86838 -1.40625,6.625 -0.31091,2.75661 -0.76191,6.60061 -1.03125,8.53125 -1.16122,8.3237 -1.34086,9.72948 -1.65625,13.53125 -0.68584,8.26712 -0.03,30.55707 0.9375,31.75 0.55225,0.68089 1.60848,4.57322 2.34375,8.65625 0.73528,4.08302 1.69043,7.86753 2.125,8.4375 0.43456,0.56996 1.42855,3.48919 2.21875,6.46875 1.87162,7.05719 5.87673,15.93979 14.0625,31.28125 1.45242,2.72208 3.48583,6.61323 4.5,8.65625 1.01417,2.04303 2.29924,3.73003 2.875,3.71875 1.18431,-0.0232 5.95629,-3.75548 8.25,-6.4375 0.83733,-0.97909 2.07468,-1.76803 2.75,-1.78125 0.67531,-0.0132 1.57447,-0.64123 2,-1.375 0.93598,-1.61391 9.62806,-7.87998 10.96875,-7.90625 0.52504,-0.0103 1.65743,-1.13887 2.53125,-2.53125 0.87383,-1.39239 2.21427,-2.54773 2.96875,-2.5625 0.75448,-0.0148 3.46005,-2.09917 6.03125,-4.625 2.57121,-2.52585 5.10382,-4.58354 5.625,-4.59375 0.83696,-0.0164 3.02587,-1.65462 13.6875,-10.21875 1.43962,-1.15639 3.11837,-2.11325 3.71875,-2.125 0.6004,-0.0118 1.07345,-0.50371 1.0625,-1.0625 -0.011,-0.55879 1.5621,-1.79449 3.46875,-2.75 1.90666,-0.9555 3.44629,-2.08321 3.4375,-2.53125 -0.009,-0.44806 0.51502,-0.8312 1.15625,-0.84375 0.64124,-0.0126 1.86435,-0.73134 2.71875,-1.59375 0.85442,-0.86242 3.78484,-3.03787 6.5,-4.84375 2.71515,-1.80588 5.36804,-3.79943 5.90625,-4.40625 0.53822,-0.60683 2.87961,-2.34075 5.1875,-3.875 2.3079,-1.53425 4.16688,-3.23915 4.15625,-3.78125 -0.0106,-0.54209 0.56291,-1.00313 1.25,-1.03125 1.01438,-0.0415 9.67691,-6.24861 14.0625,-10.0625 0.55496,-0.48261 2.32253,-1.76921 3.9375,-2.84375 1.61497,-1.07455 3.29272,-2.50957 3.71875,-3.21875 0.42602,-0.70919 1.38633,-1.29802 2.125,-1.3125 0.73869,-0.0145 1.57464,-0.73147 1.875,-1.5625 1.18439,-3.27699 2.89611,-1.54588 2.4375,2.46875 -0.40023,3.50345 -0.22145,4.00247 1.5,3.96875 4.16668,-0.0816 9.82392,-4.94101 9.9375,-8.53125 0.19023,-6.01418 -0.5295,-9.65136 -1.875,-9.625 -0.77901,0.0153 -1.57769,0.56568 -1.78125,1.21875 -0.20355,0.65306 -1.07798,0.93565 -1.9375,0.625 -1.23311,-0.44568 -1.4899,-1.69014 -1.1875,-5.90625 0.21078,-2.93872 0.73624,-5.81667 1.15625,-6.375 0.41999,-0.55834 0.89307,-6.2017 1.0625,-12.53125 0.72203,-26.97246 1.78844,-31.67152 2.125,-33.6875 -0.57009,-7.99328 0.75607,-16.94926 0.9375,-25.4375 0.13834,-10.13895 0.66804,-18.94758 1.15625,-19.5625 0.48821,-0.61492 0.96064,-7.15808 1.0625,-14.531253 0.30093,-21.783521 1.05833,-35.943619 1.96875,-36.53125 0.46852,-0.3024 0.83489,-1.481957 0.8125,-2.625 -0.024,-1.223763 -0.1426,-1.709274 -1.5625,-1.6875 z m 7.5625,0.65625 0.21875,14.8125 c 0.12673,8.14771 0.20809,28.75882 0.1875,45.812503 -0.0206,17.05367 0.2196,45.065 0.53125,62.25 0.39794,21.9438 0.23764,31.23531 -0.53125,31.25 -0.60215,0.0115 -1.93953,-0.87532 -2.96875,-1.96875 -2.99249,-3.17922 -3.86106,-1.76878 -3.5625,5.65625 1.78983,4.59128 1.57616,4.59529 2.6875,5.375 2.01045,2.43398 4.16036,4.38922 6.9375,4.0625 -0.59442,-1.88328 -0.28032,-3.94694 1.15625,-5.1875 1.19122,-1.02868 1.98401,-0.94004 4.15625,0.53125 1.47475,0.99887 3.41872,2.2799 4.3125,2.8125 0.89378,0.53259 3.40952,2.26747 5.59375,3.875 4.00456,2.94721 8.11809,5.28502 12.71875,7.25 1.37557,0.58751 2.7377,1.3776 3.03125,1.75 0.29354,0.37241 1.24286,1.12343 2.125,1.65625 2.46165,1.48688 21.98232,13.82993 28.5625,18.0625 3.22097,2.07182 6.19829,3.7737 6.59375,3.78125 0.39547,0.008 2.49541,1.31419 4.6875,2.90625 2.19208,1.59207 4.58563,2.88925 5.3125,2.875 0.72688,-0.0142 1.33263,0.43284 1.34375,1 0.0111,0.56716 0.81194,1.31846 1.78125,1.65625 2.23454,0.77875 19.37846,11.24495 21.75,13.28125 0.97916,0.84075 2.39875,1.51485 3.15625,1.5 0.75751,-0.0148 1.98389,0.68027 2.71875,1.53125 0.73486,0.85097 2.99402,2.33816 5,3.3125 2.00598,0.97433 7.31591,4.42856 11.8125,7.6875 4.49661,3.25891 8.83579,5.92232 9.65625,5.90625 0.82047,-0.0161 2.32689,0.85721 3.34375,1.9375 2.22047,2.35903 4.54322,2.5188 4.5,0.3125 -0.0172,-0.87743 0.7784,-2.80204 1.75,-4.28125 2.5881,-3.94026 6.91108,-13.75157 6.875,-15.59375 -0.0171,-0.87506 0.34378,-1.82245 0.8125,-2.125 0.46872,-0.30253 1.40328,-2.70365 2.0625,-5.34375 0.6592,-2.64008 1.50654,-5.25519 1.875,-5.8125 0.36846,-0.55732 1.20831,-3.29891 1.875,-6.0625 0.66668,-2.76359 1.54464,-5.483 1.96875,-6.0625 0.95718,-1.30786 3.54054,-19.30837 4.3125,-30.0625 0.73303,-10.21194 -0.24631,-29.40842 -1.59375,-30.96875 -0.56687,-0.65643 -1.33962,-4.53818 -1.71875,-8.59375 -0.37915,-4.05558 -1.36878,-8.3289 -2.1875,-9.53125 -0.81875,-1.20234 -1.5092,-3.12486 -1.53125,-4.25 -0.022,-1.12512 -0.93017,-3.93961 -2.03125,-6.25 -1.10109,-2.31038 -2.33072,-5.31984 -2.71875,-6.6875 -0.61002,-2.15009 -2.79391,-6.95513 -5.9375,-13.125 -1.45126,-3.60204 -2.94422,-6.6384 -5.53125,-9.65625 -0.45989,-1.36625 -1.92104,-3.85504 -3.25,-5.53125 -1.32895,-1.6762 -2.39955,-3.31469 -2.40625,-3.65625 -0.007,-0.34155 -1.41101,-1.96972 -3.09375,-3.625 -1.68274,-1.65528 -3.04786,-3.62795 -3.0625,-4.375 -1.89663,-3.9006 -10.78356,-12.95953 -14.09375,-16.25 -3.06212,-3.318373 -5.08744,-7.235433 -9.125,-9.218753 -0.45433,-0.73595 -1.95511,-1.9112 -3.34375,-2.59375 -1.38864,-0.68256 -5.48886,-3.48066 -9.09375,-6.21875 -3.60491,-2.73809 -7.71087,-5.574467 -9.125,-6.3125 -1.41415,-0.738031 -4.14896,-2.164361 -6.09375,-3.15625 -1.9448,-0.99189 -4.22823,-2.191498 -5.0625,-2.65625 -7.88438,-4.39226 -18.78886,-8.586637 -27.71875,-10.6875 -2.21061,-0.52007 -4.91296,-1.370023 -6.03125,-1.875 -1.1183,-0.50498 -3.16133,-1.041489 -4.53125,-1.1875 -5.0205,-0.53511 -10.54318,-1.672461 -11.53125,-2.375 -0.55788,-0.39666 -6.98768,-0.917157 -14.28125,-1.15625 l -13.25,-0.40625 z m 6.84375,86.718753 c 1.70889,0.002 4.5186,0.45926 9.125,1.15625 6.59918,0.99851 6.73277,1.09939 6.1875,3.6875 -0.30734,1.4588 -1.17068,3.64221 -1.90625,4.875 -0.73557,1.23279 -1.2988,2.97818 -1.28125,3.875 0.0176,0.89682 -0.57726,2.83796 -1.3125,4.3125 -1.32057,2.64844 -5.65586,17.44902 -6.53125,22.3125 -0.24841,1.38013 -1.14937,5.17893 -2,8.46875 -1.73971,6.72835 -3.76431,10.504 -4.53125,8.4375 -0.44798,-1.2071 -0.85473,-41.34035 -0.53125,-52.28125 0.10541,-3.56508 -0.0669,-4.84732 2.78125,-4.84375 z m -23.5,1.21875 c 0.24324,-0.014 0.45309,-0.012 0.65625,0 1.35437,0.0802 1.8325,0.76544 1.375,2.03125 -0.26997,0.74696 -0.50498,5.67284 -0.5,10.9375 0.005,5.26467 -0.31954,9.77358 -0.71875,10.03125 -0.39921,0.25767 -0.92638,5.76683 -1.1875,12.25 -0.26114,6.48315 -0.64184,14.95781 -0.84375,18.8125 -0.35721,6.81923 -1.5848,10.37666 -2.59375,7.46875 -0.26868,-0.77436 -0.86783,-6.54268 -1.3125,-12.8125 -0.44466,-6.26981 -1.22227,-11.88069 -1.71875,-12.46875 -0.84319,-0.9987 -2.66807,-20.03282 -2.625,-27.28125 0.0337,-3.60317 -2.22768,-5.91366 0.625,-6.84375 1.50557,-0.36842 4.2613,-1.1124 6.125,-1.625 1.06811,-0.29378 1.98904,-0.45795 2.71875,-0.5 z m 41.78125,2.15625 c 0.39913,0.0299 0.97863,0.33548 1.875,0.9375 1.24314,0.83492 2.79067,1.51327 3.46875,1.5 1.35995,-0.0266 6.20111,3.08661 11.3125,6.84375 -0.41676,0.35541 -0.93829,0.88448 -1.59375,1.65625 -1.80389,2.12399 -6.1076,8.40808 -7.625,10.75 -1.5174,2.34194 -5.08405,7.30819 -7.90625,11 -2.82221,3.6918 -5.10512,7.16925 -5.09375,7.75 0.0114,0.58072 -0.33176,1.21468 -0.75,1.40625 -0.41826,0.19155 -2.43858,2.76445 -4.5,5.71875 -3.70117,5.30428 -5.84627,6.43773 -3.84375,2.03125 0.56715,-1.24801 1.55489,-4.51833 2.1875,-7.28125 0.63262,-2.76292 1.72733,-6.25061 2.4375,-7.75 0.71016,-1.49938 1.27677,-3.99167 1.25,-5.53125 -0.0268,-1.53958 0.54054,-4.00975 1.28125,-5.5 0.74073,-1.49024 1.63132,-4.11852 1.96875,-5.8125 3.05803,-5.2065 3.29338,-11.21239 4.75,-16.96875 0.1529,-0.5234 0.38212,-0.7799 0.78125,-0.75 z m -55.40625,2.125 c 0.0585,-0.002 0.0958,0.014 0.125,0.0312 0.49039,0.28996 0.88225,2.88306 0.875,5.75 -0.0191,7.5641 1.68754,21.98427 2.75,23.25 0.50134,0.59725 0.86749,2.18064 0.8125,3.5 -0.055,1.31937 0.31794,6.54681 0.84375,11.625 0.52581,5.07817 0.73434,9.24419 0.4375,9.25 -0.49163,0.01 -2.92065,-4.62247 -6.46875,-12.375 -0.74859,-1.63565 -2.57275,-5.43321 -4.0625,-8.4375 -1.48978,-3.00429 -2.73605,-6.03776 -2.75,-6.75 -0.014,-0.71225 -1.89764,-5.02827 -4.1875,-9.59375 -2.28986,-4.56548 -4.15021,-8.56621 -4.15625,-8.875 -0.0179,-0.91365 13.14505,-7.0356 15.5625,-7.34375 0.0806,-0.0103 0.16026,-0.0295 0.21875,-0.0312 z m 73.125,7.96875 c 6.60622,4.93893 13.3164,10.66609 13.34375,12.0625 0.008,0.43309 -0.60788,0.79746 -1.375,0.8125 -0.76712,0.015 -2.41927,1.1719 -3.6875,2.5625 -1.26824,1.39061 -3.06521,2.53469 -4,2.5625 -0.9348,0.0278 -2.07397,0.63456 -2.5,1.34375 -0.42602,0.70918 -1.90396,2.06657 -3.3125,3 -1.40856,0.93344 -3.93362,3.11728 -5.59375,4.84375 -1.66013,1.72647 -3.30232,3.11806 -3.65625,3.125 -0.78832,0.0154 -6.90136,4.79493 -10.3125,8.0625 -2.97729,2.85198 -7.94649,5.6991 -7.96875,4.5625 -0.009,-0.44146 1.30095,-2.29676 2.90625,-4.125 1.60532,-1.82826 4.04935,-5.36498 5.4375,-7.84375 1.38816,-2.47879 2.8927,-4.49177 3.3125,-4.5 0.41979,-0.008 2.34472,-2.41776 4.28125,-5.34375 1.93653,-2.92599 5.46132,-8.05895 7.84375,-11.40625 2.78397,-3.91146 4.75351,-7.76062 5.28125,-9.71875 z m -93.03125,1.9375 c 1.32964,0.005 3.26096,2.41808 5.71875,7.15625 2.05049,3.95296 3.73605,7.75608 3.75,8.46875 0.014,0.71267 1.00679,3.37843 2.21875,5.9375 5.17025,10.91722 6.99351,14.9107 9.375,20.53125 1.38699,3.27346 2.99953,6.26314 3.5625,6.65625 0.58301,0.40713 0.24642,0.753 -0.75,0.78125 -0.96215,0.0273 -1.74101,-0.35322 -1.75,-0.8125 -0.009,-0.45929 -1.95893,-2.76428 -4.34375,-5.15625 -6.80155,-6.82198 -14.04839,-14.84216 -14.0625,-15.5625 -0.007,-0.36082 -2.55751,-3.28434 -5.65625,-6.5 -9.1513,-9.4966 -9.64468,-10.17045 -9.0625,-11.78125 4.16985,-2.68073 7.24759,-6.70485 11,-9.71875 z m 107.75,11.875 c 1.15111,-0.0225 8.05907,7.48971 8.96875,9.75 0.63364,1.57438 -1.04055,3.01253 -6,5.15625 -1.36372,0.58946 -3.74085,1.75868 -5.28125,2.625 -1.5404,0.86632 -3.28525,1.5822 -3.875,1.59375 -0.58975,0.0116 -3.41636,1.20036 -6.28125,2.625 -2.86491,1.42465 -10.90574,5.1749 -17.875,8.34375 -11.38019,5.17446 -15.2907,6.55043 -15.3125,5.4375 -0.008,-0.39165 7.22357,-6.28691 10.84375,-8.84375 1.20164,-0.8487 3.74779,-2.79359 5.65625,-4.34375 1.90846,-1.55018 3.76173,-2.83664 4.125,-2.84375 0.36328,-0.007 2.20169,-1.58688 4.0625,-3.53125 1.86079,-1.94436 3.78833,-3.56663 4.28125,-3.59375 0.49291,-0.0271 2.78271,-1.65435 5.09375,-3.625 2.31106,-1.97064 4.59479,-3.61523 5.09375,-3.625 0.49897,-0.01 1.95417,-1.16247 3.21875,-2.5625 1.26457,-1.40003 2.74248,-2.55194 3.28125,-2.5625 z m -120.84375,1.375 c 0.565,-0.007 2.14427,1.65553 3.53125,3.6875 1.38698,2.03196 3.73248,4.80949 5.1875,6.15625 1.45501,1.34676 3.86188,4.20421 5.375,6.375 1.51312,2.17078 3.68222,4.51734 4.8125,5.1875 1.13026,0.67015 2.05159,1.66116 2.0625,2.21875 0.0109,0.55759 2.20453,3.10791 4.875,5.65625 2.67048,2.54833 5.98856,5.85751 7.34375,7.34375 1.91587,2.10114 2.09343,2.69488 0.875,2.71875 -0.86187,0.0169 -1.80434,-0.53785 -2.09375,-1.25 -0.28941,-0.71215 -2.38363,-1.89278 -4.65625,-2.59375 -3.60371,-2.05955 -7.72721,-2.8272 -11.375,-4.75 -0.1869,-0.47645 -4.69165,-3.00974 -10.03125,-5.65625 -5.33959,-2.6465 -10.5763,-5.25888 -11.625,-5.78125 -1.04871,-0.52236 -3.19195,-1.4176 -4.75,-2 l -2.8125,-1.0625 3.46875,-4.40625 c 1.91165,-2.42843 3.47461,-4.66951 3.46875,-4.96875 -0.0208,-1.06032 5.33228,-6.86191 6.34375,-6.875 z m 131.59375,13.84375 c 2.00855,-0.11351 3.01639,1.441 3.75,4.96875 0.38642,1.85816 1.15484,3.54297 1.71875,3.71875 0.56391,0.17578 1.29154,1.70595 1.59375,3.40625 l 0.53125,3.09375 -4.96875,0.1875 c -2.73233,0.11513 -7.08255,0.74503 -9.65625,1.375 -6.73322,0.88442 -13.06631,3.00972 -19.84375,3.8125 -4.93222,0.48438 -9.41829,1.23339 -9.96875,1.6875 -0.55046,0.45411 -3.95525,1.4053 -7.5625,2.09375 -3.60727,0.68845 -8.08831,1.22531 -9.96875,1.21875 l -3.40625,0 4.9375,-2.5 c 2.72353,-1.37815 5.51355,-2.54222 6.1875,-2.5625 0.67395,-0.0203 2.68981,-0.96075 4.46875,-2.09375 1.77894,-1.13301 3.99903,-2.0727 4.96875,-2.09375 0.96973,-0.0211 2.55533,-0.46094 3.5,-1 5.08098,-2.89937 12.22293,-6.1678 14.90625,-6.8125 4.40723,-2.67155 9.40033,-4.03375 13.9375,-6.53125 2.09905,-1.22648 3.66987,-1.90064 4.875,-1.96875 z m -143.96875,4.84375 c 0.0704,-0.0105 0.14779,-0.007 0.21875,0 0.34061,0.036 0.68848,0.26797 1.15625,0.6875 0.80993,0.72641 3.72252,2.39729 6.46875,3.71875 2.74624,1.32147 6.49189,3.3923 8.34375,4.59375 1.85186,1.20146 3.85944,2.16757 4.4375,2.15625 0.57806,-0.0113 2.23936,0.76957 3.71875,1.75 1.47939,0.98043 4.97587,2.79559 7.75,4 2.77412,1.20443 7.28567,3.21504 10.03125,4.46875 l 5,2.28125 -4.46875,-0.0625 c -2.44646,-0.0257 -9.4053,-0.5598 -15.46875,-1.1875 -6.06346,-0.62769 -13.72643,-1.31773 -17.03125,-1.53125 -13.17723,-0.85134 -16.66459,-1.4176 -17.21875,-2.78125 -0.69651,-1.71393 3.05294,-13.31661 5.3125,-16.4375 0.7659,-1.05785 1.25709,-1.58281 1.75,-1.65625 z m 150.46875,12.5 c 1.69839,-0.009 2.09794,1.17935 2.15625,4.15625 0.0207,1.05481 0.48248,1.91762 1.0625,1.90625 0.63434,-0.0124 0.97109,1.85858 0.84375,4.71875 -0.18848,4.23331 -0.4611,4.78925 -2.6875,5.09375 -1.37545,0.1881 -2.97893,-0.0951 -3.5625,-0.65625 -0.58358,-0.56116 -7.24982,-1.1919 -14.8125,-1.40625 -7.56267,-0.21434 -13.98562,-0.79198 -14.28125,-1.25 -0.29563,-0.45803 -4.33165,-0.74648 -8.9375,-0.65625 -7.29486,0.14291 -14.58072,-1.02301 -13.4375,-2.15625 0.20975,-0.20792 3.30722,-0.72139 6.875,-1.125 9.27187,-1.04889 38.61895,-6.36784 43.5625,-7.90625 1.3995,-0.43552 2.44675,-0.71449 3.21875,-0.71875 z m -98.59375,0.375 c 0.0732,-0.022 0.16007,-0.0133 0.25,0 0.1199,0.0178 0.26711,0.074 0.40625,0.15625 0.55655,0.32908 0.99524,0.78876 1,1.03125 0.005,0.24249 -0.41885,0.45798 -0.96875,0.46875 -0.5499,0.0108 -1.01986,-0.4489 -1.03125,-1.03125 -0.006,-0.32757 0.12417,-0.55907 0.34375,-0.625 z m 32.875,8.03125 c 0.51744,-0.0101 0.92674,0.41886 0.9375,0.96875 0.0108,0.5499 -0.67396,1.01445 -1.53125,1.03125 -0.85729,0.0168 -1.29783,-0.4122 -0.96875,-0.96875 0.32908,-0.55655 1.04506,-1.02112 1.5625,-1.03125 z m -90.5625,1.46875 c 9.83794,0.47055 18.08595,1.33183 18.53125,1.9375 0.51745,0.7038 8.4814,1.28855 28.3125,2.09375 5.91834,0.24029 10.77442,0.74508 10.78125,1.09375 0.0144,0.73429 -20.91714,4.15584 -31.90625,5.21875 -4.11799,0.39832 -9.05394,1.1477 -10.96875,1.6875 -1.91479,0.53981 -6.70513,1.3139 -10.625,1.6875 -6.77923,0.64612 -7.13957,0.54547 -7.71875,-1.59375 -0.33488,-1.23693 -0.25994,-4.01218 0.1875,-6.1875 0.44746,-2.17532 0.73936,-4.44952 0.625,-5.03125 -0.1155,-0.58745 1.11311,-0.98604 2.78125,-0.90625 z m 95.96875,2.75 c 0.26908,0.004 0.56436,0.0635 0.875,0.125 1.24256,0.24615 6.73883,0.85936 12.25,1.375 5.51116,0.51562 11.15156,1.11776 12.53125,1.34375 2.56288,0.41978 14.84475,1.44957 30.0625,2.5 l 8.53125,0.5625 0.21875,5.5 c 0.12593,3.02312 -0.21704,6.08318 -0.75,6.78125 -1.2816,1.67863 -4.21649,1.65369 -5.96875,-0.0312 -0.77357,-0.74383 -3.42517,-1.61002 -5.875,-1.9375 -2.44984,-0.32749 -5.80487,-1.15168 -7.46875,-1.84375 -5.23368,-2.17688 -12.91666,-4.54219 -18.125,-5.59375 -2.76145,-0.55753 -5.47012,-1.3067 -6.03125,-1.65625 -0.56113,-0.34955 -2.82807,-0.92841 -5.03125,-1.28125 -2.20314,-0.35284 -5.1424,-1.21232 -6.53125,-1.90625 -1.38886,-0.69393 -4.21262,-1.48879 -6.28125,-1.78125 -2.06863,-0.29247 -3.77075,-0.99579 -3.78125,-1.53125 -0.008,-0.40159 0.56777,-0.63717 1.375,-0.625 z m 5.9375,6.15625 c 0.59609,-0.0591 2.37289,0.47922 4.3125,1.34375 2.21668,0.98805 5.96833,2.0574 8.3125,2.375 2.34417,0.31758 4.2731,0.92657 4.28125,1.34375 0.008,0.41717 1.87806,1.02071 4.1875,1.34375 2.30945,0.32303 5.61341,1.16359 7.3125,1.875 1.6991,0.71141 8.51574,2.93426 15.15625,4.9375 11.49477,3.46761 12.0986,3.78605 12.46875,6.53125 0.21715,1.61039 -0.59394,5.01455 -1.84375,7.71875 -2.34386,5.07139 -4.17477,5.92134 -6.875,3.1875 -0.88838,-0.89944 -3.80275,-2.93376 -6.5,-4.53125 -8.14511,-4.82403 -13.65256,-8.28307 -15.40625,-9.6875 -0.6792,-0.54394 -1.91581,-1.54745 -2.75,-2.21875 -3.85999,-2.20432 -7.73527,-4.40831 -11.71875,-6.53125 -2.8977,-1.8686 -5.54884,-3.40102 -5.90625,-3.40625 -1.15431,-0.0169 -5.71558,-3.70207 -5.21875,-4.21875 0.0331,-0.0344 0.10234,-0.054 0.1875,-0.0625 z m -54.875,0.8125 c 0.64723,-0.0581 0.47399,0.23178 -0.40625,1.0625 -1.68108,1.58653 -16.13407,7.92915 -18.15625,7.96875 -0.79283,0.0155 -2.67784,0.72162 -4.21875,1.5625 -3.87123,2.11255 -9.00655,4.29485 -13.71875,5.84375 -2.18634,0.71866 -4.86744,1.95091 -5.9375,2.71875 -3.80598,2.73112 -5.13698,1.82086 -6.59375,-4.4375 -0.75289,-3.23446 -1.07861,-6.36015 -0.71875,-6.96875 0.35985,-0.60859 2.53906,-1.14766 4.84375,-1.1875 7.82222,-0.13524 30.39842,-3.42884 44,-6.40625 0.40282,-0.0882 0.69051,-0.13688 0.90625,-0.15625 z m 5.625,1.6875 c 0.34761,0.007 0.64313,0.0871 0.8125,0.25 0.33874,0.32573 -0.25768,0.58527 -1.3125,0.5625 -1.16566,-0.0252 -1.38507,-0.25897 -0.59375,-0.59375 0.35804,-0.15148 0.74614,-0.22625 1.09375,-0.21875 z m 29.15625,0.125 c -1.34749,0.0113 -2.88361,0.48775 -5.3125,1.28125 -2.49024,0.0488 -6.6857,2.68477 -6.65625,4.1875 0.0102,0.51872 0.86044,0.92612 1.875,0.90625 1.01457,-0.0199 2.61856,0.77841 3.5625,1.78125 1.94511,2.06649 1.07852,3.31083 -3.28125,4.71875 -1.36662,0.44132 -3.65426,1.66249 -5.09375,2.71875 -1.43949,1.05623 -3.34132,1.95157 -4.21875,1.96875 -0.87743,0.0172 -1.60439,0.4575 -1.59375,1 0.0106,0.54252 -1.63015,1.73142 -3.65625,2.625 -2.02612,0.89357 -3.90093,1.94689 -4.1875,2.34375 -0.28656,0.39685 -2.97547,2.06944 -5.96875,3.71875 -2.99327,1.64931 -6.35352,3.86207 -7.46875,4.90625 -1.11521,1.04418 -2.29632,1.8998 -2.625,1.90625 -1.05495,0.0207 -15.10804,8.66726 -15.4375,9.5 -0.17472,0.44159 -0.86871,0.79891 -1.5625,0.8125 -0.69379,0.0136 -2.06992,0.95749 -3.03125,2.0625 -0.96132,1.105 -2.68621,2.32784 -3.84375,2.71875 -1.15753,0.39093 -3.43554,1.68314 -5.0625,2.875 -3.79539,2.78032 -5.74676,3.98166 -12.09375,7.4375 -2.85054,1.55207 -5.91518,3.65606 -6.8125,4.6875 -0.89732,1.03143 -2.39652,1.8877 -3.34375,1.90625 -0.94723,0.0186 -2.26911,0.72423 -2.9375,1.5625 -0.6684,0.83825 -1.73971,1.51879 -2.375,1.53125 -0.6353,0.0125 -1.91084,0.95996 -2.84375,2.09375 -0.93292,1.13379 -3.05196,2.3582 -4.6875,2.71875 -1.63555,0.36056 -2.97697,0.98651 -2.96875,1.40625 -5.75631,5.90453 -14.05596,8.46194 -19.96875,14.03125 -1.77061,0.8795 -4.70829,2.45403 -6.53125,3.5 l -3.3125,1.90625 2.125,1.75 c 1.17475,0.96663 2.14421,2.26056 2.15625,2.875 0.0284,1.45021 6.29841,8.43634 13.03125,14.53125 2.92443,2.64734 5.56803,5.62756 5.90625,6.625 0.33821,0.99742 1.51544,2.05585 2.59375,2.375 1.07833,0.31913 1.95405,1.21803 1.96875,1.96875 0.0147,0.75072 0.87828,1.60202 1.90625,1.90625 1.02795,0.30424 3.93853,2.41138 6.46875,4.6875 5.35707,4.81914 6.49709,5.67832 9.90625,7.34375 4.56211,2.22864 7.35874,3.84615 8,4.6875 0.34719,0.45553 5.16694,2.9714 10.71875,5.5625 5.55182,2.59111 11.30721,5.2906 12.78125,6 1.47404,0.7094 3.74511,1.24457 5.0625,1.21875 1.31738,-0.0258 2.85544,0.40783 3.40625,0.9375 1.55289,1.49321 20.97329,5.74209 31.5625,6.90625 11.74815,1.29155 35.18503,1.11706 43.375,-0.3125 3.3526,-0.58519 9.67577,-1.654 14.0625,-2.375 4.38672,-0.72099 8.4273,-1.6829 8.96875,-2.125 0.54145,-0.44209 3.25068,-1.30217 6,-1.9375 2.74934,-0.63533 6.3158,-1.89481 7.9375,-2.78125 1.6217,-0.88642 3.54132,-1.60711 4.28125,-1.625 0.73994,-0.0179 2.52381,-0.69281 3.96875,-1.46875 1.44494,-0.77593 5.09864,-2.66356 8.09375,-4.21875 10.9865,-5.70459 20.38032,-11.27527 25.1875,-14.90625 6.5592,-4.95432 6.49461,-4.90175 13.90625,-11.9375 10.58948,-10.05241 15.10517,-14.66667 15.09375,-15.5 -0.006,-0.43297 1.29353,-2.27288 2.90625,-4.0625 1.61271,-1.7896 2.91629,-3.64387 2.90625,-4.15625 -0.01,-0.51239 0.72975,-1.57122 1.625,-2.34375 0.89524,-0.77252 2.19421,-2.8857 2.90625,-4.6875 0.71204,-1.80179 1.73874,-3.27062 2.28125,-3.28125 2.36386,-0.0463 0.60232,-2.09015 -3.34375,-3.875 -2.35885,-1.06694 -5.64335,-2.72649 -7.3125,-3.6875 -5.43952,-3.13174 -11.15924,-6.49275 -13.1875,-7.75 -1.09265,-0.67729 -3.478,-1.87009 -5.28125,-2.65625 -1.80324,-0.78616 -3.27062,-1.89498 -3.28125,-2.4375 -0.0106,-0.54252 -0.65193,-0.95289 -1.4375,-0.9375 -0.78556,0.0154 -2.12057,-0.6207 -2.9375,-1.40625 -1.76661,-1.69873 -13.07576,-7.28157 -14.6875,-7.25 -0.61935,0.0121 -1.14746,-0.36445 -1.15625,-0.8125 -0.009,-0.44805 -1.47578,-1.53822 -3.28125,-2.4375 -5.95772,-2.96745 -11.28491,-5.9974 -20,-11.40625 -4.73345,-2.93772 -10.28656,-6.06767 -12.34375,-6.96875 -2.05718,-0.90107 -3.99822,-2.04436 -4.3125,-2.53125 -4.36945,-1.83489 -8.46928,-4.39022 -12.65625,-6.75 -0.83508,-0.50647 -2.73974,-1.50027 -4.21875,-2.1875 -7.52139,-3.4949 -16.54841,-7.97566 -17,-8.4375 -0.28067,-0.28705 -2.64516,-1.47731 -5.28125,-2.65625 -2.6361,-1.17894 -4.80249,-2.55133 -4.8125,-3.0625 -0.01,-0.51117 1.14493,-1.83802 2.59375,-2.9375 l 2.65625,-2 -2.71875,-1.6875 c -2.51124,-1.85253 -3.92377,-2.60825 -5.65625,-2.59375 z m -33.15625,1.84375 c 0.73538,-0.0345 1.11449,0.21329 1.125,0.75 0.0192,0.97927 -8.5095,7.3795 -9.875,7.40625 -0.53382,0.0104 -0.97747,0.36711 -0.96875,0.8125 0.0156,0.7961 -18.72573,15.22247 -24.90625,19.15625 -1.73674,1.1054 -3.5118,2.58769 -3.9375,3.3125 -1.71789,2.92482 -4.07945,1.52648 -7.15625,-4.25 -3.41373,-6.40907 -2.81128,-7.25546 8.625,-11.75 14.42823,-5.67039 26.47228,-10.75052 30.59375,-12.90625 3.06844,-1.60496 5.27437,-2.47373 6.5,-2.53125 z m 31.875,12.75 c -0.36082,5.98374 -0.12327,19.83855 -0.15625,27.375 -0.0307,7.01445 0.13262,14.32939 0.375,16.25 0.58132,4.31276 -0.75963,6.8756 -0.5,11.75 l 0.53125,7.75 -5.5,0.1875 c -6.89451,0.24155 -11.06386,0.0728 -12.3125,-1.09375 2.48906,-7.57702 4.67435,-16.45076 6.84375,-24.40625 0.6717,-2.48864 1.52968,-4.97375 1.90625,-5.53125 0.54782,-0.81099 1.94656,-6.07625 2.25,-8.53125 0.0341,-0.27572 0.29171,-0.97522 0.59375,-1.53125 0.30204,-0.55602 1.11249,-3.71751 1.78125,-7.03125 0.66875,-3.31374 1.49988,-6.47379 1.875,-7.03125 0.37513,-0.55745 0.95009,-2.71187 1.28125,-4.78125 0.23693,-1.48053 0.64577,-2.75576 1.03125,-3.375 z m 11.59375,2.4375 c 0.62445,0.076 1.46118,0.55758 2.34375,1.40625 0.841,0.80868 2.17879,1.45297 2.96875,1.4375 0.78997,-0.0155 2.51304,0.76022 3.84375,1.71875 1.33069,0.95852 3.54979,2.24045 4.9375,2.875 1.38769,0.63455 3.22736,1.58461 4.0625,2.09375 0.83513,0.50915 2.70523,1.49971 4.15625,2.1875 3.33877,1.58261 13.27584,6.91985 18.5625,9.96875 3.69579,2.13144 7.06308,3.65939 10.375,4.75 0.6921,0.22791 1.24017,0.84186 1.25,1.34375 0.0263,1.343 -5.79487,7.1037 -10.03125,9.9375 -4.00962,2.68214 -4.69338,2.9193 -4.71875,1.625 -0.009,-0.46959 -1.07937,-1.95287 -2.34375,-3.3125 -1.26438,-1.35963 -3.02519,-3.29649 -3.9375,-4.3125 -0.91233,-1.016 -5.16313,-5.1277 -9.4375,-9.125 -4.27436,-3.99727 -7.77361,-7.5789 -7.78125,-7.96875 -0.008,-0.38982 -2.5114,-2.6806 -5.5625,-5.09375 -2.69003,-3.3841 -6.92294,-5.48725 -9.71875,-8.53125 -0.0145,-0.74308 0.4068,-1.07596 1.03125,-1 z m -10.125,0.0625 c 2.85025,7.92487 5.68844,16.09928 8.65625,25.28125 0.57925,2.1228 1.6047,4.81552 2.28125,5.96875 0.67657,1.15322 1.33669,2.9955 1.4375,4.09375 0.10081,1.09823 1.86155,6.3719 3.9375,11.71875 l 3.78125,9.71875 -2.6875,1.125 c -1.47334,0.62177 -5.925,1.42264 -9.90625,1.78125 l -7.25,0.65625 -0.0937,-6.0625 c 1.4824,-5.21369 -0.36718,-9.11052 0.40625,-14.21875 0.27252,-0.8305 0.48966,-7.46089 0.5,-14.75 0.0101,-7.10744 -0.44509,-18.58494 -1.0625,-25.3125 z m -6.09375,0.25 c 0.70263,0.0488 1.18023,0.22237 1.1875,0.59375 0.0189,0.96427 -1.9546,7.56252 -2.8125,9.40625 -0.39596,0.85098 -1.02847,3.10336 -1.40625,5 -0.3778,1.89665 -1.02764,4.14876 -1.4375,5 -0.40987,0.85124 -1.24059,3.57521 -1.84375,6.0625 -0.60316,2.48729 -1.68442,5.89804 -2.40625,7.5625 -0.72184,1.66446 -1.57948,4.82441 -1.90625,7.03125 -0.32678,2.20682 -1.04151,4.92023 -1.59375,6.03125 -1.16222,2.3382 -2.41466,9.282 -2.28125,12.0625 -0.66483,-0.18972 -1.27653,-0.48354 -2.03125,-0.46875 -2.92786,0.0573 -10.30774,-1.80317 -11.65625,-2.9375 -0.53135,-0.44696 -1.56074,-0.79537 -2.28125,-0.78125 -0.58836,0.0115 -2.53618,-0.97396 -4.6875,-2.3125 3.53563,-4.73546 10.05038,-14.67919 10.03125,-15.65625 -0.009,-0.43677 1.1193,-1.86906 2.46875,-3.1875 1.34943,-1.31843 2.4403,-2.87706 2.4375,-3.46875 -0.003,-0.59169 1.30184,-2.63742 2.90625,-4.53125 1.74517,-3.44406 4.60572,-6.12106 6.40625,-9.5 0.87845,-1.80505 2.19576,-3.63931 2.9375,-4.09375 0.74173,-0.45444 1.35599,-1.34414 1.34375,-1.96875 -0.0122,-0.6246 0.93517,-2.18602 2.09375,-3.46875 l 2.09375,-2.34375 2.4375,-4.03125 z m 12.34375,2.71875 c 2.01383,-0.002 5.45244,2.85137 12.21875,9.875 10.94084,11.35688 10.18459,10.61388 21.15625,20.90625 4.55559,4.27354 8.27332,8.09492 8.28125,8.5 0.008,0.40508 -2.30213,2.14345 -5.15625,3.875 l -5.1875,3.15625 -1.84375,-2.1875 c -1.00134,-1.198 -2.50669,-3.70467 -3.375,-5.59375 -0.86832,-1.88909 -1.91563,-3.6822 -2.3125,-3.96875 -1.36927,-0.98872 -5.06286,-6.47511 -5.78125,-8.59375 -2.6022,-2.20886 -3.33612,-5.53098 -5.28125,-8.15625 -0.84787,-0.85469 -2.39535,-2.64576 -3.46875,-4 -0.78006,-0.98411 -6.20027,-9.37363 -9.25,-13.8125 z m -0.90625,0.25 c 3.22181,6.49631 11.94591,21.38665 13.65625,23.03125 0.89737,0.86289 1.64678,1.95468 1.65625,2.4375 0.009,0.48283 3.47649,5.76656 7.71875,11.71875 l 7.71875,10.8125 -2.90625,0.71875 c -1.60464,0.38554 -3.454,1.35392 -4.09375,2.15625 -0.63976,0.80234 -2.56138,1.46908 -4.28125,1.5 -3.08644,0.0555 -3.16221,-0.0402 -5.625,-8.625 -1.37236,-4.78377 -2.9155,-9.59752 -3.4375,-10.6875 -0.52201,-1.08998 -2.44543,-6.47181 -4.25,-11.9375 -1.80459,-5.46571 -3.66878,-10.81558 -4.15625,-11.90625 -1.84511,-4.12822 -2.98986,-8.30056 -2.4375,-8.875 0.13821,-0.14373 0.28314,-0.25018 0.4375,-0.34375 z m -18.65625,1.125 c 1.07018,-0.0323 -0.26064,3.14256 -4.0625,8.59375 -6.38188,9.1505 -9.08811,13.16767 -10.5,15.65625 -0.53513,0.9432 -1.63381,2.45843 -2.4375,3.375 -2.822,3.21821 -4.22617,5.52329 -8.375,13.625 -0.69328,1.35382 -2.24932,4.15136 -3.40625,6.375 -0.20983,-0.13665 -0.41523,-0.26486 -0.625,-0.40625 -2.67374,-1.80212 -5.85654,-3.58059 -7.0625,-3.9375 -1.41101,-0.4176 -2.98462,-1.48623 -5.625,-4 2.91396,-2.13049 7.23723,-5.72294 9,-7.625 2.59628,-2.80139 5.03746,-5.11716 5.4375,-5.125 0.40004,-0.008 3.10648,-2.51147 6,-5.59375 4.22047,-2.85274 6.72069,-7.35802 10.4375,-10.71875 1.67652,-1.40207 4.69392,-4.32518 6.71875,-6.5 2.34608,-2.51989 3.85789,-3.69935 4.5,-3.71875 z m -5.1875,0.40625 c 0.44673,0.0202 0.67968,0.22569 0.6875,0.625 0.0115,0.58695 -0.64391,1.07759 -1.46875,1.09375 -0.82485,0.0162 -1.51068,0.45434 -1.5,1 0.0107,0.54565 -1.38384,2.26195 -3.09375,3.8125 -12.81328,11.619 -27.42326,25.57756 -32.53125,31.34375 -1.39953,-1.38041 -3.05621,-3.07484 -5.09375,-5.25 -4.69232,-5.00924 -4.41277,-5.61799 4.96875,-10.40625 3.61159,-1.84334 6.7938,-3.61328 7.0625,-3.9375 0.66222,-0.79904 9.93148,-6.50075 12.09375,-7.4375 2.44198,-3.23573 6.46044,-4.00645 10.03125,-6.34375 4.30361,-2.96281 7.50357,-4.56065 8.84375,-4.5 z"
       id="path2453"
       sodipodi:nodetypes="cssssccsssccssccsssssssssssssssssssssssssssssssssssssssssssssssssssccsssscccsssscccsssssssssssssssssssssssssssssssssssccssscccssssssssscccsssssssssccsssssssssccsccsscsssssssssssccccssssssssssssccsssssssssssssssccsssssssssscccsssssssssssssssccsssssssssccsscccsccsscccccsscccssssccccssssssscccssssccsssssssssssccsssssccsssccsssssssssccssscccssssssssssccsssssssssssccssccsssssssssccssscccsssssssssssssssssssssssscccccssssssssssssssssssssssssssssssssssssssssssccsssscccccssssssssccsccccccssssssccssssssssssssssscccccsscccccccsccsssssssscssscsssccssccccssscccssccsccsscccsssssssccsssscsscssccsccsssscsssccc"
       inkscape:connector-curvature="0" />
  </g>
</svg>
