<?xml version="1.0" encoding="UTF-8" standalone="no"?>
<!-- Created with Inkscape (http://www.inkscape.org/) -->

<svg
   xmlns:dc="http://purl.org/dc/elements/1.1/"
   xmlns:cc="http://creativecommons.org/ns#"
   xmlns:rdf="http://www.w3.org/1999/02/22-rdf-syntax-ns#"
   xmlns:svg="http://www.w3.org/2000/svg"
   xmlns="http://www.w3.org/2000/svg"
   xmlns:sodipodi="http://sodipodi.sourceforge.net/DTD/sodipodi-0.dtd"
   xmlns:inkscape="http://www.inkscape.org/namespaces/inkscape"
   id="svg2"
   version="1.1"
   inkscape:version="0.48.0 r9654"
   width="461.41"
   height="445.12"
   xml:space="preserve"
   sodipodi:docname="Sakura.image.svg"><metadata
     id="metadata8"><rdf:RDF><cc:Work
         rdf:about=""><dc:format>image/svg+xml</dc:format><dc:type
           rdf:resource="http://purl.org/dc/dcmitype/StillImage" /><dc:title /></cc:Work></rdf:RDF></metadata><defs
     id="defs6"><clipPath
       clipPathUnits="userSpaceOnUse"
       id="clipPath18"><path
         d="M 0,5100 0,0 l 5100,0 0,5100 -5100,0 z"
         id="path20"
         inkscape:connector-curvature="0" /></clipPath></defs><sodipodi:namedview
     pagecolor="#ffffff"
     bordercolor="#666666"
     borderopacity="1"
     objecttolerance="10"
     gridtolerance="10"
     guidetolerance="10"
     inkscape:pageopacity="1"
     inkscape:pageshadow="2"
     inkscape:window-width="1388"
     inkscape:window-height="899"
     id="namedview4"
     showgrid="false"
     fit-margin-top="0"
     fit-margin-left="0"
     fit-margin-right="0"
     fit-margin-bottom="0"
     inkscape:zoom="0.26464646"
     inkscape:cx="294.72507"
     inkscape:cy="392.17378"
     inkscape:window-x="0"
     inkscape:window-y="0"
     inkscape:window-maximized="0"
     inkscape:current-layer="g10" /><g
     id="g10"
     inkscape:groupmode="layer"
     inkscape:label="ink_ext_XXXXXX"
     transform="matrix(1.25,0,0,-1.25,-87.774931,547.94621)"><rect
       style="fill:#ffffff;fill-opacity:1;stroke:none"
       id="rect2996"
       width="369.12799"
       height="356.09601"
       x="70.219948"
       y="-438.35699"
       transform="scale(1,-1)" /><path
       inkscape:connector-curvature="0"
       id="path26"
       style="fill:#171716;fill-opacity:1;fill-rule:nonzero;stroke:none"
       d="m 254.687,258.595 c 0,0 -54.462,75.693 -80.092,112.535 -17.939,30.034 28.114,92.106 80.092,54.14 l -0.319,0 c 48.857,39.968 94.108,-21.302 78.809,-54.14 -25.629,-36.842 -78.809,-112.535 -78.809,-112.535 l 0.319,0" /><path
       inkscape:connector-curvature="0"
       id="path28"
       style="fill:#171716;fill-opacity:1;fill-rule:nonzero;stroke:none"
       d="m 252.574,257.513 c 0,0 -88.819,-28.406 -131.777,-41.396 -34.1079,-7.781 -78.9099,55.199 -26.7408,92.901 l -0.0988,-0.303 c -22.914,58.816 49.3416,82.919 75.8436,58.221 27.119,-35.759 82.674,-109.727 82.674,-109.727 l 0.099,0.304" /><path
       inkscape:connector-curvature="0"
       id="path30"
       style="fill:#171716;fill-opacity:1;fill-rule:nonzero;stroke:none"
       d="m 252.95,255.169 c 0,0 -0.43,-93.25 -1.351,-138.12 -3.141,-34.8431 -76.883,-57.9888 -96.618,3.277 l 0.258,-0.188 c -63.0183,-3.617 -63.6136,72.55 -31.935,90.123 42.389,14.741 129.904,44.72 129.904,44.72 l -0.258,0.188" /><path
       inkscape:connector-curvature="0"
       id="path32"
       style="fill:#171716;fill-opacity:1;fill-rule:nonzero;stroke:none"
       d="m 255.295,254.802 c 0,0 88.554,-29.224 130.943,-43.966 32.166,-13.754 31.393,-91.04 -32.972,-90.877 l 0.257,0.188 c -16.034,-61.0521 -88.657,-38.081 -95.581,-2.523 -0.921,44.871 -2.388,137.366 -2.388,137.366 l -0.259,-0.188" /><path
       inkscape:connector-curvature="0"
       id="path34"
       style="fill:#171716;fill-opacity:1;fill-rule:nonzero;stroke:none"
       d="m 256.369,256.919 c 0,0 55.159,75.189 82.277,110.949 23.021,26.341 96.286,1.723 76.241,-59.442 l -0.099,0.303 c 53.108,-34.115 8.82,-96.085 -27.137,-91.682 -42.959,12.99 -131.38,40.177 -131.38,40.177 l 0.098,-0.305" /><path
       inkscape:connector-curvature="0"
       id="path36"
       style="fill:#171716;fill-opacity:1;fill-rule:nonzero;stroke:none"
       d="m 286.244,251.684 c 0,-18.283 -14.82,-33.106 -33.104,-33.106 -18.284,0 -33.105,14.823 -33.105,33.106 0,18.284 14.821,33.106 33.105,33.106 18.284,0 33.104,-14.822 33.104,-33.106" /><path
       inkscape:connector-curvature="0"
       id="path38"
       style="fill:none;stroke:#ffffff;stroke-width:5;stroke-linecap:round;stroke-linejoin:round;stroke-miterlimit:4;stroke-opacity:1;stroke-dasharray:none"
       d="m 286.244,251.684 c 0,-18.283 -14.82,-33.106 -33.104,-33.106 -18.284,0 -33.105,14.823 -33.105,33.106 0,18.284 14.821,33.106 33.105,33.106 18.284,0 33.104,-14.822 33.104,-33.106 z" /><path
       inkscape:connector-curvature="0"
       id="path40"
       style="fill:none;stroke:#ffffff;stroke-width:5;stroke-linecap:round;stroke-linejoin:round;stroke-miterlimit:4;stroke-opacity:1;stroke-dasharray:none"
       d="m 251.965,335.49 0,-50.859" /><path
       inkscape:connector-curvature="0"
       id="path42"
       style="fill:none;stroke:#ffffff;stroke-width:5;stroke-linecap:round;stroke-linejoin:round;stroke-miterlimit:4;stroke-opacity:1;stroke-dasharray:none"
       d="M 173.682,277.448 220.5,262.35" /><path
       inkscape:connector-curvature="0"
       id="path44"
       style="fill:none;stroke:#ffffff;stroke-width:5;stroke-linecap:round;stroke-linejoin:round;stroke-miterlimit:4;stroke-opacity:1;stroke-dasharray:none"
       d="M 204.69,185.061 233.5,224.1" /><path
       inkscape:connector-curvature="0"
       id="path46"
       style="fill:none;stroke:#ffffff;stroke-width:5;stroke-linecap:round;stroke-linejoin:round;stroke-miterlimit:4;stroke-opacity:1;stroke-dasharray:none"
       d="M 302.139,186.003 273.5,225.35" /><path
       inkscape:connector-curvature="0"
       id="path48"
       style="fill:none;stroke:#ffffff;stroke-width:5;stroke-linecap:round;stroke-linejoin:round;stroke-miterlimit:4;stroke-opacity:1;stroke-dasharray:none"
       d="M 331.356,278.972 284.5,263.6" /></g></svg>