<?xml version="1.0" encoding="UTF-8" standalone="no"?>
<!-- Created with Inkscape (http://www.inkscape.org/) -->

<svg
   xmlns:dc="http://purl.org/dc/elements/1.1/"
   xmlns:cc="http://creativecommons.org/ns#"
   xmlns:rdf="http://www.w3.org/1999/02/22-rdf-syntax-ns#"
   xmlns:svg="http://www.w3.org/2000/svg"
   xmlns="http://www.w3.org/2000/svg"
   xmlns:sodipodi="http://sodipodi.sourceforge.net/DTD/sodipodi-0.dtd"
   xmlns:inkscape="http://www.inkscape.org/namespaces/inkscape"
   id="svg2"
   version="1.1"
   inkscape:version="0.48.0 r9654"
   width="700"
   height="699.99902"
   xml:space="preserve"
   sodipodi:docname="kikyo.eps"><metadata
     id="metadata8"><rdf:RDF><cc:Work
         rdf:about=""><dc:format>image/svg+xml</dc:format><dc:type
           rdf:resource="http://purl.org/dc/dcmitype/StillImage" /><dc:title></dc:title></cc:Work></rdf:RDF></metadata><defs
     id="defs6"><clipPath
       clipPathUnits="userSpaceOnUse"
       id="clipPath18"><path
         d="M 0,5100 0,0 l 5100,0 0,5100 -5100,0 z"
         id="path20"
         inkscape:connector-curvature="0" /></clipPath></defs><sodipodi:namedview
     pagecolor="#ffffff"
     bordercolor="#666666"
     borderopacity="1"
     objecttolerance="10"
     gridtolerance="10"
     guidetolerance="10"
     inkscape:pageopacity="0"
     inkscape:pageshadow="2"
     inkscape:window-width="1591"
     inkscape:window-height="1001"
     id="namedview4"
     showgrid="false"
     fit-margin-top="0"
     fit-margin-left="0"
     fit-margin-right="0"
     fit-margin-bottom="0"
     inkscape:zoom="0.74853324"
     inkscape:cx="175.42838"
     inkscape:cy="378.77271"
     inkscape:window-x="0"
     inkscape:window-y="0"
     inkscape:window-maximized="0"
     inkscape:current-layer="g10" /><g
     id="g10"
     inkscape:groupmode="layer"
     inkscape:label="ink_ext_XXXXXX"
     transform="matrix(1.25,0,0,-1.25,30.726774,655.91278)"><rect
       style="fill:#000000;stroke:none"
       id="rect3937"
       width="560"
       height="559.99921"
       x="-24.581419"
       y="-524.73022"
       transform="scale(1,-1)" /><path
       inkscape:connector-curvature="0"
       id="path26"
       style="fill:#ffffff;fill-opacity:1;fill-rule:nonzero;stroke:none"
       d="m 255.48558,244.51061 c 0,0 -60.746,81.898 -67.796,93.83 -7.051,11.932 -8.679,19.526 -9.764,28.746 -1.082,9.222 4.339,28.203 21.696,41.221 7.049,4.338 48.813,29.83 55.322,37.423 6.508,-7.593 48.271,-33.085 55.322,-37.423 17.355,-13.018 22.778,-31.999 21.694,-41.221 -1.084,-9.22 -2.712,-16.814 -9.763,-28.746 -7.049,-11.932 -66.168,-93.83 -66.168,-93.83 l -0.543,0" /><path
       inkscape:connector-curvature="0"
       id="path28"
       style="fill:#ffffff;fill-opacity:1;fill-rule:nonzero;stroke:none"
       d="m 255.55658,244.34961 c 0,0 -96.662,-32.463 -110.189,-35.482 -13.526,-3.018 -21.251,-2.22 -30.355,-0.402 -9.105,1.819 -25.481899,12.841 -32.499499,33.37 -1.9468,8.045 -13.2855,55.644 -18.4965,64.18 9.2332,3.843 46.381999,35.685 52.687999,41.049 17.743,12.485 37.473,11.776 45.907,7.895 8.434,-3.88 15.153,-7.775 24.322,-18.167 9.169,-10.393 68.791,-91.925 68.791,-91.925 l -0.168,-0.518" /><path
       inkscape:connector-curvature="0"
       id="path30"
       style="fill:#ffffff;fill-opacity:1;fill-rule:nonzero;stroke:none"
       d="m 255.73158,244.36861 c 0,0 1.006,-101.962 -0.303,-115.76 -1.312,-13.796 -4.456,-20.898 -8.999,-28.994995 -4.543,-8.0959 -20.089,-20.2658 -41.782,-20.5951 -8.253,0.6351 -57.024,4.559 -66.753,2.241 -0.801,9.9691 -19.605,55.139095 -22.759,62.793095 -6.39,20.733 0.381,39.279 6.678,46.099 6.297,6.823 12.077,12.01 24.793,17.518 12.718,5.51 108.685,37.019 108.685,37.019 l 0.44,-0.32" /><path
       inkscape:connector-curvature="0"
       id="path32"
       style="fill:#ffffff;fill-opacity:1;fill-rule:nonzero;stroke:none"
       d="m 255.76758,244.54161 c 0,0 97.283,-30.553 110.002,-36.062 12.715,-5.509 18.496,-10.695 24.794,-17.518 6.296,-6.823 13.067,-25.367 6.676,-46.1 -3.154,-7.652 -21.958,-52.823995 -22.758,-62.793895 -9.73,2.3188 -58.5,-1.607 -66.753,-2.2402 -21.694,0.3293 -37.239,12.4992 -41.78,20.596105 -4.545,8.09599 -7.69,15.19699 -9,28.99399 -1.309,13.798 -1.62,114.803 -1.62,114.803 l 0.439,0.321" /><path
       inkscape:connector-curvature="0"
       id="path34"
       style="fill:#ffffff;fill-opacity:1;fill-rule:nonzero;stroke:none"
       d="m 255.61558,244.62761 c 0,0 59.117,83.081 68.288,93.474 9.17,10.392 15.888,14.286 24.321,18.168 8.435,3.881 28.165,4.589 45.909,-7.896 6.304,-5.365 43.454,-37.206 52.687,-41.049 -5.212,-8.537 -16.548,-56.133 -18.497,-64.179 -7.017,-20.529 -23.394,-31.553 -32.5,-33.37 -9.103,-1.82 -16.829,-2.618 -30.355,0.401 -13.527,3.017 -109.685,33.935 -109.685,33.935 l -0.168,0.516" /><path
       inkscape:connector-curvature="0"
       id="path36"
       style="fill:none;stroke:#000000;stroke-width:4;stroke-linecap:round;stroke-linejoin:round;stroke-miterlimit:4;stroke-opacity:1;stroke-dasharray:none"
       d="m 175.21358,354.06961 72.136,-94.373" /><path
       inkscape:connector-curvature="0"
       id="path38"
       style="fill:none;stroke:#000000;stroke-width:4;stroke-linecap:round;stroke-linejoin:round;stroke-miterlimit:4;stroke-opacity:1;stroke-dasharray:none"
       d="m 350.94258,376.30761 -78.642,-108.474" /><path
       inkscape:connector-curvature="0"
       id="path40"
       style="fill:none;stroke:#000000;stroke-width:4;stroke-linecap:round;stroke-linejoin:round;stroke-miterlimit:4;stroke-opacity:1;stroke-dasharray:none"
       d="m 411.14758,194.61261 -124.206,41.762" /><path
       inkscape:connector-curvature="0"
       id="path42"
       style="fill:none;stroke:#000000;stroke-width:4;stroke-linecap:round;stroke-linejoin:round;stroke-miterlimit:4;stroke-opacity:1;stroke-dasharray:none"
       d="m 256.57058,61.730615 0,151.321995" /><path
       inkscape:connector-curvature="0"
       id="path44"
       style="fill:none;stroke:#000000;stroke-width:4;stroke-linecap:round;stroke-linejoin:round;stroke-miterlimit:4;stroke-opacity:1;stroke-dasharray:none"
       d="m 74.332281,183.76361 151.322299,50.986" /><path
       inkscape:connector-curvature="0"
       id="path46"
       style="fill:#ffffff;fill-opacity:1;fill-rule:nonzero;stroke:none"
       d="m 283.14658,243.42561 c 0,-15.574 -12.626,-28.203 -28.203,-28.203 -15.577,0 -28.204,12.629 -28.204,28.203 0,15.576 12.627,28.203 28.204,28.203 15.577,0 28.203,-12.627 28.203,-28.203" /><path
       inkscape:connector-curvature="0"
       id="path48"
       style="fill:none;stroke:#000000;stroke-width:4;stroke-linecap:butt;stroke-linejoin:miter;stroke-miterlimit:4;stroke-opacity:1;stroke-dasharray:none"
       d="m 283.14658,243.42561 c 0,-15.574 -12.626,-28.203 -28.203,-28.203 -15.577,0 -28.204,12.629 -28.204,28.203 0,15.576 12.627,28.203 28.204,28.203 15.577,0 28.203,-12.627 28.203,-28.203 z" /><path
       inkscape:connector-curvature="0"
       id="path50"
       style="fill:none;stroke:#000000;stroke-width:4;stroke-linecap:round;stroke-linejoin:round;stroke-miterlimit:4;stroke-opacity:1;stroke-dasharray:none"
       d="m 254.94358,274.88361 0,33.627" /><path
       inkscape:connector-curvature="0"
       id="path52"
       style="fill:none;stroke:#000000;stroke-width:4;stroke-linecap:round;stroke-linejoin:round;stroke-miterlimit:4;stroke-opacity:1;stroke-dasharray:none"
       d="m 225.02458,253.14761 -31.981,10.391" /><path
       inkscape:connector-curvature="0"
       id="path54"
       style="fill:none;stroke:#000000;stroke-width:4;stroke-linecap:round;stroke-linejoin:round;stroke-miterlimit:4;stroke-opacity:1;stroke-dasharray:none"
       d="m 236.45158,217.97761 -19.764,-27.206" /><path
       inkscape:connector-curvature="0"
       id="path56"
       style="fill:none;stroke:#000000;stroke-width:4;stroke-linecap:round;stroke-linejoin:round;stroke-miterlimit:4;stroke-opacity:1;stroke-dasharray:none"
       d="m 273.43258,217.97761 19.767,-27.206" /><path
       inkscape:connector-curvature="0"
       id="path58"
       style="fill:none;stroke:#000000;stroke-width:4;stroke-linecap:round;stroke-linejoin:round;stroke-miterlimit:4;stroke-opacity:1;stroke-dasharray:none"
       d="m 284.85958,253.14661 31.983,10.393" /><path
       sodipodi:type="arc"
       style="fill:none;stroke:#ffffff;stroke-width:60;stroke-miterlimit:4;stroke-opacity:1;stroke-dasharray:none"
       id="path3106"
       sodipodi:cx="313.27933"
       sodipodi:cy="673.3808"
       sodipodi:rx="292.57217"
       sodipodi:ry="292.57217"
       d="m 605.8515,673.3808 a 292.57217,292.57217 0 1 1 -585.144347,0 292.57217,292.57217 0 1 1 585.144347,0 z"
       transform="matrix(0.8,0,0,-0.8,4.7951189,783.43525)" /></g></svg>