<?xml version="1.0" encoding="UTF-8" standalone="no"?>
<!-- Created with Inkscape (http://www.inkscape.org/) -->
<svg
   xmlns:dc="http://purl.org/dc/elements/1.1/"
   xmlns:cc="http://creativecommons.org/ns#"
   xmlns:rdf="http://www.w3.org/1999/02/22-rdf-syntax-ns#"
   xmlns:svg="http://www.w3.org/2000/svg"
   xmlns="http://www.w3.org/2000/svg"
   xmlns:sodipodi="http://sodipodi.sourceforge.net/DTD/sodipodi-0.dtd"
   xmlns:inkscape="http://www.inkscape.org/namespaces/inkscape"
   id="svg2"
   sodipodi:version="0.32"
   inkscape:version="0.46"
   width="184.12022"
   height="245.54059"
   version="1.0"
   sodipodi:docname="n_plover_thing.svg"
   inkscape:output_extension="org.inkscape.output.svg.inkscape">
  <metadata
     id="metadata7">
    <rdf:RDF>
      <cc:Work
         rdf:about="">
        <dc:format>image/svg+xml</dc:format>
        <dc:type
           rdf:resource="http://purl.org/dc/dcmitype/StillImage" />
      </cc:Work>
    </rdf:RDF>
  </metadata>
  <defs
     id="defs5">
    <inkscape:perspective
       sodipodi:type="inkscape:persp3d"
       inkscape:vp_x="0 : 526.18109 : 1"
       inkscape:vp_y="0 : 1000 : 0"
       inkscape:vp_z="744.09448 : 526.18109 : 1"
       inkscape:persp3d-origin="372.04724 : 350.78739 : 1"
       id="perspective9" />
  </defs>
  <sodipodi:namedview
     inkscape:window-height="756"
     inkscape:window-width="1222"
     inkscape:pageshadow="2"
     inkscape:pageopacity="1"
     guidetolerance="10.0"
     gridtolerance="10.0"
     objecttolerance="10.0"
     borderopacity="1.0"
     bordercolor="#666666"
     pagecolor="#ffffff"
     id="base"
     showgrid="false"
     inkscape:zoom="0.73020528"
     inkscape:cx="1134.2399"
     inkscape:cy="159.56696"
     inkscape:window-x="-1"
     inkscape:window-y="0"
     inkscape:current-layer="svg2"
     showguides="true"
     inkscape:guide-bbox="true"
     borderlayer="true" />
  <rect
     style="opacity:1;fill:#ffffff;fill-opacity:1;stroke:#ffffff;stroke-width:0.5;stroke-linecap:square;stroke-miterlimit:4;stroke-dasharray:none;stroke-dashoffset:0;stroke-opacity:1"
     id="rect2401"
     width="1463.9719"
     height="909.33331"
     x="-958.26117"
     y="-617.93567" />
  <path
     style="fill:#000000"
     d="M 63.306248,244.99981 C 45.981248,244.60651 27.981248,244.02441 23.306248,243.70631 C 3.5405477,242.36151 0.87834769,242.12051 0.38954769,241.63161 C -0.48035231,240.76171 0.20174769,232.29571 1.4966477,227.89011 C 2.1715477,225.59381 2.7858477,223.26501 2.8616477,222.71501 C 2.9375477,222.16501 3.2601477,221.04001 3.5786477,220.21501 C 3.8971477,219.39001 4.3732477,217.36501 4.6366477,215.71501 C 4.9000477,214.06501 5.8535477,210.24001 6.7556477,207.21501 C 7.6576477,204.19001 8.6022477,200.59001 8.8547477,199.21501 C 9.4997477,195.70281 11.394848,188.00461 12.055048,186.21501 C 12.359348,185.39001 12.731448,184.04001 12.881948,183.21501 C 13.945648,177.38341 15.764348,170.56101 16.467248,169.76501 C 16.928748,169.24251 17.308748,167.44251 17.311848,165.76501 C 17.316448,163.23591 17.863448,160.72541 19.828148,154.21501 C 19.911148,153.94001 20.247348,153.04001 20.575348,152.21501 C 21.261948,150.48831 25.506048,131.70681 25.885748,128.71501 C 26.025348,127.61501 26.206748,126.71501 26.288948,126.71501 C 26.583748,126.71501 31.397548,107.65021 31.843848,104.71501 C 32.094748,103.06501 32.747548,100.59001 33.294448,99.215008 C 33.841348,97.840008 34.447748,95.815008 34.641948,94.715008 C 35.242848,91.311408 36.322248,86.979208 38.254748,80.215008 C 40.228248,73.307108 42.232148,65.691908 42.728148,63.215008 C 42.893448,62.390008 43.290148,61.040008 43.609748,60.215008 C 47.794048,49.414808 47.745448,45.295108 43.380548,40.791608 C 41.689648,39.047108 40.306248,36.943708 40.306248,36.117408 C 40.306248,35.291108 39.873948,34.182608 39.345448,33.654208 C 37.584048,31.892808 37.417048,25.101708 39.013548,20.158408 C 40.048648,16.953308 42.050548,13.905508 44.834348,11.296308 C 47.168048,9.1090075 49.289748,7.5318075 49.549348,7.7914075 C 49.808848,8.0510075 50.590448,7.5775075 51.286248,6.7392075 C 51.981948,5.9009075 53.369548,5.2150075 54.369748,5.2150075 C 55.369848,5.2150075 56.466348,4.7650075 56.806248,4.2150075 C 57.146148,3.6650075 58.432748,3.2150075 59.665248,3.2150075 C 60.897848,3.2150075 62.333748,2.7980075 62.856248,2.2884075 C 64.902748,0.29230748 97.261348,-0.83679252 106.93324,0.75030748 C 117.97594,2.5625075 121.94974,3.4629075 124.21854,4.6671075 C 125.64174,5.4225075 128.86594,6.9456075 131.38334,8.0517075 C 137.95994,10.941208 145.48614,18.972508 146.93324,24.645008 C 148.42224,30.481908 147.98934,37.255608 145.83764,41.790008 C 144.82394,43.926408 144.45574,46.028208 144.91894,47.035008 C 145.34414,47.959008 145.74434,49.165008 145.80834,49.715008 C 145.87234,50.265008 146.21784,51.615008 146.57624,52.715008 C 146.93454,53.815008 147.44154,55.840008 147.70294,57.215008 C 147.96424,58.590008 148.66354,61.965008 149.25684,64.715008 C 149.85014,67.465008 150.57524,70.840008 150.86804,72.215008 C 151.16094,73.590008 151.88034,76.515008 152.46664,78.715008 C 153.05294,80.915008 153.89074,84.965008 154.32844,87.715008 C 154.76614,90.465008 155.39874,94.065008 155.73424,95.715008 C 157.42934,104.05171 158.51054,109.08901 159.38284,112.71501 C 159.91214,114.91501 160.56384,118.29001 160.83094,120.21501 C 161.65234,126.13351 165.33564,144.53911 166.34834,147.78601 C 166.87524,149.47501 167.30974,152.17501 167.31404,153.78601 C 167.31834,155.39691 168.24914,160.31501 169.38244,164.71501 C 170.51574,169.11501 171.67064,174.06501 171.94884,175.71501 C 172.22714,177.36501 172.70884,179.39001 173.01934,180.21501 C 173.32984,181.04001 173.68794,182.39001 173.81504,183.21501 C 173.94224,184.04001 175.22974,190.53211 176.67624,197.64181 C 178.12274,204.75161 179.30624,211.52411 179.30624,212.69181 C 179.30624,213.85961 179.84624,215.35501 180.50624,216.01501 C 181.16624,216.67501 181.44704,217.21501 181.13024,217.21501 C 180.81334,217.21501 181.17314,220.02751 181.92974,223.46501 C 183.77444,231.84651 184.78594,244.21501 183.62664,244.21501 C 183.12044,244.21501 182.18064,243.68941 181.53834,243.04711 C 180.31454,241.82331 167.72434,241.81381 165.83634,243.03521 C 164.64614,243.80521 165.26134,243.75341 146.30624,244.68101 C 125.24124,245.71181 99.090948,245.81231 63.306248,244.99981 z M 120.88604,243.05531 C 126.30164,243.12001 130.48374,242.73681 130.85114,242.14231 C 131.27324,241.45941 131.95044,241.50481 132.88254,242.27831 C 133.65674,242.92091 135.06744,243.11201 136.04354,242.70661 C 137.01304,242.30401 142.53124,241.83811 148.30624,241.67131 C 168.06334,241.10071 178.76654,240.12551 180.15174,238.76951 C 181.23164,237.71251 181.27764,236.39251 180.38434,232.08371 C 179.77224,229.13091 179.09114,225.36501 178.87074,223.71501 C 177.77804,215.53411 176.05394,206.11291 174.66174,200.71501 C 173.81054,197.41501 172.73024,192.69001 172.26094,190.21501 C 171.79164,187.74001 170.93484,183.80251 170.35694,181.46501 C 169.77904,179.12751 168.83074,175.30251 168.24964,172.96501 C 167.66854,170.62751 166.78044,166.01501 166.27624,162.71501 C 165.77194,159.41501 164.92644,155.14001 164.39734,153.21501 C 163.21274,148.90521 160.26004,134.24171 159.70404,129.90701 C 158.53914,120.82581 158.17174,118.87791 156.88604,114.96531 C 156.11784,112.62761 155.22824,108.46501 154.90914,105.71501 C 154.58994,102.96501 153.64074,97.340008 152.79964,93.215008 C 151.95864,89.090008 150.99114,84.140008 150.64964,82.215008 C 150.30814,80.290008 149.57704,78.141608 149.02494,77.440808 C 148.47294,76.740008 148.26244,75.925408 148.55734,75.630608 C 148.85214,75.335708 148.44624,72.759108 147.65534,69.904708 C 143.29754,54.178408 142.47324,50.753808 142.88524,50.087208 C 144.11794,48.092708 140.94394,48.426208 137.59124,50.643608 C 135.50954,52.020508 132.34374,53.656308 130.55624,54.278808 C 127.21754,55.441508 126.60774,56.941608 128.23884,59.978608 C 129.28124,61.919308 133.27814,78.796208 133.97874,84.215008 C 134.22754,86.140008 134.82824,89.065008 135.31364,90.715008 C 135.79894,92.365008 136.44824,95.515008 136.75634,97.715008 C 137.28814,101.51151 137.64344,103.44301 138.87214,109.21501 C 139.16484,110.59001 139.86084,114.41501 140.41894,117.71501 C 140.97694,121.01501 141.85404,125.09451 142.36794,126.78061 C 142.88184,128.46681 143.47874,131.16681 143.69434,132.78061 C 144.76384,140.78851 146.48094,149.67571 147.23554,151.10981 C 147.70004,151.99271 148.34324,154.74001 148.66484,157.21501 C 149.21034,161.41311 150.33154,167.32771 151.69784,173.21501 C 153.18754,179.63421 154.63504,187.19781 155.33384,192.21501 C 155.75524,195.24001 156.36504,198.84001 156.68904,200.21501 C 159.41604,211.78961 160.29294,218.61851 159.26574,220.28061 C 158.68584,221.21891 151.10344,221.44581 127.15634,221.24141 C 82.742848,220.86241 79.455248,220.78501 79.860648,220.12791 C 80.059948,219.80501 75.179248,219.53171 69.014648,219.52061 C 31.519648,219.45301 28.302148,218.89321 28.311848,212.43931 C 28.314948,210.39091 28.736748,207.14001 29.249148,205.21501 C 29.761648,203.29001 30.442448,199.91501 30.762048,197.71501 C 31.081648,195.51501 31.973348,191.46501 32.743648,188.71501 C 33.513848,185.96501 34.349148,182.14001 34.599948,180.21501 C 34.850648,178.29001 35.540948,174.91501 36.133848,172.71501 C 37.427348,167.91561 38.299948,163.76651 38.867948,159.71501 C 39.391548,155.97971 41.289848,147.54141 42.354848,144.21501 C 42.795148,142.84001 43.683048,138.56501 44.328048,134.71501 C 44.973048,130.86501 45.907048,126.93361 46.403548,125.97861 C 46.900048,125.02351 47.306248,122.91531 47.306248,121.29371 C 47.306248,119.67201 47.749648,117.17921 48.291448,115.75401 C 49.420048,112.78551 50.085548,109.93431 51.430248,102.30701 C 51.954548,99.332508 52.658348,96.454408 52.994148,95.911008 C 53.329948,95.367708 54.193048,92.176308 54.912048,88.819108 C 57.200948,78.132108 59.041148,70.844208 60.619648,66.215008 C 62.053548,62.009508 62.677248,58.304908 62.416948,55.538508 C 62.356048,54.891508 59.790348,53.131208 56.715348,51.626708 C 52.189648,49.412508 50.963748,49.151208 50.281348,50.255408 C 49.817648,51.005708 49.660148,51.978508 49.931248,52.417308 C 50.202448,52.856008 49.947748,53.215008 49.365248,53.215008 C 48.782848,53.215008 48.306248,53.970608 48.306248,54.894008 C 48.306248,56.773808 46.524848,62.796308 45.183548,65.451408 C 44.701048,66.406508 44.306248,67.883208 44.306248,68.733008 C 44.306248,69.582808 43.445448,72.851408 42.393348,75.996508 C 41.341248,79.141708 40.229948,83.065008 39.923948,84.715008 C 39.137048,88.956708 33.210748,112.31121 32.311148,114.71501 C 31.899548,115.81501 30.809248,120.31501 29.888448,124.71501 C 28.967548,129.11501 27.757148,134.51501 27.198648,136.71501 C 26.640148,138.91501 25.952448,142.06501 25.670548,143.71501 C 25.388548,145.36501 24.898248,147.39001 24.580948,148.21501 C 24.263748,149.04001 23.890948,150.25071 23.752448,150.90531 C 23.614048,151.56001 23.031348,153.58501 22.457548,155.40531 C 21.883848,157.22571 21.179048,160.06501 20.891348,161.71501 C 20.603748,163.36501 18.970248,170.11501 17.261448,176.71501 C 15.552648,183.31501 13.748048,190.74001 13.251348,193.21501 C 12.072748,199.08741 10.375548,205.72441 8.7672477,210.74991 C 7.4802477,214.77181 4.3609477,228.83001 3.8724477,232.81061 C 3.7309477,233.96311 3.3165477,235.38931 2.9515477,235.97991 C 2.5865477,236.57051 2.9991477,237.76501 3.8685477,238.63441 C 5.1239477,239.88981 7.7880477,240.21501 16.818648,240.21501 C 24.050848,240.21501 28.437148,240.61781 28.872248,241.32181 C 29.349248,242.09361 29.821048,242.01801 30.431248,241.07181 C 30.987148,240.20991 31.579848,240.07981 32.056248,240.71501 C 32.813748,241.72501 36.731748,241.84311 79.306248,242.13931 C 92.231248,242.22921 104.38124,242.66091 106.30624,243.09871 C 108.23124,243.53641 110.19954,243.68061 110.68024,243.41921 C 111.16084,243.15771 115.75354,242.99391 120.88604,243.05531 z M 154.66014,218.00681 C 156.25884,217.16741 156.42634,216.25471 155.87694,211.37421 C 155.52664,208.26161 154.84454,203.69001 154.36114,201.21501 C 153.87784,198.74001 152.99734,194.24001 152.40444,191.21501 C 151.81154,188.19001 151.22624,184.25251 151.10364,182.46501 C 150.98114,180.67751 150.52654,179.21501 150.09354,179.21501 C 149.66054,179.21501 149.30624,177.97451 149.30624,176.45841 C 149.30624,174.94231 148.83114,172.12981 148.25044,170.20841 C 147.66974,168.28701 146.98414,165.14001 146.72694,163.21501 C 146.46964,161.29001 145.85764,158.36501 145.36694,156.71501 C 144.87614,155.06501 144.19244,152.03301 143.84744,149.97721 C 143.25804,146.46471 140.36824,143.48631 138.93774,144.91691 C 138.59044,145.26421 138.30624,145.01601 138.30624,144.36541 C 138.30624,143.00611 129.06234,143.42961 123.30624,145.05251 C 117.82994,146.59661 113.30624,148.57871 113.30624,149.43421 C 113.30624,149.86371 112.74374,150.22101 112.05624,150.22841 C 109.68164,150.25391 100.20445,158.71681 94.806248,165.63221 C 93.706248,167.04141 91.943748,168.19901 90.889648,168.20471 C 89.835448,168.21031 89.261048,167.92691 89.613248,167.57471 C 91.855048,165.33291 76.985248,147.80031 70.051848,144.51031 C 60.660648,140.05411 58.643348,139.49311 52.404648,139.60261 C 45.482348,139.72411 45.851648,139.38501 44.660848,146.71501 C 44.392748,148.36501 43.490748,152.59341 42.656448,156.11151 C 41.822048,159.62971 40.723148,164.80471 40.214448,167.61151 C 38.459548,177.29371 38.154848,178.74571 36.109248,187.16991 C 34.980148,191.82001 34.056248,196.66571 34.056248,197.93811 C 34.056248,199.21051 33.662548,200.49481 33.181248,200.79231 C 32.700048,201.08971 32.306248,203.07991 32.306248,205.21501 C 32.306248,207.35011 31.873248,209.36461 31.343948,209.69171 C 29.454948,210.85921 32.466348,215.21051 35.216748,215.28771 C 45.762748,215.58391 58.919748,216.14981 64.806248,216.56051 C 68.656248,216.82911 77.112148,217.15901 83.597148,217.29361 C 90.082148,217.42811 95.553248,217.80561 95.755248,218.13251 C 96.394748,219.16711 152.67884,219.04711 154.66014,218.00681 z M 98.222648,157.19761 C 100.63335,154.45721 103.10095,152.21291 103.70604,152.21041 C 104.31114,152.20781 106.24434,150.85781 108.00204,149.21041 C 109.75964,147.56291 111.69394,146.21501 112.30034,146.21501 C 112.90674,146.21501 115.29364,145.27821 117.60454,144.13321 C 119.91544,142.98831 124.95624,141.73911 128.80624,141.35741 L 135.80624,140.66331 L 130.80624,137.45811 C 128.05624,135.69531 125.24374,134.24451 124.55624,134.23401 C 123.86874,134.22361 123.30624,133.81721 123.30624,133.33111 C 123.30624,132.12101 109.40324,132.63361 106.30624,133.95801 C 104.93124,134.54591 101.64065,137.15161 98.993848,139.74831 L 94.181448,144.46961 L 91.009748,141.59231 C 89.265348,140.00981 87.605948,138.46011 87.322148,138.14861 C 87.038448,137.83711 84.502948,136.44821 81.687848,135.06201 C 77.277348,132.89041 75.379048,132.56881 67.961348,132.73651 C 58.872948,132.94201 55.353548,134.27961 57.593248,136.67711 C 58.254648,137.38511 59.324848,137.76141 59.971548,137.51321 C 60.618248,137.26501 63.224048,138.22141 65.762248,139.63851 C 68.300548,141.05561 71.058948,142.21501 71.892148,142.21501 C 72.725248,142.21501 76.196848,145.05941 79.606648,148.53591 C 85.933348,154.98631 86.522548,155.69011 89.566148,160.43291 C 90.525348,161.92771 91.879348,162.93231 92.574848,162.66541 C 93.270348,162.39851 95.811948,159.93801 98.222648,157.19761 z M 141.24644,135.21501 C 140.80604,132.19001 139.95924,127.69001 139.36444,125.21501 C 138.09544,119.93371 137.59784,117.55331 136.28134,110.46501 C 132.16254,88.289208 129.31124,75.092808 128.18304,72.984808 C 127.66214,72.011408 127.53184,71.215008 127.89354,71.215008 C 128.25524,71.215008 128.09274,70.652508 127.53254,69.965008 C 126.97234,69.277508 126.26914,67.140008 125.96984,65.215008 C 124.94994,58.654908 124.19024,57.215008 121.74864,57.215008 C 120.47024,57.215008 119.16384,57.636408 118.84554,58.151408 C 118.52724,58.666408 117.48824,59.079008 116.53654,59.068208 C 115.58484,59.057508 107.83124,59.279708 99.306248,59.562008 C 82.247048,60.127008 72.139848,58.981608 68.653648,56.088308 C 67.475548,55.110608 67.099348,55.290308 66.639048,57.050508 C 66.327748,58.241008 65.703448,59.215008 65.251748,59.215008 C 64.800148,59.215008 64.431648,60.002508 64.432948,60.965008 C 64.434248,61.927508 62.896648,68.565008 61.016148,75.715008 C 59.135548,82.865008 57.298448,90.065008 56.933648,91.715008 C 56.568848,93.365008 56.135248,95.165008 55.970148,95.715008 C 55.805048,96.265008 55.325148,98.290008 54.903748,100.21501 C 54.482348,102.14001 53.018348,108.44001 51.650348,114.21501 C 50.282448,119.99001 48.963348,125.84001 48.719048,127.21501 C 48.474748,128.59001 48.001048,131.21011 47.666448,133.03731 C 47.149248,135.86171 47.327748,136.31141 48.857448,136.03731 C 49.847148,135.86011 51.705648,134.76101 52.987448,133.59491 C 56.315748,130.56711 72.427548,127.98411 73.830048,130.25341 C 74.606448,131.50961 79.014248,131.49651 79.793548,130.23571 C 80.594548,128.93961 78.600848,125.27631 75.525548,122.39361 C 72.394448,119.45841 73.680148,117.88881 79.418148,117.64181 C 81.681848,117.54441 83.925848,116.84601 84.404748,116.08981 C 84.883748,115.33371 85.282548,115.10431 85.290948,115.58001 C 85.299348,116.05581 86.318748,115.82731 87.556248,115.07241 C 90.568948,113.23441 95.005748,113.43391 99.510248,115.60991 C 104.01404,117.78561 105.32734,119.27591 107.43304,124.60101 C 109.05914,128.71321 109.06274,128.71531 115.60764,129.37511 C 123.62524,130.18331 132.94744,134.21781 137.39134,138.80281 C 139.21244,140.68171 141.00494,141.88051 141.37474,141.46691 C 141.74454,141.05341 141.68684,138.24001 141.24644,135.21501 z M 99.659348,135.60451 C 102.49015,133.06871 105.14014,130.41511 105.54824,129.70751 C 107.25314,126.75171 100.61885,117.21501 96.857648,117.21501 C 96.069348,117.21501 95.146148,116.76501 94.806248,116.21501 C 94.466348,115.66501 93.089748,115.21501 91.747248,115.21501 C 90.404748,115.21501 89.306248,115.66501 89.306248,116.21501 C 89.306248,116.76501 88.835848,117.21501 88.260848,117.21501 C 87.685848,117.21501 86.055548,118.37481 84.638048,119.79231 C 82.732048,121.69831 82.353248,122.66201 83.183548,123.49231 C 84.755448,125.06421 84.581148,126.21501 82.771048,126.21501 C 81.540548,126.21501 81.450548,126.61601 82.317348,128.23571 C 82.912148,129.34701 83.176048,130.61681 82.903748,131.05731 C 82.354448,131.94601 85.788248,135.21501 87.271048,135.21501 C 87.789048,135.21501 89.021448,136.32591 90.009548,137.68361 C 90.997748,139.04131 92.415148,140.16631 93.159348,140.18361 C 93.903548,140.20091 96.828548,138.14031 99.659348,135.60451 z M 91.506248,128.01501 C 89.565048,126.07381 90.119948,123.56711 92.893048,121.75011 C 95.796548,119.84761 96.185648,119.99251 96.804648,123.20691 C 97.668148,127.69071 94.267648,130.77641 91.506248,128.01501 z M 100.08575,57.360608 C 101.03205,56.869308 106.01844,56.199408 111.16654,55.872008 C 116.31474,55.544608 121.03974,54.891608 121.66654,54.420908 C 122.29344,53.950308 124.73584,53.013208 127.09414,52.338608 C 142.16674,48.027008 148.13744,37.513708 142.86854,24.563008 C 140.39414,18.481008 134.73794,11.835408 132.70114,12.617008 C 132.01434,12.880508 130.91014,12.442608 130.24724,11.643908 C 128.55454,9.6044075 120.35184,6.1022075 117.02054,5.9968075 C 115.48844,5.9483075 113.99944,5.5275075 113.71154,5.0618075 C 113.42374,4.5961075 111.45224,4.2150075 109.33054,4.2150075 C 107.18164,4.2150075 105.24824,3.6613075 104.96574,2.9650075 C 104.57134,1.9932075 104.24684,2.0169075 103.50734,3.0718075 C 102.97655,3.8289075 102.30035,4.0144075 101.97715,3.4916075 C 101.64875,2.9601075 95.210748,2.6635075 87.102248,2.8061075 C 72.653848,3.0602075 60.888448,5.1098075 55.246848,8.3555075 C 48.350748,12.322908 46.318348,13.826408 46.312548,14.965008 C 46.309148,15.652508 45.631248,16.215008 44.806248,16.215008 C 43.981248,16.215008 43.306248,17.040008 43.306248,18.048308 C 43.306248,19.056708 42.993248,20.194708 42.610648,20.577308 C 40.658048,22.529908 40.718648,29.944308 42.724448,34.502808 C 44.410548,38.334908 51.528848,45.833508 54.322148,46.720008 C 55.413448,47.066408 56.306248,47.769508 56.306248,48.282408 C 56.306248,48.795308 56.999248,49.215008 57.846148,49.215008 C 58.693048,49.215008 61.280548,50.214508 63.596148,51.436208 C 65.911748,52.657908 68.687248,53.725908 69.764048,53.809608 C 70.840848,53.893408 71.897148,54.487608 72.111348,55.130208 C 72.407648,56.019208 72.836048,56.020208 73.903548,55.134308 C 74.675048,54.494008 75.306248,54.378808 75.306248,54.878308 C 75.306248,55.377808 76.093748,55.817808 77.056248,55.856108 C 80.303848,55.985308 87.485748,57.061108 87.905948,57.481408 C 88.747248,58.322608 98.417448,58.226708 100.08575,57.360608 z M 80.570648,44.601208 C 80.732048,43.563808 81.253748,42.090108 81.729848,41.326408 C 82.206048,40.562608 82.718148,36.737608 82.867848,32.826408 C 83.017548,28.915108 83.400248,23.787508 83.718148,21.431708 C 84.168648,18.094208 83.949748,17.015408 82.726948,16.546208 C 81.164748,15.946708 73.595548,17.885608 71.934448,19.310708 C 71.454848,19.722108 70.554848,19.864908 69.934448,19.628008 C 68.834348,19.208108 60.381948,26.467608 60.229748,27.963108 C 60.187648,28.376608 59.995148,29.552608 59.801948,30.576308 C 59.253648,33.480908 61.307448,36.983908 64.185948,38.053708 C 65.627148,38.589308 67.706248,39.371808 68.806248,39.792508 C 69.906248,40.213208 72.066648,40.701808 73.607048,40.878208 C 75.147448,41.054608 77.345748,41.700908 78.492148,42.314508 C 81.548848,43.950408 78.946348,45.148708 74.509948,44.148208 C 72.533648,43.702408 70.554348,43.561708 70.111448,43.835408 C 69.668648,44.109108 69.306248,43.856508 69.306248,43.274008 C 69.306248,42.691608 68.399948,42.215008 67.292248,42.215008 C 64.516348,42.215008 58.463648,38.145608 57.624348,35.715008 C 55.606848,29.872408 57.622048,24.323408 63.344148,19.965008 C 66.052048,17.902508 69.176248,16.215008 70.286948,16.215008 C 71.397548,16.215008 72.306248,15.709908 72.306248,15.092608 C 72.306248,14.282508 72.696648,14.294108 73.709048,15.134308 C 74.786648,16.028608 75.211848,15.999108 75.543548,15.006708 C 76.077648,13.409008 106.96864,13.143908 108.10034,14.727308 C 108.48854,15.270608 110.81654,15.846708 113.27354,16.007608 C 115.73054,16.168508 118.08614,16.843508 118.50824,17.507608 C 118.93034,18.171708 119.28254,18.361708 119.29094,17.929808 C 119.29934,17.498008 120.31874,17.707008 121.55624,18.394408 C 122.79374,19.081708 124.03124,19.676208 124.30624,19.715308 C 125.53904,19.890808 129.30624,22.780908 129.30624,23.551208 C 129.30624,24.021508 130.17844,25.631208 131.24454,27.128308 C 133.50334,30.300508 133.43134,31.631808 130.78004,35.715008 C 127.70224,40.455308 126.65184,41.244308 120.54964,43.399708 C 115.95244,45.023508 111.36074,45.534108 97.541748,45.957908 C 81.031348,46.464208 80.290048,46.405008 80.570648,44.601208 z M 101.64615,39.525408 C 101.94105,37.429708 102.17035,35.040008 102.15575,34.215008 C 102.14115,33.390008 102.35615,29.190408 102.63345,24.882608 C 102.91085,20.574808 102.87955,17.308408 102.56405,17.623908 C 102.24845,17.939508 101.49885,17.790908 100.89825,17.293708 C 99.002248,15.724308 88.548948,15.013308 87.694648,16.395708 C 86.860748,17.744908 86.791948,18.340608 85.847848,32.381208 C 85.106948,43.400108 84.387348,42.557508 94.958148,43.049508 L 101.11005,43.335908 L 101.64615,39.525408 z M 118.80624,41.215008 C 119.14614,40.665008 120.27954,40.215008 121.32474,40.215008 C 126.40904,40.215008 130.41114,30.462708 126.80624,26.857908 C 125.98124,26.032908 125.30624,24.944108 125.30624,24.438308 C 125.30624,23.476008 119.59254,20.774408 115.30624,19.710108 C 113.93124,19.368708 111.74854,18.567308 110.45574,17.929408 C 106.60094,16.027108 105.60624,18.665508 105.44684,31.214408 L 105.30714,42.215008 L 111.74764,42.215008 C 115.28994,42.215008 118.46634,41.765008 118.80624,41.215008 z"
     id="path2384"
     sodipodi:nodetypes="cssssssssssssssssssssssssssssssssssssssssssssssssssssssssssssssssccssssssssssssssssssssssssssssssssssssssssssssssssssssssssssssssssssssssssssssssssssssssssccssssssssssssssssssssssssssssssssccsssscccssscccssssssssssccsssssssssssssssssssssssssssssssssssccssssssssssssssccssccsssssssssssssssssssssssssssssccsssssssssssssssssssssssssssssssssccssssssccccssssscccc" />
</svg>

