<?xml version="1.0" encoding="UTF-8" standalone="no"?>
<!-- Created with Inkscape (http://www.inkscape.org/) -->
<svg
   xmlns:dc="http://purl.org/dc/elements/1.1/"
   xmlns:cc="http://creativecommons.org/ns#"
   xmlns:rdf="http://www.w3.org/1999/02/22-rdf-syntax-ns#"
   xmlns:svg="http://www.w3.org/2000/svg"
   xmlns="http://www.w3.org/2000/svg"
   xmlns:sodipodi="http://sodipodi.sourceforge.net/DTD/sodipodi-0.dtd"
   xmlns:inkscape="http://www.inkscape.org/namespaces/inkscape"
   id="svg2"
   sodipodi:version="0.32"
   inkscape:version="0.46"
   width="217.74622"
   height="211.35472"
   version="1.0"
   sodipodi:docname="n_chestnut_gourds.svg"
   inkscape:output_extension="org.inkscape.output.svg.inkscape">
  <metadata
     id="metadata7">
    <rdf:RDF>
      <cc:Work
         rdf:about="">
        <dc:format>image/svg+xml</dc:format>
        <dc:type
           rdf:resource="http://purl.org/dc/dcmitype/StillImage" />
      </cc:Work>
    </rdf:RDF>
  </metadata>
  <defs
     id="defs5">
    <inkscape:perspective
       sodipodi:type="inkscape:persp3d"
       inkscape:vp_x="0 : 526.18109 : 1"
       inkscape:vp_y="0 : 1000 : 0"
       inkscape:vp_z="744.09448 : 526.18109 : 1"
       inkscape:persp3d-origin="372.04724 : 350.78739 : 1"
       id="perspective9" />
  </defs>
  <sodipodi:namedview
     inkscape:window-height="756"
     inkscape:window-width="1222"
     inkscape:pageshadow="2"
     inkscape:pageopacity="1"
     guidetolerance="10.0"
     gridtolerance="10.0"
     objecttolerance="10.0"
     borderopacity="1.0"
     bordercolor="#666666"
     pagecolor="#ffffff"
     id="base"
     showgrid="false"
     inkscape:zoom="0.73020528"
     inkscape:cx="38.657528"
     inkscape:cy="159.56696"
     inkscape:window-x="-1"
     inkscape:window-y="0"
     inkscape:current-layer="svg2"
     showguides="true"
     inkscape:guide-bbox="true"
     borderlayer="true" />
  <rect
     style="opacity:1;fill:#ffffff;fill-opacity:1;stroke:#ffffff;stroke-width:0.5;stroke-linecap:square;stroke-miterlimit:4;stroke-dasharray:none;stroke-dashoffset:0;stroke-opacity:1"
     id="rect2401"
     width="1463.9719"
     height="909.33331"
     x="-1216.8799"
     y="-637.70911" />
  <path
     style="fill:#000000"
     d="M 120.80747,208.81559 C 118.76897,206.97859 117.41217,204.64449 117.04727,202.34669 C 116.56227,199.29309 116.95947,198.20159 119.68557,195.09669 C 121.45067,193.08639 123.44697,191.44159 124.12177,191.44159 C 125.51927,191.44159 131.08437,184.01539 132.07877,180.82349 C 132.44177,179.65849 133.62727,177.90129 134.71317,176.91849 C 135.79917,175.93569 136.68767,174.54199 136.68767,173.82129 C 136.68767,172.64059 149.15667,146.21429 158.44217,127.71569 C 160.43697,123.74149 161.78417,120.20479 161.43577,119.85639 C 161.08737,119.50799 159.08907,119.15819 156.99497,119.07899 C 154.90097,118.99989 152.66577,118.59759 152.02787,118.18509 C 151.39007,117.77259 150.26347,117.66719 149.52427,117.95079 C 148.07767,118.50589 137.38307,113.33559 134.32817,110.60419 C 131.21487,107.82069 125.73827,98.944592 125.06887,95.597392 C 124.72167,93.861692 124.10507,92.441592 123.69867,92.441592 C 122.51787,92.441592 122.48547,76.103589 123.66017,73.013989 C 124.59527,70.554389 124.30957,69.573989 121.34667,65.074689 C 116.56797,57.817989 115.36427,53.383189 115.90137,45.013089 C 116.26087,39.411589 117.15587,36.226989 120.02407,30.343389 C 123.67277,22.858989 124.52887,19.441589 122.75507,19.441589 C 122.24217,19.441589 121.53677,18.541589 121.18767,17.441589 C 120.71297,15.945989 119.67467,15.441589 117.07067,15.441589 C 115.15537,15.441589 112.21977,14.733889 110.54707,13.868889 C 107.78127,12.438589 107.34847,12.438589 105.76797,13.868889 C 104.81217,14.733889 102.63347,15.441589 100.92627,15.441589 C 98.700667,15.441589 97.642867,16.007489 97.187667,17.441589 C 96.838567,18.541589 96.185667,19.441589 95.736867,19.441589 C 93.167067,19.441589 94.563767,27.317689 97.687667,30.441589 C 99.007967,31.761889 101.82307,47.476289 101.36007,50.941589 C 100.08487,60.484689 98.147067,66.089589 94.963967,69.441589 C 92.591067,71.940289 91.818367,73.513789 92.262967,74.941589 C 92.605367,76.041589 93.116767,79.726189 93.399167,83.129692 C 93.934567,89.580792 91.737567,99.323292 89.026467,102.52029 C 88.290167,103.38859 87.687667,104.52899 87.687667,105.05449 C 87.687667,106.47549 77.574767,115.88089 74.687667,117.14509 C 70.920367,118.79469 66.662067,120.22689 61.937667,121.43339 C 59.255567,122.11829 57.687667,123.08479 57.687667,124.05319 C 57.687667,126.04029 74.583167,159.10999 76.345767,160.57279 C 77.083767,161.18529 77.687667,162.44139 77.687667,163.36399 C 77.687667,164.28669 78.095267,165.46909 78.593467,165.99159 C 79.091567,166.51409 80.399267,168.56739 81.499367,170.55459 C 85.244467,177.31929 86.186967,178.86349 87.345267,180.13199 C 87.981967,180.82929 89.331967,183.19759 90.345267,185.39489 C 91.358567,187.59219 92.862667,189.42319 93.687667,189.46379 C 96.675667,189.61089 102.02877,192.98799 102.37067,194.94159 C 103.50267,201.41039 102.81307,205.59599 100.21947,207.99969 C 97.265967,210.73689 90.227867,211.39949 87.558867,209.19159 C 83.581267,205.90129 81.221367,198.46579 83.673667,196.95019 C 85.048067,196.10079 84.494067,193.50549 82.066367,189.42139 C 80.928767,187.50749 79.423567,184.47909 78.721467,182.69159 C 78.019467,180.90409 77.049667,179.44159 76.566367,179.44159 C 76.083067,179.44159 75.687667,178.71939 75.687667,177.83659 C 75.687667,176.95389 74.438167,174.36639 72.910967,172.08659 C 71.383867,169.80689 68.168467,164.11659 65.765667,159.44159 C 63.362767,154.76659 60.036167,148.46659 58.373067,145.44159 C 56.710067,142.41659 55.487467,139.80289 55.656367,139.63329 C 56.151567,139.13619 51.426567,128.44159 50.711667,128.44159 C 50.353767,128.44159 49.456267,126.90059 48.717267,125.01719 C 47.539267,122.01499 45.912867,120.77319 42.187567,120.03149 C 39.789367,119.55399 31.799967,115.83059 27.971367,113.40609 C 25.956667,112.13029 25.496967,112.24999 22.916667,114.72209 C 21.355467,116.21779 19.603867,117.44159 19.024067,117.44159 C 18.359067,117.44159 18.124667,119.56349 18.388967,123.19159 C 18.777667,128.52559 18.580067,129.18829 15.657967,132.35159 C 12.223167,136.06989 12.178767,137.74259 15.154667,151.29199 C 15.517967,152.94589 15.983567,155.56859 16.189367,157.12029 C 16.395167,158.67199 17.264667,164.21659 18.121567,169.44159 C 18.978467,174.66659 19.681367,180.43619 19.683567,182.26299 C 19.687467,185.52059 21.530067,188.44159 23.580967,188.44159 C 25.655167,188.44159 27.096667,193.23059 26.798267,199.12989 C 26.737367,200.33339 25.395967,202.73229 23.817367,204.46059 C 21.162867,207.36689 20.609767,207.55249 16.457367,206.92979 C 7.3492672,205.56389 3.7886672,197.75939 9.0316672,190.65299 C 11.093167,187.85869 11.273567,186.90119 10.528067,182.70869 C 10.061867,180.08679 8.9751672,171.64159 8.1131672,163.94159 C 7.2512672,156.24159 6.4198672,149.26659 6.2656672,148.44159 C 5.1034672,142.22219 4.6373672,139.61479 4.2984672,137.43619 C 4.0840672,136.05819 2.9182672,133.25209 1.7077672,131.20049 C -1.1336328,126.38469 -0.38553278,120.84389 3.6248672,117.00169 C 6.0833672,114.64619 6.3663672,113.77159 5.9280672,109.88259 C 5.4660672,105.78409 5.7025672,105.19759 9.0551672,102.12669 L 12.682067,98.804592 L 10.325067,93.873092 C 6.7507672,86.394692 5.8161672,82.683892 5.3049672,73.941589 C 5.0476672,69.541589 4.7690672,65.941589 4.6858672,65.941589 C 3.9908672,65.941589 4.0718672,62.322089 4.7766672,61.886589 C 5.2776672,61.576889 5.6875672,60.445489 5.6875672,59.372289 C 5.6875672,57.329889 11.072367,48.985489 15.563367,44.068389 C 17.971667,41.431689 23.779167,38.085189 26.187567,37.946389 C 26.737567,37.914689 27.812367,37.498089 28.575967,37.020589 C 29.339567,36.543189 32.988767,36.105089 36.685267,36.047089 C 43.263767,35.943789 43.527767,35.835589 49.130367,30.941589 C 55.114767,25.714289 57.687667,23.916889 57.687667,24.963289 C 57.687667,25.304989 58.390267,24.881889 59.248967,24.023089 C 62.068867,21.203289 71.484467,19.134489 78.732967,19.742189 L 85.382767,20.299689 L 88.872267,16.120589 C 91.262067,13.258589 92.549767,10.534489 92.958367,7.4766891 C 93.693967,1.9719891 95.634467,0.44158912 101.87877,0.44158912 C 105.48667,0.44158912 106.68767,0.81618912 106.68767,1.9415891 C 106.68767,3.8032891 106.53027,3.8160891 110.87457,1.6011891 C 112.85997,0.58898912 115.54257,-0.12351088 116.83597,0.01788912 C 118.12947,0.15928912 119.68127,0.31238912 120.28467,0.35828912 C 123.15827,0.57658912 125.68767,4.2697891 125.68767,8.2471891 C 125.68767,11.351689 126.38277,13.079189 128.61587,15.524089 L 131.54407,18.730089 L 137.60287,17.538089 C 140.93517,16.882489 145.12997,16.584489 146.92467,16.875889 C 148.71927,17.167289 151.72817,17.611789 153.61097,17.863689 C 155.49377,18.115589 158.28807,19.248689 159.82047,20.381689 C 161.35287,21.514589 162.96237,22.449389 163.39717,22.458889 C 164.64567,22.486189 168.46147,26.850989 169.79457,29.776789 C 170.86317,32.122289 171.58157,32.441589 175.78917,32.441589 C 178.41847,32.441589 180.83007,32.862989 181.14837,33.377989 C 181.46667,33.892989 182.50567,34.327489 183.45737,34.343489 C 187.33977,34.408989 189.33987,35.050189 192.34207,37.191589 C 194.07697,38.429089 195.83597,39.441589 196.25107,39.441589 C 197.40097,39.441589 205.62647,48.673489 206.26277,50.678189 C 206.57057,51.648089 207.17007,52.441589 207.59497,52.441589 C 208.36467,52.441589 210.02277,57.237789 211.22507,62.941589 C 211.57287,64.591589 212.01557,69.547989 212.20877,73.955789 C 212.52707,81.216692 212.27187,82.579492 209.49307,88.455792 C 207.80627,92.022992 205.47247,95.990392 204.30687,97.272192 C 202.44697,99.317592 202.37287,99.745892 203.70147,100.77219 C 206.46657,102.90839 208.41377,106.91079 208.10357,109.82059 C 207.74797,113.15579 209.62117,115.44159 212.70987,115.44159 C 214.03387,115.44159 215.07807,116.21849 215.39797,117.44159 C 215.68557,118.54159 216.31847,119.44159 216.80427,119.44159 C 218.52657,119.44159 217.71377,126.41549 215.76427,128.36499 C 213.55127,130.57799 213.08477,133.98429 211.16567,161.94159 C 210.86357,166.34159 210.14817,172.97689 209.57577,176.68679 C 208.72447,182.20449 208.79347,183.69029 209.95477,184.85159 C 214.93857,189.83539 214.17537,196.30679 208.05307,200.97639 C 203.99987,204.06799 200.35107,203.71209 195.66367,199.76799 C 191.37877,196.16249 191.97607,189.98629 197.14587,184.44159 C 199.58937,181.82089 200.26297,179.50449 201.21687,170.44159 C 201.53527,167.41659 202.19127,163.14159 202.67467,160.94159 C 203.15807,158.74159 204.03787,153.11659 204.62997,148.44159 C 205.22197,143.76659 205.95007,138.46569 206.24787,136.66179 C 206.73817,133.69279 206.47677,133.24959 203.48857,131.98339 C 201.67307,131.21419 199.40017,129.64739 198.43767,128.50169 C 196.49377,126.18789 196.07327,119.93929 197.79017,118.87829 C 198.44817,118.47159 197.69547,117.61719 195.92307,116.75869 C 194.28987,115.96769 192.45337,114.22279 191.84207,112.88109 C 190.44447,109.81369 188.91137,109.82319 182.09397,112.94159 C 179.08787,114.31659 175.74177,115.44159 174.65807,115.44159 C 173.57437,115.44159 172.63137,115.89159 172.56267,116.44159 C 172.24027,119.02069 168.89627,127.24589 167.68397,128.44159 C 167.40517,128.71659 166.55347,130.74159 165.79137,132.94159 C 165.02937,135.14159 164.11167,137.16659 163.75217,137.44159 C 163.07667,137.95829 138.84357,186.83509 136.87277,191.65589 C 136.26247,193.14869 136.13797,194.60189 136.59617,194.88509 C 137.84607,195.65749 138.71217,201.07049 138.08537,204.19159 C 137.10947,209.05129 135.27067,210.52589 129.43617,211.12809 C 124.46077,211.64159 123.72457,211.44429 120.80747,208.81559 z M 132.91607,207.52629 C 136.46167,204.43649 136.92237,197.99769 133.65887,197.14429 C 131.63427,196.61489 131.63457,196.60369 133.81097,191.77769 C 135.61777,187.77109 138.83437,181.17719 143.71907,171.46619 C 144.14087,170.62769 145.54387,167.69159 146.83687,164.94159 C 148.12977,162.19159 149.45987,159.71659 149.79267,159.44159 C 150.46157,158.88879 162.68767,133.60139 162.68767,132.77069 C 162.68767,132.48449 163.61827,130.94339 164.75577,129.34599 C 165.89317,127.74859 166.54267,126.44159 166.19907,126.44159 C 165.85547,126.44159 166.27477,125.44149 167.13097,124.21909 C 167.98717,122.99669 168.68767,120.96129 168.68767,119.69599 C 168.68767,117.50879 168.57157,117.47159 166.32917,118.94079 C 165.03197,119.79079 163.11947,122.61189 162.07917,125.21009 C 161.03887,127.80819 158.05017,134.07359 155.43767,139.13319 C 152.82517,144.19289 150.68767,148.99459 150.68767,149.80379 C 150.68767,150.61289 150.35017,151.42489 149.93767,151.60829 C 148.64157,152.18429 139.68767,171.00189 139.68767,173.14979 C 139.68767,174.27559 139.00837,175.76049 138.17817,176.44949 C 137.34797,177.13849 134.62017,181.14599 132.11637,185.35509 C 129.02567,190.55099 126.60637,193.43199 124.58097,194.32849 C 120.58757,196.09619 118.42507,199.54729 119.25047,202.83569 C 119.61017,204.26889 120.30567,205.44159 120.79607,205.44159 C 121.28647,205.44159 121.68767,206.11659 121.68767,206.94159 C 121.68767,207.77489 122.57657,208.44159 123.68767,208.44159 C 124.78767,208.44159 125.68767,208.88629 125.68767,209.42979 C 125.68767,211.17059 130.05357,210.02089 132.91607,207.52629 z M 98.858967,206.78659 C 101.65617,204.25519 101.40367,196.05649 98.465167,193.99829 C 97.242767,193.14209 95.287567,192.44159 94.120167,192.44159 C 90.989567,192.44159 89.796767,190.72829 79.152167,170.94159 C 75.185167,163.56759 73.193067,160.45429 72.437667,160.44789 C 72.025167,160.44439 71.687667,159.54159 71.687667,158.44159 C 71.687667,157.34159 71.237667,156.44159 70.687667,156.44159 C 70.137667,156.44159 69.687667,155.63159 69.687667,154.64159 C 69.687667,153.65159 69.267667,152.41409 68.754267,151.89159 C 68.240967,151.36909 65.942267,147.34159 63.646067,142.94159 C 57.649467,131.45059 57.094467,130.35219 55.182767,126.19159 C 53.296067,122.08559 50.032167,120.80129 51.252067,124.64499 C 51.636767,125.85679 52.487967,127.38489 53.143867,128.04069 C 53.799667,128.69649 55.125367,131.41749 56.089667,134.08739 C 58.304067,140.21819 59.698867,143.28639 61.705667,146.44159 C 62.580267,147.81659 64.169367,150.96659 65.236967,153.44159 C 66.304567,155.91659 68.642767,160.18129 70.432867,162.91879 C 72.223067,165.65629 73.697667,168.35629 73.709867,168.91879 C 73.722167,169.48129 74.612167,171.06659 75.687667,172.44159 C 76.763167,173.81659 77.653167,175.72909 77.665467,176.69159 C 77.677667,177.65409 78.069367,178.44159 78.535967,178.44159 C 79.002567,178.44159 80.138767,180.12909 81.060867,182.19159 C 81.983067,184.25409 83.594367,187.51659 84.641567,189.44159 C 86.127767,192.17339 86.423767,194.16929 85.990567,198.53519 C 85.499267,203.48609 85.701367,204.37649 87.750167,206.28519 C 90.554267,208.89769 96.242567,209.15439 98.858967,206.78659 z M 22.074467,202.39359 C 25.277367,198.58719 24.692067,193.08109 20.639467,188.89529 C 18.170467,186.34509 17.531567,184.59859 16.716667,178.17099 C 16.181267,173.94809 15.106167,167.66899 14.327667,164.21729 C 12.294767,155.20419 10.981067,146.17769 10.567067,138.37709 C 10.357567,134.43119 10.760967,133.34659 13.505967,130.47419 C 17.425767,126.37249 17.575267,122.97759 14.000467,119.24629 C 9.7742672,114.83509 6.7571672,115.63199 3.0010672,122.15169 C 1.6330672,124.52609 2.2999672,128.42299 4.3584672,130.08339 C 5.7291672,131.18909 8.7240672,148.01709 10.117367,162.44159 C 10.814467,169.65979 11.274767,172.98689 12.857067,182.24569 C 13.858367,188.10429 13.783767,188.71029 11.801867,190.81989 C 10.628967,192.06849 9.9733672,193.39409 10.345067,193.76579 C 10.716767,194.13749 10.495867,194.44159 9.8542672,194.44159 C 7.6792672,194.44159 8.6731672,199.21459 11.471967,202.21079 C 15.097167,206.09159 18.907567,206.15729 22.074467,202.39359 z M 208.83137,197.81149 C 211.54197,195.35849 210.98917,189.82389 207.78167,187.30089 C 205.32947,185.37199 205.31257,185.25509 206.49227,178.37539 C 207.14977,174.54139 207.68767,169.68779 207.68767,167.58969 C 207.68767,165.49159 208.02517,163.43759 208.43767,163.02529 C 208.85017,162.61299 209.23947,160.17549 209.30287,157.60869 C 209.36617,155.04179 209.73917,148.10409 210.13177,142.19159 C 210.59467,135.21929 210.49427,131.44159 209.84607,131.44159 C 208.64247,131.44159 208.00637,134.49439 207.13717,144.44159 C 206.23767,154.73559 206.02767,156.24449 203.10117,173.44159 C 201.25407,184.29539 200.93517,185.23879 198.71007,186.42959 C 197.61727,187.01449 196.58667,189.07969 196.17667,191.50649 C 195.59037,194.97679 195.84227,195.97829 197.83657,198.10669 C 199.73467,200.13229 200.83787,200.51089 203.56167,200.07149 C 205.41737,199.77209 207.78877,198.75509 208.83137,197.81149 z M 208.68767,129.44159 C 208.68767,128.89159 209.02517,128.49489 209.43767,128.55999 C 212.45387,129.03629 215.68767,126.37759 215.68767,123.42169 C 215.68767,122.38929 214.67517,120.50899 213.43767,119.24309 C 209.10117,114.80729 199.68767,117.78489 199.68767,123.59239 C 199.68767,126.43139 202.24307,129.83439 203.69917,128.93449 C 204.16687,128.64549 204.83217,128.86629 205.17757,129.42529 C 205.98767,130.73599 208.68767,130.74859 208.68767,129.44159 z M 65.687667,118.44499 C 66.512667,118.07929 68.686667,117.02889 70.518667,116.11079 C 72.350767,115.19269 74.415967,114.44159 75.108067,114.44159 C 76.455867,114.44159 81.901967,108.85709 85.347967,103.94159 C 90.334267,96.828692 92.259167,85.755992 90.029667,77.009289 C 88.791367,72.151189 88.816767,72.034789 91.713767,69.266189 C 95.762367,65.397189 97.543367,60.616089 98.291467,51.608989 C 98.813067,45.328189 98.539167,42.683789 96.777067,36.986189 C 95.593867,33.160689 94.006567,29.335689 93.249667,28.486189 C 91.966467,27.045789 91.302467,24.416689 91.572467,21.844589 C 91.635867,21.241289 92.559567,19.742289 93.625167,18.513589 C 94.690867,17.284889 95.317667,15.641089 95.018167,14.860589 C 94.252867,12.866189 92.931967,13.096589 92.216967,15.349189 C 91.883967,16.398389 90.953667,17.509289 90.149567,17.817789 C 89.345567,18.126389 88.687667,19.067989 88.687667,19.910189 C 88.687667,21.701689 89.055967,21.643089 76.187667,21.899789 C 67.225067,22.078589 63.110567,23.018689 60.687667,25.441589 C 60.412667,25.716589 58.612667,26.779989 56.687667,27.804689 C 54.762667,28.829389 51.066667,31.896489 48.474467,34.620489 C 44.447067,38.852689 43.328467,39.505089 40.785767,39.104389 C 39.149167,38.846389 37.332567,38.340189 36.748867,37.979489 C 36.165167,37.618689 35.125067,37.687589 34.437567,38.132589 C 33.750067,38.577489 32.062567,38.988789 30.687567,39.046589 C 23.858367,39.333289 13.752367,47.593189 9.5865672,56.292989 C 7.7455672,60.137789 7.3858672,62.497889 7.5066672,69.941589 C 7.5870672,74.891589 7.8798672,79.841589 8.1574672,80.941592 C 8.4350672,82.041592 9.2088672,85.145292 9.8769672,87.838692 C 10.862567,91.811492 12.583267,94.311292 18.993667,101.08349 C 23.339567,105.67469 27.216667,109.23259 27.609467,108.98989 C 28.002167,108.74719 29.449367,109.59269 30.825567,110.86869 C 33.685867,113.52099 42.030167,117.44159 44.814667,117.44159 C 45.844767,117.44159 46.687567,117.86909 46.687567,118.39149 C 46.687567,119.45239 63.309867,119.49919 65.687667,118.44499 z M 35.131067,102.35269 C 33.672367,99.982292 23.687567,80.412092 23.687567,79.923289 C 23.687567,79.584189 24.605167,79.598089 25.726667,79.953989 C 27.535367,80.528092 27.694167,80.281492 27.132867,77.771389 C 26.784767,76.214989 25.910067,73.591589 25.189067,71.941589 C 24.468067,70.291589 23.176667,67.238289 22.319267,65.156589 C 21.461867,63.074789 20.053467,60.664589 19.189467,59.800589 C 17.929767,58.540889 17.862067,57.936289 18.847567,56.748789 C 20.055267,55.293589 27.378667,55.402089 40.036067,57.062689 L 43.884667,57.567589 L 43.176667,53.376789 L 42.468567,49.186089 L 49.828067,49.844189 C 53.875767,50.206089 59.868667,50.549889 63.145467,50.608189 C 69.455967,50.720489 70.969267,51.538889 72.169167,55.488189 C 72.579167,56.837589 74.179167,60.416589 75.724867,63.441589 C 77.270567,66.466589 78.823167,69.948589 79.174967,71.179289 C 79.756367,73.213189 79.546667,73.363389 76.872467,72.828589 C 72.770567,72.008189 72.369567,73.404489 75.083867,79.055889 C 84.292267,98.228992 84.462067,97.441592 71.120267,97.441592 C 60.999267,97.441592 60.579767,97.526292 61.189267,99.446492 C 61.584167,100.69079 61.316867,101.64659 60.484667,101.96599 C 58.557967,102.70529 35.563967,103.05609 35.131067,102.35269 z M 57.687667,98.441592 C 57.687667,97.341592 57.251767,96.441592 56.719067,96.441592 C 56.186267,96.441592 56.019367,95.740692 56.348067,94.884092 C 56.721167,93.911892 57.554867,93.577192 58.566667,93.993492 C 59.458267,94.360292 61.087667,94.778692 62.187667,94.923292 C 63.287667,95.067992 64.300167,95.293792 64.437667,95.425092 C 64.742767,95.716492 68.400067,95.741992 69.437667,95.459992 C 69.850167,95.347892 72.100167,95.331792 74.437667,95.424392 C 79.661867,95.631192 79.788467,94.762592 75.786067,86.170592 C 71.697767,77.393989 69.687667,72.736589 69.687667,72.040489 C 69.687667,71.711089 70.786067,71.441589 72.128667,71.441589 C 73.471167,71.441589 74.848467,70.990389 75.189367,70.438889 C 75.668667,69.663289 69.709267,55.613589 68.009567,53.512189 C 67.818567,53.276089 64.517967,53.116989 60.674967,53.158589 C 56.831967,53.200189 53.687567,52.892389 53.687567,52.474489 C 53.687567,52.056589 52.675067,51.820789 51.437567,51.950489 C 50.200067,52.080189 48.572567,52.243789 47.820967,52.313989 C 46.916467,52.398489 46.617567,53.294889 46.936867,54.965489 C 47.202267,56.353589 46.917967,57.799189 46.305067,58.177989 C 45.692167,58.556789 39.907167,58.730189 33.449367,58.563489 L 21.707867,58.260389 L 23.021267,61.100989 C 23.743667,62.663289 25.564267,66.598989 27.067167,69.846889 C 30.722467,77.746289 31.247467,80.731992 29.269867,82.373292 C 27.824467,83.572892 27.854967,83.977192 29.604767,86.817292 C 30.663467,88.535692 32.713967,92.304092 34.161267,95.191592 L 36.792767,100.44159 L 47.240167,100.44159 C 57.020967,100.44159 57.687667,100.31399 57.687667,98.441592 z M 169.13387,115.52859 C 169.44427,115.02649 171.45567,114.31869 173.60387,113.95579 C 175.75197,113.59279 178.29437,112.42869 179.25357,111.36869 C 180.21287,110.30879 181.71537,109.43159 182.59267,109.41939 C 183.46987,109.40709 185.31267,108.51709 186.68767,107.44159 C 188.06267,106.36609 189.75017,105.47609 190.43767,105.46379 C 191.12517,105.45159 191.68767,104.99159 191.68767,104.44159 C 191.68767,103.89159 192.28507,103.44159 193.01517,103.44159 C 194.75027,103.44159 204.94517,92.800992 206.90787,88.941592 C 208.95997,84.906292 211.02147,72.572489 209.89017,71.098789 C 209.40157,70.462289 208.90587,67.691589 208.78867,64.941589 C 208.67157,62.191589 208.15087,59.514089 207.63167,58.991589 C 207.11247,58.469089 206.68767,57.473589 206.68767,56.779389 C 206.68767,54.379689 199.17817,44.490789 196.50997,43.376789 C 195.03727,42.761889 193.07807,41.425489 192.15627,40.406889 C 191.23447,39.388289 189.06447,38.251489 187.33397,37.880689 C 185.60347,37.509789 183.75057,36.946189 183.21637,36.628189 C 182.68217,36.310189 179.75717,36.095689 176.71637,36.151389 C 170.81737,36.259589 169.75347,35.608189 166.50467,29.899089 C 165.57897,28.272489 164.00397,26.491589 163.00467,25.941589 C 162.00527,25.391589 160.96267,24.715889 160.68767,24.439989 C 160.41267,24.164089 158.83767,23.324089 157.18767,22.573289 C 155.53767,21.822489 153.40627,20.810789 152.45127,20.324889 C 150.07027,19.113689 137.95107,19.206389 137.18767,20.441589 C 135.55487,23.083589 126.68767,20.170289 126.68767,16.991889 C 126.68767,15.619389 123.79047,14.005389 122.90907,14.886889 C 122.63827,15.157589 123.15267,16.502389 124.05217,17.875189 C 125.77097,20.498289 126.30427,26.441589 124.82097,26.441589 C 123.36027,26.441589 119.71017,36.420289 118.50787,43.700089 C 117.53237,49.607389 117.61667,51.374989 119.09807,56.074689 C 120.04867,59.090289 121.47017,61.804689 122.25707,62.106589 C 123.04387,62.408489 123.68767,63.212689 123.68767,63.893589 C 123.68767,64.574489 124.58767,65.946089 125.68767,66.941589 C 128.07137,69.098889 128.18817,70.958289 126.18147,74.805889 C 123.28997,80.350192 124.73677,90.266492 129.84887,99.941592 C 132.52287,105.00239 139.59327,112.44159 141.72917,112.44159 C 142.62307,112.44159 143.68567,112.77909 144.09057,113.19159 C 146.56787,115.71529 167.79427,117.69609 169.13387,115.52859 z M 158.97397,100.19159 C 159.25187,98.404092 159.82087,95.862692 160.23857,94.544092 C 160.98727,92.180592 160.92837,92.156192 156.09287,92.829192 C 153.39497,93.204692 150.06267,93.771992 148.68767,94.089792 C 147.31267,94.407692 144.79347,94.773092 143.08937,94.901892 C 141.38537,95.030592 139.51347,95.431192 138.92967,95.791992 C 137.30487,96.796192 134.68767,95.428792 134.68767,93.575692 C 134.68767,92.667192 137.16267,88.226992 140.18767,83.708792 C 143.21267,79.190489 145.68767,75.031989 145.68767,74.467689 C 145.68767,73.497389 142.30517,72.995289 138.43087,73.390489 C 134.62017,73.779089 135.86227,68.622589 141.47977,60.733589 C 142.69407,59.028189 143.68767,57.123989 143.68767,56.501989 C 143.68767,55.183289 146.67507,50.292289 148.16457,49.172389 C 149.47017,48.190789 171.18867,48.515089 172.84847,49.540989 C 173.83407,50.150089 173.80537,50.853189 172.71167,52.896789 C 170.84717,56.380589 172.56347,58.369189 175.91747,56.611289 C 177.16607,55.956789 179.53767,55.344289 181.18767,55.250089 C 182.83767,55.155889 184.66527,54.725789 185.24907,54.294289 C 185.83287,53.862789 188.87037,53.236889 191.99907,52.903489 C 196.57997,52.415289 197.68767,52.579589 197.68767,53.746989 C 197.68767,54.544289 197.04157,55.732889 196.25197,56.388289 C 195.46227,57.043589 194.52767,58.893489 194.17497,60.499189 C 193.82237,62.104889 193.11157,63.679589 192.59557,63.998489 C 192.07957,64.317389 190.97177,66.219289 190.13377,68.224889 C 189.29577,70.230589 188.11767,72.175889 187.51577,72.547889 C 186.91387,72.919789 187.82037,73.531489 189.53017,73.906989 C 191.23997,74.282489 193.04887,74.336389 193.54997,74.026689 C 195.44177,72.857489 196.65717,75.948689 195.30657,78.494289 C 193.95627,81.039092 184.42937,96.950892 182.87157,99.263192 C 182.05367,100.47709 178.28317,100.98909 165.89547,101.56829 C 163.53477,101.67869 161.37077,102.14539 161.08647,102.60529 C 159.80277,104.68239 158.50627,103.20109 158.97397,100.19159 z M 172.06607,98.244892 C 171.79307,97.803092 173.60347,97.441592 176.08927,97.441592 C 181.33147,97.441592 181.31787,97.453892 187.63617,86.941592 C 190.62597,81.967292 192.11557,78.528589 191.57477,77.849589 C 191.09637,77.248989 190.95607,76.506489 191.26297,76.199589 C 191.56987,75.892689 191.00347,75.709089 190.00437,75.791589 C 189.00517,75.874089 187.85017,76.391589 187.43767,76.941589 C 186.49587,78.197389 184.67467,75.570089 185.01867,73.451889 C 185.43677,70.878289 188.13267,65.441589 188.99077,65.441589 C 189.43897,65.441589 189.52757,64.991589 189.18767,64.441589 C 188.84777,63.891589 188.99737,63.441589 189.52007,63.441589 C 190.30337,63.441589 193.68767,56.532389 193.68767,54.933189 C 193.68767,54.163789 189.23627,54.875589 188.59407,55.747589 C 188.26757,56.190889 186.24257,56.770189 184.09407,57.034989 C 181.94557,57.299789 177.71997,58.159289 174.70377,58.945089 C 168.38747,60.590789 166.74447,59.807189 168.48797,55.980589 C 170.53277,51.492789 169.37847,50.771489 160.39647,50.924389 C 149.69267,51.106589 148.32697,51.661489 146.14807,56.713989 C 145.14527,59.039189 143.28147,62.374089 142.00627,64.124889 C 137.86267,69.813689 138.68257,70.846489 147.03147,70.455289 C 150.62827,70.286689 150.82867,70.425089 150.14927,72.608389 C 149.74997,73.891589 149.03277,75.091589 148.55547,75.274889 C 148.07817,75.458289 147.68767,76.245789 147.68767,77.024889 C 147.68767,77.804089 147.31367,78.441589 146.85667,78.441589 C 146.39957,78.441589 145.40987,79.679089 144.65737,81.191592 C 143.90487,82.704092 142.21407,85.426092 140.90017,87.240492 C 137.03817,92.573592 138.84627,94.084992 146.68767,92.078192 C 151.78987,90.772492 165.68767,88.998592 165.68767,89.653092 C 165.68767,89.880192 164.78767,91.928692 163.68767,94.205492 C 162.58767,96.482192 161.68767,98.573392 161.68767,98.852592 C 161.68767,99.131692 164.13447,99.289892 167.12507,99.204192 C 170.11567,99.118392 172.33917,98.686692 172.06607,98.244892 z M 203.40587,113.50359 C 205.30767,111.06509 204.93827,105.97839 202.71317,103.96469 C 201.01517,102.42799 200.32197,102.35039 197.76197,103.41079 C 196.12467,104.08899 194.09447,105.69799 193.25037,106.98629 C 191.79677,109.20469 191.89377,109.51769 195.08297,112.89929 C 198.60567,116.63439 200.83767,116.79649 203.40587,113.50359 z M 21.461467,112.63539 L 23.735367,110.07489 L 20.008567,106.25819 C 15.499767,101.64079 12.578067,101.38229 9.7521672,105.35079 C 4.7441672,112.38399 15.656067,119.17259 21.461467,112.63539 z M 106.68767,6.5482891 C 106.68767,1.3084891 97.134367,1.3532891 95.296367,6.6015891 C 94.308967,9.4213891 95.177167,10.901389 99.187667,13.234789 C 100.89947,14.230689 101.58397,13.966889 103.93767,11.404189 C 105.45017,9.7573891 106.68767,7.5721891 106.68767,6.5482891 z M 120.29567,10.691589 C 121.02627,9.7290891 121.63837,7.7565891 121.65587,6.3081891 C 121.69057,3.4363891 118.95287,2.2858891 114.23187,3.1883891 C 111.90887,3.6324891 107.62097,8.4415891 109.54797,8.4415891 C 110.04647,8.4415891 110.68977,9.3415891 110.97737,10.441589 C 111.67157,13.096189 118.33457,13.274889 120.29567,10.691589 z"
     id="path2384"
     sodipodi:nodetypes="cssssssssssssssssssssssssssssssssssssssssssssssssssssssssssssssssssssssssssssssscccssssssssssscccssssssscccsssssssssssssssssssssssssssssssssssssssssssssssccssssssssssssssssssssssssccssssssssssssssssssssssssccssssssssssssssccsssssssssssssccssssssccsssssssssssssssssssssssssssssssccssssssscccccsssssssssccsssssssssssssssssscccssscccccssssssssssssssssssssssssssssssssssssccssssssssssssssssssssssssssssssccssssssssssssssssssssssssssssssccssssccccsccsssccssssc" />
</svg>

