<?xml version="1.0" encoding="UTF-8" standalone="no"?>
<!-- Created with Inkscape (http://www.inkscape.org/) -->
<svg
   xmlns:dc="http://purl.org/dc/elements/1.1/"
   xmlns:cc="http://creativecommons.org/ns#"
   xmlns:rdf="http://www.w3.org/1999/02/22-rdf-syntax-ns#"
   xmlns:svg="http://www.w3.org/2000/svg"
   xmlns="http://www.w3.org/2000/svg"
   xmlns:sodipodi="http://sodipodi.sourceforge.net/DTD/sodipodi-0.dtd"
   xmlns:inkscape="http://www.inkscape.org/namespaces/inkscape"
   width="394.19467"
   height="343.60522"
   id="svg2"
   sodipodi:version="0.32"
   inkscape:version="0.46"
   version="1.0"
   sodipodi:docname="hollyhock.svg"
   inkscape:output_extension="org.inkscape.output.svg.inkscape">
  <defs
     id="defs4">
    <inkscape:perspective
       sodipodi:type="inkscape:persp3d"
       inkscape:vp_x="0 : 526.18109 : 1"
       inkscape:vp_y="0 : 1000 : 0"
       inkscape:vp_z="744.09448 : 526.18109 : 1"
       inkscape:persp3d-origin="372.04724 : 350.78739 : 1"
       id="perspective10" />
    <inkscape:perspective
       id="perspective2447"
       inkscape:persp3d-origin="372.04724 : 350.78739 : 1"
       inkscape:vp_z="744.09448 : 526.18109 : 1"
       inkscape:vp_y="0 : 1000 : 0"
       inkscape:vp_x="0 : 526.18109 : 1"
       sodipodi:type="inkscape:persp3d" />
  </defs>
  <sodipodi:namedview
     id="base"
     pagecolor="#ffffff"
     bordercolor="#666666"
     borderopacity="1.0"
     gridtolerance="10000"
     guidetolerance="10"
     objecttolerance="10"
     inkscape:pageopacity="0.0"
     inkscape:pageshadow="2"
     inkscape:zoom="0.98994949"
     inkscape:cx="218.9021"
     inkscape:cy="170.38518"
     inkscape:document-units="px"
     inkscape:current-layer="layer1"
     showgrid="false"
     inkscape:window-width="1115"
     inkscape:window-height="713"
     inkscape:window-x="68"
     inkscape:window-y="0" />
  <metadata
     id="metadata7">
    <rdf:RDF>
      <cc:Work
         rdf:about="">
        <dc:format>image/svg+xml</dc:format>
        <dc:type
           rdf:resource="http://purl.org/dc/dcmitype/StillImage" />
      </cc:Work>
    </rdf:RDF>
  </metadata>
  <g
     inkscape:label="Layer 1"
     inkscape:groupmode="layer"
     id="layer1"
     transform="translate(-79.252782,-86.058597)">
    <path
       style="fill:#000000"
       d="M 438.21426,427.78729 C 421.9726,423.41465 399.98536,413.15309 386.71426,403.75199 C 382.86426,401.02469 378.13926,397.70736 376.21426,396.38016 C 369.14332,391.50503 349.47082,370.56001 345.78122,363.97853 C 345.26805,363.06313 344.12832,361.54149 343.24849,360.59711 C 340.09505,357.21229 326.7934,333.1844 323.14957,324.29074 C 315.37404,305.31266 308.50655,294.76307 295.80875,282.29074 C 284.18937,270.87769 274.64974,264.75374 258.26119,258.18712 C 245.04875,252.89311 235.75439,250.84378 221.60418,250.10454 C 209.91067,249.49364 201.32727,250.74472 199.14134,253.37861 C 197.26781,255.63608 196.43631,255.03252 196.60937,251.54074 L 196.77045,248.29074 L 209.24235,246.67413 C 223.67521,244.80333 233.74,245.46714 248.77689,249.28155 C 258.46767,251.73982 276.90323,259.95208 286.22827,265.96454 C 293.22727,270.47725 305.57964,282.68057 312.60836,292.02628 C 317.98165,299.17088 326.26795,314.19438 329.43877,322.54074 C 330.5797,325.54394 331.62778,326.79074 333.01137,326.79074 C 336.18074,326.79074 337.44415,324.50953 336.12856,321.16238 C 326.29078,296.13302 324.94555,258.86119 332.83073,229.79074 C 335.68525,219.26694 337.27616,215.79074 339.23795,215.79074 C 342.25484,215.79074 342.4263,217.36992 340.18578,224.52042 C 336.70327,235.63472 333.21426,258.03403 333.21426,269.27739 C 333.21426,288.74701 338.33315,313.01161 346.52496,332.37289 C 352.4563,346.3916 368.13507,368.06303 380.5725,379.43395 C 401.85246,398.88914 429.48338,412.80429 453.8576,416.34089 C 456.52876,416.72846 459.05927,417.24443 459.48095,417.48749 C 460.63834,418.15461 447.94144,429.80671 446.21426,429.66249 C 445.38926,429.59361 441.78926,428.74976 438.21426,427.78729 z M 124.21426,385.06395 C 124.21426,384.54652 126.78161,382.36088 129.91948,380.20696 C 136.9665,375.36969 147.09086,365.44978 154.15498,356.46085 C 157.09062,352.72533 159.83187,350.03388 160.24666,350.47986 C 160.66145,350.92585 161.16135,357.80293 161.35754,365.76227 L 161.71426,380.2338 L 151.71426,381.40221 C 138.74934,382.91703 127.92983,384.57892 125.85892,385.37361 C 124.95435,385.72072 124.21426,385.58137 124.21426,385.06395 z M 116.21426,383.14342 C 116.21426,382.23738 117.07323,378.97488 118.12308,375.89342 C 119.17293,372.81194 121.03418,366.69074 122.2592,362.29074 C 125.09276,352.11313 138.78273,323.70408 148.52208,307.79074 C 156.22896,295.19829 175.79009,273.70158 181.84328,271.17239 C 186.57687,269.19456 187.21426,269.40786 187.21426,272.96974 C 187.21426,274.7182 187.7364,277.5927 188.37456,279.35751 C 189.39761,282.1867 189.09774,283.8317 185.83963,293.26358 C 181.13166,306.89262 172.0648,324.63757 163.59921,336.79074 C 156.76155,346.60688 145.11048,361.03805 139.78225,366.29074 C 135.58303,370.43044 117.88443,384.77397 116.96426,384.78321 C 116.55176,384.78735 116.21426,384.04944 116.21426,383.14342 z M 171.21426,379.44933 C 171.21426,379.10833 173.36715,375.55815 175.99845,371.56003 C 178.62975,367.56192 181.62784,361.70324 182.66087,358.54074 C 183.6939,355.37824 184.83096,352.79074 185.18767,352.79074 C 185.77067,352.79074 191.1039,369.15017 192.76724,376.04074 L 193.43108,378.79074 L 187.57267,378.79943 C 184.35054,378.80421 179.35176,379.09189 176.46426,379.43873 C 173.57676,379.78555 171.21426,379.79032 171.21426,379.44933 z M 200.62726,378.64998 C 200.32279,378.15733 201.00396,376.24905 202.14096,374.40934 C 203.27796,372.56964 205.71768,366.39034 207.56255,360.67758 L 210.91686,350.29074 L 212.9697,354.29074 C 214.09876,356.49074 217.76106,361.54407 221.10815,365.52036 L 227.19376,372.74999 L 224.04797,374.37673 C 220.05191,376.44319 201.37003,379.85179 200.62726,378.64998 z M 166.00616,375.54074 C 165.77402,374.85324 165.45707,370.69074 165.30184,366.29074 C 165.1466,361.89075 164.83202,357.9859 164.60277,357.61332 C 164.37351,357.24074 164.5846,353.37262 165.07185,349.01749 C 165.87248,341.8613 166.43725,340.38634 170.93888,333.6949 C 173.67849,329.62262 177.2237,323.66283 178.81713,320.45093 L 181.71426,314.61111 L 182.79602,327.41038 C 183.39099,334.44999 183.52655,342.08973 183.09726,344.3876 C 181.93291,350.62009 175.65392,365.55504 171.68463,371.53323 C 168.15742,376.84559 166.77596,377.82053 166.00616,375.54074 z M 195.48745,371.54074 C 193.21208,364.98835 188.73584,345.55187 187.59963,337.29074 C 186.58969,329.94762 186.50489,312.12116 187.44979,305.79074 C 188.40954,299.36083 192.1663,286.79074 193.12822,286.79074 C 193.49296,286.79074 195.55667,287.69075 197.71426,288.79074 C 199.87185,289.89075 202.20442,290.79074 202.89777,290.79074 C 204.5491,290.79074 206.78774,298.99785 208.3001,310.5963 C 209.89602,322.8356 208.91772,338.51152 205.72924,351.79074 C 203.22619,362.21532 198.61888,374.79074 197.30263,374.79074 C 196.925,374.79074 196.10817,373.32824 195.48745,371.54074 z M 112.88863,373.04074 C 112.64461,372.62824 112.12809,370.37583 111.74081,368.0354 C 111.35352,365.69495 109.55467,359.57893 107.74335,354.44424 L 104.45004,345.10842 L 109.58215,343.80591 C 112.40481,343.08953 117.37831,341.2196 120.63436,339.65052 C 123.89042,338.08142 126.77518,337.01833 127.04492,337.28808 C 127.31467,337.55783 125.91787,341.26877 123.94092,345.53464 C 121.96397,349.80049 118.93178,357.90324 117.20271,363.54074 C 114.07801,373.7286 113.73819,374.47691 112.88863,373.04074 z M 227.07799,366.04074 C 221.68377,360.13181 217.83392,354.40716 215.59727,348.96915 C 213.58953,344.08773 213.2584,341.55971 213.238,330.95741 C 213.22494,324.17408 213.55176,318.77408 213.96426,318.95741 C 214.37676,319.14075 218.1609,322.93186 222.37345,327.3821 C 227.57894,332.88129 230.38031,336.72563 231.11787,339.38209 C 232.99475,346.14201 232.34667,368.79074 230.27635,368.79074 C 229.898,368.79074 228.45874,367.55324 227.07799,366.04074 z M 235.56467,366.53074 C 235.91572,365.13203 236.24244,358.98961 236.2907,352.8809 C 236.35542,344.69033 236.6851,341.96115 237.54636,342.48627 C 238.1887,342.87792 241.04499,345.09151 243.89366,347.40536 C 246.74233,349.7192 249.89233,352.07769 250.89366,352.64644 C 252.52997,353.57587 252.13093,354.27241 246.95141,359.52763 C 243.78184,362.74352 239.77957,366.20702 238.05747,367.22429 L 234.92638,369.07386 L 235.56467,366.53074 z M 248.21426,345.71679 C 246.83926,344.61271 244.37785,342.71518 242.74446,341.50006 C 238.5555,338.38378 224.23178,323.33384 217.93644,315.43425 C 213.36878,309.70262 212.41061,307.71403 210.99953,301.03739 C 210.09906,296.77673 209.07644,292.55688 208.72703,291.65993 C 208.26323,290.4693 208.91226,289.74308 211.13151,288.96943 C 213.65939,288.08822 217.34801,283.82829 218.47937,280.48351 C 219.07184,278.73193 221.94498,281.18399 226.80072,287.58528 C 237.15713,301.23808 245.53836,318.84326 250.09415,336.51424 C 253.17799,348.47588 252.96273,349.52965 248.21426,345.71679 z M 256.89898,346.08963 C 256.53604,345.50237 255.5397,341.93239 254.6849,338.15633 C 252.68752,329.33293 249.44856,319.3064 247.05615,314.54074 C 245.20042,310.84416 245.20146,310.79074 247.12884,310.79074 C 248.20421,310.79074 250.35086,311.28169 251.89916,311.88174 C 253.44747,312.4818 257.41426,313.12947 260.71426,313.32102 C 264.01426,313.51255 267.05176,313.6966 267.46426,313.73 C 269.66784,313.90846 267.2388,327.20413 263.3403,336.30297 C 260.01471,344.0647 257.76243,347.48671 256.89898,346.08963 z M 105.23622,339.54074 C 105.31137,335.26338 115.82532,318.68069 123.86859,310.1536 C 128.10417,305.66324 129.78444,304.67989 137.21426,302.34319 C 141.88926,300.87289 146.27676,299.4346 146.96426,299.147 C 149.37839,298.13709 148.17486,301.48233 144.21426,306.79074 C 142.01426,309.73941 140.21426,312.48351 140.21426,312.88872 C 140.21426,314.30405 130.96918,329.24964 129.3487,330.45397 C 125.1962,333.54006 108.88049,340.79074 106.08853,340.79074 C 105.60768,340.79074 105.22414,340.22824 105.23622,339.54074 z M 94.477071,326.54074 C 86.080291,312.31775 85.860521,311.84482 87.421131,311.35621 C 88.132351,311.13354 92.312881,310.66137 96.711191,310.30697 C 101.1095,309.95257 108.05316,309.02257 112.14153,308.24034 C 119.78388,306.77813 121.93575,307.05879 119.08191,309.14558 C 116.14048,311.29639 106.50904,325.54089 104.1535,331.22405 C 102.8845,334.28573 101.5497,336.79074 101.18728,336.79074 C 100.82486,336.79074 97.805271,332.17825 94.477071,326.54074 z M 255.6952,309.25739 C 245.71445,307.18994 242.58906,305.45226 240.15348,300.61639 C 238.95525,298.23729 236.45448,294.15324 234.59623,291.54074 C 231.83583,287.65993 231.5375,286.79657 232.96592,286.82255 C 233.92751,286.84004 235.57204,287.50354 236.62044,288.297 C 237.66884,289.09044 241.04384,290.46153 244.12044,291.34385 C 247.19704,292.22619 251.54974,294.01151 253.79311,295.31127 C 258.29673,297.92055 267.66548,308.25163 266.7992,309.65331 C 266.05563,310.85642 262.86554,310.74268 255.6952,309.25739 z M 90.341811,306.0941 C 94.670691,300.74265 108.09922,290.11551 117.38972,284.68881 C 127.40391,278.83939 148.98884,268.22329 155.11724,266.13332 C 159.32651,264.69784 160.61727,264.57282 160.95949,265.56748 C 161.47111,267.05452 168.42024,270.79074 170.67442,270.79074 C 173.50422,270.79074 172.25907,273.43855 167.5971,277.33466 C 165.05767,279.45692 161.22073,283.57469 159.07057,286.48524 C 154.64792,292.47197 151.32462,294.41527 139.21426,298.0963 C 125.40561,302.29355 118.62823,303.82172 104.7985,305.85648 C 88.375981,308.27269 88.582261,308.26929 90.341811,306.0941 z M 81.793411,296.04074 C 80.861411,291.22824 79.869501,286.50324 79.589171,285.54074 C 78.905651,283.19389 81.259281,283.27502 85.891941,285.75799 C 87.910681,286.83996 91.959051,288.26158 94.888321,288.91711 C 97.817581,289.57266 100.20616,290.3749 100.19626,290.69987 C 100.1673,291.65029 85.463461,304.79074 84.428931,304.79074 C 83.911391,304.79074 82.725411,300.85324 81.793411,296.04074 z M 264.78789,299.87755 C 263.48,298.42866 263.1886,297.4164 263.88027,296.72473 C 265.19949,295.40551 267.50844,298.05121 267.04684,300.35314 C 266.75868,301.79008 266.45697,301.72657 264.78789,299.87755 z M 261.71426,293.0662 C 246.1715,290.11956 229.2956,281.69789 217.21426,270.85915 C 213.29022,267.3387 212.10049,266.81998 207.91881,266.80636 C 204.14788,266.79409 202.59895,267.31514 200.66881,269.24529 C 198.00518,271.90891 197.41854,274.79074 199.53995,274.79074 C 200.26907,274.79074 201.92251,273.66574 203.21426,272.29074 C 207.25514,267.98943 212.55971,269.48814 213.63797,275.23578 C 214.70419,280.9192 211.75505,285.02991 205.11979,287.109 C 203.00193,287.77261 196.39534,283.95582 193.94832,280.65499 C 191.27527,277.04925 190.67185,270.19339 192.6233,265.60041 C 194.85641,260.34451 202.66295,254.84459 209.81499,253.48841 C 218.34552,251.87084 236.25678,257.6346 245.56999,264.9942 C 252.57304,270.52824 259.24193,279.03295 263.33294,287.64697 C 265.50119,292.21243 265.05689,293.69991 261.71426,293.0662 z M 95.714261,285.30332 C 90.065801,283.77169 81.214251,280.13066 81.214251,279.33883 C 81.214251,278.70216 87.870241,274.45629 94.120841,271.10569 C 100.31334,267.78623 106.08809,265.82289 109.71085,265.80529 C 112.73498,265.79061 128.01259,270.40067 129.53733,271.78799 C 129.99002,272.19989 127.29002,274.25039 123.53733,276.34466 C 119.78464,278.43893 114.37337,281.64605 111.51229,283.47159 C 105.8532,287.08242 103.34698,287.37302 95.714261,285.30332 z M 79.253671,271.04074 C 79.303021,267.59786 82.752081,250.91959 83.587481,250.08419 C 84.328691,249.34299 87.100831,250.75306 93.400101,255.07544 C 95.977311,256.84385 99.577311,259.13248 101.4001,260.16128 L 104.71426,262.03183 L 101.71426,263.32719 C 100.06426,264.03966 97.236911,265.17116 95.431251,265.84164 C 93.625601,266.51214 89.633581,268.57498 86.560101,270.42573 C 83.486611,272.27649 80.576471,273.79074 80.093101,273.79074 C 79.609741,273.79074 79.231991,272.55324 79.253671,271.04074 z M 127.71426,267.36882 C 114.69108,263.06003 93.754061,252.25467 89.657711,247.72826 C 88.084951,245.99038 88.124571,245.85511 90.352011,245.3581 C 95.644681,244.17714 112.74182,242.79124 121.92484,242.79882 C 136.80508,242.81109 163.21426,246.59148 163.21426,248.70926 C 163.21426,249.07149 162.31426,251.13316 161.21426,253.29074 C 160.11426,255.44834 159.21426,257.95734 159.21426,258.86632 C 159.21426,259.93058 157.523,261.12971 154.46426,262.23419 C 151.85176,263.17753 147.23926,264.99213 144.21426,266.26665 C 135.80696,269.80884 135.20977,269.84875 127.71426,267.36882 z M 170.88985,267.3391 C 166.56613,265.7972 166.86854,266.02824 165.34971,263.10648 C 163.5294,259.60477 164.02665,255.88744 166.66881,253.24529 C 169.74095,250.17316 173.59852,250.07356 175.65756,253.01325 C 177.76591,256.02334 177.6304,257.14274 174.74214,260.57523 C 173.38248,262.19111 172.55748,263.80063 172.90881,264.15197 C 175.46703,266.71018 181.21426,261.39512 181.21426,256.47105 C 181.21426,251.10963 178.3127,248.4435 169.05349,245.29702 C 159.99615,242.21913 153.00994,238.45102 146.44404,233.10231 C 141.73876,229.2693 128.21426,213.63974 128.21426,212.0351 C 128.21426,211.47886 131.04479,210.72061 134.50433,210.35013 C 150.50596,208.6365 173.67571,218.87388 183.68586,232.08062 C 190.15955,240.62161 192.37529,245.43499 192.42589,251.06717 C 192.49918,259.22307 189.28654,264.19129 181.95978,267.2526 C 177.52643,269.10497 175.8777,269.11787 170.88985,267.3391 z M 278.46582,254.50992 C 275.41393,251.18863 268.34951,237.60918 266.58835,231.67871 C 265.54472,228.16443 263.89724,225.46014 261.53175,223.37843 C 257.43416,219.77246 254.21426,213.98394 254.21426,210.2236 C 254.21426,208.11157 254.56785,207.71356 255.96426,208.25379 C 261.3577,210.34033 263.31096,210.08935 266.61704,206.88498 C 271.62087,202.03507 272.70499,204.12315 272.75031,218.69806 C 272.77034,225.13933 273.36202,232.25023 274.08183,234.70034 C 275.41373,239.23394 277.93312,243.79074 279.10778,243.79074 C 279.47271,243.79074 280.56751,240.75325 281.54068,237.04074 C 285.3984,222.32415 294.30381,218.73988 303.15437,228.3416 C 307.9174,233.50888 307.76733,235.05835 302.64094,233.64289 C 298.83304,232.59148 294.32117,233.21103 290.10454,235.36432 C 286.66866,237.11892 282.21426,246.27416 282.21426,251.58139 C 282.21426,256.58739 281.14347,257.42396 278.46582,254.50992 z M 87.214251,241.68679 C 87.214251,240.29407 95.223611,228.96781 97.925441,226.53979 C 99.809521,224.84664 99.981371,224.93857 103.13069,229.3239 C 104.92195,231.8182 107.69854,234.82825 109.30089,236.01291 C 113.17529,238.87739 112.97376,239.78922 108.46426,239.79829 C 104.92185,239.80543 94.390781,241.20257 89.464251,242.31898 C 88.146701,242.61755 87.214251,242.35556 87.214251,241.68679 z M 145.21426,240.86061 C 143.83926,240.44359 137.57303,239.77812 131.28931,239.38178 C 125.00558,238.98543 118.69142,238.05461 117.25783,237.31327 C 113.6669,235.45633 105.21426,226.25035 105.21426,224.19631 C 105.21426,222.69014 106.43793,222.5666 117.03418,223.003 C 123.53513,223.27076 129.55568,223.89502 130.41317,224.39027 C 131.27067,224.88553 135.22933,228.21574 139.21022,231.79074 C 143.1911,235.36574 147.52055,238.86761 148.83122,239.57268 C 150.14189,240.27775 151.21426,241.06524 151.21426,241.32268 C 151.21426,241.98747 148.15219,241.75167 145.21426,240.86061 z M 380.21426,233.2687 C 374.98926,230.26462 370.27635,227.65719 369.74113,227.47437 C 369.20591,227.29157 370.14482,225.37546 371.8276,223.21637 C 373.51037,221.05727 375.9507,216.59074 377.25056,213.29074 C 380.45526,205.15487 380.89292,204.85622 382.19981,209.91355 C 382.82194,212.321 385.1047,219.53076 387.27261,225.93524 C 389.44052,232.33971 391.21426,237.85222 391.21426,238.18524 C 391.21426,239.38269 389.57068,238.64808 380.21426,233.2687 z M 394.5419,235.1767 C 391.78908,227.44582 390.92025,224.76843 389.0623,218.29074 C 382.82993,196.56179 379.1532,172.36464 379.00456,152.0992 C 378.91405,139.75814 379.35003,137.2602 382.46187,132.29074 C 383.15069,131.19074 383.79731,130.13269 383.89882,129.93952 C 384.00032,129.74635 385.86418,130.37399 388.04072,131.33428 C 391.93524,133.05254 392.02288,133.20892 393.56125,141.1855 C 397.53139,161.7709 398.46365,175.1792 397.97761,204.70455 C 397.71879,220.42697 397.0711,234.36442 396.53828,235.6767 L 395.56953,238.06265 L 394.5419,235.1767 z M 401.22415,235.27288 C 401.24804,230.48385 403.30391,204.15905 403.75091,202.91844 C 404.09503,201.96334 405.71751,202.92317 409.08777,206.07566 C 411.7511,208.56689 415.7941,211.55607 418.07222,212.71829 C 420.35034,213.88049 422.21426,215.16779 422.21426,215.57894 C 422.21426,215.99008 417.48926,221.03539 411.71426,226.79074 C 404.12723,234.35195 401.217,236.70511 401.22415,235.27288 z M 356.19597,220.24829 C 353.18103,218.37149 349.97661,216.82575 349.07504,216.81334 C 348.17348,216.8009 346.44646,215.98961 345.23723,215.01043 L 343.03864,213.23011 L 348.42034,207.76043 C 351.38028,204.7521 355.0732,200.60324 356.62684,198.54074 C 358.18048,196.47824 359.78529,194.79074 360.19308,194.79074 C 360.78769,194.79074 362.39004,222.81386 361.83327,223.47569 C 361.7477,223.57742 359.21091,222.12509 356.19597,220.24829 z M 365.78871,217.54033 C 364.19546,204.78836 366.26963,184.59702 369.54458,180.97824 C 370.44916,179.97869 371.69604,177.70715 372.31543,175.93037 C 372.93482,174.15359 373.95294,172.86954 374.57793,173.07694 C 376.05852,173.56827 377.59367,184.17608 377.64797,194.29074 C 377.68482,201.15514 377.23135,203.35537 374.45338,209.79074 C 372.67274,213.91574 370.15325,218.61553 368.85452,220.23472 L 366.49318,223.17871 L 365.78871,217.54033 z M 107.21426,219.0401 C 107.21426,218.21977 120.49816,212.7019 121.81085,212.97697 C 122.63448,213.14955 124.22377,214.74124 125.34261,216.51406 L 127.37686,219.73736 L 117.29556,219.5457 C 111.75084,219.44029 107.21426,219.21277 107.21426,219.0401 z M 419.71426,209.23182 C 415.1468,206.87542 404.34685,195.75165 403.30095,192.32638 C 402.79114,190.65678 402.17386,183.69111 401.92922,176.84712 L 401.48441,164.4035 L 403.59934,166.98861 C 415.24169,181.2193 419.26361,188.71538 421.81061,200.93081 C 423.7779,210.36603 423.56291,211.21736 419.71426,209.23182 z M 330.97608,207.42582 C 328.92008,206.25154 327.0296,204.74881 326.77501,204.08646 C 326.51597,203.41254 328.27235,201.9032 330.76319,200.65921 C 333.21128,199.43657 335.21426,198.066 335.21426,197.61348 C 335.21426,197.16099 335.68573,196.79074 336.26198,196.79074 C 337.61962,196.79074 337.08472,209.05256 335.71426,209.34646 C 335.16426,209.4644 333.03208,208.60013 330.97608,207.42582 z M 425.84471,201.547 C 422.4489,188.36686 422.16452,189.02211 429.07322,194.108 C 432.44438,196.58971 435.71493,198.79096 436.34112,198.99969 C 438.08616,199.58138 436.47277,203.00703 433.26386,205.53355 C 428.17128,209.54319 427.8621,209.37707 425.84471,201.547 z M 340.23172,207.04074 C 340.26116,205.77615 343.00967,189.75117 344.64822,181.29074 C 347.6238,165.92668 357.90826,140.14626 360.96426,140.39075 C 361.65176,140.44575 364.91426,140.55824 368.21426,140.64075 L 374.21426,140.79074 L 374.21426,153.10388 L 374.21426,165.41702 L 370.05271,172.35388 C 359.42352,190.07158 340.10361,212.54391 340.23172,207.04074 z M 253.60282,203.88597 C 251.89153,202.84245 249.53804,200.64982 248.37285,199.01346 C 246.88918,196.92984 244.82488,195.67889 241.48429,194.83906 C 235.89906,193.43494 230.67432,190.43203 229.78521,188.11506 C 228.88849,185.77822 232.41803,182.42182 239.79328,178.59792 C 245.39945,175.69126 246.20526,174.88976 247.11896,171.31138 C 248.10218,167.46074 252.3131,161.79074 254.18963,161.79074 C 257.41032,161.79074 270.18836,169.28542 270.24753,171.20916 C 270.33532,174.06322 273.96061,176.48212 279.05448,177.08542 C 285.02697,177.79276 292.71426,181.5773 292.71426,183.81026 C 292.71426,186.09846 283.00499,190.76384 276.56869,191.56834 C 271.09843,192.25207 270.73772,192.46953 269.83128,195.6303 C 269.30454,197.46706 267.38317,200.50457 265.56158,202.3803 C 261.72698,206.3289 258.31379,206.75863 253.60282,203.88597 z M 261.87323,197.54074 C 265.79274,193.14798 268.50521,182.27 266.44895,179.19044 C 265.07304,177.12983 261.35434,175.79074 257.00785,175.79074 C 251.3721,175.79074 245.21426,180.45755 245.21426,184.7287 C 245.21426,188.69237 250.27584,194.8002 256.63099,198.50531 C 259.44007,200.14302 259.57315,200.11853 261.87323,197.54074 z M 253.71426,192.36279 C 250.42344,189.71038 250.74393,189.37503 257.46426,188.43886 C 261.51503,187.87458 262.22608,189.03162 260.17908,192.85648 C 258.81653,195.40243 257.34619,195.29015 253.71426,192.36279 z M 249.7368,184.82721 C 248.90076,183.47447 252.65102,179.97021 255.77346,179.18653 C 257.4907,178.75554 258.89482,179.04274 259.87821,180.02612 C 261.20445,181.35237 261.06702,181.7614 258.65872,183.65577 C 255.8578,185.85898 250.78603,186.52491 249.7368,184.82721 z M 323.21426,198.96888 C 323.21426,197.23004 326.64026,188.15019 328.37529,185.29074 C 329.37646,183.64075 330.92754,180.94074 331.82213,179.29074 C 333.37051,176.43487 341.97472,169.21787 342.82155,170.0647 C 343.0425,170.28565 342.79756,171.7769 342.27725,173.37859 C 341.75693,174.98027 340.8096,178.94277 340.17207,182.18414 C 339.27738,186.73296 338.18032,188.93321 335.36359,191.828 C 330.22818,197.10569 323.21426,201.22819 323.21426,198.96888 z M 313.27153,192.11846 C 311.00954,189.54871 309.5088,187.1327 309.93654,186.74954 C 311.57826,185.27896 323.21136,181.97703 323.73957,182.83171 C 324.04532,183.32641 323.42015,185.88208 322.3503,188.51097 C 321.28046,191.13985 320.15131,194.07825 319.84108,195.04074 C 318.9723,197.7362 317.73005,197.18361 313.27153,192.11846 z M 441.82125,194.20896 C 441.4874,193.33897 441.21426,191.51841 441.21426,190.16326 C 441.21426,188.80812 440.04544,184.08874 438.61687,179.67577 C 437.18831,175.2628 436.19636,171.47531 436.41254,171.25914 C 436.62871,171.04296 438.13504,171.56462 439.75992,172.4184 C 443.93276,174.61095 452.25682,177.60465 455.21426,177.97644 C 456.58926,178.14931 457.71426,178.81566 457.71426,179.45721 C 457.71426,180.42999 443.61105,195.79074 442.7179,195.79074 C 442.55859,195.79074 442.15509,195.07894 441.82125,194.20896 z M 429.21426,189.26021 C 421.5527,182.84536 418.98746,179.97707 411.39246,169.33293 C 401.52434,155.5031 399.53753,151.0483 397.70439,138.64181 L 397.01748,133.99287 L 400.36587,133.29365 C 402.20749,132.90907 404.67217,131.98899 405.84296,131.24901 C 408.40355,129.63063 409.61619,130.74738 416.18015,140.76875 C 424.92702,154.12285 435.04281,178.15151 437.55457,191.54074 C 438.41101,196.1061 436.8958,195.69179 429.21426,189.26021 z M 309.62454,181.64559 C 309.32068,181.15392 309.60781,179.07294 310.26261,177.02119 C 311.89058,171.92016 320.95595,153.75262 323.10178,151.29074 C 324.06056,150.19075 325.60694,148.06323 326.53816,146.56293 C 327.46938,145.06263 331.13735,140.50305 334.68919,136.43052 C 339.80065,130.56975 341.89862,128.88494 344.75169,128.3497 C 346.73422,127.97778 348.99933,127.42671 349.78527,127.12512 C 350.57122,126.82353 351.21426,127.15784 351.21426,127.86803 C 351.21426,128.57823 352.15452,131.10162 353.30373,133.47557 L 355.3932,137.79184 L 351.73823,146.54129 C 349.728,151.35349 347.37826,156.95859 346.51658,158.99708 C 344.88094,162.86653 337.91992,168.93249 328.42352,174.76368 C 322.1485,178.61681 310.40877,182.91448 309.62454,181.64559 z M 301.78324,173.71589 C 298.40112,166.31951 295.97238,155.78935 297.53894,155.31412 C 300.62714,154.3773 316.21426,153.9811 316.21426,154.83942 C 316.21426,155.36265 315.82451,155.79074 315.34815,155.79074 C 314.40014,155.79074 309.23739,166.92294 307.23222,173.29074 C 305.26408,179.54096 304.47501,179.60254 301.78324,173.71589 z M 450.11137,172.89312 C 446.47978,171.37695 442.20285,169.27116 440.60708,168.21359 C 439.01131,167.15602 436.80761,165.80879 435.70997,165.21974 C 432.22467,163.34933 424.24599,146.79074 426.83005,146.79074 C 427.16873,146.79074 429.53123,147.47338 432.08005,148.30771 C 434.62886,149.14203 438.56731,150.26837 440.83215,150.81068 C 445.81616,152.00407 449.77833,155.47318 454.51495,162.79074 C 460.10962,171.43389 461.28601,175.92031 457.90524,175.72028 C 457.2502,175.68152 453.74296,174.4093 450.11137,172.89312 z M 461.34684,166.86993 C 460.11335,164.14062 458.00391,160.28628 456.65919,158.30474 C 455.31448,156.32319 454.21426,154.511 454.21426,154.27764 C 454.21426,153.62868 470.62328,154.95992 471.36324,155.66892 C 472.13759,156.41086 465.76086,171.10855 464.47927,171.53574 C 463.98993,171.69886 462.58034,169.59924 461.34684,166.86993 z M 298.21426,150.70419 C 298.21426,148.65816 310.31766,137.0112 316.24725,133.35124 C 321.65969,130.01049 322.71446,129.72001 328.44318,129.99248 L 334.71426,130.29074 L 328.71426,136.84287 C 325.41426,140.44654 321.81258,144.65874 320.71053,146.20332 C 319.0769,148.49293 317.41456,149.26151 311.71053,150.36444 C 303.13978,152.02167 298.21426,152.14567 298.21426,150.70419 z M 456.21426,150.72267 C 448.1078,149.19335 437.86075,146.69002 429.48575,144.19295 C 423.51069,142.41145 420.93851,141.13039 420.09342,139.51516 C 419.45332,138.29173 417.30615,134.82277 415.32193,131.80635 C 412.14645,126.97896 411.71426,125.57187 411.71426,120.06069 C 411.71426,115.33389 412.0607,113.79836 413.12788,113.79508 C 414.92586,113.78957 433.08113,123.37715 440.82289,128.4205 C 450.00299,134.40085 468.21426,149.55726 468.21426,151.21709 C 468.21426,152.01363 461.61625,151.74178 456.21426,150.72267 z M 468.65135,145.6896 C 464.51051,141.31746 449.04942,128.39716 445.32712,126.19834 C 443.61505,125.187 442.21744,124.11905 442.22132,123.82514 C 442.2252,123.53122 445.47774,122.50677 449.44919,121.54857 C 453.42063,120.59037 458.9083,118.41499 461.64399,116.71439 C 466.27496,113.83562 466.70575,113.74241 467.89057,115.36275 C 469.72027,117.86501 472.19309,126.91652 473.01059,134.10403 C 473.81192,141.14942 473.46503,148.79074 472.34385,148.79074 C 471.92838,148.79074 470.26675,147.39523 468.65135,145.6896 z M 295.21426,144.18509 C 295.21426,141.23185 298.34341,130.31882 299.86868,127.95262 C 301.06017,126.10422 301.93494,125.74928 304.04506,126.25802 C 311.59778,128.07895 314.21409,128.93359 314.21247,129.57929 C 314.21149,129.97059 312.19704,131.56289 309.73592,133.11773 C 307.2748,134.67258 303.26937,138.16008 300.83495,140.86773 C 296.06804,146.16968 295.21426,146.67359 295.21426,144.18509 z M 362.53845,136.72216 C 357.90897,134.43059 355.51065,129.97396 357.2041,126.80972 C 358.73019,123.95821 361.05019,123.66639 365.23227,125.79993 C 369.90972,128.18619 371.21426,128.29002 371.21426,126.27605 C 371.21426,124.25222 365.39681,120.79915 361.97937,120.79448 C 360.47518,120.79243 355.30018,121.95488 350.47937,123.37771 C 343.69903,125.37888 339.33664,125.99056 331.21426,126.07899 C 320.40064,126.19673 306.68056,124.35426 305.6225,122.64227 C 303.78241,119.66495 316.12901,107.86862 325.94624,103.22433 C 344.77112,94.318734 368.8538,100.3927 376.63567,116.00887 C 381.45837,125.68678 379.46668,134.11602 371.57848,137.41192 C 367.38054,139.16593 367.4927,139.17449 362.53845,136.72216 z M 388.17797,126.2533 C 385.01454,122.98947 384.72075,122.14963 384.37967,115.39522 C 384.05326,108.93141 384.30507,107.60714 386.53113,104.08084 C 391.62377,96.013574 404.27683,88.790244 416.99464,86.689944 C 422.75929,85.737924 425.27482,85.824504 432.11404,87.210304 C 440.15065,88.838734 447.21426,91.478524 447.21426,92.853514 C 447.21426,95.413794 429.34665,103.89128 419.17354,106.15775 C 417.77615,106.46907 412.4407,107.19869 407.317,107.77911 C 396.60931,108.99209 394.68683,109.77176 393.81235,113.25595 C 393.14102,115.93074 395.20876,122.05127 397.19936,123.28153 C 399.24366,124.54498 400.84842,122.03584 399.43922,119.77935 C 395.74767,113.86824 400.81761,109.19058 405.82118,113.8912 C 407.84357,115.79113 408.21986,116.90577 407.80359,119.7635 C 407.521,121.70348 407.2728,123.61003 407.25203,124.00028 C 407.23126,124.39052 405.98136,125.85302 404.47448,127.25028 C 402.29007,129.27577 400.70818,129.79074 396.67065,129.79074 C 392.18577,129.79074 391.21446,129.38616 388.17797,126.2533 z M 426.46426,115.88759 C 421.37676,113.38389 417.21426,111.03794 417.21426,110.67437 C 417.21426,110.3108 418.90176,109.69686 420.96426,109.31007 C 423.02676,108.92328 428.08926,107.49353 432.21426,106.13283 C 438.37339,104.10115 440.82961,103.77404 445.95284,104.30317 C 452.55395,104.98493 463.33131,108.64188 463.91691,110.3987 C 464.62451,112.5215 441.17198,121.31687 436.71426,120.60047 C 436.16426,120.51209 431.55176,118.39129 426.46426,115.88759 z M 451.87718,101.83383 L 445.04011,100.29074 L 447.54211,97.946354 C 450.35457,95.311064 452.13613,95.559284 456.58604,99.206394 C 460.9191,102.75773 459.49402,103.55289 451.87718,101.83383 z"
       id="path2453" />
  </g>
</svg>

