<?xml version="1.0" encoding="UTF-8" standalone="no"?>
<!-- Created with Inkscape (http://www.inkscape.org/) -->

<svg
   xmlns:dc="http://purl.org/dc/elements/1.1/"
   xmlns:cc="http://creativecommons.org/ns#"
   xmlns:rdf="http://www.w3.org/1999/02/22-rdf-syntax-ns#"
   xmlns:svg="http://www.w3.org/2000/svg"
   xmlns="http://www.w3.org/2000/svg"
   xmlns:sodipodi="http://sodipodi.sourceforge.net/DTD/sodipodi-0.dtd"
   xmlns:inkscape="http://www.inkscape.org/namespaces/inkscape"
   width="718"
   height="742"
   id="svg3027"
   version="1.1"
   inkscape:version="0.48.0 r9654"
   sodipodi:docname="New document 3">
  <defs
     id="defs3029" />
  <sodipodi:namedview
     id="base"
     pagecolor="#ffffff"
     bordercolor="#666666"
     borderopacity="1.0"
     inkscape:pageopacity="0.0"
     inkscape:pageshadow="2"
     inkscape:zoom="0.35"
     inkscape:cx="374"
     inkscape:cy="368.14286"
     inkscape:document-units="px"
     inkscape:current-layer="layer1"
     showgrid="false"
     fit-margin-top="0"
     fit-margin-left="0"
     fit-margin-right="0"
     fit-margin-bottom="0"
     inkscape:window-width="978"
     inkscape:window-height="861"
     inkscape:window-x="316"
     inkscape:window-y="32"
     inkscape:window-maximized="0" />
  <metadata
     id="metadata3032">
    <rdf:RDF>
      <cc:Work
         rdf:about="">
        <dc:format>image/svg+xml</dc:format>
        <dc:type
           rdf:resource="http://purl.org/dc/dcmitype/StillImage" />
        <dc:title></dc:title>
      </cc:Work>
    </rdf:RDF>
  </metadata>
  <g
     inkscape:label="Layer 1"
     inkscape:groupmode="layer"
     id="layer1"
     transform="translate(-1,-158.50504)">
    <rect
       style="fill:#ffffff;fill-opacity:1;stroke:none"
       id="rect3099"
       width="771.42859"
       height="822.85712"
       x="-20"
       y="-23.714285"
       transform="translate(1,158.50504)" />
    <path
       style="fill:#000000"
       d="m 1,529.50504 0,-371 359,0 359,0 0,371 0,371 -359,0 -359,0 0,-371 z m 365.7279,337.36494 c 3.1746,-1.44928 6.5535,-3.02428 7.5085,-3.5 0.9551,-0.47572 4.8444,-0.86494 8.643,-0.86494 4.9155,0 7.0577,-0.39379 7.4308,-1.36595 0.3013,-0.78525 -1.7788,-3.64035 -4.893,-6.71584 -5.8426,-5.76997 -6.701,-8.62387 -3.5963,-11.95636 1.0015,-1.07499 2.914,-4.01945 4.25,-6.54324 3.645,-6.88571 4.2134,-7.78628 6.9291,-10.97926 2.9149,-3.42716 6.944,-5.43935 10.8915,-5.43935 1.558,0 4.0848,-1.1191 5.703,-2.52584 1.598,-1.38922 3.918,-2.788 5.1555,-3.10841 1.2375,-0.32041 2.25,-0.99895 2.25,-1.50786 0,-0.50891 1.2375,-2.18504 2.75,-3.72473 4.0489,-4.12163 5.7111,-6.45441 6.0696,-8.51793 0.1758,-1.01187 1.3008,-2.80569 2.5,-3.98626 2.9774,-2.93105 5.5966,-8.14659 4.766,-9.49041 -1.1873,-1.92111 -12.0896,1.84568 -18.8835,6.52436 -8.5095,5.86012 -9.2021,5.73728 -9.2021,-1.63213 0,-6.53349 -2.2946,-12.18732 -6.3923,-15.7502 -1.3017,-1.13185 -2.5335,-2.52474 -2.7372,-3.09531 -0.2038,-0.57057 -1.5706,-1.33508 -3.0375,-1.69891 -2.5385,-0.62965 -2.8878,-0.21716 -7.25,8.56175 -2.5206,5.07279 -4.583,9.97619 -4.583,10.89644 0,0.92025 -0.6607,2.54669 -1.4682,3.61431 -0.8075,1.06762 -1.4825,2.91613 -1.5,4.1078 -0.017,1.19166 -0.475,2.31666 -1.0166,2.5 -1.3163,0.44556 0.9657,7.98379 2.8549,9.43069 0.9442,0.72312 1.0715,1.3207 0.3732,1.75225 -0.705,0.43574 -0.4326,1.95276 0.8141,4.53314 1.0306,2.13302 1.6783,4.89364 1.4392,6.1347 -0.5229,2.71529 -3.3092,5.98255 -5.1019,5.98255 -0.7124,0 -1.6552,0.64173 -2.095,1.42606 -1.0649,1.89898 -8.0234,6.57394 -9.7851,6.57394 -0.7681,0 -1.6365,-0.38827 -1.9298,-0.86283 -0.2933,-0.47455 -2.5914,-1.43906 -5.1069,-2.14336 -3.6735,-1.02851 -5.0345,-1.03388 -6.9153,-0.0273 -2.3315,1.24778 -5.1036,5.82583 -4.122,6.80741 0.2835,0.2835 2.8878,0.70025 5.7874,0.92612 10.0351,0.78169 10.0199,0.77197 9.4936,6.09253 -0.5872,5.93533 -3.4465,15.97656 -5.305,18.63001 -0.7791,1.11234 -1.4166,2.37231 -1.4166,2.79994 0,1.5863 5.1296,0.69809 10.7279,-1.85757 z m -45.6909,-1.90951 c 1.0803,-1.30175 0.737,-2.12708 -2.1839,-5.25 -4.314,-4.61233 -8.2819,-10.55471 -10.3202,-15.45543 -0.8579,-2.0625 -1.9549,-3.75 -2.4379,-3.75 -0.483,0 -1.1623,-1.13189 -1.5095,-2.51531 -0.6992,-2.78589 -3.5212,-6.48469 -4.9475,-6.48469 -0.5046,0 -1.4171,-0.63368 -2.0278,-1.40819 -1.6732,-2.12229 -5.1123,-0.33669 -8.342,4.33127 -1.5225,2.20056 -3.4432,3.99709 -4.2682,3.9923 -0.825,-0.005 -2.4113,-1.86388 -3.5252,-4.1313 -2.4214,-4.92936 -6.1446,-6.59609 -14.9842,-6.708 -4.9759,-0.063 -6.2243,0.26792 -7.2585,1.92392 -0.687,1.1 -1.9354,2 -2.7743,2 -0.8389,0 -2.4427,1.55505 -3.5641,3.45566 -1.1214,1.90061 -2.8832,3.72363 -3.9152,4.05115 -1.0319,0.32752 -2.1545,1.47248 -2.4947,2.54434 -0.3402,1.07187 -1.0534,1.94885 -1.5849,1.94885 -1.5018,0 -6.8989,5.89432 -6.8989,7.53448 0,1.22861 2.6882,1.46552 16.6288,1.46552 l 16.6288,0 4.0101,3.62285 c 3.7507,3.38852 4.3255,3.58548 8.8876,3.04516 2.6827,-0.31773 5.8704,-1.27301 7.0837,-2.12285 3.7632,-2.63584 8.7411,-1.92323 14.7838,2.11639 5.4047,3.61306 11.8828,7.22102 13.1048,7.2986 0.3451,0.0219 1.2044,-0.6552 1.9094,-1.50472 z m 100.2457,-9.70543 c 5.2092,-2.42831 4.3962,-4.53631 -3.7827,-9.80865 -5.4297,-3.50013 -19.3124,-1.96946 -20.7479,2.28761 -0.8287,2.45744 3.4201,6.77002 6.686,6.78635 1.684,0.008 3.7369,0.45153 4.5619,0.98469 2.1327,1.37825 10.112,1.22807 13.2827,-0.25 z m 35.1459,-4.32143 c 0.8643,-0.86428 1.5714,-2.33482 1.5714,-3.26786 0,-2.01864 -4.4343,-8.84362 -7.5761,-11.66071 -6.4506,-5.78377 -9.2462,-7.84268 -12.4239,-9.14987 -1.925,-0.79188 -4.4921,-1.93473 -5.7047,-2.53967 -1.7327,-0.86444 -2.7495,-0.74287 -4.75,0.56788 -3.8942,2.55158 -3.7744,6.91715 0.2861,10.43087 1.4677,1.27007 3.6466,3.14957 4.8419,4.17668 1.1953,1.0271 3.4453,2.68442 5,3.68293 1.5547,0.99851 3.2767,2.18978 3.8267,2.64726 1.1877,0.98788 11.7016,6.4517 12.6786,6.58874 0.3732,0.0524 1.3857,-0.61196 2.25,-1.47625 z m -119.4364,-5.11955 c 0,-1.20504 0.4382,-2.45695 0.9641,-2.78203 0.526,-0.32507 0.7007,-1.25736 0.3882,-2.07175 -0.3126,-0.81439 -0.1312,-2.03748 0.4029,-2.71797 0.5342,-0.6805 1.2553,-2.73524 1.6027,-4.5661 0.7399,-3.90053 -1.3322,-7.1113 -10.743,-16.64623 -5.3172,-5.38742 -8.4551,-10.33932 -9.204,-14.52494 -0.1476,-0.825 -0.7512,-4.2 -1.3413,-7.5 -0.5902,-3.3 -1.1738,-7.33219 -1.297,-8.96043 -0.1971,-2.60527 -1.1183,-3.41505 -7.6787,-6.75 -4.1001,-2.08426 -8.0615,-3.78957 -8.8031,-3.78957 -1.7861,0 -1.1044,10.06082 0.8971,13.24168 2.0926,3.32561 6.8164,14.29141 6.8421,15.88337 0.012,0.75622 0.9023,2.49995 1.9778,3.87495 1.0755,1.375 1.9655,3.01683 1.9778,3.6485 0.012,0.63168 2.4972,6.14987 5.5222,12.26265 3.025,6.11279 5.5,12.38932 5.5,13.94786 0,3.97097 2.687,8.91314 5.7061,10.49498 3.3307,1.74513 7.2749,0.0968 7.2861,-3.04497 z m -111.207,-7.80902 c 2.0235,-1.375 4.2273,-2.5 4.8972,-2.5 0.67,0 1.5781,-0.57861 2.0179,-1.2858 0.4398,-0.70719 3.7247,-2.76746 7.2997,-4.57837 8.8218,-4.46867 9.8971,-5.3714 10.6031,-8.90133 0.9818,-4.90922 -1.3242,-5.50466 -16.3576,-4.22364 -7.01,0.59734 -13.6455,1.06825 -14.7455,1.04648 -1.1,-0.0218 -2.9,0.35038 -4,0.82702 -1.1,0.47664 -3.35,1.4024 -5,2.05724 -1.65,0.65485 -6.02025,3.00208 -9.71168,5.21609 -10.15647,6.09155 -10.15042,9.3686 0.0229,12.37683 3.12886,0.92521 6.13883,1.82291 6.68883,1.99489 0.55,0.17198 4.06137,0.34822 7.80305,0.39164 5.6877,0.066 7.4063,-0.33094 10.4821,-2.42105 z m 262.182,-1.5245 c 0.843,-0.4236 3.5578,-1.57099 6.0328,-2.54975 2.475,-0.97876 6.4125,-2.6112 8.75,-3.62766 2.3375,-1.01645 5.59,-2.11608 7.2276,-2.44361 4.6578,-0.93155 5.7376,-2.91959 3.3343,-6.13859 -1.3814,-1.85023 -3.3856,-2.94381 -6.4108,-3.498 -2.4206,-0.44344 -5.3011,-1.24313 -6.4011,-1.77708 -1.1,-0.53396 -3.8,-1.08794 -6,-1.23108 -2.2,-0.14314 -4.675,-0.69864 -5.5,-1.23445 -1.6957,-1.10134 -13.1987,-3.54317 -17,-3.60874 -1.375,-0.0237 -2.95,-0.40912 -3.5,-0.85645 -1.9906,-1.61904 -13.8694,-2.14968 -16.5,-0.73708 -2.1735,1.16716 -2.4616,1.92033 -2.2057,5.76746 0.3537,5.31718 2.6981,8.14076 9.7057,11.68966 2.75,1.39269 5.225,2.8198 5.5,3.17137 0.275,0.35156 1.625,1.20645 3,1.89973 1.375,0.69329 4.75,2.56085 7.5,4.15012 4.9385,2.85406 8.2792,3.12848 12.4672,1.02415 z M 194.5,814.48451 c 2.2,-0.53505 6.925,-1.25144 10.5,-1.59198 3.575,-0.34054 6.65,-1.01703 6.83333,-1.50333 0.18334,-0.48629 1.01236,-0.88416 1.84227,-0.88416 2.32817,0 5.78905,-3.24598 6.1385,-5.75733 0.436,-3.13343 -2.16902,-5.38037 -7.36277,-6.35066 -2.94351,-0.54991 -6.48955,-2.45078 -10.67907,-5.72455 -8.94172,-6.98724 -11.69178,-8.16935 -18.9726,-8.15533 -4.98725,0.01 -8.69546,0.91887 -17.79966,4.36454 -26.1666,9.90328 -24.60877,9.09964 -22.66132,11.69025 1.36663,1.81797 22.52503,12.40271 23.28109,11.64664 0.28409,-0.28409 2.84836,0.32291 5.69838,1.34888 5.73002,2.06274 16.6885,2.49624 23.18185,0.91703 z m 330.9835,-1.95271 c 1.2819,-2.07425 7.6151,-4.14525 16.5341,-5.40679 0.8347,-0.11806 1.9597,-0.45005 2.5,-0.73776 0.5403,-0.28771 3.5699,-1.3721 6.7324,-2.40975 3.1625,-1.03765 5.75,-2.31278 5.75,-2.83362 0,-0.52084 1.8118,-2.49782 4.0262,-4.39328 2.2144,-1.89546 4.7522,-4.86363 5.6396,-6.59593 0.8873,-1.7323 2.113,-3.47086 2.7237,-3.86347 0.7593,-0.48809 0.5465,-1.27867 -0.6731,-2.5 -1.6007,-1.60297 -4.6263,-1.83744 -29.5,-2.28616 -26.6081,-0.48001 -30.6686,-0.22187 -36.2164,2.30237 -3.069,1.39639 -13.3128,7.71291 -14,8.63266 -0.275,0.36805 -2.1109,1.41799 -4.0798,2.33322 -3.6377,1.69097 -8.9202,6.3276 -8.9202,7.82957 0,0.86761 4.7749,2.309 11.5,3.47152 2.2,0.38029 4.45,1.02741 5,1.43803 0.55,0.41063 3.925,1.25549 7.5,1.87748 3.575,0.62199 8.3,1.7826 10.5,2.57913 4.5748,1.65635 14.0868,2.01363 14.9835,0.56278 z m -236.5823,-3.84207 c 0.5928,-1.10774 0.6299,-3.1541 0.095,-5.25 -0.4821,-1.88908 -1.6139,-6.46683 -2.5153,-10.17279 -2.1656,-8.90395 -4.8377,-11.05746 -11.5753,-9.32886 -2.5269,0.64829 -7.3593,3.06607 -10.7387,5.37284 -3.3794,2.30677 -6.7345,4.19412 -7.4557,4.19412 -2.0074,0 -3.7113,2.14723 -3.7113,4.67695 0,2.72036 3.0981,4.91889 8.2611,5.86244 2.0685,0.37803 4.0076,1.08632 4.309,1.57397 0.3014,0.48765 1.9839,0.90634 3.7389,0.93041 1.7551,0.0241 5.441,0.86392 8.191,1.86632 6.7096,2.44572 10.1943,2.52964 11.4012,0.2746 z m 72.2256,-2.27499 c 5.3102,-3.78118 11.9911,-19.88758 10.2488,-24.70808 -1.0985,-3.03946 -4.2224,-3.41442 -5.8756,-0.70522 -0.55,0.90135 -2.6875,3.48326 -4.75,5.73759 -2.0625,2.25434 -3.75,4.47391 -3.75,4.9324 0,1.29237 -2.2925,0.92692 -4.4582,-0.71069 -1.8744,-1.41727 -1.8851,-1.60458 -0.25,-4.37249 2.3283,-3.94161 2.1466,-6.46206 -0.7052,-9.77745 -2.0484,-2.38136 -3.1729,-2.80576 -7.4343,-2.80576 -4.1934,0 -5.5267,0.48452 -8.0892,2.93953 -1.6875,1.61674 -4.0236,4.91308 -5.1913,7.32521 -2.5594,5.28704 -2.0907,11.21487 1.3624,17.23293 1.9287,3.36127 2.8999,4.04427 6.5281,4.59092 2.3443,0.3532 4.5083,1.04026 4.809,1.5268 0.3007,0.48653 3.7132,0.88461 7.5834,0.88461 5.535,0 7.663,-0.44606 9.9721,-2.0903 z M 457.75,795.89187 c 4.5375,-1.44213 8.25,-3.01913 8.25,-3.50445 0,-0.48531 0.6524,-0.88238 1.4499,-0.88238 2.2249,0 10.5501,-5.95917 10.5501,-7.5518 0,-0.77555 -1.2375,-1.65928 -2.75,-1.96383 -1.5125,-0.30456 -4.1,-0.9523 -5.75,-1.43944 -5.5304,-1.63276 -13.0173,-2.17894 -15.7301,-1.14754 -5.2825,2.00839 -11.0833,16.01807 -7.5584,18.25446 1.8907,1.19962 2.5075,1.10528 11.5385,-1.76502 z M 165.28489,781.48405 c 6.19648,-1.49685 8.69121,-4.74735 6.28268,-8.186 -0.88335,-1.26116 -1.93492,-2.34394 -2.33683,-2.4062 -2.93805,-0.45508 -7.12163,-3.13158 -8.4136,-5.38271 -0.8506,-1.48208 -3.6117,-3.69442 -6.13577,-4.9163 -5.42766,-2.62749 -14.03869,-2.71451 -25.18137,-0.2545 -8.67096,1.91433 -25.8996,2.1671 -27.66087,0.40583 -0.68152,-0.68152 -3.132,-1.23913 -5.44551,-1.23913 -3.74505,0 -4.14772,0.22431 -3.67155,2.04521 0.29416,1.12486 2.1967,2.89302 4.22786,3.92925 2.03116,1.03622 6.13586,3.82837 9.12155,6.20479 14.37405,11.44081 17.10699,12.73192 28.92852,13.66653 8.29651,0.65592 15.22396,-0.22858 30.28489,-3.86677 z m 80.88161,0.61139 c 12.6847,-3.72805 14.5768,-4.54968 16.2072,-7.03795 1.6612,-2.53535 1.1197,-6.55245 -0.8833,-6.55245 -0.702,0 -1.5323,-0.66693 -1.8451,-1.48206 -0.3128,-0.81514 -2.396,-1.77425 -4.6292,-2.13136 -2.2332,-0.3571 -4.302,-1.04018 -4.5973,-1.51793 -0.7482,-1.21059 -13.1618,-1.09344 -13.9188,0.13135 -0.3399,0.55 -1.7314,1 -3.0923,1 -4.1319,0 -18.71829,8.35478 -21.53513,12.33486 -1.00388,1.41845 0.16472,4.4275 1.96988,5.0723 0.91165,0.32563 3.45755,1.24911 5.65755,2.05217 5.4171,1.97739 16.1353,1.22621 26.6665,-1.86893 z m 189.3752,-7.6099 c 3.5521,-1.66072 6.4583,-3.39739 6.4583,-3.85927 0,-0.46187 1.5706,-2.8156 3.4903,-5.2305 1.9197,-2.4149 3.4947,-4.93087 3.5,-5.59104 0.01,-0.66017 0.5722,-1.56017 1.2597,-2 1.4611,-0.93473 5.75,-9.70579 5.75,-11.75905 0,-1.7427 -2.0386,-2.32318 -8.6462,-2.46195 -6.3288,-0.13292 -10.3804,1.30705 -11.0672,3.93335 -0.2859,1.09338 -0.887,1.98796 -1.3358,1.98796 -0.4488,0 -1.1017,0.9 -1.4508,2 -0.3491,1.1 -1.4959,2 -2.5483,2 -2.0454,0 -3.0497,-2.68602 -2.6172,-7 0.2839,-2.83121 -2.9738,-9.92436 -4.8968,-10.6623 -0.698,-0.26784 -3.126,-2.25339 -5.3955,-4.41234 -7.7329,-7.35618 -10.7183,-4.90827 -14.7257,12.07464 -2.6616,11.27987 -1.615,21.48117 2.9223,28.4835 2.8682,4.42643 5.3965,5.33971 15.0529,5.43755 6.674,0.0676 8.7181,-0.35419 14.25,-2.94055 z m 131.3206,-0.59546 c 4.2008,-0.83834 9.0557,-2.16793 10.7888,-2.95465 1.7332,-0.78671 3.7019,-1.43039 4.375,-1.43039 1.9787,0 13.1138,-5.12497 17.774,-8.18053 2.3651,-1.55071 4.6008,-2.81947 4.9682,-2.81947 0.3674,0 1.5824,-1.03369 2.6999,-2.2971 1.1175,-1.2634 3.5011,-3.32388 5.2969,-4.57883 3.077,-2.15031 6.2349,-6.74638 6.2349,-9.07441 0,-2.24989 -5.9268,-0.8695 -12.0631,2.8096 -5.597,3.35572 -8.0626,4.24072 -15.9369,5.72041 -5.2996,0.99587 -22.1208,3.68288 -31,4.95191 -5.775,0.82538 -11.0495,1.6993 -11.7211,1.94206 -1.2912,0.46673 -4.2789,-1.99066 -4.2789,-3.51939 0,-1.5204 5.705,-3.95425 9.2688,-3.95425 1.8525,0 5.5874,-0.63766 8.2997,-1.41702 2.7123,-0.77936 7.7448,-1.72364 11.1833,-2.09839 3.4385,-0.37476 6.4695,-1.03362 6.7356,-1.46415 0.266,-0.43052 3.9777,-1.10618 8.2482,-1.50148 4.2704,-0.3953 8.2144,-1.0651 8.7644,-1.48845 0.55,-0.42335 2.5832,-1.05423 4.5182,-1.40195 1.9351,-0.34772 5.1959,-1.5314 7.2464,-2.63039 2.0505,-1.09899 4.3891,-1.99817 5.197,-1.99817 0.8078,0 2.947,-1.2375 4.7536,-2.75 1.8066,-1.5125 5.4596,-3.84485 8.1178,-5.18299 2.6581,-1.33815 6.4047,-4.35103 8.3256,-6.69529 4.7964,-5.85339 10.5121,-17.25851 9.7897,-19.53451 -0.8228,-2.59239 -5.0985,-2.34897 -10.9722,0.62467 -3.6552,1.85049 -7.7329,2.74338 -16.4195,3.59537 -28.153,2.76127 -32.0645,2.848 -33.404,0.74071 -0.595,-0.93612 -0.7646,-2.0193 -0.3768,-2.40708 1.0621,-1.06213 9.7015,-2.58666 14.135,-2.49429 2.1509,0.0448 4.4009,-0.30197 5,-0.77063 1.0189,-0.79708 10.5493,-1.89469 22.1156,-2.54703 3.7784,-0.21311 7.5803,-1.61398 15.3127,-5.6423 8.5121,-4.43448 11.569,-6.71034 17.7228,-13.19441 4.0901,-4.30958 8.273,-9.50209 9.2954,-11.53891 1.0223,-2.03682 2.5949,-5.05331 3.4946,-6.70331 3.1744,-5.82183 1.4356,-9.05123 -2.9964,-5.56498 -1.4439,1.13574 -3.098,2.06498 -3.6759,2.06498 -0.5779,0 -1.9797,0.84154 -3.1152,1.87008 -1.1354,1.02854 -5.3309,2.653 -9.3233,3.6099 -3.9924,0.9569 -7.5065,2.14037 -7.809,2.62992 -0.3026,0.48956 -2.0693,0.8901 -3.926,0.8901 -1.8567,0 -4.5256,0.43713 -5.9309,0.9714 -3.4737,1.32072 -20.6256,4.0286 -25.5174,4.0286 -6.9784,0 -11.373,2.86918 -14.5507,9.5 -0.7907,1.65 -2.5566,4.8 -3.9242,7 -1.3676,2.2 -4.1373,7.14409 -6.1548,10.98687 -2.0176,3.84277 -4.5143,7.72056 -5.5482,8.61729 -1.0339,0.89674 -1.8799,2.07275 -1.8799,2.61335 0,0.54061 -3.8669,4.76283 -8.5932,9.38271 -4.7262,4.61988 -11.3637,11.27708 -14.75,14.79378 -3.3862,3.5167 -7.672,7.7917 -9.5239,9.5 -5.2802,4.87079 -15.7419,15.80139 -18.2864,19.106 -1.2705,1.65 -2.6651,3.15316 -3.0993,3.34035 -1.4076,0.60694 -3.8479,6.1877 -3.179,7.27004 0.3575,0.57842 1.6134,0.84626 2.7909,0.59522 1.1775,-0.25105 3.2659,-0.0751 4.6409,0.39101 3.6702,1.24413 31.9973,0.0576 40.8623,-1.71158 z m -67.7835,-0.42722 c 1.1842,-0.63374 3.499,-2.68523 5.1441,-4.55888 1.6451,-1.87364 4.4229,-4.08607 6.1729,-4.9165 4.8768,-2.31422 10.6042,-7.41725 10.6042,-9.44826 0,-1.91535 -1.8739,-3.03418 -5.0818,-3.03418 -1.055,0 -1.9182,-0.45 -1.9182,-1 0,-0.63571 -7.8451,-1 -21.5352,-1 -17.993,0 -21.934,0.26132 -23.9599,1.58877 -2.7964,1.83223 -8.5049,12.90696 -8.5049,16.49971 0,3.43923 2.4326,4.56461 11.6259,5.3784 4.4252,0.39173 8.526,1.00943 9.1129,1.37267 1.7182,1.06352 15.9871,0.37752 18.34,-0.88173 z m -170.9804,-5.71441 c 3.5095,-2.35469 5.0835,-4.0908 7.5534,-8.33156 1.8261,-3.13537 2.0627,-5.00138 1.8753,-14.78756 -0.118,-6.15968 0.1651,-11.43407 0.6292,-11.72087 1.237,-0.7645 1.0306,-2.76552 -0.5012,-4.86044 -1.305,-1.78473 -1.4385,-1.78401 -4.5,0.0245 -1.7353,1.02506 -3.1551,2.44173 -3.1551,3.14815 0,0.70641 -0.5025,1.28439 -1.1166,1.28439 -0.6697,0 -0.913,1.06467 -0.608,2.66054 0.5905,3.08871 -0.9918,8.33946 -2.513,8.33946 -1.6891,0 -3.6963,-3.29546 -3.7306,-6.125 -0.067,-5.50609 -1.2585,-8.8125 -3.4009,-9.43468 -3.8011,-1.10395 -7.6309,-2.91205 -7.6309,-3.60266 0,-0.37076 -0.2599,-1.3514 -0.5776,-2.1792 -0.999,-2.60356 2.6989,-3.50552 18.7539,-4.57419 8.5404,-0.56848 16.2115,-1.29588 17.0469,-1.61646 2.2175,-0.85091 4.9918,2.25659 3.885,4.35162 -0.4882,0.9243 -1.4303,6.40555 -2.0935,12.18055 -2.2339,19.45377 -2.2493,20.62251 -0.2984,22.57342 0.981,0.98105 1.7837,2.1447 1.7837,2.58589 0,2.50679 11.1544,6.81072 17.7008,6.82987 4.2067,0.0123 13.7965,-1.84815 15.2992,-2.9681 0.55,-0.40992 2.2318,-1.0395 3.7374,-1.39907 1.5055,-0.35957 3.4404,-1.7269 4.2998,-3.03851 2.4758,-3.77847 5.3671,-12.4842 4.919,-14.81101 -0.225,-1.16836 0.063,-2.69293 0.6396,-3.38792 0.5768,-0.695 0.9037,-2.52834 0.7265,-4.0741 -0.2895,-2.52406 -0.7497,-2.84153 -4.5166,-3.11525 -2.8836,-0.20953 -5.9397,0.49357 -9.7797,2.25 -3.0719,1.40513 -5.7758,2.55478 -6.0087,2.55478 -0.9635,0 -3.4914,-6.75101 -3.7446,-10 l -0.2727,-3.5 7,-0.62579 c 3.85,-0.34418 10.4361,-0.68168 14.6357,-0.75 7.5098,-0.12216 12.2746,-1.58862 13.9994,-4.30856 0.4589,-0.72361 0.8412,-4.10159 0.8496,-7.50663 0.01,-3.40504 0.4341,-6.4498 0.9459,-6.76612 0.5118,-0.31633 0.9266,-2.25539 0.9217,-4.30902 -0.013,-5.30121 1.9032,-17.82516 3.0512,-19.94591 3.796,-7.01248 4.5674,-11.28797 2.0366,-11.28797 -1.4539,0 -5.9401,2.28574 -5.9401,3.02652 0,0.38803 -2.8125,1.69501 -6.25,2.90441 -11.1745,3.93148 -11.75,4.23709 -11.75,6.24005 0,2.55083 -2.7702,7.82902 -4.109,7.82902 -0.5818,0 -2.5567,-1.54353 -4.3888,-3.43006 -3.9175,-4.034 -7.2783,-5.85688 -13.6802,-7.42015 -5.5807,-1.36275 -7.822,-0.71342 -7.822,2.26607 0,3.15984 -2.375,6.03795 -4.3554,5.278 -0.9045,-0.3471 -1.6446,-1.32021 -1.6446,-2.16248 0,-0.84226 -0.4199,-1.53138 -0.9331,-1.53138 -0.5132,0 -0.8946,-1.35634 -0.8474,-3.01409 0.047,-1.65774 -0.1662,-3.26592 -0.474,-3.57373 -1.5943,-1.5943 -10.9663,6.1213 -16.8086,13.83782 -1.1451,1.5125 -2.8491,2.75 -3.7866,2.75 -1.7641,0 -8.1503,-5.25741 -8.1503,-6.70965 0,-0.45232 -2.2707,-2.30891 -5.0459,-4.12574 -3.8563,-2.52454 -5.7052,-3.15854 -7.8424,-2.68913 -2.6238,0.57626 -2.8715,1.09036 -4.01,8.31937 -0.6674,4.23783 -1.3669,11.88732 -1.5544,16.99887 -0.3595,9.80258 -1.2287,12.89089 -5.6958,20.23894 -3.4942,5.74764 -4.8043,13.91475 -3.203,19.96734 0.6548,2.475 1.2268,5.463 1.271,6.63999 0.078,2.06612 7.4541,13.0271 11.178,16.61001 1.0004,0.9625 2.6252,1.75689 3.6107,1.76531 0.9855,0.008 2.4668,0.45153 3.2918,0.98469 2.3878,1.54309 8.2684,1.1422 11.0984,-0.75659 z M 355.655,714.6763 c -1.8378,-2.03078 -2.3211,-10.64157 -0.655,-11.67126 0.55,-0.33992 1,-1.38323 1,-2.31847 0,-0.93524 0.8532,-2.23329 1.8961,-2.88456 2.4403,-1.52403 4.7978,0.84814 5.7327,5.76865 0.359,1.88891 1.0896,3.99104 1.6236,4.67139 1.5398,1.96173 0.033,5.81198 -2.7755,7.09155 -3.5274,1.6072 -4.8915,1.47576 -6.8219,-0.6573 z m -152.24607,45.30676 c 2.69991,-0.81291 6.22605,-1.47802 7.83587,-1.47802 3.03442,0 12.0506,-1.98548 22.0095,-4.84674 4.7194,-1.35592 6.0233,-2.21999 7.25,-4.80439 2.9105,-6.1317 1.4426,-10.36444 -4.9681,-14.32653 -2.8749,-1.77679 -5.5586,-2.23532 -15.7508,-2.69114 -11.20502,-0.50112 -29.57984,0.63142 -35.7854,2.20565 -1.375,0.34881 -4.075,0.97765 -6,1.39742 -4.05906,0.88512 -11,4.81638 -11,6.23025 0,3.63024 10.65667,15.9435 16.26472,18.79309 4.73428,2.4056 11.06203,2.25495 20.14421,-0.47959 z m 82.57467,-2.17482 c 1.3214,-2.23962 2.1725,-6.06181 2.5772,-11.57358 0.3323,-4.52629 0.8546,-8.90462 1.1606,-9.72962 0.6155,-1.65952 0.645,-1.84412 1.7228,-10.77181 0.6071,-5.02848 0.4353,-6.76309 -0.8665,-8.75 -2.2805,-3.4805 -4.5674,-3.09712 -9.0777,1.52181 -2.1482,2.2 -4.8673,4 -6.0424,4 -2.6302,0 -4.4576,-3.65919 -4.4576,-8.92573 0,-4.31725 0.7817,-4.83416 11.4027,-7.54038 6.4356,-1.63977 8.8718,-2.95915 12.5823,-6.81436 2.2794,-2.36832 2.6651,-3.70917 5.3847,-18.71953 0.1494,-0.825 0.6279,-2.29349 1.0631,-3.26331 1.3451,-2.99712 0.1889,-15.54352 -1.5969,-17.32941 -1.4656,-1.46551 -2.0895,-1.32975 -7.4675,1.62479 -5.8644,3.22173 -10.2646,7.36026 -10.3324,9.71793 -0.02,0.6875 -0.5126,1.25 -1.095,1.25 -0.5825,0 -0.8101,0.40285 -0.5058,0.89522 0.6642,1.0746 -2.2332,2.34765 -3.5254,1.54901 -0.5004,-0.30925 -0.9098,-1.40998 -0.9098,-2.44609 0,-3.25545 -3.9478,-8.7455 -7.5013,-10.43175 -1.8776,-0.89095 -3.6463,-1.99614 -3.9305,-2.45598 -0.2842,-0.45983 -2.5327,-1.40051 -4.9967,-2.09039 -3.8448,-1.07648 -4.6992,-1.03516 -6.0258,0.29139 -0.8501,0.85015 -1.5457,2.87292 -1.5457,4.49504 0,1.62212 -0.675,4.5648 -1.5,6.53931 -0.825,1.9745 -1.5,5.12436 -1.5,6.99968 0,3.63117 -1.8214,6.00101 -3.7135,4.83165 -0.6305,-0.38968 -1.6832,-3.85144 -2.3394,-7.6928 -1.6583,-9.70759 -2.8029,-10.75383 -8.0469,-7.35588 -1.3201,0.85537 -3.6476,1.86245 -5.1722,2.23797 -4.2473,1.04614 -4.5557,-1.86687 -0.8858,-8.36638 2.5042,-4.435 3.1728,-6.16672 2.6855,-6.95527 -0.2971,-0.48065 0.024,-1.06194 0.7134,-1.29177 1.4559,-0.4853 -2.6756,-2.92358 -5.7316,-3.38265 -5.0794,-0.763 -10.48304,-2.58303 -15.90042,-5.3555 -6.54106,-3.34753 -7.44118,-3.50407 -10.95176,-1.90454 -3.4382,1.56655 -4.75558,5.00364 -6.09028,15.88973 -1.03136,8.41198 -0.95961,10.18717 0.62646,15.5 0.98517,3.3 1.79466,6.98594 1.79886,8.19098 0.004,1.20504 0.40779,2.43829 0.89686,2.74055 0.48907,0.30227 1.18973,1.74691 1.55702,3.21032 0.60375,2.40549 4.68853,8.06086 10.0711,13.94338 2.10743,2.30318 12.24706,5.36272 18.48406,5.57741 C 237.9428,706.0443 244,702.01592 244,694.36257 c 0,-4.57617 1.4436,-7.85753 3.4568,-7.85753 0.7626,0 2.6592,2.06891 4.2148,4.59759 1.5556,2.52867 5.1909,7.04842 8.0784,10.04389 2.8875,2.99546 5.25,6.04907 5.25,6.78578 0,1.633 -3.0961,2.5409 -8.7269,2.55909 -6.3236,0.0204 -7.5525,2.38243 -8.9178,17.14146 -0.5725,6.18866 1.1723,10.84838 6.4008,17.09439 1.5092,1.80279 3.6238,5.00534 4.6993,7.11678 2.2316,4.38118 5.9474,7.66102 8.6795,7.66102 1.0258,0 1.8651,0.44424 1.8651,0.9872 0,0.57644 3.1228,0.91912 7.5053,0.82358 7.3844,-0.16098 7.5371,-0.21747 9.4783,-3.50758 z M 138.03001,743.96888 c 1.06637,-1.2849 0.80017,-2.06024 -1.62756,-4.7404 -1.59635,-1.76234 -3.23995,-3.35857 -3.65245,-3.54718 -0.4125,-0.18861 -0.75,-0.91068 -0.75,-1.60461 0,-0.69392 -0.9,-2.07616 -2,-3.07165 -1.1,-0.99549 -2,-2.79023 -2,-3.98832 0,-1.19809 -0.3375,-2.51585 -0.75,-2.92835 -0.4125,-0.4125 -0.75071,-1.05 -0.75158,-1.41666 -0.006,-2.36035 -4.87888,-8.16304 -8.39448,-9.99548 -4.89877,-2.55338 -10.02352,-2.70726 -19.10394,-0.57362 -3.575,0.84002 -8.975,1.99918 -12,2.57591 -3.025,0.57673 -5.9275,1.44863 -6.45,1.93756 -0.5225,0.48893 -3.53344,0.88896 -6.69098,0.88896 -3.15754,0 -6.00535,0.42774 -6.32845,0.95054 -0.32311,0.5228 0.33402,2.6603 1.46028,4.75 1.12627,2.0897 2.51475,5.51792 3.08552,7.61826 1.40821,5.18195 9.72302,12.96284 14.73551,13.78929 2.02847,0.33446 14.09552,0.67196 26.81568,0.75 19.69811,0.12087 23.3166,-0.0859 24.40245,-1.39425 z M 537,741.35617 c 2.475,-1.45688 6.1546,-4.49438 8.1768,-6.75 2.0223,-2.25562 4.1297,-4.10113 4.6831,-4.10113 1.3375,0 7.418,-7.62639 9.4907,-11.90364 0.9072,-1.872 1.6494,-4.4044 1.6494,-5.62755 0,-2.50593 1.3632,-3.87446 4.9614,-4.98091 2.7056,-0.83195 8.0386,-5.72526 8.0386,-7.37579 0,-0.57296 0.7978,-1.4687 1.7728,-1.99053 2.1156,-1.1322 9.3905,-14.56565 9.8139,-18.12158 1.3212,-11.09758 2.8983,-15 6.062,-15 1.5395,0 7.3513,-7.62911 7.3513,-9.65004 0,-0.74248 0.45,-1.34996 1,-1.34996 0.55,0 0.9273,-0.3375 0.8385,-0.75 -0.089,-0.4125 0.4225,-2.1 1.1362,-3.75 0.7136,-1.65 1.2643,-3.7875 1.2236,-4.75 -0.041,-0.9625 0.348,-1.75 0.8639,-1.75 0.5158,0 0.9378,-1.32344 0.9378,-2.94098 0,-1.61754 0.4619,-3.22648 1.0265,-3.57541 0.5646,-0.34893 0.9436,-1.16299 0.8423,-1.80902 -0.1013,-0.64602 0.162,-1.96761 0.5852,-2.93686 0.4232,-0.96925 0.5721,-3.10675 0.3309,-4.75 -0.2412,-1.64325 -0.1106,-2.98773 0.2901,-2.98773 1.8846,0 3.467,-35.30174 1.6888,-37.6721 -1.3191,-1.7582 -0.2747,-9.24558 1.5432,-11.06343 2.1425,-2.14257 4.4123,-0.27788 5.2778,4.33601 0.6618,3.52739 2.4106,4.71874 2.4214,1.64952 0,-0.9625 0.6784,-3.03894 1.5,-4.61431 2.5313,-4.85352 1.9405,-6.3903 -3.4081,-8.8664 -6.3593,-2.94399 -7.0416,-4.98931 -6.1779,-18.51929 0.053,-0.82674 1.8124,-1.25 5.1964,-1.25 4.8324,0 5.0805,-0.12499 4.4655,-2.25 -1.8156,-6.27367 -3.8707,-17.93808 -4.1232,-23.4027 -0.1564,-3.38398 -0.7822,-7.08292 -1.3907,-8.21987 -1.246,-2.32811 -1.9412,-2.14694 -11.8407,3.08567 -5.7814,3.05583 -10.2275,3.64153 -10.2275,1.34728 0,-0.79178 3.0098,-3.82928 6.6885,-6.75 8.5649,-6.80021 13.4758,-11.73558 12.7867,-12.85052 -0.9384,-1.51841 1.9109,-4.95986 4.1064,-4.95986 1.1553,0 4.1293,0.61057 6.6089,1.35682 3.8187,1.14924 4.9139,1.14436 7.159,-0.0319 1.4578,-0.76382 2.6505,-2.00278 2.6505,-2.75324 0,-0.75045 1.4803,-2.66415 3.2895,-4.25264 1.8092,-1.5885 3.899,-4.44762 4.6441,-6.35359 0.7451,-1.90598 3.3857,-6.14482 5.8681,-9.41963 5.0155,-6.61663 17.8089,-31.34853 18.8129,-36.3689 0.3541,-1.77018 1.016,-3.44856 1.4709,-3.72972 0.4549,-0.28117 0.5737,-1.17181 0.2638,-1.9792 -0.3098,-0.80738 -0.093,-1.46797 0.4824,-1.46797 0.5752,0 1.3503,-2.03053 1.7224,-4.5123 0.3722,-2.48176 1.0821,-4.76285 1.5776,-5.06909 0.4955,-0.30625 0.6298,-0.99542 0.2985,-1.53151 -0.3313,-0.53609 -0.051,-1.63956 0.6238,-2.45215 1.3386,-1.61296 1.6765,-14.61134 0.4662,-17.93495 -0.4006,-1.1 -1.5405,-3.8 -2.5331,-6 -0.9926,-2.2 -2.8108,-6.475 -4.0404,-9.5 -1.2296,-3.025 -3.0471,-7.3 -4.0388,-9.5 -0.9916,-2.2 -2.0414,-4.79771 -2.3328,-5.77268 -0.7701,-2.57715 -3.2492,-3.17088 -5.9234,-1.41865 -2.8564,1.87159 -6.5497,12.62276 -9.6545,28.10435 -1.2038,6.00216 -2.6516,12.07716 -3.2174,13.5 -0.5659,1.42284 -1.3816,3.48698 -1.8127,4.58698 -0.6795,1.73366 -3.2483,12.29355 -4.3974,18.07703 -0.8283,4.16926 -1.8756,7.97101 -2.458,8.92297 -0.3364,0.55 -0.626,1.675 -0.6435,2.5 -0.017,0.825 -1.0624,3.75 -2.3219,6.5 -1.2595,2.75 -2.9829,6.575 -3.8297,8.5 -0.8468,1.925 -2.1891,4.625 -2.9827,6 -0.7937,1.375 -2.0995,3.9625 -2.9019,5.75 -0.8023,1.7875 -1.9028,3.25 -2.4454,3.25 -0.5426,0 -0.9866,0.65917 -0.9866,1.46482 0,1.6863 -3.0029,3.53518 -5.7418,3.53518 -2.1987,0 -4.934,-5.51563 -5.665,-11.42337 -0.2881,-2.32853 -1.4727,-4.91067 -2.9142,-6.35215 -2.0439,-2.0439 -2.7655,-2.24855 -4.5539,-1.29144 -1.1688,0.62553 -2.1251,1.71534 -2.1251,2.42181 0,0.70646 -1.125,2.26265 -2.5,3.4582 -1.375,1.19555 -2.5,2.80355 -2.5,3.57335 0,0.76979 -0.675,1.65864 -1.5,1.97523 -0.825,0.31658 -1.5,1.15258 -1.5,1.85779 0,0.7052 -2.6091,3.8191 -5.798,6.91977 -5.5085,5.3562 -8.7203,11.34664 -7.6203,14.21317 0.2474,0.6447 -1.611,2.29166 -4.1297,3.65991 -3.9305,2.13514 -10.8857,9.02752 -10.9839,10.88473 -0.034,0.63302 -4.1324,8.82983 -6.5523,13.103 -2.9583,5.2238 -5.0626,5.24633 -8.4745,0.0907 -2.2975,-3.47178 -2.8866,-3.8197 -5.2642,-3.10878 -7.1695,2.14385 -11.4665,5.92354 -13.5232,11.89532 -1.6561,4.80838 -1.3004,6.29006 2.8944,12.05444 2.9994,4.12166 2.7807,5.22636 -1.2406,6.26838 -5.0644,1.31233 -5.7675,2.92111 -4.2995,9.83833 0.7016,3.30613 0.9861,6.30068 0.6322,6.65455 -0.7709,0.77094 -5.4974,-1.49722 -7.7489,-3.71863 -1.9637,-1.93735 -4.2613,-8.40406 -4.4321,-12.47431 -0.069,-1.65 0.474,-5.45704 1.2073,-8.4601 0.7333,-3.00305 1.3333,-7.364 1.3333,-9.69098 0,-2.32699 0.45,-4.509 1,-4.84892 2.3934,-1.47918 -0.4154,-16.93217 -3.7716,-20.75 -2.3464,-2.66917 -7.0752,-2.28309 -8.1977,0.66928 -0.5059,1.33061 -1.5762,2.79311 -2.3784,3.25 -0.8022,0.4569 -2.6262,3.03349 -4.0533,5.72576 -1.4272,2.69227 -3.0724,5.47047 -3.6561,6.17379 -0.7693,0.92693 -0.4947,2.38929 0.9979,5.31513 2.8828,5.65072 2.622,7.60508 -1.3416,10.05472 -3.5253,2.17877 -4.5992,3.85242 -4.5992,7.16786 0,1.16825 -1.0284,2.33394 -2.5791,2.92354 -2.1577,0.82033 -3.2607,0.498 -6.75,-1.97255 -6.3765,-4.51472 -9.0852,-4.82845 -12.1452,-1.40669 -1.4013,1.56704 -3.8928,4.34618 -5.5366,6.17588 -3.5685,3.97207 -3.2563,6.92917 1.1201,10.61167 3.7408,3.14773 3.7269,6.0779 -0.038,8.0249 -4.4418,2.29691 -4.4291,6.08324 0.055,16.31346 1.0309,2.35221 1.8744,4.93971 1.8744,5.75 0,0.81029 0.3965,1.47325 0.8812,1.47325 0.4847,0 1.3945,2.03789 2.0216,4.52864 1.4298,5.67822 8.1652,20.34397 12.3086,26.80083 2.1969,3.42367 3.2245,6.3538 3.4294,9.77943 0.1609,2.6901 -0.09,4.8911 -0.5575,4.8911 -0.4676,0 -1.0854,0.9 -1.3731,2 -0.3846,1.47056 -1.364,2 -3.7,2 -2.1,0 -3.0338,-0.42373 -2.7548,-1.25 0.2321,-0.6875 -0.1864,-2.7125 -0.9301,-4.5 -0.7437,-1.7875 -1.066,-3.25 -0.7163,-3.25 0.3497,0 0.1922,-0.5625 -0.3501,-1.25 -0.5423,-0.6875 -0.8976,-2.2625 -0.7896,-3.5 0.108,-1.2375 -0.1784,-2.25 -0.6365,-2.25 -0.4581,-3e-5 -0.8329,-0.7999 -0.8329,-1.77752 0,-5.19896 -7.397,-8.98313 -11.0672,-5.66173 -1.063,0.96206 -1.9328,2.25887 -1.9328,2.8818 0,0.62293 -2.1375,3.19476 -4.75,5.71517 -3.4643,3.34221 -6.0997,4.90841 -9.7367,5.78641 -2.7427,0.66211 -5.4427,1.54305 -6,1.95764 -1.4379,1.06965 -9.5911,3.98976 -12.2375,4.3829 -1.2234,0.18174 -2.5359,0.64202 -2.9167,1.02286 -0.9451,0.94516 -4.3591,0.87855 -4.3591,-0.0851 0,-1.44818 3.106,-5.22244 4.3067,-5.23329 0.6563,-0.006 2.9933,-1.6964 5.1933,-3.75661 4.002,-3.74766 9.2854,-6.23261 13.2517,-6.23261 3.4245,0 9.0294,-4.23163 10.5963,-8 1.7843,-4.29159 5.2271,-7.51851 8.9662,-8.40391 2.7384,-0.64846 2.7986,-0.80578 2.2375,-5.84468 -0.5037,-4.52325 -1.3496,-7.98902 -3.3565,-13.75141 -0.2874,-0.825 -0.6176,-1.8375 -0.7338,-2.25 -0.1163,-0.4125 -0.3209,-1.0875 -0.4548,-1.5 -0.1339,-0.4125 -0.1901,-1.0875 -0.125,-1.5 0.065,-0.4125 -0.2958,-0.75 -0.8021,-0.75 -0.5063,0 -1.2171,-1.35 -1.5795,-3 -0.3624,-1.65 -1.0374,-3 -1.5,-3 -0.4626,0 -1.117,-1.2375 -1.4542,-2.75 -0.3925,-1.76055 -2.4649,-4.11358 -5.7598,-6.53984 -4.2623,-3.13853 -5.6743,-3.67793 -8.2164,-3.1387 -5.3427,1.1333 -6.5696,3.01643 -6.5696,10.08353 0,6.10134 -0.096,6.34501 -2.5,6.34501 -1.375,0 -2.5164,-0.5625 -2.5364,-1.25 -0.02,-0.6875 -1.6675,-2.4875 -3.6611,-4 -4.441,-3.36941 -9.9257,-3.67864 -13.3025,-0.75 -1.2683,1.1 -2.6347,2 -3.0364,2 -0.7885,0 -1.9805,3.27547 -2.3655,6.5 -0.9354,7.83546 -1.863,10.59369 -3.4452,10.24523 -0.9091,-0.20021 -1.5404,-0.89978 -1.4029,-1.55462 0.1375,-0.65479 -0.1288,-1.19056 -0.5917,-1.19056 -0.4629,0 -1.3496,-1.69508 -1.9703,-3.76684 -1.8817,-6.28045 -9.0606,-9.2414 -12.688,-5.23316 -2.3788,2.62854 -3.9639,2.52585 -10.0292,-0.64973 -6.3508,-3.32505 -11.18,-2.80549 -13.7084,1.47484 -1.9141,3.24031 -2.5033,21.95278 -0.8958,28.44979 1.3937,5.63287 5.5372,10.46619 10.1597,11.85112 2.1855,0.65481 3.9737,1.72458 3.9737,2.37728 0,1.97785 -3.3193,4.30621 -6.5,4.55945 -6.4602,0.51434 -8.5229,-0.019 -9.6512,-2.49516 -0.6095,-1.33783 -2.3586,-2.95033 -3.8868,-3.58333 -2.4001,-0.99416 -3.4381,-0.78875 -7.6203,1.50796 -4.9782,2.73387 -10.6418,7.87432 -9.7064,8.80978 0.9565,0.95651 -1.6742,4.698 -3.3032,4.698 -1.9093,0 -5.1955,-3.52664 -6.5228,-7 -0.5254,-1.375 -2.9048,-4.075 -5.2874,-6 -2.3826,-1.925 -4.6008,-4.48251 -4.9293,-5.68335 -0.6565,-2.3999 -4.2639,-4.04535 -5.7064,-2.60286 -0.5499,0.54995 -0.4848,2.13922 0.164,4.00029 0.7352,2.10895 0.7685,4.78177 0.1052,8.43135 -0.5342,2.93894 -0.7791,5.65448 -0.5442,6.03454 0.2349,0.38006 -0.4079,2.18254 -1.4286,4.00552 -2.4302,4.34083 -2.9962,16.89443 -0.8422,18.68207 0.8049,0.66796 1.72,2.20852 2.0335,3.42346 1.2162,4.71162 12.5072,7.68499 15.9832,4.20898 0.825,-0.825 1.8697,-1.51527 2.3215,-1.53393 0.4518,-0.0187 2.6214,-0.90339 4.8214,-1.96607 2.2,-1.06268 5.35,-1.95814 7,-1.98993 5.5845,-0.10757 10.7112,-1.8382 13.5761,-4.58296 1.569,-1.50324 2.6464,-3.06715 2.3941,-3.47535 -0.6455,-1.04447 2.2341,-2.00247 3.9917,-1.32799 0.8041,0.30854 1.7375,1.42898 2.0742,2.48985 0.3367,1.06088 3.0043,4.67168 5.9279,8.02402 4.1972,4.8126 6.4437,6.48463 10.6759,7.94611 5.6144,1.93878 11.3992,2.47104 12.2309,1.12537 0.2688,-0.43499 2.1593,-0.90339 4.2011,-1.0409 4.1463,-0.27924 5.9443,-1.07366 9.941,-4.39246 4.7656,-3.95729 7.4665,-7.00015 6.9521,-7.83247 -0.2737,-0.4428 -0.04,-1.08775 0.5187,-1.43321 0.559,-0.34546 1.0163,-1.39331 1.0163,-2.32855 0,-2.12071 3.4043,-4.34734 5.4478,-3.56318 1.5,0.57558 8.5522,12.82287 8.5522,14.85217 0,0.56979 1.35,2.31016 3,3.86749 1.65,1.55734 3,3.23734 3,3.73334 0,0.49599 -1.4625,1.5738 -3.25,2.39513 -8.154,3.74663 -8.8614,4.74547 -9.5148,13.43475 -1.2601,16.7573 0.2396,34.09877 2.9488,34.09877 0.5137,0 0.6319,0.48888 0.2626,1.08641 -0.9636,1.55912 5.2746,7.69588 10.5534,10.38188 6.5975,3.35695 11.7157,3.94402 17.4403,2.00046 5.0116,-1.7015 12.5597,-7.789 12.5597,-10.12938 0,-0.73665 0.3673,-1.33937 0.8161,-1.33937 1.4535,0 6.04,-11.35934 6.6214,-16.39911 0.3108,-2.69451 0.9459,-5.39451 1.4114,-6 0.4654,-0.60549 0.946,-5.51723 1.0679,-10.91498 0.2235,-9.89284 -0.5582,-12.68591 -3.5501,-12.68591 -2.0129,0 -10.0845,3.93554 -15.8439,7.72511 -5.3354,3.51062 -7.4226,3.97513 -9.3228,2.07489 -0.66,-0.66 -1.2,-0.8299 -1.2,-0.37756 0,0.45235 -0.675,0.26225 -1.5,-0.42244 -3.2698,-2.71372 -0.465,-6.90693 4.661,-6.9682 10.6477,-0.12725 24.3778,-11.68998 26.7552,-22.5318 0.455,-2.07501 1.3407,-3.09859 2.8725,-3.31977 3.1663,-0.45718 4.8071,1.66313 5.6893,7.35217 1.0849,6.99632 0.6229,28.41062 -0.6649,30.8168 -0.5905,1.10339 -1.4484,5.34752 -1.9063,9.43141 -0.458,4.08389 -1.2496,7.94144 -1.7591,8.57232 -0.5095,0.63089 -1.2486,5.30549 -1.6425,10.38799 -0.6328,8.1662 -0.5191,9.3165 0.9773,9.89074 2.5213,0.96751 9.4428,-6.80049 13.4143,-15.05481 1.832,-3.80773 3.4368,-7.40773 3.5661,-8 0.1292,-0.59227 0.5886,-1.89673 1.0207,-2.89881 1.406,-3.26078 -0.066,-18.87744 -2.1122,-22.40229 l -1.8714,-3.22426 2.6927,-2.69573 c 2.3035,-2.30611 2.9242,-2.5036 4.2945,-1.36641 1.0873,0.90239 1.4101,2.20195 1.005,4.04628 -0.3988,1.81562 -0.058,3.2556 1.027,4.34066 1.7407,1.74077 4.4808,2.19347 4.4808,0.74029 0,-0.48589 1.0125,-1.1359 2.25,-1.44448 11.3249,-2.82391 17.8096,-4.59089 18.5676,-5.05936 0.4977,-0.30761 2.4299,-0.78755 4.2937,-1.06652 4.9622,-0.74275 11.58,-2.51439 18.3887,-4.92288 3.3,-1.16732 6.7263,-2.17073 7.614,-2.22981 0.8877,-0.0591 2.0904,-0.40184 2.6727,-0.76169 0.5822,-0.35985 3.4326,-1.10449 6.3342,-1.65476 2.9015,-0.55027 5.5431,-1.43342 5.8701,-1.96255 0.6874,-1.11215 15.009,-2.64857 15.009,-1.61016 0,1.41869 -5.6214,5.57301 -9,6.6512 -1.925,0.6143 -4.918,1.75311 -6.6511,2.53067 -1.7331,0.77757 -4.6581,1.42054 -6.5,1.42882 -1.8419,0.008 -5.1489,0.66353 -7.3489,1.4561 -2.2,0.79258 -5.7171,1.46081 -7.8157,1.48495 -2.0987,0.0241 -4.6634,0.4975 -5.6993,1.05191 -1.0359,0.55441 -3.1438,1.15235 -4.6842,1.32876 -1.5405,0.17641 -3.4758,0.60886 -4.3008,0.961 -0.825,0.35214 -4.9101,1.73518 -9.078,3.07342 -10.6518,3.42013 -18.4095,9.39366 -21.978,16.9234 -2.5602,5.40221 -2.6464,5.99473 -1.2719,8.75 1.3314,2.66867 1.9478,2.9554 6.3541,2.9554 4.7813,0 9.9738,1.59398 9.9738,3.06174 0,1.37984 -7.0791,4.92728 -11.1231,5.57394 -3.5214,0.56309 -8.5064,3.67745 -13.8769,8.66945 -2.2145,2.05847 -5,5.61934 -5,6.39185 0,0.37076 -0.9974,1.73584 -2.2165,3.03351 -1.7353,1.84716 -1.9838,2.72957 -1.1445,4.06445 0.9071,1.44257 3.484,1.79836 16.7393,2.31114 8.617,0.33334 15.8441,0.78334 16.0603,1 0.2162,0.21666 3.9185,0.16892 8.2273,-0.10608 6.0748,-0.38772 8.8446,-1.09484 12.3341,-3.14887 z m -1,-26.83706 c -1.375,-1.08328 -2.1074,-1.9796 -1.6276,-1.99183 0.4799,-0.0122 0.3595,-0.64033 -0.2674,-1.39577 -0.893,-1.07595 -0.6022,-1.72592 1.3423,-3 3.2495,-2.12912 5.3503,-2.04724 9.3027,0.36257 3.7633,2.29455 3.9416,2.97434 1.3594,5.18523 -3.1708,2.71498 -7.2944,3.05753 -10.1094,0.8398 z m -35.8,-56.21407 c -0.66,-0.66 -1.2,-3.44113 -1.2,-6.18028 0,-4.15006 0.6915,-6.04163 4.1481,-11.34703 2.2815,-3.50171 4.8712,-6.90808 5.7549,-7.56972 0.8837,-0.66163 2.4944,-2.89047 3.5793,-4.95297 1.0849,-2.0625 2.5248,-3.75 3.1998,-3.75 0.675,0 1.5232,-1.6875 1.8848,-3.75 0.3617,-2.0625 1.2821,-4.74667 2.0453,-5.96482 1.5307,-2.44293 1.9236,-13.28518 0.4814,-13.28518 -0.4985,0 -0.671,-0.9 -0.3833,-2 0.2876,-1.1 0.9064,-2 1.375,-2 0.4685,0 0.6133,-0.62187 0.3216,-1.38193 -0.5908,-1.53958 3.6469,-6.61807 5.5223,-6.61807 0.6599,0 5.1083,-1.97905 9.8853,-4.39788 4.777,-2.41884 15.4355,-7.70634 23.6855,-11.75 8.25,-4.04367 15.15,-7.68962 15.3333,-8.10212 0.1834,-0.4125 0.7513,-0.75 1.2621,-0.75 0.5109,0 4.2789,-1.61174 8.3735,-3.58164 7.8248,-3.76451 10.133,-4.0042 11.8777,-1.23346 1.8029,2.86299 -0.9843,6.27901 -7.6914,9.42656 -3.3854,1.5887 -6.3802,3.16843 -6.6552,3.51052 -0.275,0.34208 -2.75,1.63266 -5.5,2.86795 -22.3063,10.0199 -30.5291,14.1151 -33.4124,16.64039 -0.2269,0.19868 0.1068,1.50098 0.7415,2.894 1.0823,2.37522 0.6834,3.01108 -6.4111,10.2216 -4.9386,5.0194 -8.4258,9.60965 -10.0443,13.22145 -1.3636,3.04295 -3.0987,6.88263 -3.8558,8.53263 -2.9023,6.32529 -5.5179,12.79048 -5.5179,13.63894 0,1.12189 8.0622,-0.0659 9.8065,-1.4448 0.7186,-0.56805 2.6432,-1.17915 4.2768,-1.358 1.6337,-0.17885 3.995,-0.99657 5.2474,-1.81717 2.2939,-1.50299 10.9146,-4.7229 17.9932,-6.7206 4.2013,-1.18567 5.8695,-0.2763 7.1125,3.87713 0.5762,1.92534 -0.2266,2.58652 -6.9818,5.75 -4.1981,1.96597 -8.4662,3.5745 -9.4847,3.5745 -1.0185,0 -2.13,0.45 -2.4699,1 -0.3399,0.55 -1.4964,1 -2.5699,1 -1.0735,0 -3.8595,0.87386 -6.191,1.94191 -2.3315,1.06806 -8.5141,3.34366 -13.7391,5.05689 -9.3648,3.07063 -14.8324,5.18424 -18.2364,7.04964 -2.1733,1.19095 -2.1205,1.19463 -3.5636,-0.24844 z M 379.3897,631.9568 c -3.8898,-4.1244 -3.4157,-5.87642 2.3359,-8.63267 6.7612,-3.24004 11.6612,1.61748 8.7237,8.64798 -2.0747,4.96558 -6.3676,4.95964 -11.0596,-0.0153 z m 188.0752,-1.5086 c -1.9908,-3.22122 4.3545,-8.94316 9.9176,-8.94316 0.95,0 3.6405,-0.87161 5.979,-1.93692 2.3385,-1.06531 6.3715,-2.47065 8.9622,-3.123 2.5907,-0.65234 4.9542,-1.58072 5.2523,-2.06308 0.9681,-1.56633 6.1416,-0.92684 8.5632,1.05849 2.0944,1.71709 2.1915,2.10149 0.8608,3.40671 -0.825,0.80917 -5.55,2.90829 -10.5,4.66471 -22.7105,8.05838 -27.6172,9.23055 -29.0351,6.93625 z M 413.25,629.28455 c -1.2375,-0.59683 -2.25,-1.88605 -2.25,-2.86494 0,-1.90359 -1.1106,-2.39732 -7.6924,-3.41969 -4.6996,-0.72999 -6.2024,-2.05184 -5.6788,-4.99488 0.1957,-1.1 0.6062,-3.8 0.9122,-6 0.9992,-7.18443 1.475,-8.5 3.0738,-8.5 2.2086,0 7.3852,3.19879 7.3852,4.5636 0,0.62281 3.15,4.10055 7,7.7283 3.85,3.62775 7,7.31661 7,8.19746 0,1.95335 -4.4136,6.53653 -6.2045,6.44296 -0.7125,-0.0372 -2.308,-0.55599 -3.5455,-1.15281 z m 81.3067,-38.00202 C 493.7005,590.06016 493,588.28567 493,587.33924 c 0,-2.10798 3.6928,-4.8342 6.5482,-4.8342 2.6738,0 6.4518,3.96971 6.4518,6.77927 0,4.40418 -8.6947,5.92244 -11.4433,1.99822 z M 541,576.4718 c 0,-2.34474 1.0714,-6.14756 2.5592,-9.08358 2.4498,-4.83447 2.51,-5.35665 1.4083,-12.21676 -1.4845,-9.24294 -0.042,-21.03659 2.9378,-24.01619 1.9275,-1.92742 2.1158,-1.94113 3.9435,-0.2871 2.8164,2.54884 4.5371,9.49162 3.2146,12.97022 -1.0004,2.63104 -0.928,2.75971 1.1856,2.1082 3.5377,-1.09046 9.5372,-5.83338 12.0797,-9.54963 1.8232,-2.66496 2.9318,-3.34638 5.1727,-3.17946 4.375,0.32591 5.7609,2.23658 4.4176,6.09007 -0.6131,1.75861 -1.4824,3.19747 -1.9319,3.19747 -0.4494,0 -1.8679,0.87506 -3.1521,1.94457 -8.34,6.94561 -9.8087,8.39724 -10.4087,10.28756 -0.8009,2.52345 -7.0832,12.48323 -9.5319,15.1116 -0.9563,1.02649 -2.2784,3.16908 -2.9379,4.76131 -0.6595,1.59223 -1.7644,2.89496 -2.4554,2.89496 -0.6909,0 -1.8164,0.675 -2.5011,1.5 -2.3357,2.81433 -4,1.7603 -4,-2.53324 z M 234.7983,723.6056 c 1.5971,-0.0699 2.7168,-1.09211 3.6703,-3.35056 2.336,-5.53367 -1.0365,-7.45025 -14.4686,-8.22233 -9.61399,-0.55262 -16.56225,-2.07977 -19.73211,-4.33692 -1.69215,-1.20491 -3.37469,-2.19075 -3.73898,-2.19075 -0.3643,0 -2.15876,-1.14136 -3.9877,-2.53636 -3.30671,-2.52216 -3.4655,-2.53924 -28.3436,-3.04962 -17.15809,-0.35199 -25.22522,-0.17836 -25.67703,0.55268 -0.36233,0.58626 -1.02599,0.83897 -1.47481,0.56159 -1.50789,-0.93193 -6.95794,1.61962 -7.5685,3.54334 -0.83082,2.61768 2.31596,7.60008 5.68015,8.99357 1.52695,0.63249 3.31389,1.79777 3.97099,2.58952 0.6571,0.79176 3.52794,2.54334 6.37965,3.89242 4.92994,2.33223 6.16373,2.45868 25.08843,2.57117 10.94693,0.0651 21.25351,0.43069 22.90351,0.81247 2.39403,0.55394 26.057,0.66166 37.2983,0.16978 z M 70.5,704.10778 c 1.65,-0.24231 8.95303,-0.93754 16.22895,-1.54496 7.27592,-0.60742 13.91342,-1.36705 14.75,-1.68808 0.83658,-0.32102 1.58898,-1.77303 1.67201,-3.22669 0.39374,-6.8937 0.28836,-9.37061 -0.41727,-9.80714 -0.42147,-0.26074 -0.52663,-0.86188 -0.23369,-1.33587 0.29294,-0.47399 0.0753,-1.14446 -0.48369,-1.48992 C 101.45734,684.66966 101,683.59775 101,682.63311 c 0,-0.96464 -1.30422,-3.00341 -2.89827,-4.53061 -2.40831,-2.3073 -3.24133,-2.59312 -4.92756,-1.69067 -2.3144,1.23863 -5.46158,0.4083 -4.85156,-1.28 0.22392,-0.61973 -0.022,-1.95939 -0.54656,-2.97701 -0.80351,-1.55887 -1.66885,-1.74298 -5.49519,-1.16919 -2.49782,0.37457 -5.57467,1.15179 -6.83743,1.72714 -3.61305,1.64621 -6.80018,0.21587 -10.26287,-4.60583 l -3.19964,-4.45543 -5.2795,0.5449 c -4.5114,0.46561 -6.26823,0.0826 -12.07553,-2.63251 -6.40443,-2.99431 -6.93518,-3.08622 -9.21096,-1.59508 -3.6865,2.41549 -3.22057,7.49659 1.51634,16.53622 2.16156,4.125 5.31698,10.25559 7.01204,13.62354 1.69505,3.36795 4.95615,8.25278 7.24688,10.85519 l 4.16497,4.73165 6.07242,-0.58355 C 64.76741,704.81092 68.85,704.35008 70.5,704.10778 z m 117.16799,-15.16337 c 1.95602,-2.67502 1.69622,-3.65388 -2.16799,-8.16834 -1.925,-2.24893 -3.5,-4.52533 -3.5,-5.05867 0,-1.19865 -4.19501,-2.84406 -9.5,-3.7262 -2.2,-0.36582 -4.45,-0.99022 -5,-1.38755 -0.55,-0.39734 -3.475,-1.28841 -6.5,-1.98016 -3.025,-0.69176 -6.4,-1.64764 -7.5,-2.12419 -1.1,-0.47656 -6.27491,-2.08661 -11.49981,-3.57789 -5.22489,-1.49129 -10.17489,-3.04062 -11,-3.44296 -3.37028,-1.64342 -13.87911,-3.6448 -16.84919,-3.20888 -4.23923,0.62219 -7.84261,5.448 -6.3964,8.56636 0.55328,1.19301 1.84146,4.19411 2.8626,6.66911 2.05191,4.9733 9.36281,13.42118 13.43908,15.5291 1.79829,0.92993 9.01701,1.57009 23.03147,2.04243 11.22674,0.37839 21.08725,1.06208 21.91225,1.51933 0.825,0.45725 5.0631,0.68258 9.41799,0.50075 6.253,-0.26109 8.19809,-0.71366 9.25,-2.15224 z M 626.45,663.38633 c 0.5225,-0.48471 2.6297,-0.88129 4.6827,-0.88129 3.7613,0 17.0281,-4.76076 19.1333,-6.86595 0.6237,-0.62373 1.7279,-1.13405 2.4539,-1.13405 1.461,0 6.4178,-3.17478 13.2801,-8.50586 2.475,-1.92273 5.5125,-4.01772 6.75,-4.65553 1.2375,-0.6378 2.2628,-1.64991 2.2784,-2.24913 0.016,-0.59921 1.757,-3.03152 3.8699,-5.40513 8.9071,-10.00651 11.9875,-21.9321 7.9875,-30.92345 -2.5486,-5.72892 -2.389,-7.58363 1.0627,-12.34851 1.6217,-2.23866 3.4559,-5.72226 4.076,-7.74134 0.6201,-2.01908 1.3989,-4.34605 1.7307,-5.17105 1.0783,-2.68088 1.7551,-8.43126 2.8435,-24.16208 0.5865,-8.47735 0.5449,-8.6977 -1.9507,-10.33292 -2.5645,-1.6803 -6.648,-1.30944 -6.648,0.60374 0,0.53569 -1.0125,3.14627 -2.25,5.80129 -1.9782,4.2441 -3.0474,5.21018 -8.8498,7.99631 -5.1923,2.49315 -8.6909,5.34697 -16.4046,13.38133 -20.1998,21.0396 -24.9438,25.71981 -26.6049,26.24702 -0.9383,0.29779 -1.9584,1.19931 -2.2669,2.00338 -0.3086,0.80406 -1.166,1.46193 -1.9053,1.46193 -0.7394,0 -2.605,1.31584 -4.1458,2.92409 -2.2375,2.33546 -2.8939,4.09686 -3.261,8.75 -0.3464,4.39151 -1.0569,6.45491 -2.8856,8.38063 -3.7394,3.93766 -3.1993,5.24783 1.8239,4.42431 2.3375,-0.38322 4.925,-1.26234 5.75,-1.95359 0.825,-0.69125 2.6586,-1.53103 4.0746,-1.86617 2.3115,-0.54705 11.044,-4.40361 14.9254,-6.59151 0.825,-0.46504 3.975,-2.09708 7,-3.62674 3.025,-1.52966 8.795,-4.99033 12.8223,-7.69036 10.7842,-7.23015 13.1947,-4.89519 4.635,4.48976 -3.2641,3.57877 -7.8195,6.29378 -23.6511,14.09604 -10.7846,5.31495 -20.0478,9.66354 -20.5849,9.66354 -0.537,0 -1.5126,0.64607 -2.1679,1.43572 -0.6554,0.78965 -2.5055,1.72431 -4.1115,2.07703 -1.7412,0.38245 -3.6168,1.82117 -4.6465,3.56428 -0.9496,1.60763 -2.0796,2.92297 -2.511,2.92297 -0.4314,0 -0.7844,0.43666 -0.7844,0.97036 0,0.53371 -1.125,3.42987 -2.5,6.43593 -1.375,3.00605 -2.5,5.9151 -2.5,6.46453 0,0.54944 -0.5188,2.26578 -1.1528,3.81408 -2.7384,6.6867 -2.9928,6.52195 8.8988,5.76354 5.9147,-0.37722 11.1815,-1.08244 11.704,-1.56715 z M 178,661.61203 c 0,-0.89704 -2.94163,-2.53135 -4.1426,-2.30155 -1.19487,0.22864 -5.8574,-4.6989 -5.8574,-6.1903 0,-2.61826 3.78358,-2.86353 8.42382,-0.54608 2.42938,1.21329 5.10433,1.94225 5.94433,1.61991 1.80492,-0.69261 4.34084,-5.29986 5.04031,-9.1572 0.27304,-1.50573 1.22879,-3.85539 2.12389,-5.22149 0.8951,-1.36609 1.39206,-2.7192 1.10436,-3.0069 -0.2877,-0.28771 0.57634,-2.26472 1.9201,-4.39337 2.39266,-3.79022 3.13907,-8.42115 1.67788,-10.41001 -0.40408,-0.55 -2.30969,-1.87746 -4.23469,-2.94991 -1.925,-1.07245 -4.32289,-2.71387 -5.32864,-3.64759 -1.6777,-1.55756 -1.70378,-1.93912 -0.31593,-4.62292 0.83198,-1.60889 2.21737,-3.51007 3.07863,-4.22486 0.86127,-0.71478 1.56594,-1.91951 1.56594,-2.67716 0,-0.75766 0.525,-1.37756 1.16667,-1.37756 0.64166,0 0.87057,-0.2961 0.50867,-0.65799 -0.36189,-0.3619 -0.20959,-1.19828 0.33846,-1.85863 1.38617,-1.67024 -2.01298,-5.78058 -6.56781,-7.94199 -4.21645,-2.00083 -3.74016,-3.04139 1.39213,-3.04139 3.46089,0 3.70951,-0.21955 4.52971,-4 0.4773,-2.2 1.70476,-6.925 2.72767,-10.5 2.0736,-7.24704 2.66662,-12.95785 1.53559,-14.7879 -1.10709,-1.7913 -4.66888,-1.47571 -8.89227,0.7879 -4.36913,2.34171 -6.59681,2.53363 -7.32683,0.63124 -0.60162,-1.56778 2.88919,-8.26895 5.68272,-10.90892 3.0207,-2.85465 3.37629,-6.25211 1.00319,-9.58483 -2.17855,-3.05949 -2.77093,-6.13749 -1.18119,-6.13749 1.49002,0 7.08329,-12.39433 7.08329,-15.69614 0,-2.43386 -0.79127,-3.56173 -3.97856,-5.67097 -2.18821,-1.44809 -4.38311,-2.63289 -4.87756,-2.63289 -2.2815,0 -3.45527,-3.5824 -3.69593,-11.28023 -0.42779,-13.68285 -1.52348,-20.47815 -3.60582,-22.36264 -1.7638,-1.59622 -2.11102,-1.59933 -5.364,-0.0481 -1.91297,0.91223 -3.47813,2.28578 -3.47813,3.05234 0,0.76655 -0.70393,1.97794 -1.56429,2.69197 -0.97451,0.80878 -1.35015,2.15141 -0.99633,3.56116 0.31238,1.24461 0.16951,2.50917 -0.31748,2.81015 -1.0801,0.66754 0.44485,9.07383 2.28126,12.57534 1.60113,3.05293 2.03631,12.71391 0.72773,16.15574 -0.52649,1.38476 -2.57555,4.23365 -4.55349,6.33087 -1.97793,2.09722 -3.49759,4.30819 -3.37702,4.91326 0.12058,0.60507 -0.29194,2.02093 -0.9167,3.14635 -1.31367,2.36639 -1.78896,18.07069 -0.72497,23.95378 0.39789,2.2 1.317,5.18045 2.04248,6.62322 0.72547,1.44276 1.10112,2.84114 0.83476,3.1075 -0.26635,0.26635 0.20159,1.0535 1.03988,1.74922 0.8383,0.69572 1.52417,1.82297 1.52417,2.505 0,1.43563 6.48013,10.26493 11.75,16.00958 2.87078,3.12943 0.32866,4.65985 -5.62134,3.38418 -4.77268,-1.02326 -5.86077,-0.32113 -8.65471,5.58478 -1.84745,3.9052 -2.47395,6.88734 -2.47395,11.77603 0,7.07797 -1.43677,8.96884 -4.94683,6.51029 C 150.23922,611.98429 150,611.51281 150,609.20815 150,607.63299 141.26455,594.14009 139.94155,593.67171 139.4237,593.48837 139,592.70681 139,591.9349 c 0,-0.77191 -2.1375,-3.62825 -4.75,-6.34741 -2.6125,-2.71917 -7.78616,-8.1251 -11.49703,-12.01319 -3.71087,-3.8881 -6.92815,-7.06926 -7.14951,-7.06926 -0.85757,0 -10.30403,-6.70057 -12.39669,-8.79323 -1.21372,-1.21372 -3.06482,-2.20677 -4.11355,-2.20677 -1.04873,0 -4.93916,-1.36053 -8.6454,-3.02341 -6.46704,-2.90157 -6.81702,-2.95245 -8.68429,-1.26259 -1.72544,1.5615 -1.85572,2.49799 -1.15099,8.27341 0.43707,3.58192 0.6947,8.48142 0.57251,10.88776 -0.12219,2.40635 0.24636,4.93972 0.81901,5.62973 0.57266,0.69 0.96308,3.46134 0.86762,6.15852 -0.20217,5.71202 1.21698,8.92043 4.37726,9.89611 1.23808,0.38223 7.32004,3.11271 13.51546,6.06772 6.19542,2.95501 11.57763,5.37275 11.96046,5.37275 0.38284,0 3.5247,1.4625 6.98191,3.25 4.86076,2.51319 6.28667,3.75578 6.28953,5.48095 0.006,3.48963 -3.76255,3.78652 -10.95678,0.86324 -3.44616,-1.4003 -7.90235,-2.84241 -9.90264,-3.20468 -2.00028,-0.36227 -5.28371,-1.3057 -7.2965,-2.09651 -3.24138,-1.27351 -4.01281,-1.25519 -6.75,0.16026 C 88.55173,609.27109 88,610.16614 88,612.9717 c 0,1.87842 0.43777,3.68586 0.97282,4.01655 0.53506,0.33068 1.47552,2.49473 2.08993,4.80901 1.20159,4.52606 3.91792,10.89385 4.99422,11.70778 0.36364,0.275 1.28064,2.23079 2.03777,4.34619 0.78481,2.19273 2.46064,4.40677 3.89824,5.15018 2.21132,1.14352 15.80926,4.84575 33.00702,8.98663 3.025,0.72837 10.9,2.76043 17.5,4.51569 6.6,1.75527 14.13099,3.51712 16.73553,3.91522 2.60454,0.3981 5.04204,1.03033 5.41667,1.40495 0.98605,0.98606 3.3478,0.83659 3.3478,-0.21187 z M 148.60699,629.92325 C 148.27314,629.05327 148,627.42579 148,626.30662 c 0,-1.65395 -0.42117,-1.90192 -2.25,-1.32472 -5.81252,1.83448 -7.87241,1.76887 -9.81152,-0.31252 -2.42104,-2.59868 -2.42585,-2.53542 0.42619,-5.61282 2.93299,-3.16474 3.6055,-3.16965 7.22979,-0.0527 2.20961,1.90027 4.03483,2.49907 7.62036,2.5 3.63715,9.4e-4 4.95142,0.44333 5.75,1.93548 1.81417,3.38981 1.26161,6.7718 -1.21482,7.43545 -3.87999,1.0398 -6.51349,0.689 -7.14301,-0.9515 z M 89.42676,657.3514 c 1.97376,-3.95649 1.97595,-5.26725 0.0116,-6.89756 C 87.64789,648.96793 82,637.32359 82,635.11817 c 0,-0.80865 -0.61563,-2.0859 -1.36807,-2.83834 -0.75244,-0.75244 -1.70749,-2.43749 -2.12233,-3.74455 -1.22669,-3.86496 -3.74324,-5.84232 -9.03039,-7.09555 -2.73857,-0.64914 -6.17364,-1.8 -7.6335,-2.55747 -1.45986,-0.75747 -3.5708,-1.37722 -4.69098,-1.37722 -1.12018,0 -2.28328,-0.39899 -2.58467,-0.88664 -0.30138,-0.48765 -2.12794,-1.18304 -4.05901,-1.54531 C 48.57997,614.71082 47,613.97068 47,613.42834 c 0,-0.54234 -0.77406,-1.2831 -1.72013,-1.64615 -0.94607,-0.36304 -5.89369,-3.48974 -10.9947,-6.94823 -9.29132,-6.29951 -13.25268,-8.08507 -15.22833,-6.86405 C 18.38842,598.38302 18,604.28293 18,614.02296 c 0,12.67998 0.30777,15.99767 1.74257,18.78452 2.13315,4.14327 9.00771,8.24332 19.25743,11.4853 4.125,1.30473 8.4,2.76053 9.5,3.23509 5.14659,2.22036 23.29617,7.97717 25.14974,7.97717 1.1443,0 3.16867,0.85592 4.49859,1.90204 2.13035,1.67573 4.48667,2.49404 8.52843,2.96178 0.64722,0.0749 1.88471,-1.28296 2.75,-3.01746 z m 201.96914,-2.2862 c 2.8415,-2.32348 5.6009,-7.92426 6.0328,-12.24511 0.1202,-1.20172 0.6852,-2.77672 1.2556,-3.5 0.5704,-0.72328 1.8375,-5.59005 2.8157,-10.81505 0.9782,-5.225 2.1933,-10.02912 2.7002,-10.67581 0.5068,-0.6467 0.8232,-1.7717 0.703,-2.5 -0.1203,-0.72831 0.04,-1.99919 0.3556,-2.82419 0.6452,-1.68566 2.0138,-6.97282 2.2002,-8.5 0.2506,-2.05355 -4.6935,-8.34203 -7.0171,-8.92522 -3.1179,-0.78255 -4.1201,-4.72022 -2.5487,-10.01436 0.6628,-2.23323 1.7153,-5.86042 2.3388,-8.06042 1.1807,-4.166 2.8671,-6.5 4.6966,-6.5 1.3668,0 1.1648,-1.03057 2.0579,10.5 1.0115,13.05848 1.7386,16.37992 4.3785,20 1.2032,1.65 3.0758,4.73886 4.1613,6.86413 1.0855,2.12527 3.4266,4.98385 5.2023,6.35239 2.7616,2.12833 3.9189,2.40204 8,1.89216 6.9759,-0.87151 9.2653,-1.32627 14.2714,-2.83479 3.9153,-1.17983 4.6716,-1.87037 5.8204,-5.31495 0.7262,-2.17742 1.5214,-9.01305 1.7669,-15.19029 0.5122,-12.88245 -0.4805,-16.89395 -7.7372,-31.26865 -2.3601,-4.675 -4.1681,-8.90876 -4.0178,-9.40836 0.1503,-0.4996 -0.088,-1.1746 -0.5304,-1.5 -1.9687,-1.44917 -5.1974,-10.11426 -5.8098,-15.59164 -0.3689,-3.3 -1.1651,-7.44649 -1.7694,-9.21442 -0.801,-2.34329 -0.7979,-3.83382 0.012,-5.5 1.2367,-2.54592 2.3541,-6.82768 2.9057,-11.13461 0.2007,-1.56697 1.2185,-4.04777 2.2618,-5.5129 1.0432,-1.46512 3.4774,-6.03983 5.4092,-10.16602 1.9318,-4.12619 4.5014,-8.39539 5.7103,-9.48711 3.0623,-2.76572 11.9788,-14.07142 11.9788,-15.18867 0,-0.50609 1.35,-1.91825 3,-3.13815 1.65,-1.2199 3,-2.82442 3,-3.56561 0,-0.74119 0.7079,-1.93512 1.5731,-2.65317 0.8652,-0.71805 2.5039,-3.13565 3.6416,-5.37244 1.1377,-2.2368 3.3548,-5.63193 4.9269,-7.54474 1.5721,-1.91282 2.8641,-3.93782 2.8711,-4.5 0.01,-0.56219 1.3569,-3.67307 3,-6.91308 1.643,-3.24001 2.9873,-6.70095 2.9873,-7.69098 0,-0.99004 0.45,-2.07818 1,-2.4181 0.55,-0.33992 1.0028,-1.37898 1.0062,-2.30902 0,-0.93004 0.7263,-3.04098 1.6065,-4.69098 0.8802,-1.65 1.8128,-5.925 2.0723,-9.5 0.2596,-3.575 0.7194,-7.175 1.0219,-8 1.4926,-4.07118 -0.694,-21.25595 -2.8762,-22.60466 -0.4569,-0.28236 -0.8307,-1.52049 -0.8307,-2.75141 0,-2.27056 -5.6807,-8.47813 -9.5824,-10.47119 -5.243,-2.67821 -17.4613,-1.80253 -28.4176,2.03668 -14.557,5.10093 -14.6533,5.11611 -20.0824,3.16382 -5.4469,-1.95867 -9.5964,-5.41369 -11.0352,-9.18834 -1.8238,-4.78478 -1.0096,-10.94811 2.1176,-16.03048 1.65,-2.68159 3,-5.2295 3,-5.66203 0,-3.15408 13.5166,-15.27921 18.2836,-16.40141 3.1515,-0.7419 16.6525,-0.514 20.2164,0.34127 1.65,0.39596 8.3253,1.02319 14.8339,1.39384 11.7919,0.67152 11.8444,0.68564 14.7863,3.98029 1.6238,1.8185 3.2136,4.61235 3.5328,6.20855 0.3433,1.71674 2.5751,4.73958 5.4637,7.40046 2.6858,2.47406 4.8924,4.8552 4.9034,5.29145 0.011,0.43624 0.478,3.71816 1.0376,7.29316 0.5596,3.575 1.2585,8.075 1.5531,10 0.2945,1.925 0.624,6.28394 0.7322,9.68652 0.1082,3.40259 0.5253,6.51509 0.9269,6.91667 1.0411,1.04116 0.766,24.84037 -0.363,31.39681 -1.4656,8.51142 -2.7855,13 -3.8226,13 -0.3754,0 -1.2778,1.6875 -2.0053,3.75 -0.7275,2.0625 -2.7304,5.68266 -4.4509,8.04479 -9.1797,12.60344 -11.5984,15.84855 -12.8953,17.30122 -0.7837,0.87781 -2.8285,3.63617 -4.5441,6.12968 -1.7156,2.49352 -3.8098,4.79869 -4.654,5.1226 -0.8441,0.32392 -1.5347,1.51719 -1.5347,2.65171 0,1.13452 -0.675,2.32179 -1.5,2.63837 -0.825,0.31659 -1.5,1.17695 -1.5,1.91191 0,0.73497 -0.7875,1.92578 -1.75,2.64625 -2.1464,1.60666 -8.25,9.37804 -8.25,10.50428 0,0.44996 -0.9,1.38016 -2,2.06712 -1.1,0.68696 -2,1.74428 -2,2.3496 0,0.60532 -0.8986,2.064 -1.997,3.24152 -7.1224,7.63603 -11.4628,13.85133 -12.6683,18.14095 -1.955,6.95617 -3.2964,16.93831 -2.397,17.83771 0.5843,0.58426 1.0623,2.25514 1.0623,3.71307 0,3.01268 1.7861,8.80626 3.3166,10.75838 0.5646,0.72004 1.1549,2.51358 1.3119,3.98564 0.1569,1.47206 0.7775,2.84054 1.3791,3.04108 0.6017,0.20054 2.167,2.06452 3.4786,4.14218 3.4042,5.39268 13.7585,10.9898 22.3741,12.09462 7.0216,0.90041 23.8891,-0.52248 25.5897,-2.15867 0.5225,-0.5027 1.5795,-0.91401 2.3489,-0.91401 0.7694,0 2.8169,-0.63397 4.55,-1.40881 1.7331,-0.77485 4.2761,-1.65194 5.6511,-1.9491 7.6528,-1.65386 17.6626,-5.94021 19.6279,-8.40493 l 2.1457,-2.691 -6.3868,-7.13613 c -3.5127,-3.92487 -6.3868,-7.49011 -6.3868,-7.92274 0,-0.43264 -2.1375,-2.97137 -4.75,-5.64162 -7.7532,-7.92456 -8.9951,-9.54328 -10.2581,-13.37021 -0.662,-2.00585 -2.4453,-5.0709 -3.9628,-6.81123 -1.5176,-1.74033 -3.0808,-4.28923 -3.4737,-5.66423 -0.3929,-1.375 -1.4661,-4.075 -2.3849,-6 -1.1978,-2.50964 -1.6705,-6.18811 -1.6705,-13 0,-9.13645 0.147,-9.76788 3.8414,-16.5 6.0813,-11.08172 11.44,-19.74997 14.2187,-23 4.1468,-4.85029 12.4399,-16.51407 12.4399,-17.49602 0,-0.49753 0.6283,-1.26446 1.3963,-1.70429 1.4773,-0.84615 7.6037,-12.81446 7.6037,-14.85446 0,-0.66019 0.6398,-1.73135 1.4218,-2.38035 0.782,-0.64901 1.7329,-3.06661 2.1131,-5.37245 0.3802,-2.30584 1.1291,-4.73522 1.6643,-5.39863 0.5351,-0.6634 0.7335,-1.59363 0.4409,-2.06717 -0.2927,-0.47353 0.169,-2.85575 1.026,-5.2938 1.8223,-5.18416 3.0943,-35.93283 1.4865,-35.93283 -0.5307,0 -1.2743,-2.3625 -1.6525,-5.25 -0.3782,-2.8875 -1.2836,-6.48297 -2.0122,-7.98993 -0.7285,-1.50697 -1.6221,-4.09447 -1.9857,-5.75 -0.3636,-1.65554 -1.0754,-3.01007 -1.5817,-3.01007 -0.5062,0 -0.9205,-0.62004 -0.9205,-1.37788 0,-5.93642 -15.1023,-26.62212 -19.4364,-26.62212 -0.7253,0 -1.8789,-0.675 -2.5636,-1.5 -0.6847,-0.825 -1.7523,-1.49896 -2.3724,-1.49769 -2.0046,0.004 -14.6276,-9.16929 -14.6276,-10.63012 0,-0.77829 -1.2375,-1.91145 -2.75,-2.51814 -1.5125,-0.60669 -3.7169,-1.54866 -4.8986,-2.09327 -1.1817,-0.54461 -4.1067,-0.6833 -6.5,-0.30821 -2.3933,0.37508 -7.1256,0.82024 -10.5162,0.98923 -8.5872,0.42799 -19.0919,2.40817 -23.8352,4.49301 -17.775,7.81273 -29.4256,15.14895 -29.4832,18.56519 -0.01,0.55 -1.6286,2.28605 -3.5986,3.85789 -1.97,1.57184 -4.4077,4.78476 -5.4172,7.13983 -1.0095,2.35507 -2.3227,4.58308 -2.9182,4.95113 -0.5956,0.36805 -1.0828,1.39469 -1.0828,2.28143 0,0.88673 -0.7457,2.43626 -1.6572,3.44341 -1.8207,2.01192 -4.5786,13.48906 -4.4432,18.4907 0.047,1.74042 1.4609,6.13548 3.1417,9.76681 2.8526,6.163 3.1153,8.5688 0.9357,8.5688 -0.4977,0 -6.091,2.45539 -12.4294,5.45643 -6.3385,3.00104 -13.4422,6.11584 -15.7861,6.92178 -2.3438,0.80594 -8.6418,3.50747 -13.9955,6.0034 -7.39,3.44524 -9.5917,4.90895 -9.143,6.07822 0.325,0.8471 1.7803,1.55448 3.234,1.57197 5.9606,0.0717 7.7647,5.09338 2.3208,6.45972 -3.8485,0.96592 -15.8463,8.78827 -21.6089,14.08862 -2.7121,2.49456 -7.3339,5.71209 -10.2706,7.15006 -6.84246,3.35043 -8.33796,5.03641 -5.99016,6.75316 2.21716,1.62123 5.56276,0.42567 25.08586,-8.96455 4.0237,-1.93535 7.9436,-3.52158 8.7109,-3.52497 0.7673,-0.003 2.6996,-0.68644 4.2939,-1.51789 1.5943,-0.83144 3.1058,-1.3047 3.3588,-1.05168 0.253,0.25302 3.4308,-1.08894 7.0618,-2.98212 3.6309,-1.89318 7.3804,-3.44215 8.3321,-3.44215 0.9518,0 1.9591,-0.3699 2.2385,-0.82201 0.2794,-0.4521 3.7935,-2.06644 7.809,-3.58741 9.9189,-3.757 23.801,-10.5599 23.801,-11.66366 0,-1.88176 7.8232,-4.17431 15.8501,-4.64484 5.9147,-0.3467 9.998,-0.0231 14,1.10949 5.6407,1.59636 15.5349,5.42782 17.8999,6.93163 1.7541,1.11538 1.6335,14.41809 -0.1619,17.85944 -0.7698,1.47545 -1.6833,3.97416 -2.03,5.55269 -1.3861,6.31101 -5.7835,12.71278 -14.7051,21.4079 -5.0915,4.96233 -10.8539,9.90856 -12.8052,10.99164 -6.7748,3.76039 -11.2985,6.65257 -11.9214,7.62184 -0.3445,0.53604 -2.6514,1.98647 -5.1264,3.22318 -2.475,1.2367 -5.85,3.25904 -7.5,4.49409 -1.65,1.23505 -5.925,3.71827 -9.5,5.51827 -5.8435,2.94219 -9.4987,5.37993 -14,9.33689 -0.825,0.72523 -2.9625,1.90246 -4.75,2.61605 -1.7875,0.7136 -3.25,1.70014 -3.25,2.19231 0,0.49217 -1.575,1.64592 -3.5,2.56389 -1.925,0.91797 -3.5,2.27481 -3.5,3.01521 0,0.74039 -0.7875,1.64193 -1.75,2.00341 -1.7328,0.65077 -7.25,5.99686 -7.25,7.02515 0,0.2935 -1.3713,2.76234 -3.0474,5.4863 -4.0565,6.59273 -4.9292,11.55914 -5.0242,28.59451 -0.083,14.97121 1.7629,39.95247 3.0803,41.67403 0.4208,0.55 1.0919,3.025 1.4913,5.5 0.3994,2.475 1.1698,5.04983 1.7122,5.72185 1.2181,1.50953 2.1087,15.95659 1.0843,17.5894 -0.4102,0.65381 -0.8956,2.27907 -1.0785,3.61169 -0.183,1.33261 -0.7326,3.1701 -1.2213,4.0833 -0.4888,0.9132 -0.9716,5.75891 -1.0729,10.76824 -0.1431,7.0714 0.1619,9.45412 1.3642,10.65641 0.8517,0.8517 1.8218,2.79067 2.1558,4.30882 0.3361,1.52833 2.0463,3.7565 3.8317,4.99237 1.7735,1.22765 4.609,3.54007 6.3012,5.13872 2.6177,2.47305 10.0573,6.54472 15.4233,8.44118 3.6527,1.29093 8.6059,0.5295 11.3959,-1.75182 z m -16.2073,-37.59912 c -3.8111,-3.55055 -2.2747,-15.5628 2.2106,-17.28398 0.8102,-0.31092 2.6315,0.34585 4.0473,1.45949 2.3347,1.83651 2.5623,2.64498 2.4478,8.69412 -0.069,3.66813 -0.5792,7.23183 -1.1327,7.91933 -1.5136,1.87981 -5.1107,1.50506 -7.573,-0.78896 z m 49.7893,-39.52794 c -1.0323,-3.12805 -0.9496,-3.74244 0.6725,-4.99354 2.7754,-2.1407 6.56,-1.34488 8.2849,1.7421 1.3674,2.44735 1.3348,2.86239 -0.3734,4.75 -1.0335,1.14196 -3.1114,2.06834 -4.6393,2.06834 -2.286,0 -2.9723,-0.62052 -3.9447,-3.5669 z m -57.4151,-6.03899 c -0.4159,-1.65706 -0.083,-3.47761 0.9146,-5 2.1055,-3.21333 5.0998,-3.4701 9.2685,-0.79477 l 2.2458,1.44134 -2.2458,3.46728 c -1.8813,2.90442 -2.8371,3.46929 -5.8875,3.47966 -3.0945,0.0105 -3.7398,-0.37911 -4.2956,-2.59351 z m 1.4596,-177.83508 c -1.2317,-3.23981 1.3266,-8.55903 4.1166,-8.55903 3.8777,0 5.861,1.8814 5.861,5.55993 0,2.82569 -0.488,3.67511 -2.5651,4.46482 -4.2099,1.60059 -6.4122,1.1651 -7.4125,-1.46572 z m -27.0726,242.49316 c 1.1425,-0.72276 1.4874,-3.97128 1.6275,-15.32534 0.1738,-14.09339 0.5675,-16.24171 4.3486,-23.72685 2.365,-4.68187 -2.0362,-5.1212 -10.4035,-1.03849 -3.2876,1.60419 -6.0442,2.83161 -6.1257,2.7276 -0.9574,-1.22153 -1.3006,-4.68911 -0.4641,-4.68911 0.5871,0 1.0674,-0.52236 1.0674,-1.1608 0,-0.63844 1.3622,-2.37699 3.0272,-3.86345 2.6047,-2.32548 2.8924,-3.05705 2.0617,-5.24206 -1.2975,-3.41249 -2.3211,-3.89844 -11.0889,-5.26423 -1.375,-0.21419 -5.65,-0.91114 -9.5,-1.54878 -8.96666,-1.48508 -15.10912,-1.48998 -16.88821,-0.0135 -0.93775,0.77827 -1.24163,2.4031 -0.91262,4.87978 0.27129,2.04215 0.7079,7.313 0.97025,11.713 1.13014,18.9542 1.58097,21.87724 4.07879,26.44548 3.89032,7.11495 8.6008,11.41907 14.80525,13.52803 3.05324,1.03781 5.77924,2.25583 6.05794,2.70671 0.693,1.12134 15.5368,1.01173 17.3384,-0.12803 z M 70.47254,604.88964 c 1.24998,-1.24997 1.46352,-2.66379 0.94401,-6.25 -0.36926,-2.54903 -0.92164,-5.06278 -1.22752,-5.5861 -0.30587,-0.52333 -0.64589,-2.99833 -0.75559,-5.5 -0.39421,-8.98973 -1.04574,-10.38031 -6.93344,-14.79815 -0.55,-0.41269 -2.8,-1.6104 -5,-2.66157 -9.66146,-4.61628 -11.67985,-5.96361 -18.12386,-12.09825 -3.74982,-3.56979 -7.14976,-6.49053 -7.55542,-6.49053 -0.40566,0 -5.2435,-4.53438 -10.75076,-10.0764 -11.49061,-11.56315 -13.6211,-12.21748 -13.9215,-4.27568 -0.096,2.53862 0.26792,5.14886 0.80876,5.80054 0.54084,0.65167 1.23033,3.62986 1.53219,6.6182 0.30186,2.98834 0.98112,7.45834 1.50947,9.93334 0.52835,2.475 1.45929,7.425 2.06875,11 1.40414,8.23646 3.68927,12.963 6.90634,14.285 5.25104,2.15783 22.87873,10.10677 31.77221,14.3272 5.08539,2.41329 9.81039,4.40211 10.49999,4.4196 0.68961,0.0175 2.12734,0.6925 3.19496,1.5 2.4554,1.85718 3.04427,1.83995 5.03141,-0.1472 z M 632.9711,589.05913 c 0.716,-1.33799 3.9405,-4.79225 7.1654,-7.67615 3.2249,-2.8839 5.8635,-5.60984 5.8635,-6.05763 0,-0.4478 4.725,-5.51064 10.5,-11.25075 5.775,-5.74012 10.5,-10.70624 10.5,-11.03584 0,-0.32959 4.725,-5.28435 10.5,-11.01056 5.775,-5.72622 10.5,-10.75851 10.5,-11.18288 0,-0.42437 1.9859,-2.81204 4.413,-5.30593 4.8073,-4.9395 7.0382,-10.71737 5.5993,-14.50192 -0.8958,-2.35616 -5.957,-6.53243 -7.9167,-6.53243 -1.7759,0 -1.254,-1.84484 0.8387,-2.96482 1.0638,-0.56935 2.7615,-1.03518 3.7726,-1.03518 1.3428,0 2.1018,-1.14564 2.8157,-4.25 2.1669,-9.42249 -0.5314,-15.42119 -5.6939,-12.65832 -2.4896,1.33242 -7.1696,6.62308 -7.4304,8.40005 -0.3477,2.36914 -8.7016,16.68744 -10.0346,17.19896 -0.75,0.28781 -1.3637,1.09667 -1.3637,1.79747 0,0.70079 -3.9375,4.99911 -8.75,9.55181 -4.8125,4.55269 -8.975,8.85855 -9.25,9.56856 -0.6431,1.66036 -17.0389,18.39147 -18.0229,18.39147 -0.4091,0 -1.0069,0.7875 -1.3285,1.75 -0.3216,0.9625 -1.9797,4.225 -3.6848,7.25 -2.1712,3.85201 -2.9396,6.31238 -2.5647,8.21123 0.2945,1.49117 0.1001,2.98023 -0.4318,3.30901 -0.532,0.32879 -0.9673,3.07582 -0.9673,6.10452 0,3.0287 -0.3995,6.26464 -0.8878,7.19098 -0.4884,0.92634 -0.6586,4.02123 -0.3783,6.87752 0.4999,5.09402 0.5519,5.16556 2.7224,3.74339 1.2171,-0.79742 2.7987,-2.54458 3.5148,-3.88256 z m -483.58334,-7.43006 c 3.86653,-4.27247 3.22882,-15.7282 -1.17283,-21.06832 -5.753,-6.9796 -17.83569,-20.66157 -20.35694,-23.05141 C 124.60741,534.4282 119,523.43315 119,520.14055 c 0,-2.83949 2.61925,-4.19639 4.72573,-2.44817 1.69905,1.41009 9.77082,11.80367 10.37106,13.35426 0.75844,1.95924 8.40197,12.43469 9.08178,12.44655 0.37322,0.007 1.38572,-0.69529 2.25,-1.55958 1.79238,-1.79238 2.24468,-12.89444 0.56755,-13.93097 -0.59329,-0.36667 -0.83013,-3.76513 -0.57906,-8.30902 0.37179,-6.72864 0.15125,-8.06314 -1.76644,-10.68858 -1.2052,-1.65 -2.85712,-4.32393 -3.67094,-5.94208 -0.81383,-1.61814 -2.71718,-4.30593 -4.22968,-5.97286 -1.5125,-1.66693 -2.75,-3.60549 -2.75,-4.30792 0,-0.70243 -0.46114,-1.27714 -1.02475,-1.27714 -0.56361,0 -1.4771,-1.18977 -2.02998,-2.64394 -0.55287,-1.45417 -2.34173,-4.33143 -3.97525,-6.39391 -1.63351,-2.06248 -2.97196,-4.1352 -2.97432,-4.60605 -0.002,-0.47086 -1.75513,-3.16532 -3.89504,-5.9877 -2.1399,-2.82238 -4.17042,-6.01283 -4.51226,-7.08989 -0.58766,-1.85155 -2.8239,-3.36921 -6.8908,-4.67655 -2.39825,-0.77095 -5.92526,1.65719 -8.9993,6.19548 -2.01629,2.97671 -2.52869,5.01297 -2.61374,10.38698 -0.0582,3.67643 0.34898,6.96549 0.90482,7.30902 0.55584,0.34353 1.01062,1.65329 1.01062,2.91059 0,1.2573 0.87449,3.0774 1.94332,4.04467 1.06883,0.96728 2.21799,3.00926 2.5537,4.53773 0.33571,1.52848 2.2147,4.65333 4.17553,6.94412 1.96083,2.2908 3.28101,4.44922 2.93373,4.7965 -0.34728,0.34728 -4.01683,-1.04253 -8.15456,-3.08848 C 97.314,502.09766 91.35715,499.91333 88.21429,499.28953 82.69347,498.19376 77,495.10555 77,493.20676 c 0,-0.50719 -1.92963,-2.82449 -4.28808,-5.14957 -3.73895,-3.68606 -4.96747,-6.13705 -9.59353,-19.13978 -2.91801,-8.2018 -5.88832,-16.26237 -6.6007,-17.91237 -0.71237,-1.65 -1.59856,-4.125 -1.96931,-5.5 -0.37074,-1.375 -1.08651,-3.4 -1.59059,-4.5 -0.99546,-2.17228 -3.21363,-7.69328 -3.41503,-8.5 -0.0687,-0.275 -0.9879,-2.975 -2.04276,-6 -1.05486,-3.025 -1.97526,-5.725 -2.04533,-6 -0.34196,-1.34206 -1.80358,-4.90147 -3.53537,-8.60953 C 40.86368,409.63527 40,407.13377 40,406.33664 40,405.5395 39.41921,404.09302 38.70935,403.12222 37.61938,401.63161 37.01638,401.54046 34.8314,402.536 30.45103,404.53183 24,422.032 24,431.91914 c 0,2.33891 -0.31152,4.56409 -0.69227,4.94484 -0.38075,0.38075 -0.75121,3.04325 -0.82325,5.91666 -0.072,2.87342 -0.44097,7.4744 -0.81986,10.2244 -0.37889,2.75 -0.34593,5.45 0.0733,6 1.23617,1.62198 5.08478,3.5 7.17251,3.5 1.06563,0 2.98423,1.36522 4.26357,3.03382 1.27933,1.66859 3.56355,4.38411 5.07605,6.03447 1.5125,1.65037 2.75,3.33676 2.75,3.74754 0,0.41079 2.25,3.10587 5,5.98908 2.75,2.88321 5,5.51456 5,5.84744 0,0.56904 3.87201,5.30575 9.51374,11.63838 1.36745,1.5349 2.48626,3.02145 2.48626,3.30343 0,0.95298 5.49353,7.40578 6.30487,7.40581 0.44267,2e-5 2.78383,-0.90149 5.20257,-2.00336 6.78651,-3.09161 8.3248,-2.94898 11.62713,1.07805 l 2.93136,3.57467 -1.50922,5.79425 c -0.83006,3.18685 -2.0824,6.48893 -2.78296,7.33796 -1.01357,1.22839 -1.01842,1.62964 -0.0238,1.96441 0.6875,0.2314 1.25,0.97839 1.25,1.66 0,1.1794 3.60753,4.7748 28.11754,28.02308 28.93828,27.4486 31.28884,29.09437 35.27022,24.695 z m 80.45584,-10.11038 c 2.496,-0.0102 3.4762,-0.52068 3.8667,-2.01365 0.2876,-1.1 0.8717,-2 1.2979,-2 0.7492,0 2.3162,-4.27005 2.4512,-6.67942 0.036,-0.64868 0.3979,-1.51118 0.8034,-1.91667 1.3822,-1.38222 0.7414,-5.02225 -1.2628,-7.17354 -1.1,-1.18071 -2,-2.45671 -2,-2.83556 0,-0.37886 -1.575,-2.61091 -3.5,-4.96011 -1.925,-2.34921 -3.5,-4.55843 -3.5,-4.90938 0,-0.87147 -10.09192,-10.49643 -12.18426,-11.62049 -3.20969,-1.72434 -6.39218,-0.93791 -9.49043,2.34517 -4.78776,5.0734 -6.72363,11.45886 -6.01966,19.85584 0.32584,3.88653 1.00331,7.59017 1.5055,8.23029 0.50219,0.64013 1.20633,2.39193 1.56475,3.89288 0.49824,2.08649 2.11992,3.47086 6.88788,5.87993 7.16508,3.62024 11.38642,4.90247 14.23622,4.3242 1.1,-0.22321 3.5046,-0.41198 5.3436,-0.41949 z M 70.15089,562.75415 c 1.08591,-1.08591 0.70285,-10.86451 -0.59736,-15.24911 -0.40775,-1.375 -0.72348,-3.33507 -0.70163,-4.35571 0.0219,-1.02064 -1.00304,-3.50756 -2.27754,-5.5265 -1.2745,-2.01894 -2.64059,-5.14283 -3.03575,-6.94198 -0.39516,-1.79915 -1.578,-3.80797 -2.62854,-4.46404 C 59.85953,525.56073 59,524.59865 59,524.07885 c 0,-0.5198 -1.8,-3.07979 -4,-5.68886 -2.2,-2.60907 -4,-5.18553 -4,-5.72546 0,-0.53994 -1.35,-2.11765 -3,-3.50604 -1.65,-1.38838 -3,-2.78282 -3,-3.09876 0,-0.31594 -2.8125,-3.97573 -6.25,-8.13287 -3.4375,-4.15714 -7.6,-9.954 -9.25,-12.88191 -3.58321,-6.35838 -5.34644,-8.53991 -6.9024,-8.53991 -1.71517,0 -8.14485,7.15402 -7.80376,8.68291 0.16161,0.7244 -0.22835,1.31709 -0.86658,1.31709 -0.70801,0 -0.96822,1.00539 -0.66744,2.57882 0.2981,1.55943 -0.009,2.77156 -0.77773,3.06643 -1.44547,0.55467 -1.2356,4.24482 0.68507,12.04567 0.9162,3.72117 1.93083,5.48833 3.58352,6.24134 1.268,0.57774 2.59374,1.84183 2.9461,2.80909 0.59532,1.63421 4.39058,6.64787 7.82913,10.34254 0.81075,0.87114 1.47409,2.08628 1.47409,2.70031 0,0.61403 0.5625,1.47628 1.25,1.91611 0.6875,0.43983 3.35672,3.49969 5.93159,6.79969 2.57488,3.3 5.61238,6.94736 6.75,8.10524 1.13763,1.15788 2.06841,2.44446 2.06841,2.85905 0,0.4146 0.85098,1.71724 1.89107,2.89476 12.00462,13.59083 14.35544,15.41947 19.41566,15.10302 1.5437,-0.0965 3.27357,-0.64237 3.84416,-1.21296 z M 636.8748,539.06978 c 2.5576,-1.32256 7.0535,-5.95457 12.4534,-12.83014 1.1945,-1.52097 2.9593,-3.53348 3.9218,-4.47224 0.9625,-0.93876 1.75,-2.25947 1.75,-2.93491 0,-0.67544 0.5866,-1.58793 1.3036,-2.02776 0.717,-0.43983 2.8545,-3.02456 4.75,-5.74384 1.8955,-2.71927 4.1214,-5.70333 4.9464,-6.63123 0.825,-0.92789 2.2915,-2.75303 3.2588,-4.05585 0.9674,-1.30282 2.8799,-3.78373 4.25,-5.51313 1.3702,-1.72939 2.4912,-3.49164 2.4912,-3.91611 0,-0.42446 0.6726,-1.4845 1.4947,-2.35564 12.487,-13.23171 17.0904,-29.48366 12.5453,-44.28998 -1.2314,-4.01165 -2.506,-7.96891 -2.8323,-8.79391 -0.3264,-0.825 -0.631,-1.95 -0.677,-2.5 -0.046,-0.55 -0.3469,-1.45 -0.6689,-2 -0.3219,-0.55 -0.8811,-2.2375 -1.2426,-3.75 -0.4918,-2.05776 -1.2642,-2.75 -3.0681,-2.75 -1.8896,0 -2.9033,1.02689 -4.6891,4.75 -1.253,2.6125 -2.7855,5.425 -3.4054,6.25 -0.62,0.825 -1.7362,3.075 -2.4805,5 -0.7443,1.925 -2.4436,5.25803 -3.7762,7.40674 -1.3326,2.1487 -2.5123,4.51576 -2.6215,5.26012 -0.1093,0.74436 -0.7341,1.88883 -1.3885,2.54326 -0.6545,0.65444 -1.1899,1.66904 -1.1899,2.25469 0,0.58564 -0.9664,2.85814 -2.1477,5.05 -4.7497,8.8136 -8.8428,17.02762 -8.8474,17.75506 0,0.42343 -1.1801,2.63146 -2.6164,4.90674 -1.4363,2.27527 -2.6954,4.62883 -2.7981,5.23013 -0.3471,2.03349 -2.3921,5.10321 -5.8235,8.74157 -10.3426,10.96634 -13.0741,14.90536 -13.8825,20.01966 -0.5886,3.72348 -0.4128,6.02495 0.6556,8.58209 0.803,1.92181 1.46,4.27855 1.46,5.23721 0,1.99908 3.6621,7.01273 5.1222,7.01273 0.5374,0 2.2261,-0.64587 3.7526,-1.43526 z m -88.0629,-29.52425 c 1.2035,-1.62773 2.1902,-3.31523 2.1927,-3.75 0,-0.43477 1.3526,-2.22858 3,-3.98626 1.6475,-1.75767 2.9954,-3.59173 2.9954,-4.07568 0,-0.48396 1.125,-1.9368 2.5,-3.22855 1.375,-1.29175 2.5,-2.93481 2.5,-3.65126 0,-0.71645 1.125,-2.03976 2.5,-2.9407 1.375,-0.90093 2.5,-2.04813 2.5,-2.54932 0,-0.8768 8.8315,-12.60499 14.9539,-19.85872 1.6247,-1.925 4.3088,-5.11623 5.9646,-7.09162 3.0104,-3.59147 5.5783,-8.65214 5.2079,-10.26364 -0.1081,-0.47039 0.2378,-1.37863 0.7687,-2.0183 0.6443,-0.77639 -0.2323,-4.70536 -2.6369,-11.81815 l -3.6022,-10.65511 5.672,-5.36366 c 3.1196,-2.95001 5.672,-6.07937 5.672,-6.95414 0,-0.87477 0.675,-2.15069 1.5,-2.83538 1.2474,-1.03526 1.5037,-4.88681 1.522,-22.87244 0.02,-19.38309 0.2272,-22.07995 2,-25.98676 1.0879,-2.39757 1.978,-6.30851 1.978,-8.69099 0,-2.38248 0.4014,-4.57985 0.892,-4.88304 1.2833,-0.79312 0.1893,-21.29557 -1.5243,-28.56677 -0.3241,-1.375 -0.7316,-4.24479 -0.9057,-6.37731 -0.1742,-2.13251 -0.7993,-4.36001 -1.3893,-4.95 -0.59,-0.58998 -1.0727,-2.39298 -1.0727,-4.00667 0,-3.75027 -2.0864,-10.94446 -3.4513,-11.90071 -0.5768,-0.40408 -0.6734,-0.74158 -0.2147,-0.75 2.3249,-0.0427 -12.2689,-15.66082 -16.1819,-17.3177 -2.8034,-1.18703 -8.5563,-5.64939 -14.1137,-10.94761 -4.3515,-4.14852 -6.0384,-3.65963 -6.0384,1.75 0,2.475 0.3982,4.5 0.8848,4.5 0.4866,0 1.194,2.475 1.5719,5.5 0.378,3.025 1.153,5.5 1.7223,5.5 0.5692,0 0.7802,0.66397 0.4688,1.4755 -0.3114,0.81152 0.1664,3.17402 1.0619,5.25 0.8954,2.07597 1.7352,5.47796 1.8662,7.55997 0.1309,2.08201 0.6713,4.33201 1.2007,5 0.5294,0.66799 1.2684,3.01453 1.642,5.21453 0.3737,2.2 1.3874,6.19432 2.2527,8.87627 2.5308,7.84396 3.9507,26.37302 3.0259,39.48679 -1.0635,15.07963 -0.07,38.00047 1.8459,42.58575 0.8013,1.91783 1.4569,4.61255 1.4569,5.98828 0,1.37573 0.9629,4.3487 2.1398,6.60661 1.8746,3.59659 1.9591,4.28595 0.6818,5.56329 -1.2774,1.27734 -2.0008,1.21498 -5.8386,-0.50326 -5.4686,-2.44834 -6.6639,-1.86113 -11.0741,5.44015 -1.8749,3.10398 -4.3581,6.83891 -5.5182,8.29985 -1.1601,1.46095 -2.8179,4.03904 -3.6841,5.7291 -2.287,4.46277 -4.5981,6.21096 -5.7675,4.36287 -1.7142,-2.70907 -0.8588,-6.44517 3.0764,-13.4357 2.1673,-3.85 5.5707,-10.3148 7.5632,-14.36621 3.2768,-6.6629 3.5587,-7.87874 2.952,-12.73424 -0.3689,-2.95241 -1.1096,-5.63932 -1.6461,-5.9709 -1.4053,-0.86848 -0.914,-10.0752 0.8536,-15.99766 1.2738,-4.26763 1.3372,-6.8762 0.4014,-16.5 -0.6113,-6.28705 -1.1397,-13.79349 -1.1741,-16.68099 -0.034,-2.8875 -0.5027,-5.25 -1.0405,-5.25 -0.539,0 -0.9527,-2.80543 -0.9217,-6.25 0.07,-7.74073 -0.5795,-15.98843 -1.5391,-19.55131 -0.3997,-1.48428 -0.6343,-4.83619 -0.5213,-7.44869 0.1129,-2.6125 -0.2406,-4.75 -0.7856,-4.75 -0.5451,0 -1.0213,-2.5875 -1.0584,-5.75 -0.154,-13.14851 -0.779,-16.06562 -5.5141,-25.7341 -2.5631,-5.23374 -5.0408,-9.5159 -5.5059,-9.5159 -0.4651,0 -1.1101,-0.7875 -1.4332,-1.75 -0.7976,-2.37532 -2.7243,-5.2045 -5.2339,-7.68555 -1.1486,-1.13545 -2.8366,-3.22373 -3.7512,-4.64062 -0.9145,-1.41689 -5.1498,-4.74184 -9.4117,-7.38878 -4.2619,-2.64694 -9.4496,-5.98766 -11.5283,-7.42383 -2.0787,-1.43617 -4.727,-3.13302 -5.8851,-3.77078 -1.1581,-0.63776 -2.3824,-1.56121 -2.7206,-2.05211 -0.3382,-0.49089 -2.3024,-1.6777 -4.3649,-2.63735 -2.0625,-0.95965 -3.75,-2.1737 -3.75,-2.6979 0,-0.52419 -0.8734,-0.95308 -1.941,-0.95308 -1.0675,0 -2.2191,-0.45 -2.559,-1 -0.3399,-0.55 -1.0415,-1 -1.559,-1 -1.7289,0 -0.9687,2.66173 1.8855,6.60175 2.9882,4.12518 5.0616,7.70231 7.7288,13.33471 0.8951,1.89005 2.6599,4.81505 3.9218,6.5 1.262,1.68495 3.3063,5.08854 4.543,7.56354 1.2367,2.475 2.5256,4.725 2.8642,5 0.6731,0.54662 2.1411,3.06125 5.7544,9.85689 1.2964,2.43825 2.8673,5.04792 3.4909,5.79926 3.8194,4.60207 10.5868,19.10816 12.4546,26.69654 1.9313,7.84641 1.736,7.12662 3.8378,14.14731 0.9879,3.3 1.9544,7.8 2.1477,10 0.1933,2.2 1.247,8.01644 2.3415,12.92541 1.0945,4.90898 1.7799,9.26538 1.5231,9.6809 -0.2568,0.41552 -0.091,0.98753 0.3674,1.27114 0.4589,0.28361 0.7158,2.4522 0.5709,4.8191 -0.1449,2.3669 -0.288,6.68045 -0.318,9.58567 -0.047,4.52863 -0.3756,5.40568 -2.3046,6.14756 -1.7993,0.69198 -2.8605,0.28488 -5.2976,-2.03222 -1.6762,-1.59366 -3.5887,-2.89756 -4.25,-2.89756 -0.6613,0 -1.2024,-0.37777 -1.2024,-0.83948 0,-0.46172 -1.1935,-1.38327 -2.6521,-2.04788 -3.9684,-1.80811 -4.8216,-0.22778 -3.2699,6.0565 0.724,2.93197 1.2061,6.07849 1.0713,6.99227 -0.1347,0.91378 0.1883,1.9292 0.7179,2.25651 1.2973,0.80175 1.4691,45.2562 0.178,46.05413 -0.5643,0.3488 -0.7959,4.45589 -0.5532,9.81389 0.4797,10.5924 0.7001,12.11145 2.3529,16.21406 0.6648,1.65 1.6877,4.20497 2.2733,5.67771 2.3754,5.97478 7.0692,7.19615 8.3312,2.16786 0.8157,-3.2501 5.753,-7.6226 6.7817,-6.00589 1.2455,1.95757 0.8501,7.17068 -0.6993,9.21919 -0.8075,1.06762 -1.4825,3.08863 -1.5,4.49113 -0.083,6.67994 -6.7808,6.6659 -14.3266,-0.03 -2.6028,-2.30962 -2.9751,-2.37834 -5.4183,-1 -3.4149,1.92652 -5.7984,6.32649 -6.5942,12.17255 -0.6216,4.56679 0.4923,8.70798 3.4713,12.90554 0.8704,1.22651 0.7507,2.36659 -0.515,4.90363 -0.9069,1.81804 -1.649,3.87928 -1.649,4.58049 0,0.70121 -0.6965,1.97145 -1.5478,2.82275 -1.2103,1.21025 -1.307,1.99773 -0.4438,3.61071 0.6072,1.13459 0.9722,2.84078 0.8112,3.79153 -0.1611,0.95076 0.3356,3.63309 1.1038,5.96073 1.2429,3.76596 1.7383,4.23207 4.4976,4.23207 2.2282,0 3.7984,-0.84439 5.579,-3 3.1983,-3.87195 4.824,-3.78022 8.8612,0.5 4.0319,4.27459 6.0978,4.39934 8.9507,0.54049 z M 156.49854,498.75504 c -0.99789,-2.44088 -2.72728,-8.45069 -2.94956,-10.25 -0.20407,-1.652 -1.9801,-6.30193 -3.68756,-9.65465 -0.60353,-1.18505 -0.82163,-2.60072 -0.48468,-3.14592 0.33696,-0.5452 -0.0475,-2.26365 -0.85428,-3.81877 -0.80681,-1.55513 -1.75551,-4.75196 -2.10824,-7.10408 -0.35272,-2.35212 -0.98912,-4.27658 -1.41422,-4.27658 -0.4251,0 -1.0615,-1.92446 -1.41422,-4.27658 -0.35273,-2.35212 -1.25805,-5.46534 -2.01184,-6.91827 -0.75379,-1.45293 -1.68706,-4.51524 -2.07394,-6.80515 -0.38688,-2.28991 -1.32987,-5.36419 -2.09555,-6.83173 -0.76567,-1.46755 -1.3949,-3.42921 -1.39829,-4.35925 -0.003,-0.93004 -0.47446,-1.98041 -1.04684,-2.33416 -0.57237,-0.35375 -0.77907,-1.46743 -0.45932,-2.47486 0.31975,-1.00743 0.11305,-2.12111 -0.45932,-2.47486 C 133.4683,423.67643 133,422.57425 133,421.58088 c 0,-3.10737 -3.87972,-7.07584 -6.91759,-7.07584 -4.38645,0 -5.22853,1.43673 -15.40771,26.2883 -1.4627,3.57105 0.43559,7.25118 5.35101,10.37379 1.91086,1.21391 4.02656,2.79904 4.70156,3.52251 4.50248,4.82579 6.27273,7.01318 6.27273,7.75085 0,0.46449 2.025,3.5953 4.5,6.95735 2.475,3.36205 4.5,6.53919 4.5,7.06032 0,0.52112 0.5625,1.30736 1.25,1.74719 1.49709,0.95776 7.75,9.99946 7.75,11.20648 0,0.46658 0.7362,1.45931 1.63601,2.20609 0.8998,0.74677 2.70545,3.05187 4.01254,5.12244 1.51388,2.39814 3.1368,3.76468 4.47098,3.76468 1.60059,0 1.92575,-0.41264 1.37901,-1.75 z m -68.29,-43.48814 c 1.4897,-1.69785 2.46346,-3.48355 2.16391,-3.96823 -0.29954,-0.48468 -0.001,-1.53619 0.66329,-2.33669 0.90513,-1.09062 0.94129,-2.50585 0.14428,-5.64584 -0.585,-2.30472 -0.86362,-4.51403 -0.61916,-4.90957 0.55761,-0.90224 -2.27833,-12.78071 -3.62709,-15.19221 -0.55084,-0.98487 -0.72254,-2.24208 -0.38156,-2.7938 0.34099,-0.55172 0.10384,-1.62503 -0.52699,-2.38514 -0.63083,-0.7601 -1.0486,-1.97789 -0.92837,-2.70619 0.12022,-0.72831 -0.0398,-1.99919 -0.35561,-2.82419 -1.18944,-3.10724 -2.07355,-7.61809 -2.15596,-11 -0.0469,-1.925 -0.37896,-3.95 -0.73791,-4.5 -0.35894,-0.55 -0.97254,-3.1375 -1.36354,-5.75 -0.39101,-2.6125 -1.1057,-4.75 -1.58822,-4.75 -0.48252,0 -0.82901,-1.9125 -0.76999,-4.25 0.059,-2.3375 0.006,-4.475 -0.11812,-4.75 -0.12398,-0.275 -0.36735,-3.425 -0.54081,-7 -0.17347,-3.575 -0.63956,-9.10844 -1.03575,-12.29653 -0.47612,-3.83124 -0.29196,-7.09454 0.54316,-9.625 2.36422,-7.16367 -2.07335,-14.27858 -5.9741,-9.57847 -0.68469,0.825 -1.72329,1.5 -2.30799,1.5 -1.42501,0 -5.69201,4.07052 -5.69201,5.42992 0,0.59471 -1.56392,2.38526 -3.47537,3.97901 -5.48065,4.56971 -8.8618,11.94712 -8.62185,18.8122 0.11777,3.36922 -0.50896,7.71719 -1.52454,10.57662 -1.67087,4.70445 -1.66088,4.99308 0.32125,9.27887 1.12517,2.43286 3.27874,7.57338 4.7857,11.42338 1.50697,3.85 4.51668,11.275 6.68825,16.5 5.36843,12.91695 5.40712,13.0088 7.2246,17.15113 0.88108,2.00812 1.60196,4.31552 1.60196,5.12755 0,0.81204 0.675,2.03663 1.5,2.72132 0.825,0.68469 1.5,1.82782 1.5,2.54028 0,1.70006 4.84125,11.46732 6.80237,13.72386 2.01155,2.31455 4.94637,1.44094 8.40617,-2.50228 z m 78.94541,-1.14184 2.12796,-4.37998 -2.27915,-9.87002 c -1.25354,-5.42851 -2.74458,-10.45965 -3.31343,-11.1803 -1.24441,-1.57649 -2.27748,-32.30514 -1.17262,-34.87944 0.42732,-0.99565 0.82338,-2.78538 0.88012,-3.97717 0.0567,-1.19179 0.44067,-2.50429 0.85317,-2.91666 0.4125,-0.41238 0.75,-1.61785 0.75,-2.67882 0,-1.06098 0.6397,-3.12348 1.42156,-4.58334 1.87463,-3.50025 2.93055,-6.31149 3.06281,-8.15429 0.0592,-0.825 0.71261,-2.85 1.452,-4.5 3.71789,-8.29674 9.80555,-20.44345 12.02825,-24 2.98937,-4.78327 7.34453,-12.75364 9.43341,-17.26406 0.83142,-1.79523 2.17202,-3.51746 2.97912,-3.82717 0.80709,-0.30971 2.17377,-2.32839 3.03705,-4.48594 0.86328,-2.15756 2.02325,-3.92283 2.5777,-3.92283 0.55446,0 1.01238,-0.5625 1.0176,-1.25 0.005,-0.6875 1.91773,-4.14333 4.25,-7.67962 2.33228,-3.53629 4.6905,-7.12592 5.2405,-7.97696 0.55,-0.85104 1.52129,-2.00771 2.15842,-2.57038 0.63714,-0.56267 2.3738,-3.38937 3.85925,-6.28154 1.48546,-2.89218 3.10083,-5.5057 3.58963,-5.80782 0.9643,-0.59597 6.3332,-11.30068 6.4868,-12.93368 0.052,-0.55 0.6589,-2.35 1.3493,-4 0.6903,-1.65 1.3357,-3.45 1.434,-4 0.098,-0.55 0.4508,-1.45 0.7831,-2 0.3324,-0.55 0.9377,-2.575 1.3451,-4.5 0.4075,-1.925 1.8164,-5.63444 3.131,-8.24321 1.3146,-2.60876 2.4415,-5.08376 2.5041,-5.5 0.3133,-2.08138 7.0184,-15.25679 7.7643,-15.25679 0.474,0 1.1262,-0.7875 1.4493,-1.75 0.7281,-2.16821 2.5979,-4.99923 4.8957,-7.41225 2.3202,-2.43651 2.3202,-4.98311 0,-4.13617 -1.6253,0.59329 -5.6938,3.45926 -9.2635,6.52541 -5.5873,4.79916 -11.4484,7.45262 -12.5445,5.67913 -0.308,-0.49837 -1.6801,-0.90612 -3.049,-0.90612 -2.7089,0 -6.5604,3.75197 -8.46886,8.25 -0.64173,1.5125 -1.55105,2.75 -2.02071,2.75 -0.46965,0 -3.41702,5.2875 -6.54969,11.75 -3.13267,6.4625 -6.99153,13.66409 -8.57523,16.00354 -1.58371,2.33945 -3.64425,5.95441 -4.57899,8.03324 -0.93474,2.07883 -3.38702,6.07502 -5.44952,8.88043 -2.0625,2.80541 -3.75,5.52279 -3.75,6.03863 0,0.51583 -1.33748,2.70554 -2.97218,4.86602 -1.6347,2.16048 -2.9847,4.4425 -3,5.07115 -0.0153,0.62866 -0.70282,1.40203 -1.52782,1.71862 -0.825,0.31658 -1.5,1.26472 -1.5,2.10699 0,0.84226 -0.7875,2.33837 -1.75,3.32468 -2.02387,2.07395 -17.59869,33.33628 -21.77457,43.7067 -0.88588,2.2 -2.08333,4.96959 -2.66101,6.15465 -0.57767,1.18505 -0.7649,2.61646 -0.41606,3.1809 0.34885,0.56444 0.17692,1.30891 -0.38205,1.65437 -0.55897,0.34546 -1.01631,1.7 -1.01631,3.01008 0,1.31008 -0.39799,2.62794 -0.88443,2.92857 -0.48643,0.30064 -1.41936,3.58969 -2.07317,7.30902 -0.65381,3.71933 -1.71832,7.84213 -2.36557,9.16178 -1.8914,3.85626 -1.40331,33.02754 0.70441,42.10063 3.10392,13.36141 3.77801,15.51126 6.58461,21 0.98433,1.925 2.0976,5.22758 2.47394,7.33907 1.22445,6.86988 2.51357,8.66093 6.23372,8.66093 2.96915,0 3.5958,-0.50083 5.48044,-4.37998 z m 450.33315,-1.37002 c 0.543,-1.2375 1.3128,-2.25 1.7108,-2.25 0.398,0 1.2814,-2.7 1.963,-6 0.6816,-3.3 1.5407,-6 1.9091,-6 0.3684,0 1.2206,-2.8125 1.8939,-6.25 0.6733,-3.4375 1.5731,-6.7 1.9997,-7.25 0.4266,-0.55 1.0901,-2.7429 1.4744,-4.87311 0.3844,-2.13021 1.0637,-4.60521 1.5097,-5.5 1.7234,-3.45787 6.5983,-20.76692 7.423,-26.35652 0.1404,-0.95129 0.5644,-2.03879 0.9423,-2.41667 0.3778,-0.37787 0.687,-2.61048 0.687,-4.96135 0,-2.35087 0.4478,-4.55104 0.995,-4.88926 0.5473,-0.33822 0.9533,-2.05228 0.9023,-3.80902 -0.051,-1.75674 0.3973,-6.34407 0.9962,-10.19407 1.9609,-12.60619 2.0655,-13.8432 1.2616,-14.92769 -0.4372,-0.58977 -1.4192,-3.09731 -2.1824,-5.57231 -1.4496,-4.70113 -4.5751,-9.19267 -11.7227,-16.84606 -2.3375,-2.50292 -4.25,-4.91147 -4.25,-5.35235 0,-1.00075 -4.1147,-1.02739 -5.6039,-0.0363 -0.6071,0.40408 -1.421,5.45969 -1.8086,11.23469 -0.3877,5.775 -1.1284,10.9275 -1.6461,11.45 -0.5178,0.5225 -0.9414,2.85844 -0.9414,5.19098 0,2.33254 -0.3936,4.48422 -0.8746,4.78151 -0.481,0.29729 -0.7463,2.68635 -0.5895,5.30902 0.1568,2.62267 -0.068,5.21849 -0.4991,5.76849 -0.4313,0.55 -1.106,4.81688 -1.4994,9.48196 -0.3934,4.66508 -1.1274,9.25191 -1.631,10.19296 -0.9707,1.81377 -4.0342,23.74372 -4.2014,30.07508 -0.054,2.0625 -0.415,3.75 -0.8013,3.75 -0.3863,0 -0.9375,1.9125 -1.2249,4.25 -0.2874,2.3375 -0.9779,6.59551 -1.5344,9.46225 -0.9802,5.04888 -0.8761,5.48077 3.323,13.77849 2.3843,4.71142 4.9026,9.25013 5.5963,10.086 1.7447,2.10226 5.2354,1.38128 6.4234,-1.32674 z M 104.96946,415.91366 c 4.45814,-4.02766 6.66904,-7.87186 7.62573,-13.25928 0.35642,-2.00714 1.54873,-5.78684 2.64957,-8.39934 1.56952,-3.72476 2.50181,-4.75 4.31937,-4.75 1.27481,0 2.61491,-0.48068 2.978,-1.06817 0.3631,-0.5875 1.34049,-0.80711 2.17199,-0.48804 1.71334,0.65747 9.57785,-7.08489 12.75299,-12.55492 1.97297,-3.39896 2.53741,-4.98047 4.41525,-12.37124 0.55651,-2.1903 1.48564,-4.1403 2.06474,-4.33333 0.57909,-0.19303 1.05968,-1.32597 1.06796,-2.51763 0.0165,-2.37315 2.20762,-9.22268 3.2996,-10.31467 0.37694,-0.37693 0.68534,-1.70878 0.68534,-2.95965 0,-1.25087 0.46193,-2.55981 1.02652,-2.90874 0.56459,-0.34893 0.94128,-1.16299 0.8371,-1.80902 -0.29251,-1.81392 1.24832,-6.80655 3.28985,-10.65978 1.01559,-1.91686 1.84653,-4.17923 1.84653,-5.02749 0,-0.84827 0.67491,-2.50587 1.49979,-3.68356 0.82489,-1.17769 1.22675,-2.85282 0.89302,-3.72251 -0.33374,-0.86969 -0.10864,-1.58125 0.5002,-1.58125 0.60885,0 1.10699,-0.6293 1.10699,-1.39845 0,-0.76915 1.33984,-3.94554 2.97742,-7.05863 1.63759,-3.1131 3.50882,-7.43379 4.15829,-9.60155 0.64948,-2.16775 1.67214,-3.94765 2.27258,-3.95532 0.60044,-0.008 2.40942,-2.93268 4.01995,-6.5 1.61054,-3.56733 3.28648,-6.48605 3.72432,-6.48605 0.43785,0 1.49419,-1.35 2.34744,-3 0.85325,-1.65 2.1069,-3 2.7859,-3 0.67899,0 2.46744,-1.14321 3.97432,-2.54047 2.62707,-2.43596 3.34754,-6.0784 3.00843,-15.20953 -0.0255,-0.6875 0.35357,-1.25 0.84246,-1.25 0.48889,0 0.88889,-0.53831 0.88889,-1.19625 0,-0.65794 1.15907,-2.86879 2.57572,-4.91301 1.41664,-2.04422 2.69867,-4.3184 2.84896,-5.05375 0.15028,-0.73534 0.61435,-2.12449 1.03127,-3.08699 0.41691,-0.9625 0.49901,-2.425 0.18242,-3.25 -1.07062,-2.79001 -6.05496,-1.64164 -12.95226,2.98414 -3.67736,2.46628 -6.68611,4.19653 -6.68611,3.84501 0,-0.35152 -0.7875,0.0469 -1.75,0.88538 -0.9625,0.83847 -2.2,1.69571 -2.75,1.90498 -2.19201,0.83403 -22.17338,14.31871 -24.73755,16.69444 -1.54208,1.42876 -3.01034,4.09748 -3.36224,6.11121 -0.34358,1.96616 -1.24918,4.57151 -2.01245,5.78966 -0.76327,1.21815 -1.38776,3.10409 -1.38776,4.19098 0,1.08689 -0.38576,2.21458 -0.85725,2.50598 -0.47149,0.29139 -1.11288,2.68821 -1.42532,5.32625 -0.31244,2.63805 -1.47146,8.16369 -2.57562,12.27921 -1.10415,4.11552 -2.7541,10.85776 -3.66656,14.98276 -0.91246,4.125 -1.92945,8.175 -2.25998,9 -0.33053,0.825 -0.66784,1.95 -0.74957,2.5 -0.39872,2.68318 -1.6792,7.17295 -2.46262,8.63477 -0.48186,0.89913 -0.64047,2.53584 -0.35247,3.63714 0.28799,1.10131 0.0344,2.30472 -0.56349,2.67425 -0.59792,0.36953 -1.08712,1.88948 -1.08712,3.37767 0,1.48818 -0.84184,4.27647 -1.87075,6.1962 -1.02891,1.91972 -2.1765,5.28805 -2.5502,7.48519 -0.37369,2.19713 -1.48366,5.05681 -2.46657,6.35485 -1.56906,2.07208 -2.0403,2.20195 -3.86194,1.06432 -3.4382,-2.14719 -4.508,-13.97911 -1.84106,-20.36199 0.77521,-1.85534 1.94898,-6.00339 2.60838,-9.21788 0.65939,-3.21449 1.54925,-6.29452 1.97745,-6.84452 0.42821,-0.55 1.09399,-2.9125 1.47952,-5.25 0.38553,-2.3375 1.11999,-4.25 1.63212,-4.25 0.51213,0 0.6488,-1.125 0.30369,-2.5 -0.41352,-1.64763 -0.20978,-2.5 0.59758,-2.5 0.7335,0 1.01478,-0.80404 0.70102,-2.00385 -0.28821,-1.10212 0.38159,-3.87825 1.48844,-6.16917 2.78777,-5.77 2.93621,-13.25824 0.30232,-15.25055 -3.83363,-2.8998 -5.74797,-1.77249 -19.01708,11.19873 -13.36256,13.06256 -15.97188,16.59973 -14.36437,19.4722 0.49842,0.89062 0.56314,1.83131 0.14383,2.09044 -0.41931,0.25912 -0.63899,3.55162 -0.48817,7.31667 0.15082,3.76504 0.44399,13.59553 0.6515,21.84553 0.2075,8.25 0.726,21.975 1.15222,30.5 0.42623,8.525 0.83913,16.85 0.91757,18.5 0.27465,5.77745 1.73729,15.01588 2.65189,16.75 1.43374,2.71843 4.47831,2.08295 8.82207,-1.84138 z m 27.84304,-54.09173 c 0.72187,-0.28887 1.58437,-0.25335 1.91667,0.0789 0.33229,0.33229 -0.25834,0.56864 -1.3125,0.52522 -1.16495,-0.048 -1.4019,-0.28494 -0.60417,-0.60416 z m -4.31805,-2.32302 c -0.99854,-1.10337 -1.63078,-2.1843 -1.40499,-2.40206 0.2258,-0.21776 1.21905,0.685 2.20722,2.00613 2.18239,2.91772 1.69683,3.15736 -0.80223,0.39593 z m 1.75555,-3.6832 c 0.9625,-0.25152 2.5375,-0.25152 3.5,0 0.9625,0.25153 0.175,0.45733 -1.75,0.45733 -1.925,0 -2.7125,-0.2058 -1.75,-0.45733 z M 506,401.50504 c 0,-0.55 -0.1984,-1 -0.441,-1 -0.2425,0 -0.7191,0.45 -1.059,1 -0.3399,0.55 -0.1415,1 0.441,1 0.5824,0 1.059,-0.45 1.059,-1 z M 361.8905,353.25597 c 2.5352,-1.23699 4.8345,-2.50732 5.1095,-2.82295 0.275,-0.31562 1.2613,-0.85435 2.1917,-1.19718 5.6673,-2.08809 6.2144,-12.88129 0.8468,-16.70341 -1.566,-1.11507 -4.0369,-2.02739 -5.4909,-2.02739 -3.1074,0 -13.3236,6.25279 -14.2775,8.73845 -0.3626,0.94498 -1.9086,2.76934 -3.4354,4.05413 -3.7403,3.14726 -5.4816,9.22325 -3.1401,10.95742 2.8369,2.10118 12.9837,1.54405 18.1959,-0.99907 z m -7.0459,-3.42204 c -2.1333,-0.56587 -3.196,-4.8038 -1.8399,-7.3376 1.5537,-2.90322 5.351,-3.48495 8.9337,-1.36862 6.7002,3.95793 1.0674,10.87103 -7.0938,8.70622 z m 177.9528,-9.58481 c 1.2027,-1.4491 -1.0131,-14.2183 -3.3655,-19.39521 -0.7875,-1.73312 -1.4319,-3.64562 -1.4319,-4.25 0,-0.60438 -0.4803,-1.09887 -1.0674,-1.09887 -0.6206,0 -0.7953,-0.85715 -0.4174,-2.04799 0.3575,-1.12639 0.2215,-2.58889 -0.3022,-3.25 -0.5237,-0.6611 -1.2527,-2.8705 -1.62,-4.90977 -0.3673,-2.03927 -1.3232,-4.96427 -2.1242,-6.5 -0.8011,-1.53573 -1.4592,-3.35474 -1.4626,-4.04224 0,-0.6875 -0.4421,-1.25 -0.9748,-1.25 -0.5327,0 -0.7233,-0.63924 -0.4235,-1.42054 0.2998,-0.78129 -0.5817,-3.43888 -1.959,-5.90576 -1.3772,-2.46687 -2.2798,-4.70949 -2.0057,-4.98361 0.7873,-0.78724 -10.5296,-23.69009 -11.7058,-23.69009 -0.5805,0 -0.8011,-0.41157 -0.4902,-0.91459 0.3109,-0.50302 0.225,-1.06552 -0.191,-1.25 -1.1256,-0.49923 -5.2562,-6.59868 -5.2562,-7.76154 0,-0.55391 -2.0465,-3.38463 -4.5478,-6.29049 -2.5012,-2.90586 -6.2137,-7.23639 -8.25,-9.6234 -9.4603,-11.09009 -18.9806,-21.14507 -22.4018,-23.65998 -3.1851,-2.34134 -7.7445,-4.5 -9.5047,-4.5 -1.0426,0 -2.3473,-0.4516 -2.8993,-1.00356 -0.5519,-0.55195 -3.6794,-1.69054 -6.95,-2.53018 -3.2705,-0.83965 -7.3644,-2.18805 -9.0975,-2.99645 -1.7331,-0.80839 -3.8046,-1.46981 -4.6032,-1.46981 -0.7987,0 -4.5557,-1.16586 -8.3489,-2.59079 -3.7932,-1.42494 -9.5968,-3.2994 -12.8968,-4.16547 -3.3,-0.86608 -6.225,-1.88476 -6.5,-2.26374 -1.0007,-1.37907 -15.1498,-5.1592 -17.2949,-4.62056 -1.2128,0.30453 -3.0498,1.17151 -4.0821,1.92661 -1.8113,1.32481 -1.7818,1.51694 0.8439,5.48461 1.9167,2.89627 3.654,4.29846 5.8771,4.74347 4.382,0.87719 11.6477,3.83022 11.6523,4.73587 0,0.4125 0.6563,0.75 1.454,0.75 0.7977,0 1.8102,0.5625 2.25,1.25 1.0106,1.5796 10.0304,7.75 11.3289,7.75 0.534,0 0.9708,0.39752 0.9708,0.88337 0,0.48585 0.8946,1.11731 1.988,1.40323 1.0933,0.28593 2.4055,1.61813 2.9158,2.96047 0.5104,1.34233 2.3537,3.03115 4.0962,3.75293 1.7425,0.72178 3.5858,2.4106 4.0962,3.75293 0.5103,1.34234 1.7676,2.6602 2.7939,2.92859 1.0264,0.26839 2.3505,1.55105 2.9425,2.85034 0.592,1.2993 2.3343,3.16114 3.8719,4.13743 1.5375,0.97629 4.6625,3.63265 6.9443,5.90303 5.5892,5.56105 12.8221,11.42768 14.0892,11.42768 0.5676,0 1.7485,1.09349 2.6242,2.42998 0.8757,1.33649 2.9524,3.23351 4.615,4.21561 1.6625,0.98209 3.0228,2.1386 3.0228,2.57002 0,0.43141 0.6914,1.57189 1.5365,2.53439 4.0026,4.55871 6.4635,8.16733 6.4635,9.47797 0,0.79159 1.8,3.389 4,5.77203 2.2,2.38303 4,4.88531 4,5.56063 0,0.67532 1.2375,2.58464 2.75,4.24292 1.5125,1.65828 4.325,5.07697 6.25,7.59709 1.925,2.52011 4.625,4.88211 6,5.24888 5.1171,1.36495 7.2259,3.47118 6.6014,6.59351 -1.2594,6.29721 1.7419,13.6139 9.6486,23.52138 2.0625,2.58441 3.75,5.17338 3.75,5.75326 0,1.50553 8.0353,7.48233 10.0593,7.48233 0.9327,0 2.1649,-0.56517 2.7381,-1.25592 z M 237,262.73666 c 0,-0.42261 1.0836,-1.43511 2.4079,-2.25 2.4277,-1.49378 14.7235,-12.61649 30.5246,-27.61254 9.6409,-9.14958 12.4519,-10.85955 19.5807,-11.91109 2.7427,-0.40457 5.223,-1.09831 5.5117,-1.54164 0.8335,-1.27985 28.2847,-2.35054 30.5305,-1.1908 1.0695,0.55231 2.5071,0.8025 3.1946,0.55599 4.5111,-1.61753 -4.3692,-12.55932 -11.25,-13.86158 -0.55,-0.10409 -5.3875,-0.24117 -10.75,-0.30461 -8.9449,-0.10582 -9.75,-0.27563 -9.75,-2.05633 0,-1.06754 0.3963,-2.18589 0.8806,-2.48522 1.2648,-0.78171 2.0257,-5.5738 0.885,-5.5738 -1.1824,0 -7.051,3.20935 -7.8517,4.29386 -0.7346,0.99494 -16.3741,6.66641 -20.4139,7.40286 -3.7465,0.68297 -6.1782,2.77934 -8.4574,7.29115 -2.3825,4.71615 -6.1704,11.53473 -9.4507,17.01213 -1.4823,2.475 -3.2205,5.7375 -3.8627,7.25 -0.6422,1.5125 -1.4507,2.75 -1.7966,2.75 -0.3458,0 -1.4723,1.9125 -2.5031,4.25 -1.0309,2.3375 -2.1117,4.475 -2.4019,4.75 -0.5992,0.56784 -2.2822,3.49236 -5.5892,9.71185 -1.7558,3.3023 -1.9534,4.28815 -0.8592,4.28815 0.7814,0 1.4208,-0.34577 1.4208,-0.76838 z m 191.445,-29.40481 c -0.7968,-2.51049 -1.3618,-3.26826 -7.445,-9.98514 -5.0985,-5.62954 -8.9353,-7.6217 -13.9808,-7.2591 -1.9145,0.13759 -3.9395,-0.0497 -4.5,-0.4162 -1.0048,-0.65698 -9.3238,-2.19116 -23.0192,-4.24523 -3.85,-0.57742 -11.95,-0.81703 -18,-0.53246 -6.05,0.28457 -11.9519,0.54859 -13.1152,0.58672 -2.8246,0.0926 -5.8059,3.48473 -4.9722,5.65741 0.3669,0.95627 0.09,2.08518 -0.6287,2.56633 -0.9539,0.63822 -0.3842,1.63314 2.2161,3.87036 3.4544,2.97208 3.6107,3.00339 12,2.40351 18.1036,-1.29452 40.2982,-1.57479 41.3508,-0.52217 0.5771,0.57704 1.9717,1.05193 3.0992,1.05532 1.1275,0.003 3.3018,0.65912 4.8318,1.45717 1.5299,0.79806 5.5799,2.23348 9,3.18983 3.42,0.95635 7.3432,2.32285 8.7182,3.03667 3.7874,1.96619 5.2527,1.6817 4.445,-0.86302 z"
       id="path3097"
       inkscape:connector-curvature="0" />
  </g>
</svg>
