<?xml version="1.0" encoding="UTF-8" standalone="no"?>
<!-- Created with Inkscape (http://www.inkscape.org/) -->
<svg
   xmlns:dc="http://purl.org/dc/elements/1.1/"
   xmlns:cc="http://creativecommons.org/ns#"
   xmlns:rdf="http://www.w3.org/1999/02/22-rdf-syntax-ns#"
   xmlns:svg="http://www.w3.org/2000/svg"
   xmlns="http://www.w3.org/2000/svg"
   xmlns:sodipodi="http://sodipodi.sourceforge.net/DTD/sodipodi-0.dtd"
   xmlns:inkscape="http://www.inkscape.org/namespaces/inkscape"
   id="svg2"
   sodipodi:version="0.32"
   inkscape:version="0.46"
   width="200"
   height="200"
   version="1.0"
   sodipodi:docname="n_fire_bell.svg"
   inkscape:output_extension="org.inkscape.output.svg.inkscape"
   inkscape:export-filename="/Users/xavid/Documents/Yenching/n_fire_bell.png"
   inkscape:export-xdpi="90"
   inkscape:export-ydpi="90">
  <metadata
     id="metadata7">
    <rdf:RDF>
      <cc:Work
         rdf:about="">
        <dc:format>image/svg+xml</dc:format>
        <dc:type
           rdf:resource="http://purl.org/dc/dcmitype/StillImage" />
      </cc:Work>
    </rdf:RDF>
  </metadata>
  <defs
     id="defs5">
    <inkscape:perspective
       sodipodi:type="inkscape:persp3d"
       inkscape:vp_x="0 : 526.18109 : 1"
       inkscape:vp_y="0 : 1000 : 0"
       inkscape:vp_z="744.09448 : 526.18109 : 1"
       inkscape:persp3d-origin="372.04724 : 350.78739 : 1"
       id="perspective9" />
  </defs>
  <sodipodi:namedview
     inkscape:window-height="756"
     inkscape:window-width="1222"
     inkscape:pageshadow="2"
     inkscape:pageopacity="1"
     guidetolerance="10.0"
     gridtolerance="10.0"
     objecttolerance="10.0"
     borderopacity="1.0"
     bordercolor="#666666"
     pagecolor="#ffffff"
     id="base"
     showgrid="false"
     inkscape:zoom="1.4142136"
     inkscape:cx="122.13576"
     inkscape:cy="88.995634"
     inkscape:window-x="20"
     inkscape:window-y="20"
     inkscape:current-layer="svg2"
     showguides="true"
     inkscape:guide-bbox="true"
     borderlayer="true" />
  <rect
     style="opacity:1;fill:#ffffff;fill-opacity:1;stroke:#ffffff;stroke-width:0.5;stroke-linecap:square;stroke-miterlimit:4;stroke-dasharray:none;stroke-dashoffset:0;stroke-opacity:1"
     id="rect2399"
     width="309.50201"
     height="323.19678"
     x="-54.751007"
     y="-61.598389" />
  <path
     style="fill:#000000"
     d="M 105.18246,11.015378 C 100.12821,10.702478 96.838886,11.66682 93.276209,11.702878 C 89.713532,11.738937 89.432459,13.753078 89.432459,19.890378 C 89.432459,22.976978 88.922309,25.709728 88.276209,26.109128 C 87.641509,26.501328 83.587606,26.790128 79.276209,26.734128 C 69.820409,26.611328 69.410158,27.053579 69.432459,37.702878 C 69.451859,46.933478 69.962911,47.71423 75.276209,47.046628 C 82.927409,46.085328 88.46866,46.176577 89.557459,47.265378 C 91.196459,48.904378 89.842658,50.206727 85.682459,50.984128 C 80.491174,52.615206 76.309699,53.970037 71.432459,56.640378 C 70.607459,57.103978 68.582459,58.111677 66.932459,58.890378 C 60.842959,61.764578 52.668259,71.492478 49.619959,79.515378 C 45.451559,90.486478 43.903759,97.013978 40.369959,118.51538 C 39.872759,121.54038 39.32536,124.69038 39.119959,125.51538 C 38.914559,126.34038 38.412308,128.36538 38.026209,130.01538 C 35.639609,140.21258 28.930359,160.35938 26.244959,165.39038 C 23.974559,169.64388 16.032609,178.50249 12.776209,180.39038 C 11.056409,181.38748 11.139159,181.62769 13.932459,183.95288 C 16.601399,186.51603 20.112869,186.76808 23.432459,187.95288 C 28.608859,189.91228 33.132208,189.24273 37.213709,185.92163 C 50.223675,177.04998 54.470819,160.18415 56.682459,145.39038 C 56.934159,142.29878 57.38786,139.37378 57.682459,138.89038 C 58.134159,138.14938 59.654359,118.18878 59.619959,113.51538 C 59.613859,112.69038 60.47261,108.19038 61.526209,103.51538 C 64.448009,90.549978 70.674763,79.315578 78.119959,73.515378 C 86.529259,66.964178 90.530062,65.534279 101.11996,65.327878 C 108.63516,65.181278 110.61527,65.630178 117.93246,69.077878 C 129.44486,74.502078 136.43246,85.009275 137.99496,99.265378 C 138.49786,103.85388 140.26237,118.23808 140.99496,123.64038 C 141.19146,125.08958 141.59426,129.81233 141.86996,134.10913 C 142.14566,138.40593 142.64006,143.83638 142.99496,146.20288 C 143.20825,150.92328 144.42863,154.41536 145.33871,158.73413 C 145.99191,162.18503 147.27147,167.26538 148.18246,170.01538 C 149.30652,175.45584 151.09862,178.80545 154.80746,182.82788 C 158.67376,186.92098 159.81502,187.54802 164.58871,188.10913 C 171.73301,188.94873 181.90721,186.38363 185.65121,182.79663 C 187.17081,181.34073 188.39256,179.88748 188.36996,179.57788 C 188.34746,179.26828 186.13836,177.97147 183.43246,176.70288 C 176.60166,173.50018 171.95182,167.22038 166.52621,153.82788 C 164.31901,148.37968 161.51272,136.78808 160.77621,130.01538 C 160.53701,127.81538 159.91822,124.17403 159.40121,121.92163 C 158.88411,119.66933 158.24661,115.61933 157.96371,112.92163 C 157.68081,110.22403 157.2203,105.99038 156.96371,103.51538 C 155.62321,90.587678 152.30007,77.158129 148.74496,70.359128 C 142.80726,59.003528 129.76816,50.942028 116.68246,50.546628 C 115.99496,50.525828 115.43246,49.615378 115.43246,48.515378 C 115.43246,46.663878 116.08691,46.515378 124.40121,46.515378 C 136.28391,46.515378 134.67581,46.814978 134.21371,34.515378 L 133.93246,27.015378 L 130.43246,26.890378 C 128.50746,26.829978 126.48246,26.648628 125.93246,26.484128 C 125.02496,26.212828 123.48531,26.070678 116.71371,25.640378 C 114.68391,25.511378 114.48411,24.935678 114.21371,18.265378 L 113.93246,11.015378 L 105.18246,11.015378 z M 111.71371,13.015378 L 112.15121,20.015378 C 112.38911,23.864878 112.77396,27.200529 112.99496,27.421628 C 113.21606,27.642628 117.25001,27.916229 121.96371,28.046628 C 126.67751,28.177028 130.68026,28.441478 130.86996,28.640378 C 131.05956,28.839378 131.53466,32.533179 131.93246,36.827878 L 132.02621,44.265378 L 123.80746,44.359128 C 118.92736,44.200528 114.43451,44.357029 113.83871,44.734128 C 113.24291,45.111228 112.96721,46.804527 113.21371,48.484128 C 113.54151,50.717828 114.28161,51.656778 116.02621,52.015378 C 117.33791,52.284978 119.66996,52.822179 121.18246,53.202878 C 122.69496,53.583678 124.60746,53.949676 125.43246,54.015378 C 127.00466,54.140378 129.52456,55.025828 132.99496,56.671628 C 136.50406,58.335728 145.12392,66.848877 146.90121,70.390378 C 150.95871,78.475178 154.09715,92.253178 155.93246,110.01538 C 156.21666,112.76538 156.67912,116.36538 156.96371,118.01538 C 157.24831,119.66538 157.74866,123.49038 158.05746,126.51538 C 158.90086,134.77808 162.98217,150.26058 166.49496,158.51538 C 170.76046,168.53928 174.53021,173.71919 179.46371,176.32788 C 188.72661,181.22598 186.53915,184.13523 171.99496,186.35913 C 165.50496,187.35153 160.11096,186.38423 157.05746,183.67163 C 150.50976,177.85503 144.67066,154.43138 142.93246,127.01538 C 142.33516,117.59408 141.55371,109.74028 140.77621,105.51538 C 140.52321,104.14038 140.07946,101.21538 139.80746,99.015378 C 139.20966,94.180378 137.44841,87.913378 135.71371,84.515378 C 133.34856,76.808145 126.8434,72.11846 120.15121,68.046628 C 117.82481,67.083728 114.80746,65.715976 113.43246,65.015378 C 111.92576,64.247678 107.15796,63.76368 101.43246,63.765378 C 90.456259,63.768678 85.256159,65.607579 77.057459,72.452878 C 71.355559,77.213478 69.563661,79.386379 65.932459,85.890378 C 61.014059,94.700178 59.432207,101.71948 57.401209,123.32788 C 54.854309,150.42398 54.789508,150.77098 51.963709,159.51538 C 48.002309,171.77368 46.658708,174.25808 40.588709,180.57788 C 35.514909,185.86038 34.259659,186.68014 30.369959,187.04663 C 27.333159,187.33273 24.06871,186.74177 20.088709,185.20288 L 14.276209,181.82788 C 17.109523,179.87289 19.064131,177.00935 21.432459,174.54663 C 27.125559,168.80403 30.63261,161.98144 34.338709,149.48413 C 35.554409,145.38483 37.158709,139.99038 37.901209,137.51538 C 40.093809,130.20638 42.18966,120.56318 43.432459,112.01538 C 44.072159,107.61538 45.440659,100.66898 46.494959,96.577878 C 48.9313,84.969348 52.393045,73.619869 61.401209,65.265378 C 67.438009,59.733878 80.66206,52.871278 87.557459,51.702878 C 91.578359,51.021578 91.951461,50.708927 92.244959,47.671628 L 92.557459,44.390378 L 81.994959,44.702878 L 71.401209,45.015378 L 71.432459,38.702878 C 71.435459,29.676178 72.06986,28.873177 79.619959,28.577878 C 92.104959,28.089478 90.842756,28.855178 91.494959,21.265378 C 91.813759,17.554878 92.263756,14.358878 92.494959,14.140378 C 92.726059,13.921978 97.137359,13.555228 102.30746,13.359128 L 111.71371,13.015378 z M 95.057459,85.921628 C 92.340897,85.991336 88.773584,89.572306 81.432459,98.452878 C 79.507459,100.78158 77.137956,103.60243 76.182459,104.73413 C 73.799959,107.55573 74.129608,114.17468 76.776209,116.64038 C 80.187009,119.81798 81.100062,119.32338 88.994959,110.01538 C 100.65566,96.267478 102.45086,92.074079 98.494959,87.827878 C 97.337209,86.58519 96.29226,85.889943 95.057459,85.921628 z M 113.90121,86.484128 C 112.36047,86.562438 111.04966,87.319528 110.27621,88.765378 C 109.61421,90.002878 106.75501,93.490378 103.90121,96.515378 C 101.04731,99.540378 96.723459,104.54338 94.307459,107.64038 C 84.693559,119.96448 77.311809,129.27778 72.963709,134.51538 C 70.452509,137.54038 67.455658,141.59038 66.307459,143.51538 C 65.159259,145.44038 63.318808,148.00048 62.213709,149.20288 C 60.735609,150.81098 60.179959,152.85043 60.119959,156.92163 C 60.075159,159.96563 60.21841,162.63233 60.463709,162.85913 C 60.708909,163.08593 62.406808,163.59693 64.213709,163.98413 C 67.145109,164.61233 67.848159,164.28883 70.932459,160.92163 C 72.833559,158.84603 74.675907,156.24418 75.026209,155.14038 C 75.376609,154.03648 77.266513,150.85898 79.213709,148.07788 C 81.160909,145.29678 83.694212,141.66538 84.838709,140.01538 C 85.983109,138.36538 87.144757,136.79038 87.432459,136.51538 C 93.036576,129.74373 96.785338,124.2717 101.99496,118.45288 C 103.59906,116.76168 109.09497,111.20678 114.18246,106.14038 C 124.50466,95.860978 125.15781,94.133827 120.40121,89.484128 C 118.27299,87.403665 115.88216,86.383444 113.90121,86.484128 z M 94.838709,87.796628 C 95.793315,87.72024 96.7127,88.071162 97.526209,89.015378 C 98.992309,90.718478 98.962306,91.694578 98.526209,95.015378 C 98.454009,95.565378 97.036611,97.590378 95.401209,99.515378 C 93.765909,101.44038 92.100863,103.46258 91.682459,104.01538 C 91.264059,104.56818 88.499359,107.83068 85.557459,111.26538 C 82.615559,114.70008 79.846157,117.51538 79.369959,117.51538 C 77.945259,117.51538 76.432459,113.86163 76.432459,110.42163 C 76.432459,107.05393 78.31706,104.08298 85.307459,96.452878 C 87.460285,93.705905 91.429402,88.069441 94.838709,87.796628 z M 115.11996,88.515378 C 117.43926,88.515378 121.43246,92.466675 121.43246,94.765378 C 121.43246,95.655778 116.59496,101.25933 110.68246,107.23413 C 100.01426,118.01483 93.432459,125.26228 93.432459,126.20288 C 93.432459,126.47228 92.021756,128.16653 90.307459,129.98413 C 88.593059,131.80173 86.230556,134.91948 85.057459,136.89038 C 83.884259,138.86118 80.682459,143.64593 77.932459,147.54663 C 75.182459,151.44723 72.033758,156.30188 70.932459,158.32788 C 68.578459,162.65838 64.25136,163.89922 62.557459,160.73413 C 60.260459,156.44213 63.323558,148.86008 70.869959,140.26538 C 71.715059,139.30288 72.432459,138.24138 72.432459,137.89038 C 72.432459,137.53948 74.119959,135.31673 76.182459,132.98413 C 82.062359,126.33403 84.424806,123.39143 84.463709,122.67163 C 84.483509,122.30583 85.632113,120.66538 87.026209,119.01538 C 88.420409,117.36538 92.850355,111.96538 96.869959,107.01538 C 107.32066,94.145678 112.87746,88.515378 115.11996,88.515378 z M 100.24496,128.07788 C 97.661626,128.6508 95.453292,127.72371 93.994959,129.79663 C 93.766043,130.69422 95.590535,131.67346 96.526209,132.60913 C 97.682209,133.76513 102.12021,136.57763 106.40121,138.85913 C 114.4563,143.15203 119.45271,147.16848 125.33871,154.01538 C 129.07251,158.35868 132.53376,160.51538 135.68246,160.51538 C 138.21726,160.51538 142.43246,156.06048 142.43246,153.39038 C 142.11342,150.62188 141.50689,149.44453 140.58871,147.10913 C 139.30111,143.54813 130.96861,136.44298 126.40121,135.01538 C 123.36073,132.83274 119.91527,132.28674 116.43246,131.32788 C 112.70196,129.96848 103.57646,128.13288 100.24496,128.07788 z M 99.651209,130.01538 C 102.77737,129.98452 107.38865,130.36257 109.74496,131.01538 C 120.43686,133.97748 126.58246,136.44933 130.30746,139.23413 C 136.31433,142.58092 139.30633,146.28506 140.43246,153.45288 C 140.43246,155.77928 139.74081,156.80663 137.46371,157.98413 C 130.64765,162.01337 126.68908,151.22027 120.93246,146.20288 C 119.18166,143.72267 116.38042,142.76598 113.99496,141.01538 C 108.31337,137.18441 101.42637,135.54068 96.432459,130.54663 C 96.432459,130.20531 97.775512,130.0339 99.651209,130.01538 z"
     id="path2384"
     sodipodi:nodetypes="czssssssccsssssssccccsssssssssccccssssssssssssscccsscccccssscccsssssssssssssssssccsssssssscccsssccscccccssscccsssssccsssssssssssssccssccssssssscccsssssssssssssscccssssccccccsccccccc" />
</svg>

