<?xml version="1.0" encoding="UTF-8" standalone="no"?>
<!-- Created with Inkscape (http://www.inkscape.org/) -->

<svg
   xmlns:dc="http://purl.org/dc/elements/1.1/"
   xmlns:cc="http://creativecommons.org/ns#"
   xmlns:rdf="http://www.w3.org/1999/02/22-rdf-syntax-ns#"
   xmlns:svg="http://www.w3.org/2000/svg"
   xmlns="http://www.w3.org/2000/svg"
   xmlns:sodipodi="http://sodipodi.sourceforge.net/DTD/sodipodi-0.dtd"
   xmlns:inkscape="http://www.inkscape.org/namespaces/inkscape"
   id="svg3204"
   version="1.1"
   inkscape:version="0.48.0 r9654"
   width="500"
   height="500"
   sodipodi:docname="Mon:OctagonThree.image.png">
  <metadata
     id="metadata3210">
    <rdf:RDF>
      <cc:Work
         rdf:about="">
        <dc:format>image/svg+xml</dc:format>
        <dc:type
           rdf:resource="http://purl.org/dc/dcmitype/StillImage" />
        <dc:title></dc:title>
      </cc:Work>
    </rdf:RDF>
  </metadata>
  <defs
     id="defs3208" />
  <sodipodi:namedview
     pagecolor="#ffffff"
     bordercolor="#666666"
     borderopacity="1"
     objecttolerance="10"
     gridtolerance="10"
     guidetolerance="10"
     inkscape:pageopacity="0"
     inkscape:pageshadow="2"
     inkscape:window-width="1524"
     inkscape:window-height="1014"
     id="namedview3206"
     showgrid="false"
     inkscape:zoom="0.82522039"
     inkscape:cx="505.99896"
     inkscape:cy="224.5"
     inkscape:window-x="0"
     inkscape:window-y="0"
     inkscape:window-maximized="0"
     inkscape:current-layer="svg3204" />
  <rect
     style="fill:#ffffff;fill-opacity:1;stroke:none"
     id="rect3216"
     width="563.48584"
     height="558.63867"
     x="-33.930328"
     y="-33.190899" />
  <path
     style="fill:#000000"
     d="M 193.5,464.85776 C 187.725,459.57958 171.75,444.15247 158,430.5753 144.25,416.99812 130.525,403.70294 127.5,401.03045 124.475,398.35797 101.6375,376.1388 76.75,351.65454 l -45.25,-44.51685 0,-56.58527 0,-56.58528 L 72.25,153.442 C 94.6625,131.15316 133.10161,93.248059 157.67024,69.208423 L 202.34049,25.5 l 53.35071,0 53.35071,0 43.61085,45.749999 c 23.98597,25.1625 53.85129,56.325001 66.36738,69.250001 12.51609,12.925 28.76928,29.92179 36.11819,37.77064 l 13.36167,14.27064 0,56.41856 0,56.41856 -21.75,22.75132 c -11.9625,12.51322 -30.27371,31.77808 -40.69157,42.8108 C 395.64056,381.97323 369.1625,409.7875 347.21828,432.75 L 307.31972,474.5 255.65986,474.4772 204,474.4544 193.5,464.85772 z m 92.84078,-30.00711 9.14803,-0.64934 50.27896,-52.60066 c 27.65342,-28.93036 58.48094,-61.21934 68.50559,-71.7533 L 432.5,290.69471 l 0,-42.22739 0,-42.22739 -15.75,-16.59924 C 397.33335,169.17708 384.711,156.05474 334.60275,104.23942 L 295.20549,63.5 l -27.19463,0 c -14.95705,0 -33.34935,0.295175 -40.87179,0.655945 l -13.67715,0.655944 -35.73096,34.52242 C 158.07893,118.32163 125.2375,150.53089 104.75,170.91043 L 67.5,207.96415 67.5454,248.98207 67.5908,290 92.85176,315.5 c 13.89352,14.025 44.93032,44.625 68.97065,68 24.04034,23.375 45.52927,44.6375 47.75318,47.25 l 4.04348,4.75 31.78685,0 c 17.48277,0 35.90346,-0.29221 40.93488,-0.64935 z M 318,355.93946 c -32.32018,-7.91629 -36.47338,-8.39858 -72.52623,-8.42213 -29.076,-0.019 -35.93034,0.57451 -58.97377,5.10644 -18.70915,3.67952 -25.1374,3.53493 -33.13633,-0.74534 -6.96861,-3.72892 -16.40822,-13.09457 -18.91912,-18.77088 -6.87911,-15.55137 -3.19828,-30.38898 10.85399,-43.75298 l 7.29855,-6.94107 7.20145,3.97265 c 13.478,7.43506 18.03518,8.20358 54.20146,9.14043 43.57826,1.12885 88.15153,1.13235 98.84109,0.008 4.88408,-0.51382 13.09745,-2.34812 18.35099,-4.09834 l 9.50989,-3.16823 5.48534,5.36611 c 7.24163,7.08422 10.85831,12.42083 13.90706,20.52059 4.90741,13.0378 2.83978,27.80522 -5.20982,37.20936 -7.83878,9.15785 -14.70093,10.00912 -36.88455,4.57562 z m -31.5,-94.91273 c -23.75789,-6.00528 -41.71866,-6.61954 -69.32751,-2.37099 -16.57143,2.55007 -22.43421,1.82092 -28.06603,-3.49056 -4.22335,-3.98313 -5.59647,-8.8127 -5.59111,-19.66518 0.003,-6.8064 0.46944,-9.49623 2.33925,-13.5 2.86686,-6.13872 6.30056,-10.29603 11.45325,-13.86684 l 3.9304,-2.72377 6.01521,3.52542 c 7.53904,4.41851 17.55984,6.27105 40.26883,7.44449 25.00083,1.29185 41.00887,-0.25598 52.13099,-5.04059 4.17743,-1.79708 5.25572,-1.91194 7.85229,-0.8364 4.77486,1.97781 10.96776,8.68942 13.69245,14.8393 2.23583,5.04648 2.46556,6.69856 2.12439,15.27685 -0.33819,8.50335 -0.70629,10.10768 -3.17515,13.83837 -5.58754,8.44335 -17.23682,10.71796 -33.64726,6.5699 z m -90.96803,-77.66898 c -5.28736,-1.25637 -10.7587,-4.85865 -19.0777,-12.56057 -9.20916,-8.52606 -11.98896,-15.29015 -9.8258,-23.90918 1.41529,-5.63919 7.39571,-12.13182 19.93595,-21.64343 l 7.56441,-5.73752 8.89377,3.58626 c 17.12765,6.90642 23.43423,7.80134 54.9774,7.80143 31.48076,8e-5 39.52244,-1.03682 49.84536,-6.42712 l 5.84536,-3.05227 4.53789,3.71847 c 16.69073,13.6768 21.31526,20.36937 22.05654,31.91997 0.86675,13.50589 -4.5249,23.36682 -13.87236,25.37149 -9.41822,2.01985 -26.68177,1.32554 -41.15625,-1.65524 -11.21196,-2.30891 -15.64713,-2.72217 -28.75654,-2.67948 -13.21305,0.043 -17.27054,0.45611 -27.5,2.79964 -13.44058,3.07917 -26.76097,4.06127 -33.46803,2.46755 z"
     id="path3214"
     inkscape:connector-curvature="0" />
</svg>
