<?xml version="1.0" encoding="UTF-8" standalone="no"?>
<!-- Created with Inkscape (http://www.inkscape.org/) -->
<svg
   xmlns:dc="http://purl.org/dc/elements/1.1/"
   xmlns:cc="http://creativecommons.org/ns#"
   xmlns:rdf="http://www.w3.org/1999/02/22-rdf-syntax-ns#"
   xmlns:svg="http://www.w3.org/2000/svg"
   xmlns="http://www.w3.org/2000/svg"
   xmlns:sodipodi="http://sodipodi.sourceforge.net/DTD/sodipodi-0.dtd"
   xmlns:inkscape="http://www.inkscape.org/namespaces/inkscape"
   width="283.4548"
   height="390.30933"
   id="svg2"
   sodipodi:version="0.32"
   inkscape:version="0.46"
   version="1.0"
   sodipodi:docname="ladder.svg"
   inkscape:output_extension="org.inkscape.output.svg.inkscape">
  <defs
     id="defs4">
    <inkscape:perspective
       sodipodi:type="inkscape:persp3d"
       inkscape:vp_x="0 : 526.18109 : 1"
       inkscape:vp_y="0 : 1000 : 0"
       inkscape:vp_z="744.09448 : 526.18109 : 1"
       inkscape:persp3d-origin="372.04724 : 350.78739 : 1"
       id="perspective10" />
    <inkscape:perspective
       id="perspective2447"
       inkscape:persp3d-origin="372.04724 : 350.78739 : 1"
       inkscape:vp_z="744.09448 : 526.18109 : 1"
       inkscape:vp_y="0 : 1000 : 0"
       inkscape:vp_x="0 : 526.18109 : 1"
       sodipodi:type="inkscape:persp3d" />
  </defs>
  <sodipodi:namedview
     id="base"
     pagecolor="#ffffff"
     bordercolor="#666666"
     borderopacity="1.0"
     gridtolerance="10000"
     guidetolerance="10"
     objecttolerance="10"
     inkscape:pageopacity="0.0"
     inkscape:pageshadow="2"
     inkscape:zoom="0.98994949"
     inkscape:cx="221.36671"
     inkscape:cy="265.74176"
     inkscape:document-units="px"
     inkscape:current-layer="layer1"
     showgrid="false"
     inkscape:window-width="1224"
     inkscape:window-height="756"
     inkscape:window-x="0"
     inkscape:window-y="0" />
  <metadata
     id="metadata7">
    <rdf:RDF>
      <cc:Work
         rdf:about="">
        <dc:format>image/svg+xml</dc:format>
        <dc:type
           rdf:resource="http://purl.org/dc/dcmitype/StillImage" />
      </cc:Work>
    </rdf:RDF>
  </metadata>
  <g
     inkscape:label="Layer 1"
     inkscape:groupmode="layer"
     id="layer1"
     transform="translate(-206.23844,-693.61244)">
    <path
       style="fill:#000000"
       d="M 430.30035,1083.6031 C 426.69378,1083.5475 423.47806,1082.9868 423.04902,1082.3391 C 422.62503,1081.699 422.36314,1078.017 422.46708,1074.1569 C 422.57101,1070.2968 422.276,1046.6654 421.81148,1021.6427 C 421.34697,996.6199 420.77921,963.77152 420.5498,948.64628 C 420.32038,933.52101 419.87857,906.07136 419.56801,887.64701 C 418.00975,795.20159 417.6996,773.54316 417.8352,766.64174 C 417.91631,762.51215 417.57544,744.99097 417.07764,727.7058 C 416.52856,708.63795 416.54573,695.79876 417.1213,695.05912 C 417.81756,694.16441 423.32027,693.79054 437.80169,693.65397 C 448.65414,693.55165 458.55197,693.645 459.79689,693.86145 C 461.9975,694.24404 462.07119,694.59946 462.45016,706.65835 C 462.92666,721.82141 462.68925,722.22844 453.27754,722.38293 C 443.6418,722.54113 443.54912,722.71902 443.52288,741.10659 C 443.51091,749.48093 443.77546,757.89932 444.11077,759.81412 L 444.72042,763.29559 L 450.72525,763.35452 C 454.0279,763.38692 458.24045,763.62024 460.08647,763.87299 L 463.44286,764.33252 L 463.76355,794.02485 C 464.38406,851.47501 464.32017,864.72593 463.41805,865.68659 C 462.91722,866.21991 459.06224,866.87832 454.85139,867.14969 C 449.85498,867.47166 446.92055,868.1081 446.40429,868.98172 C 445.96921,869.71798 445.7393,876.61951 445.89339,884.31846 C 446.0475,892.01743 446.19882,900.43798 446.22969,903.03081 C 446.26055,905.62363 446.82136,908.24796 447.47593,908.86264 C 448.1305,909.47734 451.90355,910.00858 455.8605,910.0432 C 459.81744,910.07784 463.52483,910.54744 464.09915,911.08677 C 465.17801,912.09986 465.55237,922.84682 466.4724,979.21889 C 466.76217,996.97352 466.56753,1010.8041 466.00662,1012.3168 C 465.08299,1014.8074 464.73517,1014.9166 457.61332,1014.946 C 452.6791,1014.9668 449.84934,1015.4065 449.18845,1016.2557 C 447.76202,1018.0888 448.00452,1050.8292 449.45669,1052.4711 C 450.18124,1053.2904 452.92089,1053.6813 457.03187,1053.5521 C 467.4947,1053.2232 467.43472,1053.141 467.74882,1068.238 C 467.94159,1077.5034 467.65847,1081.4578 466.74443,1082.2662 C 465.56652,1083.3078 449.45962,1083.8988 430.30035,1083.6031 z M 270.72643,1083.6159 C 270.36951,1083.2808 248.1186,1082.9383 241.91733,1083.1724 C 237.50126,1083.3394 236.93227,1081.0861 236.99571,1063.6826 C 237.02724,1055.0347 236.85411,1033.333 236.61098,1015.4569 C 236.12457,979.69439 235.88938,960.04745 235.47954,920.9458 C 235.32967,906.64345 234.99154,879.41563 234.72818,860.43955 C 234.4648,841.46346 234.24689,819.85964 234.24392,812.43106 C 234.24094,805.0025 233.79818,776.2022 233.26001,748.4304 C 232.52775,710.64282 232.57961,697.5996 233.4661,696.59859 C 234.9564,694.91575 235.09966,694.90649 254.98813,695.20799 C 271.07494,695.45187 274.19633,694.38855 274.5473,698.17962 C 274.60515,698.80446 274.10953,703.99497 274.26998,709.89395 C 274.63585,723.3458 274.14466,724.13418 265.22336,724.41455 C 259.53411,724.59334 258.76455,724.85938 258.06073,726.89076 C 256.80477,730.51568 257.82029,762.61574 259.24176,764.22297 C 260.03892,765.12432 262.56069,765.51846 266.69832,765.38843 C 270.54836,765.26744 273.31498,765.66097 273.89943,766.41275 C 274.64802,767.37564 275.31349,781.63093 275.15549,793.31918 C 275.12571,795.52201 271.77972,796.72277 266.15015,796.55089 C 258.80347,796.32658 258.45281,797.26659 258.45073,817.18918 C 258.44976,826.55269 258.85826,834.83171 259.35852,835.587 C 259.96211,836.49833 262.44239,836.95776 266.73235,836.95288 C 270.28771,836.94882 273.7059,837.23855 274.32829,837.5967 C 275.07447,838.02607 275.57249,842.80806 275.79035,851.63563 C 276.1773,867.31516 275.92124,867.82325 267.42942,868.22621 C 259.04357,868.62413 258.8758,869.07047 259.24619,889.99827 C 259.59979,909.97754 259.23395,909.19059 268.21945,909.30005 C 276.96936,909.40662 276.45245,908.56913 277.01516,923.55073 C 277.61203,939.44073 277.14148,940.40263 268.82899,940.28474 C 265.06106,940.23129 263.22713,940.70504 261.77174,942.10779 C 259.93818,943.87504 259.84295,945.19966 260.36203,961.71687 C 260.79004,975.33689 261.23755,979.67882 262.29827,980.50428 C 263.05702,981.09476 266.48523,981.63433 269.91652,981.70333 C 273.34782,981.77236 276.47341,982.30921 276.86226,982.89632 C 277.25114,983.48345 277.58724,987.49547 277.60918,991.81194 C 277.63111,996.1284 277.71716,1002.4486 277.80044,1005.8567 C 277.92428,1010.9269 277.54206,1012.5245 275.69849,1014.6436 C 271.97917,1018.3627 267.03768,1013.9881 261.99027,1016.3488 C 261.31591,1017.0669 260.97557,1023.7198 261.0801,1034.1415 C 261.28325,1054.3962 261.4419,1054.6963 271.77801,1054.3714 L 278.2748,1054.1672 L 278.69499,1067.5383 C 279.03795,1078.4513 278.83513,1081.157 277.59173,1082.2566 C 276.16806,1083.5158 271.58586,1084.423 270.72643,1083.6159 z M 459.22541,1049.7525 C 456.51831,1048.8182 456.17674,1047.2688 455.74281,1033.9554 C 455.43977,1024.6583 455.66992,1020.521 456.53262,1019.758 C 457.7595,1018.6729 486.6362,1018.1104 488.41994,1019.1368 C 489.69994,1019.8734 490.20871,1042.6587 489.02912,1046.4186 L 488.02306,1049.6252 L 476.86674,1049.3992 C 471.25774,1049.2917 462.77436,1050.8529 459.22541,1049.7525 z M 411.11416,1049.6194 C 410.73506,1049.3008 383.36348,1049.1966 351.66107,1049.3936 C 345.60926,1049.4312 331.35546,1049.4208 319.98596,1049.371 C 292.45407,1049.2501 280.1187,1049.6105 277.3391,1049.6066 L 269.05166,1049.1861 L 268.73901,1035.3709 C 268.50295,1024.9402 268.7565,1021.2634 269.77387,1020.3637 C 270.76895,1019.4835 279.95737,1019.0912 304.9037,1018.8635 C 349.96012,1018.4524 352.77874,1018.4402 375.28423,1018.559 C 385.97225,1018.6154 398.76766,1018.6192 403.71848,1018.5674 C 408.6693,1018.5157 413.31806,1018.8233 414.04908,1019.2511 C 415.81462,1020.2841 415.89378,1046.1689 414.13832,1048.4249 C 412.97865,1049.9148 411.94955,1050.3214 411.11416,1049.6194 z M 211.42107,1049.0147 C 210.55441,1047.7133 209.98742,1021.4719 210.79562,1020.0674 C 211.3243,1019.1486 225.52194,1019.2986 227.15836,1020.2403 C 228.30986,1020.903 228.65656,1045.0531 227.557,1048.0074 C 227.01345,1049.4678 225.6101,1049.8193 219.56726,1050.0093 C 214.78344,1050.1596 211.95347,1049.8141 211.42107,1049.0147 z M 398.56764,976.71439 C 398.39317,976.58045 365.04119,976.51786 336.36695,976.59766 C 327.56337,976.62215 308.88874,976.92726 294.86777,977.2757 C 273.28747,977.812 269.26357,977.6824 268.6486,976.43132 C 268.24901,975.61847 267.7042,969.02698 267.4379,961.78353 C 267.07087,951.80058 267.27921,948.26706 268.29891,947.18117 C 269.36746,946.04328 273.21484,945.69805 287.00541,945.50258 C 296.55413,945.36723 312.80146,945.11244 323.11062,944.93634 C 335.53154,945.62264 347.66994,944.79355 360.07758,944.75306 C 381.99724,945.01757 401.42747,945.13701 406.91052,945.04098 C 412.41951,944.94448 413.90704,945.74498 414.09138,948.90529 C 414.71157,959.53913 414.61188,973.60135 413.9078,974.80052 C 413.30056,975.8347 410.96208,976.34613 405.89427,976.55307 C 401.95843,976.71381 398.66145,976.7864 398.56764,976.71439 z M 465.15537,903.41164 C 464.97804,903.24594 462.87329,903.15099 460.47816,903.20061 C 453.67462,903.34155 453.51164,903.0003 453.19994,887.96029 L 452.92397,874.64561 L 456.05568,874.04443 C 457.77812,873.71379 464.94172,873.36423 471.9748,873.26766 C 482.08396,873.12883 484.96706,873.39991 485.7403,874.56203 C 486.89193,876.29287 487.58693,898.03867 486.58592,901.02099 C 485.95623,902.89698 485.03046,903.09841 475.6878,903.39201 C 470.07232,903.56849 465.33273,903.57732 465.15537,903.41164 z M 384.20883,904.03012 C 383.9989,903.83296 369.93776,903.86753 352.96187,904.10691 C 335.98595,904.34631 318.26307,904.33171 313.57768,904.07448 C 308.89229,903.81726 296.67811,903.99585 286.43505,904.47131 L 267.55876,904.32569 L 267.20746,902.64683 C 266.15162,897.94487 265.89161,880.0717 266.83929,877.33877 L 267.75143,874.70834 L 288.43907,874.28812 C 314.64122,873.75588 353.84333,873.49388 368.15227,873.75536 C 374.20874,873.86604 386.28763,873.86547 394.99426,873.75411 C 407.40064,873.5954 411.03005,873.85492 411.77492,874.95398 C 413.28383,877.18045 413.79054,901.56766 412.34775,902.52327 C 411.15254,903.31489 384.94187,904.71848 384.20883,904.03012 z M 209.20925,904.59624 C 208.83123,904.24127 208.32739,897.75922 208.08957,890.19168 C 207.70426,877.93117 207.84702,876.36564 209.4003,875.81838 C 212.42471,874.75279 224.6056,874.93477 225.34864,876.05665 C 225.73986,876.64733 226.1688,882.76992 226.30187,889.66241 C 226.5065,900.26205 226.28404,902.39702 224.85909,903.5093 C 223.11268,904.87253 210.4407,905.75263 209.20925,904.59624 z M 380.83659,831.66988 C 361.4734,831.35761 316.197,831.6924 289.84227,832.34271 C 268.20922,832.87651 267.86013,832.85168 266.69988,830.69657 C 265.34108,828.17268 264.87178,805.65615 266.14963,804.2954 C 267.02371,803.36458 302.20846,801.95826 316.38186,802.2876 C 321.06261,802.39638 339.96843,802.28527 358.39485,802.0407 C 401.40538,801.46985 408.89841,801.50969 410.30093,802.31675 C 411.73038,803.13932 412.63325,827.64218 411.31647,829.8777 C 410.28182,831.63427 403.46871,832.03488 380.83659,831.66988 z M 451.53739,756.28251 C 450.75987,752.41222 450.80951,732.68166 451.60213,730.56329 C 452.0813,729.28258 454.63635,729.02146 467.9124,728.89637 C 476.57053,728.81479 484.11811,729.10395 484.68478,729.53894 C 485.25146,729.97392 485.71669,732.50474 485.71866,735.16301 C 485.72061,737.82127 485.78041,743.59614 485.85155,747.99607 C 485.99281,756.73352 485.39869,758.62963 482.50411,758.67976 C 478.09845,758.756 464.26007,759.42959 459.86752,759.78159 C 456.67678,759.95703 451.18577,761.67729 451.53739,756.28251 z M 389.70162,759.80656 C 389.41536,759.53786 306.88556,759.98148 288.70683,760.34941 C 281.38582,759.19981 274.2202,761.48689 265.79456,760.01994 C 265.37157,759.42476 264.83306,753.03354 264.59783,745.8172 C 264.26383,735.56972 264.47884,732.42364 265.5796,731.45011 C 266.64316,730.50947 273.56727,730.15955 293.79872,730.024 C 308.54408,729.9252 330.05856,729.69925 341.60869,729.52193 C 385.62644,728.84609 408.24678,729.18314 409.68778,730.53632 C 410.63137,731.42243 411.00976,733.78947 410.89536,738.09036 C 410.80373,741.53533 410.73857,747.61775 410.75056,751.60685 C 410.76804,757.42275 410.45586,758.90555 409.17482,759.0909 C 406.82525,759.43089 389.96166,760.05064 389.70162,759.80656 z M 213.10601,761.17394 C 206.87035,760.67822 206.17039,759.60317 206.33691,750.77722 C 206.38884,748.02424 206.3634,742.7435 206.28042,739.04226 C 206.13511,732.56291 206.23085,732.28271 208.85548,731.50516 C 211.85076,730.6178 218.28906,730.50259 221.89219,731.27188 C 224.15786,731.75561 224.20116,731.98643 224.48148,745.07877 C 224.63829,752.40196 224.48296,758.88653 224.13633,759.48894 C 223.22378,761.07477 219.33383,761.66902 213.10601,761.17394 z"
       id="path2453"
       sodipodi:nodetypes="csssssssssssssccccccssssssssssssssssccsssssssssssssssssssssssssssssssssssccscccsccssscccccsscccssssssccssssccssssssccssssccscccssssccssccccccssssccsssssccsssssssccsssssscccccssssssssccssssssc" />
  </g>
</svg>

