<?xml version="1.0" encoding="UTF-8" standalone="no"?>
<!-- Created with Inkscape (http://www.inkscape.org/) -->
<svg
   xmlns:dc="http://purl.org/dc/elements/1.1/"
   xmlns:cc="http://creativecommons.org/ns#"
   xmlns:rdf="http://www.w3.org/1999/02/22-rdf-syntax-ns#"
   xmlns:svg="http://www.w3.org/2000/svg"
   xmlns="http://www.w3.org/2000/svg"
   xmlns:sodipodi="http://sodipodi.sourceforge.net/DTD/sodipodi-0.dtd"
   xmlns:inkscape="http://www.inkscape.org/namespaces/inkscape"
   id="svg2"
   sodipodi:version="0.32"
   inkscape:version="0.46"
   width="181.27206"
   height="253.17676"
   version="1.0"
   sodipodi:docname="n_bowl_chopsticks.svg"
   inkscape:output_extension="org.inkscape.output.svg.inkscape">
  <metadata
     id="metadata7">
    <rdf:RDF>
      <cc:Work
         rdf:about="">
        <dc:format>image/svg+xml</dc:format>
        <dc:type
           rdf:resource="http://purl.org/dc/dcmitype/StillImage" />
      </cc:Work>
    </rdf:RDF>
  </metadata>
  <defs
     id="defs5">
    <inkscape:perspective
       sodipodi:type="inkscape:persp3d"
       inkscape:vp_x="0 : 526.18109 : 1"
       inkscape:vp_y="0 : 1000 : 0"
       inkscape:vp_z="744.09448 : 526.18109 : 1"
       inkscape:persp3d-origin="372.04724 : 350.78739 : 1"
       id="perspective9" />
  </defs>
  <sodipodi:namedview
     inkscape:window-height="756"
     inkscape:window-width="1222"
     inkscape:pageshadow="2"
     inkscape:pageopacity="1"
     guidetolerance="10.0"
     gridtolerance="10.0"
     objecttolerance="10.0"
     borderopacity="1.0"
     bordercolor="#666666"
     pagecolor="#ffffff"
     id="base"
     showgrid="false"
     inkscape:zoom="0.73020528"
     inkscape:cx="28.679357"
     inkscape:cy="32.561434"
     inkscape:window-x="-1"
     inkscape:window-y="0"
     inkscape:current-layer="svg2"
     showguides="true"
     inkscape:guide-bbox="true"
     borderlayer="true" />
  <rect
     style="opacity:1;fill:#ffffff;fill-opacity:1;stroke:#ffffff;stroke-width:0.5;stroke-linecap:square;stroke-miterlimit:4;stroke-dasharray:none;stroke-dashoffset:0;stroke-opacity:1"
     id="rect2401"
     width="1463.9719"
     height="909.33331"
     x="-949.61761"
     y="-52.26112" />
  <path
     style="fill:#000000"
     d="M 11.894576,250.78319 C 11.731076,243.69859 12.109976,224.39609 12.418576,224.08749 C 12.839176,223.66689 37.831776,223.10909 89.449776,222.36809 C 109.79978,222.07599 131.39977,221.59849 137.44977,221.30699 C 143.49977,221.01549 152.79937,220.68979 158.11557,220.58329 C 163.43167,220.47679 168.11917,220.05209 168.53217,219.63959 C 168.94517,219.22709 171.44957,218.88959 174.09737,218.88959 C 179.71437,218.88959 179.54377,218.52949 180.49107,232.38959 C 181.71367,250.28009 181.82177,249.38089 178.43977,249.45619 C 176.79527,249.49289 172.29977,249.88169 168.44977,250.32029 C 164.59977,250.75879 149.97477,251.25099 135.94977,251.41409 C 121.92477,251.57709 88.287276,252.04039 61.199776,252.44359 L 11.949776,253.17679 L 11.894576,250.78319 z M 130.98937,249.50289 C 142.28617,249.37349 152.07367,248.93109 152.73937,248.51959 C 153.41087,248.10459 153.94977,248.26929 153.94977,248.88959 C 153.94977,249.50449 154.46717,249.68789 155.09947,249.29709 C 156.96157,248.14619 162.84267,247.90739 163.49097,248.95619 C 163.81927,249.48749 164.61937,249.59009 165.26887,249.18399 C 166.66047,248.31419 168.85777,247.77029 170.94977,247.77789 C 171.77477,247.78089 173.94557,247.55559 175.77367,247.27729 L 179.09767,246.77119 L 178.66597,235.54469 C 178.39187,228.41299 177.72997,223.51059 176.85157,222.10389 C 175.46487,219.88359 173.94977,219.16249 173.94977,220.72289 C 173.94977,221.18129 173.38727,221.65389 172.69977,221.77309 C 171.01177,222.06599 140.11597,222.81429 114.94927,223.17189 C 103.67408,223.33209 93.999076,223.73709 93.449276,224.07199 C 92.899576,224.40689 80.974776,224.78289 66.949776,224.90769 C 52.924776,225.03249 38.974776,225.25749 35.949776,225.40759 C 32.924776,225.55769 26.737276,225.81299 22.199776,225.97489 L 13.949776,226.26909 L 13.949776,238.58459 L 13.949776,250.90009 L 62.199776,250.31909 C 88.737276,249.99949 119.69257,249.63219 130.98937,249.50289 z M 11.011876,210.92799 C 9.6757761,210.10219 9.5894761,207.62559 10.270076,189.63819 C 10.438276,185.19049 10.643976,184.85029 13.486876,184.31679 C 15.157276,184.00339 27.335876,183.63239 40.550476,183.49249 C 53.765076,183.35249 65.110876,182.90809 65.763376,182.50479 C 66.415976,182.10149 66.949776,182.21679 66.949776,182.76099 C 66.949776,183.90719 76.829876,183.73769 78.699776,182.55929 C 79.407076,182.11359 79.949776,182.22869 79.949776,182.82449 C 79.949776,183.86519 86.071176,183.55069 87.907776,182.41559 C 88.404876,182.10839 89.048676,182.24049 89.338376,182.70929 C 89.772376,183.41159 94.449776,183.53549 94.449776,182.84479 C 94.449776,182.72839 106.82478,182.49519 121.94977,182.32649 C 137.07477,182.15779 156.08727,181.74819 164.19977,181.41629 L 178.94977,180.81269 L 178.94977,192.19619 C 178.94977,201.77569 178.67247,203.82729 177.19977,205.14219 C 175.70177,206.47969 169.83347,206.78909 136.44977,207.29059 C 56.287976,208.49479 14.892776,209.69199 13.501876,210.84639 C 12.873376,211.36799 11.781776,211.40379 11.011876,210.92799 z M 36.449776,207.41509 C 43.049776,207.14249 62.399776,206.67839 79.449776,206.38389 C 96.499776,206.08929 118.32477,205.62829 127.94977,205.35929 C 137.57477,205.09019 151.85327,204.71209 159.67977,204.51889 C 169.20167,204.28389 174.41297,203.74999 175.43087,202.90529 C 176.59797,201.93669 176.92977,199.57779 176.85677,192.76719 C 176.80007,187.47709 176.31607,183.61599 175.65867,183.20969 C 175.05207,182.83479 172.28187,182.66379 169.50277,182.82969 C 159.36697,183.43479 146.42877,183.69639 94.449776,184.34699 C 45.598076,184.95849 17.191076,185.54169 15.949776,185.95849 C 15.674776,186.05089 15.041076,186.04939 14.541476,185.95519 C 12.620376,185.59319 11.979876,188.75009 11.965076,198.65309 L 11.949776,208.91659 L 18.199776,208.41379 C 21.637276,208.13719 29.849776,207.68779 36.449776,207.41509 z M 74.300876,179.28409 C 72.569076,178.55929 69.627576,177.80999 67.764276,177.61889 C 65.900876,177.42769 63.942876,177.04009 63.413076,176.75759 C 62.883276,176.47499 60.424776,175.62399 57.949776,174.86649 C 55.474776,174.10899 51.987276,172.40089 50.199776,171.07069 C 48.412276,169.74059 46.949776,168.95349 46.949776,169.32179 C 46.949776,169.69009 45.444776,168.84349 43.605376,167.44049 C 41.765976,166.03749 39.817676,164.88959 39.275776,164.88959 C 36.848576,164.88959 18.002976,146.23349 14.187576,140.05369 C 11.092576,135.04069 4.9497761,122.06089 4.9497761,120.53419 C 4.9497761,119.84969 4.4097761,118.74959 3.7497761,118.08959 C 3.0897761,117.42959 2.8074761,116.88959 3.1223761,116.88959 C 3.4372761,116.88959 2.9064761,113.95289 1.9427761,110.36349 C -0.17282391,102.48339 -0.68122391,83.849187 1.0187761,76.499287 C 5.5371761,56.964687 11.125276,45.181987 21.928976,32.409287 C 29.141176,23.882587 38.544376,16.225587 46.949776,12.034787 C 49.424776,10.800787 52.124776,9.4154874 52.949776,8.9562874 C 53.774776,8.4970874 55.574776,7.6752874 56.949776,7.1299874 C 58.324776,6.5847874 60.745476,5.6157874 62.329076,4.9766874 C 63.912576,4.3375874 65.446176,4.0526874 65.736976,4.3434874 C 66.027876,4.6342874 66.789176,4.4378874 67.428776,3.9070874 C 68.068476,3.3761874 71.709876,2.6439874 75.520776,2.2799874 C 79.331776,1.9159874 82.787276,1.1166874 83.199776,0.5038874 C 83.722876,-0.2733126 84.252276,-0.1566126 84.949776,0.8895874 C 85.605376,1.8729874 86.208176,2.0298874 86.699776,1.3451874 C 87.487276,0.2485874 94.669276,0.2811874 101.44978,1.4121874 C 103.64978,1.7790874 106.34978,2.2041874 107.44978,2.3568874 C 108.54978,2.5094874 109.44978,2.7430874 109.44978,2.8759874 C 109.44978,3.0088874 110.57478,3.2575874 111.94978,3.4285874 C 113.32477,3.5996874 115.79977,4.2888874 117.44977,4.9601874 C 119.09977,5.6315874 123.28627,7.2052874 126.75317,8.4572874 C 130.22007,9.7092874 134.57757,11.893787 136.43647,13.311687 C 138.29537,14.729487 140.20597,15.889587 140.68217,15.889587 C 141.79367,15.889587 151.18477,24.066487 156.75987,29.888587 C 164.10327,37.557387 174.32877,54.866187 175.18177,61.071687 C 175.35707,62.346587 175.84957,63.946487 176.27637,64.627187 C 176.70317,65.307787 177.75317,70.482787 178.60957,76.127187 C 181.53977,95.438087 178.65887,114.55989 170.31567,131.17789 C 168.32427,135.14439 166.35867,138.61459 165.94767,138.88959 C 165.53667,139.16459 164.32027,141.04069 163.24447,143.05869 C 161.60007,146.14359 152.40517,155.85169 147.76857,159.39849 C 147.04327,159.95329 144.58497,161.86579 142.30587,163.64849 C 140.02667,165.43109 137.84767,166.88959 137.46357,166.88959 C 137.07947,166.88959 135.65307,167.76449 134.29367,168.83369 C 132.93437,169.90299 131.17587,170.52989 130.38597,170.22669 C 129.59607,169.92359 128.94977,170.12489 128.94977,170.67399 C 128.94977,171.68059 121.10857,175.38819 119.68187,175.05629 C 119.25957,174.95809 117.45957,175.48479 115.68187,176.22669 C 113.90427,176.96869 110.64978,177.94359 108.44978,178.39329 C 106.24978,178.84289 103.77478,179.36649 102.94978,179.55689 C 98.100376,180.67589 77.150376,180.47639 74.300876,179.28409 z M 99.949776,177.85679 C 100.77478,177.78259 102.12478,177.47099 102.94978,177.16439 C 103.77478,176.85779 105.79978,176.50399 107.44978,176.37829 C 110.96128,176.11059 123.01847,172.15019 124.39977,170.81079 C 124.92227,170.30419 125.97777,169.88959 126.74537,169.88959 C 127.51297,169.88959 129.38627,169.00289 130.90827,167.91919 C 132.43027,166.83539 133.96227,166.23539 134.31267,166.58579 C 134.66307,166.93619 134.94977,166.69789 134.94977,166.05629 C 134.94977,165.41459 135.55507,164.88959 136.29477,164.88959 C 137.03457,164.88959 138.43817,164.00749 139.41387,162.92929 C 140.38957,161.85109 141.54477,161.06359 141.98087,161.17929 C 143.77077,161.65399 157.03347,148.48819 161.32047,141.98099 C 175.74677,120.08329 180.17667,101.01209 176.53337,76.488587 C 175.64837,70.531387 174.60547,65.147087 174.21597,64.523487 C 173.82637,63.899887 173.39607,62.675187 173.25977,61.802087 C 173.01407,60.228687 168.44667,50.318087 165.15827,44.223087 C 164.21857,42.481487 161.76227,39.182287 159.69977,36.891587 C 157.63727,34.600787 155.94977,32.415587 155.94977,32.035487 C 155.94977,31.655387 154.09357,29.779587 151.82497,27.866987 C 149.55627,25.954387 146.06877,22.929287 144.07497,21.144387 C 142.08107,19.359487 140.14437,17.896987 139.77117,17.894387 C 139.39797,17.891787 138.44537,17.242287 137.65417,16.451187 C 135.79337,14.590287 123.73667,8.8895874 121.66197,8.8895874 C 120.78517,8.8895874 119.85047,8.5378874 119.58477,8.1080874 C 119.31917,7.6782874 117.63497,7.2147874 115.84227,7.0781874 C 114.04947,6.9415874 112.02587,6.3676874 111.34518,5.8027874 C 107.60888,2.7018874 73.112876,2.9863874 69.175676,6.1505874 C 68.474876,6.7137874 67.646676,6.9197874 67.335176,6.6083874 C 67.023776,6.2968874 65.009676,6.6628874 62.859376,7.4214874 C 60.709076,8.1801874 58.949776,8.5651874 58.949776,8.2771874 C 58.949776,7.9890874 57.661476,8.6707874 56.086876,9.7919874 C 54.512376,10.913187 52.912876,11.519387 52.532576,11.138987 C 52.152276,10.758687 51.527976,10.936587 51.145476,11.534187 C 50.762876,12.131887 48.649776,13.593087 46.449776,14.781187 C 39.988076,18.270887 31.748576,24.548787 27.449776,29.257687 C 20.552676,36.812987 17.949776,39.855687 17.949776,40.363287 C 17.949776,40.633387 16.149776,43.795187 13.949776,47.389587 C 11.749776,50.983987 9.9497761,54.491787 9.9497761,55.184687 C 9.9497761,55.877687 9.2492761,57.444687 8.3930761,58.667087 C 7.5368761,59.889487 7.0639761,60.889587 7.3420761,60.889587 C 7.6201761,60.889587 7.1447761,62.572187 6.2854761,64.628587 C 5.4262761,66.685087 4.5247761,70.095087 4.2821761,72.206387 C 4.0396761,74.317587 3.4131761,77.170987 2.8899761,78.547087 C 1.5327761,82.116787 2.2146761,106.29889 3.7238761,108.11729 C 4.3885761,108.91829 4.6951761,109.81089 4.4050761,110.10099 C 3.5750761,110.93099 8.0431761,123.74859 11.582576,130.69099 C 17.876976,143.03739 23.822676,149.78269 40.852776,163.89789 C 42.174476,164.99329 43.706976,165.88959 44.258376,165.88959 C 44.809876,165.88959 46.795576,167.06009 48.671076,168.49059 C 50.546676,169.92109 52.347676,170.82499 52.673476,170.49929 C 52.999276,170.17349 53.757176,170.29619 54.357776,170.77189 C 56.439676,172.42099 67.827176,175.96989 75.120676,177.24269 C 81.132076,178.29169 92.102276,178.56309 99.949776,177.85679 z M 90.823176,165.42959 C 90.558076,165.16449 86.765576,164.75269 82.395476,164.51449 C 73.441176,164.02649 68.170276,163.05529 67.359876,161.74409 C 67.058376,161.25619 66.393576,161.11529 65.882776,161.43109 C 65.371876,161.74679 63.490476,161.23989 61.701876,160.30459 C 56.115876,157.38359 55.005376,156.88959 54.025076,156.88959 C 53.501576,156.88959 51.582976,155.50749 49.761476,153.81819 C 47.940076,152.12899 45.212276,150.09239 43.699776,149.29249 C 42.187276,148.49269 40.949776,147.39979 40.949776,146.86389 C 40.949776,146.32809 40.499776,145.88959 39.949776,145.88959 C 38.781476,145.88959 34.586876,141.90679 35.699776,141.85419 C 36.112276,141.83469 35.324776,141.17559 33.949776,140.38959 C 32.574776,139.60359 31.805076,138.94449 32.239276,138.92509 C 32.673376,138.90559 32.567676,138.32709 32.004276,137.63959 C 27.484176,132.12379 25.949776,129.96719 25.949776,129.13009 C 25.949776,128.59619 25.105776,127.08609 24.074176,125.77449 C 22.529676,123.81069 19.578576,116.72369 18.500576,112.38959 C 18.363776,111.83959 17.846376,110.48959 17.350876,109.38959 C 16.405376,107.29089 16.211876,76.842587 17.122076,73.389587 C 18.951976,66.448187 24.698876,53.995787 27.506076,50.889587 C 28.748776,49.514587 30.626176,46.814587 31.678176,44.889587 C 32.730176,42.964587 34.985976,40.489587 36.691076,39.389587 C 38.396076,38.289587 40.008276,36.607487 40.273676,35.651687 C 40.539076,34.695787 41.924776,33.469387 43.353076,32.926387 C 44.781276,32.383387 45.949776,31.548787 45.949776,31.071787 C 45.949776,30.594787 47.490276,29.374887 49.373076,28.360987 C 52.340276,26.762987 53.022176,26.704787 54.490776,27.923587 C 56.671476,29.733487 73.891376,30.276987 74.065176,28.541487 C 74.128576,27.907987 74.252476,26.714587 74.340576,25.889587 C 74.596976,23.486687 73.013576,20.889587 71.292176,20.889587 C 69.994676,20.889587 69.932176,20.615787 70.949776,19.389587 C 71.634476,18.564587 73.688076,17.889587 75.513276,17.889587 C 77.338376,17.889587 79.045776,17.543287 79.307376,17.120087 C 79.903476,16.155487 94.599576,16.205987 95.569476,17.175887 C 95.961976,17.568487 95.758176,17.945887 95.116476,18.014587 C 92.539576,18.290687 92.091576,18.414487 91.489176,19.016887 C 90.468376,20.037687 89.793876,25.132287 90.373676,27.442387 C 90.770276,29.022587 91.717676,29.607087 93.986876,29.671587 C 97.730176,29.777987 98.943576,27.324287 97.918776,21.720187 C 97.533576,19.613387 97.382876,17.852087 97.584076,17.806287 C 98.321776,17.638187 104.97278,17.728887 105.69978,17.916987 C 106.11228,18.023687 107.48608,18.025887 108.75268,17.921787 C 110.01938,17.817687 111.71768,18.282087 112.52687,18.953587 C 113.33607,19.625187 114.27397,19.898787 114.61107,19.561687 C 114.94817,19.224487 116.39977,19.748787 117.83687,20.726787 C 119.27397,21.704687 123.59977,24.013187 127.44977,25.856787 C 131.29977,27.700287 134.80967,29.811887 135.24947,30.549087 C 135.68927,31.286387 136.70177,31.889587 137.49947,31.889587 C 138.29717,31.889587 138.94977,32.276687 138.94977,32.749687 C 138.94977,33.869887 145.56837,40.887687 146.63257,40.895887 C 147.08207,40.899387 148.22437,42.136887 149.17117,43.645887 C 152.63727,49.170587 153.46147,50.399687 154.02867,50.889587 C 154.88857,51.632387 162.07857,67.071187 162.64427,69.389587 C 164.54497,77.179287 165.06927,84.074987 164.62107,95.389587 C 164.17387,106.67929 163.68617,109.57369 160.91387,117.38959 C 159.15817,122.33959 157.09797,126.74949 156.33567,127.18929 C 155.57347,127.62909 154.94977,128.63689 154.94977,129.42869 C 154.94977,130.22059 152.68577,133.36849 149.91857,136.42409 C 147.15147,139.47959 145.14457,142.39579 145.45887,142.90439 C 145.77317,143.41299 144.54977,144.45559 142.74007,145.22129 C 140.93037,145.98709 138.59257,147.57569 137.54477,148.75159 C 136.49707,149.92749 135.07207,150.88959 134.37807,150.88959 C 133.68417,150.88959 132.96647,151.22709 132.78307,151.63959 C 132.18327,152.98929 126.06617,156.88959 124.54927,156.88959 C 123.73447,156.88959 122.78967,157.33959 122.44977,157.88959 C 122.10987,158.43959 120.99577,158.88959 119.97407,158.88959 C 118.95237,158.88959 117.94927,159.39099 117.74497,160.00389 C 117.41527,160.99309 114.38347,161.80619 109.94978,162.09459 C 109.12478,162.14819 108.20718,162.55959 107.91068,163.00859 C 107.61418,163.45769 104.46418,164.07329 100.91068,164.37669 C 97.357176,164.67999 93.742276,165.14949 92.877476,165.41989 C 92.012676,165.69029 91.088276,165.69469 90.823176,165.42959 z M 79.853576,155.47549 L 79.687476,148.31149 L 67.318676,148.35049 L 54.949976,148.38959 L 54.949876,151.61389 C 54.949776,155.12719 56.522676,156.29799 64.699776,158.87199 C 67.037276,159.60769 68.949776,160.55919 68.949776,160.98629 C 68.949776,161.70989 72.347776,162.31149 77.734776,162.54189 C 79.925676,162.63559 80.012876,162.34509 79.853576,155.47549 z M 92.772476,158.43359 C 92.949876,156.25779 92.817376,152.99719 92.477876,151.18769 C 91.900576,148.11029 91.621476,147.91369 88.155276,148.14369 C 86.117276,148.27899 84.119176,148.83959 83.715076,149.38959 C 82.768576,150.67799 82.725876,161.33239 83.663476,162.26999 C 84.056076,162.66249 86.193576,162.84999 88.413476,162.68669 C 92.335176,162.39809 92.458976,162.27729 92.772476,158.43359 z M 105.81238,161.47449 C 106.64458,160.96019 106.72468,160.32339 106.05818,159.52029 C 105.51448,158.86509 104.93008,155.86759 104.75968,152.85929 C 104.45288,147.44379 104.42008,147.39239 101.44978,147.67509 C 96.144576,148.17989 95.949776,148.44619 95.949776,155.19159 C 95.949776,158.69219 96.184276,161.79069 96.470776,162.07719 C 97.226076,162.83259 104.35978,162.37229 105.81238,161.47449 z M 114.44977,159.43349 C 115.54977,159.03709 118.70627,157.62759 121.46417,156.30119 C 124.22197,154.97479 126.80437,153.88959 127.20267,153.88959 C 128.45967,153.88959 131.94977,150.49639 131.94977,149.27439 C 131.94977,148.63039 131.38727,147.89519 130.69977,147.64039 C 128.79457,146.93449 110.39368,147.49729 109.09278,148.30129 C 108.44538,148.70129 107.94978,151.55419 107.94978,154.88039 C 107.94978,160.39279 108.08788,160.73479 110.19978,160.45359 C 111.43728,160.28889 113.34977,159.82979 114.44977,159.43349 z M 51.949776,150.44859 C 51.949776,148.85599 50.135476,147.37059 49.259776,148.24639 C 48.437076,149.06899 49.721276,151.88959 50.918376,151.88959 C 51.485676,151.88959 51.949776,151.24119 51.949776,150.44859 z M 51.710276,145.63959 C 52.263176,144.95209 52.492176,142.92709 52.219176,141.13959 C 51.796376,138.37149 51.310676,137.88959 48.943276,137.88959 C 44.364076,137.88959 42.866776,143.64949 46.949776,145.55839 C 50.247876,147.10029 50.531576,147.10509 51.710276,145.63959 z M 79.078776,145.13959 C 79.591076,142.15969 79.408776,138.67329 78.718176,138.24649 C 77.520276,137.50609 57.198176,137.61799 55.978776,138.37169 C 55.412876,138.72149 54.949776,140.55609 54.949776,142.44859 L 54.949776,145.88959 L 66.949776,145.88959 C 73.549776,145.88959 79.007876,145.55209 79.078776,145.13959 z M 139.94977,144.43929 C 139.94977,143.64159 140.64237,142.60139 141.48897,142.12759 C 142.80247,141.39259 142.65037,140.85859 140.45177,138.48629 C 138.35477,136.22359 137.60327,135.93229 136.41257,136.92039 C 134.69897,138.34259 134.58747,139.80659 135.92497,143.32449 C 136.96157,146.05079 139.94977,146.87849 139.94977,144.43929 z M 91.909976,143.43759 C 93.834076,141.11919 92.256976,138.16169 88.828176,137.65849 C 85.217476,137.12849 82.949776,138.98119 82.949776,142.46099 C 82.949776,144.61489 83.388376,144.88959 86.827376,144.88959 C 88.997176,144.88959 91.235676,144.25009 91.909976,143.43759 z M 102.59828,143.83319 C 104.54888,143.09149 105.01458,142.29799 104.76618,140.13909 C 104.48058,137.65689 104.06088,137.38659 100.44978,137.35879 C 96.189176,137.32589 94.980576,138.59959 95.700176,142.36389 C 96.152276,144.72899 98.773476,145.28729 102.59828,143.83319 z M 114.28187,143.95349 C 115.63607,143.43859 117.01467,143.28789 117.34537,143.61849 C 118.21977,144.49289 122.94997,144.87519 122.94847,144.07139 C 122.94777,143.69639 124.86027,143.38959 127.19847,143.38959 C 131.27467,143.38959 131.46277,143.25409 131.76607,140.09959 L 132.08247,136.80959 L 120.08317,136.95359 C 110.51448,137.06849 107.96908,137.39699 107.51688,138.57539 C 106.50548,141.21089 106.90758,142.39449 109.19978,143.52969 C 110.43728,144.14259 111.53298,144.69929 111.63468,144.76679 C 111.73638,144.83439 112.92757,144.46829 114.28187,143.95349 z M 41.617976,142.31209 C 42.412476,140.24149 39.755976,137.64299 37.664976,138.44539 C 36.164176,139.02129 36.158876,139.27899 37.602376,141.48219 C 39.429676,144.27089 40.760676,144.54599 41.617976,142.31209 z M 40.199776,134.97289 C 40.612276,134.92709 40.949776,133.73469 40.949776,132.32319 C 40.949776,130.11339 40.567676,129.80069 38.199776,130.07319 C 36.088376,130.31609 35.379976,130.99029 35.149176,132.97619 C 34.842176,135.61749 34.744976,135.57899 40.199776,134.97289 z M 51.176476,130.71629 C 49.462876,129.00259 46.120676,128.97879 44.716876,130.67019 C 43.746876,131.83899 43.976276,132.49259 45.904576,134.05409 C 48.272276,135.97129 48.313476,135.97029 50.333276,133.95059 C 51.914676,132.36919 52.103876,131.64369 51.176476,130.71629 z M 63.449776,133.87669 C 63.449776,133.76889 66.599776,133.56429 70.449776,133.42199 C 79.152576,133.10019 78.624076,133.24339 79.196676,131.05369 C 79.644176,129.34239 78.838576,129.22369 67.325276,129.30369 C 57.820776,129.36979 54.851776,129.70699 54.444576,130.76639 C 53.559076,133.06959 55.626976,134.46079 59.640076,134.26159 C 61.735476,134.15769 63.449776,133.98439 63.449776,133.87669 z M 89.845476,132.97519 C 92.359676,131.38329 90.320176,128.88389 86.743676,129.17389 C 82.768876,129.49619 81.568876,132.49369 85.141376,133.17619 C 86.410976,133.41879 87.674776,133.67159 87.949776,133.73809 C 88.224776,133.80459 89.077876,133.46129 89.845476,132.97519 z M 104.25628,130.82559 C 104.69958,129.13019 104.22228,128.88959 100.41518,128.88959 C 96.182376,128.88959 94.271276,129.98279 95.376776,131.77149 C 95.676576,132.25659 97.683176,132.67779 99.835976,132.70749 C 102.89228,132.74969 103.86098,132.33719 104.25628,130.82559 z M 129.69977,131.99529 C 131.27937,131.92109 131.94977,131.26879 131.94977,129.80589 C 131.94977,127.79209 131.54957,127.73329 120.03027,128.05589 C 107.82768,128.39749 105.87088,128.88469 107.72528,131.11909 C 108.66608,132.25269 117.08217,132.58829 129.69977,131.99529 z M 141.25487,128.83069 C 141.71117,127.08589 141.38717,126.81899 139.13007,127.08069 C 135.55607,127.49529 134.78047,130.88959 138.25977,130.88959 C 139.89887,130.88959 140.89567,130.20439 141.25487,128.83069 z M 150.94907,129.13959 C 150.94857,127.97839 150.10747,127.34109 148.44907,127.24539 C 145.70847,127.08729 145.30547,127.84529 147.14977,129.68959 C 148.90847,131.44829 150.94987,131.15279 150.94907,129.13959 z M 31.996276,122.59569 C 31.594976,120.81659 31.169376,116.02659 31.050376,111.95129 C 30.759476,101.99039 30.120676,100.98839 24.202776,101.21089 L 19.449776,101.38959 L 19.142276,105.63959 C 18.960376,108.15419 19.266576,109.88959 19.892276,109.88959 C 20.473976,109.88959 20.949776,110.78839 20.949776,111.88689 C 20.949776,115.11289 26.878876,126.72409 28.741276,127.14549 C 31.604876,127.79349 32.793776,126.13159 31.996276,122.59569 z M 40.712776,114.22049 L 40.449776,100.80139 L 37.449776,101.09549 L 34.449776,101.38959 L 34.798576,113.88959 C 34.990476,120.76459 35.319776,126.67089 35.530376,127.01459 C 35.740976,127.35839 37.052376,127.63959 38.444576,127.63959 L 40.975776,127.63959 L 40.712776,114.22049 z M 51.291976,116.57499 C 51.091476,102.83359 50.620276,100.88959 47.489776,100.88959 C 44.060176,100.88959 43.642276,102.10659 43.925676,111.26699 C 44.439676,127.87829 44.332276,127.50939 48.633576,127.43699 L 51.449776,127.38959 L 51.291976,116.57499 z M 72.211876,126.72329 C 74.830976,126.63649 77.471176,125.96639 78.078876,125.23409 C 78.993076,124.13249 78.795376,107.10149 77.788276,100.21429 C 77.599176,98.920787 74.057076,98.792787 72.403676,100.01969 C 70.998376,101.06269 66.765876,100.77619 65.123576,99.526987 C 64.199076,98.823787 63.552376,98.914587 62.988676,99.826787 C 62.475076,100.65769 60.861876,100.98139 58.568376,100.71369 C 55.904076,100.40259 54.825976,100.70439 54.457876,101.86429 C 53.894876,103.63789 53.971176,123.57769 54.549676,125.88959 C 54.842276,127.05879 56.306076,127.33349 61.187376,127.13539 C 64.631776,126.99549 69.592776,126.81009 72.211876,126.72329 z M 91.068176,124.63959 C 91.133376,123.95209 91.166476,123.15139 91.141776,122.86019 C 91.117076,122.56899 90.869176,117.67189 90.590876,111.97779 C 90.312676,106.28359 89.636176,101.17599 89.087576,100.62739 C 87.812176,99.351987 82.753476,98.762887 83.503876,99.977087 C 83.814076,100.47899 83.591276,100.88959 83.008776,100.88959 C 82.319976,100.88959 81.949776,105.25849 81.949776,113.38959 L 81.949776,125.88959 L 86.449776,125.88959 C 89.319976,125.88959 90.992676,125.43689 91.068176,124.63959 z M 101.83188,124.32979 C 104.18858,123.59519 104.20588,123.49049 103.46168,114.48839 C 103.04798,109.48409 102.57598,104.48959 102.41298,103.38959 C 102.24988,102.28959 102.07898,101.12589 102.03308,100.80349 C 101.98728,100.48119 100.14978,100.14699 97.949776,100.06069 C 94.006276,99.906187 93.315176,100.71989 93.776376,104.97449 C 93.811176,105.29629 93.927576,109.54529 94.034976,114.41679 C 94.280176,125.54099 95.002076,126.45879 101.83188,124.32979 z M 121.76797,123.36649 C 127.28097,123.43249 131.35367,123.05159 131.74127,122.43379 C 132.43737,121.32419 132.10047,101.94239 131.36427,100.75129 C 131.12517,100.36439 125.34507,100.03659 118.51957,100.02279 L 106.10968,99.997787 L 106.44028,107.19369 C 106.62218,111.15149 106.81118,116.55369 106.86038,119.19859 C 106.91038,121.89069 107.35958,123.75439 107.88068,123.43229 C 108.39268,123.11589 109.10778,123.33619 109.46968,123.92189 C 109.85698,124.54839 110.60568,124.63039 111.28878,124.12089 C 111.92738,123.64469 116.64297,123.30519 121.76797,123.36649 z M 151.68017,113.26709 C 151.99317,101.21029 151.62297,99.889587 147.93017,99.889587 L 144.94857,99.889587 L 145.15027,110.51919 C 145.28177,117.45079 145.78727,121.58419 146.60317,122.40019 C 147.29147,123.08839 147.53847,124.02109 147.15217,124.47279 C 146.76587,124.92459 147.57477,124.58549 148.94977,123.71929 C 151.27667,122.25359 151.46577,121.52979 151.68017,113.26709 z M 142.35197,110.45149 C 142.42687,102.36439 142.14297,99.889187 141.14077,99.889387 C 140.38377,99.889487 140.12937,99.362387 140.53747,98.639587 C 141.10207,97.639587 140.97387,97.639587 139.89647,98.639587 C 139.15577,99.327087 137.71527,99.889587 136.69517,99.889587 C 135.01287,99.889587 134.88797,100.56269 135.35017,107.13959 C 135.63037,111.12709 135.87987,116.26909 135.90467,118.56629 C 135.93847,121.69969 136.38687,122.84429 137.69977,123.14849 C 141.34157,123.99239 142.24957,121.51429 142.35197,110.45149 z M 158.22087,117.57429 C 160.38097,112.32049 161.06647,109.65719 161.67917,104.13959 L 162.15117,99.889587 L 158.22777,99.889587 L 154.30437,99.889587 L 154.23137,109.57959 C 154.12937,123.11229 155.12427,125.10599 158.22087,117.57429 z M 29.863276,97.051287 C 30.404376,96.040187 30.591076,94.233887 30.278176,93.037187 C 29.784376,91.149087 29.071176,90.883987 24.885076,91.032087 C 22.231776,91.125987 19.546576,91.520787 18.917876,91.909287 C 17.124376,93.017787 18.149576,97.439187 20.124376,97.113087 C 21.045376,96.960987 22.084476,97.298487 22.433376,97.863087 C 23.522176,99.624787 28.794276,99.048787 29.863276,97.051287 z M 40.525876,94.743487 C 40.451476,90.976687 40.367576,90.891787 36.719376,90.890687 C 33.204976,90.889687 33.008076,91.055087 33.321376,93.745787 C 33.799576,97.852787 34.627176,98.764987 37.793276,98.674987 C 40.385376,98.601287 40.596076,98.298087 40.525876,94.743487 z M 50.639776,95.984787 C 51.977976,90.661287 46.694576,88.308487 44.036476,93.044187 C 42.844976,95.166987 42.793876,95.996787 43.781076,97.186387 C 45.738376,99.544687 49.929576,98.810487 50.639776,95.984787 z M 57.449776,97.889587 C 57.795176,97.330787 62.479876,96.889587 68.067876,96.889587 C 73.857276,96.889587 77.829876,96.504487 77.502576,95.974987 C 77.191676,95.471987 77.474476,94.881387 78.131076,94.662487 C 78.898576,94.406687 78.517076,93.456887 77.062476,92.002287 C 74.902776,89.842587 74.338376,89.772187 64.624976,90.450187 C 54.647676,91.146687 52.724476,91.857987 53.542276,94.548887 C 53.766476,95.286287 54.160676,96.564587 54.418376,97.389587 C 54.954176,99.104587 56.537476,99.365687 57.449776,97.889587 z M 161.00597,97.104487 C 162.63067,97.470187 163.93667,92.784587 162.66857,91.139587 C 161.21357,89.252387 157.48637,89.639187 155.45067,91.888687 C 153.69977,93.823387 153.71027,93.947287 155.77747,95.740187 C 156.95227,96.758987 157.58407,97.982087 157.18157,98.458187 C 156.77907,98.934187 157.18987,98.760187 158.09447,98.071587 C 158.99907,97.382887 160.30927,96.947687 161.00597,97.104487 z M 89.541976,95.630787 C 89.898376,95.274387 89.926676,93.933687 89.604876,92.651587 C 89.024076,90.337187 88.938376,90.315387 82.366876,90.808387 C 81.191276,90.896587 81.118176,93.735087 82.244676,95.557787 C 82.966976,96.726387 88.391976,96.780787 89.541976,95.630787 z M 101.26618,96.003587 C 101.71528,95.940887 101.94028,94.652087 101.76618,93.139587 C 101.47938,90.646587 101.07688,90.391987 97.458476,90.415587 C 94.446076,90.435287 93.383476,90.876187 93.125876,92.213687 C 92.423776,95.859787 94.701776,96.920387 101.26618,96.003587 z M 130.76617,95.980087 C 131.59767,95.922887 131.96607,94.876587 131.76617,93.139587 L 131.44977,90.389587 L 118.69977,90.352687 C 110.61358,90.329287 105.90648,90.695087 105.83128,91.352687 C 105.61078,93.282587 106.14558,95.386987 106.98978,95.911587 C 107.65948,96.327687 124.97957,96.377587 130.76617,95.980087 z M 141.67367,95.560187 C 142.95467,94.768587 142.27027,91.851487 140.52267,90.654887 C 138.73347,89.429787 135.19737,89.801887 134.63217,91.274787 C 133.33337,94.659487 138.26997,97.663887 141.67367,95.560187 z M 151.37267,94.804287 C 151.93417,94.280687 151.86677,93.002987 151.20047,91.540487 C 150.34567,89.664287 149.54007,89.245287 147.52757,89.629987 C 144.93147,90.126287 144.28787,92.001087 145.56817,95.337587 C 146.19327,96.966587 149.36627,96.674987 151.37267,94.804287 z M 27.266176,87.903287 C 29.746176,87.891187 30.044876,87.560987 29.766176,85.139587 C 29.499476,82.821387 28.917776,82.338787 26.061476,82.065887 C 20.573076,81.541687 17.949776,82.595687 17.949776,85.325287 C 17.949776,87.993287 19.441976,88.995487 22.449776,88.347687 C 23.549776,88.110787 25.717176,87.910787 27.266176,87.903287 z M 38.367976,88.282587 C 39.305976,87.922687 39.949776,86.498187 39.949776,84.782587 C 39.949776,82.142987 39.643276,81.889587 36.449776,81.889587 C 33.402076,81.889587 32.949776,82.206187 32.949776,84.339887 C 32.949776,85.687587 33.737276,87.248887 34.699776,87.809487 C 36.837776,89.054687 36.477076,89.008187 38.367976,88.282587 z M 49.449776,84.889587 C 49.449776,82.799987 48.916276,82.338187 46.199776,82.076287 C 43.349976,81.801487 42.949776,82.057987 42.949776,84.159587 C 42.949776,87.277987 43.813876,88.046887 46.912376,87.685487 C 48.873376,87.456787 49.449776,86.821687 49.449776,84.889587 z M 76.948576,84.607887 L 76.949776,81.826087 L 65.219476,82.107887 L 53.489276,82.389587 L 53.290676,84.993287 L 53.092076,87.596987 L 65.019676,87.493287 L 76.947276,87.389587 L 76.948576,84.607887 z M 88.353576,86.279787 C 89.302276,83.807487 87.815276,81.889587 84.949776,81.889587 C 81.977276,81.889587 80.244176,84.335987 81.849276,86.266387 C 83.205576,87.897587 87.729176,87.906987 88.353576,86.279787 z M 101.74808,83.477087 C 101.51338,81.834887 100.70318,81.371587 97.949776,81.304987 C 91.849576,81.157487 90.560776,82.357687 93.578776,85.375687 C 94.474676,86.271587 95.810276,86.773387 96.546676,86.490787 C 97.283176,86.208187 98.165176,86.429187 98.506776,86.981787 C 99.511576,88.607587 102.08368,85.826387 101.74808,83.477087 z M 121.19867,86.720787 L 131.94977,86.977687 L 131.94977,84.540587 C 131.94977,83.200287 131.38727,81.907187 130.69977,81.667287 C 130.01227,81.427287 124.08317,81.278987 117.52397,81.337787 C 108.79828,81.415887 105.48358,81.788187 105.17138,82.724987 C 104.59388,84.457287 107.93718,88.015387 109.33238,87.153187 C 109.94568,86.774087 115.28557,86.579487 121.19867,86.720787 z M 140.94977,84.358187 C 140.94977,81.322687 138.36627,80.044487 136.33547,82.075287 C 134.33657,84.074187 135.63557,86.889587 138.55677,86.889587 C 140.45057,86.889587 140.94977,86.361487 140.94977,84.358187 z M 151.31137,85.389587 C 152.31477,82.774687 150.86177,80.889587 147.84277,80.889587 C 145.47867,80.889587 144.94977,81.316187 144.94977,83.222887 C 144.94977,84.506287 145.24977,85.856287 145.61647,86.222887 C 146.85867,87.465187 150.73247,86.898287 151.31137,85.389587 z M 161.78727,86.011187 C 163.14927,85.147887 163.06837,80.183387 161.69977,80.639587 C 161.28727,80.777087 159.81067,80.889587 158.41837,80.889587 C 155.73857,80.889587 154.35407,82.894787 155.31137,85.389587 C 155.93617,87.017687 159.63877,87.373087 161.78727,86.011187 z M 29.162076,78.639587 C 29.396576,77.952087 29.468176,74.239587 29.321176,70.389587 C 29.174176,66.539587 29.030576,61.252087 29.001876,58.639587 C 28.973276,56.027087 28.541776,53.889587 28.043076,53.889587 C 27.114276,53.889587 22.335776,64.972287 19.925676,72.716087 C 18.773276,76.418987 18.786076,77.172387 20.014476,77.943287 C 20.803876,78.438587 22.199476,78.610887 23.115676,78.326087 C 24.031876,78.041287 25.070876,78.276587 25.424676,78.848887 C 26.313076,80.286387 28.645076,80.155687 29.162076,78.639587 z M 38.750176,79.034087 C 41.071876,77.561487 39.129476,49.970187 36.699776,49.908587 C 31.667176,49.780987 31.978676,48.805787 32.222976,63.926787 C 32.404176,75.139087 32.751676,78.154587 33.949776,78.911487 C 35.793176,80.075887 37.056976,80.108187 38.750176,79.034087 z M 49.461076,72.639587 C 49.278276,68.652087 49.081576,62.239587 49.023876,58.389587 C 48.897176,49.918287 48.202076,48.537187 44.529176,49.459087 L 41.798276,50.144487 L 42.216276,64.110487 C 42.657376,78.850087 42.997376,79.841687 47.621676,79.874287 C 49.682776,79.888787 49.776576,79.519987 49.461076,72.639587 z M 76.037176,78.335587 C 76.916376,77.792287 77.055976,74.409287 76.566976,65.493787 C 75.582576,47.542087 76.872676,49.408087 65.354276,49.276087 C 50.855476,49.109987 51.878876,48.236087 52.559476,60.202187 C 52.878076,65.805287 53.097776,72.122487 53.047576,74.240387 C 52.997376,76.358287 53.150876,78.405987 53.388776,78.790787 C 53.954876,79.706787 74.486176,79.294187 76.037176,78.335587 z M 88.125776,65.566687 C 87.923576,58.319287 87.388476,51.724487 86.936676,50.911687 C 85.668276,48.629687 80.140276,48.714187 79.406276,51.026687 C 78.767676,53.038687 79.691276,74.213087 80.542476,77.075287 C 81.088776,78.912487 83.305676,79.671487 86.471676,79.105287 C 88.402576,78.759887 88.476976,78.151387 88.125776,65.566687 z M 96.479776,77.841087 C 96.926876,77.117687 97.543876,77.137787 98.469076,77.905587 C 99.498176,78.759687 100.06998,78.533487 100.92628,76.933487 C 101.54008,75.786587 101.81558,74.481487 101.53848,74.033187 C 101.26148,73.584887 100.96418,68.399887 100.87798,62.510987 C 100.69888,50.275387 99.965376,48.824987 94.074276,49.055887 C 90.326176,49.202687 90.322676,49.206987 90.592676,53.296187 C 90.741276,55.547587 91.125476,61.664587 91.446476,66.889587 C 91.767476,72.114587 92.222876,76.952087 92.458576,77.639587 C 92.979276,79.158687 95.584776,79.289187 96.479776,77.841087 z M 130.66567,77.565187 C 131.54457,77.021987 131.40597,52.596187 130.51057,50.212287 C 129.89607,48.576387 105.28358,48.540587 104.27398,50.174087 C 103.27738,51.786487 103.86918,76.087487 104.93628,77.373287 C 105.83138,78.451887 128.95207,78.624287 130.66567,77.565187 z M 151.14257,62.592087 L 150.83547,49.889587 L 147.89257,49.889587 C 144.48607,49.889587 144.66527,49.043987 144.92587,63.889587 C 145.08437,72.924787 145.47867,75.781687 146.76537,77.218787 C 148.35117,78.989987 148.45137,78.988487 149.92647,77.171287 C 151.15257,75.660687 151.38987,72.815987 151.14257,62.592087 z M 161.46997,75.237587 C 161.23037,73.366387 160.76487,71.399387 160.43537,70.866287 C 160.10597,70.333287 159.64627,68.882887 159.41387,67.643387 C 159.18157,66.403787 158.57287,64.489587 158.06127,63.389587 C 157.54967,62.289587 156.87947,60.602087 156.57187,59.639587 C 155.22797,55.434787 154.21177,58.533787 154.42887,66.174587 C 154.68877,75.324887 156.06127,78.639587 159.59017,78.639587 C 161.64227,78.639587 161.85597,78.252787 161.46997,75.237587 z M 141.20787,76.639587 C 141.46757,75.952087 141.54097,73.364587 141.37097,70.889587 C 141.20107,68.414587 140.83157,62.666187 140.54997,58.115487 C 140.26837,53.564687 139.77867,49.421787 139.46187,48.909087 C 138.80257,47.842487 135.82397,48.719887 134.68337,50.316687 C 133.58967,51.847987 134.08197,72.947587 135.27427,75.639587 C 136.35567,78.081087 140.40567,78.763687 141.20787,76.639587 z M 38.057476,44.579187 C 38.807976,41.772987 38.069176,40.544587 36.329076,41.705587 C 34.903376,42.656887 33.821876,45.873687 34.538176,47.032587 C 35.533976,48.643887 37.299676,47.413087 38.057476,44.579187 z M 48.514476,44.685687 C 49.468276,41.680587 46.798776,39.364887 44.066476,40.827187 C 41.526576,42.186487 41.292676,45.422487 43.639376,46.735787 C 45.854476,47.975387 47.719276,47.191187 48.514476,44.685687 z M 74.930376,44.925987 C 76.333176,42.304787 74.451576,41.230087 68.027976,40.983287 C 65.045976,40.868787 62.345976,40.747487 62.027976,40.713887 C 61.709976,40.680287 59.360476,40.706087 56.806776,40.771187 C 51.547176,40.905287 49.917376,42.857187 52.722476,45.662287 C 54.172376,47.112187 56.015876,47.338387 64.201376,47.070987 C 72.420376,46.802387 74.106576,46.465287 74.930376,44.925987 z M 86.806776,45.999087 C 87.609976,45.490187 87.909776,44.338787 87.541276,43.177787 C 87.072776,41.701687 85.932576,41.177587 82.934276,41.060087 C 79.141076,40.911487 78.949776,41.047687 78.949776,43.896787 C 78.949776,46.609787 79.253676,46.888187 82.199776,46.874287 C 83.987276,46.865887 86.060476,46.472087 86.806776,45.999087 z M 99.517176,45.780687 C 99.826076,45.280687 99.794476,43.975687 99.446976,42.880687 C 98.987676,41.433487 97.931876,40.889587 95.582376,40.889587 C 91.566676,40.889587 89.692176,42.539787 90.978276,44.942787 C 91.979176,46.813087 98.484576,47.451387 99.517176,45.780687 z M 130.76617,43.611287 C 131.07427,40.961587 130.94187,40.886787 125.76617,40.783987 C 114.70687,40.564387 104.41918,41.060587 103.60718,41.852787 C 103.14368,42.304987 103.22898,43.542787 103.79668,44.603587 C 104.73838,46.363087 105.95328,46.523587 117.63937,46.432687 L 130.44977,46.332987 L 130.76617,43.611287 z M 139.94977,44.485387 C 139.94977,43.175387 139.23797,41.830387 138.36797,41.496587 C 136.24827,40.683187 136.31667,40.665587 134.48667,42.495587 C 132.48857,44.493687 133.78787,46.357187 137.38687,46.655087 C 139.47937,46.828287 139.94977,46.430087 139.94977,44.485387 z M 146.67957,45.200287 C 146.87467,44.614987 146.34027,43.869687 145.49207,43.544187 C 144.41117,43.129387 143.94977,43.566187 143.94977,45.004287 C 143.94977,47.061687 146.00977,47.209587 146.67957,45.200287 z M 48.949776,34.854387 C 48.949776,32.204287 46.160976,32.340087 43.761276,35.106987 C 41.925276,37.223887 41.919976,37.354087 43.643976,37.981287 C 46.131176,38.886287 48.949776,37.225187 48.949776,34.854387 z M 74.301376,35.653087 C 74.604976,34.492287 74.650276,33.213887 74.401976,32.812287 C 73.802676,31.842587 53.334376,32.170187 52.339976,33.165387 C 51.913676,33.592087 51.434876,34.793587 51.275876,35.835487 C 51.006576,37.599787 51.768076,37.730987 62.368076,37.746687 C 73.114176,37.762687 73.780276,37.645787 74.301376,35.653087 z M 86.750176,34.805487 C 87.027076,32.423887 86.733276,32.208987 83.000176,32.062687 C 79.381676,31.920887 78.949776,32.151987 78.949776,34.230087 C 78.949776,37.307487 79.512676,37.739287 83.276476,37.549587 C 85.893976,37.417587 86.502376,36.936987 86.750176,34.805487 z M 98.457476,36.714987 C 98.828676,36.343887 98.828076,35.081487 98.456176,33.909687 C 97.901976,32.163387 97.121576,31.834087 94.130876,32.084287 C 91.035476,32.343287 90.453176,32.773287 90.292776,34.918687 C 90.120476,37.222187 90.445976,37.445087 93.943076,37.418687 C 96.054776,37.402687 98.086276,37.085987 98.457476,36.714987 z M 130.17317,36.066187 C 130.96227,35.277087 130.94527,34.589087 130.11167,33.584687 C 129.25327,32.550387 125.61497,32.139887 115.88057,31.979387 L 102.80278,31.763787 L 103.12628,34.076687 C 103.30418,35.348787 104.05058,36.633887 104.78498,36.932587 C 107.25258,37.936087 129.04707,37.192287 130.17317,36.066187 z M 136.94977,35.330587 C 136.94977,34.473087 136.49977,34.049687 135.94977,34.389587 C 135.39977,34.729487 134.94977,35.431087 134.94977,35.948587 C 134.94977,36.466187 135.39977,36.889587 135.94977,36.889587 C 136.49977,36.889587 136.94977,36.188087 136.94977,35.330587 z M 86.594076,24.628287 C 86.436276,18.897487 86.429476,18.889587 81.636676,18.889587 C 78.409076,18.889587 78.317476,19.006287 78.089576,23.408887 C 77.960876,25.894587 78.082276,28.294987 78.359376,28.743287 C 78.636376,29.191587 80.634976,29.627787 82.800676,29.712587 L 86.738276,29.866887 L 86.594076,24.628287 z M 124.82817,28.344587 C 126.11507,27.057687 114.58097,21.381487 112.85127,22.450487 C 112.44937,22.698887 111.95828,22.415087 111.75988,21.819987 C 111.56148,21.224787 109.21068,20.509787 106.53578,20.231087 C 102.24908,19.784387 101.75018,19.926987 102.32828,21.433687 C 102.68908,22.373887 102.53938,23.679187 101.99548,24.334487 C 101.32848,25.138187 101.46288,26.177187 102.40838,27.527087 C 103.68478,29.349387 104.72688,29.497787 114.06867,29.186887 C 119.71087,28.999087 124.55267,28.620087 124.82817,28.344587 z M 53.949776,26.036487 C 53.949776,25.493087 55.299776,24.751987 56.949776,24.389587 C 58.599776,24.027187 59.949776,23.352187 59.949776,22.889587 C 59.949776,21.880287 65.849776,20.456287 66.662876,21.269287 C 66.976376,21.582787 65.256676,22.685487 62.841376,23.719687 C 56.246476,26.543387 53.949776,27.141887 53.949776,26.036487 z"
     id="path2384"
     sodipodi:nodetypes="cssssssssssccccsssssscccssssssscccccccssssssssssscccsssccsssssssssscccccsssssssssssssssssssssssssssssssssssssssssssssssssccsssssssssssssssssssssssssssssssssssssssssssssssssssccssssssssssssssssssssssssssssssssssssssssssssssssssssssssssssssssssssssccccccsssccsssssccsssssccsssssssccssccsssccsscccccssssccsssccsssccssscccsssccssccsssccsssccsssssccsssccsssccsssccssccssccscccsssccccccsccccssccccsssssssssccssssscccccssssssccsscccsssscccccsssccssssssscccccccccsssssccsssccssccsssssssccsssssccsssccssscccccssccssccsssccssssccssssccssscccccccccccssccssssccccssssccssccsssccsssccsssssssccsssccscccsccsssssccssssccssssssssccsssccccsssccssssssccsssssccssccssccsssssccssssccsssccsssccccsssccssccssccssssccsssccssssccscccsccsssccsssccccsssssssccssssc" />
</svg>

