<?xml version="1.0" encoding="UTF-8" standalone="no"?>
<!-- Created with Inkscape (http://www.inkscape.org/) -->

<svg
   xmlns:dc="http://purl.org/dc/elements/1.1/"
   xmlns:cc="http://creativecommons.org/ns#"
   xmlns:rdf="http://www.w3.org/1999/02/22-rdf-syntax-ns#"
   xmlns:svg="http://www.w3.org/2000/svg"
   xmlns="http://www.w3.org/2000/svg"
   xmlns:sodipodi="http://sodipodi.sourceforge.net/DTD/sodipodi-0.dtd"
   xmlns:inkscape="http://www.inkscape.org/namespaces/inkscape"
   width="810"
   height="810"
   id="svg3570"
   version="1.1"
   inkscape:version="0.48.0 r9654"
   sodipodi:docname="New document 22">
  <defs
     id="defs3572" />
  <sodipodi:namedview
     id="base"
     pagecolor="#ffffff"
     bordercolor="#666666"
     borderopacity="1.0"
     inkscape:pageopacity="0.0"
     inkscape:pageshadow="2"
     inkscape:zoom="0.49497475"
     inkscape:cx="533.19642"
     inkscape:cy="398.82532"
     inkscape:document-units="px"
     inkscape:current-layer="layer1"
     showgrid="false"
     fit-margin-top="0"
     fit-margin-left="0"
     fit-margin-right="0"
     fit-margin-bottom="0"
     inkscape:window-width="1181"
     inkscape:window-height="942"
     inkscape:window-x="336"
     inkscape:window-y="52"
     inkscape:window-maximized="0" />
  <metadata
     id="metadata3575">
    <rdf:RDF>
      <cc:Work
         rdf:about="">
        <dc:format>image/svg+xml</dc:format>
        <dc:type
           rdf:resource="http://purl.org/dc/dcmitype/StillImage" />
        <dc:title></dc:title>
      </cc:Work>
    </rdf:RDF>
  </metadata>
  <g
     inkscape:label="Layer 1"
     inkscape:groupmode="layer"
     id="layer1"
     transform="translate(32.9375,-121.1875)">
    <rect
       style="fill:#ffffff;fill-opacity:1;stroke:#000000;stroke-width:50;stroke-miterlimit:4;stroke-opacity:1;stroke-dasharray:none"
       id="rect3642"
       width="760"
       height="760"
       x="-7.9527588"
       y="146.18109" />
    <path
       style="fill:#000000"
       d="m 11.547217,526.18112 0,-362.5 360.500013,0 360.50004,0 0,362.5 0,362.49994 -360.50004,0 -360.500013,0 0,-362.49994 z M 376.3763,867.55579 c 1.67369,-1.0452 2.37936,-1.0662 3.34597,-0.1 1.56256,1.5626 42.37352,1.7644 43.33152,0.2143 0.34353,-0.5558 3.44435,-0.9494 6.89071,-0.8747 3.44637,0.075 7.12936,-0.313 8.18443,-0.8616 1.05506,-0.5485 4.12194,-1.3174 6.81527,-1.7085 2.69334,-0.3912 5.61834,-1.0838 6.5,-1.5392 2.10228,-1.0859 10.32091,-3.9635 12.71945,-4.4535 4.20529,-0.8591 10.08258,-2.4458 13.38358,-3.6132 1.925,-0.6807 4.4,-1.5425 5.5,-1.9149 1.1,-0.3725 4.025,-1.6281 6.5,-2.7903 4.77555,-2.2425 12,-4.4006 12,-3.5847 0,0.2681 1.2375,-0.3701 2.75,-1.4182 1.5125,-1.0482 5,-2.4944 7.75,-3.2139 2.75,-0.7195 7.37584,-2.3676 10.27964,-3.6624 2.90379,-1.2949 5.89331,-2.3543 6.64336,-2.3543 0.75005,0 3.99921,-1.5527 7.22036,-3.4504 3.22115,-1.8977 7.24094,-4.0921 8.93286,-4.8763 1.69193,-0.7843 8.32641,-4.4066 14.74331,-8.0496 6.4169,-3.643 12.08744,-6.6237 12.6012,-6.6237 0.51375,0 1.81902,-1.125 2.9006,-2.49997 1.08158,-1.375 2.28585,-2.5 2.67616,-2.5 0.39031,0 3.47555,-2.27905 6.85608,-5.06455 7.9962,-6.58875 8.40501,-6.90278 13.58499,-10.43545 4.73862,-3.23167 6.43706,-4.76884 21.31143,-19.28776 5.3625,-5.23436 9.75,-10.12344 9.75,-10.86463 0,-0.74118 0.57801,-1.34761 1.28446,-1.34761 2.41801,0 10.86549,-11.39349 15.86814,-21.4021 5.81765,-11.63911 7.38155,-13.97824 14.82695,-22.17658 9.524,-10.48711 13.067,-14.75787 15.261,-18.39581 1.1695,-1.93903 3.4094,-5.10051 4.9776,-7.02551 1.5683,-1.925 3.1733,-3.95294 3.5666,-4.50653 1.0207,-1.43641 7.6195,-15.24822 9.5522,-19.99347 1.7573,-4.31456 3.8907,-9.69202 4.1656,-10.5 0.094,-0.275 0.4346,-1.175 0.7579,-2 0.3232,-0.825 1.131,-3.3 1.7952,-5.5 0.6642,-2.2 1.6892,-4.9 2.2779,-6 1.3481,-2.5191 1.4061,-2.72163 2.9159,-10.16977 0.6878,-3.39338 1.5881,-6.50588 2.0006,-6.91667 0.4125,-0.41079 0.75,-1.72189 0.75,-2.91356 0,-1.19167 0.2974,-2.46413 0.661,-2.82769 0.3635,-0.36356 0.7561,-1.90106 0.8723,-3.41666 0.1163,-1.51561 0.5349,-3.88065 0.9303,-5.25565 0.7421,-2.58065 2.5025,-11.941 2.9231,-15.5423 0.1312,-1.12327 0.5607,-2.56362 0.9545,-3.20079 0.3938,-0.63716 0.7658,-2.86813 0.8266,-4.9577 0.061,-2.08956 0.4367,-4.24921 0.8351,-4.79921 0.3985,-0.55 0.7759,-1.675 0.8389,-2.5 0.063,-0.825 0.5917,-4.875 1.1749,-9 2.4094,-17.03946 3.1718,-28.67886 3.3082,-50.5 0.1581,-25.30388 -0.4173,-34.69744 -2.1608,-35.27861 -0.7946,-0.26487 -0.8466,-0.9462 -0.1689,-2.21249 0.6717,-1.25514 0.5592,-3.03552 -0.3583,-5.66933 -0.7356,-2.11176 -1.1373,-4.4172 -0.8927,-5.12319 0.2447,-0.70599 -0.029,-1.85441 -0.6079,-2.55204 -0.5789,-0.69763 -0.7934,-2.25989 -0.4765,-3.4717 0.3169,-1.21181 0.098,-2.77909 -0.4857,-3.48284 -0.5841,-0.70374 -1.0415,-2.83885 -1.0165,-4.74467 0.075,-5.67971 -5.3228,-31.79291 -7.1235,-34.46513 -0.3706,-0.55 -1.286,-3.025 -2.0341,-5.5 -0.7482,-2.475 -1.689,-4.95 -2.0907,-5.5 -0.4017,-0.55 -1.0467,-2.69247 -1.4332,-4.76105 -0.3866,-2.06857 -1.0896,-4.00007 -1.5623,-4.29222 -0.4727,-0.29214 -1.3566,-2.42467 -1.9641,-4.73895 -0.6075,-2.31428 -3.0948,-8.27487 -5.5272,-13.24576 -2.4324,-4.97089 -4.4225,-9.38181 -4.4225,-9.80205 0,-0.90339 -6.6895,-14.23547 -10.3664,-20.65997 -1.4164,-2.475 -4.187,-7.65 -6.1568,-11.5 -1.9697,-3.85 -4.7953,-8.6352 -6.2791,-10.63378 -1.4838,-1.99858 -4.8082,-6.49858 -7.3877,-10 -2.5794,-3.50142 -5.6169,-7.31358 -6.75,-8.47146 -1.133,-1.15788 -2.06,-2.53211 -2.06,-3.05383 0,-0.52173 -1.5751,-2.47515 -3.50005,-4.34093 -1.925,-1.86578 -3.5,-3.76319 -3.5,-4.21645 0,-0.45326 -3.28423,-4.07749 -7.2983,-8.05383 -4.01406,-3.97635 -7.60386,-8.02743 -7.97732,-9.0024 -0.37346,-0.97498 -1.38777,-2.04465 -2.25401,-2.37707 -0.86625,-0.33241 -6.67387,-5.7222 -12.90583,-11.97731 -6.23195,-6.25512 -11.72155,-11.37294 -12.1991,-11.37294 -0.47755,0 -4.17835,-3.15 -8.224,-7 -4.04566,-3.85 -7.89833,-7 -8.5615,-7 -0.66316,0 -2.49914,-1.35 -4.07994,-3 -1.5808,-1.65 -3.46499,-3 -4.18709,-3 -0.7221,0 -1.31291,-0.33827 -1.31291,-0.75172 0,-0.41344 -2.1375,-1.86493 -4.75,-3.22553 -2.6125,-1.36059 -4.975,-2.71222 -5.25,-3.00361 -0.275,-0.29139 -2.3,-1.1417 -4.5,-1.88957 -2.2,-0.74786 -5.35,-1.95044 -7,-2.67239 -1.65,-0.72195 -5.24999,-2.28534 -7.99999,-3.47421 -2.75,-1.18886 -7.73556,-3.47139 -11.07903,-5.07227 -3.34346,-1.60089 -6.37778,-2.9107 -6.74292,-2.9107 -0.36514,0 -5.3519,-2.25 -11.08169,-5 -5.72978,-2.75 -11.02047,-5.00678 -11.75708,-5.01506 -1.45983,-0.0164 -6.30796,-1.75082 -11.89465,-4.25529 -1.95546,-0.87662 -4.88046,-1.91803 -6.5,-2.31424 -1.61955,-0.39622 -3.98585,-1.52663 -5.25845,-2.51202 -1.27261,-0.9854 -2.91459,-1.5611 -3.64885,-1.27934 -0.73427,0.28176 -1.6321,0.0316 -1.9952,-0.55588 -0.36309,-0.58749 -1.42111,-1.07094 -2.35115,-1.07433 -0.93004,-0.003 -2.8917,-0.63262 -4.35925,-1.39829 -1.46754,-0.76568 -4.54182,-1.70867 -6.83173,-2.09555 -2.28991,-0.38688 -5.36419,-1.32987 -6.83173,-2.09555 -1.46755,-0.76567 -3.83077,-1.3949 -5.2516,-1.39829 -1.42084,-0.003 -2.87556,-0.29838 -3.23273,-0.65555 -0.35716,-0.35716 -2.11966,-0.79114 -3.91666,-0.9644 -12.75649,-1.22989 -27.51227,-3.07413 -28.76728,-3.59545 -1.65655,-0.68812 -34.04493,-2.04145 -43.44149,-1.81518 -3.26781,0.0787 -6.41781,0.44086 -7,0.80482 -1.57508,0.98468 -3.27414,1.15776 -21.93939,2.235 -9.41552,0.54341 -20.04413,1.44563 -23.61913,2.00495 -3.575,0.55931 -9.65,1.45127 -13.5,1.98213 -3.85,0.53087 -10.15,1.67531 -14,2.54322 -3.85,0.86791 -7.92272,1.69313 -9.0505,1.83384 -1.12777,0.1407 -2.47777,0.51096 -3,0.82279 -0.52222,0.31183 -2.89878,0.88964 -5.28123,1.28402 -2.38246,0.39439 -5.53246,1.34352 -7,2.1092 -1.46755,0.76567 -3.42921,1.3949 -4.35925,1.39829 -0.93004,0.003 -1.97648,0.46809 -2.32541,1.03268 -0.34893,0.56459 -1.16299,0.94361 -1.80902,0.84228 -0.64602,-0.10133 -1.84959,0.0587 -2.67459,0.35557 -0.825,0.29689 -3.525,1.11068 -6,1.80841 -9.38145,2.64475 -19.48744,6.28589 -22.43746,8.08412 -1.6844,1.02675 -4.18754,2.42975 -5.56254,3.11779 -1.375,0.68803 -3.33477,2.00668 -4.35504,2.93033 -1.02027,0.92365 -3.27027,2.24468 -5,2.93562 -1.72973,0.69095 -4.71996,2.46234 -6.64496,3.93643 -1.925,1.47409 -5.29126,3.26293 -7.48057,3.9752 -2.18931,0.71226 -5.26143,2.57588 -6.82692,4.14138 -1.5655,1.56549 -3.21991,2.84635 -3.67649,2.84635 -0.45657,0 -3.90945,2.02409 -7.67307,4.49799 -3.76362,2.47389 -7.17531,4.49889 -7.58152,4.5 -0.95838,0.003 -4.45358,2.78192 -7.86241,6.25201 -1.48579,1.5125 -3.4209,2.75 -4.30023,2.75 -0.87933,0 -1.59879,0.45 -1.59879,1 0,0.55 -0.465,1 -1.03333,1 -0.56834,0 -2.60834,1.575 -4.53334,3.5 -1.925,1.925 -3.77615,3.5 -4.11367,3.5 -1.9377,0 -15.31966,12.28313 -15.31966,14.06172 0,0.51605 -0.7875,0.93954 -1.75,0.94108 -0.9625,0.002 -6.2037,4.24011 -11.64712,9.41905 -5.44341,5.17893 -11.85591,11.20606 -14.25,13.39362 -2.39408,2.18756 -4.35288,4.2925 -4.35288,4.67764 0,0.38514 -2.599635,3.53729 -5.776955,7.00478 -7.57233,8.26386 -23.22305,30.09562 -23.22305,32.39467 0,0.51743 -0.3375,1.09077 -0.75,1.27411 -0.4125,0.18333 -2.30945,3.48333 -4.21545,7.33333 -1.90599,3.85 -3.720758,7.225 -4.032808,7.5 -1.26045,1.11078 -7.00174,10.74902 -7.00174,11.75421 0,0.59352 -0.3375,1.22912 -0.75,1.41246 -1.20057,0.53358 -10.69302,20.20553 -10.41477,21.58333 0.13885,0.6875 -0.21728,1.25 -0.79139,1.25 -0.57411,0 -1.04384,1.0699 -1.04384,2.37756 0,1.30765 -0.62077,2.89274 -1.37949,3.52242 -1.11708,0.9271 -2.55807,5.18668 -2.57621,7.61531 -0.002,0.27811 -0.68789,1.8286 -1.52404,3.44553 -0.83614,1.61692 -1.52026,3.86221 -1.52026,4.98952 0,1.12731 -0.4588,2.04966 -1.01956,2.04966 -0.56075,0 -0.81555,1.125 -0.56622,2.5 0.24934,1.375 0.0607,2.5 -0.41917,2.5 -0.47988,0 -1.177,2.03053 -1.54917,4.5123 -0.37216,2.48176 -1.05394,4.74547 -1.51506,5.03045 -0.46112,0.28499 -1.14346,3.21453 -1.51631,6.51008 -0.37285,3.29556 -1.07029,6.23443 -1.54988,6.53083 -0.47958,0.2964 -0.59654,1.63633 -0.25989,2.97763 0.33664,1.34129 0.22579,2.4396 -0.24633,2.4407 -0.47213,0.001 -0.95666,1.40031 -1.07674,3.10937 -0.12007,1.70906 -0.66052,3.6402 -1.20098,4.29141 -0.54046,0.65122 -1.29186,4.202 -1.66977,7.89063 -0.37791,3.68863 -0.98299,6.7066 -1.34463,6.7066 -0.36163,0 -0.76339,1.6875 -0.89279,3.75 -0.1294,2.0625 -0.49574,4.5975 -0.81409,5.63333 -1.10756,3.60373 -1.48295,14.28988 -1.49342,42.51299 -0.006,16.17478 0.38508,28.65614 0.90865,29 0.50555,0.33202 0.81308,3.30368 0.6834,6.60368 -0.12969,3.3 0.0968,6.45 0.50339,7 0.83015,1.12306 3.38844,12.90678 3.34154,15.39148 -0.0167,0.88468 0.39705,2.15131 0.91943,2.81472 0.52238,0.6634 0.6473,1.69561 0.2776,2.2938 -0.3697,0.59819 -0.22555,1.6304 0.32032,2.2938 0.54588,0.66341 1.31805,3.4562 1.71595,6.2062 0.39789,2.75 1.42881,6.35 2.29094,8 0.86212,1.65 1.61691,3.45 1.6773,4 0.0604,0.55 0.40822,1.675 0.77297,2.5 1.84375,4.17025 3.02763,7.58118 2.87394,8.2802 -0.0944,0.4291 0.5994,2.2291 1.54168,4 0.94228,1.77089 1.60988,3.74837 1.48355,4.39439 -0.12633,0.64603 0.21259,1.44794 0.75316,1.78203 0.54056,0.33409 0.72795,1.27166 0.41642,2.08351 -0.53828,1.40274 0.93333,5.55379 4.18007,11.79091 0.81053,1.55707 1.4737,3.55012 1.4737,4.429 0,2.15973 2.24407,8.23996 3.04117,8.23996 0.35167,0 1.23314,2.475 1.95883,5.5 0.72569,3.025 1.69756,5.5 2.15971,5.5 0.46216,0 0.84029,0.70157 0.84029,1.55904 0,0.85748 1.8,5.27784 4,9.82304 2.2,4.54519 4,8.65407 4,9.13084 0,1.76988 8.470238,15.12355 12.043508,18.98708 2.03473,2.2 4.09482,4.75375 4.57799,5.67501 0.48318,0.92126 5.3785,6.38689 10.8785,12.14586 5.5,5.75897 12.573015,13.33021 15.717815,16.82499 3.14479,3.49478 11.69479,12.577 19,20.18272 7.3052,7.60572 18.23219,19.0883 24.28219,25.51683 6.05,6.42854 12.50795,12.80568 14.351,14.17142 1.84305,1.36574 4.20555,3.27067 5.25,4.23317 1.04445,0.9625 2.10848,1.75 2.36452,1.75 0.25604,0 1.80636,1.2375 3.44516,2.74997 4.89528,4.518 5.17765,4.6935 19.14188,11.8947 15.8259,8.1611 27.08095,13.0839 31.94744,13.9733 1.925,0.3518 7.775,2.6437 13,5.093 5.225,2.4493 10.4,4.8205 11.5,5.2692 1.1,0.4488 3.7175,1.5721 5.81667,2.4964 7.00178,3.083 20.64909,7.5234 23.12244,7.5234 1.34357,0 2.68444,0.3909 2.97971,0.8687 0.29527,0.4777 2.437,1.1725 4.7594,1.5438 2.3224,0.3714 4.69488,1.0434 5.27217,1.4932 0.57728,0.4499 3.25421,1.1058 5.94872,1.4575 2.69451,0.3517 5.39451,1.0164 6,1.4771 1.00939,0.7681 11.62566,2.8274 17.60089,3.4142 1.375,0.1351 14.02181,0.4029 28.10403,0.5952 20.0031,0.2731 26.06802,0.06 27.72505,-0.975 z m -27.83035,-49.0457 c 7e-4,-0.369 -3.26123,-0.8978 -7.24873,-1.1751 -19.34535,-1.3451 -41.87261,-5.3429 -43.75,-7.7641 -0.275,-0.35466 -2.525,-0.97172 -5,-1.37124 -2.475,-0.39953 -7.50043,-2.02964 -11.16761,-3.62247 -3.66719,-1.59283 -7.50456,-2.89606 -8.5275,-2.89606 -1.02293,0 -2.74751,-0.57844 -3.83238,-1.28542 -1.08488,-0.70698 -4.44751,-2.12211 -7.47251,-3.14472 -3.025,-1.02262 -6.21043,-2.46918 -7.07874,-3.21458 -0.86831,-0.7454 -2.18287,-1.35528 -2.92126,-1.35528 -0.73839,0 -2.05295,-0.58291 -2.92126,-1.29536 -0.86831,-0.71245 -4.05374,-2.13096 -7.07874,-3.15224 -7.12664,-2.40604 -13.17257,-5.6054 -20,-10.5835 -3.025,-2.20562 -7.4125,-4.91217 -9.75,-6.01456 -2.3375,-1.10238 -4.25,-2.44308 -4.25,-2.97933 0,-0.53626 -0.52475,-0.97501 -1.16611,-0.97501 -0.64136,0 -1.87886,-0.64361 -2.75,-1.43025 -0.87114,-0.78664 -2.84184,-2.58664 -4.37934,-4 -1.5375,-1.41336 -3.20182,-2.56975 -3.69848,-2.56975 -1.13017,0 -4.25284,-2.69225 -15.00607,-12.93764 -29.42948,-28.03962 -40.87324,-40.82097 -52.43369,-58.56236 -2.15031,-3.3 -4.65029,-7.125 -5.55551,-8.5 -0.90523,-1.375 -1.93885,-3.2875 -2.29695,-4.25 -0.35809,-0.9625 -1.12634,-1.75 -1.70722,-1.75 -0.58087,0 -1.51176,-1.0125 -2.06863,-2.25 -0.55688,-1.2375 -3.21815,-6.3 -5.91395,-11.25 -2.6958,-4.95 -5.87248,-11.025 -7.05928,-13.5 -1.18681,-2.475 -3.1853,-6.525 -4.441085,-9 -1.25579,-2.475 -2.84424,-6.3 -3.5299,-8.5 -0.68565,-2.2 -1.79645,-4.675 -2.46844,-5.5 -1.42559,-1.75021 -4.61224,-10.59317 -4.86485,-13.5 -0.0956,-1.1 -0.46746,-2.45343 -0.82637,-3.00762 -0.35891,-0.55418 -0.97709,-2.80418 -1.37374,-5 -0.39664,-2.19581 -1.05993,-4.44238 -1.47398,-4.99238 -0.41404,-0.55 -1.25197,-3.36884 -1.86207,-6.26408 -0.6101,-2.89525 -1.76059,-6.82292 -2.55665,-8.72816 -0.91434,-2.18832 -1.08337,-3.68905 -0.45898,-4.07495 0.64838,-0.40071 0.64134,-1.02906 -0.0205,-1.82648 -0.55488,-0.66858 -1.31243,-5.01602 -1.68345,-9.66097 -0.37103,-4.64495 -1.0856,-8.96763 -1.58795,-9.60596 -0.50445,-0.64102 -0.67993,-6.5539 -0.39195,-13.20758 0.29046,-6.71119 0.12209,-12.29376 -0.38014,-12.60416 -1.06087,-0.65565 -0.8635,-18.04225 0.21708,-19.12284 0.40599,-0.40598 0.73816,-5.1366 0.73816,-10.51247 0,-5.66228 0.43573,-10.04361 1.03572,-10.41443 0.56965,-0.35206 1.00938,-2.29112 0.97718,-4.30902 -0.0775,-4.85556 1.91315,-17.37214 2.96687,-18.65483 0.45818,-0.55774 1.13103,-3.26407 1.49521,-6.01407 0.36419,-2.75 1.04289,-5.9 1.50823,-7 0.46534,-1.1 1.35378,-4.025 1.97431,-6.5 0.62053,-2.475 1.24353,-4.95 1.38445,-5.5 1.42402,-5.55799 4.33862,-13.9383 6.26024,-18 1.30105,-2.75 3.54264,-8.825 4.98131,-13.5 1.438675,-4.675 3.398825,-9.4 4.355895,-10.5 0.95706,-1.1 3.32426,-4.925 5.26043,-8.5 4.93574,-9.11347 7.30178,-13.25026 10.24645,-17.91491 1.40454,-2.22494 2.55371,-4.31605 2.55371,-4.64692 0,-0.33087 1.50018,-2.47731 3.33374,-4.76987 1.83355,-2.29257 5.49703,-7.63201 8.14105,-11.86544 2.64402,-4.23342 5.41884,-7.9318 6.16626,-8.21861 0.74742,-0.28682 1.36598,-1.0981 1.37457,-1.80287 0.009,-0.70476 1.80883,-3.30638 4.00052,-5.78138 2.1917,-2.475 5.22217,-6.2935 6.73438,-8.48555 1.51222,-2.19205 3.98698,-5.04455 5.49948,-6.33889 1.5125,-1.29434 2.75,-2.80115 2.75,-3.34847 0,-1.25281 10.0288,-11.82709 11.21699,-11.82709 0.48342,0 1.86986,-1.11173 3.08098,-2.47051 2.33158,-2.61585 12.94181,-8.52949 15.30358,-8.52949 0.76915,0 1.39845,-0.46114 1.39845,-1.02475 0,-0.56361 1.125,-1.45248 2.5,-1.97525 1.375,-0.52277 2.5,-1.41164 2.5,-1.97525 0,-0.56361 0.58957,-1.02475 1.31016,-1.02475 0.72059,0 2.63309,-1.28737 4.25,-2.86082 1.61691,-1.57345 3.83984,-3.14727 4.93984,-3.49739 1.1,-0.35011 3.43809,-1.98774 5.19577,-3.63918 1.75767,-1.65143 3.86484,-3.00261 4.68261,-3.00261 0.81776,0 1.77249,-0.9 2.12162,-2 0.34913,-1.1 1.16695,-2.01199 1.81739,-2.02665 0.99207,-0.0224 10.2305,-6.40753 14.3904,-9.94599 0.66429,-0.56505 1.58708,-1.02736 2.05064,-1.02736 1.41243,0 6.22545,-2.45513 6.23377,-3.17985 0.004,-0.37391 1.9203,-1.5629 4.2578,-2.64219 10.29101,-4.75166 18.49999,-8.17796 19.59333,-8.17796 0.65109,0 1.9652,-0.38379 2.92024,-0.85286 5.13962,-2.52437 9.25284,-4.07802 13.73643,-5.18855 2.75,-0.68114 6.35,-1.78902 8,-2.46196 2.53737,-1.03485 6.25816,-1.95502 15.5,-3.83322 0.825,-0.16766 2.175,-0.57293 3,-0.9006 2.7842,-1.10582 7.48209,-2.166 10.5,-2.36955 1.65,-0.11129 5.7,-0.6927 9,-1.29201 3.3,-0.59932 7.6875,-1.09227 9.75,-1.09546 2.0625,-0.003 3.75,-0.39208 3.75,-0.86421 0,-1.28484 37.08373,-2.21362 48.00001,-1.20219 5.225,0.48412 11.75,1.43278 14.5,2.10814 2.75,0.67536 6.35,1.27844 8,1.34019 1.65,0.0618 3.225,0.38017 3.5,0.70759 0.275,0.32743 4.1,1.08584 8.5,1.68538 14.66009,1.99755 32.97963,5.79041 35,7.24638 0.55,0.39635 3.25,1.0286 6,1.405 5.47386,0.74921 12.87826,3.18305 15.97251,5.25018 1.08487,0.72476 2.90737,1.31775 4.05,1.31775 1.14262,0 2.50499,0.39564 3.02749,0.8792 0.5225,0.48356 2.75,1.41491 4.95,2.06967 5.9706,1.77696 7.24716,2.31828 16.5,6.99668 4.675,2.36377 12.55,6.33971 17.5,8.83543 4.95,2.49572 10.18759,5.47847 11.63909,6.62834 1.45149,1.14988 5.18715,3.89068 8.30145,6.09068 3.11429,2.2 6.73525,5.125 8.04657,6.5 1.31133,1.375 5.15395,4.75 8.53917,7.5 8.14802,6.6191 18.30117,16.80784 24.47371,24.55953 2.75,3.45354 6.33337,7.66546 7.96305,9.35982 4.47944,4.65724 16.77068,18.95152 19.03695,22.13931 1.1,1.54729 3.0125,4.03203 4.25,5.52165 1.2375,1.48962 2.25,3.16844 2.25,3.73071 0,0.56227 0.37228,1.17231 0.82729,1.35565 1.79085,0.72157 15.25801,22.43603 19.74282,31.83333 6.29174,13.18362 7.42994,15.76461 7.42994,16.84967 0,0.63268 0.3513,1.15033 0.7807,1.15033 0.7193,0 3.2385,5.17753 3.6491,7.5 0.6423,3.63233 2.1527,7.77395 4.7112,12.91875 1.6189,3.25531 2.7191,6.5034 2.4449,7.21798 -0.2742,0.71457 -0.1209,1.53268 0.3408,1.81803 0.4617,0.28534 1.1486,2.99266 1.5264,6.01626 0.3777,3.0236 1.0632,5.73005 1.5231,6.01433 0.46,0.28429 1.1553,2.87888 1.5452,5.76577 0.3899,2.88688 1.1301,6.04995 1.645,7.02904 1.2812,2.43617 1.9608,6.78352 2.5357,16.21984 0.2681,4.4 0.7823,8.31314 1.1426,8.69587 0.3604,0.38274 0.305,6.23274 -0.1232,13 -0.4281,6.76727 -0.9433,18.04702 -1.1448,25.06611 -0.6799,23.68518 -3.5478,51.93397 -5.6774,55.92228 -0.4947,0.92634 -0.8993,2.82939 -0.8993,4.229 0,2.34862 -3.0869,13.41493 -5.0452,18.08674 -0.4611,1.1 -1.1468,3.56023 -1.5238,5.46718 -0.3769,1.90694 -1.0459,4.15694 -1.4866,5 -2.434,4.65665 -4.9444,10.86423 -4.9444,12.2261 0,0.85901 -0.6461,2.09802 -1.4358,2.75337 -0.7896,0.65535 -1.74746,2.61103 -2.12851,4.34595 -0.38106,1.73492 -1.69088,4.74132 -2.91073,6.6809 -1.21984,1.93957 -3.50564,6.339 -5.07954,9.7765 -1.5739,3.4375 -3.218,6.25 -3.65356,6.25 -0.43555,0 -0.79191,0.8449 -0.79191,1.87756 0,1.03265 -0.68587,2.44678 -1.52417,3.1425 -0.83829,0.69572 -1.29966,1.48945 -1.02526,1.76384 0.27439,0.27439 -1.17723,2.5747 -3.22584,5.11179 -3.87418,4.79797 -5.07779,6.57548 -7.85765,11.60431 -0.91209,1.65 -3.53271,5.475 -5.8236,8.5 -5.48895,7.24787 -10.54348,14.891 -10.54348,15.94314 0,0.46359 -0.675,1.1019 -1.5,1.41849 -0.825,0.31658 -1.50235,1.15222 -1.50522,1.85699 -0.003,0.70476 -4.7449,6.23138 -10.53785,12.28138 -5.79295,6.05 -11.3031,12.15875 -12.24478,13.57499 -1.74653,2.62671 -16.595,15.92501 -17.78137,15.92501 -0.35927,0 -2.80312,1.8 -5.43078,4 -2.62766,2.2 -5.26983,4 -5.8715,4 -0.60166,0 -2.3392,1.10365 -3.86121,2.45255 -4.79061,4.24577 -16.20894,12.46087 -20.57085,14.80003 -2.30495,1.23608 -4.41709,2.54112 -4.69363,2.90008 -0.27654,0.35896 -2.9778,1.84936 -6.0028,3.31199 -3.025,1.46263 -8.425,4.18063 -12,6.03999 -3.575,1.85936 -7.85,3.8277 -9.5,4.37409 -1.65,0.54638 -7.92618,2.82219 -13.94706,5.05735 -6.02088,2.23516 -11.95682,4.06392 -13.19098,4.06392 -1.23416,0 -2.52204,0.45 -2.86196,1 -0.33992,0.55 -1.37898,1.00277 -2.30902,1.00616 -0.93004,0.003 -3.02094,0.69967 -4.64644,1.54729 -1.62551,0.84763 -4.88801,1.80602 -7.25,2.12977 -2.362,0.32374 -4.29454,0.93791 -4.29454,1.36481 0,0.91614 -3.37758,1.52444 -19.5,3.51194 -6.6,0.8136 -15.15,1.9512 -19,2.5281 -8.20115,1.2287 -58.50314,2.7257 -58.50128,1.7409 z m 23.41949,-13.43596 c 2.36169,-0.90626 1.91535,-4.62654 -1.08019,-9.00346 -1.46408,-2.13925 -5.02308,-8.36445 -7.90887,-13.83377 -3.22205,-6.1066 -6.0539,-10.24274 -7.33803,-10.71777 -1.15011,-0.42546 -2.09112,-1.23806 -2.09112,-1.80579 0,-0.56772 -0.83086,-1.03222 -1.84636,-1.03222 -1.0155,0 -3.29255,-0.72145 -5.0601,-1.60322 -1.76754,-0.88176 -5.09918,-1.84254 -7.40363,-2.13505 -2.30446,-0.29251 -4.63992,-0.86583 -5.18992,-1.27405 -1.65187,-1.22604 -21.15244,-0.0238 -32,1.97279 -7.77329,1.43077 -16.25819,1.21593 -19.56763,-0.49544 -3.49685,-1.80829 -3.77186,-1.42701 -4.36932,6.05783 -0.21851,2.73743 -0.70675,7.01385 -1.08498,9.50317 -0.53716,3.53536 -0.26303,5.28642 1.25244,8 1.64547,2.94636 3.14219,3.89475 9.85481,6.24454 9.36066,3.27673 18.12683,5.88082 20.91468,6.21293 4.91935,0.58603 10.10221,1.85836 11.23701,2.75856 0.68036,0.5397 2.34028,0.70437 3.68872,0.36594 1.34843,-0.33844 2.73084,-0.16369 3.072,0.38833 0.67223,1.08769 42.16489,1.4541 44.92049,0.39668 z m 44.58179,-1.08171 c 3.69883,-0.62304 4.06383,-0.68366 13.5,-2.24207 3.3,-0.545 8.62296,-1.20786 11.82879,-1.47302 3.20583,-0.26515 6.35583,-0.86341 7,-1.32945 1.45545,-1.05298 18.52613,-6.3095 21.74939,-6.69721 1.42835,-0.17181 7.92182,-4.10385 7.92182,-4.79695 0,-0.42493 0.87838,-0.7726 1.95196,-0.7726 1.19126,0 3.17191,-1.77314 5.08234,-4.54986 2.98723,-4.34179 3.05687,-4.66206 1.52275,-7.00342 -1.7234,-2.63024 -8.69345,-7.44429 -10.78718,-7.45046 -0.69843,-0.002 -2.74325,-0.90205 -4.54404,-2 -1.80079,-1.09794 -4.16329,-1.99626 -5.25,-1.99626 -1.08671,0 -1.97583,-0.36714 -1.97583,-0.81586 0,-1.85449 -7.9329,-5.18414 -12.35121,-5.18414 -2.51839,0 -6.68842,-0.7162 -9.26672,-1.59156 -5.10049,-1.73166 -7.98848,-1.54695 -16.38207,1.04774 -3.025,0.93511 -7.075,1.94009 -9,2.23329 -1.925,0.2932 -4.4,1.2951 -5.5,2.22645 -1.1,0.93135 -3.93156,2.92527 -6.29236,4.43094 -4.94411,3.15326 -12.20764,9.94783 -12.20764,11.41949 0,0.55021 -0.82325,1.21567 -1.82944,1.4788 -1.25976,0.32943 -2.3843,2.46767 -3.61127,6.86663 -0.98001,3.51352 -2.26879,7.28822 -2.86396,8.38822 -0.59517,1.1 -1.17895,3.71722 -1.29729,5.81605 -0.17375,3.08136 0.2004,3.98716 1.94339,4.70483 2.17389,0.8951 24.15179,0.38643 30.65857,-0.70958 z M 264.53992,776.31611 c -0.007,-6.03283 -0.0966,-6.23074 -5.37233,-11.88499 -2.95077,-3.1625 -6.23248,-5.75 -7.2927,-5.75 -1.06022,0 -2.42197,-0.4943 -3.02611,-1.09844 -1.17054,-1.17054 -9.31995,-0.76441 -15.19192,0.75709 -8.67413,2.24759 -7.03159,9.00091 3.48809,14.34135 6.83321,3.46897 16.43985,9.00285 17.40227,10.02454 0.275,0.29194 1.625,1.01553 3,1.60798 1.92784,0.83065 3.01494,0.74078 4.75,-0.39268 1.93073,-1.26129 2.24896,-2.34039 2.2427,-7.60485 z m 250.34878,-5.63156 c 3.66219,-1.80289 6.65853,-3.66621 6.65853,-4.14071 0,-0.47449 0.64234,-0.86272 1.42742,-0.86272 0.78508,0 2.30448,-1.115 3.37644,-2.47777 1.07195,-1.36278 3.12961,-2.92664 4.57258,-3.47525 1.44296,-0.54861 2.62356,-1.62852 2.62356,-2.39978 0,-0.77127 0.675,-1.96251 1.5,-2.6472 0.825,-0.68469 1.5,-1.75888 1.5,-2.38709 0,-1.31667 -12.99327,-7.61533 -15.69432,-7.60803 -0.99312,0.003 -4.76881,1.5256 -8.39042,3.38425 -3.62161,1.85865 -7.89661,3.67774 -9.5,4.04242 -4.14288,0.94226 -6.23436,2.78656 -6.81952,6.01354 -0.27929,1.54016 -0.74868,3.04118 -1.04309,3.3356 -0.29441,0.29441 -0.0389,1.13346 0.5679,1.86457 0.60676,0.7311 0.8424,2.00892 0.52363,2.8396 -0.31876,0.83068 0.37995,3.13659 1.55269,5.12424 2.00839,3.40396 2.37491,3.58656 6.30917,3.14311 2.29729,-0.25894 7.17324,-1.94589 10.83543,-3.74878 z m -29.34147,-10.53481 c 0,-0.84227 0.675,-1.79041 1.5,-2.10699 0.825,-0.31659 1.5,-0.99568 1.5,-1.50911 0,-0.51343 0.96203,-2.23471 2.13783,-3.82508 l 2.13784,-2.89157 -3.33612,-4.31794 c -1.83486,-2.37486 -4.99577,-6.16492 -7.02424,-8.42235 -5.87603,-6.53929 -6.36405,-11.745 -1.40565,-14.99387 2.35122,-1.54058 2.60517,-1.50288 4.96685,0.73735 1.36892,1.29852 2.49671,2.86156 2.50621,3.47344 0.0332,2.13686 6.14416,8.79953 10.1664,11.0842 5.06697,2.8781 6.46934,2.88746 7.97904,0.0533 0.65919,-1.2375 1.91252,-2.79819 2.78518,-3.4682 1.89143,-1.45219 12.71042,-1.69958 13.56906,-0.31027 0.33024,0.53434 2.71035,1.90484 5.28912,3.04555 4.37466,1.93512 4.7716,1.96065 5.92655,0.38115 0.68083,-0.93108 0.98854,-2.09629 0.68381,-2.58936 -0.30473,-0.49306 -0.12399,-1.43927 0.40164,-2.10267 1.20376,-1.51928 2.48656,-7.98458 2.61681,-13.18867 0.0776,-3.10267 -0.3026,-4.06078 -1.72121,-4.33697 -1.18184,-0.23009 -2.0124,0.37791 -2.36663,1.73247 -0.30016,1.14783 -0.88575,2.08697 -1.30131,2.08697 -0.41556,0 -1.0434,1.8 -1.39519,4 -0.52617,3.29052 -1.03829,4 -2.88726,4 -2.7551,0 -5.4158,-3.71293 -3.81083,-5.3179 0.59515,-0.59515 1.0821,-1.92118 1.0821,-2.94672 0,-2.03247 2.59295,-8.84306 6.94262,-18.23538 5.04599,-10.8959 7.66702,-23.38715 5.22411,-24.89695 -0.4583,-0.28325 -0.64004,-1.83152 -0.40388,-3.4406 0.23616,-1.60908 -0.0639,-3.23045 -0.66673,-3.60305 -0.60287,-0.37259 -1.09612,-2.25546 -1.09612,-4.18416 0,-3.67078 -1.02679,-6.21575 -3.82752,-9.48677 -0.91986,-1.07432 -1.67248,-2.35666 -1.67248,-2.84965 0,-2.53693 -11.75283,-12.98418 -16,-14.22262 -2.2,-0.6415 -4.60219,-1.62562 -5.33821,-2.18694 -2.24335,-1.71086 -20.1798,-1.26563 -23.90635,0.59342 -1.77942,0.88769 -4.64445,1.92349 -6.36674,2.30177 -1.86388,0.40937 -3.33293,1.45828 -3.62922,2.59128 -0.27377,1.04693 -2.01916,2.62546 -3.87863,3.50783 -1.85947,0.88238 -3.38085,1.97185 -3.38085,2.42104 0,2.02845 -4.84649,7.95024 -8.25,10.08046 -2.0625,1.29089 -3.75,2.63236 -3.75,2.98105 0,0.76431 -6.63564,2.65108 -13.5,3.83856 -8.46316,1.46407 -16.84709,4.25116 -20.18328,6.70958 -1.7508,1.29016 -3.5508,2.34615 -4,2.34664 -1.04328,10e-4 -8.31672,7.46718 -8.31672,8.53696 0,0.44257 -0.7358,1.61771 -1.6351,2.61144 -2.2321,2.46644 -3.0628,11.18562 -1.9865,20.85071 0.54893,4.92935 4.95572,14.35349 8.78389,18.7848 1.56074,1.80663 2.83771,3.71913 2.83771,4.25 0,0.53086 0.49345,0.9652 1.09655,0.9652 0.6031,0 3.13193,1.79161 5.61961,3.98136 5.6951,5.01303 12.34447,8.75655 17.10139,9.62788 2.02535,0.37099 4.57008,1.28568 5.65496,2.03264 1.35612,0.93372 5.26222,1.3573 12.5,1.35551 10.40246,-0.003 24.02749,2.3438 24.02749,4.13782 0,0.47563 0.675,0.86479 1.5,0.86479 0.82852,0 1.5,0.88677 1.5,1.98095 0,2.34313 -4.5273,3.89175 -6.27322,2.14583 -1.53394,-1.53394 -3.95411,-1.41535 -6.28565,0.30801 -1.85065,1.3679 -1.76951,1.50704 1.74049,2.98484 2.02489,0.85254 3.96395,2.00689 4.30902,2.56522 1.01453,1.64154 5.50936,1.22037 5.50936,-0.51623 z m 18.95992,-38.02687 c -3.64497,-5.29778 -6.11643,-6.4987 -11.80416,-5.73582 -5.10183,0.6843 -9.53763,-1.05388 -11.02604,-4.32057 -1.71127,-3.75584 -1.407,-4.97426 1.94701,-7.79647 2.65607,-2.23493 4.01521,-2.58889 9.94098,-2.58889 3.77534,0 7.11156,0.40015 7.41382,0.88922 0.30227,0.48907 1.7712,1.19583 3.2643,1.57058 3.94499,0.99012 6.58314,5.37976 7.67463,12.76983 0.14051,0.95129 0.56463,2.03879 0.9425,2.41667 1.10377,1.10376 0.79155,4.84919 -0.51296,6.1537 -2.25234,2.25234 -4.70175,1.20315 -7.84008,-3.35825 z m -286.95993,30.52307 c 0,-2.00281 -2.25987,-6.19441 -4.73703,-8.78625 -0.69464,-0.72678 -1.27704,-2.30178 -1.29424,-3.5 -0.0172,-1.19821 -1.13809,-4.42857 -2.49086,-7.17857 -1.35277,-2.75 -2.4637,-6.2375 -2.46873,-7.75 -0.005,-1.5125 -0.38727,-2.75 -0.84943,-2.75 -0.46215,0 -1.43402,-2.475 -2.15971,-5.5 -0.72569,-3.025 -1.64748,-5.5 -2.04842,-5.5 -0.40095,0 -1.02891,-1.59865 -1.39546,-3.55256 -0.36656,-1.9539 -1.31664,-3.80205 -2.11129,-4.10699 -0.79466,-0.30493 -1.44483,-0.95318 -1.44483,-1.44054 0,-1.86727 -8.7232,-14.79301 -11.54153,-17.10183 -5.23981,-4.29255 -11.58204,-6.03015 -19.70693,-5.39915 -11.26905,0.87518 -11.85762,1.00515 -20.00707,4.41807 -3.07015,1.28574 -3.63933,1.94784 -3.11881,3.62789 0.73572,2.3746 4.28875,7.72208 5.82616,8.76864 0.5765,0.39243 1.04818,1.08542 1.04818,1.53996 0,1.23763 4.49474,6.83215 8.86348,11.0322 16.41041,15.77677 28.03145,26.21431 29.18672,26.21431 0.44428,0 2.22875,1.4625 3.96548,3.25 5.84809,6.01906 15.86694,13.75 17.81921,13.75 0.85089,0 1.82519,0.45 2.16511,1 0.33992,0.55 1.94148,1 3.55902,1 2.29126,0 2.94098,-0.44961 2.94098,-2.03518 z m 57.92126,0.71153 c 4.73761,-3.97212 19.39738,-8.74579 27.07874,-8.81767 5.75018,-0.0538 20.40257,-4.57103 22,-6.78243 0.275,-0.3807 1.60914,-1.45115 2.96476,-2.37879 2.62278,-1.79474 9.02283,-13.05499 9.0306,-15.88844 0.003,-0.93004 0.45464,-1.9691 1.00464,-2.30902 0.55,-0.33992 1,-3.45703 1,-6.92692 0,-5.24169 -0.59206,-7.46501 -3.5,-13.14338 -1.925,-3.75897 -3.50215,-7.30591 -3.50478,-7.8821 -0.009,-2.00456 -6.83603,-8.46933 -9.65635,-9.14413 -1.56138,-0.37358 -3.35776,-1.0861 -3.99195,-1.58337 -2.41519,-1.89372 -8.27421,-2.97173 -20.51703,-3.77495 -9.60198,-0.62996 -13.23594,-1.25806 -15.00675,-2.59379 -2.63099,-1.98456 -8.82314,-9.88991 -8.82314,-11.26426 0,-1.42077 -10.26304,-10.74851 -14.05801,-12.77688 -4.64134,-2.48073 -19.26658,-2.63715 -22.94199,-0.24536 -1.375,0.89479 -3.625,1.95577 -5,2.35773 -1.375,0.40197 -3.175,1.3257 -4,2.05274 -13.73814,12.10693 -17,17.36482 -17,27.40278 0,7.42377 1.69211,15.52147 3.56886,17.07904 0.78713,0.65326 1.43114,1.75312 1.43114,2.44414 0,1.44235 5.41769,10.67326 8.75,14.90866 1.2375,1.57287 2.25,3.28122 2.25,3.79634 0,0.51511 0.675,1.61157 1.5,2.43657 0.825,0.825 1.5,2.31275 1.5,3.30612 0,0.99337 0.64607,2.34232 1.43572,2.99767 0.78965,0.65535 1.73206,2.54076 2.09425,4.18981 0.36219,1.64904 1.28835,4.20545 2.05812,5.6809 0.76977,1.47545 1.40236,3.41504 1.40575,4.3102 0.009,2.41195 2.81186,4.46674 4.19966,3.07894 1.39103,-1.39103 2.66888,-8.97779 2.74689,-16.30862 0.0839,-7.88553 2.6597,-11.31598 12.05961,-16.06106 6.04674,-3.05239 8.61417,-3.79092 13.25,-3.81141 l 5.75,-0.0254 0,3.81822 c 0,2.77366 0.8891,4.97501 3.25,8.04677 2.30747,3.00224 3.31387,5.44752 3.47022,8.43178 0.12113,2.31178 0.50383,5.85617 0.85045,7.87643 0.6285,3.66324 0.61666,3.67802 -4.36482,5.44728 -4.05007,1.43846 -5.29875,2.46246 -6.60044,5.41282 -1.7149,3.88689 -2.01536,6.22342 -0.93874,7.30003 1.07757,1.07757 3.55524,0.76779 5.25459,-0.65698 z m -14.86489,-7.89921 c 1.619,-1.77257 2.94363,-3.829 2.94363,-4.56983 0,-0.74083 1.33035,-3.28056 2.95633,-5.64384 l 2.95634,-4.29689 -2.20634,-2.00833 c -4.23173,-3.85196 -6.08457,-4.3061 -9.20825,-2.25699 -3.9157,2.56866 -5.35458,5.6497 -4.74856,10.16795 0.29974,2.23474 0.0159,4.40849 -0.68604,5.2543 -0.94413,1.13761 -0.84166,1.9854 0.48463,4.00957 2.22049,3.38889 3.95204,3.23762 7.50826,-0.65594 z m 293.20195,1.38657 c 1.79065,-0.70851 22.74168,-20.99532 22.74168,-22.02068 0,-0.30909 5.83326,-6.43022 12.96279,-13.60251 15.83271,-15.92764 19.72922,-20.82124 24.52167,-30.79661 2.04943,-4.26585 4.12883,-8.00491 4.62089,-8.30902 1.17395,-0.72554 1.14408,-5.64864 -0.0534,-8.79821 -1.21976,-3.20822 -7.30022,-6.08453 -12.49354,-5.90998 -8.90577,0.29933 -18.57585,1.49248 -19.11076,2.35799 -0.31113,0.50342 -1.32664,0.91942 -2.25668,0.92445 -3.38463,0.0183 -17.17502,7.83517 -17.18466,9.74086 -0.003,0.6875 -0.6597,1.25 -1.45828,1.25 -1.23438,0 -5.35357,5.07294 -9.04804,11.14301 -0.55,0.90366 -3.37115,5.39891 -6.26923,9.98944 l -5.26921,8.34642 0.1174,10.14285 c 0.0646,5.57857 -0.2692,10.98333 -0.74172,12.01057 -0.47252,1.02724 -0.7857,4.34271 -0.69595,7.36771 0.0897,3.025 0.20717,7.20162 0.26095,9.28138 0.068,2.62945 0.63088,3.97733 1.84777,4.42459 0.9625,0.35377 2.10986,1.23964 2.54969,1.96862 0.86808,1.43878 2.22117,1.57225 4.95862,0.48912 z M 139.95833,672.60439 c 3.23699,-3.84695 3.27629,-6.40062 0.14189,-9.22124 -3.34683,-3.01178 -3.63075,-7.68607 -0.69919,-11.51128 1.27096,-1.65839 3.39309,-3.28689 4.71586,-3.61888 2.97065,-0.74559 5.80467,-4.88881 5.76201,-8.42383 -0.0791,-6.55788 -6.54679,-22.12259 -10.88696,-26.19997 -1.34459,-1.26318 -2.44472,-2.7546 -2.44472,-3.31425 0,-1.37593 -7.58174,-8.36629 -9.85745,-9.08858 -1.00228,-0.31811 -2.42042,-1.69592 -3.15142,-3.06181 -0.731,-1.36589 -1.96698,-2.48343 -2.74663,-2.48343 -1.47957,0 -10.00931,-5.60497 -11.7445,-7.71741 -0.55,-0.66958 -2.65673,-1.90026 -4.68162,-2.73485 -2.02489,-0.83459 -3.96395,-1.97426 -4.30902,-2.53259 -0.345075,-0.55833 -1.852925,-1.01515 -3.350795,-1.01515 l -2.72339,0 0.71415,8.9382 c 0.39279,4.91601 1.2107,9.86601 1.81759,11 0.6069,1.13399 0.80751,2.0618 0.44582,2.0618 -0.3617,0 -0.1928,0.5625 0.37533,1.25 0.56813,0.6875 1.35631,3.05 1.75152,5.25 0.39521,2.2 1.295195,5.125 1.999945,6.5 0.70476,1.375 2.00871,4.16838 2.89768,6.20752 0.88897,2.03914 2.05427,3.9782 2.58955,4.30902 0.53528,0.33082 0.97324,1.59981 0.97324,2.81997 0,1.22016 0.70052,3.21861 1.5567,4.44098 0.85619,1.22238 1.22775,2.22251 0.82569,2.22251 -0.40206,0 0.18463,1.0125 1.30376,2.25 1.11912,1.2375 3.24674,4.725 4.72803,7.75 1.48129,3.025 4.21109,8.0768 6.06621,11.22622 1.85512,3.14941 3.96427,7.42441 4.68699,9.5 1.5535,4.46146 5.46472,8.27085 8.49373,8.27256 1.1886,6.7e-4 3.3261,-1.38331 4.75,-3.07551 z m 491.91119,-24.21294 c 1.86107,-2.90932 3.92292,-6.92332 4.58189,-8.92001 0.65896,-1.99668 1.83819,-4.16155 2.6205,-4.81081 0.78231,-0.64926 1.72163,-2.82276 2.08738,-4.82999 0.36575,-2.00724 1.50266,-4.84399 2.52647,-6.30389 1.0238,-1.4599 1.86146,-2.9669 1.86146,-3.34887 0,-0.38198 0.63619,-2.11251 1.41376,-3.84563 1.14645,-2.55534 3.55709,-9.36407 4.12509,-11.65113 0.8549,-3.44218 2.0297,-7.68345 3.6847,-13.30313 1.1019,-3.74172 1.7265,-7.0802 1.3878,-7.41885 -0.3386,-0.33864 2e-4,-1.32724 0.753,-2.19687 0.7528,-0.86963 1.6366,-4.61616 1.9641,-8.32562 0.3274,-3.70946 1.0624,-7.61738 1.6334,-8.68426 0.571,-1.06688 1.0382,-6.65019 1.0382,-12.40734 l 0,-10.46756 -5.7523,-0.66762 c -3.1638,-0.36719 -6.87627,-0.23347 -8.25002,0.29716 -2.71288,1.04788 -7.78014,6.37442 -9.75024,10.24913 -2.99413,5.88873 -8.70575,14.10509 -12.11298,17.42496 -1.69343,1.65 -3.09145,3.49723 -3.10673,4.10497 -0.0153,0.60773 -1.28042,2.18273 -2.81142,3.5 -1.531,1.31726 -3.56638,3.63253 -4.52305,5.14503 -0.95668,1.5125 -2.29154,2.76473 -2.96636,2.78273 -0.67482,0.018 -3.15197,1.95078 -5.50477,4.29506 -4.20125,4.18602 -4.29265,4.42263 -5.10583,13.21727 -0.63997,6.92126 -0.49864,9.95681 0.62232,13.36649 0.79769,2.42636 1.57477,6.02636 1.72684,8 0.34,4.4124 1.50233,8.08845 2.5575,8.08845 0.43436,0 0.57904,0.80574 0.32151,1.79054 -0.32749,1.25234 1.63062,3.73211 6.51451,8.25 9.70236,8.97528 13.25458,11.95946 14.23594,11.95946 0.46397,0 2.36627,-2.38035 4.22733,-5.28967 z m -244.1552,-11.71558 c 2.3831,-1.10289 5.68291,-2.87 7.33291,-3.92691 1.65,-1.05692 4.20718,-1.95455 5.68261,-1.99475 2.91399,-0.0794 3.26777,-0.76502 4.2946,-8.32309 0.35494,-2.6125 1.06429,-4.75 1.57635,-4.75 0.51206,0 2.17198,-1.39705 3.68873,-3.10456 1.51674,-1.7075 4.95114,-4.21843 7.63199,-5.57982 5.29401,-2.68842 9.81758,-2.75253 23.62572,-0.33485 8.87103,1.55323 10.26646,1.42203 15.83284,-1.48854 5.5715,-2.91326 7.68131,-5.17659 11.16716,-11.97974 1.375,-2.68351 3.27605,-5.68518 4.22456,-6.67037 0.94851,-0.98518 2.01499,-3.04019 2.36994,-4.56668 0.35496,-1.52649 1.15391,-3.23443 1.77544,-3.79541 5.03161,-4.54144 5.86594,-17.8592 1.59628,-25.48003 -0.46222,-0.825 -2.06309,-3.8542 -3.55749,-6.73155 -1.4944,-2.87735 -3.54771,-5.49517 -4.56291,-5.81739 -1.0152,-0.32221 -1.84582,-1.24165 -1.84582,-2.0432 0,-0.80155 -1.13653,-1.88947 -2.52563,-2.4176 -1.38909,-0.52814 -2.79362,-1.65864 -3.12118,-2.51224 -0.79502,-2.07179 -4.90129,-4.08337 -10.09795,-4.94678 -2.33462,-0.3879 -4.49868,-1.11611 -4.80902,-1.61825 -0.76655,-1.24032 -11.17273,-1.16452 -11.94622,0.087 -0.33992,0.55 -2.50398,1.0034 -4.80902,1.00755 -9.97231,0.018 -23.69098,3.63829 -23.69098,6.25197 0,1.43828 3.04053,8.12616 4.41171,9.70388 1.16129,1.33622 3.92416,8.3043 4.04564,10.20327 0.0235,0.36666 0.38015,1.00416 0.79265,1.41666 0.4125,0.4125 0.75,2.20565 0.75,3.98477 0,2.44499 -1.27474,4.74214 -5.22104,9.40861 -6.2663,7.40986 -12.97472,11.0233 -20.46494,11.0233 -4.38003,0 -5.13546,-0.31269 -6.1535,-2.54705 -0.63829,-1.40088 -1.16052,-3.62432 -1.16052,-4.94099 0,-1.31666 -0.40775,-2.64593 -0.90612,-2.95394 -0.49837,-0.30801 -0.69992,-1.3485 -0.44791,-2.31222 0.60556,-2.31567 -1.95306,-8.30875 -4.551,-10.65986 -1.75095,-1.58458 -3.03573,-1.77369 -8.33256,-1.22649 -3.44432,0.35583 -6.71241,1.24598 -7.26241,1.97811 -0.55,0.73213 -2.125,1.61118 -3.5,1.95343 -4.83615,1.20376 -17.80241,13.99268 -20.21779,19.94127 -0.39477,0.97226 -1.16815,1.76774 -1.71861,1.76774 -0.55046,0 -0.75531,0.63984 -0.45522,1.42186 0.30009,0.78202 -0.0334,2.46952 -0.74119,3.75 -0.70775,1.28048 -1.18046,2.85671 -1.05048,3.50273 0.12997,0.64603 -0.22561,1.46009 -0.7902,1.80902 -2.76572,1.70931 1.13941,21.91018 5.04181,26.08084 1.06242,1.13545 1.93167,2.52874 1.93167,3.0962 0,2.38998 14.89512,14.33935 17.87427,14.33935 1.10424,0 2.28582,0.45 2.62574,1 0.34766,0.56253 5.14942,1 10.97611,1 8.25993,0 11.23576,-0.40619 14.69098,-2.00525 z m -199.6671,-31.59278 c 3.85,-1.40571 7.7875,-2.79871 8.75,-3.09554 0.9625,-0.29683 1.75,-0.94835 1.75,-1.44781 0,-0.49947 1.13078,-1.33805 2.51286,-1.86351 2.75829,-1.0487 10.06494,-11.79638 11.04112,-16.24088 0.33271,-1.51482 0.94715,-2.75423 1.36542,-2.75423 1.69853,0 3.24234,-7.89316 2.8436,-14.53875 -0.55293,-9.21537 -3.02786,-15.9857 -8.513,-23.28785 -3.91159,-5.20734 -3.99738,-7.02723 -0.66812,-14.1734 1.40928,-3.025 2.59882,-6.75355 2.64342,-8.28566 0.0446,-1.53212 0.46215,-3.02117 0.92789,-3.30902 0.99931,-0.61761 1.02058,-7.4037 0.0392,-12.50249 -1.02188,-5.30902 -10.42836,-16.90283 -13.7139,-16.90283 -0.75851,0 -1.73897,-0.56323 -2.1788,-1.25163 -0.43983,-0.6884 -2.14969,-1.90968 -3.79969,-2.71397 -1.65,-0.80428 -4.19447,-2.26604 -5.65437,-3.24836 -1.4599,-0.98232 -3.3349,-1.78604 -4.16667,-1.78604 -0.83176,0 -1.66229,-0.44382 -1.84563,-0.98626 -0.18333,-0.54245 -2.38877,-1.26737 -4.90097,-1.61093 -3.38704,-0.46321 -4.95823,-0.23408 -6.0788,0.88648 -0.83113,0.83114 -4.28819,2.29036 -7.68235,3.24271 -3.39417,0.95235 -6.17121,2.06112 -6.17121,2.46392 0,0.4028 -2.10473,1.53617 -4.67718,2.51859 -5.32071,2.032 -10.59503,5.40592 -13.701,8.76436 -2.95233,3.19231 -5.61653,7.40622 -5.64964,8.93595 -0.0153,0.70685 -1.3653,3.05284 -3,5.21332 -1.6347,2.16048 -2.97218,4.75459 -2.97218,5.7647 0,1.91658 -5.751,6.07908 -7.17935,5.19632 -0.45136,-0.27896 -0.82065,-1.60564 -0.82065,-2.94818 0,-3.00493 -2.23861,-3.20237 -5,-0.44098 -2.48222,2.48222 -2.49335,3.46108 -0.084,7.38197 1.05382,1.71491 2.23688,4.84808 2.62903,6.96259 0.64747,3.49125 0.95386,3.79711 3.33396,3.32817 3.49306,-0.68822 15.17503,-4.54444 17.3574,-5.72968 4.80758,-2.61098 11.78714,0.20018 19.79728,7.97375 4.37424,4.24506 5.13183,7.97414 2.40959,11.86069 -0.85619,1.22238 -1.19369,2.2294 -0.75,2.23782 0.44368,0.008 0.3567,0.34592 -0.1933,0.75 -0.55,0.40408 -1.49417,1.63469 -2.09816,2.73469 -0.60398,1.1 -1.95398,2.45546 -3,3.01213 -1.04601,0.55668 -3.10695,1.82471 -4.57987,2.81785 -2.21452,1.4932 -4.4645,1.76878 -13,1.59228 -11.09937,-0.22951 -17.82197,1.49128 -17.82197,4.5619 0,2.46036 2.87325,6.57542 8.16431,11.69289 2.65963,2.57237 4.83569,5.15987 4.83569,5.75 0,0.59012 0.46558,1.07295 1.03461,1.07295 0.56904,0 4.05654,3.12019 7.75,6.93375 6.6194,6.83465 16.40611,13.03089 20.68782,13.09805 1.11516,0.0175 2.90108,0.6925 3.9687,1.5 1.06762,0.80751 3.17856,1.4682 4.69098,1.4682 1.51242,0 3.02797,0.45 3.36789,1 1.15592,1.87031 10.86051,1.00875 18,-1.59803 z M 303.8509,594.66347 c 0.99203,-0.0542 2.03686,-0.70621 2.32186,-1.4489 0.28499,-0.74268 1.83584,-1.89613 3.44632,-2.56321 1.61047,-0.66709 2.92814,-1.80063 2.92814,-2.51898 0,-0.71835 1.16272,-2.2207 2.58383,-3.33854 1.42492,-1.12084 2.27334,-2.53481 1.89159,-3.1525 -0.38073,-0.61603 0.2122,-1.75355 1.31763,-2.52782 1.99684,-1.39864 9.20695,-13.56114 9.20695,-15.5309 0,-0.56631 1.17646,-3.58832 2.61435,-6.71558 1.4379,-3.12725 3.72009,-8.08998 5.07155,-11.02827 2.92971,-6.36965 2.49873,-8.67227 -1.44834,-7.73824 -1.50566,0.3563 -5.6047,0.9992 -9.10897,1.42867 -5.38183,0.65958 -6.99692,0.47138 -10.39872,-1.21169 -2.21501,-1.0959 -4.74198,-3.23781 -5.61547,-4.75979 -0.8735,-1.52198 -2.34823,-2.96599 -3.27718,-3.20892 -1.89922,-0.49665 -6.83722,-9.55673 -6.83722,-12.54469 0,-3.28614 4.77785,-9.46061 10.16033,-13.13031 4.36826,-2.97822 5.87596,-3.46588 10.23577,-3.31073 2.81212,0.10007 6.4609,0.88479 8.10842,1.74384 4.32838,2.25689 9.72006,2.0455 11.27353,-0.442 1.04277,-1.66973 0.92704,-3.00152 -0.67344,-7.75 -1.06292,-3.15358 -2.95098,-7.75879 -4.19568,-10.23379 -1.24471,-2.475 -2.3346,-5.30631 -2.42198,-6.2918 -0.0874,-0.9855 -1.13076,-3.0105 -2.31863,-4.5 -1.18786,-1.48951 -3.12552,-4.5082 -4.30591,-6.7082 -4.01559,-7.4842 -16.51116,-18.5 -20.98514,-18.5 -0.41089,0 -2.01387,-0.50572 -3.56217,-1.12382 -7.41959,-2.962 -20.94084,0.91525 -28.30873,8.1176 -1.69143,1.65342 -3.45854,3.00622 -3.92691,3.00622 -0.46837,0 -1.57573,1.52604 -2.46081,3.3912 -0.88508,1.86517 -2.28635,3.65104 -3.11394,3.96862 -0.82759,0.31758 -1.50471,1.68998 -1.50471,3.04978 0,1.3598 -0.48646,2.77302 -1.08103,3.14048 -0.59456,0.36746 -0.81099,1.74402 -0.48095,3.05901 0.33874,1.34965 0.15628,2.39091 -0.41897,2.39091 -0.57771,0 -1.01905,2.57295 -1.01905,5.94098 0,3.26754 -0.45,6.2191 -1,6.55902 -0.55,0.33992 -1,3.10541 -1,6.14554 0,4.64171 0.52082,6.25231 3.25,10.05044 3.12634,4.35084 3.24606,4.87073 3.14641,13.66348 -0.0898,7.91963 -0.71176,12.10328 -3.81208,25.64054 -0.3149,1.375 -0.86109,6.58376 -1.21374,11.57502 -0.64828,9.1754 -0.14532,12.27453 3.39597,20.92498 1.59032,3.88476 8.18242,11.5 9.95491,11.5 0.48319,0 1.43832,0.5625 2.12251,1.25 0.68419,0.6875 3.36169,1.9805 5.95,2.87333 4.27454,1.47448 10.44474,1.68226 25.5097,0.85902 z m 263.45989,-12.89518 c 11.74975,-6.17675 14.52888,-7.08717 21.6341,-7.08717 7.71186,0 8.68779,-0.47985 13.35195,-6.565 3.89879,-5.0866 8.25038,-11.39617 8.25038,-11.9626 0,-0.87186 10.16191,-13.93818 11.12583,-14.30573 0.48079,-0.18334 0.87417,-1.01858 0.87417,-1.8561 0,-0.83752 1.33651,-3.21024 2.97002,-5.27272 2.50534,-3.16324 5.02998,-7.98315 5.02998,-9.60295 0,-0.73645 -4.62138,-0.48018 -5.40107,0.2995 -0.97262,0.97263 -11.24885,3.12024 -15.31851,3.2014 -3.02057,0.0602 -8.89115,-2.52918 -12.28042,-5.41669 -0.825,-0.70286 -3.03276,-2.05508 -4.90612,-3.00494 -1.87337,-0.94985 -3.89837,-2.13401 -4.5,-2.63147 -0.60164,-0.49746 -2.30895,-1.81459 -3.79404,-2.92696 l -2.70015,-2.02249 1.89279,-4.4157 c 2.61404,-6.09832 6.50457,-9.75634 13.23536,-12.44436 4.34777,-1.73634 6.75718,-2.13038 10,-1.63543 10.52975,1.60716 14.29043,1.6771 16.14471,0.30026 3.50261,-2.60077 1.94582,-4.60902 -15.49085,-19.98312 -8.22782,-7.25455 -15.24356,-12.7549 -16.26898,-12.7549 -0.50817,0 -2.42909,-1.14804 -4.26872,-2.55119 -5.40447,-4.12219 -9.38254,-5.2869 -18.88468,-5.52909 -13.30454,-0.33911 -20.28204,1.91178 -25.92583,8.36348 -2.40159,2.74538 -5.07909,6.50477 -5.95,8.3542 -0.87092,1.84943 -2.30924,4.90027 -3.19628,6.77965 -2.40451,5.09446 -2.10998,15.75916 0.53792,19.4778 1.14119,1.60264 2.07488,3.70899 2.07488,4.68078 0,0.97179 0.71028,2.55174 1.57841,3.51101 1.61757,1.78739 2.37501,12.68996 1.24451,17.91336 -1.07237,4.95483 -3.17695,11.51928 -3.9915,12.45 -0.45728,0.5225 -0.83142,1.83707 -0.83142,2.92126 0,1.08419 -0.74474,2.79419 -1.65499,3.8 -0.91024,1.00581 -1.19641,1.82874 -0.63592,1.82874 0.56048,0 1.29911,2.04315 1.64138,4.54032 0.34228,2.49718 1.175,5.53468 1.85049,6.75 0.67549,1.21533 1.28182,2.43468 1.3474,2.70968 0.0656,0.275 0.68979,1.85 1.38714,3.5 0.69735,1.65 1.90899,4.77766 2.69254,6.95035 1.47778,4.09777 4.02677,7.54965 5.57491,7.54965 0.49114,0 1.93365,1.20985 3.20558,2.68856 1.67616,1.94866 3.65818,2.8751 7.20203,3.36639 7.3889,1.02433 9.2555,1.02972 11.153,0.0322 z M 99.160365,570.85247 c 4.197245,-2.16936 6.454095,-4.46691 8.751205,-8.90904 2.06301,-3.98941 3.04106,-9.89372 1.76913,-10.67981 -0.57537,-0.3556 -0.80871,-1.26527 -0.51852,-2.02148 0.29018,-0.75621 -0.73278,-3.3293 -2.27325,-5.71797 -1.54046,-2.38868 -3.27134,-5.23906 -3.8464,-6.33419 -0.57505,-1.09513 -1.93424,-2.15779 -3.02043,-2.36147 -1.086185,-0.20368 -2.334755,-0.99518 -2.774585,-1.75888 -1.29944,-2.25626 -6.73382,-4.59691 -9.22257,-3.97228 -2.07338,0.52039 -2.34471,1.26243 -2.68081,7.33138 -0.20568,3.71381 0.005,7.27815 0.46925,7.92075 0.46377,0.6426 0.79261,3.5676 0.73078,6.5 -0.14687,6.96397 1.05842,16.74783 2.14598,17.41997 0.47139,0.29134 0.85707,1.60677 0.85707,2.92318 0,2.0517 0.40884,2.34173 2.86315,2.03112 1.57473,-0.19929 4.61223,-1.26637 6.75,-2.37128 z m 305.318775,-3.07572 c 2.4957,-3.50489 2.58666,-5.40918 0.43255,-9.0558 -2.98097,-5.04638 -10.27596,-7.72833 -13.16446,-4.83983 -0.66,0.66 -1.2,2.44796 -1.2,3.97325 0,3.60177 3.91073,11.62839 5.93053,12.17219 4.03074,1.08522 6.02614,0.52415 8.00138,-2.24981 z m -54.97881,-13.27567 c 1.89343,-2.03235 1.91944,-2.30332 0.38397,-4 -3.29037,-3.63581 -8.70464,-1.74167 -8.9497,3.13098 -0.1419,2.82146 0.0963,3.04906 3.19068,3.04906 2.14832,0 4.07025,-0.7795 5.37505,-2.18004 z m -204.83612,-6.50925 c 5.67763,-9.1866 -0.68452,-13.45277 -15.0999,-10.1253 -3.69916,0.85387 -5.958,2.1222 -8.07629,4.5348 -6.12737,6.97869 -3.39189,8.73407 14.22764,9.12996 6.66554,0.14976 6.66943,0.14822 8.94855,-3.53946 z m 236.66626,-6.73344 c 10.57019,-5.42929 16.59168,-15.40202 13.59825,-22.52128 -2.28029,-5.42322 -7.27994,-10.70236 -11.43421,-12.07339 -2.171,-0.7165 -3.94728,-1.60569 -3.94728,-1.97599 0,-0.76588 -0.48728,-0.8683 -7.83069,-1.64599 -4.55955,-0.48287 -5.61396,-0.26047 -7.28895,1.53742 -1.07705,1.15608 -2.54346,2.10196 -3.25868,2.10196 -1.4419,0 -8.62168,7.36946 -8.62168,8.84945 0,0.51511 -0.675,1.19559 -1.5,1.51218 -2.17643,0.83517 -1.88733,6.83619 0.58246,12.0904 2.27946,4.84935 10.87258,13.1905 14.27486,13.8563 5.8485,1.14451 10.93988,0.57316 15.42592,-1.73106 z m 281.7835,-18.56705 c -0.2833,-3.03062 -0.7266,-9.11022 -0.9849,-13.51022 -0.8527,-14.5196 -1.319,-16.86877 -3.7371,-18.8268 -2.4477,-1.98203 -6.6147,-1.7373 -9.46276,0.55573 -7.37774,5.94006 -9.27752,10.96257 -7.94531,21.00527 0.51095,3.85175 1.65984,6.35664 4.62165,10.07653 2.16792,2.72279 3.94172,5.34174 3.94172,5.8199 0,0.47815 0.7875,0.88532 1.75,0.90481 0.9625,0.0195 2.8709,0.65586 4.241,1.41416 2.163,1.19722 2.8596,1.16099 5.2909,-0.27522 2.6498,-1.5653 2.7723,-1.94929 2.2848,-7.16416 z m -328.97648,0.31854 c 1.8192,-1.68598 2.42632,-2.82323 1.64602,-3.08333 -0.67996,-0.22665 -1.23629,-1.00145 -1.23629,-1.72177 0,-3.28747 -14.54349,-5.83731 -17.34056,-3.04024 -2.04779,2.04779 -2.07749,2.95567 -0.15944,4.87372 0.825,0.825 1.5,1.89215 1.5,2.37143 0,2.07677 2.75855,3.27143 7.55398,3.27143 4.19967,0 5.68766,-0.49461 8.03629,-2.67124 z m 286.13087,-7.52961 c 3.82094,-1.69018 7.15403,-5.25731 5.99519,-6.41616 -0.65695,-0.65695 -4.45016,-1.50142 -11.21633,-2.49705 -3.3,-0.48559 -6.9,-1.03622 -8,-1.22362 -2.52966,-0.43097 -7.51682,1.61636 -8.58443,3.52407 -1.06925,1.91064 2.3882,7.59771 5.34075,8.78487 3.02712,1.21714 11.25744,0.13137 16.46482,-2.17211 z m -518.29725,-2.08543 c 4.68888,-3.58022 14.57611,-14.43235 14.57611,-15.9986 0,-0.53554 1.9125,-2.82802 4.25,-5.09441 2.3375,-2.26639 5.15,-5.2463 6.25,-6.62202 1.89792,-2.37364 7.86484,-13.74636 7.9568,-15.16536 0.0238,-0.36666 0.3807,-1.00416 0.7932,-1.41666 0.4125,-0.4125 0.75,-1.95 0.75,-3.41667 0,-1.46667 0.3025,-2.96916 0.67222,-3.33888 1.18121,-1.18122 1.32797,-11.06967 0.20274,-13.66112 -3.15833,-7.27378 -4.85298,-9.84504 -9.87496,-14.98305 -3.025,-3.09489 -6.85,-6.33094 -8.5,-7.19122 -1.65,-0.86028 -4.95041,-2.57309 -7.33423,-3.80626 l -4.33424,-2.24212 -2.87512,3.36132 c -1.58132,1.84873 -2.89342,4.05883 -2.91577,4.91133 -0.0223,0.8525 -0.43628,1.9775 -0.91984,2.5 -0.48356,0.5225 -1.414915,2.75 -2.069675,4.95 -0.65476,2.2 -1.56883,4.9 -2.03126,6 -1.57881,3.75558 -4.21376,12.9654 -5.14594,17.98638 -0.51194,2.75749 -1.1847,6.13862 -1.49502,7.51362 -0.31032,1.375 -0.75376,3.85 -0.98542,5.5 -3.18625,22.69341 -3.881,33.97582 -2.42509,39.38264 l 1.10869,4.11736 5.02144,0 c 4.13682,0 5.77967,-0.57894 9.325365,-3.28628 z m 371.54114,-5.69587 c 2.06806,-1.05505 5.87026,-4.26527 8.44934,-7.13382 l 4.68923,-5.21555 -0.5427,-7.08424 c -0.76603,-9.99957 -3.04031,-21.55684 -4.93617,-25.08424 -0.88682,-1.65 -1.61517,-3.47385 -1.61856,-4.053 -0.0109,-1.86505 -6.03896,-9.32263 -8.05204,-9.96156 -1.07221,-0.34031 -2.21687,-1.68414 -2.54369,-2.9863 -0.32682,-1.30216 -1.79037,-2.84066 -3.25233,-3.4189 -1.46195,-0.57824 -3.3331,-1.44784 -4.1581,-1.93244 -1.95697,-1.14951 -7.95701,-3.19519 -10.5,-3.57991 -18.24656,-2.76047 -28.5,-6.43835 -28.5,-10.22288 0,-0.73975 -0.45,-1.34501 -1,-1.34501 -0.55,0 -1,-0.65582 -1,-1.45737 0,-0.80155 -1.57499,-2.71405 -3.49997,-4.25 -1.92498,-1.53595 -3.49998,-3.36478 -3.5,-4.06407 -2e-5,-0.69929 -1.23753,-1.81009 -2.75003,-2.46845 -1.5125,-0.65836 -4.72721,-2.67371 -7.1438,-4.47856 -2.51644,-1.87943 -5.58897,-3.28155 -7.19099,-3.28155 -1.53844,0 -3.07529,-0.45 -3.41521,-1 -0.77483,-1.2537 -5.59081,-1.29617 -8.79599,-0.0776 -1.3344,0.50733 -5.3012,1.18944 -8.8151,1.51578 -9.34632,0.868 -14.25766,1.68612 -15.38891,2.56346 -0.55,0.42655 -3.925,1.10481 -7.5,1.50725 -7.4562,0.83935 -16.27356,4.86878 -19.93401,9.1096 -2.41525,2.79819 -4.61231,11.68851 -3.38095,13.68088 0.33721,0.54563 0.69664,2.61397 0.79874,4.59632 0.20529,3.98604 4.86934,15.10427 6.33618,15.10427 0.51152,0 1.18598,1.2375 1.4988,2.75 0.31282,1.5125 1.46063,3.875 2.55067,5.25 1.09005,1.375 3.47786,4.45898 5.30623,6.85328 1.82838,2.3943 4.67434,5.0943 6.32434,6 1.65,0.9057 3.9,2.54977 5,3.6535 2.30407,2.31189 11.47432,8.49322 12.60002,8.49322 2.29101,0 7.29518,-8.99867 10.45424,-18.79917 2.63583,-8.17727 9.46484,-12.18222 20.79461,-12.19525 8.99996,-0.0104 11.77231,2.54855 16.11052,14.87015 1.74343,4.95183 2.0434,11.12431 0.54061,11.12431 -0.55,0 -1,0.85598 -1,1.90217 0,1.16993 -1.05863,2.28092 -2.75,2.88604 -4.64983,1.66355 -11.25,10.3001 -11.25,14.72102 0,3.4714 2.43351,4.34262 13.60184,4.86958 5.44399,0.25686 13.94816,1.19724 18.89816,2.08971 4.95,0.89248 10.59612,1.63164 12.54694,1.64257 1.95081,0.0109 4.20081,0.46549 5,1.01013 2.26922,1.54647 16.58555,0.10692 20.91808,-2.10337 z M 353.54723,491.76216 c 0,-2.3207 -3.81797,-7.17248 -7.09236,-9.01279 -1.98678,-1.11663 -3.84118,-1.80139 -4.12089,-1.52168 -1.0476,1.0476 3.55396,8.57004 6.08298,9.94419 3.056,1.66049 5.13027,1.89915 5.13027,0.59028 z m 44.16037,-6.33104 c 1.89207,-1.7875 3.74089,-4.0375 4.1085,-5 0.3676,-0.9625 1.13248,-1.75 1.69975,-1.75 1.13725,0 1.34855,-4.21402 0.39062,-7.79005 -0.3374,-1.25952 -1.86933,-2.93949 -3.4043,-3.73325 -2.44452,-1.26411 -3.23978,-1.25563 -6.40839,0.0683 -3.72605,1.55684 -4.92454,3.45781 -7.06347,11.20368 -0.97898,3.54523 -0.91874,4.62142 0.36388,6.5 3.27095,4.79077 5.65058,4.90644 10.31341,0.50132 z m 254.29037,-8 c 1.9373,-1.70117 2.7014,-3.54978 3.1326,-7.57862 0.3136,-2.93074 0.2515,-6.08074 -0.138,-7 -0.3896,-0.91926 -0.8794,-2.99179 -1.0886,-4.60563 -0.2091,-1.61383 -1.051,-3.67535 -1.8707,-4.58115 -0.8197,-0.9058 -1.2088,-1.92848 -0.8647,-2.27262 0.3442,-0.34415 0.2583,-1.43263 -0.1907,-2.41885 -0.449,-0.98622 -0.8658,-2.24313 -0.9262,-2.79313 -0.3485,-3.17074 -3.58765,-11.5399 -8.20663,-21.20367 -1.36795,-2.86203 -2.42851,-5.4656 -2.35679,-5.78572 0.0717,-0.32012 -0.56067,-1.27311 -1.40532,-2.11775 -1.41636,-1.41636 -2.0113,-4.05526 -1.61036,-7.14286 0.0893,-0.6875 -0.31854,-1.25 -0.90626,-1.25 -1.12504,0 -3.49435,-4.85436 -3.12779,-6.40836 0.11785,-0.4996 -0.17801,-1.1746 -0.65747,-1.5 -1.11366,-0.75582 -5.23383,-9.34231 -5.23383,-10.90736 0,-2.18489 -3.80737,-1.21272 -8.09007,2.06572 -4.84268,3.7071 -8.80284,9.96007 -8.86656,14 -0.0239,1.5125 -0.49337,2.75 -1.04337,2.75 -2.45136,0 -0.53263,28.6428 2.10678,31.45 0.49127,0.5225 0.89322,1.73619 0.89322,2.69709 0,2.20286 4.25205,10.26903 6.93869,13.16273 1.1184,1.2046 3.05223,3.33771 4.29739,4.74024 2.77266,3.12311 9.25192,7.94994 10.67152,7.94994 0.57257,0 1.74591,1.36307 2.60741,3.02903 0.93445,1.80703 3.46626,3.98328 6.27568,5.39435 6.0091,3.01814 6.57326,3.03721 9.66006,0.32662 z M 232.7867,414.19283 c 3.70671,-0.36776 6.99577,-1.08333 7.30902,-1.59018 0.31324,-0.50684 2.23048,-0.95761 4.26052,-1.0017 6.00019,-0.13033 13.36022,-3.09169 15.12219,-6.08452 7.3655,-12.5108 9.61481,-14.42222 23.49709,-19.96732 8.15003,-3.25544 21.5717,-16.8322 21.5717,-21.82098 0,-1.19817 0.5483,-3.16141 1.21844,-4.36275 1.40759,-2.52335 1.89246,-13.49769 0.6308,-14.27743 -0.46708,-0.28868 -0.85664,-1.73581 -0.86569,-3.21585 -0.009,-1.48004 -1.12501,-4.49098 -2.47992,-6.69098 -1.35491,-2.2 -3.27419,-5.575 -4.26506,-7.5 -2.89295,-5.62024 -7.28002,-9.4121 -14.23857,-12.30676 -6.40916,-2.66613 -6.7795,-2.70063 -26.5,-2.46882 -17.38469,0.20434 -20.3923,0.01 -23,-1.48851 -3.76851,-2.16512 -8.09256,-2.24006 -8.89301,-0.15412 -1.09138,2.84409 -0.64184,5.0767 1.39301,6.91821 1.1,0.99549 2,2.22237 2,2.72642 0,1.42169 2.69298,3.77358 4.32086,3.77358 0.80504,0 3.91223,2.64469 6.90486,5.87709 5.12237,5.53277 5.44767,6.19187 5.55236,11.25 0.0981,4.74028 -1.01012,8.91638 -3.68153,13.87291 -1.64652,3.05494 -17.2178,3.92308 -22.42028,1.25 -3.34131,-1.7168 -4.93113,-4.12446 -6.2016,-9.39188 -1.2043,-4.99304 -5.44234,-12.12871 -7.98789,-13.44936 -4.13951,-2.1476 -4.74037,-1.60869 -9.02137,8.09124 -3.87022,8.7692 -5.46541,12.89248 -5.46541,14.12712 0,0.75508 -0.42243,1.37288 -0.93873,1.37288 -0.5163,0 -1.24322,2.03053 -1.61538,4.5123 -0.37217,2.48176 -0.99803,4.71091 -1.3908,4.95365 -0.81955,0.50651 -0.41028,18.43533 0.53043,23.23623 0.40146,2.04887 2.56999,5.10749 6.02096,8.4923 2.96644,2.90956 5.39352,5.68904 5.39352,6.17662 0,0.48757 1.66205,2.74104 3.69344,5.0077 5.04529,5.62963 10.99525,7.6348 17.80656,6.00093 2.75,-0.65966 8.03277,-1.50027 11.73948,-1.86802 z m -7.23948,-20.51171 c 0,-0.55 0.45,-1 1,-1 0.55,0 1,0.45 1,1 0,0.55 -0.45,1 -1,1 -0.55,0 -1,-0.45 -1,-1 z m -86.96058,17.46151 c 2.17832,-2.12707 3.96058,-4.68722 3.96058,-5.68921 0,-1.06399 1.13544,-2.2535 2.72965,-2.85961 1.5013,-0.5708 2.9638,-1.37091 3.25,-1.77804 1.38573,-1.97127 8.69713,-5.5085 11.02011,-5.33149 1.88195,0.1434 3.2398,-0.6359 4.81109,-2.7612 1.20403,-1.62853 2.18915,-3.35945 2.18915,-3.84648 0,-0.48703 0.82936,-1.63606 1.84302,-2.55341 2.28359,-2.06662 6.4118,-10.43512 8.54893,-17.32997 1.61452,-5.20875 2.32796,-25.25886 0.9479,-26.63892 -0.36308,-0.36308 -0.55891,-3.78163 -0.43517,-7.59679 0.20017,-6.17168 -0.009,-7.06196 -1.8985,-8.07308 -4.08581,-2.18666 -7.40347,-0.29604 -14.87202,8.47503 -3.92379,4.6081 -7.13416,8.80885 -7.13416,9.335 0,0.52615 -1.125,1.69377 -2.5,2.5947 -1.375,0.90094 -2.5,2.03142 -2.5,2.51219 0,0.48076 -1.08982,2.15789 -2.42183,3.72694 -10.99769,12.95487 -18.57817,22.713 -18.57817,23.91514 0,0.79073 -0.45,1.43769 -1,1.43769 -0.55,0 -1,0.86786 -1,1.92857 0,1.06072 -0.5625,2.537 -1.25,3.28064 -0.6875,0.74363 -3.25346,5.38827 -5.70214,10.32142 -2.44867,4.93316 -5.09644,9.62428 -5.88393,10.42473 -0.98077,0.99691 -1.0746,1.57442 -0.29786,1.83333 0.62366,0.20789 1.13393,1.21392 1.13393,2.23563 0,2.09961 0.81018,2.7523 6.48534,5.22464 2.64494,1.15224 5.8193,1.63483 9.30408,1.41445 4.57313,-0.2892 5.82575,-0.85821 9.25,-4.2019 z m 354.38311,-5.33615 c 0.29731,-0.48105 2.91137,-1.0811 5.80902,-1.33344 5.61042,-0.48859 11.78004,-3.95734 17.86949,-10.04679 4.16357,-4.16357 9.45665,-14.14772 10.46785,-19.74513 0.95129,-5.26582 0.87851,-4.98566 1.90209,-7.32196 1.05571,-2.40964 0.0618,-19.32093 -1.22972,-20.92402 -0.55567,-0.68971 -1.33743,-2.82902 -1.73724,-4.75402 -0.96373,-4.64011 -6.05344,-15.17724 -9.19521,-19.03669 -5.87015,-7.21105 -8.13603,-9.24359 -9.65499,-8.66071 -0.9096,0.34905 -1.65381,1.5222 -1.65381,2.607 0,1.0848 -0.45,2.25048 -1,2.5904 -0.55,0.33992 -1,2.0244 -1,3.74329 0,1.71889 -0.90877,5.00252 -2.01948,7.29695 -2.59211,5.35457 -7.43918,7.43235 -19.06387,8.17202 -8.55307,0.54422 -8.59452,0.53523 -11.75,-2.54935 -1.74166,-1.70253 -3.16665,-3.8015 -3.16665,-4.66439 0,-0.86289 -0.73356,-2.68844 -1.63013,-4.05678 -1.894,-2.8906 -2.0226,-11.34793 -0.22392,-14.72526 0.64925,-1.21906 3.35701,-4.35176 6.01725,-6.96154 8.72182,-8.55639 5.57765,-10.90024 -11.1632,-8.32173 -6.71483,1.03425 -17.34658,3.60905 -18.36047,4.44654 -0.62674,0.5177 -2.93953,1.25294 -5.13953,1.63385 -4.48169,0.77597 -17.57831,6.77509 -21.67373,9.928 -1.47055,1.13212 -4.53892,3.40544 -6.8186,5.05183 -2.27967,1.64638 -4.82653,4.57138 -5.65969,6.5 -0.83316,1.92861 -2.15229,4.98434 -2.9314,6.7905 -1.02035,2.36537 -1.41658,7.62836 -1.41658,18.81574 0,15.17311 0.72184,19.40033 3.31282,19.40033 0.68335,0 4.83002,1.85863 9.21482,4.13029 9.42045,4.88051 24.36291,8.83558 33.45655,8.8555 l 6.48418,0.0142 6.06743,6.5 c 3.33709,3.575 6.43392,6.5 6.88184,6.5 0.44792,0 2.98534,1.59361 5.63869,3.54135 3.44319,2.52754 6.91045,3.97633 12.11141,5.06076 4.00791,0.83568 7.48477,1.71707 7.72635,1.95865 0.75352,0.75352 2.96207,0.48099 3.52843,-0.4354 z m 107.85959,-30.65211 c 4.14237,-1.96539 7.0951,-3.7115 9.12478,-5.39598 1.48972,-1.23636 1.47818,-1.56366 -0.14335,-4.06405 -0.96995,-1.49567 -3.56355,-4.85845 -5.76355,-7.47283 -12.66368,-15.04898 -14.50298,-17.34648 -14.53289,-18.15323 -0.0181,-0.48794 -1.8181,-2.67508 -4,-4.86032 -2.18191,-2.18523 -3.96711,-4.35967 -3.96711,-4.83209 0,-1.22913 -8.29828,-9.65848 -9.52776,-9.67823 -0.56527,-0.009 -1.76133,-0.87327 -2.65791,-1.9204 -0.89658,-1.04713 -3.69659,-3.11489 -6.22224,-4.59502 -2.52565,-1.48013 -4.59209,-3.06806 -4.59209,-3.52873 0,-0.46068 -0.85453,-1.10881 -1.89895,-1.4403 -1.04443,-0.33149 -2.95693,-1.61978 -4.25,-2.86287 -3.97682,-3.82309 -12.76324,-9.6692 -14.53236,-9.6692 -0.92217,0 -3.14408,0.53062 -4.93755,1.17915 -2.9857,1.07964 -3.25149,1.52267 -3.1497,5.25 0.0611,2.23897 0.54821,4.64422 1.08237,5.34502 0.53416,0.70079 0.72037,1.52499 0.41381,1.83156 -0.30657,0.30656 0.0239,1.98319 0.73438,3.72583 0.71048,1.74264 1.60725,5.41844 1.99282,8.16844 0.38557,2.75 1.34097,5.99667 2.12312,7.21482 0.78214,1.21815 1.43614,3.01815 1.45334,4 0.0493,2.81416 4.10595,10.38717 8.47222,15.81605 5.01029,6.22964 11.15033,12.46913 12.27038,12.46913 0.46856,0 2.17363,1.38937 3.78903,3.0875 1.6154,1.69812 6.95109,5.07312 11.85709,7.5 8.10504,4.00936 9.59262,4.4125 16.28212,4.4125 4.52966,0 8.60014,-0.58739 10.58,-1.52675 z m -364.7971,-30.46082 c 2.66202,-2.20928 -0.80197,-7.74108 -7.86031,-12.55246 -10.37987,-7.07553 -11.05049,-7.15529 -10.17382,-1.20997 0.83088,5.63469 4.55451,13.39106 7.04911,14.68338 2.41562,1.25141 9.0363,0.69635 10.98502,-0.92095 z m -47.31376,-3.66742 c 2.3966,-2.16889 2.31486,-4.01448 -0.23832,-5.3809 -1.60793,-0.86054 -2.60745,-0.75218 -4.5,0.48787 -2.88088,1.88763 -2.95171,2.31731 -0.77795,4.71928 2.04452,2.25917 3.17264,2.29471 5.51627,0.17375 z m 300.68007,-19.18826 c 4.14977,-3.63543 4.37612,-4.12105 4.88691,-10.48437 l 0.53559,-6.67238 -2.70265,0 c -1.48646,0 -3.66694,0.51607 -4.84551,1.14682 -2.29128,1.22626 -5.6375,4.83853 -5.69239,6.14499 -0.0183,0.4355 -0.93327,1.75785 -2.03327,2.93856 -2.40008,2.57618 -2.5535,5.53438 -0.4433,8.54712 2.24721,3.20834 5.33774,2.72178 10.29462,-1.62074 z m -287.85133,0.49981 c 3.30802,-0.44682 8.42835,-3.66011 10.95911,-6.87744 3.12182,-3.96876 5.70565,-13.5502 5.00211,-18.54899 -0.88938,-6.31919 -2.00134,-6.8864 -6.98929,-3.56522 -2.34185,1.5593 -5.1984,3.37885 -6.34789,4.04345 -1.14949,0.6646 -2.54764,1.83295 -3.10701,2.59633 -0.55937,0.76338 -2.50268,2.15564 -4.31848,3.09392 -1.8158,0.93828 -3.54487,2.3403 -3.84238,3.11561 -0.29751,0.7753 -1.28686,1.65817 -2.19855,1.96193 -0.91169,0.30376 -2.87201,2.27314 -4.35627,4.37641 -3.84073,5.44251 -2.80759,8.03525 4.19865,10.53676 0.825,0.29456 3.075,0.32617 5,0.0702 1.925,-0.25593 4.625,-0.61727 6,-0.803 z m 95,-28.88042 c 2.94941,-1.3737 5.41049,-2.38155 8,-3.27614 4.83132,-1.66906 15,-9.15307 15,-11.03979 0,-0.37546 1.73105,-2.7701 3.84677,-5.32143 2.11572,-2.55133 4.68012,-6.88878 5.69866,-9.63878 1.01854,-2.75 2.14443,-5.225 2.50198,-5.5 1.07201,-0.82452 0.87514,-7.33636 -0.29477,-9.75 -0.9066,-1.8704 -1.90223,-2.25 -5.90138,-2.25 -2.64593,0 -6.50739,0.63796 -8.58102,1.4177 -2.07363,0.77973 -6.02024,1.6832 -8.77024,2.0077 -2.75,0.32451 -8.375,1.74283 -12.5,3.15183 -4.125,1.40901 -11.325,3.62557 -16,4.9257 -10.09395,2.80715 -21.45397,6.82316 -23.22987,8.21225 -0.69857,0.54641 -5.20763,2.91503 -10.02013,5.2636 -4.8125,2.34857 -8.75,4.66412 -8.75,5.14567 0,0.48155 -0.40373,0.87555 -0.89717,0.87555 -1.42204,0 -7.10283,5.3187 -7.10283,6.6501 0,2.62339 5.02387,5.1194 11.73467,5.83014 3.72093,0.39408 7.26194,1.12266 7.8689,1.61905 0.60696,0.4964 2.18196,0.8759 3.5,0.84333 1.31804,-0.0326 4.87143,0.62454 7.89643,1.46024 7.60356,2.10059 31.01953,1.69294 36,-0.62672 z m 113.00001,-1.0479 c 0.825,-0.32514 4.2,-0.76294 7.5,-0.97288 3.3,-0.20995 7.575,-1.09975 9.5,-1.97735 3.20984,-1.46335 6.18221,-2.27151 11.5,-3.12675 1.1,-0.1769 2.9,-0.7796 4,-1.33932 1.1,-0.55971 3.8,-1.80877 6,-2.77567 2.2,-0.9669 4.78139,-2.15811 5.73643,-2.64714 0.95504,-0.48902 2.58744,-0.88913 3.62756,-0.88913 1.04011,0 2.42731,-0.64607 3.08266,-1.43572 0.65535,-0.78965 2.56507,-1.7374 4.24382,-2.10611 1.78717,-0.39253 3.25754,-1.45537 3.54753,-2.56428 0.27239,-1.04164 0.85702,-1.89389 1.29918,-1.89389 0.44215,0 1.10214,-1.35784 1.46664,-3.01741 0.5322,-2.42308 0.10467,-3.68916 -2.17054,-6.42781 -1.5583,-1.87571 -3.32876,-3.44287 -3.93434,-3.48258 -0.60558,-0.0397 -3.2169,-1.1972 -5.80292,-2.5722 -2.63492,-1.401 -6.36945,-2.5 -8.4953,-2.5 -2.08639,0 -5.10008,-0.64238 -6.69708,-1.42751 -1.597,-0.78513 -6.50364,-1.91173 -10.90364,-2.50355 -10.35847,-1.39325 -13.7143,-1.92276 -21,-3.3135 -6.65048,-1.2695 -61.92226,-1.66652 -63.13528,-0.45351 -3.08117,3.08118 -1.20188,18.37013 2.67091,21.72897 1.25797,1.09103 2.78993,2.99203 3.40436,4.22445 0.61442,1.23241 2.53109,3.14162 4.25926,4.2427 1.72816,1.10107 3.35165,2.75489 3.60774,3.67516 0.25608,0.92027 2.46819,2.58549 4.91578,3.7005 2.4476,1.11501 5.02886,2.72456 5.73615,3.57679 0.70728,0.85222 1.85443,1.5495 2.54922,1.5495 0.69478,0 2.49052,0.63672 3.99051,1.41492 1.5,0.77821 5.29325,1.71274 8.42945,2.07673 3.13619,0.364 6.33308,1.05173 7.10419,1.52831 1.48328,0.91671 11.4285,0.70901 13.96771,-0.29172 z m 99.54213,-1.79641 c 0.3631,-0.5875 1.17715,-0.87848 1.80902,-0.64663 1.3241,0.48585 6.85568,-2.40377 7.3286,-3.82836 0.62599,-1.88569 -4.28617,-6.21991 -10.17975,-8.98204 -3.3,-1.5466 -7.35,-3.81694 -9,-5.0452 -4.03221,-3.00158 -10.43917,-4.72497 -12.18358,-3.27724 -2.02937,1.68422 -1.48135,4.79825 1.99701,11.34764 2.72966,5.13968 3.9752,6.38971 8.68657,8.7179 5.74506,2.83901 10.41795,3.5329 11.54213,1.71393 z"
       id="path3640"
       inkscape:connector-curvature="0" />
  </g>
</svg>
