<?xml version="1.0" encoding="UTF-8" standalone="no"?>
<!-- Created with Inkscape (http://www.inkscape.org/) -->

<svg
   xmlns:dc="http://purl.org/dc/elements/1.1/"
   xmlns:cc="http://creativecommons.org/ns#"
   xmlns:rdf="http://www.w3.org/1999/02/22-rdf-syntax-ns#"
   xmlns:svg="http://www.w3.org/2000/svg"
   xmlns="http://www.w3.org/2000/svg"
   xmlns:sodipodi="http://sodipodi.sourceforge.net/DTD/sodipodi-0.dtd"
   xmlns:inkscape="http://www.inkscape.org/namespaces/inkscape"
   id="svg2"
   sodipodi:version="0.32"
   inkscape:version="0.48.0 r9654"
   width="185.35403"
   height="195.89542"
   version="1.0"
   sodipodi:docname="Mon:RuralHollyhock.image.svg"
   inkscape:output_extension="org.inkscape.output.svg.inkscape">
  <metadata
     id="metadata7">
    <rdf:RDF>
      <cc:Work
         rdf:about="">
        <dc:format>image/svg+xml</dc:format>
        <dc:type
           rdf:resource="http://purl.org/dc/dcmitype/StillImage" />
      </cc:Work>
    </rdf:RDF>
  </metadata>
  <defs
     id="defs5">
    <inkscape:perspective
       sodipodi:type="inkscape:persp3d"
       inkscape:vp_x="0 : 526.18109 : 1"
       inkscape:vp_y="0 : 1000 : 0"
       inkscape:vp_z="744.09448 : 526.18109 : 1"
       inkscape:persp3d-origin="372.04724 : 350.78739 : 1"
       id="perspective9" />
  </defs>
  <sodipodi:namedview
     inkscape:window-height="756"
     inkscape:window-width="1222"
     inkscape:pageshadow="2"
     inkscape:pageopacity="1"
     guidetolerance="10.0"
     gridtolerance="10.0"
     objecttolerance="10.0"
     borderopacity="1.0"
     bordercolor="#666666"
     pagecolor="#dedede"
     id="base"
     showgrid="false"
     inkscape:zoom="0.36510264"
     inkscape:cx="85.680916"
     inkscape:cy="481.77061"
     inkscape:window-x="167"
     inkscape:window-y="37"
     inkscape:current-layer="svg2"
     inkscape:window-maximized="0">
    <inkscape:grid
       type="xygrid"
       id="grid4259"
       empspacing="5"
       visible="true"
       enabled="true"
       snapvisiblegridlinesonly="true" />
  </sodipodi:namedview>
  <rect
     style="fill:#ffffff;fill-opacity:1;stroke:none"
     id="rect4263"
     width="230.0723"
     height="238.28915"
     x="-13.694779"
     y="-20.482094" />
  <path
     style="fill:#000000"
     d="M 132.53029,2.312499e-05 C 132.22469,-0.00067687501 131.93449,0.014623125 131.62409,0.031223125 C 129.21979,0.16012312 124.43659,0.34902312 120.99909,0.46882312 C 117.56159,0.58872312 114.74909,1.0269231 114.74909,1.4375231 C 114.74899,1.8482231 113.54049,2.5038231 112.06149,2.8750231 C 110.58259,3.2462231 108.14879,4.4053231 106.65529,5.4688231 C 103.75629,6.9105231 102.02739,7.9007231 100.34279,10.656223 C 98.094388,12.904523 94.670988,20.257123 93.061488,26.281223 C 91.298088,32.882323 91.243288,39.944223 92.905288,45.750023 C 93.561288,48.041723 94.008988,50.255123 93.905288,50.687523 C 93.801388,51.120023 96.861188,54.603223 100.71779,58.406223 C 104.57449,62.209723 107.74909,65.806723 107.74909,66.406223 C 107.74909,67.417923 107.01449,68.457623 104.09279,71.750023 C 103.46899,72.452923 101.96119,75.031623 100.71779,77.468823 C 98.638388,81.544723 98.359388,81.728623 97.342788,79.906223 C 95.889888,77.301723 89.878188,71.256023 86.780288,69.281223 C 84.704588,67.958323 84.375488,67.058323 84.592788,63.375023 C 84.734188,60.979123 84.302188,56.747123 83.655288,53.968823 C 82.048688,47.068023 76.758288,36.551023 74.530288,35.843823 C 70.647288,31.888223 65.465888,30.739123 60.499088,28.875023 C 56.367288,27.884223 38.417788,27.591323 37.749088,28.500023 C 31.737188,30.134423 25.352188,29.824123 19.374088,31.781223 C 14.362988,33.872723 8.9510877,34.582723 6.8114877,33.437523 C 4.9953877,32.465623 4.8500877,32.743423 4.8740877,37.156223 C 4.8882877,39.771223 4.3649877,43.256323 3.7177877,44.906223 C 3.0705877,46.556323 2.3230877,49.698423 2.0614877,51.875023 C 1.8000877,54.051623 1.4133877,56.133023 1.1864877,56.500023 C 0.95968774,56.867023 0.50128774,61.163423 0.15528774,66.062523 C -0.48741226,75.160723 0.95578774,88.763523 2.8114877,91.000023 C 3.3606877,91.661723 3.9960877,93.130223 4.2177877,94.281223 C 4.4394877,95.432323 6.0026877,97.863823 7.6864877,99.656223 C 12.686288,107.48342 20.858288,111.13862 29.311488,111.56252 C 40.100088,112.49992 53.842388,106.47462 58.749088,96.281223 C 59.776088,93.737923 59.856288,91.406323 61.249088,91.406223 C 62.835688,91.406223 65.779088,98.548023 66.405288,103.87502 C 66.661088,106.05172 66.927988,108.07672 66.999088,108.37502 C 67.070188,108.67332 66.768288,111.15632 66.311488,113.90622 C 65.854788,116.65622 65.348288,119.97332 65.186488,121.28122 C 64.492088,126.89912 58.717488,136.04622 51.217788,143.40622 C 46.735288,149.69972 40.562988,152.72102 34.592788,156.90622 C 31.913388,158.83132 29.411488,160.40652 29.030288,160.40622 C 28.649188,160.40622 27.185388,161.48812 25.780288,162.81252 C 23.141388,165.29972 17.944388,168.63202 13.967788,170.37502 C 8.1153877,172.94012 6.5750877,177.22532 10.061488,181.28122 C 10.823988,182.16842 12.517588,185.15632 13.811488,187.90622 C 15.105588,190.65622 16.808688,193.67542 17.592788,194.62502 C 19.456888,196.88262 20.359488,196.21092 21.155288,191.96882 C 22.462588,185.00032 25.682188,179.81042 32.967788,172.87502 C 42.758188,162.87082 54.802788,156.23342 65.061488,146.71882 C 82.665588,129.14202 86.705988,124.10192 92.217788,112.90622 C 99.164688,98.796123 101.71099,93.094823 102.18649,90.625023 C 102.88809,86.982723 107.03739,77.934323 108.90529,75.937523 C 110.71589,74.001923 110.73639,74.057523 110.81149,78.937523 C 110.85369,81.672223 111.03329,84.692623 111.21779,85.656223 C 111.95089,89.487323 115.99289,96.388823 119.37409,99.562523 C 121.33769,101.40552 123.81159,103.70292 124.87409,104.68752 C 128.11059,107.69002 138.17929,110.28142 145.56149,110.00002 C 151.53329,109.77232 158.20149,107.61222 159.74909,105.40622 C 160.02399,105.01442 161.82389,103.93152 163.74909,103.00002 C 167.52689,101.17182 173.51509,94.044323 175.99909,88.406223 C 180.28979,78.668023 182.06259,68.214623 181.84279,54.250023 C 181.76789,49.490523 182.20449,44.315523 182.81149,42.750023 C 183.41859,41.184523 184.11819,38.781423 184.34279,37.406223 C 184.56739,36.031223 184.96749,33.534723 185.24909,31.843823 C 185.81439,28.449823 184.19349,27.090523 177.99909,25.875023 C 171.97179,24.289723 167.28769,19.631723 162.90529,15.343823 C 161.76229,14.278923 160.46569,13.387923 160.03029,13.375023 C 159.59479,13.362323 157.49719,11.787423 155.37409,9.8750231 C 153.25089,7.9628231 150.75989,6.4063231 149.84279,6.4062231 C 148.92579,6.4062231 147.39849,5.4984231 146.43649,4.3750231 C 145.47459,3.2516231 144.21469,2.5917231 143.65529,2.9375231 C 143.09579,3.2832231 141.96949,3.0194231 141.15529,2.3438231 C 140.34109,1.6681231 139.41999,1.3916231 139.09279,1.7188231 C 138.76559,2.0459231 137.94169,1.7552231 137.24909,1.0625231 C 136.62259,0.43612312 134.66969,0.005223125 132.53029,2.312499e-05 z M 124.31149,2.4062231 C 126.36619,2.4062231 127.04679,4.3417231 125.59279,6.0938231 C 123.65749,9.8094231 123.34959,4.1146231 124.31149,2.4062231 z M 131.53029,2.4062231 C 131.74269,2.3946231 132.00269,2.4063231 132.28029,2.4062231 C 135.39889,2.4062231 136.26039,4.0595231 134.68649,7.0000231 C 132.95289,10.239323 132.26689,10.037223 130.99909,5.9062231 C 130.10989,3.0091231 130.04329,2.4878231 131.53029,2.4062231 z M 118.06149,2.8125231 C 118.37679,2.7868231 118.70789,2.8327231 119.06149,2.9688231 C 121.04009,3.7280231 121.16089,4.5881231 119.53029,6.2188231 C 117.97169,7.7773231 117.07299,7.7208231 116.43649,6.0625231 C 115.80519,4.4172231 116.69549,2.9240231 118.06149,2.8125231 z M 140.99909,4.0312231 C 141.56279,4.0404231 142.33769,4.5595231 143.40529,5.5625231 L 145.74909,7.7500231 L 143.56149,10.093823 C 140.52669,13.324223 139.74909,12.991423 139.74909,8.5625231 C 139.74909,5.4427231 140.05949,4.0163231 140.99909,4.0312231 z M 111.68649,5.6250231 C 112.09729,5.6242231 112.52659,5.8088231 112.93649,6.2188231 C 113.87939,7.1616231 113.77249,7.7887231 112.46779,9.0938231 C 110.90729,10.654323 110.78079,10.630023 110.15529,9.0000231 C 109.47319,7.2224231 110.45459,5.6273231 111.68649,5.6250231 z M 127.99909,7.5625231 C 128.92409,7.4737231 129.50729,8.0533231 130.06149,10.406223 C 130.43749,12.001323 130.01489,13.723223 128.90529,15.187523 C 126.73179,18.055723 125.74909,17.175623 125.74909,12.312523 C 125.38859,8.8302231 124.67879,8.5479231 127.99909,7.5625231 z M 121.40529,7.7812231 C 121.69209,7.7905231 121.98399,7.9654231 122.21779,8.3438231 C 123.27679,10.057323 124.16619,16.395623 124.06149,21.406223 C 124.00979,23.881323 123.32529,27.401323 122.53029,29.218823 C 120.43199,35.962523 118.92629,28.407023 118.28029,25.812523 C 117.43599,23.356623 117.32699,20.916123 117.93649,18.062523 C 118.42589,15.771723 119.00539,12.838123 119.21779,11.531223 C 119.58659,9.2629231 120.54489,7.7534231 121.40529,7.7812231 z M 136.81149,8.4062231 C 138.44279,8.4062231 135.72169,32.239923 133.49909,37.406223 C 132.43439,39.881223 131.39539,42.743623 131.18649,43.781223 C 130.97799,44.819123 130.12229,46.444423 129.28029,47.375023 C 125.57939,51.142523 123.01769,57.663423 121.62409,53.156223 C 121.48449,50.504223 121.45179,51.008723 122.12409,45.375023 C 123.43859,34.359323 123.78259,32.725123 126.28029,25.906223 C 126.68329,24.806223 127.10739,23.075623 127.21779,22.062523 C 127.32829,21.049523 127.87519,19.924523 128.43649,19.562523 C 128.99799,19.200623 130.24969,17.331323 131.21779,15.406223 C 133.18529,11.493923 135.65179,8.4063231 136.81149,8.4062231 z M 149.93649,8.5312231 C 150.50739,8.4458231 150.78039,8.8126231 150.56149,9.4688231 C 150.32099,10.190623 149.53349,10.978023 148.81149,11.218823 C 148.06149,11.468723 147.68679,11.093523 147.93649,10.343823 C 148.17719,9.6218231 148.96509,8.8344231 149.68649,8.5938231 C 149.78029,8.5625231 149.85499,8.5435231 149.93649,8.5312231 z M 114.68649,8.6250231 C 114.77999,8.6156231 114.89069,8.6201231 114.99909,8.6562231 C 115.68659,8.8854231 116.24909,10.573023 116.24909,12.406223 C 116.24909,14.239623 115.68649,15.927223 114.99909,16.156223 C 114.13239,16.445123 113.74909,15.295223 113.74909,12.406223 C 113.74899,9.8785231 114.03259,8.6911231 114.68649,8.6250231 z M 105.74909,8.7812231 C 106.94249,8.6888231 107.44999,10.750923 107.15529,14.750023 C 106.98699,17.033823 106.84649,19.498623 106.81149,20.218823 C 105.62119,22.385923 103.69929,18.912223 102.87409,17.687523 C 101.25479,14.662023 101.45199,12.952023 103.71779,10.250023 C 104.51709,9.2968231 105.20659,8.8233231 105.74909,8.7812231 z M 144.68649,11.875023 C 146.22369,11.761723 146.56769,12.206723 146.18649,13.812523 C 145.91479,14.957123 145.53629,17.366923 145.34279,19.156223 C 145.14939,20.945423 143.79759,24.207923 142.34279,26.406223 C 140.88809,28.604523 139.34239,30.406523 138.90529,30.406223 C 137.56559,30.406223 138.82029,19.185423 140.43649,16.718823 C 141.74339,13.908023 140.57629,12.909023 144.68649,11.875023 z M 154.81149,12.406223 C 155.32919,12.406223 155.74909,13.081323 155.74909,13.906223 C 155.74899,15.452623 154.56269,15.876223 153.43649,14.750023 C 152.63759,13.951123 153.55069,12.406323 154.81149,12.406223 z M 110.68649,13.406223 C 111.82239,13.406323 115.60289,22.942623 118.40529,32.906223 C 119.65659,37.355423 119.91079,48.227423 118.81149,50.281223 C 117.97229,51.849323 117.96479,52.944923 118.78029,54.468823 C 119.56129,55.928023 119.56949,57.414823 118.84279,59.500023 C 117.66139,62.888923 115.29749,65.611023 114.34279,64.656223 C 113.98639,64.299823 113.12299,63.944623 112.43649,63.843823 C 111.75019,63.743123 109.43599,62.472923 107.31149,61.031223 C 102.83479,59.757523 101.80369,55.947123 99.155288,52.906223 C 95.981188,50.409323 93.710988,37.631023 96.280288,36.750023 C 97.698988,36.263623 108.74909,46.233123 108.74909,48.000023 C 109.69089,49.837123 110.87589,50.696623 109.59279,52.406223 C 109.14629,52.406223 109.27879,53.531523 109.90529,54.906223 C 111.25479,57.868223 113.74909,58.233023 113.74909,55.468823 C 113.74909,54.401323 114.15419,53.278323 114.65529,52.968823 C 115.82109,52.248323 115.63469,51.295423 112.78029,43.406223 C 112.08369,41.481223 111.35809,38.331423 111.18649,36.406223 C 110.79129,31.968123 109.77629,24.547723 109.18649,21.750023 C 108.64509,19.181523 109.68629,13.406323 110.68649,13.406223 z M 150.62409,13.406223 C 151.54409,13.406223 151.30119,17.692023 150.28029,19.343823 C 149.30089,20.928523 147.74909,20.625123 147.74909,18.843823 C 147.74909,16.831323 149.55099,13.406323 150.62409,13.406223 z M 158.49909,16.406223 C 158.71849,16.396223 158.96639,16.406323 159.24909,16.406223 C 161.50949,16.406223 161.69039,16.647523 160.74909,18.406223 C 160.16029,19.506323 159.48539,20.406323 159.24909,20.406223 C 159.01269,20.406223 158.33779,19.506323 157.74909,18.406223 C 156.92539,16.867223 156.96279,16.476623 158.49909,16.406223 z M 98.405288,18.406223 C 99.146688,18.159723 99.749088,19.837923 99.749088,22.906223 C 99.749088,27.105623 98.994188,28.338923 97.405288,26.750023 C 96.572688,25.917423 96.536188,22.102023 97.342788,20.000023 C 97.707388,19.049923 98.068288,18.518323 98.405288,18.406223 z M 153.84279,18.531223 C 154.06709,18.520323 154.25029,18.594923 154.37409,18.718823 C 155.52179,19.866623 149.75769,30.045923 145.31149,34.718823 C 142.79929,37.359123 140.74909,39.889923 140.74909,40.375023 C 138.53199,42.417823 136.55429,44.984223 133.65529,46.406223 C 132.25329,46.406223 133.62729,41.312123 135.81149,38.406223 C 136.84529,37.031323 138.42209,34.454823 139.31149,32.687523 C 140.20199,30.920223 141.68339,29.235123 142.59279,28.937523 C 143.50219,28.640023 145.23599,26.843723 146.46779,24.937523 C 148.50849,21.779523 152.27259,18.607723 153.84279,18.531223 z M 164.18649,19.343823 C 164.73649,19.888923 165.39579,20.480823 165.74909,20.906223 C 166.35249,21.633323 166.45279,22.481523 165.96779,22.781223 C 164.99509,25.846523 163.99339,21.945623 163.90529,20.312523 C 164.02769,19.961523 164.10339,19.632623 164.18649,19.343823 z M 159.81149,21.343823 C 160.44239,21.350123 160.67189,21.770323 159.93649,22.656223 C 158.93259,23.865923 158.74909,24.475223 158.74909,26.250023 C 158.74899,26.711723 157.58749,27.611723 156.18649,28.250023 C 154.78559,28.888323 153.42379,29.406323 153.15529,29.406223 C 152.46129,29.406223 154.71659,25.236123 156.53029,23.156223 C 157.41979,22.136423 158.68659,21.498223 159.53029,21.375023 C 159.63579,21.359623 159.72149,21.342723 159.81149,21.343823 z M 102.59279,21.500023 C 103.19159,21.519623 104.15569,22.384123 105.62409,24.531223 C 106.64629,25.833323 107.79329,28.818823 108.18649,31.156223 C 109.05389,36.307323 108.13129,36.520823 104.49909,31.968823 C 102.40599,28.951723 100.79639,21.441223 102.59279,21.500023 z M 170.18649,25.406223 C 171.04399,25.406323 171.74909,25.856423 171.74909,26.406223 C 171.74899,26.956323 171.32919,27.407023 170.81149,27.406223 C 170.29409,27.406223 169.58899,26.956423 169.24909,26.406223 C 168.90909,25.856323 169.32899,25.406323 170.18649,25.406223 z M 165.03029,26.062523 C 165.19489,26.066023 165.34659,26.093223 165.49909,26.125023 C 165.81819,28.300023 165.08489,29.813323 162.37409,32.687523 C 160.44179,34.736423 158.23159,36.406523 157.46779,36.406223 C 152.51639,37.586323 148.04129,39.935023 143.62409,42.406223 C 141.92999,42.406223 142.77169,40.445123 145.65529,37.687523 C 150.15219,33.386923 151.25359,32.589323 156.37409,30.156223 C 158.80699,28.988023 162.56189,26.009323 165.03029,26.062523 z M 177.84279,27.906223 C 178.39319,27.898423 178.74909,28.266523 178.74909,28.937523 C 178.74899,29.745223 178.07409,30.406323 177.24909,30.406223 C 176.42399,30.406223 175.74909,29.991123 175.74909,29.500023 C 175.74909,29.008923 176.42389,28.347923 177.24909,28.031223 C 177.47749,27.943623 177.65929,27.908923 177.84279,27.906223 z M 170.40529,28.781223 C 172.26979,28.607523 172.24299,30.296623 169.99909,32.000023 C 167.95699,33.550223 167.05619,33.697323 166.37409,32.593823 C 165.61329,31.363023 167.01319,29.744523 169.49909,28.968823 C 169.84199,28.861723 170.13889,28.806123 170.40529,28.781223 z M 45.249088,29.406223 C 47.087888,29.406223 47.874788,30.855823 47.124088,32.812523 C 46.365188,34.790123 45.344688,34.822423 43.780288,32.937523 C 42.406088,31.281723 43.190988,29.406323 45.249088,29.406223 z M 52.436488,29.593823 C 53.475488,29.566423 55.749088,31.428223 55.749088,32.531223 C 55.749088,33.013923 55.060088,33.406523 54.217788,33.406223 C 52.605788,33.406223 51.068788,30.742823 52.092788,29.718823 C 52.181788,29.629723 52.288088,29.597623 52.436488,29.593823 z M 98.124088,29.656223 C 98.283688,29.654923 98.457788,29.672623 98.655288,29.687523 C 99.802388,29.773923 100.73929,30.304623 100.74909,30.875023 C 100.77219,32.266323 105.21919,36.406323 106.68649,36.406223 C 107.32889,36.406223 107.59139,36.809223 107.28029,37.312523 C 106.96909,37.816023 107.83919,39.580223 109.21779,41.218823 C 110.59649,42.857223 111.74909,44.479323 111.74909,44.812523 C 111.74909,46.511823 109.00539,45.043523 107.24909,42.406223 C 106.14909,40.754723 104.48999,39.163123 103.59279,38.875023 C 101.59459,38.233323 98.301188,35.268223 98.061488,33.906223 C 97.964788,33.356223 97.580588,32.150723 97.217788,31.218823 C 96.780588,30.095923 97.006188,29.665723 98.124088,29.656223 z M 59.186488,30.406223 C 59.978988,30.406223 60.878388,30.813323 61.186488,31.312523 C 61.495088,31.811723 61.397588,33.181623 60.967788,34.343823 C 60.352588,36.006623 59.928288,36.179223 58.967788,35.218823 C 57.287988,33.538923 57.430088,30.406323 59.186488,30.406223 z M 34.717788,30.718823 C 36.481088,30.742323 38.194888,31.316623 38.124088,32.187523 C 38.068988,32.863323 37.956488,34.531523 37.874088,35.906223 C 37.721288,38.452923 37.600388,38.538623 34.436488,37.718823 C 32.066288,37.104523 30.167688,32.367023 31.874088,31.312523 C 32.572888,30.880623 33.659788,30.704623 34.717788,30.718823 z M 25.342788,32.000023 C 27.082888,31.940623 28.749088,34.559023 28.749088,37.968823 C 28.748988,42.161223 27.537888,42.329023 24.811488,38.500023 C 22.375688,35.079123 22.246688,34.058223 24.124088,32.500023 C 24.513488,32.176823 24.941188,32.013723 25.342788,32.000023 z M 175.68649,32.406223 C 177.36909,32.406223 178.71739,32.743923 178.68649,33.156223 C 178.60629,34.227223 167.18009,43.712323 164.53029,44.906223 C 163.30999,45.456323 161.23809,46.887423 159.93649,48.093823 C 152.52899,53.475923 142.86109,56.798223 134.12409,60.125023 C 131.99449,61.070423 129.79909,61.908723 129.24909,62.000023 C 128.69899,62.091223 128.02399,62.265723 127.74909,62.375023 C 126.56269,62.846423 122.70529,63.018523 122.31149,62.625023 C 121.39859,61.712123 123.20959,58.763723 126.74909,55.406223 C 132.68559,48.978623 140.12529,45.266823 147.96779,41.843823 C 149.73719,41.455223 151.87469,40.819323 152.71779,40.406223 C 160.28059,36.702123 162.71679,35.906223 169.96779,34.781223 C 172.02589,34.462023 173.45829,33.771623 173.15529,33.281223 C 172.85219,32.791023 174.00419,32.406323 175.68649,32.406223 z M 49.936488,33.750023 C 50.647988,33.730623 51.284888,34.475223 51.530288,36.000023 C 51.699988,37.054423 52.110688,38.581323 52.436488,39.406223 C 53.897688,43.105623 54.365788,46.304923 55.217788,58.906223 C 55.515288,63.306323 55.914988,68.037023 56.092788,69.406223 C 56.270588,70.775423 55.848588,72.462823 55.155288,73.156223 C 51.108788,76.149223 51.537388,73.115423 49.999088,70.375023 C 49.096488,69.086323 48.172888,66.657023 47.936488,64.968823 C 47.158188,59.405423 47.227788,38.970623 48.030288,36.093823 C 48.460788,34.550523 49.225388,33.769423 49.936488,33.750023 z M 16.905288,34.218823 C 17.254788,34.096723 17.905388,34.967923 18.436488,36.375023 C 19.258988,38.553823 19.221488,39.704623 18.342788,40.906223 C 17.283088,42.355623 16.915888,42.273323 14.530288,40.062523 C 13.070488,38.709623 11.539588,37.895323 11.155288,38.250023 C 10.771088,38.604723 10.680888,38.231323 10.936488,37.406223 C 11.192388,36.581323 12.479588,35.755623 13.811488,35.562523 C 15.143488,35.369623 16.482488,34.822623 16.780288,34.343823 C 16.817488,34.283923 16.855388,34.235823 16.905288,34.218823 z M 41.499088,34.718823 C 41.967588,34.646523 42.536788,35.148023 43.530288,36.375023 C 45.134988,38.356823 45.288288,39.438723 44.530288,42.812523 C 43.402988,47.829823 43.425088,47.825523 41.405288,45.593823 C 39.614088,43.614523 39.201188,37.817123 40.686488,35.468823 C 40.970188,35.020423 41.217888,34.762023 41.499088,34.718823 z M 180.81149,35.437523 C 181.48829,35.434323 181.79729,35.990623 181.46779,37.156223 C 181.19569,38.118823 180.82849,39.581323 180.62409,40.406223 C 180.41949,41.231323 179.39679,42.239323 178.37409,42.656223 C 176.70979,43.334923 176.67159,43.650323 177.93649,45.656223 C 179.78419,48.586523 179.21059,52.018223 177.15529,50.312523 C 176.07229,49.413723 175.98269,48.817723 176.84279,47.781223 C 178.42169,45.879023 176.81309,46.177223 173.24909,48.468823 C 171.59899,49.529623 168.75809,51.105223 166.96779,51.937523 C 163.92029,53.354523 157.74909,53.660923 157.74909,52.406223 C 157.74899,51.617223 161.58589,48.406523 162.53029,48.406223 C 162.95729,48.406223 164.87609,47.065123 166.78029,45.437523 C 169.13079,43.428423 171.37299,42.475523 173.74909,42.437523 C 175.92099,42.402823 176.75589,42.062623 175.96779,41.562523 C 175.00199,40.949523 175.24849,40.131123 176.99909,38.093823 C 178.47439,36.376823 179.94149,35.441623 180.81149,35.437523 z M 56.249088,36.406223 C 57.074088,36.406223 57.749088,37.276123 57.749088,38.343823 C 57.748988,40.431023 56.416488,41.761523 55.374088,40.718823 C 54.137888,39.482523 54.765888,36.406323 56.249088,36.406223 z M 71.874088,36.656223 C 73.104488,36.677223 74.516288,38.579023 74.030288,40.437523 C 73.747888,41.517323 72.945788,42.406323 72.249088,42.406223 C 70.672188,42.406223 69.702788,39.087223 70.780288,37.343823 C 71.080788,36.857523 71.463888,36.649523 71.874088,36.656223 z M 60.374088,37.312523 C 61.157588,37.133623 62.445788,39.783323 62.936488,44.000023 C 63.488188,48.740923 63.245088,50.721623 61.717788,54.062523 C 60.093388,57.615923 57.970488,60.284623 57.624088,59.218823 C 57.568788,59.048923 57.453588,55.588523 57.342788,51.531223 C 57.204788,46.475123 57.551088,43.729123 58.467788,42.812523 C 59.203488,42.076823 59.799888,41.232323 59.780288,40.937523 C 59.620288,38.537323 59.903888,37.419923 60.374088,37.312523 z M 66.311488,37.406223 C 66.418188,37.392823 66.549188,37.406323 66.686488,37.406223 C 68.272988,37.406223 69.101088,44.239623 67.717788,45.906223 C 65.653788,48.393323 64.943488,47.614323 65.217788,43.156223 C 65.522488,38.201523 65.565388,37.500423 66.311488,37.406223 z M 32.374088,38.406223 C 34.001788,38.403423 40.029388,46.142623 42.499088,51.406223 C 44.603388,55.892223 46.534888,65.406523 45.342788,65.406223 C 44.997588,65.406223 43.426788,63.987723 41.874088,62.250023 C 39.472288,60.517723 37.837188,58.291223 35.686488,56.281223 C 34.556188,55.526623 33.511088,54.231323 33.374088,53.406223 C 33.236888,52.581323 32.586788,50.331423 31.936488,48.406223 C 30.526388,44.231823 30.787888,38.409323 32.374088,38.406223 z M 21.811488,38.968823 C 23.237588,39.136323 28.749088,44.161423 28.749088,45.437523 C 28.748988,45.877223 29.008988,46.942523 29.342788,47.812523 C 29.741088,48.850523 29.397288,49.406323 28.342788,49.406223 C 27.458988,49.406323 26.749088,49.076023 26.749088,48.656223 C 26.749088,48.236723 25.736388,47.407023 24.499088,46.843823 C 20.508888,44.217123 20.648688,41.927823 21.592788,39.000023 C 21.648788,38.965423 21.716488,38.957623 21.811488,38.968823 z M 10.217788,40.687523 C 18.560688,43.040323 26.131388,50.527023 32.342788,56.406223 C 36.282088,58.956323 38.706188,62.357223 41.874088,65.687523 C 48.839688,72.795923 52.017188,77.132223 51.249088,78.375023 C 50.894488,78.948823 50.316688,79.397123 49.936488,79.375023 C 48.620288,79.298723 43.227288,76.165423 41.124088,74.250023 C 39.961888,73.191723 38.539988,72.431223 37.967788,72.593823 C 36.268888,73.076523 15.847088,53.532223 13.905288,49.562523 C 12.921488,47.551523 11.488688,44.899923 10.717788,43.687523 C 9.9469877,42.475023 9.6419877,41.169823 10.030288,40.781223 C 10.078388,40.733123 10.124588,40.704623 10.217788,40.687523 z M 7.3740877,42.906223 C 7.8651877,42.890623 8.4403877,43.867523 9.6240877,46.187523 C 10.784988,48.463323 11.749088,50.803223 11.749088,51.375023 C 11.748988,51.946923 10.368988,52.406323 8.6864877,52.406223 C 3.5628877,52.415123 5.3739877,46.915223 6.4677877,43.937523 C 6.8203877,43.307523 7.0792877,42.915723 7.3740877,42.906223 z M 73.499088,43.406223 C 75.853088,43.110323 72.888288,51.892923 67.311488,59.343823 C 65.893988,61.238123 64.749088,63.291023 64.749088,63.906223 C 64.749088,64.521623 63.398988,66.325723 61.749088,67.906223 C 58.988988,70.550623 58.092288,70.332223 58.624088,67.125023 C 58.695588,66.693423 58.903688,65.568423 59.061488,64.625023 C 59.219488,63.681623 59.971588,61.781723 60.749088,60.406223 C 63.274188,54.906723 66.931188,49.718923 70.999088,45.187523 C 72.141788,44.023223 72.955588,43.474523 73.499088,43.406223 z M 77.780288,45.406223 C 79.495288,45.406323 80.582188,49.735023 79.027488,51.452423 C 78.323888,52.229823 75.943888,52.499623 75.092788,52.906223 C 74.621088,50.777623 76.500488,45.406323 77.780288,45.406223 z M 172.59279,51.562523 C 175.23109,51.692523 179.67439,54.769723 179.71779,56.656223 C 179.75029,58.065923 177.84489,57.409323 176.81149,55.656223 C 176.00159,54.282223 175.57969,54.197023 174.90529,55.218823 C 174.21639,56.262323 173.52759,56.262623 171.37409,55.281223 C 168.09519,53.787323 168.43379,52.025823 172.09279,51.593823 C 172.25089,51.575123 172.41689,51.553823 172.59279,51.562523 z M 8.9990877,53.468823 C 9.5050877,53.445223 10.240488,53.559423 11.249088,53.812523 C 13.567688,54.394523 20.748288,60.487323 20.749088,61.875023 C 20.748988,62.168323 19.593988,62.406323 18.186488,62.406223 C 15.288788,61.433123 13.885588,60.585123 11.217788,57.812523 C 8.2179877,54.899323 7.4807877,53.539323 8.9990877,53.468823 z M 74.061488,64.906223 C 72.069888,67.635423 68.984388,67.724223 66.717788,69.937523 C 63.907588,72.928823 62.749088,73.065923 62.749088,70.406223 C 62.748988,69.306323 63.098888,68.406523 63.530288,68.406223 C 63.961688,68.406323 65.049888,67.147523 65.967788,65.593823 C 66.885588,64.039823 69.466388,60.998423 71.686488,58.843823 C 82.816888,47.985523 80.847588,59.652623 74.061488,64.906223 z M 4.9677877,54.937523 C 5.6940877,54.926023 6.6307877,55.900823 7.5302877,57.875023 C 8.3884877,59.758523 8.3070877,60.346523 7.0927877,60.812523 C 4.2861877,61.889423 3.7490877,61.425023 3.7490877,57.937523 C 3.7489877,55.948923 4.2414877,54.949023 4.9677877,54.937523 z M 157.06149,55.031223 C 162.11099,54.955523 168.10299,55.444423 169.18649,56.343823 C 169.99599,57.015623 171.11249,57.292423 171.68649,56.937523 C 172.26069,56.582723 172.74909,56.897423 172.74909,57.625023 C 172.74909,59.281223 165.66929,62.406523 161.93649,62.406223 C 160.40019,62.406223 158.68549,62.876023 158.12409,63.437523 C 156.64439,64.917323 144.84769,65.532123 140.74909,64.343823 C 134.29319,62.472023 134.24309,62.382423 138.31149,60.468823 C 143.24249,58.149123 145.96799,57.072223 147.24909,56.875023 C 147.79909,56.790423 149.14909,56.300223 150.24909,55.812523 C 151.35529,55.322123 154.03189,55.076723 157.06149,55.031223 z M 81.717788,58.406223 C 82.124188,58.406223 82.230488,59.531323 81.967788,60.906223 C 81.467988,63.520823 80.315088,64.150523 79.217788,62.375023 C 78.558788,61.308823 80.382188,58.406323 81.717788,58.406223 z M 177.34279,60.718823 C 179.17449,60.758223 179.67639,62.338723 179.03029,65.718823 C 178.44299,68.790823 177.57249,68.882423 172.84279,66.343823 C 168.88529,64.219623 166.91219,62.465023 168.28029,62.281223 C 168.80279,62.211023 170.14899,62.047423 171.24909,61.906223 C 172.34909,61.765323 174.40479,61.317423 175.84279,60.937523 C 176.40999,60.787723 176.92009,60.709723 177.34279,60.718823 z M 11.749088,62.656223 C 11.942888,62.667823 12.123588,62.709223 12.311488,62.781223 C 14.380588,62.768223 15.933788,63.782723 18.061488,64.281223 C 21.041688,63.813923 32.249088,69.536523 32.249088,71.531223 C 32.249088,73.498123 30.716388,73.540923 25.749088,71.687523 C 24.923988,71.379823 23.573888,70.993023 22.749088,70.843823 C 18.276188,70.034123 16.278188,69.312423 14.655288,67.843823 C 13.665288,66.947823 12.432288,66.486923 11.905288,66.812523 C 10.752688,67.524923 9.4870877,64.634723 10.342788,63.250023 C 10.592088,62.846623 11.167488,62.621723 11.749088,62.656223 z M 121.31149,64.531223 C 122.72059,64.551523 124.18089,65.241423 125.56149,66.718823 C 127.54369,68.839823 128.22329,71.556523 127.90529,76.156223 C 127.66879,79.578923 123.02809,79.277423 121.68649,75.750023 C 120.90369,73.690923 120.38829,73.360923 119.46779,74.281223 C 118.54739,75.201823 118.55799,75.855623 119.49909,77.187523 C 123.98069,83.530323 125.92799,89.689823 126.15529,98.312523 C 126.27549,102.87632 124.54599,103.18292 121.34279,99.187523 C 112.51789,89.835523 114.30119,86.296223 113.53029,78.750023 C 113.30149,70.405823 117.08439,64.470523 121.31149,64.531223 z M 130.46779,64.531223 C 133.58379,64.586123 139.93889,65.419323 141.03029,66.093823 C 141.67549,66.492523 142.88319,66.917123 143.71779,67.031223 C 147.48379,67.546723 150.13419,68.445023 151.62409,69.750023 C 152.51129,70.527023 154.14909,71.442223 155.24909,71.781223 C 157.48549,72.470923 168.74829,82.977423 168.74909,84.375023 C 168.74899,85.274523 162.55129,84.760223 159.74909,83.625023 C 158.92409,83.290823 157.79909,82.959723 157.24909,82.875023 C 155.87029,82.663023 153.00649,81.506023 147.93649,79.156223 C 144.24719,78.500923 141.34059,76.891023 138.09279,75.781223 C 136.53029,75.400123 134.30649,74.154423 133.18649,73.000023 C 131.38179,71.139623 128.74909,66.250123 128.74909,64.781223 C 128.74909,64.595423 129.42909,64.513023 130.46779,64.531223 z M 3.3427877,64.781223 C 3.4339877,64.770923 3.5275877,64.774223 3.6240877,64.781223 C 5.2950877,64.903723 7.6764877,67.398323 7.0614877,69.000023 C 6.2650877,71.075723 3.9759877,70.721923 2.6864877,68.312523 C 1.8860877,66.816923 1.8653877,65.883823 2.6240877,65.125023 C 2.8215877,64.927423 3.0690877,64.812323 3.3427877,64.781223 z M 162.93649,65.031223 C 167.05559,65.007023 169.18179,65.476123 170.62409,66.781223 C 171.72049,67.773523 173.08729,68.319623 173.65529,67.968823 C 174.22489,67.616823 175.36119,68.981023 176.21779,71.031223 C 177.80769,74.836523 177.21279,76.938023 174.93649,75.531223 C 174.23369,75.096823 173.95829,73.983223 174.31149,73.062523 C 174.87889,71.584123 174.33369,71.491123 169.59279,72.062523 C 161.98819,72.979123 161.13379,72.829223 156.09279,69.875023 C 149.95699,66.279223 151.63609,65.098123 162.93649,65.031223 z M 79.405288,65.781223 C 79.531488,65.789523 79.642388,65.828423 79.717788,65.875023 C 80.282888,66.224223 80.749088,67.420623 80.749088,68.500023 C 80.748988,70.740523 75.928888,78.406323 74.530288,78.406223 C 73.954688,80.804823 71.041988,81.881123 68.749088,83.343823 C 68.462888,83.790223 66.827988,84.467523 65.092788,84.843823 C 61.012388,85.728723 59.861388,83.971823 62.624088,81.031223 C 63.854388,79.721623 64.749088,77.456023 64.749088,75.593823 C 65.676388,72.833223 66.771688,72.648623 68.686488,70.968823 C 70.213988,69.128223 76.592688,66.051823 78.967788,65.812523 C 79.137488,65.795423 79.279088,65.773023 79.405288,65.781223 z M 112.03029,66.500023 C 112.10079,66.508123 112.16879,66.514223 112.21779,66.562523 C 112.85649,67.191823 111.15389,71.334523 109.81149,72.406223 C 106.97789,74.669123 102.58539,82.216823 100.40529,88.593823 C 98.957088,92.830023 95.804788,100.48012 93.405288,105.59382 C 91.005688,110.70752 88.856588,115.35632 88.624088,115.90622 C 80.970288,128.84812 69.456088,139.88852 58.280288,149.90622 C 56.263188,151.55632 53.454988,153.91892 52.030288,155.15622 C 46.446088,158.68212 41.523588,163.14632 36.061488,166.93752 C 30.389588,170.75792 24.455488,177.14232 22.499088,181.56252 C 21.377188,183.66762 20.036988,184.71792 19.561488,187.06252 C 19.007888,191.74042 17.315488,190.60462 13.967788,183.21882 L 10.717788,176.03122 L 13.405288,173.21882 C 15.802988,170.61392 19.163188,170.05122 21.905288,167.90622 C 24.412588,165.79322 27.393088,165.20712 29.749088,162.90622 C 31.040788,161.53122 32.641288,160.40652 33.311488,160.40622 C 35.997788,158.13012 39.156888,156.03002 42.186488,153.90622 C 44.535688,151.98122 46.871088,150.40652 47.405288,150.40622 C 49.415788,150.40622 60.572388,137.68732 63.186488,132.40622 C 64.683588,129.38232 66.280788,126.17832 66.749088,125.28122 C 68.752888,121.44332 69.787488,108.56002 68.624088,101.90622 C 67.345888,94.597123 66.859488,93.441723 64.124088,90.906223 C 62.630488,89.522223 61.729488,88.082123 62.092788,87.718823 C 62.971388,86.840123 67.583088,91.211723 69.342788,94.593823 C 73.115388,101.84442 73.238488,120.96922 69.561488,128.15622 C 68.928788,129.39292 68.653788,130.65482 68.967788,130.96882 C 70.987388,132.98842 83.521388,118.51932 84.374088,113.18752 C 88.574188,104.95452 94.589388,98.443623 97.749088,88.593823 C 97.748988,84.786623 109.84629,66.249723 112.03029,66.500023 z M 12.342788,70.062523 C 16.805288,70.125723 21.145388,75.176523 14.280288,74.406223 C 13.548688,74.406223 11.943488,73.580223 10.686488,72.562523 L 8.3740877,70.718823 L 11.030288,70.187523 C 11.465088,70.104423 11.908188,70.068723 12.342788,70.062523 z M 4.2490877,72.406223 C 6.2521877,72.406223 8.7490877,74.083423 8.7490877,75.437523 C 8.7489877,75.789223 7.5874877,76.611723 6.1864877,77.250023 C 2.3980877,78.976123 2.5488877,79.051223 2.3114877,75.156223 C 2.1788877,72.977423 2.5879877,72.406523 4.2490877,72.406223 z M 88.530288,72.593823 C 89.003588,72.544523 89.966188,73.185923 91.342788,74.562523 C 94.314588,77.534323 96.167388,84.190023 94.561488,86.125023 C 93.386088,87.541423 91.798588,87.826823 91.624088,86.656223 C 91.562588,86.243823 91.337388,84.368023 91.124088,82.500023 C 90.910688,80.632023 90.045288,77.752723 89.217788,76.093823 C 88.096988,73.847023 87.921788,72.657023 88.530288,72.593823 z M 84.092788,73.593823 C 84.508488,73.605623 85.114588,74.175723 86.030288,75.187523 C 87.970988,77.332023 89.476388,85.406523 87.936488,85.406223 C 87.361188,85.406223 86.181588,85.666123 85.311488,86.000023 C 83.563788,86.670723 83.500088,86.421723 83.342788,78.656223 C 83.270588,75.092723 83.399988,73.574023 84.092788,73.593823 z M 164.87409,73.718823 C 166.96929,73.603123 171.42209,74.617723 173.43649,75.937523 C 175.39079,77.217923 175.77759,78.214323 175.53029,81.125023 C 175.36159,83.111823 174.68629,84.930723 173.99909,85.156223 C 172.53369,85.637723 171.45319,83.388623 171.90529,80.750023 C 172.13409,79.414923 171.71509,78.988423 170.37409,79.218823 C 168.57199,79.527923 163.74909,75.913323 163.74909,74.250023 C 163.74909,73.927823 164.17549,73.757323 164.87409,73.718823 z M 58.311488,74.406223 C 60.217688,74.406223 60.809688,74.868723 60.561488,76.156223 C 60.120188,78.447923 57.170688,78.951223 56.374088,76.875023 C 55.455588,74.481823 55.504188,74.406323 58.311488,74.406223 z M 30.530288,75.187523 C 33.747988,75.145023 36.967688,75.187523 38.842788,75.312523 C 40.772688,75.441223 46.397488,80.101923 45.592788,80.906223 C 45.278388,81.220723 43.936088,81.704123 42.624088,82.000023 C 39.730788,82.652723 19.047388,83.141323 16.249088,82.625023 C 15.149088,82.422023 12.700088,81.548923 10.811488,80.687523 L 7.3740877,79.125023 L 11.092788,77.218823 C 14.564388,75.486123 18.450788,75.731823 22.249088,75.531223 C 24.096688,75.357423 27.312588,75.230023 30.530288,75.187523 z M 131.71779,75.593823 C 131.80009,75.596623 131.91099,75.627123 131.99909,75.656223 C 132.99769,75.988223 139.62659,83.482123 144.68649,90.000023 C 146.12639,91.854723 148.74909,97.236323 148.74909,98.343823 C 148.74909,102.28972 135.82739,92.582923 131.03029,85.031223 C 129.26519,82.252623 128.87519,80.873923 129.65529,80.093823 C 130.25209,79.496923 130.74909,78.160823 130.74909,77.125023 C 130.74909,76.196123 131.14139,75.573923 131.71779,75.593823 z M 79.749088,76.406223 C 80.298988,76.406223 80.749088,78.232523 80.749088,80.468823 C 80.748988,82.704923 81.211088,85.404823 81.780288,86.468823 C 82.588188,87.978323 82.473288,88.406323 81.311488,88.406223 C 79.709688,88.406223 77.685588,82.638123 78.249088,79.687523 C 78.434688,78.714823 78.613288,77.568823 78.655288,77.156223 C 78.697388,76.743823 79.199088,76.406523 79.749088,76.406223 z M 140.31149,78.187523 C 141.66099,79.187223 145.40919,80.505923 147.96779,81.062523 C 154.44269,84.421723 161.51939,86.055623 168.74909,86.687523 C 171.44929,86.854923 172.30019,87.389423 172.53029,89.000023 C 172.69429,90.148123 172.11379,91.657423 171.24909,92.375023 C 169.40329,93.906923 168.68789,93.422623 168.46779,90.500023 C 168.37969,89.331123 167.85039,88.548823 167.28029,88.750023 C 166.71039,88.951223 166.36869,89.844623 166.53029,90.750023 C 166.94979,93.100323 165.76869,92.791323 162.56149,89.718823 C 159.00269,86.309223 157.92109,87.308523 160.53029,91.593823 C 163.17259,95.933323 163.10229,100.46392 160.37409,102.37502 C 156.02199,105.42342 153.58709,104.30602 150.93649,98.093823 C 149.42379,94.548323 149.43639,93.406323 150.96779,93.406223 C 152.27789,93.406323 156.74909,98.167623 156.74909,99.562523 C 156.74909,100.02692 157.19909,100.40652 157.74909,100.40622 C 159.47999,100.40622 158.81759,97.575223 156.62409,95.531223 C 155.46559,94.451923 154.81279,93.116623 155.15529,92.562523 C 155.49779,92.008423 155.30799,91.251923 154.74909,90.906223 C 154.19019,90.560823 153.74909,90.761123 153.74909,91.343823 C 153.74899,93.284623 149.10959,92.440223 146.90529,90.093823 C 145.70949,88.820823 144.74909,87.400123 144.74909,86.937523 C 144.74909,86.474823 143.62199,84.612423 142.24909,82.812523 C 140.93889,81.094923 140.11819,79.112823 140.31149,78.187523 z M 4.5927877,80.250023 C 5.0992877,80.178323 5.7070877,80.529423 6.2490877,81.406223 C 6.5888877,81.956223 7.7440877,82.406523 8.8114877,82.406223 C 11.428788,82.406223 11.229088,84.420423 8.3427877,87.156223 C 4.7711877,90.541823 4.1021877,90.075723 3.3740877,83.656223 C 3.1478877,81.663423 3.7486877,80.369523 4.5927877,80.250023 z M 126.46779,80.531223 C 126.64719,80.526023 126.74909,80.698623 126.74909,81.062523 C 126.74909,81.645723 127.82309,83.724623 129.15529,85.687523 C 131.48699,89.123623 133.02169,98.446123 131.49909,99.968823 C 131.15459,100.31312 131.27909,101.68172 131.78029,103.00002 C 132.48049,104.84182 132.35549,105.40632 131.24909,105.40622 C 129.42379,105.40622 127.53179,102.01972 128.68649,100.81252 C 129.71249,99.739823 127.62949,87.928123 125.81149,84.531223 C 124.89949,82.826923 124.86499,81.883723 125.65529,81.093823 C 126.03009,80.718823 126.28839,80.536523 126.46779,80.531223 z M 49.717788,81.781223 C 50.713388,81.697923 52.064888,82.293123 53.686488,83.562523 C 59.459988,88.082223 58.630488,94.027823 51.155288,101.71882 C 48.217888,104.74092 45.744188,106.40632 44.186488,106.40622 C 41.950688,106.40622 41.867888,106.20562 42.905288,103.65622 C 46.280188,95.363123 47.263488,93.602423 50.436488,90.281223 C 52.928888,87.672823 53.578288,86.426023 52.686488,85.875023 C 51.956788,85.424023 50.927588,85.779423 50.217788,86.750023 C 48.443188,89.176923 47.749088,88.785123 47.749088,85.375023 C 47.749088,83.106323 48.437788,81.888523 49.717788,81.781223 z M 74.967788,82.000023 C 75.254288,82.021323 75.432688,82.228523 75.530288,82.593823 C 75.724588,83.320623 76.153288,84.581323 76.467788,85.406223 C 76.782288,86.231223 77.165588,87.479823 77.311488,88.187523 C 77.457688,88.895223 79.193788,91.294223 81.186488,93.500023 C 84.631288,97.312923 84.805688,97.759523 84.311488,102.96882 C 84.025588,105.98262 83.322288,109.29992 82.780288,110.31252 C 82.220288,112.55832 82.254388,114.12092 80.874088,116.21882 C 79.467888,118.80362 78.770288,120.83762 76.624088,122.96882 L 73.530288,125.90622 L 74.311488,121.40622 C 76.258688,110.19072 73.863488,94.937623 69.624088,91.406223 C 69.293888,91.131323 68.526188,89.929923 67.905288,88.750023 C 66.104688,85.136223 70.136688,84.938923 72.467788,83.406223 C 73.723188,82.418823 74.490288,81.964523 74.967788,82.000023 z M 33.749088,84.406223 C 34.298988,84.406223 34.749088,84.856323 34.749088,85.406223 C 34.749088,85.956223 34.298888,86.406523 33.749088,86.406223 C 33.198988,86.406223 32.749088,85.956423 32.749088,85.406223 C 32.749088,84.856223 33.199088,84.406523 33.749088,84.406223 z M 41.217788,84.625023 C 42.600288,84.686023 43.749088,85.452923 43.749088,86.750023 C 43.749088,88.637823 38.637088,94.057523 33.249088,97.906223 C 31.709188,99.006223 29.082088,100.91892 27.405288,102.15622 C 21.992388,106.15102 19.937088,104.84042 24.280288,100.15622 C 26.212188,97.238623 28.227988,94.913023 30.874088,92.406223 C 33.828288,89.664723 36.933388,86.776923 37.780288,85.968823 C 38.601688,85.185123 39.640488,84.751923 40.624088,84.656223 C 40.828888,84.636323 41.020288,84.616323 41.217788,84.625023 z M 19.592788,84.875023 C 20.179488,84.862723 20.816688,84.872923 21.499088,84.875023 C 25.914788,84.888323 28.609688,85.293023 28.405288,85.906223 C 25.699588,87.601823 21.746788,88.194323 18.499088,88.750023 C 15.900188,89.035823 13.367588,89.519523 12.842788,89.843823 C 10.958288,91.008423 10.557688,88.228223 12.374088,86.562523 C 13.596588,85.441323 15.485588,84.961023 19.592788,84.875023 z M 87.436488,87.531223 C 88.260388,87.470123 88.488588,87.850523 88.155288,88.718823 C 87.341888,90.838623 89.797588,92.010723 90.905288,90.031223 C 92.044788,87.994923 93.749088,87.909723 93.749088,89.875023 C 93.749088,90.680723 92.736388,91.879623 91.499088,92.531223 C 90.261488,93.183023 89.024088,93.988623 88.749088,94.343823 C 88.473988,94.698723 87.424488,94.832623 86.436488,94.625023 C 84.042688,94.122123 84.583088,88.071123 87.061488,87.593823 C 87.203288,87.566423 87.318988,87.540023 87.436488,87.531223 z M 28.905288,88.593823 C 29.485988,88.629623 29.749088,88.980923 29.749088,89.625023 C 28.062588,94.524223 22.544388,96.662623 17.811488,96.875023 C 15.352888,97.655423 14.195788,95.772323 15.874088,93.750023 C 17.184188,92.171323 20.999588,90.249223 23.749088,89.781223 C 24.574088,89.641023 26.261388,89.217523 27.499088,88.843823 C 28.101888,88.661723 28.556888,88.572123 28.905288,88.593823 z M 133.46779,90.906223 L 136.03029,93.250023 C 139.01119,95.986223 140.43389,102.25392 138.78029,105.34382 C 137.33339,108.04722 134.74909,108.02752 134.74909,105.31252 C 134.74899,103.77782 135.18939,103.35792 136.37409,103.81252 C 137.87049,104.38672 137.84909,104.25152 136.37409,102.00002 C 135.49229,100.65442 134.48819,97.594923 134.12409,95.218823 L 133.46779,90.906223 z M 10.155288,91.406223 C 13.396888,91.406223 13.985788,92.592023 12.124088,95.250023 C 10.338388,97.799523 9.4229877,97.923423 7.7490877,95.906223 C 5.9843877,93.780023 7.2600877,91.406523 10.155288,91.406223 z M 44.186488,91.500023 C 44.567788,91.481023 44.749088,91.765823 44.749088,92.343823 C 44.748988,94.115323 40.280788,100.89852 37.499088,103.37502 C 35.971488,104.73502 34.748288,106.42262 34.749088,107.12502 C 34.748988,108.38452 32.580188,108.89382 31.561488,107.87502 C 30.021688,106.33532 32.657688,101.48422 37.624088,96.750023 C 41.420288,93.131223 43.347888,91.541823 44.186488,91.500023 z M 165.15529,93.531223 C 165.27979,93.535623 165.40679,93.563923 165.56149,93.593823 C 166.47469,93.769623 167.37829,94.700223 167.56149,95.656223 C 168.04069,98.143923 165.09179,97.849523 164.43649,95.343823 C 164.13559,94.192723 164.22789,93.658223 164.81149,93.562523 C 164.90879,93.546623 165.03079,93.526923 165.15529,93.531223 z M 91.217788,95.187523 C 91.754688,95.142723 92.249088,95.759223 92.249088,97.062523 C 92.248988,97.979123 91.639088,98.943023 90.905288,99.187523 C 89.990588,99.492423 89.676188,98.900023 89.905288,97.281223 C 90.091888,95.962423 90.680888,95.232323 91.217788,95.187523 z M 20.030288,98.093823 C 21.958088,98.048423 20.630488,100.11902 19.749088,102.15622 C 17.972088,106.02142 15.903388,106.26382 13.436488,102.87502 C 11.847788,100.69252 11.817988,100.33732 13.186488,99.906223 C 14.041588,99.637023 15.536588,99.112423 16.499088,98.750023 C 17.461488,98.387623 18.586488,98.162723 18.999088,98.250023 C 19.418388,98.151023 19.754888,98.100223 20.030288,98.093823 z M 87.061488,98.406223 C 87.353488,98.424523 87.685588,98.820323 87.999088,99.656223 C 88.256688,100.34382 88.090588,101.80672 87.655288,102.90622 C 86.740888,105.21752 86.542288,104.94432 86.311488,101.15622 C 86.204088,99.392223 86.575088,98.375923 87.061488,98.406223 z M 142.90529,98.406223 C 143.54089,98.406223 145.45339,99.454223 147.15529,100.75002 C 148.85719,102.04592 151.28379,103.43972 152.56149,103.84382 C 154.77959,104.54502 154.80519,104.67692 153.15529,106.50002 C 150.79649,109.10642 145.74909,108.74012 145.74909,105.96882 C 145.74909,105.27482 144.84909,103.90182 143.74909,102.90622 C 141.55469,100.92032 141.08359,98.406523 142.90529,98.406223 z M 28.499088,103.15622 C 29.214288,103.03112 29.308088,103.70152 29.155288,105.09382 C 28.998288,106.52432 28.251488,108.31012 27.499088,109.06252 C 26.341788,110.21982 25.840088,110.19362 24.186488,108.96882 C 22.249788,107.53402 22.267288,107.50172 24.249088,105.93752 C 26.471288,104.18332 27.783788,103.28142 28.499088,103.15622 z M 142.62409,105.34382 C 142.83259,105.32212 143.08869,105.43342 143.34279,105.68752 C 143.67509,106.01982 143.76189,106.83642 143.53029,107.53122 C 143.19159,108.54742 142.94159,108.55082 142.31149,107.53122 C 141.68599,106.51912 141.99839,105.40862 142.62409,105.34382 z M 39.030288,105.59382 C 39.180188,105.59962 39.314488,105.65922 39.405288,105.75002 C 39.745388,106.09012 39.444288,107.03682 38.749088,107.87502 C 37.358888,109.55012 35.749088,109.90882 35.749088,108.53122 C 35.749088,107.41232 37.980888,105.55292 39.030288,105.59382 z"
     id="path2384"
     sodipodi:nodetypes="cssssccsssssssssssccccsssssssscccsssssccsssssssccsssssssssssssssccsssssssscccccsssccssscccccsccsssccsscccssccssccssccsssssccssssccssssccsccsccsssscccssccssssssccsccssssssccssccssssccsssccssccssssccsccccsssssscccscccssscccsccscccssssccsssccssccsssccssssssssssccsssccssssccsssccssccsssccsssccssssccssccsssssssccssssccssssssssssssssccssccsssccssssssccsssccssccssccssssccccccsssssssccssccccsssssccccscccsssssccsscccccssscccsssccsssssssssccssccsssssccccssssssccssssssccccsssssssccssccssssccsssssssccssccssccsccsssscccccccccccccsssssssssccccccccccsssccsssssccssssccssssssccssccssssccccccssssssccsssssccccsssssssssssssssssssccssssccssssssssccssssssssccssssscccccsccccsssccsssccssccsccssccsssssssccccssscccsssscccssccsssssccssssccssscccssscccsssccsssssccssssccsssccsssc" />
</svg>
